<svg xmlns="http://www.w3.org/2000/svg" xmlns:xlink="http://www.w3.org/1999/xlink" width="300" height="190" viewBox="0 0 300 190">
    <defs>
        <path id="a" d="M0 0h300v190H0z"/>
    </defs>
    <g fill="none" fill-rule="evenodd">
        <mask id="b" fill="#fff">
            <use xlink:href="#a"/>
        </mask>
        <use fill="#B48CC8" fill-rule="nonzero" xlink:href="#a"/>
        <g mask="url(#b)">
            <path fill="#FCFBD2" d="M167.428 102.67c0 33.14-26.87 60-60 60-16.57 0-31.57-6.71-42.43-17.57l24.75-24.75c4.53 4.52 10.77 7.32 17.68 7.32 13.8 0 25-11.19 25-25s-11.2-25-25-25v-35c33.13 0 60 26.86 60 60"/>
            <path fill="#5C3677" d="M107.428 42.67v35c-6.91 0-13.15 2.8-17.68 7.32l-24.75-24.75c10.86-10.86 25.86-17.57 42.43-17.57M167.428 163.17h20v-60.5h-20v60.5zm1-1h18v-58.5h-18v58.5z"/>
            <path fill="#FCFBD2" d="M187.428 162.67v-100h20v100"/>
            <path fill="#5C3677" d="M207.428 162.67h20v-80h-20z"/>
            <path fill="#FCFBD2" d="M256.52 131.556c2.832 7.783-1.181 16.389-8.963 19.22-7.782 2.834-16.388-1.18-19.221-8.962-2.833-7.782 1.18-16.388 8.962-19.22 7.784-2.833 16.388 1.18 19.221 8.962"/>
            <path stroke="#5C3677" d="M242.428 136.685v25.985"/>
            <path fill="#5C3677" d="M157.425 122.722c16.568 0 30 8.955 30 20 0 11.046-13.432 20-30 20-16.57 0-30-8.954-30-20 0-11.045 13.43-20 30-20"/>
            <path stroke="#B48CC8" d="M183.403 132.722h-51.958M187.425 142.722h-60M183.403 152.722h-51.958M157.425 123.09c5.472 0 9.907 8.872 9.907 19.815 0 10.945-4.435 19.817-9.907 19.817-5.473 0-9.91-8.872-9.91-19.817 0-10.943 4.437-19.815 9.91-19.815z"/>
            <path fill="#5C3677" d="M64.998 60.24c-10.86 10.86-17.57 25.86-17.57 42.43s6.71 31.57 17.57 42.43l24.75-24.75c-4.52-4.53-7.32-10.77-7.32-17.68s2.8-13.15 7.32-17.68l-24.75-24.75zm.006 1.42l23.344 23.344a25.849 25.849 0 0 0-6.92 17.666 25.85 25.85 0 0 0 6.92 17.666L65.004 143.68C54.307 132.623 48.428 118.1 48.428 102.67s5.879-29.953 16.576-41.01z"/>
            <path stroke="#5C3677" d="M53.428 149.188v13.534"/>
            <path fill="#5C3677" d="M53.428 162.722a6 6 0 0 1 6-6M53.428 162.722a6 6 0 0 0-6-6"/>
            <path fill="#FCFBD2" d="M56.428 148.737a3 3 0 1 0-6 0 3 3 0 0 0 6 0"/>
            <path stroke="#5C3677" d="M254.943 162.67H42.573"/>
        </g>
    </g>
</svg>
