<svg xmlns="http://www.w3.org/2000/svg" xmlns:xlink="http://www.w3.org/1999/xlink" width="255" height="155" viewBox="0 0 255 155">
    <defs>
        <path id="a" d="M.203.47h91.758v113.612H.203z"/>
        <path id="c" d="M0 .483h28.256V28.74H0z"/>
        <path id="e" d="M0 .94h200.027v.942H0z"/>
        <path id="g" d="M.599.47h18.837v18.836H.6z"/>
    </defs>
    <g fill="none" fill-rule="evenodd">
        <path fill="#FFF" fill-rule="nonzero" d="M0 0h255v155H0z"/>
        <path fill="#B48CC8" d="M157.493 79.089a34.123 34.123 0 0 1-4.578 17.124c-5.924 10.218-16.972 17.094-29.64 17.094-2.91 0-5.737-.367-8.44-1.044V45.916a34.683 34.683 0 0 1 8.44-1.046c18.902 0 34.218 15.316 34.218 34.219"/>
        <g transform="translate(123.071 11.436)">
            <mask id="b" fill="#fff">
                <use xlink:href="#a"/>
            </mask>
            <path fill="#B48CC8" d="M91.96 19.306v94.776L48.55 89.033l-2.836 4.898-15.87-9.154a34.114 34.114 0 0 0 4.577-17.124c0-18.903-15.315-34.219-34.218-34.219V.47h72.92" mask="url(#b)"/>
        </g>
        <path fill="#B48CC8" d="M215.032 138.587l-.5.47h-91.258v-25.75c12.669 0 23.717-6.876 29.641-17.094l15.87 9.154-2.815 4.888 49.062 28.332z"/>
        <path stroke="#5C3677" d="M91.192 67.18l-26.175 71.915L38.842 67.18c-6.613-18.168 6.842-37.381 26.175-37.381 19.334 0 32.788 19.213 26.175 37.381z"/>
        <path fill="#B48CC8" d="M74.689 57.677c0 5.341-4.331 9.672-9.672 9.672-5.34 0-9.672-4.33-9.672-9.672 0-5.342 4.331-9.672 9.672-9.672s9.672 4.33 9.672 9.672"/>
        <path stroke="#5C3677" d="M157.496 79.089c0 18.9-15.321 34.222-34.22 34.222-18.9 0-34.222-15.323-34.222-34.222 0-18.9 15.322-34.221 34.221-34.221 18.9 0 34.221 15.321 34.221 34.22zM168.788 105.366l-15.877-9.167"/>
        <g transform="translate(27 99.972)">
            <mask id="d" fill="#fff">
                <use xlink:href="#c"/>
            </mask>
            <path fill="#B48CC8" d="M27.4 9.78c2.669 7.33-1.11 15.436-8.441 18.104-7.33 2.668-15.436-1.112-18.104-8.441-2.668-7.331 1.112-15.436 8.442-18.104C16.627-1.33 24.732 2.45 27.4 9.78" mask="url(#d)"/>
        </g>
        <path stroke="#5C3677" d="M41.128 114.584v24.474M92.822 126.828v12.23"/>
        <path fill="#B48CC8" d="M95.647 125.886a2.826 2.826 0 1 0-5.652.001 2.826 2.826 0 0 0 5.652 0"/>
        <path fill="#5C3677" d="M92.822 139.058c0-3.12 2.53-5.651 5.65-5.651M92.822 139.058c0-3.12-2.531-5.651-5.652-5.651M220.683 128.792l-5.651 9.795-49.062-28.332 5.65-9.785z"/>
        <g transform="translate(27 137.647)">
            <mask id="f" fill="#fff">
                <use xlink:href="#e"/>
            </mask>
            <path stroke="#5C3677" d="M200.027 1.41H0"/>
        </g>
        <g transform="translate(195.596 11.436)">
            <mask id="h" fill="#fff">
                <use xlink:href="#g"/>
            </mask>
            <path fill="#5C3677" d="M.599.469v18.837h18.837" mask="url(#h)"/>
        </g>
    </g>
</svg>
