<svg xmlns="http://www.w3.org/2000/svg" xmlns:xlink="http://www.w3.org/1999/xlink" width="255" height="155" viewBox="0 0 255 155">
    <defs>
        <path id="a" d="M0 114h240.667V.137H0z"/>
    </defs>
    <g fill="none" fill-rule="evenodd">
        <path fill="#FFF" fill-rule="nonzero" d="M0 0h255v155H0z"/>
        <path stroke="#5C3677" d="M141.4 75.22v-18.3l-25.228-25.226h61.716L152.661 56.92v18.3"/>
        <g transform="translate(6 25.863)">
            <path fill="#5C3677" d="M79.328 53.5c24.853 0 45 13.432 45 30 0 16.568-20.147 30-45 30s-45-13.432-45-30c0-16.568 20.147-30 45-30"/>
            <path stroke="#FFF" d="M118.163 68.167H38.498M124.328 83.5H32.334M118.163 98.832H38.498M79.328 53.5c8.284 0 15 13.432 15 30 0 16.568-6.716 30-15 30-8.284 0-15-13.432-15-30 0-16.568 6.716-30 15-30z"/>
            <path fill="#B48CC8" d="M9.908 53.134v28c0 6.627 5.373 12 12 12s12-5.373 12-12v-28c0-6.628-5.373-12-12-12s-12 5.372-12 12"/>
            <path stroke="#5C3677" d="M21.908 113.5V67.134"/>
            <path fill="#5C3677" d="M203.092 76.445h20l-10-17.308z"/>
            <mask id="b" fill="#fff">
                <use xlink:href="#a"/>
            </mask>
            <path fill="#5C3677" d="M211.099 113.5h4V66.239h-4z" mask="url(#b)"/>
            <path fill="#B48CC8" d="M191.092 17.445h20l-10-17.308z" mask="url(#b)"/>
            <path fill="#B48CC8" d="M199.099 113.5h4V7.239h-4zM185.353 49.358H83.207a3.873 3.873 0 0 0-3.872 3.874V113.5h109.891V53.23a3.873 3.873 0 0 0-3.873-3.873" mask="url(#b)"/>
            <path fill="#5C3677" d="M119.991 49.358H82.958c-2.005 0-3.623 1.857-3.623 4.143V42.454c0-2.285 1.624-4.143 3.623-4.143h25.875c.966 0 1.884.436 2.566 1.215l8.592 9.832z" mask="url(#b)"/>
            <path stroke="#5C3677" d="M226.092 99.965V113.5"/>
            <path fill="#5C3677" d="M226.092 113.5a6 6 0 0 0-6-6M226.092 113.5a6 6 0 0 1 6-6" mask="url(#b)"/>
            <path fill="#B48CC8" d="M223.092 99.515a3 3 0 1 1 6 0 3 3 0 0 1-6 0" mask="url(#b)"/>
            <path fill="#5C3677" d="M26.599 113.5h-12a5.998 5.998 0 0 1 7.81-5.72 6.008 6.008 0 0 1 4.19 5.72M43.759 113.5h-8c0-2.21 1.79-4 4-4h.04c2.19.02 3.96 1.8 3.96 4" mask="url(#b)"/>
            <path fill="#5C3677" d="M40.599 113.5h-20c0-2.13.67-4.1 1.81-5.72a9.926 9.926 0 0 1 8.19-4.28c4.1 0 7.62 2.47 9.16 6 .54 1.22.84 2.58.84 4M113.879 71.429h40.804c5.515 0 10 4.484 10 10s-4.485 10-10 10h-40.804" mask="url(#b)"/>
            <path fill="#FCFBD2" d="M123.879 81.429c0-5.523-4.477-10-10-10s-10 4.477-10 10c0 5.522 4.477 10 10 10s10-4.478 10-10" mask="url(#b)"/>
            <path stroke="#5C3677" d="M240.667 113.331H0"/>
        </g>
    </g>
</svg>
