<svg xmlns="http://www.w3.org/2000/svg" xmlns:xlink="http://www.w3.org/1999/xlink" width="300" height="190" viewBox="0 0 300 190">
    <defs>
        <path id="a" d="M0 0h300v190H0z"/>
    </defs>
    <g fill="none" fill-rule="evenodd">
        <mask id="b" fill="#fff">
            <use xlink:href="#a"/>
        </mask>
        <use fill="#B48CC8" fill-rule="nonzero" xlink:href="#a"/>
        <g mask="url(#b)">
            <path fill="#5C3677" d="M216.876 162.689h20v-23.11h-20z"/>
            <path fill="#FCFBD2" d="M196.876 163.164h20V100.75h-20z"/>
            <path fill="#5C3677" d="M176.876 162.689h20V131.5h-20z"/>
            <path fill="#FCFBD2" d="M254.548 121.845l15.839 38.269-6.233 2.576-14.77-35.682-12.508 12.497V86.5l35.345 35.345zM170.876 85.994H58.125a6 6 0 0 0-6 6v65.17a6 6 0 0 0 6 6h112.751a6 6 0 0 0 6-6v-65.17a6 6 0 0 0-6-6"/>
            <path stroke="#B48CC8" d="M84.5 106.58h60M84.5 124.58h60M84.5 142.58h60"/>
            <path fill="#5C3677" d="M99.77 106.58a4.645 4.645 0 1 1-9.29 0 4.645 4.645 0 0 1 9.29 0M51.216 131.463c2.833 7.783-1.18 16.39-8.962 19.221-7.783 2.833-16.39-1.18-19.221-8.963-2.833-7.782 1.18-16.388 8.962-19.22 7.783-2.833 16.388 1.18 19.22 8.962"/>
            <path stroke="#FCFBD2" d="M37.124 136.592v25.985"/>
            <path fill="#5C3677" d="M100.496 85.994h-42.37c-3.32 0-6 2.69-6 6v-16c0-3.31 2.69-6 6-6h23.89c1.6 0 3.12.63 4.25 1.761l14.23 14.24z"/>
            <path fill="#B48CC8" d="M188.506 162.67h-34.23c.33-.79.81-1.51 1.41-2.1a6.584 6.584 0 0 1 2.1-1.42 6.498 6.498 0 0 1 2.57-.52h.02c.08-1.28.38-2.5.859-3.64a10.895 10.895 0 0 1 2.37-3.52 11.384 11.384 0 0 1 3.54-2.39c1.32-.55 2.79-.87 4.32-.87 1.52 0 2.99.32 4.31.87a11.27 11.27 0 0 1 3.54 2.39c1 1 1.82 2.19 2.37 3.52.18.43.34.88.47 1.34h.01c3.5 0 6.34 2.84 6.34 6.34"/>
            <path fill="#5C3677" d="M176.876 131.5h20v-24.921h-20V131.5zm1-1h18v-22.921h-18V130.5zM196.876 100.75h20V66.5h-20zM216.876 139.579h20V86.5h-20v53.079zm1-1h18V87.5h-18v51.079z"/>
            <path stroke="#5C3677" d="M277.876 162.67H22.124"/>
            <path fill="#5C3677" d="M140.828 124.537a4.644 4.644 0 1 1-9.289 0 4.644 4.644 0 0 1 9.29 0M117.883 142.483a4.644 4.644 0 1 1-9.289-.001 4.644 4.644 0 0 1 9.289 0"/>
        </g>
    </g>
</svg>
