<svg xmlns="http://www.w3.org/2000/svg" xmlns:xlink="http://www.w3.org/1999/xlink" width="300" height="190" viewBox="0 0 300 190">
    <defs>
        <path id="a" d="M0 0h300v190H0z"/>
    </defs>
    <g fill="none" fill-rule="evenodd">
        <mask id="b" fill="#fff">
            <use xlink:href="#a"/>
        </mask>
        <use fill="#B48CC8" fill-rule="nonzero" xlink:href="#a"/>
        <g mask="url(#b)">
            <path fill="#FCFBD2" d="M182.36 95c0 6.63-1.77 12.83-4.86 18.18-6.29 10.85-18.02 18.15-31.47 18.15-3.09 0-6.09-.39-8.96-1.11V59.78c2.87-.72 5.87-1.11 8.96-1.11 20.07 0 36.33 16.26 36.33 36.33"/>
            <path fill="#FCFBD2" d="M243.45 43.67v100.624L197.36 117.7l-3.01 5.199-16.85-9.719A36.212 36.212 0 0 0 182.36 95c0-20.07-16.26-36.33-36.33-36.33v-35h77.42M243.45 158.17l-.53.5h-96.89v-27.34c13.45 0 25.18-7.3 31.47-18.15l16.85 9.719-2.99 5.191 52.09 30.08zM111.968 82.355l-27.79 76.355-27.79-76.355c-7.021-19.288 7.264-39.687 27.79-39.687 20.527 0 34.81 20.399 27.79 39.687"/>
            <path fill="#B48CC8" d="M94.446 72.266c0 5.672-4.598 10.269-10.269 10.269-5.67 0-10.268-4.597-10.268-10.27 0-5.67 4.598-10.268 10.268-10.268 5.671 0 10.27 4.598 10.27 10.269"/>
            <path stroke="#5C3677" d="M182.364 95c0 20.066-16.267 36.333-36.333 36.333S109.698 115.066 109.698 95s16.267-36.333 36.333-36.333S182.364 74.934 182.364 95zM194.352 122.898l-16.857-9.733"/>
            <path fill="#5C3677" d="M72.906 127.556c2.833 7.783-1.18 16.388-8.963 19.22-7.782 2.834-16.388-1.18-19.22-8.962-2.833-7.782 1.18-16.388 8.962-19.22 7.783-2.833 16.388 1.18 19.221 8.962"/>
            <path stroke="#FCFBD2" d="M58.815 132.685v25.985"/>
            <path stroke="#5C3677" d="M113.698 145.685v12.985"/>
            <path fill="#FCFBD2" d="M116.698 144.685a3.001 3.001 0 0 0-6 0 3 3 0 1 0 6 0"/>
            <path fill="#5C3677" d="M113.698 158.67a6 6 0 0 1 6-6M113.698 158.67a6 6 0 0 0-6-6M249.45 147.77l-6 10.4-52.09-30.08 6-10.39z"/>
            <path stroke="#5C3677" d="M256.185 158.67H43.815"/>
            <path fill="#5C3677" d="M223.45 23.67v20h20"/>
        </g>
    </g>
</svg>
