<svg xmlns="http://www.w3.org/2000/svg" width="256" height="155" viewBox="0 0 256 155">
    <g fill="none" fill-rule="evenodd">
        <path fill="#FFF" fill-rule="nonzero" d="M.5 0h255v155H.5z"/>
        <path fill="#5C3677" d="M91.672 23.07c31.89 0 57.743 25.852 57.743 57.744 0 31.89-25.853 57.743-57.743 57.743h13.473c31.89 0 57.743-25.853 57.743-57.743 0-31.892-25.852-57.744-57.743-57.744H91.672z"/>
        <path stroke="#5C3677" d="M149.415 80.814c0-31.892-25.852-57.744-57.743-57.744-31.892 0-57.743 25.852-57.743 57.744 0 31.89 25.851 57.743 57.743 57.743 31.89 0 57.743-25.853 57.743-57.743zM91.672 80.814v-48.12M91.672 80.814L74.027 98.457M205.324 125.855v13.025"/>
        <path fill="#5C3677" d="M205.324 138.88a5.775 5.775 0 0 1 5.775-5.774M205.324 138.88a5.775 5.775 0 0 0-5.774-5.774"/>
        <path fill="#B48CC8" d="M208.211 125.422a2.888 2.888 0 1 0-5.775 0 2.888 2.888 0 0 0 5.775 0M211.099 95.017v23.098a7.699 7.699 0 1 0 15.398 0V95.017a7.7 7.7 0 0 0-15.398 0"/>
        <path stroke="#5C3677" d="M218.798 138.88v-32.314"/>
        <path fill="#B48CC8" d="M156.224 81.137c23.918 0 43.307 12.927 43.307 28.872s-19.39 28.871-43.307 28.871c-23.919 0-43.308-12.926-43.308-28.871 0-15.945 19.39-28.872 43.308-28.872"/>
        <path stroke="#FFF" d="M195.125 95.034h-77.803M201.146 110.009H111.3M195.125 124.99h-75.877M156.224 81.137c7.972 0 14.435 12.927 14.435 28.872s-6.463 28.871-14.435 28.871c-7.973 0-14.436-12.926-14.436-28.871 0-15.945 6.463-28.872 14.436-28.872z"/>
        <path fill="#B48CC8" d="M97.446 80.814a5.775 5.775 0 1 0-11.55 0 5.775 5.775 0 0 0 11.55 0M80.531 106.996H30.72a2.319 2.319 0 0 0-2.319 2.318v29.567H82.85v-29.567a2.318 2.318 0 0 0-2.319-2.318"/>
        <path fill="#5C3677" d="M52.733 106.996H30.57c-1.2 0-2.167 1.111-2.167 2.479v-6.61c0-1.368.972-2.48 2.167-2.48h15.486c.577 0 1.127.26 1.535.728l5.142 5.883z"/>
        <path stroke="#5C3677" d="M236.192 138.885H19"/>
    </g>
</svg>
