<svg xmlns="http://www.w3.org/2000/svg" width="300" height="190" viewBox="0 0 300 190">
    <g fill="none" fill-rule="evenodd">
        <path fill="#B48CC8" fill-rule="nonzero" d="M0 0h300v190H0z"/>
        <path fill="#5C3677" d="M83.253 162.67h-31.42c.32-.75.78-1.43 1.35-2a6.36 6.36 0 0 1 2-1.35c.48-.2.99-.35 1.52-.42 1.57-4.66 5.98-8.02 11.17-8.02 1.59 0 3.09.31 4.47.88l10.91 10.91z"/>
        <path fill="#FCFBD2" d="M231.423 107.5v55.17h-93V107.5"/>
        <path fill="#5C3677" d="M138.42 107.5h20V19.67h-20zM270.706 115.831c3.776 10.377-1.574 21.851-11.95 25.628-10.377 3.776-21.85-1.573-25.628-11.95-3.776-10.377 1.574-21.85 11.95-25.628 10.377-3.777 21.851 1.574 25.628 11.95"/>
        <path stroke="#FCFBD2" d="M251.917 122.67v40"/>
        <path fill="#5C3677" d="M138.42 107.5v28.28l-26.88 26.89H83.25z"/>
        <path fill="#FCFBD2" d="M138.42 19.67v87.83l-55.17 55.17-55.17-55.17V19.67z"/>
        <path fill="#B48CC8" d="M118.253 72.596c-7.783 10.9-20.553 18.017-35 18.017s-27.217-7.117-35-18.017c7.783-10.921 20.553-18.037 35-18.037s27.217 7.116 35 18.037"/>
        <path fill="#5C3677" d="M92.266 72.597a9.014 9.014 0 1 0-18.026 0 9.014 9.014 0 1 0 18.026 0"/>
        <path stroke="#5C3677" d="M34.083 149.188v13.534"/>
        <path fill="#5C3677" d="M34.083 162.722a6 6 0 0 1 6-6M34.083 162.722a6 6 0 0 0-6-6"/>
        <path fill="#FCFBD2" d="M37.083 148.737a3 3 0 1 0-6 0 3 3 0 0 0 6 0"/>
        <path stroke="#5C3677" d="M277.876 162.67H22.124M231.923 107.5l-47 27.139-47-27.139"/>
    </g>
</svg>
