<svg xmlns="http://www.w3.org/2000/svg" width="300" height="190" viewBox="0 0 300 190">
    <g fill="none" fill-rule="evenodd">
        <path fill="#B48CC8" fill-rule="nonzero" d="M0 0h300v190H0z"/>
        <path fill="#5C3677" d="M104.178 42.334c33.137 0 60 26.862 60 60 0 33.137-26.863 60-60 60h14c33.137 0 60-26.863 60-60 0-33.138-26.863-60-60-60h-14z"/>
        <path stroke="#5C3677" d="M164.179 102.334c0-33.138-26.863-60-60-60-33.138 0-60 26.862-60 60 0 33.137 26.862 60 60 60 33.137 0 60-26.863 60-60zM104.178 102.334v-50M104.178 102.334l-18.333 18.333M239.565 149.135v13.534"/>
        <path fill="#5C3677" d="M239.565 162.67a6 6 0 0 1 6-6M239.565 162.67a6 6 0 0 0-6-6"/>
        <path fill="#FCFBD2" d="M242.565 148.685a3 3 0 1 0-6.001.001 3 3 0 0 0 6 0"/>
        <path fill="#5C3677" d="M245.565 117.092v24a8 8 0 1 0 16 0v-24a8 8 0 0 0-16 0"/>
        <path stroke="#FCFBD2" d="M253.565 162.67v-33.577"/>
        <path fill="#FCFBD2" d="M188.988 102.67c24.853 0 45 13.432 45 30 0 16.569-20.147 30-45 30s-45-13.431-45-30c0-16.568 20.147-30 45-30"/>
        <path stroke="#B48CC8" d="M229.411 117.111h-80.845M235.667 132.67H142.31M229.411 148.237h-78.843M188.988 102.67c8.284 0 15 13.432 15 30 0 16.569-6.716 30-15 30-8.284 0-15-13.431-15-30 0-16.568 6.716-30 15-30z"/>
        <path fill="#FCFBD2" d="M110.178 102.334a6 6 0 1 0-12 0 6 6 0 0 0 12 0M92.603 129.539H40.845a2.41 2.41 0 0 0-2.41 2.409v30.722h56.576v-30.722a2.409 2.409 0 0 0-2.408-2.41"/>
        <path fill="#5C3677" d="M63.718 129.539h-23.03c-1.245 0-2.251 1.155-2.251 2.576v-6.87c0-1.42 1.01-2.575 2.252-2.575h16.09c.6 0 1.172.27 1.596.756l5.343 6.113z"/>
        <path stroke="#5C3677" d="M271.333 162.67H28.666"/>
    </g>
</svg>
