<svg xmlns="http://www.w3.org/2000/svg" width="300" height="190" viewBox="0 0 300 190">
    <g fill="none" fill-rule="evenodd">
        <path fill="#B48CC8" fill-rule="nonzero" d="M0 0h300v190H0z"/>
        <path fill="#5C3677" d="M176.435 159.96h54.061V62.087h-54.06z"/>
        <path stroke="#FCFBD2" d="M187.808 159.96h31.316V98.42h-31.316z"/>
        <path fill="#FCFBD2" d="M59.969 159.96h116.466V62.087H59.97z"/>
        <path fill="#B48CC8" d="M75.23 80.503v58.78h84.91v-58.78"/>
        <path fill="#5C3677" d="M75.23 139.283h4.524v-58.78H75.23z"/>
        <path stroke="#B48CC8" d="M96.212 144.357v15.532"/>
        <path fill="#B48CC8" d="M187.291 97.902c0-8.934 7.242-16.175 16.176-16.175 8.932 0 16.175 7.24 16.175 16.175"/>
        <path fill="#FCFBD2" d="M198.075 97.902c0-8.934 2.414-16.175 5.391-16.175 2.979 0 5.393 7.24 5.393 16.175h-10.784zM194.429 123.514h18.076v-18.372H194.43z"/>
        <path fill="#5C3677" d="M83.256 72.424L66.96 88.729H43.666L59.96 72.424z"/>
        <path fill="#B48CC8" d="M106.55 72.424L90.256 88.729H66.961l16.295-16.305z"/>
        <path fill="#5C3677" d="M129.846 72.424L113.55 88.729H90.255l16.296-16.305z"/>
        <path fill="#B48CC8" d="M153.14 72.424l-16.295 16.305h-23.294l16.294-16.305z"/>
        <path fill="#5C3677" d="M176.436 72.424L160.14 88.729h-23.294l16.295-16.305zM248.852 68.9h-10.338l5.17-8.946z"/>
        <path fill="#5C3677" d="M244.713 63.622V146l-2.068 2.068V63.622z"/>
        <path fill="#FCFBD2" d="M255.056 55.46h-10.339l5.17-8.946z"/>
        <path fill="#FCFBD2" d="M250.916 50.182v89.614l-2.068 2.068V50.182zM219.124 159.96h29.723v-29.723h-29.723z"/>
        <path fill="#5C3677" d="M248.847 159.96h14.856v-29.723h-14.856zM113.55 88.73c0 6.432 5.215 11.647 11.648 11.647 6.432 0 11.648-5.215 11.648-11.648M66.96 88.73c0 6.432 5.215 11.647 11.648 11.647s11.647-5.215 11.647-11.648M231.4 144.868h5.17v-8.27h-5.17z"/>
        <path stroke="#B48CC8" d="M233.986 136.598v-6.36"/>
        <path fill="#FCFBD2" d="M160.14 88.73c0 6.426-5.227 11.643-11.652 11.643-6.416 0-11.642-5.217-11.642-11.643h23.295zM113.55 88.73c0 6.426-5.226 11.643-11.652 11.643-6.416 0-11.643-5.217-11.643-11.643h23.296zM66.96 88.73c0 6.426-5.225 11.643-11.641 11.643-6.427 0-11.653-5.217-11.653-11.643h23.295zM34.056 159.89H23.89a5.082 5.082 0 1 1 10.166 0M46.983 159.89h-6.778a3.387 3.387 0 0 1 3.389-3.388h.034a3.385 3.385 0 0 1 3.355 3.388"/>
        <path fill="#FCFBD2" d="M44.109 159.89H27.165a8.39 8.39 0 0 1 1.533-4.846 8.41 8.41 0 0 1 6.94-3.626 8.464 8.464 0 0 1 7.76 5.084 8.372 8.372 0 0 1 .71 3.388"/>
        <path stroke="#5C3677" d="M269.907 145.968v13.992"/>
        <path fill="#5C3677" d="M269.907 159.96a6.204 6.204 0 0 1 6.203-6.203M269.907 159.96a6.204 6.204 0 0 0-6.203-6.203"/>
        <path fill="#FCFBD2" d="M273.008 145.502a3.102 3.102 0 1 0-6.204 0 3.102 3.102 0 0 0 6.204 0"/>
        <path fill="#5C3677" d="M85.874 146.82h20.677V133.68H85.874zM154.853 133.679H115.21c-.916 0-1.66.744-1.66 1.66v24.621h42.964v-24.62a1.66 1.66 0 0 0-1.66-1.661"/>
        <path fill="#FCFBD2" d="M130.976 133.679h-15.873c-.859 0-1.552.797-1.552 1.776v-4.734c0-.981.696-1.776 1.552-1.776h11.09c.415 0 .808.187 1.1.521l3.683 4.213z"/>
        <path fill="#B48CC8" d="M166.232 153.396c-.559.97-1.251 1.88-2.09 2.719a13.112 13.112 0 0 1-9.293 3.846v-13.14l11.383 6.575z"/>
        <path fill="#FCFBD2" d="M154.85 133.68v26.28c-3.36 0-6.731-1.282-9.295-3.846a13.132 13.132 0 0 1-3.392-12.695c.29-1.106.725-2.171 1.314-3.174a12.97 12.97 0 0 1 2.078-2.72 13.13 13.13 0 0 1 9.294-3.845"/>
        <path fill="#5C3677" d="M167.546 150.22a13.1 13.1 0 0 1-1.314 3.17l-7.586-4.38-3.793-2.19V133.68c3.364 0 6.719 1.279 9.286 3.847v.007c.35.343.674.701.972 1.078a13.125 13.125 0 0 1 2.435 11.608M34.629 106.022v27.913a9.304 9.304 0 0 0 9.304 9.305 9.304 9.304 0 0 0 9.305-9.305v-27.913a9.304 9.304 0 0 0-9.305-9.305 9.304 9.304 0 0 0-9.304 9.305"/>
        <path stroke="#FCFBD2" d="M43.933 159.96v-39.982"/>
        <path stroke="#5C3677" d="M281.298 159.96H18.702"/>
    </g>
</svg>
