<svg xmlns="http://www.w3.org/2000/svg" xmlns:xlink="http://www.w3.org/1999/xlink" width="300" height="190" viewBox="0 0 300 190">
    <defs>
        <path id="a" d="M0 0h300v190H0z"/>
    </defs>
    <g fill="none" fill-rule="evenodd">
        <mask id="b" fill="#fff">
            <use xlink:href="#a"/>
        </mask>
        <use fill="#B48CC8" fill-rule="nonzero" xlink:href="#a"/>
        <g mask="url(#b)">
            <path stroke="#FCFBD2" d="M160.15 98.527V85.914l-17.388-17.387h42.536l-17.387 17.387v12.613"/>
            <path fill="#5C3677" d="M102.328 102.67c24.853 0 45 13.432 45 30 0 16.568-20.147 30-45 30s-45-13.432-45-30c0-16.568 20.147-30 45-30"/>
            <path stroke="#B48CC8" d="M141.163 117.338H61.498M147.328 132.67H55.334M141.163 148.002H61.498M102.328 102.67c8.284 0 15 13.432 15 30 0 16.568-6.716 30-15 30-8.284 0-15-13.432-15-30 0-16.568 6.716-30 15-30z"/>
            <path fill="#FCFBD2" d="M32.908 102.304v28c0 6.628 5.373 12 12 12s12-5.372 12-12v-28c0-6.627-5.373-12-12-12s-12 5.373-12 12"/>
            <path stroke="#5C3677" d="M44.908 162.67v-46.366"/>
            <path fill="#5C3677" d="M238.092 125.614h20l-10-17.308z"/>
            <path fill="#5C3677" d="M246.099 162.67h4v-47.26h-4zM234.092 95.614h-20l10-17.308z"/>
            <path fill="#5C3677" d="M222.099 162.67h4V85.41h-4z"/>
            <path fill="#FCFBD2" d="M226.092 66.614h20l-10-17.308z"/>
            <path fill="#FCFBD2" d="M234.099 162.67h4V56.41h-4zM208.353 98.527H106.207a3.873 3.873 0 0 0-3.872 3.874v60.27h109.891V102.4a3.873 3.873 0 0 0-3.873-3.874"/>
            <path fill="#5C3677" d="M142.991 98.527h-37.033c-2.005 0-3.623 1.857-3.623 4.143V91.623c0-2.285 1.624-4.142 3.623-4.142h25.875c.966 0 1.884.435 2.566 1.215l8.592 9.831z"/>
            <path stroke="#5C3677" d="M261.092 149.136v13.534"/>
            <path fill="#5C3677" d="M261.092 162.67a6 6 0 0 0-6-6M261.092 162.67a6 6 0 0 1 6-6"/>
            <path fill="#FCFBD2" d="M258.092 148.685a3.001 3.001 0 0 1 6 0 3 3 0 1 1-6 0M49.599 162.67h-12a5.998 5.998 0 0 1 7.81-5.72c2.42.76 4.19 3.04 4.19 5.72M66.759 162.67h-8c0-2.21 1.79-4 4-4h.04c2.19.02 3.96 1.8 3.96 4"/>
            <path fill="#FCFBD2" d="M63.599 162.67h-20c0-2.13.67-4.1 1.81-5.72a9.927 9.927 0 0 1 8.19-4.28c4.1 0 7.62 2.47 9.16 6 .54 1.22.84 2.58.84 4"/>
            <path fill="#5C3677" d="M136.879 120.599h40.804c5.515 0 10 4.484 10 10s-4.485 10-10 10h-40.804"/>
            <path fill="#B48CC8" d="M146.879 130.599c0-5.522-4.477-10-10-10s-10 4.478-10 10c0 5.523 4.477 10 10 10s10-4.477 10-10"/>
            <path stroke="#5C3677" d="M277 162.67H23"/>
        </g>
    </g>
</svg>
