<svg xmlns="http://www.w3.org/2000/svg" width="462" height="256" viewBox="0 0 462 256">
    <g fill="none" fill-rule="evenodd">
        <path fill="#B48CC8" d="M0 256h462.002V0H0z"/>
        <path stroke="#5C3677" stroke-width=".973" d="M158.554 118.806c0-9.33-7.546-16.891-16.855-16.891-9.309 0-16.855 7.562-16.855 16.89 0 9.33 7.546 16.892 16.855 16.892 9.309 0 16.855-7.562 16.855-16.891zM109.171 86.208l20.61 20.654M109.171 93.715v-7.507h7.491"/>
        <path fill="#5C3677" d="M327.176 40.297v181.166h-65.889V40.297l6.588 6.603 6.587-6.603 6.59 6.603 6.587-6.603 6.588 6.603 6.587-6.603 6.598 6.603 6.589-6.603 6.587 6.603z"/>
        <path fill="#FCFBD2" d="M261.287 40.297v181.166H142.684V40.297l6.588 6.603 6.588-6.603 6.588 6.603 6.588-6.603 6.588 6.603 6.597-6.603 6.588 6.603 6.588-6.603 6.588 6.603 6.588-6.603 6.589 6.603 6.587-6.603 6.588 6.603 6.588-6.603 6.588 6.603 6.598-6.603 6.588 6.603zM64.755 189.283c0 9.075-7.341 16.432-16.397 16.432-9.056 0-16.397-7.357-16.397-16.432 0-9.076 7.34-16.433 16.397-16.433 9.056 0 16.397 7.357 16.397 16.433"/>
        <path stroke="#5C3677" d="M48.358 221.463v-32.18"/>
        <path fill="#B48CC8" d="M218.177 122.947c-6.115 0-11.065-4.97-11.065-11.1 0-6.119 4.95-11.088 11.065-11.088 6.116 0 11.066 4.97 11.066 11.088 0 6.13-4.95 11.1-11.066 11.1m0-43.07c-22.118 0-37.517 22.04-29.953 42.872l29.953 82.464 29.954-82.464c1.323-3.655 1.949-7.352 1.949-10.965 0-16.924-13.67-31.907-31.903-31.907"/>
        <path fill="#FCFBD2" d="M274.839 183.417h23.247v-21.31H274.84z"/>
        <path fill="#5C3677" d="M200.963 188.09c0 13.772-12.477 25.586-30.282 30.682-6.039 1.735-12.688 2.691-19.67 2.691-27.585 0-49.953-14.94-49.953-33.374 0-6.073 2.431-11.781 6.694-16.686 5.372-6.208 13.653-11.148 23.588-13.995h.011a49.16 49.16 0 0 1 2.287-.612c.477-.123.955-.234 1.443-.334.356-.09.71-.167 1.077-.244a52.993 52.993 0 0 1 2.375-.446 54.67 54.67 0 0 1 2.409-.378c1.443-.2 2.897-.356 4.373-.457.179-.022.345-.033.523-.043.21-.012.433-.034.643-.034a52.285 52.285 0 0 1 1.932-.1h.034a65.134 65.134 0 0 1 2.563-.044c6.983 0 13.632.957 19.671 2.692 9.935 2.847 18.216 7.787 23.589 13.995 4.262 4.905 6.693 10.613 6.693 16.686"/>
        <path stroke="#B48CC8" d="M194.266 171.403H107.75M200.961 188.09h-99.906M194.266 204.776H107.75M151.008 155.03c9.153 0 16.572 14.872 16.572 33.217s-7.42 33.216-16.572 33.216-16.572-14.871-16.572-33.216 7.42-33.216 16.572-33.216z"/>
        <path stroke="#5C3677" d="M58.283 210.48v10.983"/>
        <path fill="#5C3677" d="M58.283 221.463a4.864 4.864 0 0 0-4.859-4.869M58.283 221.463a4.864 4.864 0 0 1 4.858-4.869"/>
        <path fill="#FCFBD2" d="M55.853 210.114a2.432 2.432 0 0 1 2.43-2.434c1.341 0 2.429 1.09 2.429 2.434a2.432 2.432 0 0 1-2.43 2.435 2.432 2.432 0 0 1-2.429-2.435"/>
        <path fill="#B48CC8" d="M210.19 221.463h15.974v-16.007H210.19zM259.669 186.67v32.968a1.825 1.825 0 0 1-1.822 1.825h-20.04a1.825 1.825 0 0 1-1.823-1.825V186.67c0-1.008.816-1.826 1.822-1.826h20.041c1.006 0 1.822.818 1.822 1.826"/>
        <path stroke="#B48CC8" d="M250.863 179.616a4.275 4.275 0 0 0-3.036-1.26c-1.187 0-2.26.481-3.037 1.26M241.753 176.573a8.527 8.527 0 0 1 6.074-2.52c2.294 0 4.45.895 6.073 2.52M238.717 173.53a12.786 12.786 0 0 1 9.11-3.782c3.44 0 6.675 1.343 9.11 3.781"/>
        <path fill="#FCFBD2" d="M238.717 214.971h18.22v-27.387h-18.22z"/>
        <path fill="#5C3677" d="M249.444 218.217c0-.895-.726-1.623-1.62-1.623-.894 0-1.62.728-1.62 1.623 0 .896.726 1.623 1.62 1.623.894 0 1.62-.727 1.62-1.623"/>
        <path fill="#FCFBD2" d="M106.014 221.463h-30.28a3.03 3.03 0 0 1-3.027-3.034V157.74a3.031 3.031 0 0 1 3.028-3.035h30.28a3.031 3.031 0 0 1 3.027 3.035v60.69a3.03 3.03 0 0 1-3.028 3.033"/>
        <path fill="#5C3677" d="M104.5 209.326H77.25c-.837 0-1.515-.68-1.515-1.518v-48.55c0-.839.678-1.518 1.514-1.518H104.5c.836 0 1.514.68 1.514 1.518v48.55c0 .838-.678 1.518-1.514 1.518"/>
        <path fill="#B48CC8" d="M93.902 215.395a3.03 3.03 0 0 1-3.027 3.034 3.031 3.031 0 0 1-3.029-3.034 3.031 3.031 0 0 1 3.029-3.034 3.03 3.03 0 0 1 3.027 3.034"/>
        <path fill="#FCFBD2" d="M216.558 215.772h3.239v-4.869h-3.24z"/>
        <path stroke="#FCFBD2" d="M218.177 210.904v-5.448"/>
        <path fill="#B48CC8" d="M273.315 152.847c0-6.722-5.438-12.172-12.146-12.172-6.708 0-12.146 5.45-12.146 12.172 0 6.723 5.438 12.173 12.146 12.173 6.708 0 12.146-5.45 12.146-12.173"/>
        <path stroke="#5C3677" d="M261.17 152.847v-10.143M261.17 152.847l-3.712 3.72"/>
        <path fill="#FCFBD2" d="M262.384 152.847a1.216 1.216 0 1 0-2.43 0 1.216 1.216 0 1 0 2.43 0"/>
        <path stroke="#B48CC8" d="M162.449 45.433v33.602"/>
        <path fill="#5C3677" d="M155.46 82.538l6.99-7.004 6.988 7.004z"/>
        <path fill="#B48CC8" d="M155.46 103.549h13.978V82.537H155.46z"/>
        <path stroke="#B48CC8" d="M269.98 221.463v-64.226h32.965v64.226"/>
        <path fill="#B48CC8" d="M307.326 168.99v52.466h90.723v-52.465"/>
        <path stroke="#5C3677" d="M307.326 168.99v52.466h90.723v-52.465"/>
        <path fill="#FCFBD2" d="M398.454 168.99l-45.32 26.478-45.32-26.477"/>
        <path stroke="#FCFBD2" stroke-linejoin="round" d="M327.632 205.1c-1.216 0-2.2-.989-2.2-2.208 0-1.216.984-2.204 2.2-2.204 1.217 0 2.2.988 2.2 2.204a2.203 2.203 0 0 1-2.2 2.208zm0-8.565c-4.398 0-7.459 4.384-5.955 8.525l5.955 16.396 5.956-16.396a6.385 6.385 0 0 0 .387-2.18c0-3.365-2.717-6.345-6.343-6.345z"/>
        <path fill="#5C3677" d="M420.995 221.456a3.697 3.697 0 0 1 1.961-1.965c.44-.187.925-.29 1.434-.29a3.675 3.675 0 0 1 3.396 2.255"/>
        <path fill="#5C3677" d="M410.473 221.456c0-3.82 3.09-6.915 6.9-6.915 3.812 0 6.902 3.096 6.902 6.915"/>
        <path stroke="#5C3677" d="M338.62 132.281c6.584 6.597 6.584 17.295 0 23.892-6.584 6.598-17.257 6.598-23.841 0-6.583-6.597-6.583-17.295 0-23.892 6.584-6.598 17.257-6.598 23.841 0zM346.248 173.678l9.839-9.86M356.087 173.678l-17.467-17.504M427.712 221.463H32.035"/>
        <path fill="#FCFBD2" d="M398.435 191.604v14.926l14.388-3.861a14.594 14.594 0 0 0-1.49-3.603 14.847 14.847 0 0 0-12.898-7.462"/>
        <path fill="#5C3677" d="M385.537 213.992a14.83 14.83 0 0 0 2.374 3.094c5.808 5.822 15.24 5.832 21.059 0a14.946 14.946 0 0 0 3.852-14.418l-14.386 3.862-12.899 7.462z"/>
        <path fill="#B48CC8" d="M385.702 213.432a14.715 14.715 0 0 1-1.25-3.15c-1.183-4.447-.18-9.24 2.684-12.813.323-.41.681-.808 1.068-1.187l.121-.12v-.01a14.348 14.348 0 0 1 9.708-4.123v14.267l-12.331 7.136z"/>
        <path fill="#5C3677" d="M398.437 191.617c-3.809 0-7.609 1.452-10.516 4.365v.01c-.397.388-.764.795-1.101 1.222-3.036 3.789-3.95 8.7-2.758 13.175a14.927 14.927 0 0 0 1.488 3.599l8.591-4.971 4.296-2.486v-14.914zm-.81.835v13.61l-3.89 2.252-7.871 4.554c-.422-.84-.764-1.74-1.022-2.689-1.15-4.326-.176-8.982 2.61-12.46.315-.4.662-.784 1.032-1.147l.245-.247v-.001a13.94 13.94 0 0 1 8.896-3.872z"/>
    </g>
</svg>
