<svg xmlns="http://www.w3.org/2000/svg" xmlns:xlink="http://www.w3.org/1999/xlink" width="427" height="228" viewBox="0 0 427 228">
    <defs>
        <path id="a" d="M0 0h426.875v236.754H0z"/>
        <path id="c" d="M0 223.854h402.239V0H0z"/>
    </defs>
    <g fill="none" fill-rule="evenodd" transform="translate(0 .285)">
        <mask id="b" fill="#fff">
            <use xlink:href="#a"/>
        </mask>
        <path fill="#00C97A" fill-rule="nonzero" stroke="#979797" d="M-2.5-5.5h432v242h-432z" mask="url(#b)"/>
        <g mask="url(#b)">
            <path fill="#00C97A" d="M11.938 230.232h402.238V6.377H11.938z"/>
            <g transform="translate(11.938 6.377)">
                <path fill="#075600" d="M147.856 160.196c0-26.016-21.091-47.108-47.108-47.108h95.195c26.016 0 47.108 21.092 47.108 47.108"/>
                <path stroke="#075600" d="M147.856 160.196c0-26.016-21.091-47.108-47.108-47.108h95.195c26.016 0 47.108 21.092 47.108 47.108"/>
                <path fill="#00C97A" d="M226.24 150.773h-63.463a46.653 46.653 0 0 0-2.98-9.423 7.638 7.638 0 0 0-.16-.356 46.404 46.404 0 0 0-5.331-9.06 47.364 47.364 0 0 0-9.423-9.422h63.463a47.364 47.364 0 0 1 9.423 9.422 46.688 46.688 0 0 1 5.491 9.416 46.697 46.697 0 0 1 2.98 9.423"/>
                <path fill="#FCFBD2" d="M344.542 40.224v64.47H234.636l-8.394 8.394V40.224z"/>
                <mask id="d" fill="#fff">
                    <use xlink:href="#c"/>
                </mask>
                <path fill="#075600" d="M101.098 112.739h94.495V84.295h-94.495z" mask="url(#d)"/>
                <path fill="#075600" d="M100.749 113.088h95.194V83.945h-95.194v29.143zm.7-.7h93.794V84.646h-93.795v27.744z" mask="url(#d)"/>
                <path fill="#FCFBD2" d="M167.962 104.694h2.798V92.34h-2.798z" mask="url(#d)"/>
                <path fill="#00C97A" d="M109.144 104.694h58.818V92.34h-58.818z" mask="url(#d)"/>
                <path fill="#FCFBD2" d="M114.657 23.519V51.5H78.45V16.523h29.213z" mask="url(#d)"/>
                <path fill="#075600" d="M114.657 23.519h-6.995v-6.996" mask="url(#d)"/>
                <path fill="#FCFBD2" d="M168.842 160.196v38.475H51.43V83.945h49.318v29.143c26.017 0 47.108 21.092 47.108 47.108h20.986z" mask="url(#d)"/>
                <path stroke="#FCFBD2" d="M222.037 179.433a5.596 5.596 0 1 0-11.193 0 5.596 5.596 0 0 0 11.193 0z" mask="url(#d)"/>
                <path fill="#00C97A" d="M156.735 177.563c0-11.657-9.45-21.107-21.108-21.107-11.658 0-21.108 9.45-21.108 21.107 0 11.658 9.45 21.108 21.108 21.108 11.657 0 21.108-9.45 21.108-21.108" mask="url(#d)"/>
                <path fill="#075600" d="M285.391 93.394c-11.445 0-20.757-9.312-20.757-20.758s9.312-20.758 20.757-20.758c11.446 0 20.759 9.312 20.759 20.758s-9.313 20.758-20.759 20.758" mask="url(#d)"/>
                <path fill="#075600" d="M285.391 51.528c-11.657 0-21.107 9.45-21.107 21.108 0 11.658 9.45 21.108 21.107 21.108 11.658 0 21.108-9.45 21.108-21.108 0-11.658-9.45-21.108-21.108-21.108m0 .7c11.254 0 20.409 9.155 20.409 20.408 0 11.253-9.155 20.408-20.409 20.408-11.253 0-20.408-9.155-20.408-20.408 0-11.253 9.155-20.408 20.408-20.408" mask="url(#d)"/>
                <path fill="#FCFBD2" d="M243.05 199.02h75.085v-75.433h-75.084z" mask="url(#d)"/>
                <path fill="#075600" d="M318.485 198.321h36.843v-74.385h-36.843z" mask="url(#d)"/>
                <path fill="#075600" d="M318.135 198.67h37.542v-75.083h-37.542v75.084zm.7-.699h36.143v-73.685h-36.143v73.685z" mask="url(#d)"/>
                <path stroke="#FCFBD2" d="M159.799 141.35h15.865a46.625 46.625 0 0 1 2.98 9.423M210.376 150.773a46.654 46.654 0 0 0-2.98-9.423h15.866M194.51 150.773a46.653 46.653 0 0 0-2.98-9.423h15.865M175.664 141.35h15.866" mask="url(#d)"/>
                <path stroke="#FCFBD2" d="M154.307 131.934h15.866c.154.203.3.406.447.616.161.223.322.448.476.672.175.244.343.489.51.734.337.503.665 1.007.987 1.525.133.217.266.433.392.65.189.315.378.63.553.952.153.265.3.539.447.812a.34.34 0 0 1 .035.069c.196.358.385.714.56 1.077.385.756.741 1.526 1.084 2.309M160.75 122.511a47.349 47.349 0 0 1 9.423 9.423M207.395 141.35a46.603 46.603 0 0 0-5.491-9.416M217.77 131.934h-15.866a47.364 47.364 0 0 0-9.422-9.423M191.53 141.35a46.636 46.636 0 0 0-5.492-9.416M201.904 131.934H186.04M176.616 122.511a44.996 44.996 0 0 1 3.4 2.82c2.21 2 4.225 4.21 6.023 6.603h-15.866" mask="url(#d)"/>
                <path stroke="#075600" d="M179.155 92.34h8.394" mask="url(#d)"/>
                <path stroke="#00C97A" d="M179.155 98.517h8.394M179.155 104.694h8.394" mask="url(#d)"/>
                <path fill="#075600" d="M71.369 198.67h29.38v-55.03H71.37z" mask="url(#d)"/>
                <path fill="#00C97A" d="M75.566 172.088h20.987v-21.455H75.566zM71.369 143.64c0-8.114 6.577-14.69 14.69-14.69 8.114 0 14.69 6.576 14.69 14.69" mask="url(#d)"/>
                <path fill="#FCFBD2" d="M78.714 143.64c0-8.114 3.289-14.69 7.345-14.69 4.057 0 7.346 6.576 7.346 14.69" mask="url(#d)"/>
                <path stroke="#00C97A" d="M278.396 79.632a6.996 6.996 0 1 0 6.995-6.996M292.387 65.64a6.995 6.995 0 1 0-6.996 6.996M285.391 55.148v34.977" mask="url(#d)"/>
                <path fill="#075600" d="M51.432 186.909a4.526 4.526 0 0 1-4.521-4.521 4.527 4.527 0 0 1 4.521-4.522 4.527 4.527 0 0 1 4.522 4.522 4.527 4.527 0 0 1-4.522 4.521" mask="url(#d)"/>
                <path fill="#075600" d="M51.432 177.516a4.871 4.871 0 1 0 0 9.743 4.871 4.871 0 0 0 0-9.743m0 .7c2.3 0 4.172 1.872 4.172 4.172s-1.871 4.171-4.172 4.171a4.176 4.176 0 0 1-4.171-4.17c0-2.301 1.87-4.173 4.171-4.173" mask="url(#d)"/>
                <g mask="url(#d)">
                    <path fill="#075600" d="M92.355 83.945v-13.64L73.552 51.5h46.002L100.75 70.304v13.641"/>
                    <path stroke="#075600" d="M92.355 83.945v-13.64L73.552 51.5h46.002L100.75 70.304v13.641"/>
                </g>
                <path fill="#00C97A" d="M150.793 198.67h23.784v-2.797h-23.784z" mask="url(#d)"/>
                <path stroke="#075600" d="M150.793 198.67h23.784v-2.797h-23.784z" mask="url(#d)"/>
                <path fill="#075600" d="M154.99 195.873h23.784v-2.799H154.99z" mask="url(#d)"/>
                <path fill="#00C97A" d="M152.911 193.074h23.785v-2.798h-23.785z" mask="url(#d)"/>
                <path stroke="#075600" d="M152.911 193.074h23.785v-2.798h-23.785z" mask="url(#d)"/>
                <path fill="#075600" d="M157.788 190.276h23.785v-2.798h-23.785zM290.677 184.074c-4.436 0-8.045-3.609-8.045-8.045v-25.183c0-4.436 3.609-8.045 8.045-8.045s8.045 3.609 8.045 8.045v25.183c0 4.436-3.61 8.045-8.045 8.045" mask="url(#d)"/>
                <path fill="#075600" d="M290.677 142.451a8.394 8.394 0 0 0-8.395 8.395v25.183a8.394 8.394 0 1 0 16.79 0v-25.183a8.394 8.394 0 0 0-8.395-8.395m0 .7c4.243 0 7.695 3.452 7.695 7.695v25.183c0 4.243-3.452 7.695-7.695 7.695s-7.695-3.452-7.695-7.695v-25.183c0-4.243 3.452-7.695 7.695-7.695" mask="url(#d)"/>
                <path stroke="#00C97A" d="M290.677 198.67v-35.232" mask="url(#d)"/>
                <path fill="#075600" d="M276.271 198.53h-10.073a5.035 5.035 0 0 1 6.557-4.8 5.043 5.043 0 0 1 3.516 4.8M290.677 198.53h-6.717a3.358 3.358 0 0 1 3.358-3.357h.035a3.356 3.356 0 0 1 3.324 3.358" mask="url(#d)"/>
                <path fill="#075600" d="M288.024 198.53h-16.789a8.31 8.31 0 0 1 1.52-4.8 8.333 8.333 0 0 1 6.875-3.594 8.386 8.386 0 0 1 7.688 5.037 8.284 8.284 0 0 1 .706 3.358" mask="url(#d)"/>
                <path fill="#00C97A" d="M56.303 187.242l-2.017 11.429h-5.714l-2.011-11.429z" mask="url(#d)"/>
                <path stroke="#075600" d="M56.303 187.242l-2.017 11.429h-5.714l-2.011-11.429z" mask="url(#d)"/>
                <path fill="#075600" d="M130.473 188.699c-.506 0-1.051-.402-1.051-1.052v-19.986c0-.65.546-1.052 1.051-1.052.183 0 .36.048.523.142l17.307 9.994c.328.19.524.53.524.909 0 .38-.196.719-.524.91l-17.307 9.992c-.164.095-.34.143-.523.143" mask="url(#d)"/>
                <path fill="#075600" d="M130.473 166.26a1.4 1.4 0 0 0-1.4 1.4v19.987c0 .817.67 1.402 1.4 1.402.233 0 .473-.06.698-.19l17.307-9.993a1.4 1.4 0 0 0 0-2.423l-17.307-9.994a1.39 1.39 0 0 0-.698-.19m0 .7a.69.69 0 0 1 .348.096l17.307 9.994c.315.181.35.484.35.605a.687.687 0 0 1-.35.606l-17.307 9.993a.69.69 0 0 1-.348.096.704.704 0 0 1-.701-.702v-19.986c0-.433.364-.702.701-.702" mask="url(#d)"/>
                <path stroke="#075600" d="M36.607 198.67h329.024" mask="url(#d)"/>
            </g>
        </g>
    </g>
</svg>
