<svg xmlns="http://www.w3.org/2000/svg" xmlns:xlink="http://www.w3.org/1999/xlink" width="427" height="230" viewBox="0 0 427 230">
    <defs>
        <path id="a" d="M0 0h426.875v236.754H0z"/>
        <path id="c" d="M0 245.228h440.644V0H0z"/>
        <path id="e" d="M0 255.305h458.75V0H0z"/>
    </defs>
    <g fill="none" fill-rule="evenodd" transform="translate(0 .285)">
        <mask id="b" fill="#fff">
            <use xlink:href="#a"/>
        </mask>
        <use fill="#B48CC8" fill-rule="nonzero" xlink:href="#a"/>
        <g mask="url(#b)">
            <path fill="#FC9D9D" d="M-7.38 227.24h440.644V-17.99H-7.38z"/>
            <g transform="translate(-7.38 -17.989)">
                <path stroke="#8B0015" stroke-width=".973" d="M152.825 120.694c0-8.81-7.141-15.95-15.951-15.95s-15.951 7.14-15.951 15.95c0 8.81 7.141 15.952 15.951 15.952s15.951-7.142 15.951-15.952zM106.09 89.91l19.504 19.505M106.09 97v-7.09h7.089"/>
                <path fill="#8B0015" d="M312.41 46.554V217.64h-62.358V46.554l6.235 6.236 6.234-6.236 6.236 6.236 6.235-6.236 6.235 6.236 6.234-6.236 6.244 6.236 6.236-6.236 6.234 6.236z"/>
                <path fill="#FCFBD2" d="M250.052 46.554V217.64H137.806V46.554l6.235 6.236 6.235-6.236 6.235 6.236 6.235-6.236 6.234 6.236 6.244-6.236 6.235 6.236 6.235-6.236 6.235 6.236 6.234-6.236 6.236 6.236 6.234-6.236 6.235 6.236 6.235-6.236 6.235 6.236 6.244-6.236 6.235 6.236z"/>
                <path fill="#FC9D9D" d="M134.513 153.222v29.006c-.59 0-11.664 1.348-11.993 1.433a33.08 33.08 0 0 0-1.579.421l-.008-10.568v-20.292h13.58z"/>
                <path fill="#FCFBD2" d="M64.054 187.25c0 8.57-6.948 15.518-15.518 15.518-8.571 0-15.519-6.948-15.519-15.518 0-8.571 6.948-15.519 15.519-15.519 8.57 0 15.518 6.948 15.518 15.519"/>
                <path stroke="#8B0015" d="M48.536 217.64v-30.39"/>
                <path fill="#FC9D9D" d="M209.253 124.605c-5.788 0-10.472-4.694-10.472-10.482 0-5.778 4.684-10.471 10.472-10.471 5.788 0 10.472 4.693 10.472 10.47 0 5.789-4.684 10.483-10.472 10.483m0-40.674c-20.933 0-35.506 20.815-28.348 40.487l28.348 77.876 28.349-77.876a30.296 30.296 0 0 0 1.843-10.354c0-15.983-12.936-30.133-30.192-30.133"/>
                <mask id="d" fill="#fff">
                    <use xlink:href="#c"/>
                </mask>
                <path fill="#FCFBD2" d="M262.878 181.71h22.001v-20.125h-22.001z" mask="url(#d)"/>
                <path fill="#8B0015" d="M192.961 186.123c0 13.006-11.808 24.162-28.658 28.975-5.716 1.638-12.009 2.542-18.617 2.542-26.106 0-47.275-14.11-47.275-31.517 0-5.736 2.301-11.126 6.335-15.758 5.085-5.863 12.922-10.528 22.324-13.217h.01c.715-.21 1.43-.399 2.165-.578.451-.115.904-.22 1.366-.315.336-.084.672-.157 1.019-.23a50.252 50.252 0 0 1 2.248-.42 51.842 51.842 0 0 1 2.28-.358 59.52 59.52 0 0 1 4.138-.431 7.72 7.72 0 0 1 .495-.042c.199-.01.41-.031.609-.031.6-.042 1.208-.074 1.828-.095h.032a61.775 61.775 0 0 1 2.426-.042c6.608 0 12.901.904 18.617 2.542 9.402 2.69 17.24 7.354 22.324 13.217 4.034 4.632 6.334 10.022 6.334 15.758" mask="url(#d)"/>
                <path stroke="#FC9D9D" d="M186.624 170.365h-81.88M192.96 186.123H98.409M186.624 201.881h-81.88M145.684 154.606c8.704 0 15.758 14.111 15.758 31.517s-7.054 31.517-15.758 31.517c-8.703 0-15.758-14.11-15.758-31.517 0-17.406 7.055-31.517 15.758-31.517z" mask="url(#d)"/>
                <path stroke="#8B0015" d="M57.928 207.268v10.372" mask="url(#d)"/>
                <path fill="#8B0015" d="M57.928 217.64a4.598 4.598 0 0 0-4.598-4.598M57.928 217.64a4.599 4.599 0 0 1 4.598-4.598" mask="url(#d)"/>
                <path fill="#FCFBD2" d="M55.63 206.922a2.3 2.3 0 1 1 4.598.001 2.3 2.3 0 0 1-4.599 0" mask="url(#d)"/>
                <path fill="#FC9D9D" d="M201.695 217.64h15.116v-15.117h-15.116z" mask="url(#d)"/>
                <path fill="#8B0015" d="M216.811 217.64h11.879v-15.117H216.81z" mask="url(#d)"/>
                <path fill="#FC9D9D" d="M248.52 184.783v31.133c0 .951-.772 1.724-1.723 1.724H227.83a1.725 1.725 0 0 1-1.724-1.724v-31.133c0-.952.772-1.724 1.724-1.724h18.967c.951 0 1.724.772 1.724 1.724" mask="url(#d)"/>
                <path stroke="#FC9D9D" d="M240.187 178.121a4.05 4.05 0 0 0-2.874-1.19 4.05 4.05 0 0 0-2.874 1.19M231.565 175.247a8.078 8.078 0 0 1 5.748-2.38c2.172 0 4.213.845 5.749 2.38M228.692 172.373a12.114 12.114 0 0 1 8.621-3.57c3.256 0 6.318 1.267 8.622 3.57" mask="url(#d)"/>
                <path fill="#FCFBD2" d="M228.692 211.51h17.243v-25.865h-17.243z" mask="url(#d)"/>
                <path fill="#8B0015" d="M238.844 214.575a1.533 1.533 0 1 0-3.067 0 1.533 1.533 0 0 0 3.067 0" mask="url(#d)"/>
                <path fill="#FCFBD2" d="M103.102 217.64H74.445a2.865 2.865 0 0 1-2.865-2.865v-57.313a2.865 2.865 0 0 1 2.865-2.866h28.657a2.865 2.865 0 0 1 2.865 2.866v57.313a2.865 2.865 0 0 1-2.865 2.865" mask="url(#d)"/>
                <path fill="#8B0015" d="M101.669 206.178h-25.79a1.433 1.433 0 0 1-1.434-1.433v-45.85c0-.791.642-1.433 1.434-1.433h25.79c.79 0 1.433.642 1.433 1.434v45.849c0 .79-.642 1.433-1.433 1.433" mask="url(#d)"/>
                <path fill="#FC9D9D" d="M91.64 211.909a2.865 2.865 0 1 1-5.732 0 2.865 2.865 0 0 1 5.731 0" mask="url(#d)"/>
                <path fill="#FCFBD2" d="M207.72 212.266h3.066v-4.598h-3.066z" mask="url(#d)"/>
                <path stroke="#FCFBD2" d="M209.253 207.668v-5.145" mask="url(#d)"/>
                <path fill="#FC9D9D" d="M261.436 152.842c0-6.349-5.147-11.495-11.495-11.495-6.349 0-11.496 5.146-11.496 11.495 0 6.348 5.147 11.495 11.496 11.495 6.348 0 11.495-5.147 11.495-11.495" mask="url(#d)"/>
                <path stroke="#8B0015" d="M249.94 152.842v-9.58M249.94 152.842l-3.512 3.513" mask="url(#d)"/>
                <path fill="#FCFBD2" d="M251.09 152.842a1.15 1.15 0 1 0-2.299 0 1.15 1.15 0 0 0 2.3 0" mask="url(#d)"/>
                <path stroke="#FC9D9D" d="M156.512 51.404v31.733" mask="url(#d)"/>
                <path fill="#8B0015" d="M149.898 86.444l6.614-6.614 6.614 6.614z" mask="url(#d)"/>
                <path fill="#FC9D9D" d="M149.897 106.286h13.229V86.444h-13.229z" mask="url(#d)"/>
                <path stroke="#FC9D9D" d="M258.28 217.64v-60.653h31.197v60.653" mask="url(#d)"/>
                <path stroke="#8B0015" d="M300.972 68.97v148.67h-54.187" mask="url(#d)"/>
                <g mask="url(#d)">
                    <path fill="#FC9D9D" d="M293.623 168.087v49.546h85.86v-49.546"/>
                    <path stroke="#8B0015" d="M293.623 168.087v49.546h85.86v-49.546"/>
                </g>
                <path fill="#FCFBD2" d="M379.867 168.087l-42.891 25.004-42.891-25.004" mask="url(#d)"/>
                <path stroke="#FCFBD2" stroke-linejoin="round" d="M312.842 202.187a2.083 2.083 0 1 1 0-4.166 2.083 2.083 0 0 1 0 4.166zm0-8.088c-4.163 0-7.06 4.14-5.637 8.05l5.637 15.484 5.636-15.484c.25-.686.366-1.38.366-2.058 0-3.178-2.571-5.992-6.002-5.992z" mask="url(#d)"/>
                <path fill="#8B0015" d="M401.2 217.633a3.5 3.5 0 0 1 1.856-1.856 3.476 3.476 0 0 1 1.357-.274 3.485 3.485 0 0 1 3.214 2.13M391.242 217.633a6.531 6.531 0 1 1 13.062 0" mask="url(#d)"/>
                <path stroke="#8B0015" d="M323.24 133.42c6.231 6.23 6.231 16.332 0 22.562-6.23 6.231-16.332 6.231-22.563 0-6.23-6.23-6.23-16.332 0-22.562 6.231-6.231 16.332-6.231 22.563 0zM330.46 172.514l9.31-9.312M339.771 172.514l-16.53-16.531M407.557 217.64H33.087" mask="url(#d)"/>
                <path fill="#FC9D9D" d="M367.868 210.056a13.91 13.91 0 0 1-1.184-2.977c-1.12-4.205-.17-8.733 2.541-12.11.312-.393.652-.77 1.013-1.121l.116-.114v-.01a13.607 13.607 0 0 1 9.193-3.897v13.485l-11.679 6.744z" mask="url(#d)"/>
                <path fill="#8B0015" d="M379.93 189.438a14.03 14.03 0 0 0-9.96 4.126v.01c-.376.366-.723.751-1.043 1.155a14.086 14.086 0 0 0-1.203 15.852l8.137-4.698 4.07-2.349v-14.096zm-.766.788v12.864l-3.686 2.13-7.456 4.304c-.399-.793-.723-1.646-.967-2.541-1.09-4.09-.167-8.492 2.473-11.779.298-.376.626-.74.977-1.083l.232-.234a13.219 13.219 0 0 1 8.427-3.661z" mask="url(#d)"/>
                <path fill="#FCFBD2" d="M379.93 189.442v14.095l13.615-3.646c-.32-1.184-.78-2.33-1.41-3.402a14.051 14.051 0 0 0-12.206-7.047" mask="url(#d)"/>
                <path fill="#8B0015" d="M367.722 210.584a14.008 14.008 0 0 0 2.246 2.922c5.497 5.498 14.424 5.507 19.93 0a14.094 14.094 0 0 0 3.647-13.615l-13.616 3.646-12.207 7.047z" mask="url(#d)"/>
            </g>
        </g>
        <g mask="url(#b)">
            <path fill="#B48CC8" d="M-15.875 231.368h458.75V-23.937h-458.75z"/>
            <g transform="translate(-15.875 -23.937)">
                <path stroke="#5C3677" stroke-width=".973" d="M159.105 125.654c0-9.172-7.435-16.607-16.607-16.607s-16.606 7.435-16.606 16.607 7.434 16.607 16.606 16.607 16.607-7.435 16.607-16.607zM110.449 93.604l20.306 20.307M110.449 100.985v-7.38h7.38"/>
                <path fill="#5C3677" d="M325.247 48.467v178.116h-64.92V48.467l6.491 6.492 6.49-6.492 6.493 6.492 6.49-6.492 6.492 6.492 6.49-6.492 6.5 6.492 6.493-6.492 6.49 6.492z"/>
                <path fill="#FCFBD2" d="M260.327 48.467v178.116H143.468V48.467l6.492 6.492 6.49-6.492 6.492 6.492 6.491-6.492 6.491 6.492 6.5-6.492 6.491 6.492 6.491-6.492 6.491 6.492 6.492-6.492 6.491 6.492 6.49-6.492 6.492 6.492 6.491-6.492 6.491 6.492 6.5-6.492 6.492 6.492zM66.686 194.944c0 8.923-7.233 16.156-16.156 16.156-8.923 0-16.156-7.233-16.156-16.156 0-8.923 7.233-16.156 16.156-16.156 8.923 0 16.156 7.233 16.156 16.156"/>
                <path stroke="#5C3677" d="M50.53 226.583v-31.639"/>
                <path fill="#B48CC8" d="M217.852 129.725c-6.026 0-10.903-4.887-10.903-10.913 0-6.015 4.877-10.901 10.903-10.901 6.026 0 10.902 4.886 10.902 10.901 0 6.026-4.876 10.913-10.902 10.913m0-42.345c-21.794 0-36.966 21.67-29.513 42.15l29.513 81.076 29.513-81.076c1.304-3.593 1.92-7.227 1.92-10.78 0-16.639-13.469-31.37-31.433-31.37"/>
                <mask id="f" fill="#fff">
                    <use xlink:href="#e"/>
                </mask>
                <path fill="#FCFBD2" d="M273.68 189.177h22.905v-20.952H273.68z" mask="url(#f)"/>
                <path fill="#5C3677" d="M200.89 193.77c0 13.542-12.293 25.156-29.836 30.167-5.95 1.705-12.502 2.646-19.381 2.646-27.18 0-49.218-14.689-49.218-32.812 0-5.971 2.395-11.583 6.595-16.406 5.294-6.103 13.453-10.96 23.242-13.76h.01a48.518 48.518 0 0 1 2.254-.6c.47-.121.94-.23 1.422-.329.35-.088.7-.164 1.06-.24a52.315 52.315 0 0 1 2.34-.438 53.973 53.973 0 0 1 2.374-.372 61.967 61.967 0 0 1 4.31-.449c.175-.021.34-.033.514-.043.207-.011.427-.033.634-.033a51.63 51.63 0 0 1 1.904-.098h.033a64.314 64.314 0 0 1 2.526-.044c6.88 0 13.431.941 19.381 2.647 9.789 2.8 17.948 7.656 23.242 13.76 4.2 4.822 6.595 10.434 6.595 16.405" mask="url(#f)"/>
                <path stroke="#B48CC8" d="M194.292 177.365H109.05M200.889 193.77h-98.436M194.292 210.177H109.05M151.67 160.96c9.062 0 16.406 14.69 16.406 32.81 0 18.123-7.344 32.813-16.405 32.813s-16.406-14.69-16.406-32.812c0-18.121 7.345-32.812 16.406-32.812z" mask="url(#f)"/>
                <path stroke="#5C3677" d="M60.309 215.785v10.798" mask="url(#f)"/>
                <path fill="#5C3677" d="M60.309 226.583a4.787 4.787 0 0 0-4.787-4.787M60.309 226.583a4.788 4.788 0 0 1 4.787-4.787" mask="url(#f)"/>
                <path fill="#FCFBD2" d="M57.915 215.425a2.394 2.394 0 1 1 4.788 0 2.394 2.394 0 0 1-4.788 0" mask="url(#f)"/>
                <path fill="#B48CC8" d="M209.983 226.583h15.738v-15.738h-15.738zM258.733 192.376v32.412c0 .99-.804 1.795-1.795 1.795h-19.746c-.991 0-1.795-.804-1.795-1.795v-32.412c0-.99.804-1.795 1.795-1.795h19.746c.99 0 1.795.804 1.795 1.795" mask="url(#f)"/>
                <path stroke="#B48CC8" d="M250.057 185.44a4.217 4.217 0 0 0-2.992-1.24 4.217 4.217 0 0 0-2.992 1.24M241.08 182.448a8.41 8.41 0 0 1 5.985-2.478c2.26 0 4.385.88 5.984 2.478M238.09 179.456a12.612 12.612 0 0 1 8.975-3.717c3.39 0 6.577 1.32 8.975 3.717" mask="url(#f)"/>
                <path fill="#FCFBD2" d="M238.09 220.2h17.95v-26.926h-17.95z" mask="url(#f)"/>
                <path fill="#5C3677" d="M248.658 223.392a1.596 1.596 0 1 0-3.192 0 1.596 1.596 0 0 0 3.192 0" mask="url(#f)"/>
                <path fill="#FCFBD2" d="M107.338 226.583H77.504a2.983 2.983 0 0 1-2.983-2.983v-59.667a2.983 2.983 0 0 1 2.983-2.984h29.834a2.983 2.983 0 0 1 2.983 2.984V223.6a2.983 2.983 0 0 1-2.983 2.983" mask="url(#f)"/>
                <path fill="#5C3677" d="M105.847 214.65h-26.85a1.492 1.492 0 0 1-1.492-1.492v-47.733c0-.824.667-1.492 1.492-1.492h26.85c.823 0 1.492.668 1.492 1.492v47.733c0 .823-.669 1.492-1.492 1.492" mask="url(#f)"/>
                <path fill="#B48CC8" d="M95.405 220.616a2.983 2.983 0 1 1-5.966 0 2.983 2.983 0 0 1 5.966 0" mask="url(#f)"/>
                <path fill="#FCFBD2" d="M216.256 220.988h3.191V216.2h-3.191z" mask="url(#f)"/>
                <path stroke="#FCFBD2" d="M217.852 216.201v-5.356" mask="url(#f)"/>
                <path fill="#B48CC8" d="M272.178 159.122c0-6.609-5.358-11.967-11.967-11.967-6.61 0-11.967 5.358-11.967 11.967 0 6.61 5.358 11.968 11.967 11.968 6.61 0 11.967-5.359 11.967-11.968" mask="url(#f)"/>
                <path stroke="#5C3677" d="M260.211 159.122v-9.973M260.211 159.122l-3.656 3.657" mask="url(#f)"/>
                <path fill="#FCFBD2" d="M261.408 159.122a1.197 1.197 0 1 0-2.394 0 1.197 1.197 0 0 0 2.394 0" mask="url(#f)"/>
                <path stroke="#B48CC8" d="M162.943 53.517v33.036" mask="url(#f)"/>
                <path fill="#5C3677" d="M156.057 89.996l6.886-6.886 6.886 6.886z" mask="url(#f)"/>
                <path fill="#B48CC8" d="M156.057 110.654h13.772V89.996h-13.772z" mask="url(#f)"/>
                <path stroke="#B48CC8" d="M268.893 226.583v-63.145h32.48v63.145" mask="url(#f)"/>
                <g mask="url(#f)">
                    <path fill="#B48CC8" d="M305.689 174.994v51.582h89.388v-51.582"/>
                    <path stroke="#5C3677" d="M305.689 174.994v51.582h89.388v-51.582"/>
                </g>
                <path fill="#FCFBD2" d="M395.476 174.994l-44.653 26.031-44.654-26.031" mask="url(#f)"/>
                <path stroke="#FCFBD2" stroke-linejoin="round" d="M325.697 210.495a2.168 2.168 0 1 1 0-4.337 2.168 2.168 0 0 1 0 4.337zm0-8.42c-4.334 0-7.35 4.31-5.868 8.38l5.868 16.12 5.868-16.12c.26-.713.381-1.436.381-2.142 0-3.309-2.677-6.238-6.25-6.238z" mask="url(#f)"/>
                <path fill="#5C3677" d="M417.686 226.576a3.643 3.643 0 0 1 1.932-1.932 3.618 3.618 0 0 1 1.413-.285c.501 0 .98.101 1.414.285a3.649 3.649 0 0 1 1.933 1.932M407.32 226.576a6.8 6.8 0 0 1 13.599 0" mask="url(#f)"/>
                <path stroke="#5C3677" d="M336.523 138.902c6.487 6.487 6.487 17.004 0 23.49-6.487 6.487-17.004 6.487-23.49 0-6.487-6.486-6.487-17.003 0-23.49 6.486-6.487 17.003-6.487 23.49 0zM344.038 179.602l9.695-9.694M353.733 179.602l-17.21-17.21M424.304 226.583H34.447" mask="url(#f)"/>
                <path fill="#FCFBD2" d="M395.541 197.226v14.675l14.176-3.796a14.362 14.362 0 0 0-1.468-3.542 14.628 14.628 0 0 0-12.708-7.337" mask="url(#f)"/>
                <path fill="#5C3677" d="M382.833 219.237a14.584 14.584 0 0 0 2.338 3.043c5.723 5.723 15.017 5.733 20.75 0a14.673 14.673 0 0 0 3.795-14.175l-14.175 3.796-12.708 7.336z" mask="url(#f)"/>
                <path fill="#B48CC8" d="M381.367 215.692a14.672 14.672 0 0 0 1.468 3.542l8.471-4.89 4.237-2.447v-14.674a14.607 14.607 0 0 0-10.37 4.294v.01c-.392.382-.753.783-1.086 1.204-2.994 3.727-3.894 8.559-2.72 12.961" mask="url(#f)"/>
                <path stroke="#5C3677" d="M381.367 215.692a14.672 14.672 0 0 0 1.468 3.542l8.471-4.89 4.237-2.447v-14.674a14.607 14.607 0 0 0-10.37 4.294v.01c-.392.382-.753.783-1.086 1.204-2.994 3.727-3.894 8.559-2.72 12.961z" mask="url(#f)"/>
            </g>
        </g>
    </g>
</svg>
