<svg xmlns="http://www.w3.org/2000/svg" xmlns:xlink="http://www.w3.org/1999/xlink" width="256" height="155" viewBox="0 0 256 155">
    <defs>
        <path id="a" d="M0 97.136h212.133V0H0z"/>
    </defs>
    <g fill="none" fill-rule="evenodd">
        <path fill="#FFF" fill-rule="nonzero" d="M.5 0h255v155H.5z"/>
        <g transform="translate(21 42.404)">
            <path fill="#075600" d="M123.708 68.593h14.717c-1.556-4.974-4.27-8.286-7.358-8.286s-5.803 3.312-7.359 8.286M121.411 78.721h-17.947c.11 2.994 1.284 5.812 3.292 8.287h15.752c-.67-2.49-1.06-5.303-1.097-8.287M103.463 77.8h17.948c.038-2.984.427-5.797 1.097-8.286h-15.752c-2.007 2.475-3.182 5.292-3.293 8.286M122.332 77.8h17.47c-.036-3.002-.43-5.822-1.104-8.286h-15.262c-.673 2.464-1.067 5.284-1.104 8.286M138.426 87.928h-14.717c1.556 4.975 4.27 8.287 7.358 8.287s5.803-3.312 7.359-8.287M139.802 78.721h-17.47c.036 3.003.43 5.823 1.104 8.287h15.262c.673-2.464 1.067-5.284 1.104-8.287"/>
            <path fill="#075600" d="M122.78 68.593c1.319-4.294 3.483-7.482 6.041-8.681-8.99.483-16.766 3.833-21.262 8.681h15.22zM122.78 87.928h-15.22c4.495 4.85 12.27 8.198 21.262 8.682-2.558-1.199-4.723-4.387-6.042-8.682M139.354 87.928c-1.319 4.295-3.484 7.483-6.042 8.682 8.991-.484 16.767-3.832 21.264-8.682h-15.222zM139.354 68.593h15.22c-4.495-4.848-12.27-8.198-21.261-8.681 2.558 1.199 4.722 4.387 6.041 8.681M158.671 78.721h-17.948c-.038 2.984-.427 5.798-1.098 8.287h15.754c2.007-2.475 3.182-5.293 3.292-8.287M139.626 69.514c.67 2.489 1.059 5.302 1.096 8.286h17.95c-.112-2.994-1.286-5.811-3.294-8.286h-15.752z"/>
            <path stroke="#075600" d="M115.412 27.938l11.834-11.834 9.983 9.983L156.717 6.6M167.731 33.18l-11.256 11.257h-18.482"/>
            <path fill="#075600" d="M130.008 16.104a2.763 2.763 0 1 1-5.525 0 2.763 2.763 0 0 1 5.525 0"/>
            <path fill="#00C97A" d="M139.992 26.058a2.763 2.763 0 1 1-5.525-.001 2.763 2.763 0 0 1 5.525 0"/>
            <path fill="#075600" d="M159.238 44.436a2.762 2.762 0 1 1-5.524 0 2.762 2.762 0 0 1 5.524 0"/>
            <path stroke="#075600" d="M115.412 57.287l22.257-12.85M168.113 33.283l15.676 4.2"/>
            <path fill="#00C97A" d="M170.493 33.424a2.762 2.762 0 1 1-5.524 0 2.762 2.762 0 0 1 5.524 0M20.743 87.008h-5.69V45.575h27.621v37.29"/>
            <path stroke="#075600" d="M44.06 96.675H13.675a2.762 2.762 0 0 1-2.762-2.762V44.194a2.762 2.762 0 0 1 2.762-2.762h30.383a2.763 2.763 0 0 1 2.762 2.762v38.67"/>
            <path fill="#00C97A" d="M115.412 11.04v71.825c0 3.81-1.548 7.263-4.043 9.758a13.703 13.703 0 0 1-9.768 4.052c-2.348 0-4.557-.58-6.492-1.61-4.345-2.321-7.318-6.925-7.318-12.2H46.358V0h58.006v11.04h11.048z"/>
            <path fill="#075600" d="M115.411 11.04h-11.047V0z"/>
            <mask id="b" fill="#fff">
                <use xlink:href="#a"/>
            </mask>
            <path fill="#075600" d="M159.14 96.675h6.445v-4.603h-6.445z" mask="url(#b)"/>
            <path stroke="#075600" d="M159.14 96.675h6.445v-4.603h-6.445z" mask="url(#b)"/>
            <path stroke="#00C97A" d="M159.14 92.072h6.445V68.133h-6.445z" mask="url(#b)"/>
            <path fill="#00C97A" d="M165.571 96.708h8.313V81.195h-8.313z" mask="url(#b)"/>
            <path fill="#075600" d="M166.506 81.023h6.445V58.926h-6.445z" mask="url(#b)"/>
            <path stroke="#075600" d="M166.506 81.023h6.445V58.926h-6.445z" mask="url(#b)"/>
            <path stroke="#00C97A" d="M173.872 85.166h6.445V73.657h-6.445z" mask="url(#b)"/>
            <path fill="#075600" d="M173.872 95.754h6.445v-9.667h-6.445z" mask="url(#b)"/>
            <path stroke="#075600" d="M173.872 95.754h6.445v-9.667h-6.445z" mask="url(#b)"/>
            <path stroke="#00C97A" d="M33.008 33.522a6.49 6.49 0 0 0-4.604-1.906 6.49 6.49 0 0 0-4.604 1.906M19.195 28.919a12.938 12.938 0 0 1 9.21-3.815c3.478 0 6.747 1.355 9.208 3.815M14.593 24.314a19.41 19.41 0 0 1 13.811-5.72c5.216 0 10.121 2.031 13.811 5.72" mask="url(#b)"/>
            <path fill="#00C97A" d="M199.765 96.675a2.464 2.464 0 0 1 2.265-1.502 2.452 2.452 0 0 1 2.265 1.502M192.746 96.675a4.603 4.603 0 1 1 9.207 0M202.874 75.038c0 6.102-4.947 11.049-11.049 11.049-6.102 0-11.048-4.947-11.048-11.049 0-6.102 4.946-11.048 11.048-11.048s11.049 4.946 11.049 11.048" mask="url(#b)"/>
            <path stroke="#075600" d="M191.825 96.675V75.038"/>
            <path fill="#00C97A" d="M140.43 44.436a2.762 2.762 0 1 1-5.523 0 2.762 2.762 0 0 1 5.524 0" mask="url(#b)"/>
            <path fill="#075600" d="M101.601 96.675H32.548c-7.624 0-13.811-6.187-13.811-13.81H87.79c0 5.275 2.973 9.879 7.318 12.199a13.753 13.753 0 0 0 6.492 1.611" mask="url(#b)"/>
            <path stroke="#075600" d="M212.133 96.675H0"/>
            <path fill="#00C97A" d="M158.15 9.681l-4.513-4.513 6.162-1.65zM182.582 40.465l1.652-6.166 4.51 4.512z" mask="url(#b)"/>
        </g>
    </g>
</svg>
