<svg xmlns="http://www.w3.org/2000/svg" width="300" height="190" viewBox="0 0 300 190">
    <g fill="none" fill-rule="evenodd">
        <path fill="#00C97A" d="M0 190h300V0H0z"/>
        <path fill="#075600" d="M193.25 51.405v-8.1c0-1.29 1.04-2.33 2.33-2.33h9.02c.79 0 1.56.31 2.12.88l5.34 5.34.28.28"/>
        <path fill="#FCFBD2" d="M58.47 163.67h129.06V94.5H58.47z"/>
        <path fill="#075600" d="M166.47 94.5V141h-81V94.5"/>
        <path fill="#FCFBD2" d="M241.75 50.195v24c0 1.66-1.34 3-3 3h-42.5c-1.66 0-3-1.34-3-3v-24c0-1.66 1.34-3 3-3h42.5c1.66 0 3 1.34 3 3M112.47 67.5l-27 27h-27l27-27z"/>
        <path fill="#075600" d="M139.47 67.5l-27 27h-27l27-27z"/>
        <path fill="#FCFBD2" d="M166.47 67.5l-27 27h-27l27-27z"/>
        <path fill="#075600" d="M166.47 67.5v27h-27zM85.47 67.5l-27 27h-27l27-27z"/>
        <path fill="#FCFBD2" d="M58.47 94.5c0 7.46-6.04 13.5-13.5 13.5s-13.5-6.04-13.5-13.5h27z"/>
        <path fill="#00C97A" d="M207.53 124.5h20v-20h-20z"/>
        <path fill="#FCFBD2" d="M166.47 94.5c0 7.46-6.04 13.5-13.5 13.5s-13.5-6.04-13.5-13.5h27z"/>
        <path fill="#00C97A" d="M85.47 94.5V141h-6v-35.27a13.482 13.482 0 0 1-7.5 2.27c-7.46 0-13.5-6.04-13.5-13.5h27z"/>
        <path stroke="#075600" d="M187.53 94.5v69.17"/>
        <path fill="#075600" d="M187.53 163.67V94.5h10v69.17"/>
        <path stroke="#075600" d="M187.53 163.67V94.5h10v69.17"/>
        <path fill="#FCFBD2" d="M112.47 94.5c0 7.46-6.04 13.5-13.5 13.5s-13.5-6.04-13.5-13.5h27z"/>
        <path fill="#075600" d="M237.53 163.67V94.5h10v69.17"/>
        <path stroke="#075600" d="M237.53 163.67V94.5h10v69.17"/>
        <path stroke="#00C97A" d="M213.5 66.195a4 4 0 1 0 4-4M221.5 58.195a4 4 0 1 0-4 4M217.5 52.195v20"/>
        <path fill="#00C97A" d="M247.53 146.833a6.47 6.47 0 0 1-6.464-6.463c0-3.564 2.9-6.464 6.464-6.464 3.563 0 6.463 2.9 6.463 6.464a6.47 6.47 0 0 1-6.463 6.463"/>
        <path fill="#075600" d="M247.53 133.406a6.964 6.964 0 1 0 0 13.928 6.964 6.964 0 0 0 0-13.928m0 1a5.97 5.97 0 0 1 5.963 5.964 5.97 5.97 0 0 1-5.963 5.963 5.97 5.97 0 0 1-5.964-5.963 5.971 5.971 0 0 1 5.964-5.964"/>
        <path fill="#FCFBD2" d="M254.493 147.333l-2.883 16.337h-8.169l-2.875-16.337z"/>
        <path fill="#00C97A" d="M139.47 94.5c0 7.46-6.04 13.5-13.5 13.5s-13.5-6.04-13.5-13.5h27z"/>
        <path fill="#FCFBD2" d="M207.53 124.5h20v-20h-20z"/>
        <path stroke="#075600" d="M268.53 163.67H31.47"/>
        <path fill="#FCFBD2" d="M166.469 94.5H268.53V23.67H166.469V94.5zm1-1H267.53V24.67H167.469V93.5z"/>
    </g>
</svg>
