<svg xmlns="http://www.w3.org/2000/svg" width="300" height="190" viewBox="0 0 300 190">
    <g fill="none" fill-rule="evenodd">
        <path fill="#00C97A" fill-rule="nonzero" d="M0 0h300v190H0z"/>
        <path fill="#FCFBD2" d="M245.977 26.753v38.805h-55.035l-10.874 10.874v-49.68zM252.565 162.152v-11.958a9.03 9.03 0 0 1 1.663-.155 8.735 8.735 0 0 1 8.513 6.777c.074-.01.156-.01.23-.01a8.75 8.75 0 0 1 6.19 2.563c.8.79 1.433 1.736 1.883 2.783"/>
        <path fill="#00C97A" d="M213.018 48.91a2.758 2.758 0 0 1-2.756-2.755 2.758 2.758 0 0 1 2.756-2.755 2.752 2.752 0 0 1 2.755 2.755 2.752 2.752 0 0 1-2.755 2.756zm13.777-5.51h-7.118l5.033-5.043-3.895-3.894-5.042 5.043v-7.128h-5.51v7.128l-5.033-5.043-3.895 3.894 5.033 5.043h-7.118v5.51h7.118l-5.033 5.034 3.895 3.903 5.032-5.042v7.127h5.511v-7.127l5.042 5.042 3.895-3.903-5.033-5.033h7.118V43.4z"/>
        <path fill="#FCFBD2" d="M37.247 162.152v-85.72h85.72v85.72"/>
        <path fill="#075600" d="M122.967 162.152v-85.72h57.101v85.72"/>
        <path fill="#FCFBD2" d="M203.96 162.152v-48.605h-23.892v48.605"/>
        <path fill="#075600" d="M117.842 140.568c0 6.087-4.934 11.022-11.021 11.022-6.087 0-11.022-4.935-11.022-11.022 0-6.087 4.935-11.021 11.022-11.021 6.087 0 11.021 4.934 11.021 11.021"/>
        <path stroke="#00C97A" d="M106.82 162.152v-21.584"/>
        <path fill="#FCFBD2" d="M145.408 103.986h9.184V76.432h-9.184z"/>
        <path stroke="#075600" d="M180.068 149.906h-11.94a1.838 1.838 0 0 1-1.837-1.837v-14.695c0-1.014.823-1.837 1.837-1.837h11.94M180.068 143.783h-13.777"/>
        <path fill="#075600" d="M203.96 162.152v-48.605h48.605v48.605"/>
        <path stroke="#00C97A" d="M213.638 145.416l4.702 4.703 24.547-24.538"/>
        <path stroke="#FCFBD2" d="M209.24 96.441h36.74V82.664h-36.74z"/>
        <path stroke="#075600" stroke-width="1.012" d="M26.006 162.152h247.988"/>
        <path stroke="#075600" d="M51.557 162.152v-32.761h21.981v32.761"/>
        <path stroke="#00C97A" d="M84.7 76.432v27.554h-9.185V76.432"/>
    </g>
</svg>
