<svg xmlns="http://www.w3.org/2000/svg" width="300" height="190" viewBox="0 0 300 190">
    <g fill="none" fill-rule="evenodd">
        <path fill="#00C97A" fill-rule="nonzero" d="M0 0h300v190H0z"/>
        <path fill="#004300" d="M84.806 92.194H36.594v43.463l24.101 24.102 24.111-24.102V92.194zm-.95.95v42.118l-23.16 23.154-23.152-23.153V93.144h46.312zM94.306 135.657l-24.11 24.102h-9.5l24.11-24.102z"/>
        <path fill="#FCFBD2" d="M84.806 159.284h38V69.63h-38z"/>
        <path fill="#004300" d="M122.806 159.759h57v-37.164h-57v37.164zm.95-.95h55.1v-35.264h-55.1v35.264z"/>
        <path stroke="#004300" d="M36.594 159.284h86.846"/>
        <path fill="#004300" d="M153.206 92.194l-30.4 30.4v-30.4l15.2-15.2z"/>
        <path fill="#FCFBD2" d="M138.006 76.994l-15.2 15.2v-15.2zM118.562 54.527a18.094 18.094 0 0 1-14.756 7.595c-6.09 0-11.474-3-14.755-7.595 3.28-4.605 8.665-7.605 14.755-7.605 6.091 0 11.475 3 14.756 7.605"/>
        <path fill="#004300" d="M107.606 54.527a3.8 3.8 0 1 0-7.6 0 3.8 3.8 0 0 0 7.6 0M84.806 41.132c0-10.493 8.507-19 19-19 10.494 0 19 8.507 19 19h-38zM91.456 95.874h3.8v-15.2h-3.8zM112.356 122.236h3.8v-15.2h-3.8zM101.906 148.597h3.8v-15.2h-3.8z"/>
        <path fill="#FCFBD2" d="M210.206 92.194l-30.4 30.4h-57l30.4-30.4z"/>
        <path fill="#004300" d="M240.61 122.597v37.164h-19.797v-31.464h-21.214v31.464h-19.788v-37.164l30.4-30.4z"/>
        <path fill="#FCFBD2" d="M263.406 136.959c0 6.295-5.104 11.4-11.4 11.4-6.295 0-11.4-5.105-11.4-11.4 0-6.297 5.105-11.4 11.4-11.4 6.296 0 11.4 5.103 11.4 11.4"/>
        <path stroke="#004300" d="M252.006 159.284v-22.325"/>
        <path stroke="#FCFBD2" d="M85.281 69.632v-28.5M122.331 41.132v28.5"/>
        <path stroke="#004300" d="M198.65 159.284h64.753"/>
    </g>
</svg>
