<?xml version="1.0" encoding="utf-8"?>
<!-- Generator: Adobe Illustrator 18.0.0, SVG Export Plug-In . SVG Version: 6.00 Build 0)  -->
<!DOCTYPE svg PUBLIC "-//W3C//DTD SVG 1.1//EN" "http://www.w3.org/Graphics/SVG/1.1/DTD/svg11.dtd">
<svg version="1.1" id="Layer_1" xmlns="http://www.w3.org/2000/svg" xmlns:xlink="http://www.w3.org/1999/xlink" x="0px" y="0px"
	 width="300px" height="190px" viewBox="0 0 300 190" enable-background="new 0 0 300 190" xml:space="preserve">
<path fill="#00C97A" d="M0,0h300v190H0V0z"/>
<g>
	<path fill="#FCFBD2" d="M233.1,159.1v-52.2l-15.7-27.1l-27.1-15.7H159l-27.1,15.7l-15.7,27.1v52.2H233.1z M85.1,123H28.7
		c-1.4,0-2.6,1.2-2.6,2.6c0,0,0,0,0,0v33.5h61.6v-33.5C87.8,124.2,86.6,123,85.1,123C85.1,123,85.1,123,85.1,123"/>
	<path fill="#075600" d="M53.7,123H28.6c-1.4,0-2.5,1.3-2.5,2.8v-7.5c0-1.5,1.1-2.8,2.5-2.8h17.5c0.7,0,1.3,0.3,1.7,0.8L53.7,123
		L53.7,123z M87.7,159.1h28.5v-114H87.7V159.1z"/>
	<path fill="#FCFBD2" d="M87.8,45.1c0-7.9,6.4-14.3,14.3-14.3s14.3,6.4,14.3,14.3"/>
	<path fill="#075600" d="M150.2,159.1h50.7v-52.2h-50.7V159.1z"/>
	<path fill="none" stroke="#00C97A" d="M175.5,159.1v-52.2"/>
	<path fill="#075600" d="M167.7,94.8h15.6V79.2h-15.6V94.8z M28.3,78.4h47.5V30.9H28.3L28.3,78.4z"/>
	<path fill="#00C97A" d="M52,57.5c-1.6,0-2.8-1.3-2.8-2.9c0-1.6,1.3-2.8,2.8-2.8c1.6,0,2.8,1.3,2.8,2.8c0,0,0,0,0,0
		C54.9,56.2,53.6,57.5,52,57.5C52,57.5,52,57.5,52,57.5z M66.2,51.8h-7.4l5.2-5.2l-4-4l-5.2,5.2v-7.4h-5.7v7.4l-5.2-5.2l-4,4
		l5.2,5.2h-7.4v5.7h7.4l-5.2,5.2l4,4l5.2-5.2v7.4h5.7v-7.4l5.2,5.2l4-4l-5.2-5.2h7.4C66.2,57.5,66.2,51.8,66.2,51.8z"/>
	<path fill="#075600" d="M233.1,159.1h42.5v-52.2h-42.5L233.1,159.1z"/>
	<path fill="none" stroke="#FCFBD2" d="M87.7,64.1h28.5"/>
	<path fill="none" stroke="#00C97A" d="M87.7,78.4h28.5"/>
	<path fill="#075600" d="M212.9,117.7c-6.6,0-12,5.4-12,12C207.5,129.7,212.9,124.3,212.9,117.7"/>
	<path fill="#00C97A" d="M188.9,117.7c0,6.6,5.4,12,12,12C200.9,123.1,195.5,117.7,188.9,117.7"/>
	<path fill="#075600" d="M212.9,132.4c-6.6,0-12,5.4-12,12C207.5,144.4,212.9,139,212.9,132.4"/>
	<path fill="#00C97A" d="M188.9,132.4c0,6.6,5.4,12,12,12C200.9,137.8,195.5,132.4,188.9,132.4"/>
	<path fill="#075600" d="M212.9,147.1c-6.6,0-12,5.4-12,12C207.5,159.1,212.9,153.7,212.9,147.1"/>
	<path fill="#00C97A" d="M188.9,147.1c0,6.6,5.4,12,12,12C200.9,152.5,195.5,147.1,188.9,147.1"/>
	<path fill="#075600" d="M260,79.8l15.7,27.1h-42.5l-15.7-27.1H260z"/>
	<path fill="none" stroke="#00C97A" d="M275.6,106.9h-42.5"/>
	<path fill="#075600" d="M217.4,79.8l-27.1-15.7h42.5L260,79.8"/>
	<path fill="none" stroke="#FCFBD2" d="M217.4,79.8H260"/>
	<path fill="none" stroke="#075600" d="M275.6,159.1H26.1"/>
</g>
</svg>
