<svg xmlns="http://www.w3.org/2000/svg" width="255" height="155" viewBox="0 0 255 155">
    <g fill="none" fill-rule="evenodd">
        <path fill="#FFF" fill-rule="nonzero" d="M0 0h255v155H0z"/>
        <path stroke="#00C97A" d="M58.222 138.749l13.844-13.844"/>
        <path stroke="#004300" d="M72.066 124.905L58.222 111.06"/>
        <path stroke="#00C97A" d="M58.222 111.06l13.844-13.844"/>
        <path stroke="#004300" d="M72.066 97.216L58.222 83.372"/>
        <path stroke="#00C97A" d="M58.222 83.372l13.844-13.844"/>
        <path stroke="#004300" d="M72.066 69.528L58.222 55.684"/>
        <path stroke="#00C97A" d="M58.222 55.684L72.066 41.84"/>
        <path stroke="#004300" d="M72.066 41.84L58.222 27.996M72.066 138.749V27.996"/>
        <path fill="#00C97A" d="M113.139 117.983c0 11.195-9.11 20.304-20.305 20.304s-20.304-9.11-20.304-20.304c0-11.196 9.11-20.305 20.304-20.305v20.305l14.362-14.361c3.83 3.84 5.943 8.934 5.943 14.36"/>
        <path stroke="#004300" d="M132.06 27.996l-9.23-9.23"/>
        <path stroke="#00C97A" d="M122.83 18.767l-9.23 9.23M141.289 18.767l-9.23 9.23"/>
        <path stroke="#004300" d="M113.6 27.996l-9.229-9.23"/>
        <path stroke="#00C97A" d="M104.371 18.767l-9.23 9.23"/>
        <path stroke="#004300" d="M95.142 27.996l-9.23-9.23"/>
        <path stroke="#00C97A" d="M85.912 18.767l-9.229 9.23"/>
        <path stroke="#004300" d="M76.683 27.996l-9.23-9.23"/>
        <path stroke="#00C97A" d="M67.454 18.767l-9.23 9.23"/>
        <path stroke="#004300" d="M58.224 27.996l-9.23-9.23"/>
        <path stroke="#00C97A" d="M48.995 18.767l-9.23 9.23"/>
        <path stroke="#004300" d="M39.766 27.996l-9.23-9.23"/>
        <path fill="#00C97A" d="M30.075 38.149h9.69v-9.691h-9.69zM30.075 47.84h9.69v-9.691h-9.69z"/>
        <path stroke="#004300" d="M30.075 38.149h9.69M150.518 83.372V27.996l-9.23-9.23H30.537v9.23h119.982"/>
        <path stroke="#00C97A" d="M107.349 135.98l19.39-19.39H146.1l15.837-15.837"/>
        <path fill="#004300" d="M110.584 135.515a2.77 2.77 0 1 0-5.539 0 2.77 2.77 0 0 0 5.539 0M129.507 116.591a2.769 2.769 0 1 0-5.538 0 2.769 2.769 0 0 0 5.538 0"/>
        <path fill="#00C97A" d="M148.87 116.591a2.77 2.77 0 1 0-5.539 0 2.77 2.77 0 0 0 5.538 0"/>
        <path fill="#004300" d="M164.706 100.753a2.769 2.769 0 1 0-5.537 0 2.769 2.769 0 0 0 5.537 0"/>
        <path fill="#00C97A" d="M153.287 86.141a2.769 2.769 0 1 0-5.538 0 2.769 2.769 0 0 0 5.538 0M164.707 138.749h18.459v-79.53h-18.459z"/>
        <path fill="#004300" d="M183.166 139.21h18.459V76.45h-18.46v62.76zm.923-.923h16.613V77.373h-16.613v60.914zM201.625 138.749h18.458V27.996h-18.458z"/>
        <path stroke="#004300" d="M201.625 138.749h18.458V27.996h-18.458z"/>
        <path fill="#004300" d="M57.754 117.057c0 6.116-4.96 11.075-11.075 11.075-6.118 0-11.076-4.959-11.076-11.075 0-6.117 4.958-11.075 11.076-11.075 6.116 0 11.075 4.958 11.075 11.075"/>
        <path stroke="#00C97A" d="M46.679 138.746v-21.69"/>
        <path fill="#004300" d="M107.196 103.622l-14.362 14.361V97.678c5.418 0 10.513 2.114 14.362 5.944"/>
        <path fill="#00C97A" d="M226.413 138.749h-31.591a5.908 5.908 0 0 1 1.301-1.939 6.047 6.047 0 0 1 4.31-1.79h.018c.074-1.181.35-2.307.794-3.36a10.034 10.034 0 0 1 2.188-3.248c.94-.932 2.04-1.68 3.267-2.206a10.382 10.382 0 0 1 3.986-.803c1.403 0 2.76.295 3.98.803a10.416 10.416 0 0 1 3.266 2.206 10.046 10.046 0 0 1 2.188 3.248c.165.397.313.813.433 1.237h.009a5.853 5.853 0 0 1 5.851 5.852"/>
        <path stroke="#004300" d="M58.222 27.996V138.75M232.765 138.749H20.116"/>
    </g>
</svg>
