<svg xmlns="http://www.w3.org/2000/svg" xmlns:xlink="http://www.w3.org/1999/xlink" width="300" height="190" viewBox="0 0 300 190">
    <defs>
        <path id="a" d="M0 0h300v190H0z"/>
    </defs>
    <g fill="none" fill-rule="evenodd">
        <mask id="b" fill="#fff">
            <use xlink:href="#a"/>
        </mask>
        <use fill="#00C97A" fill-rule="nonzero" xlink:href="#a"/>
        <g mask="url(#b)">
            <path stroke="#075600" d="M160.15 81.014l12.853-12.854 10.843 10.844 21.166-21.167M216.975 86.708L204.75 98.933h-20.074"/>
            <path fill="#075600" d="M176.003 68.16a3 3 0 1 1-6 .001 3 3 0 0 1 6 0"/>
            <path fill="#FCFBD2" d="M186.847 78.972a3 3 0 1 1-6.001-.001 3 3 0 0 1 6 0"/>
            <path fill="#075600" d="M207.75 98.933a3 3 0 1 1-6 0 3 3 0 0 1 6 0"/>
            <path stroke="#075600" d="M160.15 112.89l24.173-13.957M217.39 86.82l17.026 4.561"/>
            <path fill="#FCFBD2" d="M219.975 86.972a3 3 0 1 1-6 0 3 3 0 0 1 6 0M57.33 145.17h-6.18v-45h30v40.5"/>
            <path stroke="#075600" d="M82.653 155.67h-33a3 3 0 0 1-3-3v-54a3 3 0 0 1 3-3h33a3 3 0 0 1 3 3v42"/>
            <path fill="#FCFBD2" d="M160.15 62.66v78.01a14.95 14.95 0 0 1-4.39 10.6 14.883 14.883 0 0 1-10.61 4.4c-2.55 0-4.95-.63-7.05-1.75-4.72-2.52-7.95-7.52-7.95-13.25h-45v-90h63v11.99h12z"/>
            <path fill="#075600" d="M160.15 62.66h-12V50.67zM177.153 115.67c16.57 0 30 8.954 30 20s-13.43 20-30 20c-16.568 0-30-8.954-30-20s13.432-20 30-20"/>
            <path stroke="#00C97A" d="M203.133 125.67h-51.96M207.153 135.67h-60M203.133 145.67h-51.96M177.153 115.67c5.523 0 10 8.954 10 20s-4.477 20-10 20c-5.522 0-10-8.954-10-20s4.478-20 10-20z"/>
            <path fill="#075600" d="M207.644 155.67h7v-5h-7z"/>
            <path stroke="#075600" d="M207.644 155.67h7v-5h-7z"/>
            <path stroke="#FCFBD2" d="M207.644 150.67h7v-26h-7z"/>
            <path fill="#FCFBD2" d="M215.644 155.67h7v-16h-7z"/>
            <path stroke="#FCFBD2" d="M215.644 155.67h7v-16h-7z"/>
            <path fill="#075600" d="M215.644 138.67h7v-24h-7z"/>
            <path stroke="#075600" d="M215.644 138.67h7v-24h-7z"/>
            <path stroke="#FCFBD2" d="M223.644 143.17h7v-12.5h-7z"/>
            <path fill="#075600" d="M223.644 154.67h7v-10.5h-7z"/>
            <path stroke="#075600" d="M223.644 154.67h7v-10.5h-7z"/>
            <path stroke="#FCFBD2" d="M70.65 87.08a7.049 7.049 0 0 0-5-2.072 7.05 7.05 0 0 0-5 2.071M55.648 82.08a14.056 14.056 0 0 1 10.002-4.144c3.778 0 7.33 1.472 10.001 4.143M50.65 77.078a21.082 21.082 0 0 1 15-6.213 21.081 21.081 0 0 1 15 6.213"/>
            <path fill="#FCFBD2" d="M251.767 155.67a2.676 2.676 0 0 1 2.46-1.631 2.663 2.663 0 0 1 2.46 1.63"/>
            <path stroke="#FCFBD2" d="M251.767 155.67a2.676 2.676 0 0 1 2.46-1.631 2.663 2.663 0 0 1 2.46 1.63"/>
            <path fill="#FCFBD2" d="M244.144 155.67a5 5 0 1 1 10 0"/>
            <path stroke="#FCFBD2" d="M244.144 155.67a5 5 0 1 1 10 0"/>
            <path fill="#FCFBD2" d="M255.144 132.17c0 6.627-5.373 12-12 12-6.628 0-12-5.373-12-12 0-6.628 5.372-12 12-12 6.627 0 12 5.372 12 12"/>
            <path stroke="#075600" d="M243.144 155.67v-23.5"/>
            <path fill="#FCFBD2" d="M187.323 98.933a3 3 0 1 1-6 0 3 3 0 0 1 6 0"/>
            <path fill="#075600" d="M145.15 155.67h-75c-8.28 0-15-6.72-15-15h75c0 5.73 3.23 10.73 7.95 13.25 2.1 1.12 4.5 1.75 7.05 1.75"/>
            <path stroke="#075600" d="M265.2 155.67H34.8"/>
            <path fill="#FCFBD2" d="M206.568 61.185l-4.902-4.903 6.693-1.791zM233.105 94.62l1.794-6.698 4.898 4.901z"/>
        </g>
    </g>
</svg>
