<svg xmlns="http://www.w3.org/2000/svg" width="462" height="256" viewBox="0 0 462 256">
    <g fill="none" fill-rule="evenodd">
        <path fill="#00C97A" fill-rule="nonzero" d="M0 0h462v256H0z"/>
        <path fill="#075600" d="M172.87 187.228c0-28.945-23.465-52.41-52.41-52.41h105.91c28.945 0 52.412 23.465 52.412 52.41"/>
        <path stroke="#075600" d="M172.87 187.228c0-28.945-23.465-52.41-52.41-52.41h105.91c28.945 0 52.412 23.465 52.412 52.41"/>
        <path fill="#00C97A" d="M260.079 176.745h-70.607a51.905 51.905 0 0 0-3.316-10.485 8.499 8.499 0 0 0-.179-.396 51.628 51.628 0 0 0-5.93-10.08 52.695 52.695 0 0 0-10.484-10.482h70.607a52.695 52.695 0 0 1 10.484 10.483 51.944 51.944 0 0 1 6.11 10.475 51.954 51.954 0 0 1 3.315 10.485"/>
        <path fill="#FCFBD2" d="M391.698 53.75v71.728H269.42l-9.34 9.34V53.75z"/>
        <path fill="#075600" d="M120.85 134.429H225.98v-31.646H120.85z"/>
        <path fill="#075600" d="M120.46 134.818h105.91v-32.424H120.46v32.424zm.779-.778h104.353v-30.868H121.24v30.868z"/>
        <path fill="#FCFBD2" d="M195.24 125.478h3.114v-13.744h-3.114z"/>
        <path fill="#00C97A" d="M129.802 125.478h65.438v-13.744h-65.438z"/>
        <path fill="#FCFBD2" d="M135.935 35.165v31.132H95.65V27.382h32.502z"/>
        <path fill="#075600" d="M135.935 35.165h-7.783v-7.783"/>
        <path fill="#FCFBD2" d="M196.22 187.228v42.806H65.59v-127.64h54.87v32.424c28.945 0 52.41 23.465 52.41 52.41h23.35z"/>
        <path stroke="#FCFBD2" d="M255.402 208.631a6.226 6.226 0 1 0-12.452 0 6.226 6.226 0 0 0 12.452 0z"/>
        <path fill="#00C97A" d="M182.749 206.55c0-12.97-10.514-23.483-23.484-23.483-12.97 0-23.484 10.514-23.484 23.483 0 12.97 10.514 23.484 23.484 23.484 12.97 0 23.484-10.514 23.484-23.484"/>
        <path fill="#075600" d="M325.888 112.906c-12.733 0-23.094-10.36-23.094-23.094 0-12.735 10.36-23.095 23.094-23.095 12.735 0 23.095 10.36 23.095 23.095 0 12.734-10.36 23.094-23.095 23.094"/>
        <path fill="#075600" d="M325.888 66.328c-12.969 0-23.483 10.514-23.483 23.484 0 12.97 10.514 23.484 23.483 23.484 12.97 0 23.485-10.514 23.485-23.484 0-12.97-10.514-23.484-23.485-23.484m0 .778c12.52 0 22.706 10.186 22.706 22.706s-10.185 22.705-22.706 22.705c-12.52 0-22.705-10.185-22.705-22.705 0-12.52 10.186-22.706 22.705-22.706"/>
        <path fill="#FCFBD2" d="M278.782 230.423h83.536v-83.925h-83.536z"/>
        <path fill="#075600" d="M362.707 229.645h40.99v-82.758h-40.99z"/>
        <path fill="#075600" d="M362.318 230.034h41.769v-83.536h-41.769v83.536zm.778-.778h40.212v-81.98h-40.212v81.98z"/>
        <path stroke="#FCFBD2" d="M186.158 166.26h17.652a51.873 51.873 0 0 1 3.315 10.485M242.429 176.745a51.906 51.906 0 0 0-3.317-10.485h17.653M224.777 176.745a51.905 51.905 0 0 0-3.316-10.485h17.651M203.81 166.26h17.651"/>
        <path stroke="#FCFBD2" d="M180.048 155.785H197.7c.171.225.335.451.498.685.179.249.358.499.53.748.194.271.38.544.567.817.374.56.74 1.12 1.098 1.696.148.242.295.482.436.724.21.35.42.7.614 1.058.172.296.335.6.499.904a.377.377 0 0 1 .038.077c.218.397.429.794.623 1.198.428.84.825 1.698 1.206 2.569M187.216 145.301a52.679 52.679 0 0 1 10.484 10.484M239.113 166.26a51.85 51.85 0 0 0-6.11-10.475M250.655 155.785h-17.652A52.695 52.695 0 0 0 222.52 145.3M221.461 166.26a51.886 51.886 0 0 0-6.11-10.475M233.003 155.785h-17.651"/>
        <path stroke="#FCFBD2" d="M204.868 145.301a50.061 50.061 0 0 1 3.783 3.137 52.192 52.192 0 0 1 6.7 7.347H197.7"/>
        <path stroke="#075600" d="M207.693 111.734h9.34"/>
        <path stroke="#00C97A" d="M207.693 118.606h9.34M207.693 125.479h9.34"/>
        <path fill="#075600" d="M87.774 230.034h32.688v-61.226H87.774z"/>
        <path fill="#00C97A" d="M92.444 200.46h23.348v-23.871H92.444zM87.774 168.808c0-9.026 7.317-16.344 16.344-16.344 9.027 0 16.344 7.318 16.344 16.344"/>
        <path fill="#FCFBD2" d="M95.946 168.808c0-9.026 3.659-16.344 8.172-16.344 4.513 0 8.172 7.318 8.172 16.344"/>
        <path stroke="#00C97A" d="M318.106 97.595a7.784 7.784 0 1 0 7.782-7.783M333.671 82.029a7.783 7.783 0 1 0-7.783 7.783M325.888 70.355v38.914"/>
        <path fill="#075600" d="M65.592 216.948a5.036 5.036 0 0 1-5.03-5.03 5.036 5.036 0 0 1 5.03-5.03 5.037 5.037 0 0 1 5.031 5.03 5.036 5.036 0 0 1-5.03 5.03"/>
        <path fill="#075600" d="M65.592 206.498a5.42 5.42 0 1 0 0 10.84 5.42 5.42 0 0 0 0-10.84m0 .779a4.647 4.647 0 0 1 4.642 4.642 4.646 4.646 0 0 1-4.642 4.64 4.646 4.646 0 0 1-4.64-4.64 4.647 4.647 0 0 1 4.64-4.642M111.123 102.394V87.217l-20.921-20.92h51.18l-20.92 20.92v15.177"/>
        <path stroke="#075600" d="M111.123 102.394V87.217l-20.921-20.92h51.18l-20.92 20.92v15.177"/>
        <path fill="#00C97A" d="M176.138 230.034H202.6v-3.113h-26.462z"/>
        <path stroke="#075600" d="M176.138 230.034H202.6v-3.113h-26.462z"/>
        <path fill="#075600" d="M180.808 226.921h26.462v-3.113h-26.462z"/>
        <path fill="#00C97A" d="M178.495 223.808h26.462v-3.113h-26.462z"/>
        <path stroke="#075600" d="M178.495 223.808h26.462v-3.113h-26.462z"/>
        <path fill="#075600" d="M183.921 220.695h26.462v-3.113H183.92zM331.769 213.794c-4.935 0-8.95-4.015-8.95-8.95v-28.019c0-4.935 4.015-8.95 8.95-8.95s8.95 4.015 8.95 8.95v28.019c0 4.935-4.015 8.95-8.95 8.95"/>
        <path fill="#075600" d="M331.769 167.486a9.339 9.339 0 0 0-9.34 9.34v28.018a9.34 9.34 0 1 0 18.68 0v-28.019a9.34 9.34 0 0 0-9.34-9.34m0 .78c4.72 0 8.561 3.84 8.561 8.56v28.019c0 4.72-3.84 8.561-8.561 8.561-4.72 0-8.561-3.84-8.561-8.561v-28.019c0-4.72 3.84-8.56 8.561-8.56"/>
        <path stroke="#00C97A" d="M331.769 230.034v-39.2"/>
        <path fill="#075600" d="M315.742 229.878h-11.207a5.602 5.602 0 0 1 7.294-5.342 5.61 5.61 0 0 1 3.913 5.342M331.769 229.878h-7.472a3.736 3.736 0 0 1 3.735-3.735h.039a3.733 3.733 0 0 1 3.698 3.735"/>
        <path fill="#075600" d="M328.818 229.878h-18.68c0-1.989.626-3.829 1.691-5.342a9.27 9.27 0 0 1 7.65-3.997 9.33 9.33 0 0 1 8.553 5.604c.506 1.139.786 2.41.786 3.735"/>
        <path fill="#00C97A" d="M71.012 217.32l-2.244 12.714H62.41l-2.238-12.715z"/>
        <path stroke="#075600" d="M71.012 217.32l-2.244 12.714H62.41l-2.238-12.715z"/>
        <path fill="#075600" d="M153.53 218.94c-.562 0-1.168-.447-1.168-1.17v-22.237c0-.723.607-1.17 1.17-1.17.203 0 .399.054.58.159l19.256 11.118c.366.212.584.59.584 1.011 0 .423-.218.8-.584 1.012l-19.255 11.118a1.148 1.148 0 0 1-.582.159"/>
        <path fill="#075600" d="M153.531 193.974c-.813 0-1.558.65-1.558 1.56v22.236c0 .908.745 1.559 1.558 1.559.26 0 .526-.066.776-.211L173.562 208a1.557 1.557 0 0 0 0-2.696l-19.255-11.119a1.546 1.546 0 0 0-.776-.21m0 .778c.134 0 .264.035.387.106l19.255 11.119c.351.202.39.539.39.673a.764.764 0 0 1-.39.674l-19.255 11.119a.767.767 0 0 1-.387.107.783.783 0 0 1-.78-.781v-22.237c0-.481.405-.78.78-.78"/>
        <path stroke="#075600" d="M49.099 230.034H415.16"/>
    </g>
</svg>
