<svg xmlns="http://www.w3.org/2000/svg" width="300" height="190" viewBox="0 0 300 190">
    <g fill="none" fill-rule="evenodd">
        <path fill="#00C97A" d="M0 190h300V0H0z"/>
        <path stroke="#FCFBD2" d="M76.085 162.67l15-15"/>
        <path stroke="#004300" d="M91.085 147.67l-15-15"/>
        <path stroke="#FCFBD2" d="M76.085 132.67l15-15"/>
        <path stroke="#004300" d="M91.085 117.67l-15-15"/>
        <path stroke="#FCFBD2" d="M76.085 102.67l15-15"/>
        <path stroke="#004300" d="M91.085 87.67l-15-15"/>
        <path stroke="#FCFBD2" d="M76.085 72.67l15-15"/>
        <path stroke="#004300" d="M91.085 57.67l-15-15M91.085 162.67v-120"/>
        <path fill="#FCFBD2" d="M135.588 140.17c0 12.13-9.87 22-22 22s-22-9.87-22-22 9.87-22 22-22v22l15.56-15.56c4.15 4.16 6.44 9.68 6.44 15.56"/>
        <path stroke="#004300" d="M156.088 42.67l-10-10"/>
        <path stroke="#FCFBD2" d="M146.088 32.67l-10 10M166.088 32.67l-10 10"/>
        <path stroke="#004300" d="M136.088 42.67l-10-10"/>
        <path stroke="#FCFBD2" d="M126.088 32.67l-10 10"/>
        <path stroke="#004300" d="M116.088 42.67l-10-10"/>
        <path stroke="#FCFBD2" d="M106.088 32.67l-10 10"/>
        <path stroke="#004300" d="M96.088 42.67l-10-10"/>
        <path stroke="#FCFBD2" d="M86.088 32.67l-10 10"/>
        <path stroke="#004300" d="M76.088 42.67l-10-10"/>
        <path stroke="#FCFBD2" d="M66.088 32.67l-10 10"/>
        <path stroke="#004300" d="M56.088 42.67l-10-10"/>
        <path fill="#FCFBD2" d="M45.588 53.67h10.5v-10.5h-10.5zM45.588 64.17h10.5v-10.5h-10.5z"/>
        <path stroke="#00C97A" d="M45.588 53.67h10.5"/>
        <path stroke="#004300" d="M176.088 102.67v-60l-10-10h-120v10h130"/>
        <path stroke="#FCFBD2" d="M129.315 159.67l21.008-21.008h20.979l17.159-17.16"/>
        <path fill="#004300" d="M132.82 159.166a3 3 0 1 0-6.002 0 3 3 0 0 0 6.001 0M153.322 138.662a3 3 0 1 0-6 0 3 3 0 0 0 6 0"/>
        <path fill="#FCFBD2" d="M174.302 138.662a3 3 0 1 0-6.001.001 3 3 0 0 0 6 0"/>
        <path fill="#004300" d="M191.46 121.502a3 3 0 1 0-5.999 0 3 3 0 0 0 6 0"/>
        <path fill="#FCFBD2" d="M179.088 105.67a3 3 0 1 0-6 0 3 3 0 0 0 6 0M191.462 162.67h20V76.5h-20z"/>
        <path fill="#004300" d="M211.462 163.17h20v-68h-20v68zm1-1h18v-66h-18v66zM231.462 162.67h20v-120h-20z"/>
        <path stroke="#004300" d="M231.462 162.67h20v-120h-20z"/>
        <path fill="#004300" d="M75.578 139.167c0 6.627-5.373 12-12 12-6.628 0-12-5.373-12-12 0-6.628 5.372-12 12-12 6.627 0 12 5.372 12 12"/>
        <path stroke="#FCFBD2" d="M63.578 162.667v-23.5"/>
        <path fill="#004300" d="M129.148 124.61l-15.56 15.56v-22c5.87 0 11.39 2.29 15.56 6.44"/>
        <path fill="#FCFBD2" d="M258.32 162.67h-34.229c.33-.79.81-1.51 1.41-2.1a6.552 6.552 0 0 1 2.1-1.42c.79-.34 1.66-.52 2.57-.52h.02c.08-1.28.38-2.5.86-3.64.55-1.33 1.37-2.52 2.37-3.52a11.39 11.39 0 0 1 3.54-2.39 11.25 11.25 0 0 1 4.32-.87c1.52 0 2.99.32 4.31.87 1.33.57 2.53 1.38 3.54 2.39 1 1 1.82 2.19 2.37 3.52.18.43.34.88.47 1.34h.01c3.5 0 6.34 2.84 6.34 6.34"/>
        <path stroke="#004300" d="M76.085 42.67v120M265.202 162.67H34.798"/>
    </g>
</svg>
