<svg xmlns="http://www.w3.org/2000/svg" width="255" height="155" viewBox="0 0 255 155">
    <g fill="none" fill-rule="evenodd">
        <path fill="#FFF" fill-rule="nonzero" d="M0 0h255v155H0z"/>
        <path stroke="#075600" d="M110.062 77.17V55.903L80.749 26.592h71.71l-29.311 29.312v21.265"/>
        <path fill="#00C97A" d="M21.235 80.851v27.307c0 6.464 5.24 11.703 11.703 11.703 6.463 0 11.703-5.239 11.703-11.703V80.851c0-6.463-5.24-11.703-11.703-11.703-6.463 0-11.703 5.24-11.703 11.703"/>
        <path stroke="#075600" d="M32.938 139.724V94.505"/>
        <path fill="#075600" d="M197.4 107.196v19.505l16.88-9.752z"/>
        <path fill="#075600" d="M161.26 118.906h46.092v-3.901H161.26zM182.916 103.295V83.79l16.88 9.753z"/>
        <path fill="#075600" d="M161.26 95.5h31.608v-3.901h-31.607z"/>
        <path fill="#00C97A" d="M207.352 95.493v19.505l16.88-9.752z"/>
        <path fill="#00C97A" d="M161.26 107.203h56.043v-3.901h-56.042z"/>
        <path stroke="#075600" d="M225.152 126.524v13.2"/>
        <path fill="#075600" d="M225.152 139.724a5.852 5.852 0 0 0-5.851-5.852M225.152 139.724a5.852 5.852 0 0 1 5.852-5.852"/>
        <path fill="#00C97A" d="M222.226 126.085a2.926 2.926 0 1 1 5.853.001 2.926 2.926 0 0 1-5.853 0M37.513 139.724H25.81a5.85 5.85 0 0 1 7.617-5.579 5.858 5.858 0 0 1 4.086 5.579M54.249 139.724h-7.802a3.9 3.9 0 0 1 3.9-3.901h.04a3.9 3.9 0 0 1 3.862 3.9"/>
        <path fill="#00C97A" d="M51.167 139.724H31.662c0-2.078.653-3.999 1.765-5.579a9.682 9.682 0 0 1 7.987-4.174 9.746 9.746 0 0 1 8.933 5.852 9.64 9.64 0 0 1 .82 3.9M166.331 77.17H66.714a3.778 3.778 0 0 0-3.778 3.776v58.778H170.11V80.946a3.777 3.777 0 0 0-3.778-3.777L155.5 129.052"/>
        <path fill="#075600" d="M102.588 77.17H66.47c-1.954 0-3.532 1.81-3.532 4.039V70.436c0-2.228 1.584-4.04 3.532-4.04h25.236c.942 0 1.837.424 2.502 1.185l8.38 9.588zM96.626 98.693h39.794c5.379 0 9.752 4.373 9.752 9.753s-4.373 9.752-9.752 9.752H96.626"/>
        <path fill="#FCFBD2" d="M106.379 108.447c0-5.386-4.366-9.753-9.753-9.753-5.386 0-9.752 4.367-9.752 9.753 0 5.385 4.366 9.752 9.752 9.752 5.387 0 9.753-4.367 9.753-9.752"/>
        <path stroke="#075600" d="M233.93 139.359H21"/>
    </g>
</svg>
