<svg width="161" height="170" xmlns="http://www.w3.org/2000/svg">

 <g>
  <title>background</title>
  <rect fill="none" id="canvas_background" height="172" width="163" y="-1" x="-1"/>
 </g>
 <g>
  <title>Layer 1</title>
  <g id="svg_1" stroke-width="3" stroke="#E6E6E6" fill-rule="nonzero" fill="#FFF">
   <path id="svg_2" d="m61.331,72.93l-0.14,8.037l-11.306,-0.197l0.14,-8.037a31.865,31.865 0 0 1 -12.558,-5.458l-5.78,5.582l-7.856,-8.134l5.781,-5.582a31.865,31.865 0 0 1 -5.016,-12.741l-8.037,-0.14l0.197,-11.307l8.037,0.14a31.865,31.865 0 0 1 5.458,-12.558l-5.582,-5.78l8.134,-7.855l5.582,5.78a31.865,31.865 0 0 1 12.741,-5.016l0.14,-8.037l11.307,0.197l-0.14,8.038a31.865,31.865 0 0 1 12.557,5.457l5.78,-5.582l7.856,8.134l-5.78,5.582a31.865,31.865 0 0 1 5.016,12.741l8.037,0.14l-0.197,11.307l-8.038,-0.14a31.865,31.865 0 0 1 -5.458,12.558l5.583,5.78l-8.135,7.855l-5.582,-5.78a31.865,31.865 0 0 1 -12.74,5.016l-0.001,0zm-40.211,46.768l-2.628,4.551l-6.403,-3.696l2.628,-4.553a20.833,20.833 0 0 1 -5.451,-7.101l-5.075,1.36l-1.913,-7.142l5.075,-1.36c-0.264,-3.069 0.162,-6.089 1.17,-8.875l-4.553,-2.627l3.697,-6.403l4.551,2.628a20.833,20.833 0 0 1 7.102,-5.45l-1.36,-5.076l7.141,-1.913l1.36,5.075c3.07,-0.264 6.09,0.162 8.876,1.17l2.627,-4.552l6.403,3.697l-2.628,4.551a20.833,20.833 0 0 1 5.451,7.102l5.075,-1.36l1.914,7.141l-5.075,1.36c0.263,3.07 -0.162,6.09 -1.17,8.876l4.551,2.627l-3.696,6.403l-4.552,-2.628a20.833,20.833 0 0 1 -7.101,5.451l1.36,5.075l-7.142,1.914l-1.36,-5.075c-3.069,0.263 -6.089,-0.162 -8.875,-1.17l0.001,0z"/>
   <path id="svg_3" d="m144.364,150.759l4.066,11.245l-15.794,5.787l-4.066,-11.245a47.192,47.192 0 0 1 -20.321,-0.853l-5.063,10.857l-15.213,-7.094l5.063,-10.857a47.192,47.192 0 0 1 -13.716,-15.019l-11.228,4.114l-5.72,-15.82l11.229,-4.113a47.612,47.612 0 0 1 0.916,-20.38l-10.81,-5.04l7.123,-15.278l10.812,5.041a47.612,47.612 0 0 1 15.022,-13.802l-4.066,-11.245l15.794,-5.787l4.066,11.245a47.192,47.192 0 0 1 20.321,0.853l5.063,-10.857l15.213,7.094l-5.063,10.857a47.192,47.192 0 0 1 13.716,15.019l11.228,-4.114l5.72,15.82l-11.229,4.113a47.612,47.612 0 0 1 -0.916,20.38l10.81,5.04l-7.123,15.278l-10.812,-5.041a47.612,47.612 0 0 1 -15.022,13.802z"/>
  </g>
 </g>
</svg>