<svg xmlns="http://www.w3.org/2000/svg" width="167" height="101" viewBox="0 0 167 101">
    <g fill="none" fill-rule="nonzero">
        <path stroke="#E6E6E6" stroke-linecap="square" stroke-width="3" d="M71 50.5h94-94zm0-19.684h24.766c7.606 0 14.9-3.53 20.279-9.813l8.293-9.69C129.716 5.03 137.011 1.5 144.616 1.5H165M71 37.517h30.98c6.007 0 11.853-2.26 16.674-6.444l10.244-8.89c4.821-4.184 10.668-6.444 16.674-6.444H165m0 15.915h-18.618c-4.272 0-8.5 1.014-12.426 2.98l-13.19 6.604c-3.927 1.966-8.154 2.98-12.426 2.98H71M165 99.5h-20.384c-7.605 0-14.9-3.53-20.278-9.813l-8.293-9.69c-5.379-6.283-12.673-9.813-20.279-9.813H71m94 15.077h-19.428c-6.006 0-11.853-2.26-16.674-6.444l-10.244-8.89c-4.82-4.185-10.667-6.444-16.673-6.444H71m0-6.7h37.34c4.272 0 8.5 1.013 12.426 2.979l13.19 6.604c3.927 1.966 8.154 2.98 12.426 2.98H165"/>
        <g>
            <rect width="75" height="100" y=".198" fill="#E6E6E6" rx="5"/>
            <path stroke="#FFF" stroke-linecap="square" d="M.514 21.01h73.972M.514 41.01h73.972M.514 60.801h73.972M.514 80.76h73.972"/>
            <circle cx="10.57" cy="10.842" r="1.805" fill="#FFF"/>
            <circle cx="10.57" cy="31.178" r="1.805" fill="#FFF"/>
            <circle cx="10.57" cy="50.198" r="1.805" fill="#FFF"/>
            <circle cx="10.57" cy="70.634" r="1.805" fill="#FFF"/>
            <circle cx="10.57" cy="89.948" r="1.805" fill="#FFF"/>
        </g>
    </g>
</svg>
