<svg xmlns="http://www.w3.org/2000/svg" width="362" height="76" viewBox="0 0 362 76">
    <g fill="#000" fill-rule="evenodd">
        <path d="M73.888 38.02c0-15.656 11.932-27.892 28.272-27.892 12.236 0 23.18 7.828 26.144 19.304h-11.932c-2.28-5.396-8.132-8.664-14.212-8.664-10.336 0-17.176 7.6-17.176 17.252s6.84 17.252 17.176 17.252c6.08 0 11.932-3.268 14.212-8.664h11.932c-2.964 11.476-13.908 19.304-26.144 19.304-16.34 0-28.272-12.236-28.272-27.892zM183.328 65l-5.624-4.636c-4.636 3.496-10.412 5.548-16.72 5.548-15.428 0-27.892-12.464-27.892-27.892 0-15.428 12.464-27.892 27.892-27.892 15.428 0 27.892 12.464 27.892 27.892 0 5.548-1.596 10.716-4.408 15.048L198.832 65h-15.504zm-39.14-26.98c0 9.424 7.372 17.252 16.796 17.252 2.964 0 5.7-.76 8.132-2.128l-7.98-6.612 6.308-7.6 8.436 6.992a17.328 17.328 0 0 0 1.9-7.904c0-9.424-7.372-17.252-16.796-17.252s-16.796 7.828-16.796 17.252zm99.256 5.7c0 13.452-9.196 22.192-21.964 22.192-12.92 0-21.964-8.74-21.964-22.192V11.04h11.02v32.832c0 7.144 4.408 11.4 10.944 11.4 6.536 0 10.944-4.256 10.944-11.4V11.04h11.02v32.68zm11.4 21.28V11.04h11.02V65h-11.02zm23.028 0V11.04h20.672c10.108 0 16.568 6.992 16.568 15.96 0 7.22-3.952 11.78-11.096 14.06L323.396 65h-13.3l-18.468-22.724h-2.736V65h-11.02zm11.02-32.148h8.36c4.104 0 6.916-2.204 6.916-5.852 0-3.724-2.812-5.852-6.916-5.852h-8.36v11.704zM327.728 65V11.04h33.592v10.488h-22.572v11.096h18.012v10.488h-18.012v11.4h22.572V65h-33.592zM40.4.086L.273 49.936l40.125 25.483z"/>
        <path d="M43.085 68.538v6.88l40.126-25.482-3.665-4.553zM43.086 58.085v6.957L77.684 43.07l-3.705-4.604zM43.086 47.632v6.957l29.03-18.436-3.705-4.604zM43.086 37.179v6.957l23.463-14.9-3.706-4.605zM43.086 26.726v6.957l17.896-11.365-3.707-4.604zM43.085.086v12.691l6.76-4.292zM43.086 16.273v6.957l12.327-7.829-3.705-4.604z"/>
    </g>
</svg>
