<svg xmlns="http://www.w3.org/2000/svg" width="101" height="106" viewBox="0 0 100.9 105.5"><path d="M.2.5H101V9H.2zm0 24.8H101v8.5H.2zm0 25.6H101v8.5H.2zm0 54.6V78.9h5.3l7.7 17.3h.1L21 78.9h5.3v26.6h-5V89.2h-.1l-7.6 16.4h-.8L5.2 89.2h-.1v16.4H.2zm32.2 0V78.9h16.8v4.8H37.5v6h10.6v4.6H37.5v6.6h11.7v4.8H32.4zm22 0V78.9h5.1l9.7 17.5h.1V78.9h5.2v26.6h-5.1L59.6 88h-.1v17.5h-5.1zM80 96.8v-18h5.1v17.7c0 1.4.4 2.6 1.2 3.4s2 1.3 3.6 1.3 2.8-.4 3.7-1.3c.8-.8 1.3-2 1.3-3.4V78.9h5.1v18c0 3-.9 5.3-2.7 6.9s-4.3 2.4-7.3 2.4-5.5-.8-7.3-2.4c-1.8-1.7-2.7-4-2.7-7z" fill="#000"/><path d="M254.8 96.9l-11.1-10.5-55.4-54.9c-7.4-7.3-7.4-8-.2-15.1l13.8-13.8c4.6-4.5 6.6-4.5 11.2.1l63 63.5 4.1 4c1.5-1.4 2.9-2.6 4.1-3.9l63.6-63.6c4.7-4.7 6.6-4.7 11.2-.1l15.7 16.1c4.3 4.5 4.3 5.9-.2 10.3l-63.7 63.5c-1.3 1.3-2.5 2.6-3.9 4.1l3.9 4.1 63.2 63.4c5.4 5.5 5.4 6.3.1 11.7l-15.6 15.5c-4.2 4.2-5.6 4.2-9.9 0l-64.1-63.9c-1.3-1.3-2.2-2.9-3.6-4.7l-4.7 4.4-63.1 63.4c-5.2 5.2-6.2 5.2-11.4.2L186 175.4c-4.4-4.3-4.3-6.4.1-10.8l63.6-63.6c1.4-1.3 2.9-2.3 5.1-4.1z"/></svg> 