<svg width="33" height="34" viewBox="0 0 33 34" fill="none" xmlns="http://www.w3.org/2000/svg">
<path fill-rule="evenodd" clip-rule="evenodd" d="M31.0898 24.1962H31.0899L9.30391 2.41018H9.30375C8.31753 1.42232 6.95424 0.811035 5.44809 0.811035C2.43925 0.811035 0 3.25028 0 6.25913C0 7.76543 0.611119 9.12873 1.59898 10.1149L23.385 31.901C24.3714 32.8888 25.7345 33.4999 27.2406 33.4999C30.2497 33.4999 32.6889 31.0608 32.6889 28.0518C32.6889 26.5457 32.0776 25.1824 31.0898 24.1962ZM5.44813 22.6036C2.43928 22.6036 3.26889e-05 25.0429 3.26889e-05 28.0517C3.26889e-05 31.0607 2.43928 33.5 5.44813 33.5C8.45698 33.5 10.8962 31.0607 10.8962 28.0517C10.8962 25.0429 8.45698 22.6036 5.44813 22.6036ZM21.7926 6.25918C21.7926 3.25033 24.2318 0.811084 27.2407 0.811084C30.2497 0.811084 32.6889 3.25033 32.6889 6.25918C32.6889 9.26819 30.2497 11.7074 27.2407 11.7074C24.2318 11.7074 21.7926 9.26819 21.7926 6.25918Z" fill="#000"/>
</svg>
