<svg width="149" height="191" xmlns="http://www.w3.org/2000/svg">

 <g>
  <title>background</title>
  <rect fill="none" id="canvas_background" height="193" width="151" y="-1" x="-1"/>
 </g>
 <g>
  <title>Layer 1</title>
  <g id="svg_1" stroke-width="3" stroke="#E6E6E6" fill-rule="nonzero" fill="#FFF">
   <path id="svg_2" d="m7.866,90.32l-4.766,8.964l-12.607,-6.704l4.765,-8.962a40.236,40.236 0 0 1 -11,-13.34l-9.703,2.968l-4.175,-13.656l9.704,-2.967a40.236,40.236 0 0 1 1.66,-17.21l-8.962,-4.765l6.703,-12.607l8.962,4.765a40.236,40.236 0 0 1 13.34,-11l-2.967,-9.704l13.655,-4.175l2.966,9.704a40.236,40.236 0 0 1 17.21,1.66l4.766,-8.962l12.607,6.703l-4.765,8.963a40.236,40.236 0 0 1 11,13.339l9.703,-2.967l4.175,13.655l-9.704,2.967a40.236,40.236 0 0 1 -1.66,17.21l8.962,4.765l-6.703,12.607l-8.962,-4.765a40.236,40.236 0 0 1 -13.34,11l2.967,9.704l-13.655,4.174l-2.966,-9.703a40.236,40.236 0 0 1 -17.21,-1.66l0,-0.001zm39.878,98.747l-12.75,-1.566l1.112,-9.064a36.2,36.2 0 0 1 -13.54,-7.657l-7.194,5.62l-7.91,-10.123l7.195,-5.62a36.2,36.2 0 0 1 -4.155,-14.991l-9.064,-1.113l1.566,-12.751l9.064,1.113a36.2,36.2 0 0 1 7.657,-13.54l-5.62,-7.194l10.123,-7.91l5.62,7.194a36.2,36.2 0 0 1 14.991,-4.154l1.113,-9.064l12.75,1.565l-1.112,9.065a36.2,36.2 0 0 1 13.54,7.657l7.194,-5.62l7.91,10.123l-7.195,5.62a36.2,36.2 0 0 1 4.155,14.991l9.064,1.113l-1.566,12.75l-9.064,-1.112a36.2,36.2 0 0 1 -7.657,13.54l5.62,7.194l-10.123,7.91l-5.62,-7.195a36.2,36.2 0 0 1 -14.991,4.155l-1.113,9.064z"/>
   <path id="svg_3" d="m127.083,146.058l1.562,5.832l-8.204,2.198l-1.563,-5.832c-3.392,0.29 -6.87,-0.136 -10.197,-1.34l-3.018,5.226l-7.356,-4.246l3.018,-5.228a23.934,23.934 0 0 1 -6.26,-8.16l-5.831,1.562l-2.199,-8.204l5.833,-1.563c-0.29,-3.391 0.135,-6.87 1.34,-10.197l-5.227,-3.018l4.247,-7.355l5.227,3.018a23.934,23.934 0 0 1 8.16,-6.26l-1.562,-5.832l8.204,-2.199l1.563,5.833c3.392,-0.29 6.87,0.135 10.197,1.34l3.018,-5.227l7.356,4.247l-3.018,5.227a23.934,23.934 0 0 1 6.26,8.16l5.832,-1.562l2.198,8.204l-5.832,1.563c0.29,3.392 -0.136,6.87 -1.34,10.197l5.226,3.018l-4.246,7.356l-5.228,-3.018a23.934,23.934 0 0 1 -8.16,6.26z"/>
  </g>
 </g>
</svg>