<svg width="166" height="240" xmlns="http://www.w3.org/2000/svg">

 <g>
  <title>background</title>
  <rect fill="none" id="canvas_background" height="242" width="168" y="-1" x="-1"/>
 </g>
 <g>
  <title>Layer 1</title>
  <g id="svg_1" fill-rule="nonzero" fill="none">
   <g id="svg_2">
    <path id="svg_3" d="m85,1l66.696,0l0,35.008l-66.696,0l0,-35.008z" stroke-width="2" stroke="#E6E6E6"/>
    <path id="svg_4" d="m150.696,27.004l-0.117,0a7.806,7.806 0 0 0 -7.803,8.004l-48.949,0a9.886,9.886 0 0 0 -7.827,-7.828l0,-17.18a8.252,8.252 0 0 0 8,-8l48.777,0a8.253,8.253 0 0 0 7.919,7.998l0,17.006z" fill="#E6E6E6"/>
    <ellipse id="svg_5" ry="11.051" rx="8.539" fill="#FFF" cy="18.699" cx="118.5"/>
   </g>
   <g id="svg_6">
    <path id="svg_7" d="m19.118999,43l90.465,0l0,47.135l-90.465,0l0,-47.135z" stroke-width="2" stroke="#E6E6E6"/>
    <path id="svg_8" d="m108.583999,78.191l-0.159,-0.001c-5.895,0 -10.673,4.779 -10.673,10.673c0,0.091 0,0.182 0.003,0.272l-66.933,0a13.518,13.518 0 0 0 -10.703,-10.703l0,-23.492c5.963,-0.176 10.764,-4.977 10.94,-10.94l66.698,0c0.174,5.925 4.917,10.704 10.827,10.936l0,23.255z" fill="#E6E6E6"/>
    <ellipse id="svg_9" ry="15.111" rx="11.677" fill="#FFF" cy="66.834" cx="64.559999"/>
   </g>
   <g id="svg_10">
    <path id="svg_11" d="m88,109l76.99,0l0,40.26l-76.99,0l0,-40.26z" stroke-width="2" stroke="#E6E6E6"/>
    <path id="svg_12" d="m163.99,138.983l-0.134,0a9.048,9.048 0 0 0 -9.045,9.277l-56.738,0a11.459,11.459 0 0 0 -9.073,-9.073l0,-19.913a9.566,9.566 0 0 0 9.274,-9.274l56.538,0a9.566,9.566 0 0 0 9.178,9.27l0,19.713z" fill="#E6E6E6"/>
    <ellipse id="svg_13" ry="12.809" rx="9.898" fill="#FFF" cy="129.356" cx="126.672"/>
   </g>
   <g id="svg_14">
    <path id="svg_15" d="m-40.565,129l104.953,0l0,54.527l-104.953,0l0,-54.527z" stroke-width="2" stroke="#E6E6E6"/>
    <path id="svg_16" d="m63.388,169.79l-0.184,0c-6.86,0 -12.422,5.56 -12.422,12.421c0,0.106 0.001,0.211 0.004,0.316l-77.895,0a15.732,15.732 0 0 0 -12.456,-12.456l0,-27.339c6.94,-0.205 12.527,-5.792 12.732,-12.732l77.62,0c0.204,6.896 5.723,12.457 12.601,12.728l0,27.062z" fill="#E6E6E6"/>
    <ellipse id="svg_17" ry="17.586" rx="13.589" fill="#FFF" cy="156.574" cx="12.154"/>
   </g>
   <g id="svg_18">
    <path id="svg_19" d="m62.119003,207l60.501,0l0,31.848l-60.501,0l0,-31.848z" stroke-width="2" stroke="#E6E6E6"/>
    <path id="svg_20" d="m121.620003,230.61l-0.105,0a7.058,7.058 0 0 0 -7.056,7.238l-44.262,0a8.94,8.94 0 0 0 -7.078,-7.078l0,-15.535a7.462,7.462 0 0 0 7.235,-7.235l44.105,0a7.462,7.462 0 0 0 7.16,7.232l0,15.378l0.001,0z" fill="#E6E6E6"/>
    <ellipse id="svg_21" ry="9.993" rx="7.722" fill="#FFF" cy="223.1" cx="92.507003"/>
   </g>
  </g>
 </g>
</svg>