<svg xmlns="http://www.w3.org/2000/svg" width="350" height="221" viewBox="0 0 350 221">
    <g fill="none" fill-rule="evenodd">
        <path fill="#FFF" fill-rule="nonzero" d="M0 0h350v221H0z"/>
        <path stroke="#00C97A" d="M63.447 219.95l22.618-22.684"/>
        <path stroke="#004300" d="M86.065 197.266l-22.618-22.683"/>
        <path stroke="#00C97A" d="M63.447 174.583l22.618-22.684"/>
        <path stroke="#004300" d="M86.065 151.9l-22.618-22.684"/>
        <path stroke="#00C97A" d="M63.447 129.216l22.618-22.684"/>
        <path stroke="#004300" d="M86.065 106.532L63.447 83.85"/>
        <path stroke="#00C97A" d="M63.447 83.849l22.618-22.683"/>
        <path stroke="#004300" d="M86.065 61.166L63.447 38.482M86.065 219.95V38.482"/>
        <path fill="#00C97A" d="M153.17 185.924c0 18.344-14.882 33.27-33.173 33.27-18.29 0-33.174-14.926-33.174-33.27 0-18.343 14.883-33.269 33.174-33.269v33.27l23.464-23.53c6.257 6.29 9.71 14.638 9.71 23.53"/>
        <path stroke="#004300" d="M184.083 38.482l-15.08-15.122"/>
        <path stroke="#00C97A" d="M169.004 23.36l-15.08 15.122M199.162 23.36l-15.08 15.122"/>
        <path stroke="#004300" d="M153.925 38.482l-15.08-15.122"/>
        <path stroke="#00C97A" d="M138.846 23.36l-15.08 15.122"/>
        <path stroke="#004300" d="M123.767 38.482l-15.08-15.122"/>
        <path stroke="#00C97A" d="M108.688 23.36l-15.08 15.122"/>
        <path stroke="#004300" d="M93.609 38.482L78.529 23.36"/>
        <path stroke="#00C97A" d="M78.53 23.36L63.45 38.482"/>
        <path stroke="#004300" d="M63.45 38.482L48.373 23.36"/>
        <path stroke="#00C97A" d="M48.372 23.36L33.293 38.482"/>
        <path stroke="#004300" d="M33.293 38.482L18.214 23.36"/>
        <path fill="#00C97A" d="M17.46 55.117h15.833V39.238H17.46zM17.46 70.995h15.833V55.117H17.46z"/>
        <path stroke="#004300" d="M17.46 55.117h15.833M214.24 129.216V38.482L199.163 23.36H18.214v15.122h196.027"/>
        <path stroke="#00C97A" d="M143.711 215.413l31.678-31.769h31.634l25.874-25.95"/>
        <path fill="#004300" d="M148.996 214.65a4.53 4.53 0 0 0-4.524-4.536 4.53 4.53 0 0 0-4.523 4.537 4.53 4.53 0 0 0 4.523 4.537 4.532 4.532 0 0 0 4.524-4.537M179.912 183.644a4.53 4.53 0 0 0-4.523-4.536 4.53 4.53 0 0 0-4.524 4.536 4.532 4.532 0 0 0 4.524 4.537 4.53 4.53 0 0 0 4.523-4.537"/>
        <path fill="#00C97A" d="M211.547 183.644a4.53 4.53 0 0 0-4.523-4.536 4.53 4.53 0 0 0-4.524 4.536 4.53 4.53 0 0 0 4.524 4.537 4.532 4.532 0 0 0 4.523-4.537"/>
        <path fill="#004300" d="M237.421 157.694a4.53 4.53 0 0 0-4.523-4.536 4.53 4.53 0 0 0-4.524 4.536 4.53 4.53 0 0 0 4.524 4.537 4.53 4.53 0 0 0 4.523-4.537"/>
        <path fill="#00C97A" d="M218.764 133.753a4.53 4.53 0 0 0-4.523-4.537 4.53 4.53 0 0 0-4.524 4.537 4.53 4.53 0 0 0 4.524 4.536 4.53 4.53 0 0 0 4.523-4.536M237.423 219.95h30.158V89.64h-30.158z"/>
        <path fill="#004300" d="M267.581 219.706h30.158V116.874H267.58v102.832zm1.508-1.512h27.142v-99.807h-27.142v99.807z"/>
        <path fill="#004300" d="M297.739 219.95h30.158V38.482h-30.158z"/>
        <path stroke="#004300" d="M297.739 219.95h30.158V38.482h-30.158z"/>
        <path fill="#004300" d="M62.682 184.408c0 10.021-8.102 18.147-18.095 18.147-9.994 0-18.094-8.126-18.094-18.147 0-10.023 8.1-18.147 18.094-18.147 9.993 0 18.095 8.124 18.095 18.147"/>
        <path stroke="#00C97A" d="M44.587 219.945v-35.537"/>
        <path fill="#004300" d="M143.46 162.395l-23.464 23.53v-33.269c8.853 0 17.177 3.463 23.465 9.739"/>
        <path fill="#00C97A" d="M338.238 219.95h-51.613a9.682 9.682 0 0 1 2.126-3.176 9.879 9.879 0 0 1 3.165-2.147 9.756 9.756 0 0 1 3.877-.787h.028a16.89 16.89 0 0 1 1.297-5.504 16.444 16.444 0 0 1 3.575-5.323 17.172 17.172 0 0 1 5.338-3.615 16.92 16.92 0 0 1 6.513-1.315c2.292 0 4.508.484 6.5 1.315a17.016 17.016 0 0 1 5.338 3.615 16.464 16.464 0 0 1 3.574 5.323c.27.65.513 1.33.707 2.026h.015c5.278 0 9.56 4.295 9.56 9.588"/>
        <path stroke="#004300" d="M63.447 38.482V219.95M348.615 219.95H1.19"/>
    </g>
</svg>
