<svg xmlns="http://www.w3.org/2000/svg" xmlns:xlink="http://www.w3.org/1999/xlink" width="350" height="221" viewBox="0 0 350 221">
    <defs>
        <path id="a" d="M0 195.07h347.662V0H0z"/>
    </defs>
    <g fill="none" fill-rule="evenodd">
        <path fill="#FFF" fill-rule="nonzero" d="M0 0h350v221H0z"/>
        <g transform="translate(1 25.25)">
            <path fill="#5C3778" d="M83.096 194.39H40.385a8.628 8.628 0 0 1 4.555-4.553 8.138 8.138 0 0 1 2.065-.571c2.136-6.335 8.13-10.902 15.184-10.902 2.162 0 4.2.421 6.077 1.196l14.83 14.83z"/>
            <path fill="#B28BBF" d="M284.515 119.394v74.997H158.093v-74.997"/>
            <mask id="b" fill="#fff">
                <use xlink:href="#a"/>
            </mask>
            <path fill="#5C3778" d="M158.089 119.394h27.187V0h-27.187zM337.915 130.72c5.133 14.105-2.138 29.703-16.244 34.836-14.106 5.134-29.704-2.138-34.837-16.245-5.134-14.105 2.139-29.702 16.245-34.836 14.105-5.135 29.703 2.14 34.836 16.244" mask="url(#b)"/>
            <path stroke="#B28BBF" d="M312.374 140.016v54.375"/>
            <path fill="#5C3778" d="M158.09 119.394v38.443l-36.54 36.554H83.091z" mask="url(#b)"/>
            <path fill="#B28BBF" d="M158.09 0v119.394l-74.998 74.997-74.996-74.997V0z" mask="url(#b)"/>
            <path fill="#F9F8D3" d="M130.675 71.947c-10.58 14.817-27.94 24.49-47.579 24.49-19.637 0-36.998-9.673-47.578-24.49 10.58-14.846 27.94-24.52 47.578-24.52 19.64 0 37 9.674 47.579 24.52" mask="url(#b)"/>
            <path fill="#5C3778" d="M95.35 71.947c0-6.767-5.486-12.253-12.254-12.253-6.766 0-12.25 5.486-12.25 12.253S76.33 84.2 83.095 84.2c6.768 0 12.253-5.485 12.253-12.252" mask="url(#b)"/>
            <path stroke="#B28BBF" d="M16.256 176.063v18.398"/>
            <path fill="#5C3778" d="M16.256 194.461a8.157 8.157 0 0 1 8.156-8.156M16.256 194.461a8.157 8.157 0 0 0-8.156-8.156M20.334 175.45a4.078 4.078 0 1 0-8.156 0 4.078 4.078 0 0 0 8.156 0" mask="url(#b)"/>
            <path stroke="#5C3778" d="M347.662 194.39H.001"/>
            <path stroke="#FFF" d="M285.195 119.394l-63.891 36.892-63.211-36.892" mask="url(#b)"/>
        </g>
    </g>
</svg>
