<svg xmlns="http://www.w3.org/2000/svg" xmlns:xlink="http://www.w3.org/1999/xlink" width="350" height="221" viewBox="0 0 350 221">
    <defs>
        <path id="a" d="M0 0h347.096v1.506H0z"/>
    </defs>
    <g fill="none" fill-rule="evenodd">
        <path fill="#FFF" fill-rule="nonzero" d="M0 0h350v221H0z"/>
        <path fill="#00C97A" d="M45.035 219.162H26.957a9.036 9.036 0 0 1 11.766-8.617c3.645 1.145 6.312 4.58 6.312 8.617M70.887 219.162H58.835a6.024 6.024 0 0 1 6.026-6.026h.06a6.021 6.021 0 0 1 5.966 6.026"/>
        <path fill="#00C97A" d="M66.126 219.162h-30.13c0-3.209 1.01-6.177 2.727-8.617a14.955 14.955 0 0 1 12.338-6.448c6.176 0 11.48 3.721 13.8 9.039a14.886 14.886 0 0 1 1.265 6.026M282.667 60.278v132.65a25.42 25.42 0 0 1-7.464 18.026c-4.592 4.625-10.97 7.481-18.042 7.481a25.393 25.393 0 0 1-11.989-2.975c-8.025-4.285-13.518-12.787-13.518-22.531h-76.52V39.89h107.128v20.388h20.405z"/>
        <path fill="#075600" d="M282.667 60.278h-20.404V39.89zM257.16 218.436H129.628c-14.078 0-25.507-11.427-25.507-25.507h127.534c0 9.744 5.493 18.246 13.518 22.532a25.402 25.402 0 0 0 11.989 2.975"/>
        <path stroke="#075600" d="M310.579 116.134l-16.94 29.838-38.406 10.589"/>
        <path fill="#075600" d="M299.38 144.389a5.953 5.953 0 0 1-4.159 7.322 5.953 5.953 0 1 1-3.163-11.48 5.955 5.955 0 0 1 7.321 4.158"/>
        <path stroke="#075600" d="M215.674 196.2l38.886-39.454M311.431 116.128l19.916-.253"/>
        <path fill="#00C97A" d="M316.457 115.056a5.955 5.955 0 0 1-11.48 3.165 5.954 5.954 0 0 1 11.48-3.165"/>
        <path fill="#FCFBD2" d="M260.3 155.164a5.954 5.954 0 1 1-11.48 3.164 5.954 5.954 0 0 1 11.48-3.164"/>
        <path fill="#00C97A" d="M330.545 122.761l-.099-13.76 11.957 6.794z"/>
        <path stroke="#075600" d="M158.636 199.855l86.497-86.496 20.054 20.054 39.148-39.146"/>
        <path fill="#075600" d="M250.68 113.36a5.549 5.549 0 1 1-11.096 0 5.549 5.549 0 0 1 11.097 0"/>
        <path fill="#FCFBD2" d="M270.736 133.355a5.549 5.549 0 1 1-11.097 0 5.549 5.549 0 0 1 11.097 0"/>
        <path fill="#00C97A" d="M307.212 100.456l-9.067-9.067 12.38-3.313zM185.92 100.292a44.82 44.82 0 0 1-6.014 22.498c-7.784 13.426-22.3 22.46-38.944 22.46-3.824 0-7.536-.483-11.088-1.373V56.708a45.545 45.545 0 0 1 11.088-1.374c24.837 0 44.958 20.122 44.958 44.958"/>
        <path stroke="#075600" d="M95.996 100.292c0 24.832 20.13 44.962 44.961 44.962 24.833 0 44.963-20.13 44.963-44.962 0-24.831-20.13-44.962-44.963-44.962-24.831 0-44.961 20.13-44.961 44.962zM81.161 134.816l20.86-12.044"/>
        <path fill="#075600" d="M12.98 165.594l7.425 12.87 64.46-37.224-7.426-12.856z"/>
        <path fill="#004300" d="M334.75 184.267c0 9.983-8.094 18.078-18.077 18.078-9.984 0-18.078-8.095-18.078-18.078 0-9.984 8.094-18.078 18.078-18.078 9.983 0 18.078 8.094 18.078 18.078"/>
        <path stroke="#00C97A" d="M316.673 219.67v-35.403"/>
        <g transform="translate(1 218.266)">
            <mask id="b" fill="#fff">
                <use xlink:href="#a"/>
            </mask>
            <path stroke="#075600" d="M347.096.753H0"/>
        </g>
    </g>
</svg>
