<svg xmlns="http://www.w3.org/2000/svg" xmlns:xlink="http://www.w3.org/1999/xlink" width="350" height="221" viewBox="0 0 350 221">
    <defs>
        <path id="a" d="M0 158.935h347.096V0H0z"/>
    </defs>
    <g fill="none" fill-rule="evenodd">
        <path fill="#FFF" fill-rule="nonzero" d="M0 0h350v221H0z"/>
        <g transform="translate(1 61.312)">
            <path fill="#075600" d="M202.414 112.234h24.081c-2.547-8.14-6.987-13.559-12.04-13.559-5.054 0-9.494 5.419-12.041 13.559M198.656 128.805h-29.368c.18 4.898 2.103 9.509 5.389 13.558h25.773c-1.097-4.072-1.733-8.675-1.794-13.558M169.289 127.299h29.367c.06-4.883.698-9.487 1.794-13.559h-25.773c-3.285 4.05-5.208 8.66-5.388 13.559M200.161 127.299h28.586c-.06-4.913-.705-9.528-1.806-13.559h-24.973c-1.101 4.031-1.745 8.646-1.807 13.559M226.495 143.87h-24.081c2.547 8.14 6.987 13.558 12.04 13.558 5.054 0 9.493-5.418 12.04-13.558M228.747 128.805h-28.585c.06 4.911.705 9.527 1.806 13.558h24.973c1.101-4.03 1.745-8.647 1.806-13.558"/>
            <path fill="#075600" d="M200.894 112.234c2.159-7.027 5.7-12.244 9.887-14.205-14.712.79-27.435 6.271-34.79 14.205h24.903zM200.894 143.87H175.99c7.356 7.933 20.079 13.414 34.791 14.205-4.186-1.962-7.728-7.179-9.887-14.205M228.015 143.87c-2.158 7.026-5.702 12.243-9.888 14.205 14.714-.79 27.436-6.272 34.792-14.205h-24.904zM228.015 112.234h24.904c-7.356-7.934-20.078-13.414-34.79-14.205 4.186 1.961 7.728 7.178 9.886 14.205M259.62 128.805h-29.367c-.062 4.883-.699 9.486-1.794 13.558h25.775c3.284-4.049 5.206-8.66 5.387-13.558M228.459 113.74c1.097 4.072 1.732 8.676 1.794 13.559h29.368c-.181-4.898-2.102-9.51-5.388-13.559H228.46z"/>
            <path stroke="#075600" d="M188.84 45.713l19.362-19.364 16.335 16.336 31.888-31.888M274.445 54.291l-18.417 18.417h-30.241"/>
            <path fill="#075600" d="M212.722 26.35a4.52 4.52 0 1 1-9.039 0 4.52 4.52 0 0 1 9.039 0"/>
            <path fill="#00C97A" d="M229.057 42.636a4.52 4.52 0 1 1-9.038 0 4.52 4.52 0 0 1 9.038 0"/>
            <path fill="#075600" d="M260.548 72.707a4.52 4.52 0 1 1-9.038 0 4.52 4.52 0 0 1 9.038 0"/>
            <path stroke="#075600" d="M188.84 93.733l36.416-21.026M275.07 54.459l25.65 6.872"/>
            <path fill="#00C97A" d="M278.965 54.688a4.52 4.52 0 1 1-9.039 0 4.52 4.52 0 0 1 9.039 0M33.94 142.363h-9.31V74.571h45.195v61.013"/>
            <path stroke="#075600" d="M72.09 158.182H22.376a4.52 4.52 0 0 1-4.52-4.52v-81.35a4.52 4.52 0 0 1 4.52-4.52H72.09a4.52 4.52 0 0 1 4.52 4.52v63.272"/>
            <path fill="#00C97A" d="M188.84 18.063v117.522a22.52 22.52 0 0 1-6.614 15.969c-4.068 4.097-9.717 6.628-15.984 6.628-3.842 0-7.457-.949-10.621-2.636-7.11-3.797-11.977-11.33-11.977-19.961H75.852V0h94.91v18.063h18.077z"/>
            <path fill="#075600" d="M188.838 18.063H170.76V0z"/>
            <mask id="b" fill="#fff">
                <use xlink:href="#a"/>
            </mask>
            <path fill="#075600" d="M260.387 158.182h10.545v-7.533h-10.545z" mask="url(#b)"/>
            <path stroke="#075600" d="M260.387 158.182h10.545v-7.533h-10.545z" mask="url(#b)"/>
            <path stroke="#00C97A" d="M260.387 150.65h10.545v-39.17h-10.545z" mask="url(#b)"/>
            <path fill="#00C97A" d="M270.911 158.238h13.602v-25.383h-13.602z" mask="url(#b)"/>
            <path fill="#075600" d="M272.439 132.571h10.545V96.416H272.44z" mask="url(#b)"/>
            <path stroke="#075600" d="M272.439 132.571h10.545V96.416H272.44z" mask="url(#b)"/>
            <path stroke="#00C97A" d="M284.49 139.35h10.546v-18.83h-10.545z" mask="url(#b)"/>
            <path fill="#075600" d="M284.49 156.675h10.546v-15.818h-10.545z" mask="url(#b)"/>
            <path stroke="#075600" d="M284.49 156.675h10.546v-15.818h-10.545z" mask="url(#b)"/>
            <path stroke="#00C97A" d="M54.008 54.85a10.617 10.617 0 0 0-7.533-3.12 10.614 10.614 0 0 0-7.532 3.12M31.408 47.318a21.172 21.172 0 0 1 15.067-6.242 21.167 21.167 0 0 1 15.066 6.242M23.877 39.783c6.037-6.035 14.062-9.36 22.598-9.36s16.56 3.325 22.597 9.36" mask="url(#b)"/>
            <path fill="#00C97A" d="M326.858 158.182c.204-.48.499-.915.862-1.28a4.006 4.006 0 0 1 2.844-1.178 4.02 4.02 0 0 1 3.706 2.458M315.374 158.182a7.532 7.532 0 1 1 15.065 0M331.946 122.78c0 9.983-8.095 18.077-18.078 18.077-9.984 0-18.078-8.094-18.078-18.078 0-9.983 8.094-18.078 18.078-18.078 9.983 0 18.078 8.095 18.078 18.078" mask="url(#b)"/>
            <path stroke="#075600" d="M313.868 158.182v-35.403"/>
            <path fill="#00C97A" d="M229.776 72.707a4.52 4.52 0 1 1-9.039 0 4.52 4.52 0 0 1 9.039 0" mask="url(#b)"/>
            <path fill="#075600" d="M166.242 158.182H53.255c-12.474 0-22.598-10.124-22.598-22.598h112.987c0 8.632 4.866 16.165 11.977 19.961a22.496 22.496 0 0 0 10.62 2.637" mask="url(#b)"/>
            <path stroke="#075600" d="M347.096 158.182H0"/>
            <path fill="#00C97A" d="M258.768 15.84l-7.386-7.386 10.084-2.698zM298.744 66.208l2.703-10.089 7.378 7.385z" mask="url(#b)"/>
        </g>
    </g>
</svg>
