<svg xmlns="http://www.w3.org/2000/svg" xmlns:xlink="http://www.w3.org/1999/xlink" width="350" height="221" viewBox="0 0 350 221">
    <defs>
        <path id="a" d="M0 .482h78.957v39.48H0z"/>
        <path id="c" d="M0 206.168h346.626V.731H0z"/>
    </defs>
    <g fill="none" fill-rule="evenodd">
        <path fill="#FFF" fill-rule="nonzero" d="M0 0h350v221H0z"/>
        <path fill="#B28BBF" d="M40.479 219.192h188.71v-101.14H40.479z"/>
        <path fill="#FFF" d="M198.394 118.052v67.992H79.957v-67.992"/>
        <g transform="translate(1 13.755)">
            <path fill="#5C3778" d="M236.552 41.285V29.44a3.401 3.401 0 0 1 3.407-3.407h13.189c1.155 0 2.28.454 3.1 1.287l7.81 7.808.407.41"/>
            <path fill="#B28BBF" d="M307.468 39.516v35.092a4.38 4.38 0 0 1-4.386 4.387h-62.143a4.38 4.38 0 0 1-4.387-4.387V39.516a4.38 4.38 0 0 1 4.387-4.387h62.143a4.38 4.38 0 0 1 4.386 4.387M118.437 64.819l-39.48 39.479H39.48l39.479-39.48z"/>
            <path fill="#5C3778" d="M157.916 64.819l-39.48 39.479H78.959l39.479-39.48z"/>
            <path fill="#B28BBF" d="M197.394 64.819l-39.479 39.479h-39.479l39.48-39.48z"/>
            <path fill="#5C3778" d="M197.394 64.819v39.479h-39.479z"/>
            <g transform="translate(0 64.336)">
                <mask id="b" fill="#fff">
                    <use xlink:href="#a"/>
                </mask>
                <path fill="#5C3778" d="M78.957.482l-39.479 39.48H0L39.48.481z" mask="url(#b)"/>
            </g>
            <path fill="#B28BBF" d="M39.48 104.298c0 10.907-8.832 19.739-19.74 19.739-10.908 0-19.74-8.832-19.74-19.74h39.48z"/>
            <mask id="d" fill="#fff">
                <use xlink:href="#c"/>
            </mask>
            <path fill="#00C97A" d="M257.432 148.163h29.244V118.92h-29.244z" mask="url(#d)"/>
            <path fill="#B28BBF" d="M197.394 104.298c0 10.907-8.831 19.739-19.74 19.739-10.907 0-19.739-8.832-19.739-19.74h39.48z" mask="url(#d)"/>
            <path fill="#5C3778" d="M78.957 104.298v67.991h-8.773v-51.571a19.709 19.709 0 0 1-10.966 3.319c-10.907 0-19.74-8.832-19.74-19.74h39.48z" mask="url(#d)"/>
            <path stroke="#5C3778" d="M228.189 104.298v101.139" mask="url(#d)"/>
            <path fill="#5C3778" d="M226.727 205.437v-101.14h14.622v101.14" mask="url(#d)"/>
            <path fill="#B28BBF" d="M118.437 104.298c0 10.907-8.832 19.739-19.74 19.739-10.908 0-19.74-8.832-19.74-19.74h39.48z" mask="url(#d)"/>
            <path fill="#5C3778" d="M301.298 205.437v-101.14h14.622v101.14" mask="url(#d)"/>
            <path stroke="#FCFBD2" d="M266.161 62.91a5.849 5.849 0 1 0 5.85-5.849M277.859 51.213a5.849 5.849 0 1 0-5.849 5.848M272.01 42.44v29.243" mask="url(#d)"/>
            <path fill="#FFF" d="M326.101 171.368c0-5.623-4.558-10.183-10.181-10.183-5.624 0-10.183 4.56-10.183 10.183 0 5.624 4.56 10.181 10.183 10.181s10.181-4.557 10.181-10.18" mask="url(#d)"/>
            <path stroke="#5C3778" d="M326.101 171.368c0-5.623-4.558-10.183-10.181-10.183-5.624 0-10.183 4.56-10.183 10.183 0 5.624 4.56 10.181 10.183 10.181s10.181-4.557 10.181-10.18z" mask="url(#d)"/>
            <path fill="#B28BBF" d="M326.101 181.55l-4.215 23.886H309.94l-4.204-23.886z" mask="url(#d)"/>
            <path fill="#5C3778" d="M157.916 104.298c0 10.907-8.832 19.739-19.74 19.739-10.908 0-19.74-8.832-19.74-19.74h39.48z" mask="url(#d)"/>
            <path fill="#B28BBF" d="M257.432 148.163h29.244V118.92h-29.244z" mask="url(#d)"/>
            <path stroke="#5C3778" d="M346.626 205.437H0"/>
            <path fill="#5C3778" d="M197.393 104.298h149.233V.73H197.393v103.567zm1.463-1.463h146.307V2.193H198.856v100.642z" mask="url(#d)"/>
        </g>
    </g>
</svg>
