<svg xmlns="http://www.w3.org/2000/svg" xmlns:xlink="http://www.w3.org/1999/xlink" width="350" height="221" viewBox="0 0 350 221">
    <defs>
        <path id="a" d="M0 0h347.655v1.509H0z"/>
    </defs>
    <g fill="none" fill-rule="evenodd">
        <path fill="#FFF" fill-rule="nonzero" d="M0 0h350v221H0z"/>
        <path fill="#5C3778" d="M193.838 148.834h37c-3.914-12.508-10.736-20.832-18.5-20.832-7.764 0-14.586 8.324-18.5 20.832M188.064 174.295h-45.123c.278 7.527 3.231 14.61 8.278 20.832h39.6c-1.684-6.256-2.661-13.33-2.755-20.832M142.94 171.98h45.124c.093-7.502 1.071-14.574 2.755-20.832h-39.6c-5.046 6.223-7.999 13.306-8.278 20.832M190.376 171.98h43.922c-.094-7.546-1.082-14.636-2.774-20.832h-38.371c-1.692 6.196-2.683 13.286-2.777 20.832M230.837 197.442h-37c3.914 12.507 10.737 20.832 18.5 20.832 7.766 0 14.586-8.325 18.5-20.832M234.298 174.295h-43.921c.093 7.546 1.083 14.638 2.775 20.832h38.371c1.692-6.194 2.682-13.286 2.775-20.832"/>
        <path fill="#5C3778" d="M191.502 148.834c3.317-10.795 8.76-18.812 15.192-21.824-22.605 1.213-42.152 9.635-53.455 21.824h38.263zM191.502 197.442h-38.263c11.303 12.19 30.85 20.612 53.455 21.825-6.433-3.013-11.875-11.029-15.192-21.825M233.173 197.442c-3.316 10.796-8.76 18.812-15.192 21.825 22.606-1.213 42.153-9.635 53.456-21.825h-38.264zM233.173 148.834h38.264c-11.303-12.19-30.85-20.61-53.456-21.824 6.432 3.012 11.876 11.029 15.192 21.824M281.735 174.295h-45.123c-.095 7.503-1.073 14.576-2.757 20.832h39.602c5.047-6.222 7.999-13.305 8.278-20.832M233.855 151.149c1.684 6.256 2.663 13.33 2.757 20.832h45.122c-.277-7.527-3.229-14.61-8.278-20.832h-39.601z"/>
        <path fill="#B28BBF" d="M328.385 219.267a4.046 4.046 0 0 1 2.144-2.144 4.018 4.018 0 0 1 1.568-.317 4.013 4.013 0 0 1 2.849 1.18c.365.365.659.8.863 1.28M316.882 219.267a7.544 7.544 0 1 1 15.09 0M333.48 183.807c0 10-8.107 18.107-18.107 18.107s-18.107-8.107-18.107-18.107 8.106-18.107 18.107-18.107c10 0 18.107 8.107 18.107 18.107"/>
        <path stroke="#5C3778" d="M315.373 219.267v-35.46"/>
        <path fill="#B28BBF" d="M334.652 56.678v66.971H239.67l-18.77 18.77V56.678z"/>
        <path fill="#FCFBD2" d="M277.768 94.92a4.759 4.759 0 0 1-4.754-4.755 4.758 4.758 0 0 1 4.754-4.756 4.749 4.749 0 0 1 4.756 4.756 4.75 4.75 0 0 1-4.756 4.754zm23.778-9.511H289.26l8.687-8.702-6.72-6.723-8.703 8.704v-12.3h-9.51v12.3l-8.687-8.704-6.721 6.723 8.687 8.702h-12.286v9.51h12.286l-8.687 8.687 6.72 6.737 8.688-8.703v12.3h9.51v-12.3l8.702 8.703 6.721-6.737-8.687-8.687h12.286v-9.51z"/>
        <path stroke="#5C3778" d="M89.28 114.484V90.18L55.779 56.678h81.962L104.237 90.18v24.304"/>
        <path fill="#B28BBF" d="M33.55 219.085v-110.65H159.17v110.65"/>
        <path stroke="#5C3778" d="M57.058 219.085v-53.823h36.113v53.823"/>
        <path stroke="#FCFBD2" d="M104.304 108.436v32.64h-15.09v-32.64"/>
        <g transform="translate(1 218.512)">
            <mask id="b" fill="#fff">
                <use xlink:href="#a"/>
            </mask>
            <path stroke="#5C3778" d="M347.655.754H0"/>
        </g>
    </g>
</svg>
