<svg xmlns="http://www.w3.org/2000/svg" xmlns:xlink="http://www.w3.org/1999/xlink" width="350" height="221" viewBox="0 0 350 221">
    <defs>
        <path id="a" d="M.001 0h345.936v1.501H.001z"/>
    </defs>
    <g fill="none" fill-rule="evenodd">
        <path fill="#FFF" fill-rule="nonzero" d="M0 0h350v221H0z"/>
        <path fill="#075600" d="M127.653 148.233h36.817c-3.895-12.445-10.684-20.729-18.41-20.729-7.726 0-14.512 8.284-18.407 20.73M121.906 173.57H77.008c.276 7.488 3.213 14.536 8.237 20.728h39.405c-1.676-6.225-2.65-13.264-2.744-20.729M77.008 171.266h44.898c.093-7.465 1.067-14.504 2.743-20.729H85.245c-5.023 6.192-7.96 13.24-8.237 20.73M124.208 171.266h43.705c-.093-7.508-1.078-14.565-2.761-20.729H126.97c-1.684 6.164-2.668 13.22-2.762 20.73M164.47 196.602h-36.818c3.895 12.446 10.683 20.73 18.408 20.73 7.727 0 14.515-8.284 18.41-20.73M167.914 173.57h-43.705c.093 7.51 1.077 14.565 2.76 20.728h38.182c1.683-6.163 2.67-13.219 2.763-20.729"/>
        <path fill="#075600" d="M125.329 148.233c3.298-10.741 8.716-18.718 15.115-21.715-22.494 1.207-41.944 9.586-53.19 21.715h38.075zM125.329 196.602H87.255c11.245 12.129 30.695 20.509 53.19 21.716-6.4-2.997-11.818-10.973-15.116-21.716M166.793 196.602c-3.3 10.743-8.717 18.719-15.116 21.716 22.493-1.206 41.945-9.586 53.192-21.716h-38.076zM166.793 148.233h38.075c-11.246-12.129-30.698-20.508-53.191-21.715 6.4 2.997 11.816 10.974 15.116 21.715M215.115 173.57h-44.9c-.093 7.464-1.066 14.503-2.742 20.728h39.406c5.021-6.192 7.96-13.24 8.236-20.729M167.472 150.537c1.676 6.225 2.65 13.264 2.742 20.729h44.9c-.275-7.49-3.213-14.537-8.236-20.73h-39.406z"/>
        <path fill="#00C97A" d="M39.446 183.775c0 9.95-8.066 18.018-18.018 18.018-9.95 0-18.017-8.068-18.017-18.018 0-9.95 8.067-18.018 18.017-18.018 9.952 0 18.018 8.068 18.018 18.018M21.428 219.06v-35.286"/>
        <path stroke="#075600" d="M21.428 219.06v-35.286"/>
        <path fill="#00C97A" d="M60.78 50.184v66.643h94.513l18.677 18.675V50.184zM324.439 123.966H188.588a9.01 9.01 0 0 0-9.01 9.008v77.165a9.008 9.008 0 0 0 9.01 9.01h135.85a9.01 9.01 0 0 0 9.01-9.01v-77.165a9.01 9.01 0 0 0-9.01-9.008"/>
        <path stroke="#F9F8D3" d="M219.51 149.42h74.005M219.51 171.62h74.005M219.51 193.758h74.005"/>
        <path fill="#075600" d="M238.343 149.42a5.726 5.726 0 0 1-5.726 5.726 5.727 5.727 0 1 1 0-11.455 5.728 5.728 0 0 1 5.726 5.729M246.725 124.286h-58.817a8.327 8.327 0 0 0-8.329 8.329v-22.211c0-4.595 3.736-8.328 8.329-8.328h33.164c2.22 0 4.33.874 5.9 2.442l19.753 19.768zM288.986 171.505a5.728 5.728 0 1 1-11.456-.003 5.728 5.728 0 0 1 11.456.003M260.685 193.639a5.728 5.728 0 1 1-11.456-.002 5.728 5.728 0 0 1 11.456.002"/>
        <path fill="#00C97A" d="M63.517 218.564H25.92a7.05 7.05 0 0 1 1.55-2.306 7.183 7.183 0 0 1 2.306-1.56 7.109 7.109 0 0 1 2.822-.572h.023c.087-1.406.416-2.745.944-3.997a11.93 11.93 0 0 1 2.602-3.867 12.517 12.517 0 0 1 3.89-2.624 12.345 12.345 0 0 1 4.744-.957c1.67 0 3.285.352 4.734.957 1.46.626 2.78 1.515 3.887 2.624 1.1 1.098 2 2.406 2.605 3.867.197.471.373.965.515 1.471h.01a6.965 6.965 0 0 1 6.965 6.964"/>
        <g transform="translate(1 218.31)">
            <mask id="b" fill="#fff">
                <use xlink:href="#a"/>
            </mask>
            <path fill="#00C97A" d="M345.937.75H.001" mask="url(#b)"/>
            <path stroke="#075600" d="M345.937.75H.001"/>
        </g>
        <path fill="#00C97A" d="M246.725 24.81v39.64h-56.22l-11.11 11.11V24.81z"/>
    </g>
</svg>
