<svg xmlns="http://www.w3.org/2000/svg" xmlns:xlink="http://www.w3.org/1999/xlink" width="350" height="221" viewBox="0 0 350 221">
    <defs>
        <path id="a" d="M0 185.328h346.94V0H0z"/>
    </defs>
    <g fill="none" fill-rule="evenodd">
        <path fill="#FFF" fill-rule="nonzero" d="M0 0h350v221H0z"/>
        <g transform="translate(1 35.096)">
            <path stroke="#5C3778" d="M145.114 83.204V48.556L97.352.795h116.846l-47.762 47.761v34.648"/>
            <path fill="#B28BBF" d="M.383 89.205v44.493c0 10.53 8.538 19.068 19.069 19.068 10.53 0 19.068-8.538 19.068-19.068V89.205c0-10.53-8.537-19.069-19.068-19.069-10.53 0-19.069 8.538-19.069 19.069"/>
            <path stroke="#5C3778" d="M19.452 185.129v-73.677"/>
            <path fill="#5C3778" d="M287.42 132.13v31.78l27.503-15.89z"/>
            <mask id="b" fill="#fff">
                <use xlink:href="#a"/>
            </mask>
            <path fill="#5C3778" d="M228.537 151.21h75.099v-6.356h-75.099zM263.822 125.773v-31.78l27.503 15.89z" mask="url(#b)"/>
            <path fill="#5C3778" d="M228.537 113.073h51.5v-6.356h-51.5z" mask="url(#b)"/>
            <path fill="#B28BBF" d="M303.635 113.061v31.78l27.503-15.89z" mask="url(#b)"/>
            <path fill="#B28BBF" d="M228.537 132.141h91.313v-6.356h-91.313z" mask="url(#b)"/>
            <path stroke="#5C3778" d="M332.64 163.622v21.507"/>
            <path fill="#5C3778" d="M332.64 185.129c0-5.266-4.27-9.534-9.535-9.534M332.64 185.129a9.534 9.534 0 0 1 9.534-9.534" mask="url(#b)"/>
            <path fill="#B28BBF" d="M327.873 162.906a4.767 4.767 0 1 1 9.533-.001 4.767 4.767 0 0 1-9.533 0M26.906 185.129H7.837c0-5.26 4.26-9.534 9.535-9.534 1 0 1.97.159 2.876.445 3.845 1.207 6.658 4.83 6.658 9.089M54.173 185.129H41.461a6.354 6.354 0 0 1 6.356-6.356h.064a6.351 6.351 0 0 1 6.292 6.356" mask="url(#b)"/>
            <path fill="#B28BBF" d="M49.153 185.129H17.372c0-3.385 1.064-6.515 2.876-9.09a15.775 15.775 0 0 1 13.014-6.8c6.515 0 12.109 3.925 14.556 9.534a15.701 15.701 0 0 1 1.335 6.356M236.8 83.204H74.485a6.155 6.155 0 0 0-6.155 6.156v95.77h174.622V89.36c0-3.4-2.755-6.156-6.154-6.156" mask="url(#b)"/>
            <path fill="#5C3778" d="M132.936 83.204H74.089c-3.186 0-5.757 2.95-5.757 6.583V72.233c0-3.63 2.58-6.582 5.757-6.582h41.116c1.535 0 2.994.69 4.078 1.93l13.653 15.623zM123.223 118.276h64.84c8.763 0 15.89 7.125 15.89 15.89 0 8.766-7.127 15.89-15.89 15.89h-64.84" mask="url(#b)"/>
            <path fill="#F9F8D3" d="M139.113 134.166c0-8.776-7.114-15.89-15.89-15.89s-15.89 7.114-15.89 15.89c0 8.777 7.114 15.89 15.89 15.89s15.89-7.113 15.89-15.89" mask="url(#b)"/>
            <path stroke="#5C3778" d="M346.941 184.534H.001"/>
        </g>
    </g>
</svg>
