<?xml version="1.0" standalone="no"?>
<!DOCTYPE svg PUBLIC "-//W3C//DTD SVG 1.1//EN" "http://www.w3.org/Graphics/SVG/1.1/DTD/svg11.dtd" >
<svg xmlns="http://www.w3.org/2000/svg" xmlns:xlink="http://www.w3.org/1999/xlink" version="1.1">
<metadata>
Created by FontForge 20170731 at Thu Jun  7 09:21:54 2018
 By Aleksey,,,
Copyright (c) 2018 Swiss Typefaces Sarl. All rights reserved.
</metadata>
<defs>
<font id="EuclidCircularA-SemiboldItalic" horiz-adv-x="0" >
  <font-face 
    font-family="Euclid Circular A Semibold Ita"
    font-weight="600"
    font-style="italic"
    font-stretch="normal"
    units-per-em="1000"
    panose-1="2 11 7 4 0 0 0 0 0 0"
    ascent="800"
    descent="-200"
    x-height="500"
    cap-height="710"
    bbox="-276 -322 1436 1000"
    underline-thickness="100"
    underline-position="-334"
    slope="-12"
    unicode-range="U+0020-FEFF"
  />
<missing-glyph horiz-adv-x="642" 
d="M71 0l151 710h500l-151 -710h-500zM683 691h-432l147 -321zM385 355l-150 327l-139 -654zM406 355l152 -327l139 654zM395 339l-285 -320h432z" />
    <glyph glyph-name="uni0407_uni0407" unicode="&#x407;&#x407;" horiz-adv-x="607" 
d="M158 772q-32 0 -54.5 22t-22.5 53q0 32 22.5 54t54.5 22q31 0 53 -22.5t22 -53.5t-22 -53t-53 -22zM428 772q-32 0 -54.5 22t-22.5 53q0 32 22.5 54t54.5 22q31 0 53 -22.5t22 -53.5t-22 -53t-53 -22zM697 772q-32 0 -54.5 22t-22.5 53q0 32 22.5 54t54.5 22
q31 0 53 -22.5t22 -53.5t-22 -53t-53 -22zM23 0l151 710h145l-151 -710h-145zM326 0l151 710h145l-151 -710h-145z" />
    <glyph glyph-name="uni0457_uni0457" unicode="&#x457;&#x457;" horiz-adv-x="539" 
d="M129 577q-31 0 -53.5 22t-22.5 53q0 32 22.5 54t53.5 22t53 -22.5t22 -53.5t-22 -53t-53 -22zM353 577q-30 0 -52.5 22t-22.5 53t22.5 53.5t52.5 22.5q31 0 53.5 -22t22.5 -54q0 -31 -22.5 -53t-53.5 -22zM581 577q-31 0 -53.5 22t-22.5 53q0 32 22.5 54t53.5 22
t53 -22.5t22 -53.5t-22 -53t-53 -22zM13 0l106 500h137l-106 -500h-137zM282 0l106 500h137l-106 -500h-137z" />
    <glyph glyph-name="uni0457_uni0458" unicode="&#x457;&#x458;" horiz-adv-x="539" 
d="M129 577q-31 0 -53.5 22t-22.5 53q0 32 22.5 54t53.5 22t53 -22.5t22 -53.5t-22 -53t-53 -22zM353 577q-30 0 -52.5 22t-22.5 53t22.5 53.5t52.5 22.5q31 0 53.5 -22t22.5 -54q0 -31 -22.5 -53t-53.5 -22zM581 577q-31 0 -53.5 22t-22.5 53q0 32 22.5 54t53.5 22
t53 -22.5t22 -53.5t-22 -53t-53 -22zM150 0h-137l106 500h137zM190 -219q-40 0 -59 5l25 117q10 -3 28 -3q39 0 61.5 19.5t32.5 63.5l110 517h137l-115 -540q-20 -95 -73.5 -137t-146.5 -42z" />
    <glyph glyph-name="f_f" unicode="ff" horiz-adv-x="786" 
d="M66 0l80 380h-101l25 120h102l13 64q19 92 79.5 142t152.5 50q48 0 85 -11l-26 -121q-25 9 -54 9q-45 0 -69 -20.5t-34 -65.5l-10 -47h110l-26 -120h-110l-80 -380h-137zM443 0l80 380h-81l26 120h81l14 64q20 93 79.5 142.5t151.5 49.5q48 0 85 -11l-26 -121
q-25 9 -53 9q-45 0 -69.5 -20.5t-34.5 -65.5l-10 -47h141l-26 -120h-141l-80 -380h-137z" />
    <glyph glyph-name="f_i" unicode="fi" horiz-adv-x="679" 
d="M66 0l80 380h-101l25 120h102l13 64q19 92 79.5 142t152.5 50q48 0 85 -11l-26 -121q-25 9 -54 9q-45 0 -69 -20.5t-34 -65.5l-10 -47h141l-26 -120h-141l-80 -380h-137zM634 582q-36 0 -62 25.5t-26 61.5t26 61.5t62 25.5t61.5 -25.5t25.5 -61.5t-25.5 -61.5
t-61.5 -25.5zM422 0l106 500h137l-106 -500h-137z" />
    <glyph glyph-name="f_f_i" unicode="ffi" horiz-adv-x="1056" 
d="M1011 582q-36 0 -62 25.5t-26 61.5t26 61.5t62 25.5t61.5 -25.5t25.5 -61.5t-25.5 -61.5t-61.5 -25.5zM66 0l80 380h-101l25 120h102l13 64q19 92 79.5 142t152.5 50q48 0 85 -11l-26 -121q-25 9 -54 9q-45 0 -69 -20.5t-34 -65.5l-10 -47h110l-26 -120h-110l-80 -380
h-137zM443 0l80 380h-81l26 120h81l14 64q20 93 79.5 142.5t151.5 49.5q48 0 85 -11l-26 -121q-25 9 -53 9q-45 0 -69.5 -20.5t-34.5 -65.5l-10 -47h141l-26 -120h-141l-80 -380h-137zM799 0l106 500h137l-106 -500h-137z" />
    <glyph glyph-name="f_l" unicode="fl" horiz-adv-x="679" 
d="M66 0l80 380h-101l25 120h102l13 64q19 92 79.5 142t152.5 50q48 0 85 -11l-26 -121q-25 9 -54 9q-45 0 -69 -20.5t-34 -65.5l-10 -47h141l-26 -120h-141l-80 -380h-137zM422 0l159 750h137l-159 -750h-137z" />
    <glyph glyph-name="f_f_l" unicode="ffl" horiz-adv-x="1056" 
d="M66 0l80 380h-101l25 120h102l13 64q19 92 79.5 142t152.5 50q48 0 85 -11l-26 -121q-25 9 -54 9q-45 0 -69 -20.5t-34 -65.5l-10 -47h110l-26 -120h-110l-80 -380h-137zM443 0l80 380h-81l26 120h81l14 64q20 93 79.5 142.5t151.5 49.5q48 0 85 -11l-26 -121
q-25 9 -53 9q-45 0 -69.5 -20.5t-34.5 -65.5l-10 -47h141l-26 -120h-141l-80 -380h-137zM799 0l159 750h137l-159 -750h-137z" />
    <glyph glyph-name="f_t" unicode="ft" horiz-adv-x="811" 
d="M66 0l80 380h-101l25 120h102l13 64q19 92 79.5 142t152.5 50q48 0 85 -11l-26 -121q-25 9 -54 9q-45 0 -69 -20.5t-34 -65.5l-10 -47h119l-25 -120h-120l-80 -380h-137zM652 -5q-88 2 -133 60t-24 157l36 168h-79l25 120h80l29 139h137l-29 -139h141l-26 -120h-141
l-38 -177q-18 -85 69 -85q29 0 56 8l-26 -122q-41 -10 -77 -9z" />
    <glyph glyph-name="t_t" unicode="tt" horiz-adv-x="797" 
d="M263 -5q-88 2 -132.5 60t-24.5 157l35 168h-101l26 120h101l29 139h137l-29 -139h110l-26 -120h-110l-37 -177q-18 -85 69 -85q29 0 55 8l-26 -122q-40 -10 -76 -9zM639 -5q-88 2 -132.5 60t-24.5 157l35 168h-80l26 120h80l29 139h137l-29 -139h141l-26 -120h-141
l-37 -177q-18 -85 69 -85q28 0 55 8l-26 -122q-40 -10 -76 -9z" />
    <glyph glyph-name=".notdef" horiz-adv-x="642" 
d="M71 0l151 710h500l-151 -710h-500zM683 691h-432l147 -321zM385 355l-150 327l-139 -654zM406 355l152 -327l139 654zM395 339l-285 -320h432z" />
    <glyph glyph-name=".null" 
 />
    <glyph glyph-name="nonmarkingreturn" horiz-adv-x="333" 
 />
    <glyph glyph-name="space" unicode=" " horiz-adv-x="228" 
 />
    <glyph glyph-name="exclam" unicode="!" horiz-adv-x="288" 
d="M101 254l13 188l57 268h138l-57 -268l-67 -188h-84zM107 -8q-41 0 -70.5 29.5t-29.5 70.5t29.5 70.5t70.5 29.5t70.5 -29.5t29.5 -70.5t-29.5 -70.5t-70.5 -29.5z" />
    <glyph glyph-name="quotedbl" unicode="&#x22;" horiz-adv-x="431" 
d="M90 423l61 287h116l-61 -287h-116zM292 423l61 287h116l-61 -287h-116z" />
    <glyph glyph-name="numbersign" unicode="#" horiz-adv-x="700" 
d="M331 0l58 185h-143l-58 -185h-116l57 185h-90v105h124l40 131h-91v105h124l57 184h118l-58 -184h142l57 184h118l-58 -184h90v-105h-123l-40 -131h91v-105h-125l-58 -185h-116zM320 421l-40 -131h142l40 131h-142z" />
    <glyph glyph-name="dollar" unicode="$" horiz-adv-x="542" 
d="M172 -88l18 84q-78 19 -123.5 77t-39.5 135h137q2 -59 54 -80l37 174l-15 8q-67 36 -103.5 81.5t-36.5 119.5q0 92 58.5 151.5t171.5 59.5h14l16 76h54l-18 -85q71 -19 111.5 -73.5t35.5 -118.5h-138q-2 45 -37 61l-34 -161l33 -17q122 -62 122 -197q0 -99 -62 -158.5
t-173 -59.5h-12l-16 -77h-54zM237 521q0 -26 11 -42t38 -32l30 145q-34 -2 -56.5 -22t-22.5 -49zM352 196q0 46 -49 79l-33 -156q37 2 59.5 23.5t22.5 53.5z" />
    <glyph glyph-name="percent" unicode="%" horiz-adv-x="1064" 
d="M285 324q-82 0 -139.5 58t-57.5 139q0 82 57.5 139.5t139.5 57.5q81 0 139 -57.5t58 -139.5q0 -81 -58 -139t-139 -58zM174 0l600 710h155l-599 -710h-156zM285 440q33 0 56 24t23 57t-23 57t-56 24q-34 0 -57.5 -24t-23.5 -57t23.5 -57t57.5 -24zM820 -8
q-82 0 -139.5 58t-57.5 139q0 82 57.5 139.5t139.5 57.5q81 0 139 -57.5t58 -139.5q0 -81 -58 -139t-139 -58zM820 108q33 0 56 24t23 57t-23 57t-56 24q-34 0 -57.5 -24t-23.5 -57t23.5 -57t57.5 -24z" />
    <glyph glyph-name="ampersand" unicode="&#x26;" horiz-adv-x="759" 
d="M263 -11q-91 0 -150.5 51.5t-60.5 139.5q0 75 41 122t124 94q-55 70 -55 138q0 83 61 135.5t157 52.5q84 0 134 -48t50 -116q0 -62 -37 -104.5t-120 -87.5l90 -110l90 87h177l-190 -181l133 -162h-163l-63 77q-59 -48 -107.5 -68t-110.5 -20zM292 536q0 -15 6 -29.5
t12 -23t21 -26.5l12 6q49 25 68 42.5t19 44.5q0 24 -16 40t-45 16q-33 0 -55 -20t-22 -50zM186 187q0 -35 24.5 -56t61.5 -21q61 0 132 60l-110 134q-56 -31 -82 -57t-26 -60z" />
    <glyph glyph-name="quotesingle" unicode="'" horiz-adv-x="229" 
d="M90 423l61 287h116l-61 -287h-116z" />
    <glyph glyph-name="parenleft" unicode="(" horiz-adv-x="309" 
d="M129 -156q-80 211 -77 408q1 152 57 295.5t165 260.5h125q-233 -257 -233 -541q0 -218 68 -423h-105z" />
    <glyph glyph-name="parenright" unicode=")" horiz-adv-x="310" 
d="M208 809q80 -211 77 -408q-1 -152 -57 -295.5t-165 -260.5h-125q233 257 233 541q0 218 -68 423h105z" />
    <glyph glyph-name="asterisk" unicode="*" horiz-adv-x="500" 
d="M215 303l-77 55l86 117l-138 45l29 91l140 -45v144h94v-144l138 45l30 -90l-139 -46l87 -117l-77 -55l-85 116z" />
    <glyph glyph-name="plus" unicode="+" horiz-adv-x="505" 
d="M48 230v119h151v151h119v-151h151v-119h-151v-151h-119v151h-151z" />
    <glyph glyph-name="comma" unicode="," horiz-adv-x="280" 
d="M183 21l-144 -173h-81l102 158q-48 32 -48 86q0 41 29.5 70.5t70.5 29.5q42 0 71 -29.5t29 -70.5q0 -37 -29 -71z" />
    <glyph glyph-name="hyphen" unicode="-" horiz-adv-x="401" 
d="M47 214l29 132h285l-28 -132h-286z" />
    <glyph glyph-name="period" unicode="." horiz-adv-x="278" 
d="M111 -8q-41 0 -70.5 29.5t-29.5 70.5t29.5 70.5t70.5 29.5t70.5 -29.5t29.5 -70.5t-29.5 -70.5t-70.5 -29.5z" />
    <glyph glyph-name="slash" unicode="/" horiz-adv-x="399" 
d="M-47 -110l386 820h124l-386 -820h-124z" />
    <glyph glyph-name="zero" unicode="0" horiz-adv-x="628" 
d="M286 -11q-127 0 -191 85t-37 217l35 169q26 124 99 193t191 69q127 0 191 -85t37 -217l-35 -169q-26 -124 -99 -193t-191 -69zM295 124q118 0 147 137l38 181q14 66 -17 105.5t-88 39.5q-118 0 -147 -137l-39 -180q-15 -67 16.5 -106.5t89.5 -39.5z" />
    <glyph glyph-name="one" unicode="1" horiz-adv-x="373" 
d="M102 0l122 575h-151l129 135h188l-151 -710h-137z" />
    <glyph glyph-name="two" unicode="2" horiz-adv-x="579" 
d="M-8 0l15 72q9 44 30.5 82.5t42 62.5t60.5 51.5t61.5 39.5t69.5 37q15 8 23 12q75 40 110 72.5t35 79.5q0 35 -24 56.5t-64 21.5q-45 0 -77.5 -27t-38.5 -73h-137q12 111 86 173t180 62q88 0 151.5 -54.5t63.5 -145.5q0 -98 -47.5 -157t-158.5 -117q-5 -3 -27 -14
t-32.5 -16.5t-29.5 -17t-30 -20.5t-22 -21t-16 -24h287l-29 -135h-482z" />
    <glyph glyph-name="three" unicode="3" horiz-adv-x="591" 
d="M289 -11q-102 0 -178 63.5t-68 177.5h132q-1 -51 33.5 -78.5t83.5 -27.5q51 0 82.5 28t31.5 72q0 36 -28 60t-72 24h-67l24 112h52q56 0 86.5 25.5t29.5 69.5q0 33 -25 52.5t-63 19.5q-44 0 -79.5 -27.5t-42.5 -72.5h-137q10 113 88.5 174t179.5 61q94 0 155 -53.5
t61 -135.5q0 -128 -112 -181q37 -20 59.5 -57.5t22.5 -81.5q0 -93 -65.5 -158.5t-183.5 -65.5z" />
    <glyph glyph-name="four" unicode="4" horiz-adv-x="635" 
d="M316 0l34 162h-353l23 111l461 437h123l-90 -422h92l-26 -126h-93l-34 -162h-137zM377 288l43 207l-217 -207h174z" />
    <glyph glyph-name="five" unicode="5" horiz-adv-x="583" 
d="M276 -11q-96 0 -172 57.5t-87 159.5h141q31 -82 123 -82q50 0 84.5 33t34.5 83q0 44 -26 74t-77 30q-80 0 -119 -74l-122 41l164 399h365l-29 -133h-248l-52 -125q42 16 87 16q86 0 140 -63t54 -153q0 -116 -66 -189.5t-195 -73.5z" />
    <glyph glyph-name="six" unicode="6" horiz-adv-x="579" 
d="M279 -11q-111 0 -179 64.5t-68 151.5q0 75 27.5 130t97.5 127l240 248h181l-239 -249q83 -5 140.5 -65.5t57.5 -151.5q0 -109 -71 -182t-187 -73zM279 121q51 0 84 33.5t33 84.5q0 44 -30.5 74.5t-76.5 30.5q-51 0 -84 -34t-33 -85q0 -44 31 -74t76 -30z" />
    <glyph glyph-name="seven" unicode="7" horiz-adv-x="543" 
d="M-12 0l435 577h-322l28 133h495l-25 -119l-445 -591h-166z" />
    <glyph glyph-name="eight" unicode="8" horiz-adv-x="592" 
d="M540 231q0 -119 -75.5 -180.5t-187.5 -61.5q-113 0 -177.5 63.5t-64.5 146.5q0 66 32.5 121.5t99.5 84.5q-44 44 -44 114q0 93 66 148t171 55q92 0 149 -52.5t59 -125.5q1 -50 -24 -93.5t-70 -73.5q66 -55 66 -146zM256 509q0 -33 22 -54t62 -21q43 1 69.5 26t26.5 66
q0 33 -21.5 53.5t-62.5 20.5q-43 -1 -69.5 -25.5t-26.5 -65.5zM175 213q0 -41 27.5 -69.5t79.5 -27.5q52 0 84.5 32.5t32.5 81.5q0 40 -27.5 69.5t-79.5 28.5q-53 -1 -85 -34t-32 -81z" />
    <glyph glyph-name="nine" unicode="9" horiz-adv-x="580" 
d="M41 0l241 250q-83 5 -140.5 65.5t-57.5 152.5q0 108 71 181t187 73q111 0 179 -64.5t68 -151.5q0 -75 -27.5 -129.5t-97.5 -127.5l-241 -249h-182zM332 367q51 0 84 34t33 85q0 44 -31 74t-77 30q-51 0 -83.5 -33.5t-32.5 -84.5q0 -44 31 -74.5t76 -30.5z" />
    <glyph glyph-name="colon" unicode=":" horiz-adv-x="302" 
d="M183 311q-41 0 -70.5 29.5t-29.5 70.5t29.5 70.5t70.5 29.5t70.5 -29.5t29.5 -70.5t-29.5 -70.5t-70.5 -29.5zM115 -8q-41 0 -70.5 29.5t-29.5 70.5t29.5 70.5t70.5 29.5t70.5 -29.5t29.5 -70.5t-29.5 -70.5t-70.5 -29.5z" />
    <glyph glyph-name="semicolon" unicode=";" horiz-adv-x="304" 
d="M184 311q-41 0 -70.5 29.5t-29.5 70.5t29.5 70.5t70.5 29.5t70.5 -29.5t29.5 -70.5t-29.5 -70.5t-70.5 -29.5zM187 21l-144 -173h-81l102 158q-48 32 -48 86q0 41 29.5 70.5t70.5 29.5q42 0 71 -29.5t29 -70.5q0 -37 -29 -71z" />
    <glyph glyph-name="less" unicode="&#x3c;" horiz-adv-x="532" 
d="M463 543l-253 -253l253 -253h-171l-253 253l253 253h171z" />
    <glyph glyph-name="equal" unicode="=" horiz-adv-x="582" 
d="M84 335v119h420v-119h-420zM84 125v118h420v-118h-420z" />
    <glyph glyph-name="greater" unicode="&#x3e;" horiz-adv-x="537" 
d="M506 290l-253 -253h-171l253 253l-253 253h171z" />
    <glyph glyph-name="question" unicode="?" horiz-adv-x="536" 
d="M179 257q20 90 131 156q54 32 78.5 56.5t24.5 54.5q0 28 -22 45.5t-58 17.5q-42 0 -73.5 -23.5t-40.5 -66.5h-137q13 112 88 168.5t173 56.5q91 0 149 -51.5t58 -134.5q0 -39 -13.5 -72.5t-38.5 -59.5t-45 -42t-49 -34q-22 -13 -33 -20.5t-26.5 -22t-22.5 -28.5h-143z
M214 -8q-41 0 -70.5 29.5t-29.5 70.5t29.5 70.5t70.5 29.5t70.5 -29.5t29.5 -70.5t-29.5 -70.5t-70.5 -29.5z" />
    <glyph glyph-name="at" unicode="@" horiz-adv-x="807" 
d="M413 -11q-158 0 -253.5 99.5t-95.5 248.5q0 167 114.5 276t273.5 109q149 0 246 -87t97 -229q0 -124 -52 -186.5t-132 -62.5q-35 0 -63.5 14.5t-42.5 36.5q-47 -49 -124 -49q-71 0 -113.5 49.5t-42.5 122.5q0 91 58 155t142 64q38 0 66 -17t39 -42l10 49h99l-47 -220
q-16 -79 36 -79q86 0 86 167q0 111 -75.5 173.5t-187.5 62.5q-125 0 -214 -83.5t-89 -223.5q0 -121 72 -195.5t193 -74.5q106 0 178 36v-85q-83 -29 -178 -29zM402 251q40 0 67 25.5t35 66.5q10 49 -10 82.5t-60 33.5t-67.5 -25.5t-35.5 -67.5q-10 -48 10.5 -81.5
t60.5 -33.5z" />
    <glyph glyph-name="A" unicode="A" horiz-adv-x="745" 
d="M-56 0l457 710h130l155 -710h-140l-34 162h-301l-103 -162h-164zM292 289h193l-48 227z" />
    <glyph glyph-name="B" unicode="B" horiz-adv-x="633" 
d="M22 0l151 710h211q98 0 155.5 -53t57.5 -126q0 -106 -88 -165q76 -45 76 -139q0 -100 -73 -163.5t-208 -63.5h-282zM255 419h87q52 0 81.5 25.5t29.5 64.5q0 29 -21 48.5t-58 19.5h-85zM194 134h124q58 0 90.5 25.5t32.5 64.5q0 31 -21.5 51.5t-59.5 20.5h-131z" />
    <glyph glyph-name="C" unicode="C" horiz-adv-x="795" 
d="M399 -12q-156 0 -248.5 95t-92.5 239q0 168 109.5 284t293.5 116q132 0 220.5 -70.5t112.5 -183.5h-157q-22 53 -70 83.5t-117 30.5q-104 0 -174.5 -71.5t-70.5 -175.5q0 -93 53.5 -150t152.5 -57q65 0 119 30.5t86 83.5h157q-42 -115 -138 -184.5t-236 -69.5z" />
    <glyph glyph-name="D" unicode="D" horiz-adv-x="725" 
d="M22 0l151 710h199q145 0 238 -89.5t93 -215.5q0 -195 -117.5 -300t-310.5 -105h-253zM196 133h92q112 0 189.5 70t77.5 182q0 86 -53.5 139t-146.5 53h-65z" />
    <glyph glyph-name="E" unicode="E" horiz-adv-x="568" 
d="M22 0l151 710h442l-29 -138h-297l-32 -146h238l-30 -138h-237l-32 -150h297l-29 -138h-442z" />
    <glyph glyph-name="F" unicode="F" horiz-adv-x="541" 
d="M22 0l151 710h432l-29 -138h-287l-32 -147h224l-29 -138h-224l-61 -287h-145z" />
    <glyph glyph-name="G" unicode="G" horiz-adv-x="819" 
d="M410 -12q-159 0 -255 96t-96 241q0 108 45.5 197t138 144.5t217.5 55.5q122 0 206.5 -60.5t118.5 -161.5h-164q-57 82 -170 82q-107 0 -176 -70t-69 -174q0 -95 56.5 -152.5t156.5 -57.5q167 0 216 161h-233l29 136h360q2 -24 2 -37q0 -180 -96 -290t-287 -110z" />
    <glyph glyph-name="H" unicode="H" horiz-adv-x="756" 
d="M22 0l151 710h145l-61 -283h309l60 283h145l-151 -710h-145l62 289h-309l-61 -289h-145z" />
    <glyph glyph-name="I" unicode="I" horiz-adv-x="303" 
d="M22 0l151 710h145l-151 -710h-145z" />
    <glyph glyph-name="J" unicode="J" horiz-adv-x="536" 
d="M302 202l108 508h144l-113 -533q-40 -189 -224 -189q-42 0 -82 12.5t-74 37.5t-52.5 68t-14.5 98h143q-2 -39 22.5 -60t56.5 -21q69 0 86 79z" />
    <glyph glyph-name="K" unicode="K" horiz-adv-x="690" 
d="M22 0l151 710h144l-65 -304l317 304h183l-369 -355l279 -355h-172l-255 325l-69 -325h-144z" />
    <glyph glyph-name="L" unicode="L" horiz-adv-x="543" 
d="M22 0l151 710h145l-122 -572h304l-29 -138h-449z" />
    <glyph glyph-name="M" unicode="M" horiz-adv-x="884" 
d="M22 0l151 710h132l154 -321l307 321h132l-151 -710h-145l95 447l-278 -289l-152 316l-100 -474h-145z" />
    <glyph glyph-name="N" unicode="N" horiz-adv-x="793" 
d="M656 0h-125l-262 479l-102 -479h-145l151 710h125l261 -479l103 479h145z" />
    <glyph glyph-name="O" unicode="O" horiz-adv-x="824" 
d="M399 -12q-156 0 -248 95t-92 239q0 169 109.5 284.5t293.5 115.5q156 0 248 -95t92 -239q0 -168 -109.5 -284t-293.5 -116zM411 128q103 0 174 71.5t71 175.5q0 93 -53.5 150t-152.5 57q-104 0 -174.5 -71.5t-70.5 -175.5q0 -94 53.5 -150.5t152.5 -56.5z" />
    <glyph glyph-name="P" unicode="P" horiz-adv-x="597" 
d="M22 0l151 710h201q105 0 172 -62.5t67 -150.5q0 -115 -75.5 -190t-224.5 -75h-97l-49 -232h-145zM244 367h93q56 0 93.5 33.5t37.5 82.5q0 39 -24.5 65t-76.5 26h-78z" />
    <glyph glyph-name="Q" unicode="Q" horiz-adv-x="856" 
d="M399 -13q-156 0 -248 95t-92 239q0 169 109.5 284.5t293.5 115.5q156 0 248 -95t92 -239q0 -146 -83 -254l135 -133h-185l-47 46q-97 -59 -223 -59zM411 127q57 0 105 23l-95 94l91 92l103 -101q41 61 41 139q0 93 -53.5 150t-152.5 57q-104 0 -174.5 -71.5t-70.5 -175.5
q0 -94 53.5 -150.5t152.5 -56.5z" />
    <glyph glyph-name="R" unicode="R" horiz-adv-x="652" 
d="M22 0l151 710h236q100 0 157.5 -52.5t57.5 -128.5q0 -85 -47.5 -146t-149.5 -79l194 -304h-161l-191 299h-39l-63 -299h-145zM257 423h114q48 0 76.5 23.5t29.5 61.5q0 30 -21 49.5t-60 19.5h-107z" />
    <glyph glyph-name="S" unicode="S" horiz-adv-x="584" 
d="M286 -12q-130 0 -199.5 70.5t-68.5 161.5h145q5 -44 40.5 -71t86.5 -27q41 0 67.5 21.5t26.5 52.5q0 32 -21.5 53t-72.5 43l-37 16q-150 66 -150 202q0 91 68.5 151.5t174.5 60.5q111 0 174.5 -65.5t65.5 -150.5h-144q-6 39 -35.5 60.5t-68.5 21.5t-64 -19.5t-25 -49.5
q0 -29 19 -47.5t58 -34.5l51 -21q154 -64 154 -214q0 -95 -66.5 -154.5t-178.5 -59.5z" />
    <glyph glyph-name="T" unicode="T" horiz-adv-x="560" 
d="M149 0l122 572h-190l29 138h526l-29 -138h-191l-122 -572h-145z" />
    <glyph glyph-name="U" unicode="U" horiz-adv-x="719" 
d="M650 285q-34 -156 -109.5 -226.5t-217.5 -70.5q-129 0 -202 88.5t-45 221.5l87 412h145l-89 -421q-17 -80 16.5 -120.5t101.5 -40.5q134 0 166 152l91 430h147z" />
    <glyph glyph-name="V" unicode="V" horiz-adv-x="721" 
d="M239 0l-143 710h144l97 -501l308 501h167l-444 -710h-129z" />
    <glyph glyph-name="W" unicode="W" horiz-adv-x="965" 
d="M580 0l-70 371l-241 -371h-137l-19 710h151l8 -464l305 476l95 -482l207 470h160l-322 -710h-137z" />
    <glyph glyph-name="X" unicode="X" horiz-adv-x="692" 
d="M486 0l-135 250l-240 -250h-174l346 367l-184 343h156l129 -239l222 239h173l-331 -361l194 -349h-156z" />
    <glyph glyph-name="Y" unicode="Y" horiz-adv-x="690" 
d="M215 0l63 299l-174 411h151l112 -276l230 276h177l-350 -412l-63 -298h-146z" />
    <glyph glyph-name="Z" unicode="Z" horiz-adv-x="614" 
d="M-20 0l21 99l427 473h-320l29 138h528l-21 -99l-426 -473h332l-29 -138h-541z" />
    <glyph glyph-name="bracketleft" unicode="[" horiz-adv-x="325" 
d="M-13 -160l204 960h221l-21 -100h-105l-162 -760h105l-21 -100h-221z" />
    <glyph glyph-name="backslash" unicode="\" horiz-adv-x="711" 
d="M620 -110h-124l-386 820h124z" />
    <glyph glyph-name="bracketright" unicode="]" horiz-adv-x="325" 
d="M364 800l-204 -960h-221l21 100h105l162 760h-105l21 100h221z" />
    <glyph glyph-name="asciicircum" unicode="^" horiz-adv-x="354" 
d="M100 500l107 210h52l106 -210h-80l-52 103l-53 -103h-80z" />
    <glyph glyph-name="underscore" unicode="_" horiz-adv-x="512" 
d="M-35 -105l22 105h432l-22 -105h-432z" />
    <glyph glyph-name="grave" unicode="`" 
d="M216 560h-89l-69 190h146z" />
    <glyph glyph-name="a" unicode="a" horiz-adv-x="620" 
d="M231 -8q-86 0 -141 63.5t-55 158.5q0 128 75 212.5t188 84.5q57 0 100 -25.5t58 -54.5l14 69h137l-106 -500h-137l9 44q-50 -52 -142 -52zM280 110q61 0 102 46t41 114q0 54 -28.5 85t-79.5 31q-61 0 -102 -45.5t-41 -113.5q0 -55 28.5 -86t79.5 -31z" />
    <glyph glyph-name="b" unicode="b" horiz-adv-x="619" 
d="M323 -11q-58 0 -100.5 25.5t-57.5 54.5l-15 -69h-137l159 750h137l-62 -294q50 52 142 52q86 0 141 -63.5t55 -158.5q0 -128 -74.5 -212.5t-187.5 -84.5zM305 114q61 0 102 45.5t41 113.5q0 55 -28.5 86t-79.5 31q-61 0 -102 -46t-41 -114q0 -54 28.5 -85t79.5 -31z" />
    <glyph glyph-name="c" unicode="c" horiz-adv-x="585" 
d="M276 -11q-113 0 -177 70t-64 168q0 121 79.5 202.5t205.5 81.5q102 0 164 -57.5t74 -144.5h-142q-12 35 -39.5 56t-67.5 21q-58 0 -96.5 -43t-38.5 -104q0 -57 30.5 -92t82.5 -35q38 0 70 22t49 57h143q-24 -92 -94 -147t-179 -55z" />
    <glyph glyph-name="d" unicode="d" horiz-adv-x="620" 
d="M231 -11q-86 0 -141 63.5t-55 158.5q0 129 75 213t188 84q57 0 100 -25t58 -55l67 322h137l-158 -750h-138l9 42q-51 -53 -142 -53zM280 108q61 0 102 45.5t41 113.5q0 55 -28.5 86t-79.5 31q-61 0 -102 -45.5t-41 -113.5q0 -55 28.5 -86t79.5 -31z" />
    <glyph glyph-name="e" unicode="e" horiz-adv-x="592" 
d="M275 -11q-108 0 -174 69.5t-66 168.5q0 124 77.5 204t206.5 80q117 0 187 -81.5t46 -211.5h-388q4 -49 37.5 -79.5t81.5 -30.5q78 0 112 55h145q-72 -174 -265 -174zM305 400q-44 0 -81.5 -24t-51.5 -68h244q-6 45 -37 68.5t-74 23.5z" />
    <glyph glyph-name="f" unicode="f" horiz-adv-x="409" 
d="M66 0l80 380h-101l25 120h102l13 64q19 92 79.5 142t152.5 50q48 0 85 -11l-26 -121q-25 9 -54 9q-45 0 -69 -20.5t-34 -65.5l-10 -47h141l-26 -120h-141l-80 -380h-137z" />
    <glyph glyph-name="g" unicode="g" horiz-adv-x="621" 
d="M233 -219q-97 -1 -163.5 53t-73.5 135h134q8 -36 38.5 -55t69.5 -19q48 0 83.5 32.5t45.5 89.5l7 41q-50 -52 -142 -52q-85 0 -140.5 61t-55.5 153q0 126 75.5 208.5t187.5 82.5q57 0 100 -25.5t58 -54.5l14 69h137l-103 -485q-50 -232 -272 -234zM281 125q60 0 101 43
t42 108q1 51 -28 80.5t-80 29.5q-60 0 -101.5 -43.5t-41.5 -108.5q0 -51 29 -80t79 -29z" />
    <glyph glyph-name="h" unicode="h" horiz-adv-x="598" 
d="M13 0l159 750h137l-64 -302q57 62 148 62q89 0 131 -69.5t22 -161.5l-59 -279h-137l57 269q12 55 -7.5 86.5t-64.5 31.5q-103 0 -132 -138l-53 -249h-137z" />
    <glyph glyph-name="i" unicode="i" horiz-adv-x="270" 
d="M225 582q-36 0 -62 25.5t-26 61.5t26 61.5t62 25.5t61.5 -25.5t25.5 -61.5t-25.5 -61.5t-61.5 -25.5zM13 0l106 500h137l-106 -500h-137z" />
    <glyph glyph-name="j" unicode="j" horiz-adv-x="277" 
d="M231 582q-36 0 -62 25.5t-26 61.5t26 61.5t62 25.5t61.5 -25.5t25.5 -61.5t-25.5 -61.5t-61.5 -25.5zM-72 -219q-40 0 -59 5l25 117q11 -3 28 -3q39 0 61.5 19.5t32.5 63.5l110 517h137l-115 -540q-20 -95 -73.5 -137t-146.5 -42z" />
    <glyph glyph-name="k" unicode="k" horiz-adv-x="554" 
d="M13 0l159 750h137l-92 -432l191 182h175l-249 -238l189 -262h-156l-168 232l-49 -232h-137z" />
    <glyph glyph-name="l" unicode="l" horiz-adv-x="270" 
d="M13 0l159 750h137l-159 -750h-137z" />
    <glyph glyph-name="m" unicode="m" horiz-adv-x="891" 
d="M13 0l106 500h137l-11 -52q50 62 138 62q86 0 127 -76q25 34 68.5 54.5t92.5 20.5q97 0 142 -71t26 -162l-59 -276h-137l57 269q11 55 -4.5 86.5t-54.5 31.5q-92 0 -120 -127l-56 -260h-137l57 269q11 55 -4.5 86.5t-54.5 31.5q-94 0 -123 -138l-53 -249h-137z" />
    <glyph glyph-name="n" unicode="n" horiz-adv-x="598" 
d="M13 0l106 500h137l-11 -52q57 62 148 62q89 0 131 -69.5t22 -161.5l-59 -279h-137l57 269q12 55 -7.5 86.5t-64.5 31.5q-103 0 -132 -138l-53 -249h-137z" />
    <glyph glyph-name="o" unicode="o" horiz-adv-x="596" 
d="M276 -12q-113 0 -177 70t-64 169q0 121 79.5 202.5t205.5 81.5q113 0 176.5 -70t63.5 -169q0 -121 -79 -202.5t-205 -81.5zM287 116q58 0 96.5 41.5t38.5 102.5q0 57 -30.5 90t-83.5 33q-58 0 -96 -41.5t-38 -102.5q0 -56 30 -89.5t83 -33.5z" />
    <glyph glyph-name="p" unicode="p" horiz-adv-x="619" 
d="M-30 -206l149 706h137l-9 -44q50 52 142 52q86 0 141 -63.5t55 -158.5q0 -128 -74.5 -212.5t-187.5 -84.5q-58 0 -100.5 25.5t-57.5 54.5l-58 -275h-137zM305 114q61 0 102 45.5t41 113.5q0 55 -28.5 86t-79.5 31q-61 0 -102 -46t-41 -114q0 -54 28.5 -85t79.5 -31z" />
    <glyph glyph-name="q" unicode="q" horiz-adv-x="621" 
d="M321 -209l52 251q-51 -53 -142 -53q-86 0 -141 63.5t-55 158.5q0 129 75 213t188 84q57 0 100 -25t58 -55l15 72h136l-149 -709h-137zM280 108q61 0 102 45.5t41 113.5q0 55 -28.5 86t-79.5 31q-61 0 -102 -45.5t-41 -113.5q0 -55 28.5 -86t79.5 -31z" />
    <glyph glyph-name="r" unicode="r" horiz-adv-x="395" 
d="M13 0l106 500h137l-16 -73q19 36 58 57.5t84 21.5q26 0 45 -6l-29 -139q-33 11 -59 11q-50 0 -87.5 -36t-50.5 -97l-51 -239h-137z" />
    <glyph glyph-name="s" unicode="s" horiz-adv-x="494" 
d="M233 -11q-99 0 -161 47t-62 123h142q0 -32 26 -48.5t61 -16.5q28 0 45 11.5t17 29.5q0 35 -52 52l-72 24q-111 38 -111 144q0 73 53 114.5t151 41.5q79 0 136 -44t60 -114h-137q-2 27 -22 39t-44 12q-26 0 -41.5 -10.5t-15.5 -29.5q0 -32 44 -47l60 -20q130 -44 130 -150
q0 -74 -56 -116t-151 -42z" />
    <glyph glyph-name="t" unicode="t" horiz-adv-x="421" 
d="M263 -5q-88 2 -132.5 60t-24.5 157l35 168h-101l26 120h101l29 139h137l-29 -139h141l-26 -120h-141l-37 -177q-18 -85 69 -85q29 0 55 8l-26 -122q-40 -10 -76 -9z" />
    <glyph glyph-name="u" unicode="u" horiz-adv-x="587" 
d="M206 -10q-86 0 -129.5 71t-24.5 160l59 279h137l-58 -278q-10 -50 8.5 -78.5t59.5 -28.5q97 0 125 131l54 254h137l-106 -500h-137l11 52q-49 -62 -136 -62z" />
    <glyph glyph-name="v" unicode="v" horiz-adv-x="568" 
d="M168 0l-115 500h135l69 -330l209 330h155l-328 -500h-125z" />
    <glyph glyph-name="w" unicode="w" horiz-adv-x="799" 
d="M117 0l-60 500h138l28 -324l175 324h106l30 -316l160 316h153l-271 -500h-136l-30 283l-157 -283h-136z" />
    <glyph glyph-name="x" unicode="x" horiz-adv-x="558" 
d="M-52 0l248 246l-135 254h146l86 -163l154 163h165l-254 -265l136 -235h-147l-85 148l-148 -148h-166z" />
    <glyph glyph-name="y" unicode="y" horiz-adv-x="568" 
d="M5 -209l158 239l-109 470h136l68 -329l208 329h156l-465 -709h-152z" />
    <glyph glyph-name="z" unicode="z" horiz-adv-x="497" 
d="M-12 0l22 107l284 269h-224l27 124h408l-23 -108l-281 -268h232l-26 -124h-419z" />
    <glyph glyph-name="braceleft" unicode="{" horiz-adv-x="338" 
d="M171 -160q-73 0 -112 44t-23 120l46 217q12 58 -41 58h-10l21 101h10q54 0 66 56l48 224q16 75 52.5 107.5t115.5 32.5h83l-22 -100h-48q-32 0 -47.5 -13.5t-22.5 -47.5l-46 -219q-10 -47 -30 -69t-53 -31q58 -18 39 -106l-46 -215q-12 -59 45 -59h48l-21 -100h-52z" />
    <glyph glyph-name="bar" unicode="|" horiz-adv-x="328" 
d="M115 -110v820h116v-820h-116z" />
    <glyph glyph-name="braceright" unicode="}" horiz-adv-x="338" 
d="M193 801q73 0 112 -44t23 -120l-46 -217q-12 -58 41 -58h10l-21 -101h-10q-54 0 -66 -56l-48 -224q-16 -75 -52.5 -107.5t-115.5 -32.5h-83l22 100h48q32 0 47.5 13.5t22.5 47.5l46 219q10 47 30 69t53 31q-58 18 -39 106l46 215q12 59 -45 59h-48l21 100h52z" />
    <glyph glyph-name="asciitilde" unicode="~" horiz-adv-x="327" 
d="M53 230l55 119h46l38 -45l21 45h72l-55 -119h-46l-39 47l-21 -47h-71z" />
    <glyph glyph-name="uni00A0" unicode="&#xa0;" horiz-adv-x="228" 
 />
    <glyph glyph-name="exclamdown" unicode="&#xa1;" horiz-adv-x="276" 
d="M170 311q-41 0 -70.5 29.5t-29.5 70.5t29.5 70.5t70.5 29.5t70.5 -29.5t29.5 -70.5t-29.5 -70.5t-70.5 -29.5zM179 247l-14 -188l-57 -268h-138l58 268l66 188h85z" />
    <glyph glyph-name="cent" unicode="&#xa2;" horiz-adv-x="600" 
d="M202 -88l18 83q-86 18 -133.5 83t-47.5 149q0 121 79.5 202.5t205.5 81.5h6l16 77h54l-18 -83q77 -15 123.5 -69t56.5 -127h-142q-17 52 -65 70l-56 -267q36 2 65.5 24t45.5 55h143q-24 -92 -94 -147t-179 -55h-8l-16 -77h-54zM178 239q0 -43 18 -74.5t50 -44.5l57 266
q-54 -4 -89.5 -46.5t-35.5 -100.5z" />
    <glyph glyph-name="sterling" unicode="&#xa3;" horiz-adv-x="582" 
d="M-9 0l28 135h90q47 64 47 139q0 18 -4 56h-91l12 56h72q-5 40 -5 75q0 119 66 190t184 71q98 0 154.5 -70t48.5 -161h-136q6 39 -14.5 67.5t-62.5 28.5q-47 0 -75 -33t-28 -83q0 -22 7 -85h172l-12 -56h-153q2 -24 2 -37q0 -98 -44 -158h271l-29 -135h-500z" />
    <glyph glyph-name="yen" unicode="&#xa5;" horiz-adv-x="727" 
d="M60 166l12 57h216l16 75h-216l12 57h179l-155 355h157l111 -274l226 274h176l-305 -355h178l-12 -57h-215l-16 -75h215l-12 -57h-215l-35 -166h-137l36 166h-216z" />
    <glyph glyph-name="brokenbar" unicode="&#xa6;" horiz-adv-x="328" 
d="M115 363v347h116v-347h-116zM115 -110v347h116v-347h-116z" />
    <glyph glyph-name="section" unicode="&#xa7;" horiz-adv-x="455" 
d="M160 -219q-64 0 -119.5 43t-51.5 124h116q0 -37 18 -52t40 -15q27 0 44.5 19.5t17.5 54.5q0 47 -59 94l-48 39q-73 59 -73 148q1 109 117 186q-50 61 -50 130q0 72 50 121t129 49q66 0 113.5 -39t50.5 -128h-116q1 67 -54 67q-27 0 -42.5 -19t-15.5 -45q1 -46 60 -93
l48 -39q75 -61 75 -143q0 -60 -33.5 -108.5t-84.5 -79.5q49 -54 49 -131q0 -85 -48 -134t-133 -49zM210 166l3 -3q80 45 80 101q0 49 -47 85l-3 2q-80 -44 -80 -103q0 -27 11.5 -44.5t35.5 -37.5z" />
    <glyph glyph-name="dieresis" unicode="&#xa8;" 
d="M22 577q-32 0 -54.5 22t-22.5 53q0 32 22.5 54t54.5 22q30 0 52 -22.5t22 -53.5t-22 -53t-52 -22zM256 577q-31 0 -53.5 22t-22.5 53q0 32 22 54t54 22q31 0 53 -22.5t22 -53.5t-22 -53t-53 -22z" />
    <glyph glyph-name="copyright" unicode="&#xa9;" horiz-adv-x="821" 
d="M430 -12q-151 0 -258.5 108t-107.5 259t107.5 259t258.5 108q152 0 259.5 -108t107.5 -259t-107.5 -259t-259.5 -108zM430 72q117 0 200 83t83 200t-83 200t-200 83q-116 0 -199 -83t-83 -200t83 -200t199 -83zM434 163q-84 0 -139.5 55t-55.5 137q0 81 55.5 136.5
t139.5 55.5q63 0 114.5 -37t66.5 -97h-91q-12 25 -36.5 39t-53.5 14q-49 0 -79.5 -32t-30.5 -79q0 -48 30.5 -79.5t79.5 -31.5q29 0 53.5 14t36.5 39h91q-15 -61 -66.5 -97.5t-114.5 -36.5z" />
    <glyph glyph-name="ordfeminine" unicode="&#xaa;" horiz-adv-x="405" 
d="M208 406q-51 0 -82 38t-31 98q0 72 46.5 123.5t109.5 51.5q32 0 55 -14t30 -28l8 35h98l-64 -300h-98l6 26q-30 -30 -78 -30zM245 489q30 0 50 23.5t20 57.5q0 27 -13.5 43t-39.5 16q-30 0 -49.5 -24t-19.5 -58q0 -26 13.5 -42t38.5 -16z" />
    <glyph glyph-name="guillemotleft" unicode="&#xab;" horiz-adv-x="528" 
d="M230 250l188 217h122l-168 -235l72 -199h-111zM27 250l188 217h122l-168 -235l72 -199h-111z" />
    <glyph glyph-name="uni00AD" unicode="&#xad;" horiz-adv-x="401" 
d="M47 214l29 132h285l-28 -132h-286z" />
    <glyph glyph-name="registered" unicode="&#xae;" horiz-adv-x="821" 
d="M430 -12q-151 0 -258.5 108t-107.5 259t107.5 259t258.5 108q152 0 259.5 -108t107.5 -259t-107.5 -259t-259.5 -108zM430 72q117 0 200 83t83 200t-83 200t-200 83q-116 0 -199 -83t-83 -200t83 -200t199 -83zM306 169v371h147q51 0 83 -32t32 -80q0 -69 -73 -95
l132 -164h-101l-123 153h-13v-153h-84zM390 393h53q18 0 30 9.5t12 25.5q0 17 -11.5 26t-30.5 9h-53v-70z" />
    <glyph glyph-name="macron" unicode="&#xaf;" 
d="M-41 613l21 97h342l-20 -97h-343z" />
    <glyph glyph-name="degree" unicode="&#xb0;" horiz-adv-x="375" 
d="M249 406q-64 0 -109 45t-45 109t45 109t109 45q63 0 108 -45t45 -109t-45 -109t-108 -45zM249 498q25 0 43 18t18 44t-18 44t-43 18q-27 0 -45 -18t-18 -44t18 -44t45 -18z" />
    <glyph glyph-name="twosuperior" unicode="&#xb2;" horiz-adv-x="357" 
d="M60 410l11 52q7 34 22.5 60.5t44.5 48t47 32t57 30.5q57 31 71 49q11 14 11 31q0 40 -44 40q-24 0 -40 -14t-19 -35h-97q7 68 53 106.5t113 38.5q55 0 94 -34t39 -92q0 -60 -29 -96t-93 -69q-3 -1 -19 -9.5t-25 -14t-20.5 -13.5t-14.5 -15h157l-20 -96h-299z" />
    <glyph glyph-name="threesuperior" unicode="&#xb3;" horiz-adv-x="364" 
d="M245 403q-64 0 -111 38.5t-42 112.5h93q1 -27 19 -41t44 -14t41.5 13.5t15.5 35.5q0 18 -13.5 30.5t-37.5 12.5h-41l16 77h31q30 0 45.5 13.5t14.5 35.5q-1 16 -13 26t-32 10q-23 0 -41.5 -14t-20.5 -35h-98q6 71 55 108t112 37q61 0 97.5 -34t36.5 -84q0 -78 -65 -109
q20 -12 33.5 -34.5t13.5 -49.5q0 -55 -40.5 -95t-112.5 -40z" />
    <glyph glyph-name="acute" unicode="&#xb4;" 
d="M-20 560l149 190h165l-209 -190h-105z" />
    <glyph glyph-name="paragraph" unicode="&#xb6;" horiz-adv-x="674" 
d="M165 -184l94 444q-75 9 -128.5 68.5t-53.5 149.5t74.5 161t203.5 71h323l-190 -894h-117l165 774h-90l-165 -774h-116z" />
    <glyph glyph-name="periodcentered" unicode="&#xb7;" horiz-adv-x="289" 
d="M148 180q-41 0 -70.5 29.5t-29.5 70.5t29.5 70.5t70.5 29.5t70.5 -29.5t29.5 -70.5t-29.5 -70.5t-70.5 -29.5z" />
    <glyph glyph-name="cedilla" unicode="&#xb8;" 
d="M-149 -143q33 -15 77 -15q66 0 66 36q0 25 -39 25q-23 0 -43 -10l-31 19l70 91h66l-39 -51q22 7 45 7q32 0 51.5 -18t19.5 -48q0 -50 -42.5 -81t-111.5 -31q-61 0 -102 15z" />
    <glyph glyph-name="onesuperior" unicode="&#xb9;" horiz-adv-x="240" 
d="M128 410l71 336h-95l90 96h123l-92 -432h-97z" />
    <glyph glyph-name="ordmasculine" unicode="&#xba;" horiz-adv-x="382" 
d="M238 402q-68 0 -106 42t-38 101q0 74 48.5 123t124.5 49q68 0 105.5 -42t37.5 -101q0 -74 -48 -123t-124 -49zM247 494q28 0 46.5 20.5t18.5 51.5q0 28 -14 44t-40 16q-28 0 -47 -21t-19 -52q0 -27 14.5 -43t40.5 -16z" />
    <glyph glyph-name="guillemotright" unicode="&#xbb;" horiz-adv-x="530" 
d="M499 252l-188 -217h-122l168 235l-72 199h111zM296 252l-188 -217h-122l168 235l-72 199h111z" />
    <glyph glyph-name="onequarter" unicode="&#xbc;" horiz-adv-x="836" 
d="M101 278l71 336h-95l90 96h123l-92 -432h-97zM29 0l651 710h125l-651 -710h-125zM610 0l19 90h-208l17 79l273 263h88l-54 -253h55l-19 -89h-55l-19 -90h-97zM647 179l21 99l-104 -99h83z" />
    <glyph glyph-name="onehalf" unicode="&#xbd;" horiz-adv-x="858" 
d="M101 278l71 336h-95l90 96h123l-92 -432h-97zM29 0l651 710h125l-651 -710h-125zM474 0l11 52q7 34 22.5 60.5t44.5 48t47 32t57 30.5q57 31 71 49q11 15 11 31q0 40 -44 40q-24 0 -40 -14t-19 -35h-97q7 68 53 106.5t113 38.5q55 0 94 -34t39 -92q0 -60 -29 -96t-93 -69
q-3 -1 -19 -9.5t-25 -14t-20.5 -13.5t-14.5 -15h157l-20 -96h-299z" />
    <glyph glyph-name="threequarters" unicode="&#xbe;" horiz-adv-x="907" 
d="M217 271q-64 0 -111 38.5t-42 112.5h93q1 -27 19 -41t44 -14t41.5 13.5t15.5 35.5q0 18 -13.5 30.5t-37.5 12.5h-41l16 77h31q30 0 45.5 13.5t14.5 35.5q-1 16 -13 26t-32 10q-23 0 -41.5 -14t-20.5 -35h-98q6 71 55 108t112 37q61 0 97.5 -34t36.5 -84q0 -78 -65 -109
q20 -12 33.5 -34.5t13.5 -49.5q0 -55 -40.5 -95t-112.5 -40zM100 0l651 710h125l-651 -710h-125zM681 0l19 90h-208l17 79l273 263h88l-54 -253h55l-19 -89h-55l-19 -90h-97zM718 179l21 99l-104 -99h83z" />
    <glyph glyph-name="questiondown" unicode="&#xbf;" horiz-adv-x="527" 
d="M310 311q-41 0 -70.5 29.5t-29.5 70.5t29.5 70.5t70.5 29.5t70.5 -29.5t29.5 -70.5t-29.5 -70.5t-70.5 -29.5zM185 -219q-92 0 -150 51.5t-58 134.5q0 39 13.5 72.5t38.5 59.5t45 42t49 34q23 14 33.5 21t26 21.5t22.5 28.5h143q-21 -94 -130 -156q-54 -31 -78.5 -56
t-24.5 -56q0 -28 22 -45t58 -17q42 0 73.5 23.5t40.5 66.5h137q-13 -112 -88 -168.5t-173 -56.5z" />
    <glyph glyph-name="Agrave" unicode="&#xc0;" horiz-adv-x="745" 
d="M521 770h-98l-94 157h150zM-56 0l457 710h130l155 -710h-140l-34 162h-301l-103 -162h-164zM292 289h193l-48 227z" />
    <glyph glyph-name="Aacute" unicode="&#xc1;" horiz-adv-x="745" 
d="M430 770l102 157h156l-152 -157h-106zM-56 0l457 710h130l155 -710h-140l-34 162h-301l-103 -162h-164zM292 289h193l-48 227z" />
    <glyph glyph-name="Acircumflex" unicode="&#xc2;" horiz-adv-x="745" 
d="M311 762l16 110l187 73l159 -80l-30 -103l-144 73zM-56 0l457 710h130l155 -710h-140l-34 162h-301l-103 -162h-164zM292 289h193l-48 227z" />
    <glyph glyph-name="Atilde" unicode="&#xc3;" horiz-adv-x="745" 
d="M292 778l5 26q12 53 51 82.5t79 29.5q33 0 77.5 -23t60.5 -23q36 0 54 47h79l-6 -26q-12 -53 -51 -82.5t-79 -29.5q-34 0 -78 23t-60 23q-38 0 -54 -47h-78zM-56 0l457 710h130l155 -710h-140l-34 162h-301l-103 -162h-164zM292 289h193l-48 227z" />
    <glyph glyph-name="Adieresis" unicode="&#xc4;" horiz-adv-x="745" 
d="M378 772q-31 0 -53.5 22t-22.5 53t22 53.5t54 22.5q31 0 53 -22.5t22 -53.5t-22 -53t-53 -22zM613 772q-31 0 -53.5 22t-22.5 53t22.5 53.5t53.5 22.5t53 -22.5t22 -53.5t-22 -53t-53 -22zM-56 0l457 710h130l155 -710h-140l-34 162h-301l-103 -162h-164zM292 289h193
l-48 227z" />
    <glyph glyph-name="Aring" unicode="&#xc5;" horiz-adv-x="745" 
d="M500 753q-50 0 -86 35.5t-36 84.5t36 84.5t86 35.5t86 -35.5t36 -84.5t-36 -84.5t-86 -35.5zM500 815q25 0 42 17t17 41t-17 41t-42 17t-42 -17t-17 -41t17 -41t42 -17zM-56 0l457 710h130l155 -710h-140l-34 162h-301l-103 -162h-164zM292 289h193l-48 227z" />
    <glyph glyph-name="AE" unicode="&#xc6;" horiz-adv-x="984" 
d="M-84 0l593 710h522l-29 -138h-297l-32 -146h238l-30 -138h-237l-32 -150h297l-29 -138h-442l34 162h-254l-135 -162h-167zM324 289h175l60 282z" />
    <glyph glyph-name="Ccedilla" unicode="&#xc7;" horiz-adv-x="795" 
d="M239 -143q31 -15 73 -15q70 0 70 36q0 25 -39 25q-23 0 -43 -10l-31 19l64 81q-127 20 -201 111t-74 218q0 168 109.5 284t293.5 116q132 0 220.5 -70.5t112.5 -183.5h-157q-22 53 -70 83.5t-117 30.5q-104 0 -174.5 -71.5t-70.5 -175.5q0 -93 53.5 -150t152.5 -57
q65 0 119 30.5t86 83.5h157q-42 -115 -138 -184.5t-236 -69.5h-6l-27 -34q19 5 43 5q34 0 53.5 -19t19.5 -48q0 -49 -47 -80t-111 -31q-63 0 -98 15z" />
    <glyph glyph-name="Egrave" unicode="&#xc8;" horiz-adv-x="568" 
d="M445 770h-98l-94 157h150zM22 0l151 710h442l-29 -138h-297l-32 -146h238l-30 -138h-237l-32 -150h297l-29 -138h-442z" />
    <glyph glyph-name="Eacute" unicode="&#xc9;" horiz-adv-x="568" 
d="M355 770l102 157h156l-152 -157h-106zM22 0l151 710h442l-29 -138h-297l-32 -146h238l-30 -138h-237l-32 -150h297l-29 -138h-442z" />
    <glyph glyph-name="Ecircumflex" unicode="&#xca;" horiz-adv-x="568" 
d="M236 762l16 110l187 73l159 -80l-30 -103l-144 73zM22 0l151 710h442l-29 -138h-297l-32 -146h238l-30 -138h-237l-32 -150h297l-29 -138h-442z" />
    <glyph glyph-name="Edieresis" unicode="&#xcb;" horiz-adv-x="568" 
d="M303 772q-31 0 -53.5 22t-22.5 53t22.5 53.5t53.5 22.5t53 -22.5t22 -53.5t-22 -53t-53 -22zM538 772q-31 0 -53.5 22t-22.5 53t22 53.5t54 22.5q31 0 53 -22.5t22 -53.5t-22 -53t-53 -22zM22 0l151 710h442l-29 -138h-297l-32 -146h238l-30 -138h-237l-32 -150h297
l-29 -138h-442z" />
    <glyph glyph-name="Igrave" unicode="&#xcc;" horiz-adv-x="303" 
d="M300 770h-98l-94 157h150zM22 0l151 710h145l-151 -710h-145z" />
    <glyph glyph-name="Iacute" unicode="&#xcd;" horiz-adv-x="303" 
d="M210 770l102 157h156l-152 -157h-106zM22 0l151 710h145l-151 -710h-145z" />
    <glyph glyph-name="Icircumflex" unicode="&#xce;" horiz-adv-x="303" 
d="M91 762l16 110l187 73l159 -80l-30 -103l-144 73zM22 0l151 710h145l-151 -710h-145z" />
    <glyph glyph-name="Idieresis" unicode="&#xcf;" horiz-adv-x="303" 
d="M158 772q-31 0 -53.5 22t-22.5 53t22 53.5t54 22.5q31 0 53 -22.5t22 -53.5t-22 -53t-53 -22zM393 772q-31 0 -53.5 22t-22.5 53t22.5 53.5t53.5 22.5t53 -22.5t22 -53.5t-22 -53t-53 -22zM22 0l151 710h145l-151 -710h-145z" />
    <glyph glyph-name="Eth" unicode="&#xd0;" horiz-adv-x="739" 
d="M36 0l63 295h-72l27 126h72l61 289h199q145 0 238 -89.5t93 -215.5q0 -195 -117.5 -300t-310.5 -105h-253zM210 133h92q112 0 189.5 70t77.5 182q0 86 -53.5 139t-146.5 53h-65l-33 -156h128l-26 -126h-129z" />
    <glyph glyph-name="Ntilde" unicode="&#xd1;" horiz-adv-x="793" 
d="M315 778l5 26q12 53 51 82.5t79 29.5q33 0 77.5 -23t60.5 -23q36 0 54 47h79l-6 -26q-12 -53 -51 -82.5t-79 -29.5q-33 0 -78 23t-60 23q-38 0 -54 -47h-78zM656 0h-125l-262 479l-102 -479h-145l151 710h125l261 -479l103 479h145z" />
    <glyph glyph-name="Ograve" unicode="&#xd2;" horiz-adv-x="824" 
d="M549 770h-98l-94 157h150zM399 -12q-156 0 -248 95t-92 239q0 169 109.5 284.5t293.5 115.5q156 0 248 -95t92 -239q0 -168 -109.5 -284t-293.5 -116zM411 128q103 0 174 71.5t71 175.5q0 93 -53.5 150t-152.5 57q-104 0 -174.5 -71.5t-70.5 -175.5q0 -94 53.5 -150.5
t152.5 -56.5z" />
    <glyph glyph-name="Oacute" unicode="&#xd3;" horiz-adv-x="824" 
d="M459 770l102 157h156l-152 -157h-106zM399 -12q-156 0 -248 95t-92 239q0 169 109.5 284.5t293.5 115.5q156 0 248 -95t92 -239q0 -168 -109.5 -284t-293.5 -116zM411 128q103 0 174 71.5t71 175.5q0 93 -53.5 150t-152.5 57q-104 0 -174.5 -71.5t-70.5 -175.5
q0 -94 53.5 -150.5t152.5 -56.5z" />
    <glyph glyph-name="Ocircumflex" unicode="&#xd4;" horiz-adv-x="824" 
d="M340 762l16 110l187 73l159 -80l-30 -103l-144 73zM399 -12q-156 0 -248 95t-92 239q0 169 109.5 284.5t293.5 115.5q156 0 248 -95t92 -239q0 -168 -109.5 -284t-293.5 -116zM411 128q103 0 174 71.5t71 175.5q0 93 -53.5 150t-152.5 57q-104 0 -174.5 -71.5
t-70.5 -175.5q0 -94 53.5 -150.5t152.5 -56.5z" />
    <glyph glyph-name="Otilde" unicode="&#xd5;" horiz-adv-x="824" 
d="M321 778l5 26q12 53 51 82.5t79 29.5q33 0 77.5 -23t60.5 -23q36 0 54 47h79l-6 -26q-12 -53 -51 -82.5t-79 -29.5q-33 0 -77.5 23t-60.5 23q-38 0 -54 -47h-78zM399 -12q-156 0 -248 95t-92 239q0 169 109.5 284.5t293.5 115.5q156 0 248 -95t92 -239
q0 -168 -109.5 -284t-293.5 -116zM411 128q103 0 174 71.5t71 175.5q0 93 -53.5 150t-152.5 57q-104 0 -174.5 -71.5t-70.5 -175.5q0 -94 53.5 -150.5t152.5 -56.5z" />
    <glyph glyph-name="Odieresis" unicode="&#xd6;" horiz-adv-x="824" 
d="M406 772q-31 0 -53.5 22t-22.5 53t22 53.5t54 22.5q31 0 53 -22.5t22 -53.5t-22 -53t-53 -22zM641 772q-31 0 -53.5 22t-22.5 53t22.5 53.5t53.5 22.5t53 -22.5t22 -53.5t-22 -53t-53 -22zM399 -12q-156 0 -248 95t-92 239q0 169 109.5 284.5t293.5 115.5q156 0 248 -95
t92 -239q0 -168 -109.5 -284t-293.5 -116zM411 128q103 0 174 71.5t71 175.5q0 93 -53.5 150t-152.5 57q-104 0 -174.5 -71.5t-70.5 -175.5q0 -94 53.5 -150.5t152.5 -56.5z" />
    <glyph glyph-name="multiply" unicode="&#xd7;" horiz-adv-x="535" 
d="M147 78l-85 84l128 127l-128 127l85 84l127 -126l127 126l83 -84l-126 -127l126 -127l-83 -84l-127 126z" />
    <glyph glyph-name="Oslash" unicode="&#xd8;" horiz-adv-x="827" 
d="M400 -12q-140 0 -230 79l-102 -85l-69 84l102 85q-41 76 -41 171q0 169 109.5 284.5t293.5 115.5q140 0 230 -79l102 85l69 -84l-103 -85q42 -75 42 -171q0 -168 -109.5 -284t-293.5 -116zM206 335q0 -46 14 -85l357 297q-51 35 -126 35q-104 0 -174.5 -71.5
t-70.5 -175.5zM412 128q103 0 174 71.5t71 175.5q0 46 -14 85l-358 -297q53 -35 127 -35z" />
    <glyph glyph-name="Ugrave" unicode="&#xd9;" horiz-adv-x="719" 
d="M507 770h-98l-94 157h150zM650 285q-34 -156 -109.5 -226.5t-217.5 -70.5q-129 0 -202 88.5t-45 221.5l87 412h145l-89 -421q-17 -80 16.5 -120.5t101.5 -40.5q134 0 166 152l91 430h147z" />
    <glyph glyph-name="Uacute" unicode="&#xda;" horiz-adv-x="719" 
d="M416 770l102 157h156l-152 -157h-106zM650 285q-34 -156 -109.5 -226.5t-217.5 -70.5q-129 0 -202 88.5t-45 221.5l87 412h145l-89 -421q-17 -80 16.5 -120.5t101.5 -40.5q134 0 166 152l91 430h147z" />
    <glyph glyph-name="Ucircumflex" unicode="&#xdb;" horiz-adv-x="719" 
d="M297 762l16 110l187 73l159 -80l-30 -103l-144 73zM650 285q-34 -156 -109.5 -226.5t-217.5 -70.5q-129 0 -202 88.5t-45 221.5l87 412h145l-89 -421q-17 -80 16.5 -120.5t101.5 -40.5q134 0 166 152l91 430h147z" />
    <glyph glyph-name="Udieresis" unicode="&#xdc;" horiz-adv-x="719" 
d="M364 772q-31 0 -53.5 22t-22.5 53t22 53.5t54 22.5q31 0 53 -22.5t22 -53.5t-22 -53t-53 -22zM599 772q-31 0 -53.5 22t-22.5 53t22.5 53.5t53.5 22.5t53 -22.5t22 -53.5t-22 -53t-53 -22zM650 285q-34 -156 -109.5 -226.5t-217.5 -70.5q-129 0 -202 88.5t-45 221.5
l87 412h145l-89 -421q-17 -80 16.5 -120.5t101.5 -40.5q134 0 166 152l91 430h147z" />
    <glyph glyph-name="Yacute" unicode="&#xdd;" horiz-adv-x="690" 
d="M390 770l102 157h156l-152 -157h-106zM215 0l63 299l-174 411h151l112 -276l230 276h177l-350 -412l-63 -298h-146z" />
    <glyph glyph-name="Thorn" unicode="&#xde;" horiz-adv-x="604" 
d="M22 0l151 710h145l-25 -116h56q105 0 172 -62t67 -151q0 -114 -75 -189t-225 -75h-97l-24 -117h-145zM220 252h92q56 0 94 33.5t38 82.5q0 38 -25 64t-77 26h-78z" />
    <glyph glyph-name="germandbls" unicode="&#xdf;" horiz-adv-x="591" 
d="M13 0l120 568q20 94 83.5 141t161.5 47q84 0 146.5 -54.5t62.5 -137.5q0 -129 -111 -187q75 -48 75 -144q0 -102 -70 -167.5t-185 -65.5h-71l27 124h31q55 0 93.5 30t38.5 80q0 39 -27.5 65.5t-70.5 26.5h-20l25 124h16q49 0 79.5 28.5t30.5 73.5q0 35 -23 57.5t-58 22.5
q-41 0 -68 -24.5t-35 -66.5l-113 -541h-138z" />
    <glyph glyph-name="agrave" unicode="&#xe0;" horiz-adv-x="620" 
d="M419 560h-89l-69 190h146zM231 -8q-86 0 -141 63.5t-55 158.5q0 128 75 212.5t188 84.5q57 0 100 -25.5t58 -54.5l14 69h137l-106 -500h-137l9 44q-50 -52 -142 -52zM280 110q61 0 102 46t41 114q0 54 -28.5 85t-79.5 31q-61 0 -102 -45.5t-41 -113.5q0 -55 28.5 -86
t79.5 -31z" />
    <glyph glyph-name="aacute" unicode="&#xe1;" horiz-adv-x="620" 
d="M330 560l149 190h165l-209 -190h-105zM231 -8q-86 0 -141 63.5t-55 158.5q0 128 75 212.5t188 84.5q57 0 100 -25.5t58 -54.5l14 69h137l-106 -500h-137l9 44q-50 -52 -142 -52zM280 110q61 0 102 46t41 114q0 54 -28.5 85t-79.5 31q-61 0 -102 -45.5t-41 -113.5
q0 -55 28.5 -86t79.5 -31z" />
    <glyph glyph-name="acircumflex" unicode="&#xe2;" horiz-adv-x="620" 
d="M421 756l153 -107l-28 -101l-140 100l-211 -100l31 116zM231 -8q-86 0 -141 63.5t-55 158.5q0 128 75 212.5t188 84.5q57 0 100 -25.5t58 -54.5l14 69h137l-106 -500h-137l9 44q-50 -52 -142 -52zM280 110q61 0 102 46t41 114q0 54 -28.5 85t-79.5 31q-61 0 -102 -45.5
t-41 -113.5q0 -55 28.5 -86t79.5 -31z" />
    <glyph glyph-name="atilde" unicode="&#xe3;" horiz-adv-x="620" 
d="M515 710h83l-7 -26q-15 -55 -50.5 -83.5t-83.5 -28.5q-34 0 -74.5 23t-54.5 23q-34 0 -53 -47h-83l7 26q15 55 50 83.5t83 28.5q34 0 75 -23t55 -23q34 0 53 47zM231 -8q-86 0 -141 63.5t-55 158.5q0 128 75 212.5t188 84.5q57 0 100 -25.5t58 -54.5l14 69h137l-106 -500
h-137l9 44q-50 -52 -142 -52zM280 110q61 0 102 46t41 114q0 54 -28.5 85t-79.5 31q-61 0 -102 -45.5t-41 -113.5q0 -55 28.5 -86t79.5 -31z" />
    <glyph glyph-name="adieresis" unicode="&#xe4;" horiz-adv-x="620" 
d="M280 577q-32 0 -54.5 22t-22.5 53q0 32 22.5 54t54.5 22q30 0 52 -22.5t22 -53.5t-22 -53t-52 -22zM514 577q-31 0 -53.5 22t-22.5 53q0 32 22 54t54 22q31 0 53 -22.5t22 -53.5t-22 -53t-53 -22zM231 -8q-86 0 -141 63.5t-55 158.5q0 128 75 212.5t188 84.5
q57 0 100 -25.5t58 -54.5l14 69h137l-106 -500h-137l9 44q-50 -52 -142 -52zM280 110q61 0 102 46t41 114q0 54 -28.5 85t-79.5 31q-61 0 -102 -45.5t-41 -113.5q0 -55 28.5 -86t79.5 -31z" />
    <glyph glyph-name="aring" unicode="&#xe5;" horiz-adv-x="620" 
d="M400 543q-50 0 -86 35.5t-36 84.5t36 84.5t86 35.5t86 -35.5t36 -84.5t-36 -84.5t-86 -35.5zM400 605q25 0 42 17t17 41t-17 41t-42 17t-42 -17t-17 -41t17 -41t42 -17zM231 -8q-86 0 -141 63.5t-55 158.5q0 128 75 212.5t188 84.5q57 0 100 -25.5t58 -54.5l14 69h137
l-106 -500h-137l9 44q-50 -52 -142 -52zM280 110q61 0 102 46t41 114q0 54 -28.5 85t-79.5 31q-61 0 -102 -45.5t-41 -113.5q0 -55 28.5 -86t79.5 -31z" />
    <glyph glyph-name="ae" unicode="&#xe6;" horiz-adv-x="914" 
d="M597 -11q-122 0 -189 87q-70 -86 -196 -86q-92 0 -145.5 41.5t-52.5 108.5q1 72 64 110t198 53q61 7 79.5 14t19.5 28q1 25 -21.5 39.5t-56.5 14.5q-38 0 -66 -17t-31 -52h-136q9 80 77 129.5t158 49.5q105 0 158 -58q74 60 184 60q117 0 187 -81.5t46 -211.5h-388
q4 -49 37.5 -79.5t81.5 -30.5q78 0 112 55h145q-72 -174 -265 -174zM627 400q-44 0 -81.5 -24t-51.5 -68h244q-6 45 -37 68.5t-74 23.5zM344 176l12 56q-17 -5 -40 -10.5t-48.5 -10.5t-36.5 -8q-43 -11 -60 -24t-17 -35q0 -25 21 -37.5t56 -12.5q39 0 72 21t41 61z" />
    <glyph glyph-name="ccedilla" unicode="&#xe7;" horiz-adv-x="585" 
d="M135 -143q33 -15 77 -15q66 0 66 36q0 25 -39 25q-23 0 -43 -10l-31 19l62 81q-91 15 -141.5 81t-50.5 153q0 121 79.5 202.5t205.5 81.5q102 0 164 -57.5t74 -144.5h-142q-12 35 -39.5 56t-67.5 21q-58 0 -96.5 -43t-38.5 -104q0 -57 30.5 -92t82.5 -35q38 0 70 22
t49 57h143q-23 -89 -89.5 -143.5t-168.5 -58.5l-29 -37q22 7 45 7q32 0 51.5 -18t19.5 -48q0 -50 -42.5 -81t-111.5 -31q-61 0 -102 15z" />
    <glyph glyph-name="egrave" unicode="&#xe8;" horiz-adv-x="592" 
d="M386 560h-89l-69 190h146zM275 -11q-108 0 -174 69.5t-66 168.5q0 124 77.5 204t206.5 80q117 0 187 -81.5t46 -211.5h-388q4 -49 37.5 -79.5t81.5 -30.5q78 0 112 55h145q-72 -174 -265 -174zM305 400q-44 0 -81.5 -24t-51.5 -68h244q-6 45 -37 68.5t-74 23.5z" />
    <glyph glyph-name="eacute" unicode="&#xe9;" horiz-adv-x="592" 
d="M298 560l149 190h165l-209 -190h-105zM275 -11q-108 0 -174 69.5t-66 168.5q0 124 77.5 204t206.5 80q117 0 187 -81.5t46 -211.5h-388q4 -49 37.5 -79.5t81.5 -30.5q78 0 112 55h145q-72 -174 -265 -174zM305 400q-44 0 -81.5 -24t-51.5 -68h244q-6 45 -37 68.5
t-74 23.5z" />
    <glyph glyph-name="ecircumflex" unicode="&#xea;" horiz-adv-x="592" 
d="M389 756l153 -107l-28 -101l-140 100l-211 -100l31 116zM275 -11q-108 0 -174 69.5t-66 168.5q0 124 77.5 204t206.5 80q117 0 187 -81.5t46 -211.5h-388q4 -49 37.5 -79.5t81.5 -30.5q78 0 112 55h145q-72 -174 -265 -174zM305 400q-44 0 -81.5 -24t-51.5 -68h244
q-6 45 -37 68.5t-74 23.5z" />
    <glyph glyph-name="edieresis" unicode="&#xeb;" horiz-adv-x="592" 
d="M248 577q-32 0 -54.5 22t-22.5 53q0 32 22.5 54t54.5 22q30 0 52 -22.5t22 -53.5t-22 -53t-52 -22zM482 577q-31 0 -53.5 22t-22.5 53q0 32 22 54t54 22q31 0 53 -22.5t22 -53.5t-22 -53t-53 -22zM275 -11q-108 0 -174 69.5t-66 168.5q0 124 77.5 204t206.5 80
q117 0 187 -81.5t46 -211.5h-388q4 -49 37.5 -79.5t81.5 -30.5q78 0 112 55h145q-72 -174 -265 -174zM305 400q-44 0 -81.5 -24t-51.5 -68h244q-6 45 -37 68.5t-74 23.5z" />
    <glyph glyph-name="igrave" unicode="&#xec;" horiz-adv-x="270" 
d="M241 560h-89l-69 190h146zM13 0l106 500h137l-106 -500h-137z" />
    <glyph glyph-name="iacute" unicode="&#xed;" horiz-adv-x="270" 
d="M152 560l149 190h165l-209 -190h-105zM13 0l106 500h137l-106 -500h-137z" />
    <glyph glyph-name="icircumflex" unicode="&#xee;" horiz-adv-x="270" 
d="M243 756l153 -107l-28 -101l-140 100l-211 -100l31 116zM13 0l106 500h137l-106 -500h-137z" />
    <glyph glyph-name="idieresis" unicode="&#xef;" horiz-adv-x="270" 
d="M124 577q-31 0 -53.5 22t-22.5 53t22.5 53.5t53.5 22.5t53 -22.5t22 -53.5t-22 -53t-53 -22zM313 577q-31 0 -53 22t-22 53t22 53.5t53 22.5t53.5 -22t22.5 -54q0 -31 -22.5 -53t-53.5 -22zM13 0l106 500h137l-106 -500h-137z" />
    <glyph glyph-name="eth" unicode="&#xf0;" horiz-adv-x="597" 
d="M533 398q28 -62 28 -126q0 -121 -79 -202.5t-205 -81.5q-113 0 -177 70t-64 169q0 121 79 202.5t206 81.5q13 0 19 -1l-24 53h-147l19 90h88l-44 97h143l44 -97h113l-19 -90h-54zM288 116q58 0 96.5 41.5t38.5 102.5q0 57 -30.5 90t-83.5 33q-58 0 -96.5 -41.5
t-38.5 -102.5q0 -56 30.5 -89.5t83.5 -33.5z" />
    <glyph glyph-name="ntilde" unicode="&#xf1;" horiz-adv-x="598" 
d="M505 710h83l-7 -26q-15 -55 -50.5 -83.5t-83.5 -28.5q-34 0 -74.5 23t-54.5 23q-34 0 -53 -47h-83l7 26q15 55 50 83.5t83 28.5q34 0 75 -23t55 -23q34 0 53 47zM13 0l106 500h137l-11 -52q57 62 148 62q89 0 131 -69.5t22 -161.5l-59 -279h-137l57 269q12 55 -7.5 86.5
t-64.5 31.5q-103 0 -132 -138l-53 -249h-137z" />
    <glyph glyph-name="ograve" unicode="&#xf2;" horiz-adv-x="596" 
d="M404 560h-89l-69 190h146zM276 -12q-113 0 -177 70t-64 169q0 121 79.5 202.5t205.5 81.5q113 0 176.5 -70t63.5 -169q0 -121 -79 -202.5t-205 -81.5zM287 116q58 0 96.5 41.5t38.5 102.5q0 57 -30.5 90t-83.5 33q-58 0 -96 -41.5t-38 -102.5q0 -56 30 -89.5t83 -33.5z
" />
    <glyph glyph-name="oacute" unicode="&#xf3;" horiz-adv-x="596" 
d="M315 560l149 190h165l-209 -190h-105zM276 -12q-113 0 -177 70t-64 169q0 121 79.5 202.5t205.5 81.5q113 0 176.5 -70t63.5 -169q0 -121 -79 -202.5t-205 -81.5zM287 116q58 0 96.5 41.5t38.5 102.5q0 57 -30.5 90t-83.5 33q-58 0 -96 -41.5t-38 -102.5q0 -56 30 -89.5
t83 -33.5z" />
    <glyph glyph-name="ocircumflex" unicode="&#xf4;" horiz-adv-x="596" 
d="M406 756l153 -107l-28 -101l-140 100l-211 -100l31 116zM276 -12q-113 0 -177 70t-64 169q0 121 79.5 202.5t205.5 81.5q113 0 176.5 -70t63.5 -169q0 -121 -79 -202.5t-205 -81.5zM287 116q58 0 96.5 41.5t38.5 102.5q0 57 -30.5 90t-83.5 33q-58 0 -96 -41.5
t-38 -102.5q0 -56 30 -89.5t83 -33.5z" />
    <glyph glyph-name="otilde" unicode="&#xf5;" horiz-adv-x="596" 
d="M500 710h83l-7 -26q-15 -55 -50.5 -83.5t-83.5 -28.5q-34 0 -74.5 23t-54.5 23q-34 0 -53 -47h-83l7 26q15 55 50 83.5t83 28.5q34 0 75 -23t55 -23q34 0 53 47zM276 -12q-113 0 -177 70t-64 169q0 121 79.5 202.5t205.5 81.5q113 0 176.5 -70t63.5 -169
q0 -121 -79 -202.5t-205 -81.5zM287 116q58 0 96.5 41.5t38.5 102.5q0 57 -30.5 90t-83.5 33q-58 0 -96 -41.5t-38 -102.5q0 -56 30 -89.5t83 -33.5z" />
    <glyph glyph-name="odieresis" unicode="&#xf6;" horiz-adv-x="596" 
d="M265 577q-32 0 -54.5 22t-22.5 53q0 32 22.5 54t54.5 22q30 0 52 -22.5t22 -53.5t-22 -53t-52 -22zM499 577q-31 0 -53.5 22t-22.5 53q0 32 22.5 54t53.5 22t53 -22.5t22 -53.5t-22 -53t-53 -22zM276 -12q-113 0 -177 70t-64 169q0 121 79.5 202.5t205.5 81.5
q113 0 176.5 -70t63.5 -169q0 -121 -79 -202.5t-205 -81.5zM287 116q58 0 96.5 41.5t38.5 102.5q0 57 -30.5 90t-83.5 33q-58 0 -96 -41.5t-38 -102.5q0 -56 30 -89.5t83 -33.5z" />
    <glyph glyph-name="oslash" unicode="&#xf8;" horiz-adv-x="598" 
d="M277 -12q-105 0 -170 63l-76 -62l-42 50l78 64q-31 57 -31 124q0 121 79.5 202.5t205.5 81.5q106 0 170 -64l79 64l41 -50l-81 -66q31 -55 31 -123q0 -121 -79 -202.5t-205 -81.5zM175 239q0 -25 6 -44l202 164q-30 24 -74 24q-58 0 -96 -41.5t-38 -102.5zM288 116
q58 0 96.5 41.5t38.5 102.5q0 24 -6 43l-201 -164q28 -23 72 -23z" />
    <glyph glyph-name="ugrave" unicode="&#xf9;" horiz-adv-x="587" 
d="M396 560h-89l-69 190h146zM206 -10q-86 0 -129.5 71t-24.5 160l59 279h137l-58 -278q-10 -50 8.5 -78.5t59.5 -28.5q97 0 125 131l54 254h137l-106 -500h-137l11 52q-49 -62 -136 -62z" />
    <glyph glyph-name="uacute" unicode="&#xfa;" horiz-adv-x="587" 
d="M307 560l149 190h165l-209 -190h-105zM206 -10q-86 0 -129.5 71t-24.5 160l59 279h137l-58 -278q-10 -50 8.5 -78.5t59.5 -28.5q97 0 125 131l54 254h137l-106 -500h-137l11 52q-49 -62 -136 -62z" />
    <glyph glyph-name="ucircumflex" unicode="&#xfb;" horiz-adv-x="587" 
d="M398 756l153 -107l-28 -101l-140 100l-211 -100l31 116zM206 -10q-86 0 -129.5 71t-24.5 160l59 279h137l-58 -278q-10 -50 8.5 -78.5t59.5 -28.5q97 0 125 131l54 254h137l-106 -500h-137l11 52q-49 -62 -136 -62z" />
    <glyph glyph-name="udieresis" unicode="&#xfc;" horiz-adv-x="587" 
d="M257 577q-32 0 -54.5 22t-22.5 53q0 32 22.5 54t54.5 22q30 0 52 -22.5t22 -53.5t-22 -53t-52 -22zM491 577q-31 0 -53.5 22t-22.5 53q0 32 22.5 54t53.5 22t53 -22.5t22 -53.5t-22 -53t-53 -22zM206 -10q-86 0 -129.5 71t-24.5 160l59 279h137l-58 -278
q-10 -50 8.5 -78.5t59.5 -28.5q97 0 125 131l54 254h137l-106 -500h-137l11 52q-49 -62 -136 -62z" />
    <glyph glyph-name="yacute" unicode="&#xfd;" horiz-adv-x="568" 
d="M293 560l149 190h165l-209 -190h-105zM5 -209l158 239l-109 470h136l68 -329l208 329h156l-465 -709h-152z" />
    <glyph glyph-name="thorn" unicode="&#xfe;" horiz-adv-x="619" 
d="M-31 -209l202 959h137l-61 -294q50 52 142 52q86 0 141 -63.5t55 -158.5q0 -128 -74.5 -212.5t-187.5 -84.5q-58 0 -100.5 25.5t-57.5 54.5l-59 -278h-137zM305 114q61 0 102 45.5t41 113.5q0 55 -28.5 86t-79.5 31q-61 0 -102 -46t-41 -114q0 -54 28.5 -85t79.5 -31z
" />
    <glyph glyph-name="ydieresis" unicode="&#xff;" horiz-adv-x="568" 
d="M243 577q-32 0 -54.5 22t-22.5 53q0 32 22.5 54t54.5 22q30 0 52 -22.5t22 -53.5t-22 -53t-52 -22zM477 577q-31 0 -53.5 22t-22.5 53q0 32 22.5 54t53.5 22t53 -22.5t22 -53.5t-22 -53t-53 -22zM5 -209l158 239l-109 470h136l68 -329l208 329h156l-465 -709h-152z" />
    <glyph glyph-name="Amacron" unicode="&#x100;" horiz-adv-x="745" 
d="M313 791l20 96h343l-21 -96h-342zM-56 0l457 710h130l155 -710h-140l-34 162h-301l-103 -162h-164zM292 289h193l-48 227z" />
    <glyph glyph-name="amacron" unicode="&#x101;" horiz-adv-x="620" 
d="M218 613l21 97h342l-20 -97h-343zM231 -8q-86 0 -141 63.5t-55 158.5q0 128 75 212.5t188 84.5q57 0 100 -25.5t58 -54.5l14 69h137l-106 -500h-137l9 44q-50 -52 -142 -52zM280 110q61 0 102 46t41 114q0 54 -28.5 85t-79.5 31q-61 0 -102 -45.5t-41 -113.5
q0 -55 28.5 -86t79.5 -31z" />
    <glyph glyph-name="Abreve" unicode="&#x102;" horiz-adv-x="745" 
d="M493 750q-75 0 -123 49t-32 126h77q-9 -48 14.5 -72t67.5 -24q88 0 108 96h80q-10 -82 -62 -128.5t-130 -46.5zM-56 0l457 710h130l155 -710h-140l-34 162h-301l-103 -162h-164zM292 289h193l-48 227z" />
    <glyph glyph-name="abreve" unicode="&#x103;" horiz-adv-x="620" 
d="M395 549q-79 0 -126 56t-29 136h81q-13 -54 12 -83.5t68 -29.5q92 2 107 113h80q-2 -84 -53.5 -138t-139.5 -54zM231 -8q-86 0 -141 63.5t-55 158.5q0 128 75 212.5t188 84.5q57 0 100 -25.5t58 -54.5l14 69h137l-106 -500h-137l9 44q-50 -52 -142 -52zM280 110
q61 0 102 46t41 114q0 54 -28.5 85t-79.5 31q-61 0 -102 -45.5t-41 -113.5q0 -55 28.5 -86t79.5 -31z" />
    <glyph glyph-name="Aogonek" unicode="&#x104;" horiz-adv-x="745" 
d="M-56 0l457 710h130l155 -710q-51 -21 -78.5 -44.5t-27.5 -43.5q0 -26 33 -26q29 0 51 13l-19 -91q-41 -27 -101 -27q-43 0 -71 23t-28 63q0 41 28.5 78t72.5 55l-34 162h-301l-103 -162h-164zM292 289h193l-48 227z" />
    <glyph glyph-name="aogonek" unicode="&#x105;" horiz-adv-x="620" 
d="M231 -8q-86 0 -141 63.5t-55 158.5q0 128 75 212.5t188 84.5q57 0 100 -25.5t58 -54.5l14 69h137l-106 -500q-52 -21 -80 -46.5t-28 -48.5q0 -27 32 -27q27 0 53 15l-18 -85q-41 -27 -95 -27q-43 0 -70.5 25t-27.5 61q0 38 26.5 73.5t70.5 59.5l9 44q-50 -52 -142 -52z
M280 110q61 0 102 46t41 114q0 54 -28.5 85t-79.5 31q-61 0 -102 -45.5t-41 -113.5q0 -55 28.5 -86t79.5 -31z" />
    <glyph glyph-name="Cacute" unicode="&#x106;" horiz-adv-x="795" 
d="M448 770l102 157h156l-152 -157h-106zM399 -12q-156 0 -248.5 95t-92.5 239q0 168 109.5 284t293.5 116q132 0 220.5 -70.5t112.5 -183.5h-157q-22 53 -70 83.5t-117 30.5q-104 0 -174.5 -71.5t-70.5 -175.5q0 -93 53.5 -150t152.5 -57q65 0 119 30.5t86 83.5h157
q-42 -115 -138 -184.5t-236 -69.5z" />
    <glyph glyph-name="cacute" unicode="&#x107;" horiz-adv-x="585" 
d="M310 560l149 190h165l-209 -190h-105zM276 -11q-113 0 -177 70t-64 168q0 121 79.5 202.5t205.5 81.5q102 0 164 -57.5t74 -144.5h-142q-12 35 -39.5 56t-67.5 21q-58 0 -96.5 -43t-38.5 -104q0 -57 30.5 -92t82.5 -35q38 0 70 22t49 57h143q-24 -92 -94 -147t-179 -55z
" />
    <glyph glyph-name="Ccircumflex" unicode="&#x108;" horiz-adv-x="795" 
d="M329 762l16 110l187 73l159 -80l-30 -103l-144 73zM399 -12q-156 0 -248.5 95t-92.5 239q0 168 109.5 284t293.5 116q132 0 220.5 -70.5t112.5 -183.5h-157q-22 53 -70 83.5t-117 30.5q-104 0 -174.5 -71.5t-70.5 -175.5q0 -93 53.5 -150t152.5 -57q65 0 119 30.5
t86 83.5h157q-42 -115 -138 -184.5t-236 -69.5z" />
    <glyph glyph-name="ccircumflex" unicode="&#x109;" horiz-adv-x="585" 
d="M401 756l153 -107l-28 -101l-140 100l-211 -100l31 116zM276 -11q-113 0 -177 70t-64 168q0 121 79.5 202.5t205.5 81.5q102 0 164 -57.5t74 -144.5h-142q-12 35 -39.5 56t-67.5 21q-58 0 -96.5 -43t-38.5 -104q0 -57 30.5 -92t82.5 -35q38 0 70 22t49 57h143
q-24 -92 -94 -147t-179 -55z" />
    <glyph glyph-name="Cdotaccent" unicode="&#x10a;" horiz-adv-x="795" 
d="M514 772q-32 0 -54.5 22t-22.5 53q0 32 22.5 54t54.5 22q31 0 53 -22.5t22 -53.5t-22 -53t-53 -22zM399 -12q-156 0 -248.5 95t-92.5 239q0 168 109.5 284t293.5 116q132 0 220.5 -70.5t112.5 -183.5h-157q-22 53 -70 83.5t-117 30.5q-104 0 -174.5 -71.5t-70.5 -175.5
q0 -93 53.5 -150t152.5 -57q65 0 119 30.5t86 83.5h157q-42 -115 -138 -184.5t-236 -69.5z" />
    <glyph glyph-name="cdotaccent" unicode="&#x10b;" horiz-adv-x="585" 
d="M378 577q-31 0 -53.5 22t-22.5 53q0 32 22 54t54 22q31 0 53 -22t22 -54q0 -31 -22 -53t-53 -22zM276 -11q-113 0 -177 70t-64 168q0 121 79.5 202.5t205.5 81.5q102 0 164 -57.5t74 -144.5h-142q-12 35 -39.5 56t-67.5 21q-58 0 -96.5 -43t-38.5 -104q0 -57 30.5 -92
t82.5 -35q38 0 70 22t49 57h143q-24 -92 -94 -147t-179 -55z" />
    <glyph glyph-name="Ccaron" unicode="&#x10c;" horiz-adv-x="795" 
d="M700 945l-15 -110l-188 -73l-158 80l29 103l145 -73zM399 -12q-156 0 -248.5 95t-92.5 239q0 168 109.5 284t293.5 116q132 0 220.5 -70.5t112.5 -183.5h-157q-22 53 -70 83.5t-117 30.5q-104 0 -174.5 -71.5t-70.5 -175.5q0 -93 53.5 -150t152.5 -57q65 0 119 30.5
t86 83.5h157q-42 -115 -138 -184.5t-236 -69.5z" />
    <glyph glyph-name="ccaron" unicode="&#x10d;" horiz-adv-x="585" 
d="M355 548l-153 108l27 100l140 -100l212 100l-31 -116zM276 -11q-113 0 -177 70t-64 168q0 121 79.5 202.5t205.5 81.5q102 0 164 -57.5t74 -144.5h-142q-12 35 -39.5 56t-67.5 21q-58 0 -96.5 -43t-38.5 -104q0 -57 30.5 -92t82.5 -35q38 0 70 22t49 57h143
q-24 -92 -94 -147t-179 -55z" />
    <glyph glyph-name="Dcaron" unicode="&#x10e;" horiz-adv-x="725" 
d="M619 945l-15 -110l-188 -73l-158 80l29 103l145 -73zM22 0l151 710h199q145 0 238 -89.5t93 -215.5q0 -195 -117.5 -300t-310.5 -105h-253zM196 133h92q112 0 189.5 70t77.5 182q0 86 -53.5 139t-146.5 53h-65z" />
    <glyph glyph-name="dcaron" unicode="&#x10f;" horiz-adv-x="628" 
d="M231 -11q-86 0 -141 63.5t-55 158.5q0 129 75 213t188 84q57 0 100 -25t58 -55l67 322h137l-158 -750h-138l9 42q-51 -53 -142 -53zM646 589l55 161h137l-99 -161h-93zM280 108q61 0 102 45.5t41 113.5q0 55 -28.5 86t-79.5 31q-61 0 -102 -45.5t-41 -113.5
q0 -55 28.5 -86t79.5 -31z" />
    <glyph glyph-name="Dcroat" unicode="&#x110;" horiz-adv-x="739" 
d="M36 0l63 295h-72l27 126h72l61 289h199q145 0 238 -89.5t93 -215.5q0 -195 -117.5 -300t-310.5 -105h-253zM210 133h92q112 0 189.5 70t77.5 182q0 86 -53.5 139t-146.5 53h-65l-33 -156h128l-26 -126h-129z" />
    <glyph glyph-name="dcroat" unicode="&#x111;" horiz-adv-x="620" 
d="M231 -11q-86 0 -141 63.5t-55 158.5q0 129 75 213t188 84q57 0 100 -25t58 -55l29 139h-140l18 90h141l19 93h137l-20 -93h62l-19 -90h-62l-119 -567h-138l9 42q-51 -53 -142 -53zM280 108q61 0 102 45.5t41 113.5q0 55 -28.5 86t-79.5 31q-61 0 -102 -45.5t-41 -113.5
q0 -55 28.5 -86t79.5 -31z" />
    <glyph glyph-name="Emacron" unicode="&#x112;" horiz-adv-x="568" 
d="M238 791l20 96h343l-21 -96h-342zM22 0l151 710h442l-29 -138h-297l-32 -146h238l-30 -138h-237l-32 -150h297l-29 -138h-442z" />
    <glyph glyph-name="emacron" unicode="&#x113;" horiz-adv-x="592" 
d="M186 613l21 97h342l-20 -97h-343zM275 -11q-108 0 -174 69.5t-66 168.5q0 124 77.5 204t206.5 80q117 0 187 -81.5t46 -211.5h-388q4 -49 37.5 -79.5t81.5 -30.5q78 0 112 55h145q-72 -174 -265 -174zM305 400q-44 0 -81.5 -24t-51.5 -68h244q-6 45 -37 68.5t-74 23.5z
" />
    <glyph glyph-name="Ebreve" unicode="&#x114;" horiz-adv-x="568" 
d="M418 750q-75 0 -123 49t-32 126h77q-9 -48 14.5 -72t67.5 -24q88 0 108 96h80q-10 -82 -62 -128.5t-130 -46.5zM22 0l151 710h442l-29 -138h-297l-32 -146h238l-30 -138h-237l-32 -150h297l-29 -138h-442z" />
    <glyph glyph-name="ebreve" unicode="&#x115;" horiz-adv-x="592" 
d="M362 549q-79 0 -126 56t-29 136h81q-13 -54 12 -83.5t68 -29.5q92 2 107 113h80q-2 -84 -53.5 -138t-139.5 -54zM275 -11q-108 0 -174 69.5t-66 168.5q0 124 77.5 204t206.5 80q117 0 187 -81.5t46 -211.5h-388q4 -49 37.5 -79.5t81.5 -30.5q78 0 112 55h145
q-72 -174 -265 -174zM305 400q-44 0 -81.5 -24t-51.5 -68h244q-6 45 -37 68.5t-74 23.5z" />
    <glyph glyph-name="Edotaccent" unicode="&#x116;" horiz-adv-x="568" 
d="M421 772q-32 0 -54.5 22t-22.5 53q0 32 22.5 54t54.5 22q31 0 53 -22.5t22 -53.5t-22 -53t-53 -22zM22 0l151 710h442l-29 -138h-297l-32 -146h238l-30 -138h-237l-32 -150h297l-29 -138h-442z" />
    <glyph glyph-name="edotaccent" unicode="&#x117;" horiz-adv-x="592" 
d="M366 577q-31 0 -53.5 22t-22.5 53q0 32 22 54t54 22q31 0 53 -22t22 -54q0 -31 -22 -53t-53 -22zM275 -11q-108 0 -174 69.5t-66 168.5q0 124 77.5 204t206.5 80q117 0 187 -81.5t46 -211.5h-388q4 -49 37.5 -79.5t81.5 -30.5q78 0 112 55h145q-72 -174 -265 -174z
M305 400q-44 0 -81.5 -24t-51.5 -68h244q-6 45 -37 68.5t-74 23.5z" />
    <glyph glyph-name="Eogonek" unicode="&#x118;" horiz-adv-x="568" 
d="M22 0l151 710h442l-29 -138h-297l-32 -146h238l-30 -138h-237l-32 -150h297l-29 -138q-51 -21 -78.5 -44.5t-27.5 -43.5q0 -26 33 -26q29 0 51 13l-19 -91q-43 -27 -101 -27q-44 0 -72 23t-28 63t27 75t70 58h-297z" />
    <glyph glyph-name="eogonek" unicode="&#x119;" horiz-adv-x="592" 
d="M368 -219q-42 0 -69.5 24.5t-27.5 61.5q0 59 68 127q-36 -5 -64 -5q-108 0 -174 69.5t-66 168.5q0 124 77.5 204t206.5 80q117 0 187 -81.5t46 -211.5h-388q4 -50 37.5 -80t82.5 -30q76 0 111 55h145q-17 -44 -49 -84q-94 -114 -94 -169q0 -32 32 -32q29 0 53 15l-18 -85
q-40 -27 -96 -27zM305 400q-44 0 -81.5 -24t-51.5 -68h244q-6 45 -37 68.5t-74 23.5z" />
    <glyph glyph-name="Ecaron" unicode="&#x11a;" horiz-adv-x="568" 
d="M607 945l-15 -110l-188 -73l-158 80l29 103l145 -73zM22 0l151 710h442l-29 -138h-297l-32 -146h238l-30 -138h-237l-32 -150h297l-29 -138h-442z" />
    <glyph glyph-name="ecaron" unicode="&#x11b;" horiz-adv-x="592" 
d="M343 548l-153 108l27 100l140 -100l212 100l-31 -116zM275 -11q-108 0 -174 69.5t-66 168.5q0 124 77.5 204t206.5 80q117 0 187 -81.5t46 -211.5h-388q4 -49 37.5 -79.5t81.5 -30.5q78 0 112 55h145q-72 -174 -265 -174zM305 400q-44 0 -81.5 -24t-51.5 -68h244
q-6 45 -37 68.5t-74 23.5z" />
    <glyph glyph-name="Gcircumflex" unicode="&#x11c;" horiz-adv-x="819" 
d="M322 762l16 110l187 73l159 -80l-30 -103l-144 73zM410 -12q-159 0 -255 96t-96 241q0 108 45.5 197t138 144.5t217.5 55.5q122 0 206.5 -60.5t118.5 -161.5h-164q-57 82 -170 82q-107 0 -176 -70t-69 -174q0 -95 56.5 -152.5t156.5 -57.5q167 0 216 161h-233l29 136h360
q2 -24 2 -37q0 -180 -96 -290t-287 -110z" />
    <glyph glyph-name="gcircumflex" unicode="&#x11d;" horiz-adv-x="621" 
d="M410 756l153 -107l-28 -101l-140 100l-211 -100l31 116zM233 -219q-97 -1 -163.5 53t-73.5 135h134q8 -36 38.5 -55t69.5 -19q48 0 83.5 32.5t45.5 89.5l7 41q-50 -52 -142 -52q-85 0 -140.5 61t-55.5 153q0 126 75.5 208.5t187.5 82.5q57 0 100 -25.5t58 -54.5l14 69
h137l-103 -485q-50 -232 -272 -234zM281 125q60 0 101 43t42 108q1 51 -28 80.5t-80 29.5q-60 0 -101.5 -43.5t-41.5 -108.5q0 -51 29 -80t79 -29z" />
    <glyph glyph-name="Gbreve" unicode="&#x11e;" horiz-adv-x="819" 
d="M504 750q-75 0 -123 49t-32 126h77q-9 -48 14.5 -72t67.5 -24q88 0 108 96h80q-10 -82 -62 -128.5t-130 -46.5zM410 -12q-159 0 -255 96t-96 241q0 108 45.5 197t138 144.5t217.5 55.5q122 0 206.5 -60.5t118.5 -161.5h-164q-57 82 -170 82q-107 0 -176 -70t-69 -174
q0 -95 56.5 -152.5t156.5 -57.5q167 0 216 161h-233l29 136h360q2 -24 2 -37q0 -180 -96 -290t-287 -110z" />
    <glyph glyph-name="gbreve" unicode="&#x11f;" horiz-adv-x="621" 
d="M384 549q-79 0 -126 56t-29 136h81q-13 -54 12 -83.5t68 -29.5q92 2 107 113h80q-2 -84 -53.5 -138t-139.5 -54zM233 -219q-97 -1 -163.5 53t-73.5 135h134q8 -36 38.5 -55t69.5 -19q48 0 83.5 32.5t45.5 89.5l7 41q-50 -52 -142 -52q-85 0 -140.5 61t-55.5 153
q0 126 75.5 208.5t187.5 82.5q57 0 100 -25.5t58 -54.5l14 69h137l-103 -485q-50 -232 -272 -234zM281 125q60 0 101 43t42 108q1 51 -28 80.5t-80 29.5q-60 0 -101.5 -43.5t-41.5 -108.5q0 -51 29 -80t79 -29z" />
    <glyph glyph-name="Gdotaccent" unicode="&#x120;" horiz-adv-x="819" 
d="M507 772q-32 0 -54.5 22t-22.5 53q0 32 22.5 54t54.5 22q31 0 53 -22.5t22 -53.5t-22 -53t-53 -22zM410 -12q-159 0 -255 96t-96 241q0 108 45.5 197t138 144.5t217.5 55.5q122 0 206.5 -60.5t118.5 -161.5h-164q-57 82 -170 82q-107 0 -176 -70t-69 -174
q0 -95 56.5 -152.5t156.5 -57.5q167 0 216 161h-233l29 136h360q2 -24 2 -37q0 -180 -96 -290t-287 -110z" />
    <glyph glyph-name="gdotaccent" unicode="&#x121;" horiz-adv-x="621" 
d="M387 577q-31 0 -53.5 22t-22.5 53q0 32 22.5 54t53.5 22t53 -22t22 -54q0 -31 -22 -53t-53 -22zM233 -219q-97 -1 -163.5 53t-73.5 135h134q8 -36 38.5 -55t69.5 -19q48 0 83.5 32.5t45.5 89.5l7 41q-50 -52 -142 -52q-85 0 -140.5 61t-55.5 153q0 126 75.5 208.5
t187.5 82.5q57 0 100 -25.5t58 -54.5l14 69h137l-103 -485q-50 -232 -272 -234zM281 125q60 0 101 43t42 108q1 51 -28 80.5t-80 29.5q-60 0 -101.5 -43.5t-41.5 -108.5q0 -51 29 -80t79 -29z" />
    <glyph glyph-name="Gcommaaccent" unicode="&#x122;" horiz-adv-x="819" 
d="M410 -12q-159 0 -255 96t-96 241q0 108 45.5 197t138 144.5t217.5 55.5q122 0 206.5 -60.5t118.5 -161.5h-164q-57 82 -170 82q-107 0 -176 -70t-69 -174q0 -95 56.5 -152.5t156.5 -57.5q167 0 216 161h-233l29 136h360q2 -24 2 -37q0 -180 -96 -290t-287 -110zM429 -192
l-95 -114h-60l59 98q-37 21 -37 64q0 32 22 54t54 22q31 0 53 -22.5t22 -53.5q0 -27 -18 -48z" />
    <glyph glyph-name="gcommaaccent" unicode="&#x123;" horiz-adv-x="621" 
d="M386 577q-31 0 -53 22.5t-22 53.5q0 27 18 48l95 114h60l-59 -98q37 -21 37 -64q0 -31 -22 -53.5t-54 -22.5zM233 -219q-97 -1 -163.5 53t-73.5 135h134q8 -36 38.5 -55t69.5 -19q48 0 83.5 32.5t45.5 89.5l7 41q-50 -52 -142 -52q-85 0 -140.5 61t-55.5 153
q0 126 75.5 208.5t187.5 82.5q57 0 100 -25.5t58 -54.5l14 69h137l-103 -485q-50 -232 -272 -234zM281 125q60 0 101 43t42 108q1 51 -28 80.5t-80 29.5q-60 0 -101.5 -43.5t-41.5 -108.5q0 -51 29 -80t79 -29z" />
    <glyph glyph-name="Hcircumflex" unicode="&#x124;" horiz-adv-x="756" 
d="M317 762l16 110l187 73l159 -80l-30 -103l-144 73zM22 0l151 710h145l-61 -283h309l60 283h145l-151 -710h-145l62 289h-309l-61 -289h-145z" />
    <glyph glyph-name="hcircumflex" unicode="&#x125;" horiz-adv-x="598" 
d="M245 762l16 110l187 73l159 -80l-30 -103l-144 73zM13 0l159 750h137l-64 -302q57 62 148 62q89 0 131 -69.5t22 -161.5l-59 -279h-137l57 269q12 55 -7.5 86.5t-64.5 31.5q-103 0 -132 -138l-53 -249h-137z" />
    <glyph glyph-name="Hbar" unicode="&#x126;" horiz-adv-x="785" 
d="M37 0l110 519h-72l21 100h73l19 91h145l-20 -91h309l19 91h145l-19 -91h71l-21 -100h-72l-110 -519h-145l62 289h-309l-61 -289h-145zM272 427h309l20 92h-309z" />
    <glyph glyph-name="hbar" unicode="&#x127;" horiz-adv-x="598" 
d="M13 0l120 567h-60l18 90h61l20 93h137l-20 -93h141l-19 -90h-141l-25 -119q57 62 148 62q89 0 131 -69.5t22 -161.5l-59 -279h-137l57 269q12 55 -7.5 86.5t-64.5 31.5q-103 0 -132 -138l-53 -249h-137z" />
    <glyph glyph-name="Itilde" unicode="&#x128;" horiz-adv-x="303" 
d="M72 778l5 26q12 53 51 82.5t79 29.5q33 0 77.5 -23t60.5 -23q36 0 54 47h79l-6 -26q-12 -53 -51 -82.5t-79 -29.5q-34 0 -78 23t-60 23q-38 0 -54 -47h-78zM22 0l151 710h145l-151 -710h-145z" />
    <glyph glyph-name="itilde" unicode="&#x129;" horiz-adv-x="270" 
d="M337 710h83l-7 -26q-15 -55 -50.5 -83.5t-83.5 -28.5q-34 0 -74.5 23t-54.5 23q-34 0 -53 -47h-83l7 26q15 55 50 83.5t83 28.5q34 0 75 -23t55 -23q34 0 53 47zM13 0l106 500h137l-106 -500h-137z" />
    <glyph glyph-name="Imacron" unicode="&#x12a;" horiz-adv-x="303" 
d="M92 791l20 96h343l-21 -96h-342zM22 0l151 710h145l-151 -710h-145z" />
    <glyph glyph-name="imacron" unicode="&#x12b;" horiz-adv-x="270" 
d="M40 613l21 97h342l-20 -97h-343zM13 0l106 500h137l-106 -500h-137z" />
    <glyph glyph-name="Ibreve" unicode="&#x12c;" horiz-adv-x="303" 
d="M273 750q-75 0 -123 49t-32 126h77q-9 -48 14.5 -72t67.5 -24q88 0 108 96h80q-10 -82 -62 -128.5t-130 -46.5zM22 0l151 710h145l-151 -710h-145z" />
    <glyph glyph-name="ibreve" unicode="&#x12d;" horiz-adv-x="270" 
d="M217 549q-79 0 -126 56t-29 136h81q-13 -54 12 -83.5t68 -29.5q92 2 107 113h80q-2 -84 -53.5 -138t-139.5 -54zM13 0l106 500h137l-106 -500h-137z" />
    <glyph glyph-name="Iogonek" unicode="&#x12e;" horiz-adv-x="303" 
d="M25 -219q-44 0 -72 23t-28 63t27 75t70 58l151 710h145l-151 -710q-51 -21 -78.5 -44.5t-27.5 -43.5q0 -26 33 -26q29 0 51 13l-19 -91q-43 -27 -101 -27z" />
    <glyph glyph-name="iogonek" unicode="&#x12f;" horiz-adv-x="270" 
d="M225 582q-36 0 -62 25.5t-26 61.5t26 61.5t62 25.5t61.5 -25.5t25.5 -61.5t-25.5 -61.5t-61.5 -25.5zM14 -219q-43 0 -70.5 25t-27.5 61q0 38 26.5 73.5t70.5 59.5l106 500h137l-106 -500q-52 -21 -80 -46.5t-28 -48.5q0 -27 32 -27q27 0 53 15l-18 -85q-41 -27 -95 -27z
" />
    <glyph glyph-name="Idotaccent" unicode="&#x130;" horiz-adv-x="303" 
d="M276 772q-32 0 -54.5 22t-22.5 53q0 32 22.5 54t54.5 22q31 0 53 -22.5t22 -53.5t-22 -53t-53 -22zM22 0l151 710h145l-151 -710h-145z" />
    <glyph glyph-name="dotlessi" unicode="&#x131;" horiz-adv-x="270" 
d="M13 0l106 500h137l-106 -500h-137z" />
    <glyph glyph-name="Jcircumflex" unicode="&#x134;" horiz-adv-x="536" 
d="M327 762l16 110l187 73l159 -80l-30 -103l-144 73zM302 202l108 508h144l-113 -533q-40 -189 -224 -189q-42 0 -82 12.5t-74 37.5t-52.5 68t-14.5 98h143q-2 -39 22.5 -60t56.5 -21q69 0 86 79z" />
    <glyph glyph-name="jcircumflex" unicode="&#x135;" horiz-adv-x="277" 
d="M250 756l153 -107l-28 -101l-140 100l-211 -100l31 116zM-72 -219q-40 0 -59 5l25 117q11 -3 28 -3q39 0 61.5 19.5t32.5 63.5l110 517h137l-115 -540q-20 -95 -73.5 -137t-146.5 -42z" />
    <glyph glyph-name="Kcommaaccent" unicode="&#x136;" horiz-adv-x="690" 
d="M22 0l151 710h144l-65 -304l317 304h183l-369 -355l279 -355h-172l-255 325l-69 -325h-144zM355 -192l-95 -114h-60l59 98q-37 21 -37 64q0 32 22 54t54 22q31 0 53 -22.5t22 -53.5q0 -27 -18 -48z" />
    <glyph glyph-name="kcommaaccent" unicode="&#x137;" horiz-adv-x="554" 
d="M13 0l159 750h137l-92 -432l191 182h175l-249 -238l189 -262h-156l-168 232l-49 -232h-137zM287 -192l-95 -114h-60l59 98q-37 21 -37 64q0 32 22 54t54 22q31 0 53 -22.5t22 -53.5q0 -27 -18 -48z" />
    <glyph glyph-name="Lacute" unicode="&#x139;" horiz-adv-x="543" 
d="M212 770l102 157h156l-152 -157h-106zM22 0l151 710h145l-122 -572h304l-29 -138h-449z" />
    <glyph glyph-name="lacute" unicode="&#x13a;" horiz-adv-x="270" 
d="M206 810l149 190h165l-209 -190h-105zM13 0l159 750h137l-159 -750h-137z" />
    <glyph glyph-name="Lcommaaccent" unicode="&#x13b;" horiz-adv-x="543" 
d="M22 0l151 710h145l-122 -572h304l-29 -138h-449zM274 -192l-95 -114h-60l59 98q-37 21 -37 64q0 32 22 54t54 22q31 0 53 -22.5t22 -53.5q0 -27 -18 -48z" />
    <glyph glyph-name="lcommaaccent" unicode="&#x13c;" horiz-adv-x="270" 
d="M13 0l159 750h137l-159 -750h-137zM110 -192l-95 -114h-60l59 98q-37 21 -37 64q0 32 22 54t54 22q31 0 53 -22.5t22 -53.5q0 -27 -18 -48z" />
    <glyph glyph-name="Lcaron" unicode="&#x13d;" horiz-adv-x="545" 
d="M363 589l55 161h137l-99 -161h-93zM22 0l151 710h145l-122 -572h304l-29 -138h-449z" />
    <glyph glyph-name="lcaron" unicode="&#x13e;" horiz-adv-x="277" 
d="M13 0l159 750h137l-159 -750h-137zM295 589l55 161h137l-99 -161h-93z" />
    <glyph glyph-name="Ldot" unicode="&#x13f;" horiz-adv-x="549" 
d="M22 0l151 710h145l-122 -572h304l-29 -138h-449zM456 349q-31 0 -53.5 22t-22.5 53q0 32 22 54t54 22q31 0 53 -22.5t22 -53.5t-22 -53t-53 -22z" />
    <glyph glyph-name="ldot" unicode="&#x140;" horiz-adv-x="405" 
d="M13 0l159 750h137l-159 -750h-137zM362 288q-31 0 -53.5 22t-22.5 53t22 53.5t54 22.5q31 0 53 -22.5t22 -53.5t-22 -53t-53 -22z" />
    <glyph glyph-name="Lslash" unicode="&#x141;" horiz-adv-x="570" 
d="M49 0l54 254l-80 -41l25 120l81 41l71 336h145l-54 -253l153 78l-26 -120l-153 -78l-42 -199h304l-29 -138h-449z" />
    <glyph glyph-name="lslash" unicode="&#x142;" horiz-adv-x="351" 
d="M54 0l57 267l-84 -43l24 114l84 44l78 368h137l-61 -289l84 44l-25 -115l-83 -43l-74 -347h-137z" />
    <glyph glyph-name="Nacute" unicode="&#x143;" horiz-adv-x="793" 
d="M453 770l102 157h156l-152 -157h-106zM656 0h-125l-262 479l-102 -479h-145l151 710h125l261 -479l103 479h145z" />
    <glyph glyph-name="nacute" unicode="&#x144;" horiz-adv-x="598" 
d="M320 560l149 190h165l-209 -190h-105zM13 0l106 500h137l-11 -52q57 62 148 62q89 0 131 -69.5t22 -161.5l-59 -279h-137l57 269q12 55 -7.5 86.5t-64.5 31.5q-103 0 -132 -138l-53 -249h-137z" />
    <glyph glyph-name="Ncommaaccent" unicode="&#x145;" horiz-adv-x="793" 
d="M656 0h-125l-262 479l-102 -479h-145l151 710h125l261 -479l103 479h145zM368 -192l-95 -114h-60l59 98q-37 21 -37 64q0 32 22 54t54 22q31 0 53 -22.5t22 -53.5q0 -27 -18 -48z" />
    <glyph glyph-name="ncommaaccent" unicode="&#x146;" horiz-adv-x="598" 
d="M13 0l106 500h137l-11 -52q57 62 148 62q89 0 131 -69.5t22 -161.5l-59 -279h-137l57 269q12 55 -7.5 86.5t-64.5 31.5q-103 0 -132 -138l-53 -249h-137zM278 -192l-95 -114h-60l59 98q-37 21 -37 64q0 32 22 54t54 22q31 0 53 -22.5t22 -53.5q0 -27 -18 -48z" />
    <glyph glyph-name="Ncaron" unicode="&#x147;" horiz-adv-x="793" 
d="M705 945l-15 -110l-188 -73l-158 80l29 103l145 -73zM656 0h-125l-262 479l-102 -479h-145l151 710h125l261 -479l103 479h145z" />
    <glyph glyph-name="ncaron" unicode="&#x148;" horiz-adv-x="598" 
d="M365 548l-153 108l27 100l140 -100l212 100l-31 -116zM13 0l106 500h137l-11 -52q57 62 148 62q89 0 131 -69.5t22 -161.5l-59 -279h-137l57 269q12 55 -7.5 86.5t-64.5 31.5q-103 0 -132 -138l-53 -249h-137z" />
    <glyph glyph-name="Eng" unicode="&#x14a;" horiz-adv-x="793" 
d="M446 -219q-62 0 -112 22l28 131q37 -16 69 -16q33 0 51.5 18t26.5 59l7 34l-247 452l-102 -481h-145l151 710h125l262 -479l102 479h145l-163 -767q-17 -78 -70.5 -120t-127.5 -42z" />
    <glyph glyph-name="eng" unicode="&#x14b;" horiz-adv-x="597" 
d="M277 -216q-49 0 -89 14l23 120q35 -7 50 -7q36 0 57 21t31 68l58 269q11 53 -6.5 85t-68.5 32q-66 0 -112 -57l-70 -329h-137l106 500h137l-8 -40q54 51 138 51q90 0 135 -70.5t25 -161.5l-72 -333q-16 -75 -70.5 -118.5t-126.5 -43.5z" />
    <glyph glyph-name="Omacron" unicode="&#x14c;" horiz-adv-x="824" 
d="M341 791l20 96h343l-21 -96h-342zM399 -12q-156 0 -248 95t-92 239q0 169 109.5 284.5t293.5 115.5q156 0 248 -95t92 -239q0 -168 -109.5 -284t-293.5 -116zM411 128q103 0 174 71.5t71 175.5q0 93 -53.5 150t-152.5 57q-104 0 -174.5 -71.5t-70.5 -175.5
q0 -94 53.5 -150.5t152.5 -56.5z" />
    <glyph glyph-name="omacron" unicode="&#x14d;" horiz-adv-x="596" 
d="M203 613l21 97h342l-20 -97h-343zM276 -12q-113 0 -177 70t-64 169q0 121 79.5 202.5t205.5 81.5q113 0 176.5 -70t63.5 -169q0 -121 -79 -202.5t-205 -81.5zM287 116q58 0 96.5 41.5t38.5 102.5q0 57 -30.5 90t-83.5 33q-58 0 -96 -41.5t-38 -102.5q0 -56 30 -89.5
t83 -33.5z" />
    <glyph glyph-name="Obreve" unicode="&#x14e;" horiz-adv-x="824" 
d="M521 750q-75 0 -123 49t-32 126h77q-9 -48 14.5 -72t67.5 -24q88 0 108 96h80q-10 -82 -62 -128.5t-130 -46.5zM399 -12q-156 0 -248 95t-92 239q0 169 109.5 284.5t293.5 115.5q156 0 248 -95t92 -239q0 -168 -109.5 -284t-293.5 -116zM411 128q103 0 174 71.5t71 175.5
q0 93 -53.5 150t-152.5 57q-104 0 -174.5 -71.5t-70.5 -175.5q0 -94 53.5 -150.5t152.5 -56.5z" />
    <glyph glyph-name="obreve" unicode="&#x14f;" horiz-adv-x="596" 
d="M380 549q-79 0 -126 56t-29 136h81q-13 -54 12 -83.5t68 -29.5q92 2 107 113h80q-2 -84 -53.5 -138t-139.5 -54zM276 -12q-113 0 -177 70t-64 169q0 121 79.5 202.5t205.5 81.5q113 0 176.5 -70t63.5 -169q0 -121 -79 -202.5t-205 -81.5zM287 116q58 0 96.5 41.5
t38.5 102.5q0 57 -30.5 90t-83.5 33q-58 0 -96 -41.5t-38 -102.5q0 -56 30 -89.5t83 -33.5z" />
    <glyph glyph-name="Ohungarumlaut" unicode="&#x150;" horiz-adv-x="824" 
d="M538 770l99 157h147l-154 -157h-92zM356 770l98 157h148l-154 -157h-92zM399 -12q-156 0 -248 95t-92 239q0 169 109.5 284.5t293.5 115.5q156 0 248 -95t92 -239q0 -168 -109.5 -284t-293.5 -116zM411 128q103 0 174 71.5t71 175.5q0 93 -53.5 150t-152.5 57
q-104 0 -174.5 -71.5t-70.5 -175.5q0 -94 53.5 -150.5t152.5 -56.5z" />
    <glyph glyph-name="ohungarumlaut" unicode="&#x151;" horiz-adv-x="596" 
d="M394 560l107 190h146l-159 -190h-94zM208 560l106 190h147l-159 -190h-94zM276 -12q-113 0 -177 70t-64 169q0 121 79.5 202.5t205.5 81.5q113 0 176.5 -70t63.5 -169q0 -121 -79 -202.5t-205 -81.5zM287 116q58 0 96.5 41.5t38.5 102.5q0 57 -30.5 90t-83.5 33
q-58 0 -96 -41.5t-38 -102.5q0 -56 30 -89.5t83 -33.5z" />
    <glyph glyph-name="OE" unicode="&#x152;" horiz-adv-x="1113" 
d="M388 -12q-147 0 -238 96t-91 238q0 169 109.5 284.5t293.5 115.5q150 0 238 -98l18 86h443l-29 -138h-298l-31 -146h237l-29 -138h-238l-32 -150h298l-29 -138h-443l7 33q-87 -45 -186 -45zM411 128q103 0 174 71.5t71 175.5q0 93 -53.5 150t-152.5 57
q-104 0 -174.5 -71.5t-70.5 -175.5q0 -94 53.5 -150.5t152.5 -56.5z" />
    <glyph glyph-name="oe" unicode="&#x153;" horiz-adv-x="978" 
d="M276 -12q-113 0 -177 70t-64 169q0 121 79.5 202.5t205.5 81.5q117 0 183 -77q79 77 204 77q115 0 185 -81.5t47 -211.5h-389q4 -49 38 -79.5t82 -30.5q77 0 111 55h145q-70 -174 -264 -174q-116 0 -183 78q-79 -79 -203 -79zM693 400q-44 0 -82.5 -24.5t-52.5 -67.5h244
q-5 45 -35.5 68.5t-73.5 23.5zM287 116q58 0 96.5 41.5t38.5 102.5q0 57 -30.5 90t-83.5 33q-58 0 -96 -41.5t-38 -102.5q0 -56 30 -89.5t83 -33.5z" />
    <glyph glyph-name="Racute" unicode="&#x154;" horiz-adv-x="652" 
d="M359 770l102 157h156l-152 -157h-106zM22 0l151 710h236q100 0 157.5 -52.5t57.5 -128.5q0 -85 -47.5 -146t-149.5 -79l194 -304h-161l-191 299h-39l-63 -299h-145zM257 423h114q48 0 76.5 23.5t29.5 61.5q0 30 -21 49.5t-60 19.5h-107z" />
    <glyph glyph-name="racute" unicode="&#x155;" horiz-adv-x="395" 
d="M237 560l149 190h165l-209 -190h-105zM13 0l106 500h137l-16 -73q19 36 58 57.5t84 21.5q26 0 45 -6l-29 -139q-33 11 -59 11q-50 0 -87.5 -36t-50.5 -97l-51 -239h-137z" />
    <glyph glyph-name="Rcommaaccent" unicode="&#x156;" horiz-adv-x="652" 
d="M22 0l151 710h236q100 0 157.5 -52.5t57.5 -128.5q0 -85 -47.5 -146t-149.5 -79l194 -304h-161l-191 299h-39l-63 -299h-145zM257 423h114q48 0 76.5 23.5t29.5 61.5q0 30 -21 49.5t-60 19.5h-107zM334 -192l-95 -114h-60l59 98q-37 21 -37 64q0 32 22 54t54 22
q31 0 53 -22.5t22 -53.5q0 -27 -18 -48z" />
    <glyph glyph-name="rcommaaccent" unicode="&#x157;" horiz-adv-x="395" 
d="M13 0l106 500h137l-16 -73q19 36 58 57.5t84 21.5q26 0 45 -6l-29 -139q-33 11 -59 11q-50 0 -87.5 -36t-50.5 -97l-51 -239h-137zM109 -192l-95 -114h-60l59 98q-37 21 -37 64q0 32 22 54t54 22q31 0 53 -22.5t22 -53.5q0 -27 -18 -48z" />
    <glyph glyph-name="Rcaron" unicode="&#x158;" horiz-adv-x="652" 
d="M610 945l-15 -110l-188 -73l-158 80l29 103l145 -73zM22 0l151 710h236q100 0 157.5 -52.5t57.5 -128.5q0 -85 -47.5 -146t-149.5 -79l194 -304h-161l-191 299h-39l-63 -299h-145zM257 423h114q48 0 76.5 23.5t29.5 61.5q0 30 -21 49.5t-60 19.5h-107z" />
    <glyph glyph-name="rcaron" unicode="&#x159;" horiz-adv-x="395" 
d="M283 548l-153 108l27 100l140 -100l212 100l-31 -116zM13 0l106 500h137l-16 -73q19 36 58 57.5t84 21.5q26 0 45 -6l-29 -139q-33 11 -59 11q-50 0 -87.5 -36t-50.5 -97l-51 -239h-137z" />
    <glyph glyph-name="Sacute" unicode="&#x15a;" horiz-adv-x="584" 
d="M343 770l102 157h156l-152 -157h-106zM286 -12q-130 0 -199.5 70.5t-68.5 161.5h145q5 -44 40.5 -71t86.5 -27q41 0 67.5 21.5t26.5 52.5q0 32 -21.5 53t-72.5 43l-37 16q-150 66 -150 202q0 91 68.5 151.5t174.5 60.5q111 0 174.5 -65.5t65.5 -150.5h-144
q-6 39 -35.5 60.5t-68.5 21.5t-64 -19.5t-25 -49.5q0 -29 19 -47.5t58 -34.5l51 -21q154 -64 154 -214q0 -95 -66.5 -154.5t-178.5 -59.5z" />
    <glyph glyph-name="sacute" unicode="&#x15b;" horiz-adv-x="494" 
d="M257 560l149 190h165l-209 -190h-105zM233 -11q-99 0 -161 47t-62 123h142q0 -32 26 -48.5t61 -16.5q28 0 45 11.5t17 29.5q0 35 -52 52l-72 24q-111 38 -111 144q0 73 53 114.5t151 41.5q79 0 136 -44t60 -114h-137q-2 27 -22 39t-44 12q-26 0 -41.5 -10.5t-15.5 -29.5
q0 -32 44 -47l60 -20q130 -44 130 -150q0 -74 -56 -116t-151 -42z" />
    <glyph glyph-name="Scircumflex" unicode="&#x15c;" horiz-adv-x="584" 
d="M224 762l16 110l187 73l159 -80l-30 -103l-144 73zM286 -12q-130 0 -199.5 70.5t-68.5 161.5h145q5 -44 40.5 -71t86.5 -27q41 0 67.5 21.5t26.5 52.5q0 32 -21.5 53t-72.5 43l-37 16q-150 66 -150 202q0 91 68.5 151.5t174.5 60.5q111 0 174.5 -65.5t65.5 -150.5h-144
q-6 39 -35.5 60.5t-68.5 21.5t-64 -19.5t-25 -49.5q0 -29 19 -47.5t58 -34.5l51 -21q154 -64 154 -214q0 -95 -66.5 -154.5t-178.5 -59.5z" />
    <glyph glyph-name="scircumflex" unicode="&#x15d;" horiz-adv-x="494" 
d="M348 756l153 -107l-28 -101l-140 100l-211 -100l31 116zM233 -11q-99 0 -161 47t-62 123h142q0 -32 26 -48.5t61 -16.5q28 0 45 11.5t17 29.5q0 35 -52 52l-72 24q-111 38 -111 144q0 73 53 114.5t151 41.5q79 0 136 -44t60 -114h-137q-2 27 -22 39t-44 12
q-26 0 -41.5 -10.5t-15.5 -29.5q0 -32 44 -47l60 -20q130 -44 130 -150q0 -74 -56 -116t-151 -42z" />
    <glyph glyph-name="Scedilla" unicode="&#x15e;" horiz-adv-x="584" 
d="M134 -143q31 -15 73 -15q70 0 70 36q0 25 -39 25q-23 0 -43 -10l-31 19l64 80q-103 16 -157 82.5t-53 145.5h145q5 -44 40.5 -71t86.5 -27q41 0 67.5 21.5t26.5 52.5q0 32 -21.5 53t-72.5 43l-37 16q-150 66 -150 202q0 91 68.5 151.5t174.5 60.5q111 0 174.5 -65.5
t65.5 -150.5h-144q-6 39 -35.5 60.5t-68.5 21.5t-64 -19.5t-25 -49.5q0 -29 19 -47.5t58 -34.5l51 -21q154 -64 154 -214q0 -95 -66 -154.5t-177 -59.5l-27 -34q19 5 43 5q34 0 53.5 -19t19.5 -48q0 -49 -47 -80t-111 -31q-63 0 -98 15z" />
    <glyph glyph-name="scedilla" unicode="&#x15f;" horiz-adv-x="494" 
d="M78 -143q33 -15 77 -15q66 0 66 36q0 25 -39 25q-23 0 -43 -10l-31 19l63 83q-73 14 -117 58t-44 106h142q0 -32 26 -48.5t61 -16.5q28 0 45 11.5t17 29.5q0 35 -52 52l-72 24q-111 38 -111 144q0 73 53 114.5t151 41.5q79 0 136 -44t60 -114h-137q-2 27 -22 39t-44 12
q-26 0 -41.5 -10.5t-15.5 -29.5q0 -32 44 -47l60 -20q130 -44 130 -150q0 -74 -56 -116t-151 -42l-28 -37q22 7 45 7q32 0 51.5 -18t19.5 -48q0 -50 -42.5 -81t-111.5 -31q-61 0 -102 15z" />
    <glyph glyph-name="Scaron" unicode="&#x160;" horiz-adv-x="584" 
d="M594 945l-15 -110l-188 -73l-158 80l29 103l145 -73zM286 -12q-130 0 -199.5 70.5t-68.5 161.5h145q5 -44 40.5 -71t86.5 -27q41 0 67.5 21.5t26.5 52.5q0 32 -21.5 53t-72.5 43l-37 16q-150 66 -150 202q0 91 68.5 151.5t174.5 60.5q111 0 174.5 -65.5t65.5 -150.5h-144
q-6 39 -35.5 60.5t-68.5 21.5t-64 -19.5t-25 -49.5q0 -29 19 -47.5t58 -34.5l51 -21q154 -64 154 -214q0 -95 -66.5 -154.5t-178.5 -59.5z" />
    <glyph glyph-name="scaron" unicode="&#x161;" horiz-adv-x="494" 
d="M302 548l-153 108l27 100l140 -100l212 100l-31 -116zM233 -11q-99 0 -161 47t-62 123h142q0 -32 26 -48.5t61 -16.5q28 0 45 11.5t17 29.5q0 35 -52 52l-72 24q-111 38 -111 144q0 73 53 114.5t151 41.5q79 0 136 -44t60 -114h-137q-2 27 -22 39t-44 12
q-26 0 -41.5 -10.5t-15.5 -29.5q0 -32 44 -47l60 -20q130 -44 130 -150q0 -74 -56 -116t-151 -42z" />
    <glyph glyph-name="uni0162" unicode="&#x162;" horiz-adv-x="560" 
d="M149 0l122 572h-190l29 138h526l-29 -138h-191l-122 -572h-145zM249 -192l-95 -114h-60l59 98q-37 21 -37 64q0 32 22 54t54 22q31 0 53 -22.5t22 -53.5q0 -27 -18 -48z" />
    <glyph glyph-name="uni0163" unicode="&#x163;" horiz-adv-x="421" 
d="M263 -5q-88 2 -132.5 60t-24.5 157l35 168h-101l26 120h101l29 139h137l-29 -139h141l-26 -120h-141l-37 -177q-18 -85 69 -85q29 0 55 8l-26 -122q-40 -10 -76 -9zM253 -192l-95 -114h-60l59 98q-37 21 -37 64q0 32 22 54t54 22q31 0 53 -22.5t22 -53.5q0 -27 -18 -48z
" />
    <glyph glyph-name="Tcaron" unicode="&#x164;" horiz-adv-x="560" 
d="M589 945l-15 -110l-188 -73l-158 80l29 103l145 -73zM149 0l122 572h-190l29 138h526l-29 -138h-191l-122 -572h-145z" />
    <glyph glyph-name="tcaron" unicode="&#x165;" horiz-adv-x="421" 
d="M335 549l55 161h137l-99 -161h-93zM263 -5q-88 2 -132.5 60t-24.5 157l35 168h-101l26 120h101l29 139h137l-29 -139h141l-26 -120h-141l-37 -177q-18 -85 69 -85q29 0 55 8l-26 -122q-40 -10 -76 -9z" />
    <glyph glyph-name="Tbar" unicode="&#x166;" horiz-adv-x="584" 
d="M160 0l63 296h-141l27 126h141l32 150h-190l29 138h526l-29 -138h-191l-32 -150h139l-26 -126h-140l-63 -296h-145z" />
    <glyph glyph-name="tbar" unicode="&#x167;" horiz-adv-x="432" 
d="M24 220l18 90h88l15 70h-101l26 120h101l29 139h137l-29 -139h141l-26 -120h-141l-15 -70h155l-19 -90h-154l-4 -17q-18 -85 69 -85q29 0 55 8l-26 -122q-40 -10 -76 -9q-88 2 -132.5 60t-24.5 157l2 8h-88z" />
    <glyph glyph-name="Utilde" unicode="&#x168;" horiz-adv-x="719" 
d="M278 778l5 26q12 53 51 82.5t79 29.5q33 0 77.5 -23t60.5 -23q36 0 54 47h79l-6 -26q-12 -53 -51 -82.5t-79 -29.5q-33 0 -77.5 23t-60.5 23q-38 0 -54 -47h-78zM650 285q-34 -156 -109.5 -226.5t-217.5 -70.5q-129 0 -202 88.5t-45 221.5l87 412h145l-89 -421
q-17 -80 16.5 -120.5t101.5 -40.5q134 0 166 152l91 430h147z" />
    <glyph glyph-name="utilde" unicode="&#x169;" horiz-adv-x="587" 
d="M492 710h83l-7 -26q-15 -55 -50.5 -83.5t-83.5 -28.5q-34 0 -74.5 23t-54.5 23q-34 0 -53 -47h-83l7 26q15 55 50 83.5t83 28.5q34 0 75 -23t55 -23q34 0 53 47zM206 -10q-86 0 -129.5 71t-24.5 160l59 279h137l-58 -278q-10 -50 8.5 -78.5t59.5 -28.5q97 0 125 131
l54 254h137l-106 -500h-137l11 52q-49 -62 -136 -62z" />
    <glyph glyph-name="Umacron" unicode="&#x16a;" horiz-adv-x="719" 
d="M299 791l20 96h343l-21 -96h-342zM650 285q-34 -156 -109.5 -226.5t-217.5 -70.5q-129 0 -202 88.5t-45 221.5l87 412h145l-89 -421q-17 -80 16.5 -120.5t101.5 -40.5q134 0 166 152l91 430h147z" />
    <glyph glyph-name="umacron" unicode="&#x16b;" horiz-adv-x="587" 
d="M195 613l21 97h342l-20 -97h-343zM206 -10q-86 0 -129.5 71t-24.5 160l59 279h137l-58 -278q-10 -50 8.5 -78.5t59.5 -28.5q97 0 125 131l54 254h137l-106 -500h-137l11 52q-49 -62 -136 -62z" />
    <glyph glyph-name="Ubreve" unicode="&#x16c;" horiz-adv-x="719" 
d="M479 750q-75 0 -123 49t-32 126h77q-9 -48 14.5 -72t67.5 -24q88 0 108 96h80q-10 -82 -62 -128.5t-130 -46.5zM650 285q-34 -156 -109.5 -226.5t-217.5 -70.5q-129 0 -202 88.5t-45 221.5l87 412h145l-89 -421q-17 -80 16.5 -120.5t101.5 -40.5q134 0 166 152l91 430
h147z" />
    <glyph glyph-name="ubreve" unicode="&#x16d;" horiz-adv-x="587" 
d="M371 549q-79 0 -126 56t-29 136h81q-13 -54 12 -83.5t68 -29.5q92 2 107 113h80q-2 -84 -53.5 -138t-139.5 -54zM206 -10q-86 0 -129.5 71t-24.5 160l59 279h137l-58 -278q-10 -50 8.5 -78.5t59.5 -28.5q97 0 125 131l54 254h137l-106 -500h-137l11 52q-49 -62 -136 -62z
" />
    <glyph glyph-name="Uring" unicode="&#x16e;" horiz-adv-x="719" 
d="M486 753q-50 0 -86 35.5t-36 84.5t36 84.5t86 35.5t86 -35.5t36 -84.5t-36 -84.5t-86 -35.5zM486 815q25 0 42 17t17 41t-17 41t-42 17t-42 -17t-17 -41t17 -41t42 -17zM650 285q-34 -156 -109.5 -226.5t-217.5 -70.5q-129 0 -202 88.5t-45 221.5l87 412h145l-89 -421
q-17 -80 16.5 -120.5t101.5 -40.5q134 0 166 152l91 430h147z" />
    <glyph glyph-name="uring" unicode="&#x16f;" horiz-adv-x="587" 
d="M377 543q-50 0 -86 35.5t-36 84.5t36 84.5t86 35.5t86 -35.5t36 -84.5t-36 -84.5t-86 -35.5zM377 605q25 0 42 17t17 41t-17 41t-42 17t-42 -17t-17 -41t17 -41t42 -17zM206 -10q-86 0 -129.5 71t-24.5 160l59 279h137l-58 -278q-10 -50 8.5 -78.5t59.5 -28.5
q97 0 125 131l54 254h137l-106 -500h-137l11 52q-49 -62 -136 -62z" />
    <glyph glyph-name="Uhungarumlaut" unicode="&#x170;" horiz-adv-x="719" 
d="M496 770l99 157h147l-154 -157h-92zM314 770l98 157h148l-154 -157h-92zM650 285q-34 -156 -109.5 -226.5t-217.5 -70.5q-129 0 -202 88.5t-45 221.5l87 412h145l-89 -421q-17 -80 16.5 -120.5t101.5 -40.5q134 0 166 152l91 430h147z" />
    <glyph glyph-name="uhungarumlaut" unicode="&#x171;" horiz-adv-x="587" 
d="M386 560l107 190h146l-159 -190h-94zM200 560l106 190h147l-159 -190h-94zM206 -10q-86 0 -129.5 71t-24.5 160l59 279h137l-58 -278q-10 -50 8.5 -78.5t59.5 -28.5q97 0 125 131l54 254h137l-106 -500h-137l11 52q-49 -62 -136 -62z" />
    <glyph glyph-name="Uogonek" unicode="&#x172;" horiz-adv-x="719" 
d="M316 -219q-43 0 -71 23t-28 63q0 67 77 124q-83 8 -139 53t-75.5 111.5t-3.5 142.5l87 412h145l-89 -421q-17 -80 16.5 -120.5t101.5 -40.5q134 0 166 152l91 430h147l-91 -425q-25 -117 -66.5 -175.5t-113.5 -94.5q-34 -17 -55.5 -29.5t-42 -33.5t-20.5 -40
q0 -26 33 -26q28 0 52 13l-20 -91q-41 -27 -101 -27z" />
    <glyph glyph-name="uogonek" unicode="&#x173;" horiz-adv-x="587" 
d="M206 -10q-86 0 -129.5 71t-24.5 160l59 279h137l-58 -278q-10 -50 8.5 -78.5t59.5 -28.5q97 0 125 131l54 254h137l-106 -500q-52 -21 -80 -46.5t-28 -48.5q0 -27 32 -27q27 0 53 15l-18 -85q-41 -27 -95 -27q-43 0 -70.5 25t-27.5 61q0 38 26.5 73.5t70.5 59.5l11 52
q-49 -62 -136 -62z" />
    <glyph glyph-name="Wcircumflex" unicode="&#x174;" horiz-adv-x="965" 
d="M419 762l16 110l187 73l159 -80l-30 -103l-144 73zM580 0l-70 371l-241 -371h-137l-19 710h151l8 -464l305 476l95 -482l207 470h160l-322 -710h-137z" />
    <glyph glyph-name="wcircumflex" unicode="&#x175;" horiz-adv-x="799" 
d="M507 756l153 -107l-28 -101l-140 100l-211 -100l31 116zM117 0l-60 500h138l28 -324l175 324h106l30 -316l160 316h153l-271 -500h-136l-30 283l-157 -283h-136z" />
    <glyph glyph-name="Ycircumflex" unicode="&#x176;" horiz-adv-x="690" 
d="M271 762l16 110l187 73l159 -80l-30 -103l-144 73zM215 0l63 299l-174 411h151l112 -276l230 276h177l-350 -412l-63 -298h-146z" />
    <glyph glyph-name="ycircumflex" unicode="&#x177;" horiz-adv-x="568" 
d="M384 756l153 -107l-28 -101l-140 100l-211 -100l31 116zM5 -209l158 239l-109 470h136l68 -329l208 329h156l-465 -709h-152z" />
    <glyph glyph-name="Ydieresis" unicode="&#x178;" horiz-adv-x="690" 
d="M337 772q-31 0 -53.5 22t-22.5 53t22.5 53.5t53.5 22.5t53 -22.5t22 -53.5t-22 -53t-53 -22zM572 772q-31 0 -53.5 22t-22.5 53t22 53.5t54 22.5q31 0 53 -22.5t22 -53.5t-22 -53t-53 -22zM215 0l63 299l-174 411h151l112 -276l230 276h177l-350 -412l-63 -298h-146z" />
    <glyph glyph-name="Zacute" unicode="&#x179;" horiz-adv-x="614" 
d="M366 770l102 157h156l-152 -157h-106zM-20 0l21 99l427 473h-320l29 138h528l-21 -99l-426 -473h332l-29 -138h-541z" />
    <glyph glyph-name="zacute" unicode="&#x17a;" horiz-adv-x="497" 
d="M264 560l149 190h165l-209 -190h-105zM-12 0l22 107l284 269h-224l27 124h408l-23 -108l-281 -268h232l-26 -124h-419z" />
    <glyph glyph-name="Zdotaccent" unicode="&#x17b;" horiz-adv-x="614" 
d="M432 772q-32 0 -54.5 22t-22.5 53q0 32 22.5 54t54.5 22q31 0 53 -22.5t22 -53.5t-22 -53t-53 -22zM-20 0l21 99l427 473h-320l29 138h528l-21 -99l-426 -473h332l-29 -138h-541z" />
    <glyph glyph-name="zdotaccent" unicode="&#x17c;" horiz-adv-x="497" 
d="M332 577q-31 0 -53.5 22t-22.5 53q0 32 22 54t54 22q31 0 53 -22t22 -54q0 -31 -22 -53t-53 -22zM-12 0l22 107l284 269h-224l27 124h408l-23 -108l-281 -268h232l-26 -124h-419z" />
    <glyph glyph-name="Zcaron" unicode="&#x17d;" horiz-adv-x="614" 
d="M618 945l-15 -110l-188 -73l-158 80l29 103l145 -73zM-20 0l21 99l427 473h-320l29 138h528l-21 -99l-426 -473h332l-29 -138h-541z" />
    <glyph glyph-name="zcaron" unicode="&#x17e;" horiz-adv-x="497" 
d="M309 548l-153 108l27 100l140 -100l212 100l-31 -116zM-12 0l22 107l284 269h-224l27 124h408l-23 -108l-281 -268h232l-26 -124h-419z" />
    <glyph glyph-name="uni018F" unicode="&#x18f;" horiz-adv-x="821" 
d="M395 -12q-156 0 -248 95t-92 239q0 47 7 83h588q-8 82 -61.5 129.5t-144.5 47.5q-113 0 -182 -82h-169q46 102 139.5 162t223.5 60q157 0 249.5 -95t92.5 -239q0 -169 -109.5 -284.5t-293.5 -115.5zM407 128q76 0 137 41t89 109h-424q14 -67 66 -108.5t132 -41.5z" />
    <glyph glyph-name="Scommaaccent" unicode="&#x218;" horiz-adv-x="584" 
d="M286 -12q-130 0 -199.5 70.5t-68.5 161.5h145q5 -44 40.5 -71t86.5 -27q41 0 67.5 21.5t26.5 52.5q0 32 -21.5 53t-72.5 43l-37 16q-150 66 -150 202q0 91 68.5 151.5t174.5 60.5q111 0 174.5 -65.5t65.5 -150.5h-144q-6 39 -35.5 60.5t-68.5 21.5t-64 -19.5t-25 -49.5
q0 -29 19 -47.5t58 -34.5l51 -21q154 -64 154 -214q0 -95 -66.5 -154.5t-178.5 -59.5zM302 -192l-95 -114h-60l59 98q-37 21 -37 64q0 32 22 54t54 22q31 0 53 -22.5t22 -53.5q0 -27 -18 -48z" />
    <glyph glyph-name="scommaaccent" unicode="&#x219;" horiz-adv-x="494" 
d="M233 -11q-99 0 -161 47t-62 123h142q0 -32 26 -48.5t61 -16.5q28 0 45 11.5t17 29.5q0 35 -52 52l-72 24q-111 38 -111 144q0 73 53 114.5t151 41.5q79 0 136 -44t60 -114h-137q-2 27 -22 39t-44 12q-26 0 -41.5 -10.5t-15.5 -29.5q0 -32 44 -47l60 -20q130 -44 130 -150
q0 -74 -56 -116t-151 -42zM251 -192l-95 -114h-60l59 98q-37 21 -37 64q0 32 22 54t54 22q31 0 53 -22.5t22 -53.5q0 -27 -18 -48z" />
    <glyph glyph-name="Tcommaaccent" unicode="&#x21a;" horiz-adv-x="560" 
d="M149 0l122 572h-190l29 138h526l-29 -138h-191l-122 -572h-145zM249 -192l-95 -114h-60l59 98q-37 21 -37 64q0 32 22 54t54 22q31 0 53 -22.5t22 -53.5q0 -27 -18 -48z" />
    <glyph glyph-name="tcommaaccent" unicode="&#x21b;" horiz-adv-x="421" 
d="M263 -5q-88 2 -132.5 60t-24.5 157l35 168h-101l26 120h101l29 139h137l-29 -139h141l-26 -120h-141l-37 -177q-18 -85 69 -85q29 0 55 8l-26 -122q-40 -10 -76 -9zM253 -192l-95 -114h-60l59 98q-37 21 -37 64q0 32 22 54t54 22q31 0 53 -22.5t22 -53.5q0 -27 -18 -48z
" />
    <glyph glyph-name="uni0232" unicode="&#x232;" horiz-adv-x="690" 
d="M272 791l20 96h343l-21 -96h-342zM215 0l63 299l-174 411h151l112 -276l230 276h177l-350 -412l-63 -298h-146z" />
    <glyph glyph-name="uni0233" unicode="&#x233;" horiz-adv-x="568" 
d="M181 613l21 97h342l-20 -97h-343zM5 -209l158 239l-109 470h136l68 -329l208 329h156l-465 -709h-152z" />
    <glyph glyph-name="dotlessj" unicode="&#x237;" horiz-adv-x="277" 
d="M-72 -219q-40 0 -59 5l25 117q11 -3 28 -3q39 0 61.5 19.5t32.5 63.5l110 517h137l-115 -540q-20 -95 -73.5 -137t-146.5 -42z" />
    <glyph glyph-name="uni0259" unicode="&#x259;" horiz-adv-x="599" 
d="M287 -11q-51 0 -98.5 17.5t-86.5 51.5t-56.5 92.5t-4.5 131.5h391q-1 48 -32.5 79t-88.5 31q-35 0 -67.5 -14t-49.5 -41h-144q27 80 100 127t164 47q112 0 180.5 -65.5t68.5 -173.5q0 -121 -74.5 -202t-201.5 -81zM286 100q46 0 80 24.5t48 67.5h-237q5 -48 36.5 -70
t72.5 -22z" />
    <glyph glyph-name="uni02BB" unicode="&#x2bb;" horiz-adv-x="275" 
d="M102 537l144 173h81l-102 -158q48 -32 48 -86q0 -41 -29.5 -70.5t-70.5 -29.5q-42 0 -71 29.5t-29 70.5q0 37 29 71z" />
    <glyph glyph-name="uni02BC" unicode="&#x2bc;" horiz-adv-x="277" 
d="M298 550l-144 -173h-81l102 158q-48 32 -48 86q0 41 29.5 70.5t70.5 29.5q42 0 71 -29.5t29 -70.5q0 -37 -29 -71z" />
    <glyph glyph-name="circumflex" unicode="&#x2c6;" 
d="M162 756l153 -107l-28 -101l-140 100l-211 -100l31 116z" />
    <glyph glyph-name="caron" unicode="&#x2c7;" 
d="M116 548l-153 108l27 100l140 -100l212 100l-31 -116z" />
    <glyph glyph-name="breve" unicode="&#x2d8;" 
d="M138 558q-79 0 -126 56t-29 136h81q-13 -54 12 -83.5t68 -29.5q92 2 107 113h80q-2 -84 -53.5 -138t-139.5 -54z" />
    <glyph glyph-name="dotaccent" unicode="&#x2d9;" 
d="M139 577q-31 0 -53.5 22t-22.5 53q0 32 22.5 54t53.5 22t53 -22t22 -54q0 -31 -22 -53t-53 -22z" />
    <glyph glyph-name="ring" unicode="&#x2da;" 
d="M141 543q-50 0 -86 35.5t-36 84.5t36 84.5t86 35.5t86 -35.5t36 -84.5t-36 -84.5t-86 -35.5zM141 605q25 0 42 17t17 41t-17 41t-42 17t-42 -17t-17 -41t17 -41t42 -17z" />
    <glyph glyph-name="ogonek" unicode="&#x2db;" 
d="M-32 -219q-43 0 -70.5 25t-27.5 61q0 38 26.5 73.5t70.5 59.5h137q-52 -21 -80 -46.5t-28 -48.5q0 -27 32 -27q27 0 53 15l-18 -85q-41 -27 -95 -27z" />
    <glyph glyph-name="tilde" unicode="&#x2dc;" 
d="M256 710h83l-7 -26q-15 -55 -50.5 -83.5t-83.5 -28.5q-34 0 -74.5 23t-54.5 23q-34 0 -53 -47h-83l7 26q15 55 50 83.5t83 28.5q34 0 75 -23t55 -23q34 0 53 47z" />
    <glyph glyph-name="hungarumlaut" unicode="&#x2dd;" 
d="M105 560l107 190h146l-159 -190h-94zM-81 560l106 190h147l-159 -190h-94z" />
    <glyph glyph-name="uni0401" unicode="&#x401;" horiz-adv-x="569" 
d="M307 772q-31 0 -53.5 22t-22.5 53t22.5 53.5t53.5 22.5t53 -22.5t22 -53.5t-22 -53t-53 -22zM542 772q-31 0 -53.5 22t-22.5 53t22 53.5t54 22.5q31 0 53 -22.5t22 -53.5t-22 -53t-53 -22zM23 0l151 710h442l-29 -138h-298l-31 -146h238l-30 -138h-238l-31 -150h297
l-29 -138h-442z" />
    <glyph glyph-name="uni0402" unicode="&#x402;" horiz-adv-x="768" 
d="M530 447q84 0 140.5 -60t56.5 -150q0 -124 -75.5 -187t-188.5 -63q-48 0 -92 11l28 130q31 -7 69 -7q49 0 81 27.5t32 75.5q0 41 -26.5 63t-75.5 22q-56 0 -102.5 -39t-61.5 -105l-35 -165h-146l122 572h-175l29 138h535l-29 -138h-214l-41 -193q55 68 169 68z" />
    <glyph glyph-name="uni0403" unicode="&#x403;" horiz-adv-x="519" 
d="M348 770l102 157h156l-152 -157h-106zM594 710l-29 -138h-275l-122 -572h-145l151 710h420z" />
    <glyph glyph-name="uni0404" unicode="&#x404;" horiz-adv-x="795" 
d="M399 -12q-156 0 -248.5 95t-92.5 239q0 168 109.5 284t293.5 116q132 0 220.5 -70.5t112.5 -183.5h-157q-22 53 -70 83.5t-117 30.5q-81 0 -143.5 -45t-87.5 -118h316l-28 -128h-299q12 -75 64.5 -119t138.5 -44q65 0 119 30.5t86 83.5h157q-42 -115 -138 -184.5
t-236 -69.5z" />
    <glyph glyph-name="uni0405" unicode="&#x405;" horiz-adv-x="585" 
d="M286 -12q-130 0 -199.5 70.5t-68.5 161.5h145q5 -44 40.5 -71t86.5 -27q41 0 67.5 21.5t26.5 52.5q0 32 -21.5 53t-72.5 43l-37 16q-150 66 -150 202q0 91 68.5 151.5t174.5 60.5q111 0 174.5 -65.5t65.5 -150.5h-144q-6 39 -35.5 60.5t-68.5 21.5t-64 -19.5t-25 -49.5
q0 -29 19 -47.5t58 -34.5l51 -21q154 -64 154 -214q0 -95 -66.5 -154.5t-178.5 -59.5z" />
    <glyph glyph-name="uni0406" unicode="&#x406;" horiz-adv-x="304" 
d="M23 0l151 710h144l-151 -710h-144z" />
    <glyph glyph-name="uni0407" unicode="&#x407;" horiz-adv-x="304" 
d="M183 787q-31 0 -53.5 22t-22.5 53t22.5 53.5t53.5 22.5t53 -22.5t22 -53.5t-22 -53t-53 -22zM372 787q-31 0 -53 22t-22 53t22 53.5t53 22.5q32 0 54 -22t22 -54q0 -31 -22.5 -53t-53.5 -22zM23 0l151 710h144l-151 -710h-144z" />
    <glyph glyph-name="uni0408" unicode="&#x408;" horiz-adv-x="536" 
d="M302 202l108 508h144l-113 -533q-40 -189 -224 -189q-42 0 -82 12.5t-74 37.5t-52.5 68t-14.5 98h143q-2 -39 22.5 -60t56.5 -21q69 0 86 79z" />
    <glyph glyph-name="uni0409" unicode="&#x409;" horiz-adv-x="1042" 
d="M1003 236q0 -112 -75 -174t-206 -62h-271l122 572h-221l-75 -354q-27 -128 -81 -179t-158 -51q-38 0 -76 8l28 133q23 -5 45 -5q40 0 63 24.5t37 88.5l101 473h512l-60 -283h111q91 0 147.5 -55.5t56.5 -135.5zM862 224q0 65 -85 65h-118l-32 -153h122q51 0 82 23t31 65z
" />
    <glyph glyph-name="uni040A" unicode="&#x40a;" horiz-adv-x="1043" 
d="M23 0l151 710h144l-60 -283h295l60 283h145l-61 -283h104q91 0 147 -55.5t56 -135.5q0 -112 -75 -174t-206 -62h-261l62 289h-295l-62 -289h-144zM778 289h-110l-33 -153h115q51 0 82 23t31 65q0 65 -85 65z" />
    <glyph glyph-name="uni040B" unicode="&#x40b;" horiz-adv-x="769" 
d="M110 710h535l-29 -138h-214l-41 -194q59 69 168 69q103 0 156.5 -78.5t28.5 -193.5l-38 -175h-143l37 177q13 62 -10.5 97t-80.5 35q-60 0 -105.5 -42t-62.5 -120l-31 -147h-146l121 572h-174z" />
    <glyph glyph-name="uni040C" unicode="&#x40c;" horiz-adv-x="691" 
d="M407 770l102 157h156l-152 -157h-106zM23 0l151 710h143l-65 -306l318 306h182l-368 -355l279 -355h-172l-256 326l-69 -326h-143z" />
    <glyph glyph-name="uni040E" unicode="&#x40e;" horiz-adv-x="735" 
d="M488 750q-75 0 -123 49t-32 126h87q-8 -47 13.5 -71.5t58.5 -24.5t66 25.5t33 70.5h89q-10 -82 -62 -128.5t-130 -46.5zM268 710l117 -380l273 380h174l-386 -537q-74 -103 -135 -144t-150 -41q-52 0 -98 11l28 133q33 -7 66 -7q80 0 115 54l2 2l-163 529h157z" />
    <glyph glyph-name="uni040F" unicode="&#x40f;" horiz-adv-x="729" 
d="M374 0l-31 -148h-132l31 148h-219l151 710h145l-122 -572h279l122 572h145l-151 -710h-218z" />
    <glyph glyph-name="uni0410" unicode="&#x410;" horiz-adv-x="745" 
d="M-56 0l457 710h130l155 -710h-140l-34 162h-301l-103 -162h-164zM292 289h193l-48 227z" />
    <glyph glyph-name="uni0411" unicode="&#x411;" horiz-adv-x="640" 
d="M389 444q91 0 151 -57.5t60 -139.5q0 -120 -77 -183.5t-215 -63.5h-285l151 710h467l-29 -138h-323l-27 -128h127zM330 134q56 0 91 25.5t35 71.5q0 37 -24.5 58.5t-66.5 21.5h-132l-37 -177h134z" />
    <glyph glyph-name="uni0412" unicode="&#x412;" horiz-adv-x="635" 
d="M23 0l151 710h211q97 0 155 -53t58 -126q0 -106 -88 -165q76 -46 76 -139q0 -100 -73 -163.5t-208 -63.5h-282zM256 419h87q52 0 81.5 25.5t29.5 64.5q0 29 -21 48.5t-58 19.5h-86zM195 134h124q58 0 90.5 25.5t32.5 64.5q0 31 -21.5 51.5t-59.5 20.5h-132z" />
    <glyph glyph-name="uni0413" unicode="&#x413;" horiz-adv-x="519" 
d="M594 710l-29 -138h-275l-122 -572h-145l151 710h420z" />
    <glyph glyph-name="uni0414" unicode="&#x414;" horiz-adv-x="775" 
d="M524 -148l31 148h-453l-31 -148h-131l60 286h13q45 0 77.5 44t55.5 153l79 375h520l-122 -572h91l-60 -286h-130zM341 572l-52 -245q-16 -76 -31.5 -117.5t-41.5 -71.5h262l93 434h-230z" />
    <glyph glyph-name="uni0415" unicode="&#x415;" horiz-adv-x="569" 
d="M23 0l151 710h442l-29 -138h-298l-31 -146h238l-30 -138h-238l-31 -150h297l-29 -138h-442z" />
    <glyph glyph-name="uni0416" unicode="&#x416;" horiz-adv-x="1019" 
d="M117 0h-191l398 373l-211 337h156l195 -315l67 315h145l-66 -312l309 312h181l-361 -361l242 -349h-170l-219 311l-66 -311h-145l65 308z" />
    <glyph glyph-name="uni0417" unicode="&#x417;" horiz-adv-x="601" 
d="M242 515h-145q22 101 92 154t166 53t161 -52.5t65 -139.5q0 -119 -100 -175q61 -50 61 -136q0 -108 -70.5 -169t-183.5 -61q-116 0 -192 63t-84 163h144q10 -44 46 -67.5t88 -23.5q51 0 80.5 29.5t29.5 68.5q0 36 -25 59t-71 23h-74l26 122h76q51 0 80 22.5t29 64.5
q0 35 -25 55t-64 20q-83 0 -110 -73z" />
    <glyph glyph-name="uni0418" unicode="&#x418;" horiz-adv-x="794" 
d="M23 0l150 710h145l-95 -449l459 449h125l-150 -710h-145l96 450l-460 -450h-125z" />
    <glyph glyph-name="uni0419" unicode="&#x419;" horiz-adv-x="794" 
d="M526 750q-75 0 -123 49t-32 126h87q-8 -47 13.5 -71.5t58.5 -24.5t66 25.5t33 70.5h89q-10 -82 -62 -128.5t-130 -46.5zM23 0l150 710h145l-95 -449l459 449h125l-150 -710h-145l96 450l-460 -450h-125z" />
    <glyph glyph-name="uni041A" unicode="&#x41a;" horiz-adv-x="691" 
d="M23 0l151 710h143l-65 -306l318 306h182l-368 -355l279 -355h-172l-256 326l-69 -326h-143z" />
    <glyph glyph-name="uni041B" unicode="&#x41b;" horiz-adv-x="742" 
d="M135 237l101 473h520l-151 -710h-145l122 572h-230l-75 -354q-27 -128 -81 -179t-158 -51q-38 0 -76 8l28 133q23 -5 45 -5q40 0 63 24.5t37 88.5z" />
    <glyph glyph-name="uni041C" unicode="&#x41c;" horiz-adv-x="885" 
d="M23 0l151 710h132l154 -321l307 321h132l-151 -710h-145l95 448l-278 -290l-152 316l-101 -474h-144z" />
    <glyph glyph-name="uni041D" unicode="&#x41d;" horiz-adv-x="757" 
d="M23 0l151 710h144l-60 -283h309l60 283h144l-151 -710h-144l61 289h-308l-62 -289h-144z" />
    <glyph glyph-name="uni041E" unicode="&#x41e;" horiz-adv-x="825" 
d="M399 -12q-156 0 -248 95t-92 239q0 169 109.5 284.5t293.5 115.5q156 0 248 -95t92 -239q0 -168 -109.5 -284t-293.5 -116zM411 128q103 0 174 71.5t71 175.5q0 93 -53.5 150t-152.5 57q-104 0 -174.5 -71.5t-70.5 -175.5q0 -94 53.5 -150.5t152.5 -56.5z" />
    <glyph glyph-name="uni041F" unicode="&#x41f;" horiz-adv-x="750" 
d="M468 0l121 572h-300l-121 -572h-145l150 710h590l-150 -710h-145z" />
    <glyph glyph-name="uni0420" unicode="&#x420;" horiz-adv-x="598" 
d="M23 0l151 710h201q104 0 171.5 -62.5t67.5 -150.5q0 -115 -75.5 -190t-225.5 -75h-96l-50 -232h-144zM245 367h93q56 0 93.5 33.5t37.5 82.5q0 39 -24.5 65t-76.5 26h-79z" />
    <glyph glyph-name="uni0421" unicode="&#x421;" horiz-adv-x="795" 
d="M399 -12q-156 0 -248.5 95t-92.5 239q0 168 109.5 284t293.5 116q132 0 220.5 -70.5t112.5 -183.5h-157q-22 53 -70 83.5t-117 30.5q-104 0 -174.5 -71.5t-70.5 -175.5q0 -93 53.5 -150t152.5 -57q65 0 119 30.5t86 83.5h157q-42 -115 -138 -184.5t-236 -69.5z" />
    <glyph glyph-name="uni0422" unicode="&#x422;" horiz-adv-x="560" 
d="M149 0l122 572h-190l29 138h526l-29 -138h-191l-122 -572h-145z" />
    <glyph glyph-name="uni0423" unicode="&#x423;" horiz-adv-x="735" 
d="M268 710l117 -380l273 380h174l-386 -537q-74 -103 -135 -144t-150 -41q-52 0 -98 11l28 133q33 -7 66 -7q80 0 115 54l2 2l-163 529h157z" />
    <glyph glyph-name="uni0424" unicode="&#x424;" horiz-adv-x="907" 
d="M539 58h-59l-19 -88h-143l19 88q-129 7 -203.5 87.5t-74.5 196.5q0 133 90 224.5t257 91.5h59l17 82h145l-18 -83q128 -6 202.5 -86.5t74.5 -195.5q0 -133 -90.5 -225t-256.5 -92zM205 347q0 -68 42 -112t118 -44l71 335h-49q-78 0 -130 -50t-52 -129zM558 191
q77 0 129 50.5t52 129.5q0 66 -40.5 109.5t-117.5 45.5l-72 -335h49z" />
    <glyph glyph-name="uni0425" unicode="&#x425;" horiz-adv-x="692" 
d="M486 0l-135 250l-240 -250h-174l346 367l-184 343h156l129 -239l222 239h173l-331 -361l194 -349h-156z" />
    <glyph glyph-name="uni0426" unicode="&#x426;" horiz-adv-x="771" 
d="M619 138h92l-61 -286h-131l32 148h-528l150 710h145l-121 -572h276l122 572h145z" />
    <glyph glyph-name="uni0427" unicode="&#x427;" horiz-adv-x="679" 
d="M542 0h-145l67 316q-63 -72 -174 -72q-108 0 -166 79.5t-34 196.5l39 190h146l-40 -190q-14 -65 13 -101t90 -36q65 0 112 42.5t63 119.5l35 165h145z" />
    <glyph glyph-name="uni0428" unicode="&#x428;" horiz-adv-x="980" 
d="M23 0l150 710h145l-121 -572h192l121 572h146l-121 -572h192l121 572h145l-150 -710h-820z" />
    <glyph glyph-name="uni0429" unicode="&#x429;" horiz-adv-x="1024" 
d="M772 -148l32 148h-781l150 710h145l-121 -572h192l121 572h146l-121 -572h192l121 572h145l-121 -572h92l-61 -286h-131z" />
    <glyph glyph-name="uni042A" unicode="&#x42a;" horiz-adv-x="726" 
d="M79 572l29 138h322l-55 -256h97q101 0 158.5 -59t57.5 -144q0 -118 -77.5 -184.5t-223.5 -66.5h-253l121 572h-176zM448 320h-101l-40 -186h107q61 0 97 27.5t36 77.5q0 38 -26 59.5t-73 21.5z" />
    <glyph glyph-name="uni042B" unicode="&#x42b;" horiz-adv-x="900" 
d="M361 454q100 0 158 -59t58 -144q0 -118 -77.5 -184.5t-223.5 -66.5h-253l151 710h144l-54 -256h97zM618 0l151 710h144l-151 -710h-144zM196 134h107q61 0 97 27.5t36 77.5q0 38 -26 59.5t-73 21.5h-102z" />
    <glyph glyph-name="uni042C" unicode="&#x42c;" horiz-adv-x="614" 
d="M361 454q100 0 158 -59t58 -144q0 -118 -77.5 -184.5t-223.5 -66.5h-253l151 710h144l-54 -256h97zM196 134h107q61 0 97 27.5t36 77.5q0 38 -26 59.5t-73 21.5h-102z" />
    <glyph glyph-name="uni042D" unicode="&#x42d;" horiz-adv-x="796" 
d="M325 419h299q-12 76 -64.5 120t-138.5 44q-66 0 -119.5 -30.5t-85.5 -83.5h-157q41 115 137 184.5t236 69.5q156 0 248.5 -95t92.5 -239q0 -109 -47 -199t-139.5 -145.5t-215.5 -55.5q-132 0 -220.5 70.5t-112.5 183.5h157q22 -53 69.5 -83.5t117.5 -30.5
q80 0 142.5 44.5t88.5 117.5h-316z" />
    <glyph glyph-name="uni042E" unicode="&#x42e;" horiz-adv-x="1092" 
d="M23 0l150 710h145l-61 -286h101q31 132 132.5 215t248.5 83t239 -96t92 -238q0 -169 -108.5 -284.5t-283.5 -115.5q-138 0 -228 85.5t-102 215.5h-118l-62 -289h-145zM727 582q-99 0 -166.5 -70t-67.5 -177q0 -94 51.5 -150.5t144.5 -56.5q99 0 166.5 70t67.5 177
q0 94 -51.5 150.5t-144.5 56.5z" />
    <glyph glyph-name="uni042F" unicode="&#x42f;" horiz-adv-x="651" 
d="M-75 0l299 283q-44 28 -70 73.5t-26 100.5q0 120 80.5 186.5t214.5 66.5h242l-150 -710h-146l52 246h-52l-257 -246h-187zM403 578q-61 0 -97 -30.5t-36 -81.5q0 -40 26 -64t74 -24h80l42 200h-89z" />
    <glyph glyph-name="uni0430" unicode="&#x430;" horiz-adv-x="620" 
d="M231 -8q-86 0 -141 63.5t-55 158.5q0 128 75 212.5t188 84.5q57 0 100 -25.5t58 -54.5l14 69h137l-106 -500h-137l9 44q-50 -52 -142 -52zM280 110q61 0 102 46t41 114q0 54 -28.5 85t-79.5 31q-61 0 -102 -45.5t-41 -113.5q0 -55 28.5 -86t79.5 -31z" />
    <glyph glyph-name="uni0431" unicode="&#x431;" horiz-adv-x="606" 
d="M283 -10q-121 0 -189.5 90t-37.5 233l8 37q21 97 51 161.5t76.5 107.5t105 66.5t144.5 37.5l186 31l-27 -133l-151 -25q-91 -15 -143 -48.5t-76 -100.5q50 40 127 40q93 0 152.5 -61t59.5 -159q0 -116 -77 -196.5t-209 -80.5zM317 369q-60 0 -98 -40.5t-38 -99.5
q0 -51 31 -81.5t83 -30.5q61 0 98.5 39.5t37.5 98.5q0 53 -30.5 83.5t-83.5 30.5z" />
    <glyph glyph-name="uni0432" unicode="&#x432;" horiz-adv-x="562" 
d="M13 0l106 500h240q68 0 111 -41t43 -97q0 -70 -53 -110q45 -33 45 -95q0 -66 -51 -111.5t-147 -45.5h-294zM216 303h100q30 0 46 13.5t16 37.5q0 41 -47 41h-96zM175 112h128q32 0 49 15t17 40q0 20 -13.5 32t-35.5 12h-124z" />
    <glyph glyph-name="uni0433" unicode="&#x433;" horiz-adv-x="428" 
d="M13 0l106 500h345l-26 -120h-207l-81 -380h-137z" />
    <glyph glyph-name="uni0434" unicode="&#x434;" horiz-adv-x="654" 
d="M16 120q35 0 58.5 29.5t38.5 99.5l54 251h430l-81 -380h81l-52 -243h-122l26 123h-349l-26 -123h-122l51 243h13zM249 241q-18 -86 -49 -121h179l55 260h-156z" />
    <glyph glyph-name="uni0435" unicode="&#x435;" horiz-adv-x="593" 
d="M275 -11q-108 0 -173.5 69.5t-65.5 168.5q0 124 77.5 204t206.5 80q116 0 186.5 -81.5t46.5 -211.5h-389q4 -50 38 -80t82 -30q78 0 112 55h145q-72 -174 -266 -174zM306 400q-44 0 -81.5 -24t-51.5 -68h243q-5 45 -36 68.5t-74 23.5z" />
    <glyph glyph-name="uni0436" unicode="&#x436;" horiz-adv-x="819" 
d="M114 0h-178l293 264l-149 236h146l125 -204l43 204h137l-43 -202l202 202h163l-257 -256l183 -244h-156l-155 203l-43 -203h-137l42 199z" />
    <glyph glyph-name="uni0437" unicode="&#x437;" horiz-adv-x="505" 
d="M230 -11q-87 0 -150.5 45t-78.5 123h141q17 -56 91 -56q34 0 54 16.5t20 44.5q0 48 -58 48h-55l20 94h55q68 0 68 51q0 23 -16.5 36t-46.5 13q-60 0 -82 -51h-138q22 80 81.5 119t143.5 39q88 0 138 -41t50 -108q0 -77 -67 -114q45 -34 45 -98q0 -65 -55.5 -113
t-159.5 -48z" />
    <glyph glyph-name="uni0438" unicode="&#x438;" horiz-adv-x="616" 
d="M13 0l106 500h137l-59 -281l283 281h123l-106 -500h-137l61 284l-285 -284h-123z" />
    <glyph glyph-name="uni0439" unicode="&#x439;" horiz-adv-x="616" 
d="M402 558q-79 0 -126 56t-29 136h90q-13 -54 8 -83.5t63 -29.5q41 1 65.5 27t32.5 86h89q-2 -84 -53.5 -138t-139.5 -54zM13 0l106 500h137l-59 -281l283 281h123l-106 -500h-137l61 284l-285 -284h-123z" />
    <glyph glyph-name="uni043A" unicode="&#x43a;" horiz-adv-x="549" 
d="M13 0l106 500h137l-42 -200l207 200h168l-259 -250l185 -250h-160l-160 212l-45 -212h-137z" />
    <glyph glyph-name="uni043B" unicode="&#x43b;" horiz-adv-x="612" 
d="M43 -10q-39 0 -77 9l25 115q30 -5 41 -5q31 0 46.5 17t25.5 62l67 312h428l-106 -500h-137l80 380h-154l-42 -200q-22 -104 -68.5 -147t-128.5 -43z" />
    <glyph glyph-name="uni043C" unicode="&#x43c;" horiz-adv-x="694" 
d="M318 108l-105 189l-63 -297h-137l106 500h116l115 -206l215 206h115l-106 -500h-137l60 280z" />
    <glyph glyph-name="uni043D" unicode="&#x43d;" horiz-adv-x="613" 
d="M13 0l106 500h137l-40 -189h206l40 189h137l-106 -500h-137l41 192h-206l-41 -192h-137z" />
    <glyph glyph-name="uni043E" unicode="&#x43e;" horiz-adv-x="596" 
d="M276 -12q-113 0 -177 70t-64 169q0 121 79.5 202.5t205.5 81.5q113 0 176.5 -70t63.5 -169q0 -121 -79 -202.5t-205 -81.5zM287 116q58 0 96.5 41.5t38.5 102.5q0 57 -30.5 90t-83.5 33q-58 0 -96 -41.5t-38 -102.5q0 -56 30 -89.5t83 -33.5z" />
    <glyph glyph-name="uni043F" unicode="&#x43f;" horiz-adv-x="603" 
d="M13 0l106 500h470l-106 -500h-137l81 380h-196l-81 -380h-137z" />
    <glyph glyph-name="uni0440" unicode="&#x440;" horiz-adv-x="620" 
d="M-31 -209l150 709h137l-9 -44q50 52 142 52q86 0 141 -63.5t55 -158.5q0 -128 -74.5 -212.5t-187.5 -84.5q-58 0 -100.5 25.5t-57.5 54.5l-59 -278h-137zM305 114q61 0 102 45.5t41 113.5q0 55 -28.5 86t-79.5 31q-61 0 -102 -46t-41 -114q0 -54 28.5 -85t79.5 -31z" />
    <glyph glyph-name="uni0441" unicode="&#x441;" horiz-adv-x="586" 
d="M276 -11q-113 0 -177 70t-64 168q0 121 79.5 202.5t205.5 81.5q102 0 164 -57.5t74 -144.5h-142q-12 35 -39.5 56t-67.5 21q-58 0 -96.5 -43t-38.5 -104q0 -57 30.5 -92t82.5 -35q38 0 70 22t49 57h143q-24 -92 -94 -147t-179 -55z" />
    <glyph glyph-name="uni0442" unicode="&#x442;" horiz-adv-x="456" 
d="M102 0l81 380h-139l26 120h423l-25 -120h-148l-81 -380h-137z" />
    <glyph glyph-name="uni0443" unicode="&#x443;" horiz-adv-x="569" 
d="M257 -63q-58 -90 -105.5 -122.5t-122.5 -32.5q-45 0 -79 9l25 115q23 -5 49 -5q54 0 99 69l40 61l-109 469h136l73 -314l203 314h156z" />
    <glyph glyph-name="uni0444" unicode="&#x444;" horiz-adv-x="768" 
d="M356 -209h-137l42 198q-103 4 -164 70.5t-61 165.5q0 121 77.5 203.5t210.5 82.5h47l50 239h137l-50 -239q103 -4 164 -71t61 -165q0 -121 -77.5 -203.5t-210.5 -82.5h-47zM174 232q0 -49 30.5 -81.5t82.5 -36.5l57 271h-25q-63 0 -104 -43t-41 -110zM450 114
q62 0 103.5 43.5t41.5 110.5q0 49 -30.5 81t-83.5 36l-57 -271h26z" />
    <glyph glyph-name="uni0445" unicode="&#x445;" horiz-adv-x="559" 
d="M-52 0l248 246l-135 254h146l86 -163l154 163h165l-254 -265l136 -235h-147l-85 148l-148 -148h-166z" />
    <glyph glyph-name="uni0446" unicode="&#x446;" horiz-adv-x="645" 
d="M591 120l-51 -243h-123l26 123h-430l106 500h137l-80 -380h196l80 380h137l-80 -380h82z" />
    <glyph glyph-name="uni0447" unicode="&#x447;" horiz-adv-x="560" 
d="M440 0h-138l43 201q-46 -51 -130 -51q-81 0 -130 60.5t-31 149.5l29 140h138l-29 -133q-10 -49 11.5 -72.5t60.5 -23.5t73 27t46 81l26 121h137z" />
    <glyph glyph-name="uni0448" unicode="&#x448;" horiz-adv-x="833" 
d="M13 0l106 500h137l-80 -380h145l80 380h137l-80 -380h145l80 380h137l-106 -500h-701z" />
    <glyph glyph-name="uni0449" unicode="&#x449;" horiz-adv-x="878" 
d="M822 120l-52 -243h-122l26 123h-661l106 500h137l-80 -380h145l80 380h137l-80 -380h145l80 380h137l-80 -380h82z" />
    <glyph glyph-name="uni044A" unicode="&#x44a;" horiz-adv-x="581" 
d="M300 351h75q73 0 119 -47t46 -116q0 -83 -56.5 -135.5t-158.5 -52.5h-237l80 381h-125l26 119h262zM326 117q39 0 61.5 17.5t22.5 48.5q0 51 -61 51h-74l-25 -117h76z" />
    <glyph glyph-name="uni044B" unicode="&#x44b;" horiz-adv-x="752" 
d="M495 0l106 500h137l-106 -500h-137zM13 0l106 500h138l-31 -149h75q73 0 119 -47t46 -116q0 -82 -56.5 -135t-158.5 -53h-238zM201 234l-25 -117h76q39 0 61.5 17.5t22.5 48.5q0 51 -61 51h-74z" />
    <glyph glyph-name="uni044C" unicode="&#x44c;" horiz-adv-x="508" 
d="M13 0l106 500h138l-31 -149h75q73 0 119 -47t46 -116q0 -82 -56.5 -135t-158.5 -53h-238zM201 234l-25 -117h76q39 0 61.5 17.5t22.5 48.5q0 51 -61 51h-74z" />
    <glyph glyph-name="uni044D" unicode="&#x44d;" horiz-adv-x="585" 
d="M310 511q113 0 177 -70t64 -168q0 -121 -79 -202.5t-206 -81.5q-102 0 -164 57.5t-74 144.5h142q12 -35 39.5 -56t67.5 -21q45 0 78.5 26.5t48.5 69.5h-171l19 91h156q-10 41 -38 64t-70 23q-39 0 -71 -22t-49 -57h-143q24 92 94 147t179 55z" />
    <glyph glyph-name="uni044E" unicode="&#x44e;" horiz-adv-x="820" 
d="M216 310h70q25 90 96 145.5t170 55.5q109 0 170.5 -70t61.5 -169q0 -121 -77 -202.5t-199 -81.5q-98 0 -158.5 58t-72.5 145h-86l-41 -191h-137l106 500h137zM519 116q54 0 90.5 42t36.5 102q0 57 -28.5 90t-77.5 33q-53 0 -90 -42t-37 -102q0 -56 29 -89.5t77 -33.5z
" />
    <glyph glyph-name="uni044F" unicode="&#x44f;" horiz-adv-x="542" 
d="M-63 0l219 204q-67 45 -67 122q0 76 53.5 125t150.5 49h236l-106 -500h-137l33 158h-46l-170 -158h-166zM343 268l26 121h-73q-38 0 -58 -18t-20 -46q0 -26 17 -41.5t48 -15.5h60z" />
    <glyph glyph-name="uni0451" unicode="&#x451;" horiz-adv-x="593" 
d="M234 577q-32 0 -54.5 22t-22.5 53q0 32 22.5 54t54.5 22q30 0 52 -22.5t22 -53.5t-22 -53t-52 -22zM468 577q-31 0 -53.5 22t-22.5 53q0 32 22 54t54 22q31 0 53 -22.5t22 -53.5t-22 -53t-53 -22zM275 -11q-108 0 -173.5 69.5t-65.5 168.5q0 124 77.5 204t206.5 80
q116 0 186.5 -81.5t46.5 -211.5h-389q4 -50 38 -80t82 -30q78 0 112 55h145q-72 -174 -266 -174zM306 400q-44 0 -81.5 -24t-51.5 -68h243q-5 45 -36 68.5t-74 23.5z" />
    <glyph glyph-name="uni0452" unicode="&#x452;" horiz-adv-x="598" 
d="M346 -17l61 286q12 55 -7.5 86.5t-64.5 31.5q-103 0 -132 -138l-53 -249h-137l123 577h-88l19 91h88l17 82h137l-17 -82h166l-19 -91h-166l-28 -129q57 62 148 62q89 0 131 -69.5t22 -161.5l-68 -319q-20 -95 -73.5 -137t-146.5 -42q-40 0 -59 5l25 117q10 -3 28 -3
q39 0 61.5 19.5t32.5 63.5z" />
    <glyph glyph-name="uni0453" unicode="&#x453;" horiz-adv-x="428" 
d="M256 560l149 190h165l-209 -190h-105zM13 0l106 500h345l-26 -120h-207l-81 -380h-137z" />
    <glyph glyph-name="uni0454" unicode="&#x454;" horiz-adv-x="587" 
d="M276 -11q-113 0 -177 70t-64 168q0 121 79.5 202.5t205.5 81.5q102 0 164 -57.5t74 -144.5h-142q-12 35 -39.5 56t-67.5 21q-41 0 -74 -23.5t-49 -61.5h170l-19 -91h-161q8 -45 37 -71.5t74 -26.5q38 0 70 22t49 57h143q-24 -92 -94 -147t-179 -55z" />
    <glyph glyph-name="uni0455" unicode="&#x455;" horiz-adv-x="494" 
d="M233 -11q-99 0 -161 47t-62 123h142q0 -32 26 -48.5t61 -16.5q28 0 45 11.5t17 29.5q0 35 -52 52l-72 24q-111 38 -111 144q0 73 53 114.5t151 41.5q79 0 136 -44t60 -114h-137q-2 27 -22 39t-44 12q-26 0 -41.5 -10.5t-15.5 -29.5q0 -32 44 -47l60 -20q130 -44 130 -150
q0 -74 -56 -116t-151 -42z" />
    <glyph glyph-name="uni0456" unicode="&#x456;" horiz-adv-x="270" 
d="M224 582q-35 0 -61 25.5t-26 61.5t26 61.5t61 25.5q37 0 62.5 -25.5t25.5 -61.5t-25.5 -61.5t-62.5 -25.5zM13 0l106 500h137l-106 -500h-137z" />
    <glyph glyph-name="uni0457" unicode="&#x457;" horiz-adv-x="270" 
d="M125 577q-31 0 -53.5 22t-22.5 53q0 32 22.5 54t53.5 22t53 -22.5t22 -53.5t-22 -53t-53 -22zM314 577q-31 0 -53 22t-22 53t22 53.5t53 22.5t53 -22.5t22 -53.5t-22 -53t-53 -22zM13 0l106 500h137l-106 -500h-137z" />
    <glyph glyph-name="uni0458" unicode="&#x458;" horiz-adv-x="277" 
d="M231 582q-35 0 -61 25.5t-26 61.5t26 61.5t61 25.5q37 0 62.5 -25.5t25.5 -61.5t-25.5 -61.5t-62.5 -25.5zM-72 -219q-40 0 -59 5l25 117q11 -3 28 -3q39 0 61.5 19.5t32.5 63.5l110 517h137l-115 -540q-20 -95 -73.5 -137t-146.5 -42z" />
    <glyph glyph-name="uni0459" unicode="&#x459;" horiz-adv-x="833" 
d="M239 180q-22 -104 -68 -147t-129 -43q-32 0 -76 7l26 117q18 -5 39 -5q28 0 45.5 17.5t26.5 61.5l67 312h425l-40 -189h82q68 0 110.5 -41t42.5 -103q0 -74 -51.5 -120.5t-145.5 -46.5h-241l80 380h-151zM597 115q64 0 64 46q0 36 -48 36h-82l-18 -82h84z" />
    <glyph glyph-name="uni045A" unicode="&#x45a;" horiz-adv-x="828" 
d="M256 500l-40 -189h196l40 189h137l-40 -189h83q68 0 110.5 -41t42.5 -103q0 -74 -52 -120.5t-146 -46.5h-241l41 192h-196l-41 -192h-137l106 500h137zM592 115q63 0 63 46q0 36 -47 36h-82l-18 -82h84z" />
    <glyph glyph-name="uni045B" unicode="&#x45b;" horiz-adv-x="598" 
d="M150 0h-137l123 577h-88l19 91h88l17 82h137l-17 -82h166l-19 -91h-166l-28 -129q57 62 148 62q89 0 131 -69.5t22 -161.5l-59 -279h-137l57 269q12 55 -7.5 86.5t-64.5 31.5q-103 0 -132 -138z" />
    <glyph glyph-name="uni045C" unicode="&#x45c;" horiz-adv-x="549" 
d="M302 560l149 190h165l-209 -190h-105zM13 0l106 500h137l-42 -200l207 200h168l-259 -250l185 -250h-160l-160 212l-45 -212h-137z" />
    <glyph glyph-name="uni045E" unicode="&#x45e;" horiz-adv-x="569" 
d="M359 558q-79 0 -126 56t-29 136h90q-13 -54 8 -83.5t63 -29.5q41 1 65.5 27t32.5 86h89q-2 -84 -53.5 -138t-139.5 -54zM257 -63q-58 -90 -105.5 -122.5t-122.5 -32.5q-45 0 -79 9l25 115q23 -5 49 -5q54 0 99 69l40 61l-109 469h136l73 -314l203 314h156z" />
    <glyph glyph-name="uni045F" unicode="&#x45f;" horiz-adv-x="604" 
d="M485 0h-175l-26 -123h-122l26 123h-175l106 500h137l-80 -379h197l81 379h137z" />
    <glyph glyph-name="uni0462" unicode="&#x462;" horiz-adv-x="746" 
d="M74 516l26 127h180l15 67h145l-14 -67h218l-27 -127h-218l-13 -62h97q100 0 158 -59t58 -144q0 -118 -77.5 -184.5t-223.5 -66.5h-253l109 516h-180zM425 134q61 0 97 27.5t36 77.5q0 38 -26 59.5t-73 21.5h-102l-39 -186h107z" />
    <glyph glyph-name="uni0463" unicode="&#x463;" horiz-adv-x="563" 
d="M49 410l19 90h99l53 250h137l-53 -250h170l-19 -90h-170l-12 -59h75q73 0 119 -47t46 -116q0 -82 -56 -135t-159 -53h-237l87 410h-99zM248 234l-24 -117h75q39 0 62 17.5t23 48.5q0 51 -61 51h-75z" />
    <glyph glyph-name="uni0472" unicode="&#x472;" horiz-adv-x="825" 
d="M399 -12q-156 0 -248 95t-92 239q0 169 109.5 284.5t293.5 115.5q156 0 248 -95t92 -239q0 -168 -109.5 -284t-293.5 -116zM540 399q54 0 112 24q-13 73 -65 116t-137 43t-149.5 -49.5t-86.5 -128.5q61 34 134 34q46 0 103 -19.5t89 -19.5zM411 128q84 0 149 50t87 129
q-63 -34 -134 -34q-37 0 -99 19t-94 19q-57 0 -111 -23q12 -74 64 -117t138 -43z" />
    <glyph glyph-name="uni0473" unicode="&#x473;" horiz-adv-x="596" 
d="M276 -12q-113 0 -177 70t-64 169q0 121 79.5 202.5t205.5 81.5q113 0 176.5 -70t63.5 -169q0 -121 -79 -202.5t-205 -81.5zM308 383q-43 0 -76.5 -24.5t-48.5 -65.5h236q-8 42 -37 66t-74 24zM287 116q44 0 78 25t48 65h-236q8 -42 37 -66t73 -24z" />
    <glyph glyph-name="uni0474" unicode="&#x474;" horiz-adv-x="788" 
d="M783 722q45 0 80 -14l-30 -134q-53 11 -84.5 -1.5t-68.5 -72.5l-314 -500h-129l-143 710h145l97 -500l213 344q60 98 108 133t126 35z" />
    <glyph glyph-name="uni0475" unicode="&#x475;" horiz-adv-x="600" 
d="M187 500l69 -329l129 203q51 80 93.5 109t100.5 29q31 0 63 -10l-25 -117q-38 5 -61 -7t-47 -49l-216 -329h-126l-115 500h135z" />
    <glyph glyph-name="uni0490" unicode="&#x490;" horiz-adv-x="519" 
d="M594 710l-29 -138h-275l-122 -572h-145l151 710h289l31 148h131z" />
    <glyph glyph-name="uni0491" unicode="&#x491;" horiz-adv-x="428" 
d="M13 0l106 500h222l26 123h123l-26 -123l-26 -120h-207l-81 -380h-137z" />
    <glyph glyph-name="uni0492" unicode="&#x492;" horiz-adv-x="550" 
d="M24 292l27 128h89l62 290h420l-29 -138h-275l-32 -152h162l-26 -128h-164l-62 -292h-145l62 292h-89z" />
    <glyph glyph-name="uni0493" unicode="&#x493;" horiz-adv-x="459" 
d="M45 0l42 197h-80l20 90h79l45 213h345l-26 -120h-207l-20 -93h107l-20 -90h-106l-42 -197h-137z" />
    <glyph glyph-name="uni0496" unicode="&#x496;" horiz-adv-x="1050" 
d="M117 0h-191l398 373l-211 337h156l195 -315l67 315h145l-66 -312l309 312h181l-361 -361l147 -211h130l-60 -286h-131l31 148h-45l-219 311l-66 -311h-145l65 308z" />
    <glyph glyph-name="uni0497" unicode="&#x497;" horiz-adv-x="843" 
d="M114 0h-178l293 264l-149 236h146l125 -204l43 204h137l-43 -202l202 202h163l-257 -256l93 -124h119l-52 -243h-122l26 123h-37l-155 203l-43 -203h-137l42 199z" />
    <glyph glyph-name="uni049A" unicode="&#x49a;" horiz-adv-x="725" 
d="M23 0l151 710h143l-65 -306l318 306h182l-368 -355l170 -217h144l-60 -286h-131l31 148h-47l-256 326l-69 -326h-143z" />
    <glyph glyph-name="uni049B" unicode="&#x49b;" horiz-adv-x="574" 
d="M13 0l106 500h137l-42 -200l207 200h168l-259 -250l96 -130h118l-52 -243h-122l26 123h-41l-160 212l-45 -212h-137z" />
    <glyph glyph-name="uni04A2" unicode="&#x4a2;" horiz-adv-x="801" 
d="M23 0l151 710h144l-60 -283h309l60 283h144l-122 -572h93l-60 -286h-131l31 148h-106l61 289h-308l-62 -289h-144z" />
    <glyph glyph-name="uni04A3" unicode="&#x4a3;" horiz-adv-x="656" 
d="M13 0l106 500h137l-40 -189h206l40 189h137l-81 -380h82l-52 -243h-122l26 123h-96l41 192h-206l-41 -192h-137z" />
    <glyph glyph-name="uni04AE" unicode="&#x4ae;" horiz-adv-x="690" 
d="M215 0l63 299l-174 411h151l112 -276l230 276h177l-350 -412l-63 -298h-146z" />
    <glyph glyph-name="uni04AF" unicode="&#x4af;" horiz-adv-x="571" 
d="M120 -209l44 210l-111 499h135l74 -327l210 327h153l-324 -500l-44 -209h-137z" />
    <glyph glyph-name="uni04B0" unicode="&#x4b0;" horiz-adv-x="679" 
d="M211 0l36 170h-147l27 129h147l-174 411h151l112 -276l230 276h177l-349 -411h144l-26 -129h-146l-36 -170h-146z" />
    <glyph glyph-name="uni04B1" unicode="&#x4b1;" horiz-adv-x="572" 
d="M18 -90l19 90h128v1l-111 499h135l74 -327l210 327h153l-324 -500h128l-19 -90h-128l-25 -119h-137l25 119h-128z" />
    <glyph glyph-name="uni04B2" unicode="&#x4b2;" horiz-adv-x="736" 
d="M513 -148l31 148h-58l-135 250l-240 -250h-174l346 367l-184 343h156l129 -239l222 239h173l-331 -361l117 -211h139l-60 -286h-131z" />
    <glyph glyph-name="uni04B3" unicode="&#x4b3;" horiz-adv-x="586" 
d="M-52 0l248 246l-135 254h146l86 -163l154 163h165l-254 -265l67 -115h118l-52 -243h-122l26 123h-48l-85 148l-148 -148h-166z" />
    <glyph glyph-name="uni04B6" unicode="&#x4b6;" horiz-adv-x="723" 
d="M473 -148l31 148h-107l67 316q-63 -72 -174 -72q-108 0 -166 79.5t-34 196.5l39 190h146l-40 -190q-14 -65 13 -101t90 -36q65 0 112 42.5t63 119.5l35 165h145l-122 -572h93l-60 -286h-131z" />
    <glyph glyph-name="uni04B7" unicode="&#x4b7;" horiz-adv-x="605" 
d="M374 -123l26 123h-98l43 201q-46 -51 -130 -51q-81 0 -130 60.5t-31 149.5l29 140h138l-29 -133q-10 -49 11.5 -72.5t60.5 -23.5t73 27t46 81l26 121h137l-81 -380h83l-52 -243h-122z" />
    <glyph glyph-name="uni04BA" unicode="&#x4ba;" horiz-adv-x="681" 
d="M174 710h145l-67 -316q63 72 174 72q108 0 166 -79.5t34 -196.5l-39 -190h-146l40 190q14 65 -13 101t-90 36q-65 0 -112 -42.5t-63 -119.5l-35 -165h-145z" />
    <glyph glyph-name="uni04BB" unicode="&#x4bb;" horiz-adv-x="598" 
d="M13 0l159 750h137l-64 -302q57 62 148 62q89 0 131 -69.5t22 -161.5l-59 -279h-137l57 269q12 55 -7.5 86.5t-64.5 31.5q-103 0 -132 -138l-53 -249h-137z" />
    <glyph glyph-name="uni04C0" unicode="&#x4c0;" horiz-adv-x="304" 
d="M23 0l151 710h144l-151 -710h-144z" />
    <glyph glyph-name="uni04CF" unicode="&#x4cf;" horiz-adv-x="270" 
d="M13 0l159 750h137l-159 -750h-137z" />
    <glyph glyph-name="uni04D8" unicode="&#x4d8;" horiz-adv-x="821" 
d="M395 -12q-156 0 -248 95t-92 239q0 47 7 83h588q-8 82 -61.5 129.5t-144.5 47.5q-113 0 -182 -82h-169q46 102 139.5 162t223.5 60q157 0 249.5 -95t92.5 -239q0 -169 -109.5 -284.5t-293.5 -115.5zM407 128q76 0 137 41t89 109h-424q14 -67 66 -108.5t132 -41.5z" />
    <glyph glyph-name="uni04D9" unicode="&#x4d9;" horiz-adv-x="600" 
d="M287 -11q-51 0 -98.5 17.5t-86.5 51.5t-56.5 92.5t-4.5 131.5h391q-1 48 -32.5 79t-88.5 31q-35 0 -67.5 -14t-49.5 -41h-144q27 80 100 127t164 47q112 0 180.5 -65.5t68.5 -173.5q0 -121 -74.5 -202t-201.5 -81zM286 100q46 0 80 24.5t48 67.5h-237q5 -48 36.5 -70
t72.5 -22z" />
    <glyph glyph-name="uni04E2" unicode="&#x4e2;" horiz-adv-x="794" 
d="M346 791l20 96h343l-21 -96h-342zM23 0l150 710h145l-95 -449l459 449h125l-150 -710h-145l96 450l-460 -450h-125z" />
    <glyph glyph-name="uni04E3" unicode="&#x4e3;" horiz-adv-x="616" 
d="M223 613l21 97h342l-20 -97h-343zM13 0l106 500h137l-59 -281l283 281h123l-106 -500h-137l61 284l-285 -284h-123z" />
    <glyph glyph-name="uni04E8" unicode="&#x4e8;" horiz-adv-x="825" 
d="M399 -12q-156 0 -248 95t-92 239q0 169 109.5 284.5t293.5 115.5q156 0 248 -95t92 -239q0 -168 -109.5 -284t-293.5 -116zM450 582q-81 0 -144 -45.5t-87 -118.5h434q-12 76 -64.5 120t-138.5 44zM411 128q80 0 142.5 45t88.5 117h-433q12 -75 64 -118.5t138 -43.5z" />
    <glyph glyph-name="uni04E9" unicode="&#x4e9;" horiz-adv-x="596" 
d="M276 -12q-113 0 -177 70t-64 169q0 121 79.5 202.5t205.5 81.5q113 0 176.5 -70t63.5 -169q0 -121 -79 -202.5t-205 -81.5zM308 383q-43 0 -76.5 -24.5t-48.5 -65.5h236q-8 42 -37 66t-74 24zM287 116q44 0 78 25t48 65h-236q8 -42 37 -66t73 -24z" />
    <glyph glyph-name="uni04EE" unicode="&#x4ee;" horiz-adv-x="735" 
d="M309 791l20 96h343l-21 -96h-342zM268 710l117 -380l273 380h174l-386 -537q-74 -103 -135 -144t-150 -41q-52 0 -98 11l28 133q33 -7 66 -7q80 0 115 54l2 2l-163 529h157z" />
    <glyph glyph-name="uni04EF" unicode="&#x4ef;" horiz-adv-x="569" 
d="M180 613l21 97h342l-20 -97h-343zM257 -63q-58 -90 -105.5 -122.5t-122.5 -32.5q-45 0 -79 9l25 115q23 -5 49 -5q54 0 99 69l40 61l-109 469h136l73 -314l203 314h156z" />
    <glyph glyph-name="Wgrave" unicode="&#x1e80;" horiz-adv-x="965" 
d="M629 770h-98l-94 157h150zM580 0l-70 371l-241 -371h-137l-19 710h151l8 -464l305 476l95 -482l207 470h160l-322 -710h-137z" />
    <glyph glyph-name="wgrave" unicode="&#x1e81;" horiz-adv-x="799" 
d="M505 560h-89l-69 190h146zM117 0l-60 500h138l28 -324l175 324h106l30 -316l160 316h153l-271 -500h-136l-30 283l-157 -283h-136z" />
    <glyph glyph-name="Wacute" unicode="&#x1e82;" horiz-adv-x="965" 
d="M538 770l102 157h156l-152 -157h-106zM580 0l-70 371l-241 -371h-137l-19 710h151l8 -464l305 476l95 -482l207 470h160l-322 -710h-137z" />
    <glyph glyph-name="wacute" unicode="&#x1e83;" horiz-adv-x="799" 
d="M416 560l149 190h165l-209 -190h-105zM117 0l-60 500h138l28 -324l175 324h106l30 -316l160 316h153l-271 -500h-136l-30 283l-157 -283h-136z" />
    <glyph glyph-name="Wdieresis" unicode="&#x1e84;" horiz-adv-x="965" 
d="M486 772q-31 0 -53.5 22t-22.5 53t22 53.5t54 22.5q31 0 53 -22.5t22 -53.5t-22 -53t-53 -22zM721 772q-31 0 -53.5 22t-22.5 53t22.5 53.5t53.5 22.5t53 -22.5t22 -53.5t-22 -53t-53 -22zM580 0l-70 371l-241 -371h-137l-19 710h151l8 -464l305 476l95 -482l207 470h160
l-322 -710h-137z" />
    <glyph glyph-name="wdieresis" unicode="&#x1e85;" horiz-adv-x="799" 
d="M366 577q-32 0 -54.5 22t-22.5 53q0 32 22.5 54t54.5 22q30 0 52 -22.5t22 -53.5t-22 -53t-52 -22zM600 577q-31 0 -53.5 22t-22.5 53q0 32 22 54t54 22q31 0 53 -22.5t22 -53.5t-22 -53t-53 -22zM117 0l-60 500h138l28 -324l175 324h106l30 -316l160 316h153l-271 -500
h-136l-30 283l-157 -283h-136z" />
    <glyph glyph-name="uni1E9E" unicode="&#x1e9e;" horiz-adv-x="655" 
d="M22 0l151 710h484l-21 -98l-138 -171q54 -20 83 -66.5t29 -102.5q0 -127 -81 -199.5t-226 -72.5h-57l29 138h43q63 0 102 31.5t39 88.5q0 40 -27 65.5t-69 25.5h-43l21 100l105 129h-157l-122 -578h-145z" />
    <glyph glyph-name="uni1ECA" unicode="&#x1eca;" horiz-adv-x="303" 
d="M22 0l151 710h145l-151 -710h-145zM66 -219q-32 0 -54.5 22t-22.5 53q0 32 22.5 54t54.5 22q31 0 53 -22.5t22 -53.5t-22 -53t-53 -22z" />
    <glyph glyph-name="uni1ECB" unicode="&#x1ecb;" horiz-adv-x="270" 
d="M225 582q-36 0 -62 25.5t-26 61.5t26 61.5t62 25.5t61.5 -25.5t25.5 -61.5t-25.5 -61.5t-61.5 -25.5zM13 0l106 500h137l-106 -500h-137zM52 -219q-32 0 -54 22t-22 53q0 32 22 54t54 22q31 0 53 -22.5t22 -53.5t-22 -53t-53 -22z" />
    <glyph glyph-name="uni1ECC" unicode="&#x1ecc;" horiz-adv-x="824" 
d="M399 -12q-156 0 -248 95t-92 239q0 169 109.5 284.5t293.5 115.5q156 0 248 -95t92 -239q0 -168 -109.5 -284t-293.5 -116zM411 128q103 0 174 71.5t71 175.5q0 93 -53.5 150t-152.5 57q-104 0 -174.5 -71.5t-70.5 -175.5q0 -94 53.5 -150.5t152.5 -56.5zM335 -219
q-32 0 -54.5 22t-22.5 53q0 32 22.5 54t54.5 22q31 0 53 -22.5t22 -53.5t-22 -53t-53 -22z" />
    <glyph glyph-name="uni1ECD" unicode="&#x1ecd;" horiz-adv-x="596" 
d="M276 -12q-113 0 -177 70t-64 169q0 121 79.5 202.5t205.5 81.5q113 0 176.5 -70t63.5 -169q0 -121 -79 -202.5t-205 -81.5zM287 116q58 0 96.5 41.5t38.5 102.5q0 57 -30.5 90t-83.5 33q-58 0 -96 -41.5t-38 -102.5q0 -56 30 -89.5t83 -33.5zM220 -219q-32 0 -54 22
t-22 53q0 32 22 54t54 22q31 0 53 -22.5t22 -53.5t-22 -53t-53 -22z" />
    <glyph glyph-name="uni1EE4" unicode="&#x1ee4;" horiz-adv-x="719" 
d="M650 285q-34 -156 -109.5 -226.5t-217.5 -70.5q-129 0 -202 88.5t-45 221.5l87 412h145l-89 -421q-17 -80 16.5 -120.5t101.5 -40.5q134 0 166 152l91 430h147zM272 -219q-32 0 -54.5 22t-22.5 53q0 32 22.5 54t54.5 22q31 0 53 -22.5t22 -53.5t-22 -53t-53 -22z" />
    <glyph glyph-name="uni1EE5" unicode="&#x1ee5;" horiz-adv-x="587" 
d="M206 -10q-86 0 -129.5 71t-24.5 160l59 279h137l-58 -278q-10 -50 8.5 -78.5t59.5 -28.5q97 0 125 131l54 254h137l-106 -500h-137l11 52q-49 -62 -136 -62zM228 -219q-32 0 -54 22t-22 53q0 32 22 54t54 22q31 0 53 -22.5t22 -53.5t-22 -53t-53 -22z" />
    <glyph glyph-name="Ygrave" unicode="&#x1ef2;" horiz-adv-x="690" 
d="M480 770h-98l-94 157h150zM215 0l63 299l-174 411h151l112 -276l230 276h177l-350 -412l-63 -298h-146z" />
    <glyph glyph-name="ygrave" unicode="&#x1ef3;" horiz-adv-x="568" 
d="M382 560h-89l-69 190h146zM5 -209l158 239l-109 470h136l68 -329l208 329h156l-465 -709h-152z" />
    <glyph glyph-name="uni2007" unicode="&#x2007;" horiz-adv-x="590" 
 />
    <glyph glyph-name="uni2008" unicode="&#x2008;" horiz-adv-x="278" 
 />
    <glyph glyph-name="uni2009" unicode="&#x2009;" horiz-adv-x="125" 
 />
    <glyph glyph-name="uni200B" unicode="&#x200b;" 
 />
    <glyph glyph-name="endash" unicode="&#x2013;" horiz-adv-x="588" 
d="M47 214l29 132h472l-28 -132h-473z" />
    <glyph glyph-name="emdash" unicode="&#x2014;" horiz-adv-x="882" 
d="M47 214l29 132h766l-28 -132h-767z" />
    <glyph glyph-name="quoteleft" unicode="&#x2018;" horiz-adv-x="275" 
d="M102 537l144 173h81l-102 -158q48 -32 48 -86q0 -41 -29.5 -70.5t-70.5 -29.5q-42 0 -71 29.5t-29 70.5q0 37 29 71z" />
    <glyph glyph-name="quoteright" unicode="&#x2019;" horiz-adv-x="277" 
d="M298 550l-144 -173h-81l102 158q-48 32 -48 86q0 41 29.5 70.5t70.5 29.5q42 0 71 -29.5t29 -70.5q0 -37 -29 -71z" />
    <glyph glyph-name="quotesinglbase" unicode="&#x201a;" horiz-adv-x="280" 
d="M183 21l-144 -173h-81l102 158q-48 32 -48 86q0 41 29.5 70.5t70.5 29.5q42 0 71 -29.5t29 -70.5q0 -37 -29 -71z" />
    <glyph glyph-name="quotedblleft" unicode="&#x201c;" horiz-adv-x="505" 
d="M102 537l144 173h81l-102 -158q48 -32 48 -86q0 -41 -29.5 -70.5t-70.5 -29.5q-42 0 -71 29.5t-29 70.5q0 37 29 71zM332 537l144 173h81l-102 -158q48 -32 48 -86q0 -41 -29.5 -70.5t-70.5 -29.5q-42 0 -71 29.5t-29 70.5q0 37 29 71z" />
    <glyph glyph-name="quotedblright" unicode="&#x201d;" horiz-adv-x="507" 
d="M298 550l-144 -173h-81l102 158q-48 32 -48 86q0 41 29.5 70.5t70.5 29.5q42 0 71 -29.5t29 -70.5q0 -37 -29 -71zM528 550l-144 -173h-81l102 158q-48 32 -48 86q0 41 29.5 70.5t70.5 29.5q42 0 71 -29.5t29 -70.5q0 -37 -29 -71z" />
    <glyph glyph-name="quotedblbase" unicode="&#x201e;" horiz-adv-x="510" 
d="M183 21l-144 -173h-81l102 158q-48 32 -48 86q0 41 29.5 70.5t70.5 29.5q42 0 71 -29.5t29 -70.5q0 -37 -29 -71zM413 21l-144 -173h-81l102 158q-48 32 -48 86q0 41 29.5 70.5t70.5 29.5q42 0 71 -29.5t29 -70.5q0 -37 -29 -71z" />
    <glyph glyph-name="dagger" unicode="&#x2020;" horiz-adv-x="519" 
d="M125 -98l104 489h-174l24 109h173l45 210h116l-45 -210h174l-23 -109h-174l-104 -489h-116z" />
    <glyph glyph-name="daggerdbl" unicode="&#x2021;" horiz-adv-x="540" 
d="M471 112h-174l-45 -210h-116l45 210h-174l23 109h174l36 170h-174l23 109h174l45 210h116l-45 -210h174l-23 -109h-174l-36 -170h174z" />
    <glyph glyph-name="bullet" unicode="&#x2022;" horiz-adv-x="400" 
d="M207 166q-56 0 -96 40t-40 96t40 96t96 40t96.5 -40t40.5 -96t-40.5 -96t-96.5 -40z" />
    <glyph glyph-name="ellipsis" unicode="&#x2026;" horiz-adv-x="804" 
d="M108 -8q-41 0 -70.5 29.5t-29.5 70.5t29.5 70.5t70.5 29.5t70.5 -29.5t29.5 -70.5t-29.5 -70.5t-70.5 -29.5zM375 -8q-41 0 -70.5 29.5t-29.5 70.5t29.5 70.5t70.5 29.5t70.5 -29.5t29.5 -70.5t-29.5 -70.5t-70.5 -29.5zM641 -8q-41 0 -70.5 29.5t-29.5 70.5t29.5 70.5
t70.5 29.5t70.5 -29.5t29.5 -70.5t-29.5 -70.5t-70.5 -29.5z" />
    <glyph glyph-name="perthousand" unicode="&#x2030;" horiz-adv-x="1483" 
d="M285 324q-82 0 -139.5 58t-57.5 139q0 82 57.5 139.5t139.5 57.5q81 0 139 -57.5t58 -139.5q0 -81 -58 -139t-139 -58zM174 0l600 710h155l-599 -710h-156zM285 440q33 0 56 24t23 57t-23 57t-56 24q-34 0 -57.5 -24t-23.5 -57t23.5 -57t57.5 -24zM1239 -8
q-82 0 -139.5 58t-57.5 139q0 82 57.5 139.5t139.5 57.5q81 0 139 -57.5t58 -139.5q0 -81 -58 -139t-139 -58zM820 -8q-82 0 -139.5 58t-57.5 139q0 82 57.5 139.5t139.5 57.5q81 0 139 -57.5t58 -139.5q0 -81 -58 -139t-139 -58zM1239 108q33 0 56 24t23 57t-23 57t-56 24
q-34 0 -57.5 -24t-23.5 -57t23.5 -57t57.5 -24zM820 108q33 0 56 24t23 57t-23 57t-56 24q-34 0 -57.5 -24t-23.5 -57t23.5 -57t57.5 -24z" />
    <glyph glyph-name="guilsinglleft" unicode="&#x2039;" horiz-adv-x="325" 
d="M27 250l188 217h122l-168 -235l72 -199h-111z" />
    <glyph glyph-name="guilsinglright" unicode="&#x203a;" horiz-adv-x="327" 
d="M296 252l-188 -217h-122l168 235l-72 199h111z" />
    <glyph glyph-name="fraction" unicode="&#x2044;" horiz-adv-x="180" 
d="M-276 0l651 710h125l-651 -710h-125z" />
    <glyph glyph-name="uni2060" unicode="&#x2060;" horiz-adv-x="227" 
 />
    <glyph glyph-name="zero.superior" unicode="&#x2070;" horiz-adv-x="387" 
d="M244 403q-80 0 -120 53.5t-23 137.5l19 96q15 74 61 116.5t118 42.5q80 0 120 -53.5t23 -137.5l-19 -96q-15 -74 -61 -116.5t-118 -42.5zM249 499q33 0 51.5 17.5t26.5 54.5l23 104q8 35 -9 56.5t-47 21.5q-63 0 -78 -71l-22 -105q-7 -36 9 -57t46 -21z" />
    <glyph glyph-name="four.superior" unicode="&#x2074;" horiz-adv-x="393" 
d="M254 410l19 90h-208l17 79l273 263h88l-54 -253h55l-19 -89h-55l-19 -90h-97zM291 589l21 99l-104 -99h83z" />
    <glyph glyph-name="five.superior" unicode="&#x2075;" horiz-adv-x="359" 
d="M240 403q-62 0 -109.5 35.5t-54.5 100.5h101q18 -40 64 -40q25 0 44 17t19 42q0 21 -12.5 36t-38.5 15q-47 0 -70 -45l-86 29l102 249h229l-20 -95h-147l-25 -59q21 7 49 7q52 0 84 -37.5t32 -91.5q0 -72 -40.5 -117.5t-120.5 -45.5z" />
    <glyph glyph-name="six.superior" unicode="&#x2076;" horiz-adv-x="353" 
d="M236 403q-69 0 -110.5 39.5t-41.5 89.5q0 48 17 82.5t64 85.5l130 142h128l-138 -151q48 -5 80.5 -40t32.5 -88q0 -69 -44.5 -114.5t-117.5 -45.5zM237 497q27 0 43.5 16.5t16.5 44.5q0 21 -15 36t-38 15q-26 0 -43 -17t-17 -44q0 -21 15 -36t38 -15z" />
    <glyph glyph-name="seven.superior" unicode="&#x2077;" horiz-adv-x="346" 
d="M57 410l258 337h-186l20 95h310l-19 -86l-265 -346h-118z" />
    <glyph glyph-name="eight.superior" unicode="&#x2078;" horiz-adv-x="365" 
d="M235 403q-69 0 -109 38t-40 89q0 90 77 123q-25 26 -25 68q0 57 41.5 92.5t111.5 35.5q56 0 92.5 -31.5t38.5 -77.5q2 -63 -58 -105q36 -34 36 -83q0 -75 -47.5 -112t-117.5 -37zM276 675q23 0 37.5 14t14.5 36q0 17 -12 27.5t-31 10.5q-23 0 -38 -14t-15 -36
q0 -17 12 -27.5t32 -10.5zM239 493q29 0 44.5 16.5t15.5 42.5q0 21 -14.5 34t-38.5 13q-29 0 -44.5 -16.5t-15.5 -42.5q0 -21 14.5 -34t38.5 -13z" />
    <glyph glyph-name="nine.superior" unicode="&#x2079;" horiz-adv-x="353" 
d="M85 410l138 151q-47 5 -79.5 40.5t-32.5 88.5q0 69 44 114t118 45q70 0 111 -39t41 -90q0 -48 -17 -82.5t-64 -85.5l-131 -142h-128zM265 643q26 0 43 17t17 44q0 22 -14.5 36.5t-38.5 14.5q-26 0 -43 -16.5t-17 -44.5q0 -21 15 -36t38 -15z" />
    <glyph glyph-name="zero.inferior" unicode="&#x2080;" horiz-adv-x="387" 
d="M132 -122q-80 0 -120 53.5t-23 137.5l19 96q15 74 61 116.5t118 42.5q80 0 120 -53.5t23 -137.5l-19 -96q-15 -74 -61 -116.5t-118 -42.5zM137 -26q33 0 51.5 17.5t26.5 54.5l23 104q8 35 -9 56.5t-47 21.5q-63 0 -78 -71l-22 -105q-7 -36 9 -57t46 -21z" />
    <glyph glyph-name="one.inferior" unicode="&#x2081;" horiz-adv-x="240" 
d="M17 -115l71 336h-95l90 96h123l-92 -432h-97z" />
    <glyph glyph-name="two.inferior" unicode="&#x2082;" horiz-adv-x="357" 
d="M-52 -115l11 52q7 34 22.5 60.5t44.5 48t47 32t57 30.5q57 31 71 49q11 14 11 31q0 40 -44 40q-24 0 -40 -14t-19 -35h-97q7 68 53 106.5t113 38.5q55 0 94 -34t39 -92q0 -60 -29 -96t-93 -69q-3 -1 -19 -9.5t-25 -14t-20.5 -13.5t-14.5 -15h157l-20 -96h-299z" />
    <glyph glyph-name="three.inferior" unicode="&#x2083;" horiz-adv-x="364" 
d="M133 -122q-64 0 -111 38.5t-42 112.5h93q1 -27 19 -41t44 -14t41.5 13.5t15.5 35.5q0 18 -13.5 30.5t-37.5 12.5h-41l16 77h31q30 0 45.5 13.5t14.5 35.5q-1 16 -13 26t-32 10q-23 0 -41.5 -14t-20.5 -35h-98q6 71 55 108t112 37q61 0 97.5 -34t36.5 -84q0 -78 -65 -109
q20 -12 33.5 -34.5t13.5 -49.5q0 -55 -40.5 -95t-112.5 -40z" />
    <glyph glyph-name="four.inferior" unicode="&#x2084;" horiz-adv-x="393" 
d="M143 -115l19 90h-208l17 79l273 263h88l-54 -253h55l-19 -89h-55l-19 -90h-97zM180 64l21 99l-104 -99h83z" />
    <glyph glyph-name="five.inferior" unicode="&#x2085;" horiz-adv-x="359" 
d="M129 -122q-62 0 -109.5 35.5t-54.5 100.5h101q18 -40 64 -40q25 0 44 17t19 42q0 21 -12.5 36t-38.5 15q-47 0 -70 -45l-86 29l102 249h229l-20 -95h-147l-25 -59q21 7 49 7q52 0 84 -37.5t32 -91.5q0 -72 -40.5 -117.5t-120.5 -45.5z" />
    <glyph glyph-name="six.inferior" unicode="&#x2086;" horiz-adv-x="353" 
d="M124 -122q-69 0 -110.5 39.5t-41.5 89.5q0 48 17 82.5t64 85.5l130 142h128l-138 -151q48 -5 80.5 -40t32.5 -88q0 -69 -44.5 -114.5t-117.5 -45.5zM125 -28q27 0 43.5 17t16.5 44q0 21 -15 36t-38 15q-26 0 -43 -17t-17 -44q0 -21 15 -36t38 -15z" />
    <glyph glyph-name="seven.inferior" unicode="&#x2087;" horiz-adv-x="346" 
d="M-55 -115l258 337h-186l20 95h310l-19 -86l-265 -346h-118z" />
    <glyph glyph-name="eight.inferior" unicode="&#x2088;" horiz-adv-x="365" 
d="M123 -122q-69 0 -109 38t-40 89q0 90 77 123q-25 26 -25 68q0 57 41.5 92.5t111.5 35.5q56 0 92.5 -31.5t38.5 -77.5q2 -63 -58 -105q36 -34 36 -83q0 -75 -47.5 -112t-117.5 -37zM164 150q23 0 37.5 14t14.5 36q0 17 -12 27.5t-31 10.5q-23 0 -38 -14t-15 -36
q0 -17 12 -27.5t32 -10.5zM127 -32q29 0 44.5 16.5t15.5 42.5q0 21 -14.5 34t-38.5 13q-29 0 -44.5 -16t-15.5 -43q0 -21 14.5 -34t38.5 -13z" />
    <glyph glyph-name="nine.inferior" unicode="&#x2089;" horiz-adv-x="353" 
d="M-26 -115l138 151q-47 5 -79.5 40.5t-32.5 88.5q0 69 44 114t118 45q70 0 111 -39t41 -90q0 -48 -17 -82.5t-64 -85.5l-131 -142h-128zM154 118q26 0 43 17t17 44q0 21 -15 36t-38 15q-27 0 -43.5 -17t-16.5 -44q0 -21 15 -36t38 -15z" />
    <glyph glyph-name="Euro" unicode="&#x20ac;" horiz-adv-x="858" 
d="M30 263l33 56h63v3q0 32 5 70h-74l33 57h54q38 122 138.5 197.5t246.5 75.5q122 0 208 -61t117 -161h-157q-25 39 -72.5 63t-106.5 24q-75 0 -134.5 -37.5t-90.5 -100.5h363l-31 -57h-351q-6 -27 -6 -57v-16h315l-31 -56h-275q18 -66 69.5 -103t132.5 -37q106 0 178 87
h157q-97 -222 -347 -222q-139 0 -228.5 76.5t-108.5 198.5h-100z" />
    <glyph glyph-name="uni20B4" unicode="&#x20b4;" horiz-adv-x="629" 
d="M66 389l13 57h352q39 26 39 74q0 36 -24 54.5t-62 18.5q-83 0 -115 -87h-136q17 104 88.5 160t172.5 56q94 0 153 -49.5t59 -126.5q0 -58 -31 -100h48l-13 -57h-544zM43 277l12 57h545l-13 -57h-352q-47 -26 -47 -78q0 -38 31 -60t82 -22q52 0 87 26t45 76h136
q-17 -112 -90.5 -171.5t-190.5 -59.5q-100 0 -168.5 53t-68.5 131q0 63 42 105h-50z" />
    <glyph glyph-name="uni20B8" unicode="&#x20b8;" horiz-adv-x="592" 
d="M115 653l12 57h526l-12 -57h-526zM170 0l99 463h-195l30 135h525l-29 -135h-194l-99 -463h-137z" />
    <glyph glyph-name="uni20BD" unicode="&#x20bd;" horiz-adv-x="622" 
d="M78 0l27 128h-85l12 58h86l14 69h-85l28 132h85l69 323h170q108 0 173 -55.5t65 -147.5q0 -111 -73.5 -181.5t-221.5 -70.5h-73l-15 -69h163l-13 -58h-162l-27 -128h-137zM298 387h76q55 0 89 29.5t34 79.5q0 81 -97 81h-63z" />
    <glyph glyph-name="afii61352" unicode="&#x2116;" horiz-adv-x="1107" 
d="M977 405q-64 0 -109 45.5t-45 109.5t45 109.5t109 45.5t109.5 -45.5t45.5 -109.5t-45.5 -109.5t-109.5 -45.5zM659 0h-125l-262 479l-102 -479h-145l151 710h125l261 -479l103 479h145zM978 495q26 0 45 19t19 46t-19 46t-45 19q-27 0 -46 -19t-19 -46t19 -46t46 -19z
M764 269l19 90h304l-19 -90h-304z" />
    <glyph glyph-name="uni2117" unicode="&#x2117;" horiz-adv-x="821" 
d="M430 -12q-151 0 -258.5 108t-107.5 259t107.5 259t258.5 108q152 0 259.5 -108t107.5 -259t-107.5 -259t-259.5 -108zM430 72q117 0 200 83t83 200t-83 200t-200 83q-116 0 -199 -83t-83 -200t83 -200t199 -83zM586 413q0 -54 -37 -90.5t-93 -36.5h-43v-117h-84v371h127
q56 0 93 -36.5t37 -90.5zM505 413q0 21 -14 35t-36 14h-42v-97h42q22 0 36 14t14 34z" />
    <glyph glyph-name="trademark" unicode="&#x2122;" horiz-adv-x="866" 
d="M478 348v362h99l79 -121l78 121h99v-362h-101v188l-76 -118l-77 118v-188h-101zM218 348v258h-97v104h300v-104h-97v-258h-106z" />
    <glyph glyph-name="uni2150" unicode="&#x2150;" horiz-adv-x="899" 
d="M101 278l71 336h-95l90 96h123l-92 -432h-97zM29 0l651 710h125l-651 -710h-125zM524 0l258 337h-186l20 95h310l-19 -86l-265 -346h-118z" />
    <glyph glyph-name="uni2151" unicode="&#x2151;" horiz-adv-x="868" 
d="M101 278l71 336h-95l90 96h123l-92 -432h-97zM29 0l651 710h125l-651 -710h-125zM513 0l138 151q-47 5 -79.5 40.5t-32.5 88.5q0 69 44 114t118 45q70 0 111 -39t41 -90q0 -48 -17 -82.5t-64 -85.5l-131 -142h-128zM693 233q26 0 43 17t17 44q0 22 -14.5 36.5t-38.5 14.5
q-26 0 -43 -16.5t-17 -44.5q0 -21 15 -36t38 -15z" />
    <glyph glyph-name="uni2152" unicode="&#x2152;" horiz-adv-x="1143" 
d="M101 278l71 336h-95l90 96h123l-92 -432h-97zM29 0l651 710h125l-651 -710h-125zM913 -7q-80 0 -120 53.5t-23 137.5l19 96q15 74 61 116.5t118 42.5q80 0 120 -53.5t23 -137.5l-19 -96q-15 -74 -61 -116.5t-118 -42.5zM558 0l71 336h-95l90 96h123l-92 -432h-97zM918 89
q33 0 51.5 17.5t26.5 54.5l23 104q8 35 -9 56.5t-47 21.5q-63 0 -78 -71l-22 -105q-7 -36 9 -57t46 -21z" />
    <glyph glyph-name="onethird" unicode="&#x2153;" horiz-adv-x="875" 
d="M101 278l71 336h-95l90 96h123l-92 -432h-97zM29 0l651 710h125l-651 -710h-125zM669 -7q-64 0 -111 38.5t-42 112.5h93q1 -27 19 -41t44 -14t41.5 13.5t15.5 35.5q0 18 -13.5 30.5t-37.5 12.5h-41l16 77h31q30 0 45.5 13.5t14.5 35.5q-1 16 -13 26t-32 10
q-23 0 -41.5 -14t-20.5 -35h-98q6 71 55 108t112 37q61 0 97.5 -34t36.5 -84q0 -78 -65 -109q20 -12 33.5 -34.5t13.5 -49.5q0 -55 -40.5 -95t-112.5 -40z" />
    <glyph glyph-name="twothirds" unicode="&#x2154;" horiz-adv-x="973" 
d="M32 278l11 52q7 34 22.5 60.5t44.5 48t47 32t57 30.5q57 31 71 49q11 14 11 31q0 40 -44 40q-24 0 -40 -14t-19 -35h-97q7 68 53 106.5t113 38.5q55 0 94 -34t39 -92q0 -60 -29 -96t-93 -69q-3 -1 -19 -9.5t-25 -14t-20.5 -13.5t-14.5 -15h157l-20 -96h-299zM127 0
l651 710h125l-651 -710h-125zM767 -7q-64 0 -111 38.5t-42 112.5h93q1 -27 19 -41t44 -14t41.5 13.5t15.5 35.5q0 18 -13.5 30.5t-37.5 12.5h-41l16 77h31q30 0 45.5 13.5t14.5 35.5q-1 16 -13 26t-32 10q-23 0 -41.5 -14t-20.5 -35h-98q6 71 55 108t112 37q61 0 97.5 -34
t36.5 -84q0 -78 -65 -109q20 -12 33.5 -34.5t13.5 -49.5q0 -55 -40.5 -95t-112.5 -40z" />
    <glyph glyph-name="uni2155" unicode="&#x2155;" horiz-adv-x="862" 
d="M101 278l71 336h-95l90 96h123l-92 -432h-97zM29 0l651 710h125l-651 -710h-125zM656 -7q-62 0 -109.5 35.5t-54.5 100.5h101q18 -40 64 -40q25 0 44 17t19 42q0 21 -12.5 36t-38.5 15q-47 0 -70 -45l-86 29l102 249h229l-20 -95h-147l-25 -59q21 7 49 7q52 0 84 -37.5
t32 -91.5q0 -72 -40.5 -117.5t-120.5 -45.5z" />
    <glyph glyph-name="uni2156" unicode="&#x2156;" horiz-adv-x="960" 
d="M32 278l11 52q7 34 22.5 60.5t44.5 48t47 32t57 30.5q57 31 71 49q11 14 11 31q0 40 -44 40q-24 0 -40 -14t-19 -35h-97q7 68 53 106.5t113 38.5q55 0 94 -34t39 -92q0 -60 -29 -96t-93 -69q-3 -1 -19 -9.5t-25 -14t-20.5 -13.5t-14.5 -15h157l-20 -96h-299zM127 0
l651 710h125l-651 -710h-125zM754 -7q-62 0 -109.5 35.5t-54.5 100.5h101q18 -40 64 -40q25 0 44 17t19 42q0 21 -12.5 36t-38.5 15q-47 0 -70 -45l-86 29l102 249h229l-20 -95h-147l-25 -59q21 7 49 7q52 0 84 -37.5t32 -91.5q0 -72 -40.5 -117.5t-120.5 -45.5z" />
    <glyph glyph-name="uni2157" unicode="&#x2157;" horiz-adv-x="934" 
d="M217 271q-64 0 -111 38.5t-42 112.5h93q1 -27 19 -41t44 -14t41.5 13.5t15.5 35.5q0 18 -13.5 30.5t-37.5 12.5h-41l16 77h31q30 0 45.5 13.5t14.5 35.5q-1 16 -13 26t-32 10q-23 0 -41.5 -14t-20.5 -35h-98q6 71 55 108t112 37q61 0 97.5 -34t36.5 -84q0 -78 -65 -109
q20 -12 33.5 -34.5t13.5 -49.5q0 -55 -40.5 -95t-112.5 -40zM100 0l651 710h125l-651 -710h-125zM727 -7q-62 0 -109.5 35.5t-54.5 100.5h101q18 -40 64 -40q25 0 44 17t19 42q0 21 -12.5 36t-38.5 15q-47 0 -70 -45l-86 29l102 249h229l-20 -95h-147l-25 -59q21 7 49 7
q52 0 84 -37.5t32 -91.5q0 -72 -40.5 -117.5t-120.5 -45.5z" />
    <glyph glyph-name="uni2158" unicode="&#x2158;" horiz-adv-x="956" 
d="M226 278l19 90h-208l17 79l273 263h88l-54 -253h55l-19 -89h-55l-19 -90h-97zM123 0l651 710h125l-651 -710h-125zM263 457l21 99l-104 -99h83zM750 -7q-62 0 -109.5 35.5t-54.5 100.5h101q18 -40 64 -40q25 0 44 17t19 42q0 21 -12.5 36t-38.5 15q-47 0 -70 -45l-86 29
l102 249h229l-20 -95h-147l-25 -59q21 7 49 7q52 0 84 -37.5t32 -91.5q0 -72 -40.5 -117.5t-120.5 -45.5z" />
    <glyph glyph-name="uni2159" unicode="&#x2159;" horiz-adv-x="818" 
d="M101 278l71 336h-95l90 96h123l-92 -432h-97zM29 0l651 710h125l-651 -710h-125zM614 -7q-69 0 -110.5 39.5t-41.5 89.5q0 48 17 82.5t64 85.5l130 142h128l-138 -151q48 -5 80.5 -40t32.5 -88q0 -69 -44.5 -114.5t-117.5 -45.5zM615 87q27 0 43.5 16.5t16.5 44.5
q0 21 -15 36t-38 15q-26 0 -43 -17t-17 -44q0 -21 15 -36t38 -15z" />
    <glyph glyph-name="uni215A" unicode="&#x215a;" horiz-adv-x="888" 
d="M212 271q-62 0 -109.5 35.5t-54.5 100.5h101q18 -40 64 -40q25 0 44 17t19 42q0 21 -12.5 36t-38.5 15q-47 0 -70 -45l-86 29l102 249h229l-20 -95h-147l-25 -59q21 7 49 7q52 0 84 -37.5t32 -91.5q0 -72 -40.5 -117.5t-120.5 -45.5zM98 0l651 710h125l-651 -710h-125z
M684 -7q-69 0 -110.5 39.5t-41.5 89.5q0 48 17 82.5t64 85.5l130 142h128l-138 -151q48 -5 80.5 -40t32.5 -88q0 -69 -44.5 -114.5t-117.5 -45.5zM685 87q27 0 43.5 16.5t16.5 44.5q0 21 -15 36t-38 15q-26 0 -43 -17t-17 -44q0 -21 15 -36t38 -15z" />
    <glyph glyph-name="oneeighth" unicode="&#x215b;" horiz-adv-x="867" 
d="M101 278l71 336h-95l90 96h123l-92 -432h-97zM29 0l651 710h125l-651 -710h-125zM649 -7q-69 0 -109 38t-40 89q0 90 77 123q-25 26 -25 68q0 57 41.5 92.5t111.5 35.5q56 0 92.5 -31.5t38.5 -77.5q2 -63 -58 -105q36 -35 36 -83q0 -75 -47.5 -112t-117.5 -37zM690 265
q23 0 37.5 14t14.5 36q0 17 -12 27.5t-31 10.5q-23 0 -38 -14t-15 -36q0 -17 12 -27.5t32 -10.5zM653 83q29 0 44.5 16.5t15.5 42.5q0 21 -14.5 34t-38.5 13q-29 0 -44.5 -16.5t-15.5 -42.5q0 -21 14.5 -34t38.5 -13z" />
    <glyph glyph-name="threeeighths" unicode="&#x215c;" horiz-adv-x="938" 
d="M217 271q-64 0 -111 38.5t-42 112.5h93q1 -27 19 -41t44 -14t41.5 13.5t15.5 35.5q0 18 -13.5 30.5t-37.5 12.5h-41l16 77h31q30 0 45.5 13.5t14.5 35.5q-1 16 -13 26t-32 10q-23 0 -41.5 -14t-20.5 -35h-98q6 71 55 108t112 37q61 0 97.5 -34t36.5 -84q0 -78 -65 -109
q20 -12 33.5 -34.5t13.5 -49.5q0 -55 -40.5 -95t-112.5 -40zM100 0l651 710h125l-651 -710h-125zM721 -7q-69 0 -109 38t-40 89q0 90 77 123q-25 26 -25 68q0 57 41.5 92.5t111.5 35.5q56 0 92.5 -31.5t38.5 -77.5q2 -63 -58 -105q36 -34 36 -83q0 -75 -47.5 -112
t-117.5 -37zM762 265q23 0 37.5 14t14.5 36q0 17 -12 27.5t-31 10.5q-23 0 -38 -14t-15 -36q0 -17 12 -27.5t32 -10.5zM725 83q29 0 44.5 16.5t15.5 42.5q0 21 -14.5 34t-38.5 13q-29 0 -44.5 -16.5t-15.5 -42.5q0 -21 14.5 -34t38.5 -13z" />
    <glyph glyph-name="fiveeighths" unicode="&#x215d;" horiz-adv-x="936" 
d="M212 271q-62 0 -109.5 35.5t-54.5 100.5h101q18 -40 64 -40q25 0 44 17t19 42q0 21 -12.5 36t-38.5 15q-47 0 -70 -45l-86 29l102 249h229l-20 -95h-147l-25 -59q21 7 49 7q52 0 84 -37.5t32 -91.5q0 -72 -40.5 -117.5t-120.5 -45.5zM98 0l651 710h125l-651 -710h-125z
M719 -7q-69 0 -109 38t-40 89q0 90 77 123q-25 26 -25 68q0 57 41.5 92.5t111.5 35.5q56 0 92.5 -31.5t38.5 -77.5q2 -63 -58 -105q36 -34 36 -83q0 -75 -47.5 -112t-117.5 -37zM760 265q23 0 37.5 14t14.5 36q0 17 -12 27.5t-31 10.5q-23 0 -38 -14t-15 -36q0 -17 12 -27.5
t32 -10.5zM723 83q29 0 44.5 16.5t15.5 42.5q0 21 -14.5 34t-38.5 13q-29 0 -44.5 -16.5t-15.5 -42.5q0 -21 14.5 -34t38.5 -13z" />
    <glyph glyph-name="seveneighths" unicode="&#x215e;" horiz-adv-x="858" 
d="M29 278l258 337h-186l20 95h310l-19 -86l-265 -346h-118zM20 0l651 710h125l-651 -710h-125zM641 -7q-69 0 -109 38t-40 89q0 90 77 123q-25 26 -25 68q0 57 41.5 92.5t111.5 35.5q56 0 92.5 -31.5t38.5 -77.5q2 -63 -58 -105q36 -35 36 -83q0 -75 -47.5 -112t-117.5 -37
zM682 265q23 0 37.5 14t14.5 36q0 17 -12 27.5t-31 10.5q-23 0 -38 -14t-15 -36q0 -17 12 -27.5t32 -10.5zM645 83q29 0 44.5 16.5t15.5 42.5q0 21 -14.5 34t-38.5 13q-29 0 -44.5 -16.5t-15.5 -42.5q0 -21 14.5 -34t38.5 -13z" />
    <glyph glyph-name="uni215F" unicode="&#x215f;" horiz-adv-x="485" 
d="M101 278l71 336h-95l90 96h123l-92 -432h-97zM29 0l651 710h125l-651 -710h-125z" />
    <glyph glyph-name="uni2190" unicode="&#x2190;" horiz-adv-x="821" 
d="M349 -57l-306 306l306 306l75 -78l-173 -173h512v-110h-512l173 -173z" />
    <glyph glyph-name="uni2191" unicode="&#x2191;" horiz-adv-x="699" 
d="M327 0v513l-173 -173l-78 76l306 306l306 -306l-78 -76l-173 173v-513h-110z" />
    <glyph glyph-name="uni2192" unicode="&#x2192;" horiz-adv-x="822" 
d="M469 -57l-76 78l173 173h-511v110h511l-173 173l76 78l306 -306z" />
    <glyph glyph-name="uni2193" unicode="&#x2193;" horiz-adv-x="695" 
d="M356 -12l-306 306l78 76l173 -173v513h110v-513l172 173l79 -76z" />
    <glyph glyph-name="uni2196" unicode="&#x2196;" horiz-adv-x="800" 
d="M640 -12l-399 398v-247h-109v433h433v-110h-247l399 -397z" />
    <glyph glyph-name="uni2197" unicode="&#x2197;" horiz-adv-x="671" 
d="M85 -12l-77 77l399 397h-247v110h433v-433h-109v247z" />
    <glyph glyph-name="uni2198" unicode="&#x2198;" horiz-adv-x="790" 
d="M248 0v110h246l-398 397l77 77l399 -398v247h109v-433h-433z" />
    <glyph glyph-name="uni2199" unicode="&#x2199;" horiz-adv-x="673" 
d="M599 584l77 -77l-398 -397h246v-110h-433v433h109v-247z" />
    <glyph glyph-name="uni21B0" unicode="&#x21b0;" horiz-adv-x="905" 
d="M656 -194v388h-401l173 -173l-76 -78l-306 306l306 306l76 -78l-173 -173h511v-498h-110z" />
    <glyph glyph-name="uni21B1" unicode="&#x21b1;" horiz-adv-x="823" 
d="M56 -194v498h511l-173 173l76 78l306 -306l-306 -306l-76 78l173 173h-401v-388h-110z" />
    <glyph glyph-name="uni21B2" unicode="&#x21b2;" horiz-adv-x="833" 
d="M345 -57l-306 306l306 306l76 -78l-173 -173h401v406h110v-516h-511l173 -173z" />
    <glyph glyph-name="uni21B3" unicode="&#x21b3;" horiz-adv-x="911" 
d="M561 -57l-76 78l173 173h-511v516h110v-406h401l-173 173l76 78l306 -306z" />
    <glyph glyph-name="minus" unicode="&#x2212;" horiz-adv-x="566" 
d="M78 230v119h421v-119h-421z" />
    <glyph glyph-name="commaaccent" unicode="&#xf6c3;" 
d="M27 -192l-95 -114h-60l59 98q-37 21 -37 64q0 32 22 54t54 22q31 0 53 -22.5t22 -53.5q0 -27 -18 -48z" />
    <glyph glyph-name="cyrbreve.case" unicode="&#xf6d1;" 
d="M177 750q-75 0 -123 49t-32 126h87q-8 -47 13.5 -71.5t58.5 -24.5t66 25.5t33 70.5h89q-10 -82 -62 -128.5t-130 -46.5z" />
    <glyph glyph-name="cyrbreve" unicode="&#xf6d4;" 
d="M138 558q-79 0 -126 56t-29 136h90q-13 -54 8 -83.5t63 -29.5q41 1 65.5 27t32.5 86h89q-2 -84 -53.5 -138t-139.5 -54z" />
    <glyph glyph-name="uniFB00" unicode="&#xfb00;" horiz-adv-x="786" 
d="M66 0l80 380h-101l25 120h102l13 64q19 92 79.5 142t152.5 50q48 0 85 -11l-26 -121q-25 9 -54 9q-45 0 -69 -20.5t-34 -65.5l-10 -47h110l-26 -120h-110l-80 -380h-137zM443 0l80 380h-81l26 120h81l14 64q20 93 79.5 142.5t151.5 49.5q48 0 85 -11l-26 -121
q-25 9 -53 9q-45 0 -69.5 -20.5t-34.5 -65.5l-10 -47h141l-26 -120h-141l-80 -380h-137z" />
    <glyph glyph-name="fi" unicode="&#xfb01;" horiz-adv-x="679" 
d="M66 0l80 380h-101l25 120h102l13 64q19 92 79.5 142t152.5 50q48 0 85 -11l-26 -121q-25 9 -54 9q-45 0 -69 -20.5t-34 -65.5l-10 -47h141l-26 -120h-141l-80 -380h-137zM634 582q-36 0 -62 25.5t-26 61.5t26 61.5t62 25.5t61.5 -25.5t25.5 -61.5t-25.5 -61.5
t-61.5 -25.5zM422 0l106 500h137l-106 -500h-137z" />
    <glyph glyph-name="fl" unicode="&#xfb02;" horiz-adv-x="679" 
d="M66 0l80 380h-101l25 120h102l13 64q19 92 79.5 142t152.5 50q48 0 85 -11l-26 -121q-25 9 -54 9q-45 0 -69 -20.5t-34 -65.5l-10 -47h141l-26 -120h-141l-80 -380h-137zM422 0l159 750h137l-159 -750h-137z" />
    <glyph glyph-name="uniFB03" unicode="&#xfb03;" horiz-adv-x="1056" 
d="M1011 582q-36 0 -62 25.5t-26 61.5t26 61.5t62 25.5t61.5 -25.5t25.5 -61.5t-25.5 -61.5t-61.5 -25.5zM66 0l80 380h-101l25 120h102l13 64q19 92 79.5 142t152.5 50q48 0 85 -11l-26 -121q-25 9 -54 9q-45 0 -69 -20.5t-34 -65.5l-10 -47h110l-26 -120h-110l-80 -380
h-137zM443 0l80 380h-81l26 120h81l14 64q20 93 79.5 142.5t151.5 49.5q48 0 85 -11l-26 -121q-25 9 -53 9q-45 0 -69.5 -20.5t-34.5 -65.5l-10 -47h141l-26 -120h-141l-80 -380h-137zM799 0l106 500h137l-106 -500h-137z" />
    <glyph glyph-name="uniFB04" unicode="&#xfb04;" horiz-adv-x="1056" 
d="M66 0l80 380h-101l25 120h102l13 64q19 92 79.5 142t152.5 50q48 0 85 -11l-26 -121q-25 9 -54 9q-45 0 -69 -20.5t-34 -65.5l-10 -47h110l-26 -120h-110l-80 -380h-137zM443 0l80 380h-81l26 120h81l14 64q20 93 79.5 142.5t151.5 49.5q48 0 85 -11l-26 -121
q-25 9 -53 9q-45 0 -69.5 -20.5t-34.5 -65.5l-10 -47h141l-26 -120h-141l-80 -380h-137zM799 0l159 750h137l-159 -750h-137z" />
    <glyph glyph-name="uniFEFF" unicode="&#xfeff;" 
 />
    <glyph glyph-name="CR" horiz-adv-x="228" 
 />
    <glyph glyph-name="L_periodcentered" horiz-adv-x="549" 
d="M22 0l151 710h145l-122 -572h304l-29 -138h-449zM456 349q-31 0 -53.5 22t-22.5 53q0 32 22 54t54 22q31 0 53 -22.5t22 -53.5t-22 -53t-53 -22z" />
    <glyph glyph-name="l_periodcentered" horiz-adv-x="405" 
d="M13 0l159 750h137l-159 -750h-137zM362 288q-31 0 -53.5 22t-22.5 53t22 53.5t54 22.5q31 0 53 -22.5t22 -53.5t-22 -53t-53 -22z" />
    <glyph glyph-name="uni0446.loclBGR" horiz-adv-x="630" 
d="M206 -10q-86 0 -129.5 71t-24.5 160l59 279h137l-58 -278q-10 -50 8.5 -78.5t59.5 -28.5q50 -1 81 33t43 91l55 261h137l-73 -341q-4 -21 3 -30t28 -9h44l-52 -243h-122l26 123h-6q-33 0 -52.5 18t-15.5 51q-60 -79 -148 -79z" />
    <glyph glyph-name="uni043F.loclBGR" horiz-adv-x="598" 
d="M13 0l106 500h137l-11 -52q57 62 148 62q89 0 131 -69.5t22 -161.5l-59 -279h-137l57 269q12 55 -7.5 86.5t-64.5 31.5q-103 0 -132 -138l-53 -249h-137z" />
    <glyph glyph-name="uni0437.loclBGR" horiz-adv-x="538" 
d="M-44 -24h142q10 -33 40 -53.5t71 -20.5q49 0 78.5 30.5t29.5 82.5q0 42 -23.5 66t-70.5 24h-65l25 112h61q50 0 82 25.5t32 69.5q0 37 -22 57.5t-61 20.5q-67 0 -95 -57h-138q22 90 89 134t152 44q95 0 150.5 -53t55.5 -133q0 -54 -25.5 -100t-73.5 -71q64 -45 64 -141
q0 -106 -68.5 -169t-178.5 -63q-94 0 -169 54t-82 141z" />
    <glyph glyph-name="uni0448.loclBGR" horiz-adv-x="891" 
d="M878 500l-106 -500h-137l11 52q-50 -62 -138 -62q-87 0 -126 76q-26 -34 -69 -54.5t-92 -20.5q-97 0 -142.5 71t-26.5 162l59 276h137l-57 -269q-11 -54 4.5 -86t54.5 -32q45 0 76.5 31.5t44.5 95.5l55 260h137l-57 -269q-11 -54 4.5 -86t54.5 -32q94 0 123 138l53 249
h137z" />
    <glyph glyph-name="uni0433.loclBGR" horiz-adv-x="499" 
d="M11 142q0 59 39.5 94.5t128.5 58.5l92 23q67 17 67 49q0 37 -53 37q-55 0 -70 -51h-136q12 76 69.5 117t143.5 41q84 0 135 -39.5t51 -107.5q0 -115 -160 -154l-99 -24q-37 -9 -52.5 -20.5t-15.5 -30.5q0 -20 18 -30.5t47 -10.5q77 0 85 65h142q-11 -84 -72 -127
t-163 -43q-82 0 -139.5 40.5t-57.5 112.5z" />
    <glyph glyph-name="uni0438.loclBGR" horiz-adv-x="587" 
d="M206 -10q-86 1 -129.5 71.5t-24.5 159.5l59 279h137l-58 -278q-10 -50 8.5 -78.5t59.5 -28.5q47 -1 79 32t46 99l54 254h137l-106 -500h-137l11 52q-50 -63 -136 -62z" />
    <glyph glyph-name="uni044E.loclBGR" horiz-adv-x="820" 
d="M216 310h70q25 90 96 145.5t170 55.5q109 0 170.5 -70t61.5 -169q0 -121 -77 -202.5t-199 -81.5q-98 0 -158.5 58t-72.5 145h-86l-41 -191h-137l159 750h137zM519 116q54 0 90.5 42t36.5 102q0 57 -28.5 90t-77.5 33q-53 0 -90 -42t-37 -102q0 -56 29 -89.5t77 -33.5z
" />
    <glyph glyph-name="uni0432.loclBGR" horiz-adv-x="568" 
d="M236 -11q-99 0 -151.5 72.5t-29.5 179.5l66 317q42 201 230 201q92 0 148.5 -52.5t56.5 -137.5q0 -62 -27.5 -113t-73.5 -73q70 -43 70 -142q0 -116 -72.5 -184t-196.5 -68h-20zM260 555l-21 -102h79q48 0 76 29.5t28 80.5q0 77 -76 77q-68 0 -86 -85zM262 110h9
q56 0 86.5 36t30.5 101q0 42 -19.5 67.5t-57.5 25.5h-96l-23 -110q-25 -120 70 -120z" />
    <glyph glyph-name="uni0434.loclBGR" horiz-adv-x="621" 
d="M233 -219q-97 -1 -163.5 53t-73.5 135h134q8 -36 38.5 -55t69.5 -19q48 0 83.5 32.5t45.5 89.5l7 41q-50 -52 -142 -52q-85 0 -140.5 61t-55.5 153q0 126 75.5 208.5t187.5 82.5q57 0 100 -25.5t58 -54.5l14 69h137l-103 -485q-50 -232 -272 -234zM281 125q60 0 101 43
t42 108q1 51 -28 80.5t-80 29.5q-60 0 -101.5 -43.5t-41.5 -108.5q0 -51 29 -80t79 -29z" />
    <glyph glyph-name="uni0439.loclBGR" horiz-adv-x="587" 
d="M373 558q-79 0 -126 56t-29 136h90q-13 -54 8 -83.5t63 -29.5q41 1 65.5 27t32.5 86h89q-2 -84 -53.5 -138t-139.5 -54zM206 -10q-86 1 -129.5 71.5t-24.5 159.5l59 279h137l-58 -278q-10 -50 8.5 -78.5t59.5 -28.5q47 -1 79 32t46 99l54 254h137l-106 -500h-137l11 52
q-50 -63 -136 -62z" />
    <glyph glyph-name="uni0431.loclSRB" horiz-adv-x="602" 
d="M131 562q0 90 62.5 139t178.5 49h208l-26 -120h-188q-47 0 -74 -19.5t-27 -57.5q0 -29 20.5 -48t54.5 -19h7q88 0 152.5 -64t64.5 -154q0 -129 -82 -204.5t-207 -75.5q-103 0 -173 61.5t-70 168.5q0 78 40.5 141.5t104.5 97.5q-20 20 -33 49t-13 56zM171 230
q0 -52 31 -82.5t84 -30.5q59 0 98 39.5t39 98.5q0 50 -31 81.5t-84 31.5q-60 0 -98.5 -39t-38.5 -99z" />
    <glyph glyph-name="uni044C.loclBGR" horiz-adv-x="502" 
d="M246 -11h-26q-85 0 -138.5 57t-35.5 140l67 314h137l-32 -149h78q75 0 119.5 -48.5t44.5 -118.5q0 -86 -55.5 -140.5t-158.5 -54.5zM247 106q39 0 61.5 19t22.5 53q0 56 -61 56h-77l-12 -61q-7 -33 11.5 -50t54.5 -17z" />
    <glyph glyph-name="uni0449.loclBGR" horiz-adv-x="936" 
d="M565 113q94 0 123 138l53 249h137l-72 -341q-4 -21 3 -30t28 -9h43l-51 -243h-123l26 123h-6q-33 0 -53.5 19.5t-10.5 51.5l1 4q-59 -85 -155 -85q-87 0 -126 76q-26 -34 -69 -54.5t-92 -20.5q-97 0 -142.5 71t-26.5 162l59 276h137l-57 -269q-11 -54 4.5 -86t54.5 -32
q45 0 76.5 31.5t44.5 95.5l55 260h137l-57 -269q-11 -54 4.5 -86t54.5 -32z" />
    <glyph glyph-name="uni0442.loclBGR" horiz-adv-x="891" 
d="M13 0l106 500h137l-11 -52q50 62 138 62q86 0 127 -76q25 34 68.5 54.5t92.5 20.5q97 0 142 -71t26 -162l-59 -276h-137l57 269q11 55 -4.5 86.5t-54.5 31.5q-92 0 -120 -127l-56 -260h-137l57 269q11 55 -4.5 86.5t-54.5 31.5q-94 0 -123 -138l-53 -249h-137z" />
    <glyph glyph-name="uni043A.loclBGR" horiz-adv-x="550" 
d="M13 0l160 750h137l-96 -451l207 201h168l-258 -250l184 -250h-160l-160 213l-45 -213h-137z" />
    <glyph glyph-name="uni0436.loclBGR" horiz-adv-x="819" 
d="M114 0h-178l293 264l-149 236h146l125 -204l97 454h137l-96 -451l201 201h163l-257 -256l183 -244h-156l-155 202l-43 -202h-137l43 199z" />
    <glyph glyph-name="uni044A.loclBGR" horiz-adv-x="582" 
d="M329 500l-32 -149h77q75 0 120 -48.5t45 -118.5q0 -85 -56 -140t-158 -55h-26q-85 0 -138.5 57t-35.5 140l41 194h-125l26 120h262zM326 106q39 0 61.5 19t22.5 53q0 56 -61 56h-77l-12 -61q-7 -33 11.5 -50t54.5 -17z" />
    <glyph glyph-name="apple" horiz-adv-x="535" 
d="M309 675l129 48l-131 -252l233 10l-415 -492l242 402l-205 -12zM440 715q5 0 5 -5t-5 -5t-5 5t5 5zM450 705q5 0 5 -5t-5 -5t-5 5t5 5zM440 705q5 0 5 -5t-5 -5t-5 5t5 5zM430 695q5 0 5 -5t-5 -5t-5 5t5 5zM440 695q5 0 5 -5t-5 -5t-5 5t5 5zM450 695q5 0 5 -5t-5 -5
t-5 5t5 5zM460 695q5 0 5 -5t-5 -5t-5 5t5 5zM430 685q5 0 5 -5t-5 -5t-5 5t5 5zM440 685q5 0 5 -5t-5 -5t-5 5t5 5zM450 685q5 0 5 -5t-5 -5t-5 5t5 5zM460 685q5 0 5 -5t-5 -5t-5 5t5 5zM430 675q5 0 5 -5t-5 -5t-5 5t5 5zM440 675q5 0 5 -5t-5 -5t-5 5t5 5zM450 675
q5 0 5 -5t-5 -5t-5 5t5 5zM420 675q5 0 5 -5t-5 -5t-5 5t5 5zM430 665q5 0 5 -5t-5 -5t-5 5t5 5zM440 665q5 0 5 -5t-5 -5t-5 5t5 5zM450 665q5 0 5 -5t-5 -5t-5 5t5 5zM420 665q5 0 5 -5t-5 -5t-5 5t5 5zM420 655q5 0 5 -5t-5 -5t-5 5t5 5zM430 655q5 0 5 -5t-5 -5t-5 5
t5 5zM440 655q5 0 5 -5t-5 -5t-5 5t5 5zM410 655q5 0 5 -5t-5 -5t-5 5t5 5zM430 645q5 0 5 -5t-5 -5t-5 5t5 5zM410 645q5 0 5 -5t-5 -5t-5 5t5 5zM420 645q5 0 5 -5t-5 -5t-5 5t5 5zM430 635q5 0 5 -5t-5 -5t-5 5t5 5zM400 635q5 0 5 -5t-5 -5t-5 5t5 5zM410 635q5 0 5 -5
t-5 -5t-5 5t5 5zM420 635q5 0 5 -5t-5 -5t-5 5t5 5zM400 625q5 0 5 -5t-5 -5t-5 5t5 5zM410 625q5 0 5 -5t-5 -5t-5 5t5 5zM420 625q5 0 5 -5t-5 -5t-5 5t5 5zM390 615q5 0 5 -5t-5 -5t-5 5t5 5zM400 615q5 0 5 -5t-5 -5t-5 5t5 5zM410 615q5 0 5 -5t-5 -5t-5 5t5 5z
M420 615q5 0 5 -5t-5 -5t-5 5t5 5zM410 605q5 0 5 -5t-5 -5t-5 5t5 5zM380 605q5 0 5 -5t-5 -5t-5 5t5 5zM390 605q5 0 5 -5t-5 -5t-5 5t5 5zM400 605q5 0 5 -5t-5 -5t-5 5t5 5zM410 595q5 0 5 -5t-5 -5t-5 5t5 5zM380 595q5 0 5 -5t-5 -5t-5 5t5 5zM390 595q5 0 5 -5t-5 -5
t-5 5t5 5zM400 595q5 0 5 -5t-5 -5t-5 5t5 5zM370 585q5 0 5 -5t-5 -5t-5 5t5 5zM380 585q5 0 5 -5t-5 -5t-5 5t5 5zM390 585q5 0 5 -5t-5 -5t-5 5t5 5zM400 585q5 0 5 -5t-5 -5t-5 5t5 5zM370 575q5 0 5 -5t-5 -5t-5 5t5 5zM380 575q5 0 5 -5t-5 -5t-5 5t5 5zM390 575
q5 0 5 -5t-5 -5t-5 5t5 5zM370 565q5 0 5 -5t-5 -5t-5 5t5 5zM380 565q5 0 5 -5t-5 -5t-5 5t5 5zM390 565q5 0 5 -5t-5 -5t-5 5t5 5zM360 565q5 0 5 -5t-5 -5t-5 5t5 5zM370 555q5 0 5 -5t-5 -5t-5 5t5 5zM380 555q5 0 5 -5t-5 -5t-5 5t5 5zM360 555q5 0 5 -5t-5 -5t-5 5
t5 5zM370 545q5 0 5 -5t-5 -5t-5 5t5 5zM380 545q5 0 5 -5t-5 -5t-5 5t5 5zM360 545q5 0 5 -5t-5 -5t-5 5t5 5zM350 545q5 0 5 -5t-5 -5t-5 5t5 5zM360 535q5 0 5 -5t-5 -5t-5 5t5 5zM370 535q5 0 5 -5t-5 -5t-5 5t5 5zM350 535q5 0 5 -5t-5 -5t-5 5t5 5zM370 525q5 0 5 -5
t-5 -5t-5 5t5 5zM340 525q5 0 5 -5t-5 -5t-5 5t5 5zM350 525q5 0 5 -5t-5 -5t-5 5t5 5zM360 525q5 0 5 -5t-5 -5t-5 5t5 5zM360 515q5 0 5 -5t-5 -5t-5 5t5 5zM340 515q5 0 5 -5t-5 -5t-5 5t5 5zM350 515q5 0 5 -5t-5 -5t-5 5t5 5zM330 505q5 0 5 -5t-5 -5t-5 5t5 5z
M350 505q5 0 5 -5t-5 -5t-5 5t5 5zM360 505q5 0 5 -5t-5 -5t-5 5t5 5zM340 505q5 0 5 -5t-5 -5t-5 5t5 5zM330 495q5 0 5 -5t-5 -5t-5 5t5 5zM340 495q5 0 5 -5t-5 -5t-5 5t5 5zM350 495q5 0 5 -5t-5 -5t-5 5t5 5zM350 485q5 0 5 -5t-5 -5t-5 5t5 5zM320 485q5 0 5 -5t-5 -5
t-5 5t5 5zM330 485q5 0 5 -5t-5 -5t-5 5t5 5zM340 485q5 0 5 -5t-5 -5t-5 5t5 5zM540 475q5 0 5 -5t-5 -5t-5 5t5 5zM550 465q5 0 5 -5t-5 -5t-5 5t5 5zM540 465q5 0 5 -5t-5 -5t-5 5t5 5zM530 465q5 0 5 -5t-5 -5t-5 5t5 5zM550 455q5 0 5 -5t-5 -5t-5 5t5 5zM530 455
q5 0 5 -5t-5 -5t-5 5t5 5zM540 455q5 0 5 -5t-5 -5t-5 5t5 5zM530 445q5 0 5 -5t-5 -5t-5 5t5 5zM520 445q5 0 5 -5t-5 -5t-5 5t5 5zM560 445q5 0 5 -5t-5 -5t-5 5t5 5zM550 445q5 0 5 -5t-5 -5t-5 5t5 5zM540 445q5 0 5 -5t-5 -5t-5 5t5 5zM520 435q5 0 5 -5t-5 -5t-5 5
t5 5zM560 435q5 0 5 -5t-5 -5t-5 5t5 5zM550 435q5 0 5 -5t-5 -5t-5 5t5 5zM540 435q5 0 5 -5t-5 -5t-5 5t5 5zM530 435q5 0 5 -5t-5 -5t-5 5t5 5zM510 435q5 0 5 -5t-5 -5t-5 5t5 5zM540 425q5 0 5 -5t-5 -5t-5 5t5 5zM500 425q5 0 5 -5t-5 -5t-5 5t5 5zM510 425q5 0 5 -5
t-5 -5t-5 5t5 5zM520 425q5 0 5 -5t-5 -5t-5 5t5 5zM530 425q5 0 5 -5t-5 -5t-5 5t5 5zM550 425q5 0 5 -5t-5 -5t-5 5t5 5zM500 415q5 0 5 -5t-5 -5t-5 5t5 5zM490 415q5 0 5 -5t-5 -5t-5 5t5 5zM540 415q5 0 5 -5t-5 -5t-5 5t5 5zM530 415q5 0 5 -5t-5 -5t-5 5t5 5z
M520 415q5 0 5 -5t-5 -5t-5 5t5 5zM510 415q5 0 5 -5t-5 -5t-5 5t5 5zM500 405q5 0 5 -5t-5 -5t-5 5t5 5zM490 405q5 0 5 -5t-5 -5t-5 5t5 5zM480 405q5 0 5 -5t-5 -5t-5 5t5 5zM530 405q5 0 5 -5t-5 -5t-5 5t5 5zM520 405q5 0 5 -5t-5 -5t-5 5t5 5zM510 405q5 0 5 -5t-5 -5
t-5 5t5 5zM500 395q5 0 5 -5t-5 -5t-5 5t5 5zM510 395q5 0 5 -5t-5 -5t-5 5t5 5zM480 395q5 0 5 -5t-5 -5t-5 5t5 5zM470 395q5 0 5 -5t-5 -5t-5 5t5 5zM490 395q5 0 5 -5t-5 -5t-5 5t5 5zM520 395q5 0 5 -5t-5 -5t-5 5t5 5zM340 385q5 0 5 -5t-5 -5t-5 5t5 5zM330 385
q5 0 5 -5t-5 -5t-5 5t5 5zM320 385q5 0 5 -5t-5 -5t-5 5t5 5zM310 385q5 0 5 -5t-5 -5t-5 5t5 5zM300 385q5 0 5 -5t-5 -5t-5 5t5 5zM290 385q5 0 5 -5t-5 -5t-5 5t5 5zM280 385q5 0 5 -5t-5 -5t-5 5t5 5zM270 385q5 0 5 -5t-5 -5t-5 5t5 5zM500 385q5 0 5 -5t-5 -5t-5 5
t5 5zM490 385q5 0 5 -5t-5 -5t-5 5t5 5zM480 385q5 0 5 -5t-5 -5t-5 5t5 5zM470 385q5 0 5 -5t-5 -5t-5 5t5 5zM510 385q5 0 5 -5t-5 -5t-5 5t5 5zM350 385q5 0 5 -5t-5 -5t-5 5t5 5zM490 375q5 0 5 -5t-5 -5t-5 5t5 5zM170 375q5 0 5 -5t-5 -5t-5 5t5 5zM180 375q5 0 5 -5
t-5 -5t-5 5t5 5zM190 375q5 0 5 -5t-5 -5t-5 5t5 5zM200 375q5 0 5 -5t-5 -5t-5 5t5 5zM210 375q5 0 5 -5t-5 -5t-5 5t5 5zM220 375q5 0 5 -5t-5 -5t-5 5t5 5zM460 375q5 0 5 -5t-5 -5t-5 5t5 5zM470 375q5 0 5 -5t-5 -5t-5 5t5 5zM230 375q5 0 5 -5t-5 -5t-5 5t5 5z
M240 375q5 0 5 -5t-5 -5t-5 5t5 5zM250 375q5 0 5 -5t-5 -5t-5 5t5 5zM260 375q5 0 5 -5t-5 -5t-5 5t5 5zM270 375q5 0 5 -5t-5 -5t-5 5t5 5zM280 375q5 0 5 -5t-5 -5t-5 5t5 5zM480 375q5 0 5 -5t-5 -5t-5 5t5 5zM500 375q5 0 5 -5t-5 -5t-5 5t5 5zM290 375q5 0 5 -5t-5 -5
t-5 5t5 5zM300 375q5 0 5 -5t-5 -5t-5 5t5 5zM310 375q5 0 5 -5t-5 -5t-5 5t5 5zM320 375q5 0 5 -5t-5 -5t-5 5t5 5zM330 375q5 0 5 -5t-5 -5t-5 5t5 5zM340 375q5 0 5 -5t-5 -5t-5 5t5 5zM470 365q5 0 5 -5t-5 -5t-5 5t5 5zM490 365q5 0 5 -5t-5 -5t-5 5t5 5zM170 365
q5 0 5 -5t-5 -5t-5 5t5 5zM180 365q5 0 5 -5t-5 -5t-5 5t5 5zM190 365q5 0 5 -5t-5 -5t-5 5t5 5zM200 365q5 0 5 -5t-5 -5t-5 5t5 5zM480 365q5 0 5 -5t-5 -5t-5 5t5 5zM340 365q5 0 5 -5t-5 -5t-5 5t5 5zM330 365q5 0 5 -5t-5 -5t-5 5t5 5zM320 365q5 0 5 -5t-5 -5t-5 5
t5 5zM310 365q5 0 5 -5t-5 -5t-5 5t5 5zM300 365q5 0 5 -5t-5 -5t-5 5t5 5zM290 365q5 0 5 -5t-5 -5t-5 5t5 5zM210 365q5 0 5 -5t-5 -5t-5 5t5 5zM220 365q5 0 5 -5t-5 -5t-5 5t5 5zM230 365q5 0 5 -5t-5 -5t-5 5t5 5zM240 365q5 0 5 -5t-5 -5t-5 5t5 5zM250 365q5 0 5 -5
t-5 -5t-5 5t5 5zM260 365q5 0 5 -5t-5 -5t-5 5t5 5zM270 365q5 0 5 -5t-5 -5t-5 5t5 5zM460 365q5 0 5 -5t-5 -5t-5 5t5 5zM450 365q5 0 5 -5t-5 -5t-5 5t5 5zM280 365q5 0 5 -5t-5 -5t-5 5t5 5zM440 355q5 0 5 -5t-5 -5t-5 5t5 5zM260 355q5 0 5 -5t-5 -5t-5 5t5 5z
M250 355q5 0 5 -5t-5 -5t-5 5t5 5zM240 355q5 0 5 -5t-5 -5t-5 5t5 5zM230 355q5 0 5 -5t-5 -5t-5 5t5 5zM450 355q5 0 5 -5t-5 -5t-5 5t5 5zM490 355q5 0 5 -5t-5 -5t-5 5t5 5zM480 355q5 0 5 -5t-5 -5t-5 5t5 5zM220 355q5 0 5 -5t-5 -5t-5 5t5 5zM210 355q5 0 5 -5t-5 -5
t-5 5t5 5zM200 355q5 0 5 -5t-5 -5t-5 5t5 5zM190 355q5 0 5 -5t-5 -5t-5 5t5 5zM180 355q5 0 5 -5t-5 -5t-5 5t5 5zM470 355q5 0 5 -5t-5 -5t-5 5t5 5zM460 355q5 0 5 -5t-5 -5t-5 5t5 5zM480 345q5 0 5 -5t-5 -5t-5 5t5 5zM470 345q5 0 5 -5t-5 -5t-5 5t5 5zM460 345
q5 0 5 -5t-5 -5t-5 5t5 5zM450 345q5 0 5 -5t-5 -5t-5 5t5 5zM440 345q5 0 5 -5t-5 -5t-5 5t5 5zM430 345q5 0 5 -5t-5 -5t-5 5t5 5zM450 335q5 0 5 -5t-5 -5t-5 5t5 5zM460 335q5 0 5 -5t-5 -5t-5 5t5 5zM470 335q5 0 5 -5t-5 -5t-5 5t5 5zM440 335q5 0 5 -5t-5 -5t-5 5
t5 5zM430 335q5 0 5 -5t-5 -5t-5 5t5 5zM420 335q5 0 5 -5t-5 -5t-5 5t5 5zM440 325q5 0 5 -5t-5 -5t-5 5t5 5zM460 325q5 0 5 -5t-5 -5t-5 5t5 5zM450 325q5 0 5 -5t-5 -5t-5 5t5 5zM420 325q5 0 5 -5t-5 -5t-5 5t5 5zM430 325q5 0 5 -5t-5 -5t-5 5t5 5zM430 315q5 0 5 -5
t-5 -5t-5 5t5 5zM420 315q5 0 5 -5t-5 -5t-5 5t5 5zM410 315q5 0 5 -5t-5 -5t-5 5t5 5zM440 315q5 0 5 -5t-5 -5t-5 5t5 5zM450 315q5 0 5 -5t-5 -5t-5 5t5 5zM410 305q5 0 5 -5t-5 -5t-5 5t5 5zM400 305q5 0 5 -5t-5 -5t-5 5t5 5zM420 305q5 0 5 -5t-5 -5t-5 5t5 5z
M430 305q5 0 5 -5t-5 -5t-5 5t5 5zM440 305q5 0 5 -5t-5 -5t-5 5t5 5zM390 295q5 0 5 -5t-5 -5t-5 5t5 5zM400 295q5 0 5 -5t-5 -5t-5 5t5 5zM410 295q5 0 5 -5t-5 -5t-5 5t5 5zM420 295q5 0 5 -5t-5 -5t-5 5t5 5zM430 295q5 0 5 -5t-5 -5t-5 5t5 5zM410 285q5 0 5 -5t-5 -5
t-5 5t5 5zM380 285q5 0 5 -5t-5 -5t-5 5t5 5zM390 285q5 0 5 -5t-5 -5t-5 5t5 5zM400 285q5 0 5 -5t-5 -5t-5 5t5 5zM420 285q5 0 5 -5t-5 -5t-5 5t5 5zM390 275q5 0 5 -5t-5 -5t-5 5t5 5zM400 275q5 0 5 -5t-5 -5t-5 5t5 5zM410 275q5 0 5 -5t-5 -5t-5 5t5 5zM370 275
q5 0 5 -5t-5 -5t-5 5t5 5zM380 275q5 0 5 -5t-5 -5t-5 5t5 5zM390 265q5 0 5 -5t-5 -5t-5 5t5 5zM370 265q5 0 5 -5t-5 -5t-5 5t5 5zM380 265q5 0 5 -5t-5 -5t-5 5t5 5zM400 265q5 0 5 -5t-5 -5t-5 5t5 5zM390 255q5 0 5 -5t-5 -5t-5 5t5 5zM380 255q5 0 5 -5t-5 -5t-5 5
t5 5zM370 255q5 0 5 -5t-5 -5t-5 5t5 5zM360 255q5 0 5 -5t-5 -5t-5 5t5 5zM380 245q5 0 5 -5t-5 -5t-5 5t5 5zM370 245q5 0 5 -5t-5 -5t-5 5t5 5zM360 245q5 0 5 -5t-5 -5t-5 5t5 5zM350 245q5 0 5 -5t-5 -5t-5 5t5 5zM370 235q5 0 5 -5t-5 -5t-5 5t5 5zM360 235q5 0 5 -5
t-5 -5t-5 5t5 5zM350 235q5 0 5 -5t-5 -5t-5 5t5 5zM340 235q5 0 5 -5t-5 -5t-5 5t5 5zM360 225q5 0 5 -5t-5 -5t-5 5t5 5zM350 225q5 0 5 -5t-5 -5t-5 5t5 5zM340 225q5 0 5 -5t-5 -5t-5 5t5 5zM330 225q5 0 5 -5t-5 -5t-5 5t5 5zM360 215q5 0 5 -5t-5 -5t-5 5t5 5z
M350 215q5 0 5 -5t-5 -5t-5 5t5 5zM340 215q5 0 5 -5t-5 -5t-5 5t5 5zM330 215q5 0 5 -5t-5 -5t-5 5t5 5zM320 215q5 0 5 -5t-5 -5t-5 5t5 5zM350 205q5 0 5 -5t-5 -5t-5 5t5 5zM330 205q5 0 5 -5t-5 -5t-5 5t5 5zM310 205q5 0 5 -5t-5 -5t-5 5t5 5zM320 205q5 0 5 -5t-5 -5
t-5 5t5 5zM340 205q5 0 5 -5t-5 -5t-5 5t5 5zM330 195q5 0 5 -5t-5 -5t-5 5t5 5zM340 195q5 0 5 -5t-5 -5t-5 5t5 5zM310 195q5 0 5 -5t-5 -5t-5 5t5 5zM320 195q5 0 5 -5t-5 -5t-5 5t5 5zM330 185q5 0 5 -5t-5 -5t-5 5t5 5zM310 185q5 0 5 -5t-5 -5t-5 5t5 5zM320 185
q5 0 5 -5t-5 -5t-5 5t5 5zM300 185q5 0 5 -5t-5 -5t-5 5t5 5zM290 175q5 0 5 -5t-5 -5t-5 5t5 5zM320 175q5 0 5 -5t-5 -5t-5 5t5 5zM310 175q5 0 5 -5t-5 -5t-5 5t5 5zM300 175q5 0 5 -5t-5 -5t-5 5t5 5zM310 165q5 0 5 -5t-5 -5t-5 5t5 5zM300 165q5 0 5 -5t-5 -5t-5 5
t5 5zM290 165q5 0 5 -5t-5 -5t-5 5t5 5zM280 165q5 0 5 -5t-5 -5t-5 5t5 5zM300 155q5 0 5 -5t-5 -5t-5 5t5 5zM290 155q5 0 5 -5t-5 -5t-5 5t5 5zM280 155q5 0 5 -5t-5 -5t-5 5t5 5zM270 155q5 0 5 -5t-5 -5t-5 5t5 5zM270 145q5 0 5 -5t-5 -5t-5 5t5 5zM280 145q5 0 5 -5
t-5 -5t-5 5t5 5zM290 145q5 0 5 -5t-5 -5t-5 5t5 5zM260 145q5 0 5 -5t-5 -5t-5 5t5 5zM260 135q5 0 5 -5t-5 -5t-5 5t5 5zM270 135q5 0 5 -5t-5 -5t-5 5t5 5zM280 135q5 0 5 -5t-5 -5t-5 5t5 5zM250 125q5 0 5 -5t-5 -5t-5 5t5 5zM260 125q5 0 5 -5t-5 -5t-5 5t5 5z
M270 125q5 0 5 -5t-5 -5t-5 5t5 5zM240 115q5 0 5 -5t-5 -5t-5 5t5 5zM250 115q5 0 5 -5t-5 -5t-5 5t5 5zM260 115q5 0 5 -5t-5 -5t-5 5t5 5zM230 105q5 0 5 -5t-5 -5t-5 5t5 5zM240 105q5 0 5 -5t-5 -5t-5 5t5 5zM250 105q5 0 5 -5t-5 -5t-5 5t5 5zM240 95q5 0 5 -5t-5 -5
t-5 5t5 5zM230 95q5 0 5 -5t-5 -5t-5 5t5 5zM250 95q5 0 5 -5t-5 -5t-5 5t5 5zM220 95q5 0 5 -5t-5 -5t-5 5t5 5zM230 85q5 0 5 -5t-5 -5t-5 5t5 5zM240 85q5 0 5 -5t-5 -5t-5 5t5 5zM210 85q5 0 5 -5t-5 -5t-5 5t5 5zM220 85q5 0 5 -5t-5 -5t-5 5t5 5zM210 75q5 0 5 -5
t-5 -5t-5 5t5 5zM230 75q5 0 5 -5t-5 -5t-5 5t5 5zM220 75q5 0 5 -5t-5 -5t-5 5t5 5zM200 65q5 0 5 -5t-5 -5t-5 5t5 5zM210 65q5 0 5 -5t-5 -5t-5 5t5 5zM220 65q5 0 5 -5t-5 -5t-5 5t5 5zM190 55q5 0 5 -5t-5 -5t-5 5t5 5zM200 55q5 0 5 -5t-5 -5t-5 5t5 5zM210 55
q5 0 5 -5t-5 -5t-5 5t5 5zM180 45q5 0 5 -5t-5 -5t-5 5t5 5zM200 45q5 0 5 -5t-5 -5t-5 5t5 5zM190 45q5 0 5 -5t-5 -5t-5 5t5 5zM170 35q5 0 5 -5t-5 -5t-5 5t5 5zM180 35q5 0 5 -5t-5 -5t-5 5t5 5zM190 35q5 0 5 -5t-5 -5t-5 5t5 5zM170 25q5 0 5 -5t-5 -5t-5 5t5 5z
M180 25q5 0 5 -5t-5 -5t-5 5t5 5zM160 25q5 0 5 -5t-5 -5t-5 5t5 5zM150 15q5 0 5 -5t-5 -5t-5 5t5 5zM160 15q5 0 5 -5t-5 -5t-5 5t5 5zM170 15q5 0 5 -5t-5 -5t-5 5t5 5zM150 5q5 0 5 -5t-5 -5t-5 5t5 5zM160 5q5 0 5 -5t-5 -5t-5 5t5 5zM140 -5q5 0 5 -5t-5 -5t-5 5t5 5z
M150 -5q5 0 5 -5t-5 -5t-5 5t5 5zM140 -15q5 0 5 -5t-5 -5t-5 5t5 5z" />
    <glyph glyph-name="dot" 
d="M143 582q-36 0 -62 25.5t-26 61.5t26 61.5t62 25.5t61.5 -25.5t25.5 -61.5t-25.5 -61.5t-61.5 -25.5z" />
    <glyph glyph-name="dotaccent.l" 
d="M0 -75q-31 0 -53.5 22t-22.5 53q0 32 22 54t54 22q31 0 53 -22.5t22 -53.5t-22 -53t-53 -22z" />
    <glyph glyph-name="dotaccent.low" 
d="M-30 -219q-32 0 -54 22t-22 53q0 32 22 54t54 22q31 0 53 -22.5t22 -53.5t-22 -53t-53 -22z" />
    <glyph glyph-name="caron.slovak" 
d="M38 549l55 161h137l-99 -161h-93z" />
    <glyph glyph-name="commaaccent.top" 
d="M138 577q-31 0 -53 22.5t-22 53.5q0 27 18 48l95 114h60l-59 -98q37 -21 37 -64q0 -31 -22 -53.5t-54 -22.5z" />
    <glyph glyph-name="dieresis.i" 
d="M44 577q-31 0 -53.5 22t-22.5 53t22.5 53.5t53.5 22.5t53 -22.5t22 -53.5t-22 -53t-53 -22zM233 577q-31 0 -53 22t-22 53t22 53.5t53 22.5t53.5 -22t22.5 -54q0 -31 -22.5 -53t-53.5 -22z" />
    <glyph glyph-name="zero.slashed" horiz-adv-x="628" 
d="M286 -11q-127 0 -191 85t-37 217l35 169q26 124 99 193t191 69q127 0 191 -85t37 -217l-35 -169q-26 -124 -99 -193t-191 -69zM228 450l-24 -111l279 159q-6 42 -35 65.5t-73 23.5q-118 0 -147 -137zM295 124q118 0 147 137l23 111l-279 -159q6 -42 35.5 -65.5
t73.5 -23.5z" />
    <glyph glyph-name="one.pof" horiz-adv-x="347" 
d="M82 0l96 440h-131l126 120h171l-125 -560h-137z" />
    <glyph glyph-name="two.pof" horiz-adv-x="506" 
d="M-10 0l15 65q5 23 14.5 44t18.5 36.5t27.5 32.5t28 26t35 24.5t33.5 20t38.5 20.5t36.5 19q28 14 41 22t32.5 22t27.5 29.5t8 34.5q0 53 -57 53q-31 0 -51.5 -19t-24.5 -49h-136q10 89 72.5 139t154.5 50q74 0 128 -44.5t54 -117.5q0 -77 -39.5 -123t-125.5 -92
q-4 -2 -25.5 -12.5t-36.5 -18.5t-31 -20t-20 -22h218l-29 -120h-407z" />
    <glyph glyph-name="three.pof" horiz-adv-x="527" 
d="M237 -78q-56 0 -105.5 22t-83.5 72.5t-29 119.5h132q0 -45 26.5 -69t65.5 -24q38 0 60.5 23t22.5 61q0 33 -22.5 55t-56.5 22h-53l24 100h42q40 0 63.5 22.5t23.5 57.5q0 31 -18 48t-49 17q-34 0 -58 -23.5t-28 -63.5h-138q8 100 78 154t158 54q86 0 138.5 -47t52.5 -121
q0 -115 -92 -160q29 -18 46.5 -50.5t17.5 -71.5q0 -82 -57 -140t-161 -58z" />
    <glyph glyph-name="four.pof" horiz-adv-x="556" 
d="M242 -68l28 143h-294l23 99l387 386h123l-75 -373h77l-26 -112h-78l-28 -143h-137zM297 187l31 163l-153 -163h122z" />
    <glyph glyph-name="five.pof" horiz-adv-x="515" 
d="M226 -78q-85 0 -151.5 51t-77.5 142h141q26 -72 92 -72q39 0 64 27t25 71q0 40 -20 67t-60 27q-61 0 -91 -65l-122 36l137 354h332l-28 -119h-215l-43 -112q37 17 83 17q74 0 119 -55.5t45 -135.5q0 -103 -57.5 -168t-172.5 -65z" />
    <glyph glyph-name="six.pof" horiz-adv-x="523" 
d="M243 -11q-99 0 -158.5 57t-59.5 134q0 66 23 111.5t87 117.5l194 218h173l-194 -220q70 -5 119.5 -59.5t49.5 -133.5q0 -96 -65 -160.5t-169 -64.5zM243 107q41 0 68.5 30t27.5 74q0 39 -22.5 65t-59.5 26q-42 0 -69 -29.5t-27 -74.5q0 -39 22.5 -65t59.5 -26z" />
    <glyph glyph-name="seven.pof" horiz-adv-x="482" 
d="M-37 -68l373 509h-271l28 119h436l-25 -107l-375 -521h-166z" />
    <glyph glyph-name="eight.pof" horiz-adv-x="544" 
d="M488 204q0 -104 -71.5 -159.5t-170.5 -55.5q-98 0 -158.5 57t-60.5 129q0 58 29 107t89 75q-38 43 -38 101q0 82 59 130.5t159 48.5q79 0 133 -46.5t56 -110.5q2 -92 -85 -148q59 -56 59 -128zM239 449q0 -29 18 -47t47 -18q33 0 55.5 22t22.5 57q0 29 -17.5 47.5
t-46.5 18.5q-34 0 -56.5 -22.5t-22.5 -57.5zM168 187q0 -36 22.5 -60.5t59.5 -24.5q42 0 69 29t27 72q0 36 -22 60.5t-60 24.5q-43 0 -69.5 -29t-26.5 -72z" />
    <glyph glyph-name="nine.pof" horiz-adv-x="523" 
d="M30 -68l194 220q-69 5 -119 59.5t-50 133.5q0 96 64.5 160.5t168.5 64.5q99 0 159 -57t60 -134q0 -65 -23 -110t-88 -119l-193 -218h-173zM275 257q41 0 68 30t27 74q0 39 -22 65t-59 26q-42 0 -69 -29.5t-27 -74.5q0 -39 22.5 -65t59.5 -26z" />
    <glyph glyph-name="zero.pof" horiz-adv-x="546" 
d="M240 -9q-109 0 -162.5 68.5t-32.5 176.5l25 127q19 97 82.5 152t162.5 55q110 0 164 -69t31 -177l-26 -126q-20 -97 -83 -152t-161 -55zM250 111q80 0 101 97l29 137q10 48 -12 76t-62 28q-42 0 -66 -23.5t-35 -72.5l-30 -137q-10 -48 12 -76.5t63 -28.5z" />
    <glyph glyph-name="zero.slashed.pof" horiz-adv-x="546" 
d="M240 -9q-109 0 -162.5 68.5t-32.5 176.5l25 127q19 97 82.5 152t162.5 55q110 0 164 -69t31 -177l-26 -126q-20 -97 -83 -152t-161 -55zM205 353l-14 -63l188 108q-14 51 -73 51q-42 0 -66 -23.5t-35 -72.5zM250 111q80 0 101 97l14 64l-190 -107q14 -54 75 -54z" />
    <glyph glyph-name="one.tlf" horiz-adv-x="590" 
d="M346 128h174l-27 -128h-485l27 128h174l95 447h-151l129 135h188z" />
    <glyph glyph-name="two.tlf" horiz-adv-x="590" 
d="M-3 0l15 72q9 44 30.5 82.5t42 62.5t60.5 51.5t61.5 39.5t69.5 37q15 8 23 12q75 40 110 72.5t35 79.5q0 35 -24 56.5t-64 21.5q-45 0 -77.5 -27t-38.5 -73h-137q12 111 86 173t180 62q88 0 151.5 -54.5t63.5 -145.5q0 -98 -47.5 -157t-158.5 -117q-5 -3 -27 -14
t-32.5 -16.5t-29.5 -17t-30 -20.5t-22 -21t-16 -24h287l-29 -135h-482z" />
    <glyph glyph-name="three.tlf" horiz-adv-x="590" 
d="M289 -11q-102 0 -178 63.5t-68 177.5h132q-1 -51 33.5 -78.5t83.5 -27.5q51 0 82.5 28t31.5 72q0 36 -28 60t-72 24h-67l24 112h52q56 0 86.5 25.5t29.5 69.5q0 33 -25 52.5t-63 19.5q-44 0 -79.5 -27.5t-42.5 -72.5h-137q10 113 88.5 174t179.5 61q94 0 155 -53.5
t61 -135.5q0 -128 -112 -181q37 -20 59.5 -57.5t22.5 -81.5q0 -93 -65.5 -158.5t-183.5 -65.5z" />
    <glyph glyph-name="four.tlf" horiz-adv-x="590" 
d="M301 0l34 162h-353l23 111l461 437h123l-90 -422h92l-26 -126h-93l-34 -162h-137zM362 288l43 207l-217 -207h174z" />
    <glyph glyph-name="five.tlf" horiz-adv-x="590" 
d="M279 -11q-96 0 -172 57.5t-87 159.5h141q31 -82 123 -82q50 0 84.5 33t34.5 83q0 44 -26 74t-77 30q-80 0 -119 -74l-122 41l164 399h365l-29 -133h-248l-52 -125q42 16 87 16q86 0 140 -63t54 -153q0 -116 -66 -189.5t-195 -73.5z" />
    <glyph glyph-name="six.tlf" horiz-adv-x="590" 
d="M284 -12q-111 0 -179 64.5t-68 151.5q0 75 27.5 130t97.5 127l240 248h181l-239 -249q83 -5 140.5 -65.5t57.5 -151.5q0 -109 -71 -182t-187 -73zM284 120q51 0 84 33.5t33 84.5q0 44 -30.5 74.5t-76.5 30.5q-51 0 -84 -34t-33 -85q0 -44 31 -74t76 -30z" />
    <glyph glyph-name="seven.tlf" horiz-adv-x="590" 
d="M7 0l435 577h-322l28 133h495l-25 -119l-445 -591h-166z" />
    <glyph glyph-name="eight.tlf" horiz-adv-x="590" 
d="M539 231q0 -119 -75.5 -180.5t-187.5 -61.5q-113 0 -177.5 63.5t-64.5 146.5q0 66 32.5 121.5t99.5 84.5q-44 44 -44 114q0 93 66 148t171 55q92 0 149 -52.5t59 -125.5q1 -50 -24 -93.5t-70 -73.5q66 -55 66 -146zM255 509q0 -33 22 -54t62 -21q43 1 69.5 26t26.5 66
q0 33 -21.5 53.5t-62.5 20.5q-43 -1 -69.5 -25.5t-26.5 -65.5zM174 213q0 -41 27.5 -69.5t79.5 -27.5q52 0 84.5 32.5t32.5 81.5q0 40 -27.5 69.5t-79.5 28.5q-53 -1 -85 -34t-32 -81z" />
    <glyph glyph-name="nine.tlf" horiz-adv-x="590" 
d="M46 0l241 250q-83 5 -140.5 65.5t-57.5 152.5q0 108 71 181t187 73q111 0 179 -64.5t68 -151.5q0 -75 -27.5 -129.5t-97.5 -127.5l-241 -249h-182zM337 367q51 0 84 34t33 85q0 44 -31 74t-77 30q-51 0 -83.5 -33.5t-32.5 -84.5q0 -44 31 -74.5t76 -30.5z" />
    <glyph glyph-name="zero.tlf" horiz-adv-x="590" 
d="M266 -11q-127 0 -191 85t-37 217l35 169q26 124 99 193t191 69q127 0 191 -85t37 -217l-35 -169q-26 -124 -99 -193t-191 -69zM275 124q118 0 147 137l38 181q14 66 -17 105.5t-88 39.5q-118 0 -147 -137l-39 -180q-15 -67 16.5 -106.5t89.5 -39.5z" />
    <glyph glyph-name="zero.slashed.tlf" horiz-adv-x="590" 
d="M266 -11q-127 0 -191 85t-37 217l35 169q26 124 99 193t191 69q127 0 191 -85t37 -217l-35 -169q-26 -124 -99 -193t-191 -69zM208 450l-24 -111l279 159q-6 42 -35 65.5t-73 23.5q-118 0 -147 -137zM275 124q118 0 147 137l23 111l-279 -159q6 -42 35.5 -65.5
t73.5 -23.5z" />
    <glyph glyph-name="zero.slashed.superior" horiz-adv-x="387" 
d="M244 403q-80 0 -120 53.5t-23 137.5l19 96q15 74 61 116.5t118 42.5q80 0 120 -53.5t23 -137.5l-19 -96q-15 -74 -61 -116.5t-118 -42.5zM216 682l-11 -51l147 73q-3 23 -19 36t-39 13q-63 0 -78 -71zM249 499q33 0 51.5 17.5t26.5 54.5l11 51l-146 -72q3 -24 18.5 -37.5
t38.5 -13.5z" />
    <glyph glyph-name="zero.slashed.inferior" horiz-adv-x="386" 
d="M132 -122q-80 0 -120 53.5t-23 137.5l19 96q15 74 61 116.5t118 42.5q80 0 120 -53.5t23 -137.5l-19 -96q-15 -74 -61 -116.5t-118 -42.5zM104 157l-11 -51l147 73q-3 23 -19 36t-39 13q-63 0 -78 -71zM137 -26q33 0 51.5 17.5t26.5 54.5l11 51l-146 -72
q3 -24 18.5 -37.5t38.5 -13.5z" />
    <glyph glyph-name="one.numr" horiz-adv-x="240" 
d="M101 278l71 336h-95l90 96h123l-92 -432h-97z" />
    <glyph glyph-name="two.numr" horiz-adv-x="357" 
d="M32 278l11 52q7 34 22.5 60.5t44.5 48t47 32t57 30.5q57 31 71 49q11 14 11 31q0 40 -44 40q-24 0 -40 -14t-19 -35h-97q7 68 53 106.5t113 38.5q55 0 94 -34t39 -92q0 -60 -29 -96t-93 -69q-3 -1 -19 -9.5t-25 -14t-20.5 -13.5t-14.5 -15h157l-20 -96h-299z" />
    <glyph glyph-name="three.numr" horiz-adv-x="364" 
d="M217 271q-64 0 -111 38.5t-42 112.5h93q1 -27 19 -41t44 -14t41.5 13.5t15.5 35.5q0 18 -13.5 30.5t-37.5 12.5h-41l16 77h31q30 0 45.5 13.5t14.5 35.5q-1 16 -13 26t-32 10q-23 0 -41.5 -14t-20.5 -35h-98q6 71 55 108t112 37q61 0 97.5 -34t36.5 -84q0 -78 -65 -109
q20 -12 33.5 -34.5t13.5 -49.5q0 -55 -40.5 -95t-112.5 -40z" />
    <glyph glyph-name="four.numr" horiz-adv-x="393" 
d="M226 278l19 90h-208l17 79l273 263h88l-54 -253h55l-19 -89h-55l-19 -90h-97zM263 457l21 99l-104 -99h83z" />
    <glyph glyph-name="five.numr" horiz-adv-x="359" 
d="M212 271q-62 0 -109.5 35.5t-54.5 100.5h101q18 -40 64 -40q25 0 44 17t19 42q0 21 -12.5 36t-38.5 15q-47 0 -70 -45l-86 29l102 249h229l-20 -95h-147l-25 -59q21 7 49 7q52 0 84 -37.5t32 -91.5q0 -72 -40.5 -117.5t-120.5 -45.5z" />
    <glyph glyph-name="six.numr" horiz-adv-x="353" 
d="M208 271q-69 0 -110.5 39.5t-41.5 89.5q0 48 17 82.5t64 85.5l130 142h128l-138 -151q48 -5 80.5 -40t32.5 -88q0 -69 -44.5 -114.5t-117.5 -45.5zM209 365q27 0 43.5 16.5t16.5 44.5q0 21 -15 36t-38 15q-26 0 -43 -17t-17 -44q0 -21 15 -36t38 -15z" />
    <glyph glyph-name="seven.numr" horiz-adv-x="346" 
d="M29 278l258 337h-186l20 95h310l-19 -86l-265 -346h-118z" />
    <glyph glyph-name="eight.numr" horiz-adv-x="365" 
d="M207 271q-69 0 -109 38t-40 89q0 90 77 123q-25 26 -25 68q0 57 41.5 92.5t111.5 35.5q56 0 92.5 -31.5t38.5 -77.5q2 -63 -58 -105q36 -35 36 -83q0 -75 -47.5 -112t-117.5 -37zM248 543q23 0 37.5 14t14.5 36q0 17 -12 27.5t-31 10.5q-23 0 -38 -14t-15 -36
q0 -17 12 -27.5t32 -10.5zM211 361q29 0 44.5 16.5t15.5 42.5q0 21 -14.5 34t-38.5 13q-29 0 -44.5 -16.5t-15.5 -42.5q0 -21 14.5 -34t38.5 -13z" />
    <glyph glyph-name="nine.numr" horiz-adv-x="353" 
d="M57 278l138 151q-47 5 -79.5 40.5t-32.5 88.5q0 69 44 114t118 45q70 0 111 -39t41 -90q0 -48 -17 -82.5t-64 -85.5l-131 -142h-128zM237 511q26 0 43 17t17 44q0 22 -14.5 36.5t-38.5 14.5q-26 0 -43 -16.5t-17 -44.5q0 -21 15 -36t38 -15z" />
    <glyph glyph-name="zero.numr" horiz-adv-x="387" 
d="M216 271q-80 0 -120 53.5t-23 137.5l19 96q15 74 61 116.5t118 42.5q80 0 120 -53.5t23 -137.5l-19 -96q-15 -74 -61 -116.5t-118 -42.5zM221 367q33 0 51.5 17.5t26.5 54.5l23 104q8 35 -9 56.5t-47 21.5q-63 0 -78 -71l-22 -105q-7 -36 9 -57t46 -21z" />
    <glyph glyph-name="zero.slashed.numr" horiz-adv-x="387" 
d="M216 271q-80 0 -120 53.5t-23 137.5l19 96q15 74 61 116.5t118 42.5q80 0 120 -53.5t23 -137.5l-19 -96q-15 -74 -61 -116.5t-118 -42.5zM188 550l-11 -51l147 73q-3 23 -19 36t-39 13q-63 0 -78 -71zM221 367q33 0 51.5 17.5t26.5 54.5l11 51l-146 -72q3 -24 18.5 -37.5
t38.5 -13.5z" />
    <glyph glyph-name="one.dnom" horiz-adv-x="240" 
d="M43 0l71 336h-95l90 96h123l-92 -432h-97z" />
    <glyph glyph-name="two.dnom" horiz-adv-x="357" 
d="M-27 0l11 52q7 34 22.5 60.5t44.5 48t47 32t57 30.5q57 31 71 49q11 14 11 31q0 40 -44 40q-24 0 -40 -14t-19 -35h-97q7 68 53 106.5t113 38.5q55 0 94 -34t39 -92q0 -60 -29 -96t-93 -69q-3 -1 -19 -9.5t-25 -14t-20.5 -13.5t-14.5 -15h157l-20 -96h-299z" />
    <glyph glyph-name="three.dnom" horiz-adv-x="364" 
d="M158 -7q-64 0 -111 38.5t-42 112.5h93q1 -27 19 -41t44 -14t41.5 13.5t15.5 35.5q0 18 -13.5 30.5t-37.5 12.5h-41l16 77h31q30 0 45.5 13.5t14.5 35.5q-1 16 -13 26t-32 10q-23 0 -41.5 -14t-20.5 -35h-98q6 71 55 108t112 37q61 0 97.5 -34t36.5 -84q0 -78 -65 -109
q20 -12 33.5 -34.5t13.5 -49.5q0 -55 -40.5 -95t-112.5 -40z" />
    <glyph glyph-name="four.dnom" horiz-adv-x="393" 
d="M167 0l19 90h-208l17 79l273 263h88l-54 -253h55l-19 -89h-55l-19 -90h-97zM204 179l21 99l-104 -99h83z" />
    <glyph glyph-name="five.dnom" horiz-adv-x="359" 
d="M153 -7q-62 0 -109.5 35.5t-54.5 100.5h101q18 -40 64 -40q25 0 44 17t19 42q0 21 -12.5 36t-38.5 15q-47 0 -70 -45l-86 29l102 249h229l-20 -95h-147l-25 -59q21 7 49 7q52 0 84 -37.5t32 -91.5q0 -72 -40.5 -117.5t-120.5 -45.5z" />
    <glyph glyph-name="six.dnom" horiz-adv-x="353" 
d="M149 -7q-69 0 -110.5 39.5t-41.5 89.5q0 48 17 82.5t64 85.5l130 142h128l-138 -151q48 -5 80.5 -40t32.5 -88q0 -69 -44.5 -114.5t-117.5 -45.5zM150 87q26 0 43 16.5t17 44.5q0 21 -15 36t-38 15q-26 0 -43 -17t-17 -44q0 -21 15 -36t38 -15z" />
    <glyph glyph-name="seven.dnom" horiz-adv-x="346" 
d="M-30 0l258 337h-186l20 95h310l-19 -86l-265 -346h-118z" />
    <glyph glyph-name="eight.dnom" horiz-adv-x="365" 
d="M148 -7q-69 0 -109 38t-40 89q0 90 77 123q-25 26 -25 68q0 57 41.5 92.5t111.5 35.5q56 0 92.5 -31.5t38.5 -77.5q2 -63 -58 -105q36 -35 36 -83q0 -75 -47.5 -112t-117.5 -37zM189 265q23 0 37.5 14t14.5 36q0 17 -12 27.5t-31 10.5q-23 0 -38 -14t-15 -36
q0 -17 12 -27.5t32 -10.5zM152 83q29 0 44.5 16.5t15.5 42.5q0 21 -14.5 34t-38.5 13q-29 0 -44.5 -16.5t-15.5 -42.5q0 -21 14.5 -34t38.5 -13z" />
    <glyph glyph-name="nine.dnom" horiz-adv-x="353" 
d="M-2 0l138 151q-47 5 -79.5 40.5t-32.5 88.5q0 69 44 114t118 45q70 0 111 -39t41 -90q0 -48 -17 -82.5t-64 -85.5l-131 -142h-128zM178 233q26 0 43 17t17 44q0 22 -15 36.5t-38 14.5q-27 0 -43.5 -16.5t-16.5 -44.5q0 -21 15 -36t38 -15z" />
    <glyph glyph-name="zero.dnom" horiz-adv-x="387" 
d="M157 -7q-80 0 -120 53.5t-23 137.5l19 96q15 74 61 116.5t118 42.5q80 0 120 -53.5t23 -137.5l-19 -96q-15 -74 -61 -116.5t-118 -42.5zM162 89q33 0 51.5 17.5t26.5 54.5l23 104q8 35 -9 56.5t-47 21.5q-63 0 -78 -71l-22 -105q-7 -36 9 -57t46 -21z" />
    <glyph glyph-name="zero.slashed.dnom" horiz-adv-x="387" 
d="M157 -7q-80 0 -120 53.5t-23 137.5l19 96q15 74 61 116.5t118 42.5q80 0 120 -53.5t23 -137.5l-19 -96q-15 -74 -61 -116.5t-118 -42.5zM129 272l-11 -51l147 73q-3 23 -19 36t-39 13q-63 0 -78 -71zM162 89q33 0 51.5 17.5t26.5 54.5l11 51l-146 -72q3 -24 18.5 -37.5
t38.5 -13.5z" />
    <glyph glyph-name="hyphen.case" horiz-adv-x="408" 
d="M66 289l29 132h285l-28 -132h-286z" />
    <glyph glyph-name="uni00AD.case" horiz-adv-x="408" 
d="M66 289l29 132h285l-28 -132h-286z" />
    <glyph glyph-name="endash.case" horiz-adv-x="595" 
d="M66 289l29 132h472l-28 -132h-473z" />
    <glyph glyph-name="emdash.case" horiz-adv-x="890" 
d="M66 289l29 132h766l-28 -132h-767z" />
    <glyph glyph-name="questiondown.case" horiz-adv-x="536" 
d="M360 522q-41 0 -70.5 29.5t-29.5 70.5t29.5 70.5t70.5 29.5t70.5 -29.5t29.5 -70.5t-29.5 -70.5t-70.5 -29.5zM235 -11q-91 0 -149 51.5t-58 134.5q0 51 26 95t53 66t67 47q57 36 74 58q5 6 8 13h142q-19 -93 -130 -156q-54 -32 -78.5 -57t-24.5 -55q0 -28 22 -45t58 -17
q42 0 73.5 23.5t40.5 66.5h137q-13 -112 -88 -168.5t-173 -56.5z" />
    <glyph glyph-name="exclamdown.case" horiz-adv-x="296" 
d="M225 522q-41 0 -70.5 29.5t-29.5 70.5t29.5 70.5t70.5 29.5t70.5 -29.5t29.5 -70.5t-29.5 -70.5t-70.5 -29.5zM233 453l-13 -185l-57 -268h-138l58 268l66 185h84z" />
    <glyph glyph-name="guilsinglleft.case" horiz-adv-x="353" 
d="M57 355l188 217h122l-168 -235l72 -199h-111z" />
    <glyph glyph-name="guilsinglright.case" horiz-adv-x="352" 
d="M335 358l-188 -217h-122l168 235l-72 199h111z" />
    <glyph glyph-name="guillemotleft.case" horiz-adv-x="555" 
d="M260 355l188 217h122l-168 -235l72 -199h-111zM57 355l188 217h122l-168 -235l72 -199h-111z" />
    <glyph glyph-name="guillemotright.case" horiz-adv-x="555" 
d="M538 358l-188 -217h-122l168 235l-72 199h111zM335 358l-188 -217h-122l168 235l-72 199h111z" />
    <glyph glyph-name="parenleft.case" horiz-adv-x="330" 
d="M139 -121q-80 211 -77 408q1 152 57 295.5t165 260.5h125q-233 -257 -233 -541q0 -218 68 -423h-105z" />
    <glyph glyph-name="parenright.case" horiz-adv-x="330" 
d="M235 844q80 -211 77 -408q-1 -152 -57 -295.5t-165 -260.5h-125q233 257 233 541q0 218 -68 423h105z" />
    <glyph glyph-name="bracketleft.case" horiz-adv-x="334" 
d="M-3 -125l204 960h221l-21 -100h-105l-162 -760h105l-21 -100h-221z" />
    <glyph glyph-name="bracketright.case" horiz-adv-x="334" 
d="M378 835l-204 -960h-221l21 100h105l162 760h-105l21 100h221z" />
    <glyph glyph-name="braceleft.case" horiz-adv-x="347" 
d="M180 -125q-73 0 -112 44t-23 120l46 217q12 58 -41 58h-10l21 101h10q54 0 66 56l48 224q16 75 52.5 107.5t115.5 32.5h83l-22 -100h-48q-32 0 -47.5 -13.5t-22.5 -47.5l-46 -219q-10 -47 -30 -69t-53 -31q58 -18 39 -106l-46 -215q-12 -59 45 -59h48l-21 -100h-52z" />
    <glyph glyph-name="braceright.case" horiz-adv-x="348" 
d="M209 836q73 0 112 -44t23 -120l-46 -217q-12 -58 41 -58h10l-21 -101h-10q-54 0 -66 -56l-48 -224q-16 -75 -52.5 -107.5t-115.5 -32.5h-83l22 100h48q32 0 47.5 13.5t22.5 47.5l46 219q10 47 30 69t53 31q-58 18 -39 106l46 215q12 59 -45 59h-48l21 100h52z" />
    <glyph glyph-name="bar.case" horiz-adv-x="333" 
d="M129 -55v820h116v-820h-116z" />
    <glyph glyph-name="brokenbar.case" horiz-adv-x="333" 
d="M129 418v347h116v-347h-116zM129 -55v347h116v-347h-116z" />
    <glyph glyph-name="periodcentered.case" horiz-adv-x="294" 
d="M165 255q-41 0 -70.5 29.5t-29.5 70.5t29.5 70.5t70.5 29.5t70.5 -29.5t29.5 -70.5t-29.5 -70.5t-70.5 -29.5z" />
    <glyph glyph-name="plus.case" horiz-adv-x="511" 
d="M65 295v119h151v151h119v-151h151v-119h-151v-151h-119v151h-151z" />
    <glyph glyph-name="minus.case" horiz-adv-x="560" 
d="M86 295v119h421v-119h-421z" />
    <glyph glyph-name="multiply.case" horiz-adv-x="541" 
d="M163 144l-85 84l128 127l-128 127l85 84l127 -126l127 126l83 -84l-126 -127l126 -127l-83 -84l-127 126z" />
    <glyph glyph-name="equal.case" horiz-adv-x="581" 
d="M95 400v119h420v-119h-420zM95 190v118h420v-118h-420z" />
    <glyph glyph-name="less.case" horiz-adv-x="540" 
d="M480 608l-253 -253l253 -253h-171l-253 253l253 253h171z" />
    <glyph glyph-name="greater.case" horiz-adv-x="542" 
d="M527 355l-253 -253h-171l253 253l-253 253h171z" />
    <glyph glyph-name="acute.case" 
d="M51 770l102 157h156l-152 -157h-106z" />
    <glyph glyph-name="breve.case" 
d="M178 750q-75 0 -123 49t-32 126h77q-9 -48 14.5 -72t67.5 -24q88 0 108 96h80q-10 -82 -62 -128.5t-130 -46.5z" />
    <glyph glyph-name="caron.case" 
d="M367 945l-15 -110l-188 -73l-158 80l29 103l145 -73z" />
    <glyph glyph-name="cedilla.case" 
d="M-149 -143q31 -15 73 -15q70 0 70 36q0 25 -39 25q-23 0 -43 -10l-31 19l72 91h64l-39 -49q19 5 43 5q34 0 53.5 -19t19.5 -48q0 -49 -47 -80t-111 -31q-63 0 -98 15z" />
    <glyph glyph-name="circumflex.case" 
d="M-4 762l16 110l187 73l159 -80l-30 -103l-144 73z" />
    <glyph glyph-name="dieresis.case" 
d="M63 772q-31 0 -53.5 22t-22.5 53t22.5 53.5t53.5 22.5t53 -22.5t22 -53.5t-22 -53t-53 -22zM298 772q-31 0 -53.5 22t-22.5 53t22 53.5t54 22.5q31 0 53 -22.5t22 -53.5t-22 -53t-53 -22z" />
    <glyph glyph-name="dotaccent.case" 
d="M181 772q-32 0 -54.5 22t-22.5 53q0 32 22.5 54t54.5 22q31 0 53 -22.5t22 -53.5t-22 -53t-53 -22z" />
    <glyph glyph-name="dotaccent.L.case" 
d="M0 -75q-31 0 -53.5 22t-22.5 53q0 32 22 54t54 22q31 0 53 -22.5t22 -53.5t-22 -53t-53 -22z" />
    <glyph glyph-name="dotaccent.low.case" 
d="M-29 -219q-32 0 -54.5 22t-22.5 53q0 32 22.5 54t54.5 22q31 0 53 -22.5t22 -53.5t-22 -53t-53 -22z" />
    <glyph glyph-name="commaaccent.case" 
d="M-48 -322h-64l55 112h-54l28 132h133l-27 -132z" />
    <glyph glyph-name="grave.case" 
d="M276 770h-98l-94 157h150z" />
    <glyph glyph-name="hungarumlaut.case" 
d="M148 770l99 157h147l-154 -157h-92zM-34 770l98 157h148l-154 -157h-92z" />
    <glyph glyph-name="macron.case" 
d="M-3 791l20 96h343l-21 -96h-342z" />
    <glyph glyph-name="ogonek.case" 
d="M-34 -219q-44 0 -72 23t-28 63t27 75t70 58h145q-51 -21 -78.5 -44.5t-27.5 -43.5q0 -26 33 -26q29 0 51 13l-19 -91q-43 -27 -101 -27z" />
    <glyph glyph-name="ring.case" 
d="M185 753q-50 0 -86 35.5t-36 84.5t36 84.5t86 35.5t86 -35.5t36 -84.5t-36 -84.5t-86 -35.5zM185 815q25 0 42 17t17 41t-17 41t-42 17t-42 -17t-17 -41t17 -41t42 -17z" />
    <glyph glyph-name="tilde.case" 
d="M-23 778l5 26q12 53 51 82.5t79 29.5q33 0 77.5 -23t60.5 -23q36 0 54 47h79l-6 -26q-12 -53 -51 -82.5t-79 -29.5q-33 0 -78 23t-60 23q-38 0 -54 -47h-78z" />
    <glyph glyph-name="uni0414.loclBGR" horiz-adv-x="754" 
d="M-69 -148l60 286h73l342 572h129l99 -572h72l-60 -286h-131l31 148h-453l-31 -148h-131zM223 138h276l-60 368z" />
    <glyph glyph-name="uni041B.loclBGR" horiz-adv-x="745" 
d="M-56 0l457 710h130l155 -710h-140l-110 509l-328 -509h-164z" />
    <glyph glyph-name="uni043B.loclBGR" horiz-adv-x="568" 
d="M399 500l116 -500h-135l-69 330l-209 -330h-155l327 500h125z" />
    </font>
</defs>
</svg>
