<?xml version="1.0" standalone="no"?>
<!DOCTYPE svg PUBLIC "-//W3C//DTD SVG 1.1//EN" "http://www.w3.org/Graphics/SVG/1.1/DTD/svg11.dtd" >
<svg xmlns="http://www.w3.org/2000/svg" xmlns:xlink="http://www.w3.org/1999/xlink" version="1.1">
<metadata>
Created by FontForge 20170731 at Thu Jun 17 18:07:14 2010
 By Aleksey,,,
Copyright (c) 2010 Linotype Corp., www.linotype.com. All rights reserved. This font software may not be reproduced, modified, disclosed or transferred without the express written approval of Linotype Corp. Helvetica is a trademark of Linotype Corp. registered in the U.S. Patent and Trademark Office and may be registered in certain other jurisdictions in the name of Linotype Corp. or its licensee Linotype GmbH. This typeface is original artwork of Linotype Design Studio. The design may be protected in certain jurisdictions.
</metadata>
<defs>
<font id="HelveticaMonospacedPro-It" horiz-adv-x="600" >
  <font-face 
    font-family="Helvetica Monospaced Pro"
    font-weight="400"
    font-style="italic"
    font-stretch="normal"
    units-per-em="1000"
    panose-1="2 11 5 9 4 3 2 9 2 4"
    ascent="800"
    descent="-200"
    x-height="523"
    cap-height="718"
    bbox="-108 -235 722 946"
    underline-thickness="50"
    underline-position="-200"
    slope="-12"
    unicode-range="U+000D-FB04"
  />
<missing-glyph 
d="M44 0v718h512v-718h-512zM93 49h414v618h-414v-618zM267 234v17q0 56 14 80q14 31 46 59q29 29 38.5 46.5t9.5 37.5q0 35 -22.5 59.5t-53.5 24.5q-70 0 -81 -94l-50 8q7 69 43 103.5t92 34.5q55 0 90 -36.5t35 -95.5q0 -34 -13 -60t-51 -60q-36 -32 -44 -52
q-5 -23 -5 -72h-48zM266 117v67h56v-67h-56z" />
    <glyph glyph-name="IJ" unicode="IJ" 
d="M187 231h91l-11 -49q-13 -58 -1 -88t54 -30q86 0 111 124l95 444h-206l18 86h303l-111 -524q-22 -101 -80.5 -157t-142.5 -56q-78 0 -116 46.5t-19 133.5zM62 0h-97l152 718h97z" />
    <glyph glyph-name="ij" unicode="ij" 
d="M289 618h-88l21 100h88zM61 523h208l-96 -450h160l-15 -73h-408l15 73h160l80 377h-120zM641 718l-21 -100h-88l21 100h88zM352 523h248l-128 -600q-15 -69 -64.5 -101t-137.5 -32q-42 0 -76 3l16 76h63q64 0 84.5 12t28.5 52l110 517h-160z" />
    <glyph glyph-name="napostrophe" unicode="&#x22;n" 
d="M512 356l-75 -356h-88l68 322q15 70 -2 103.5t-81 33.5q-67 0 -113 -49.5t-62 -124.5l-60 -285h-88l111 523h83l-16 -74h2q80 89 177 89q89 0 126 -47t18 -135zM31 535l8 35q51 11 60 55l2 6h-43l18 87h86l-18 -87q-9 -43 -39 -68.5t-74 -27.5z" />
    <glyph glyph-name="f_f" unicode="ff" 
d="M613 450h-128l-95 -450h-88l95 450h-182l-95 -450h-88l95 450h-102l16 73h102l10 50q34 155 209 155q46 0 70 -2l-17 -79q-23 2 -66 2q-52 0 -76.5 -23t-36.5 -78l-5 -25h182l10 50q17 76 71 115.5t128 39.5q46 0 70 -2l-17 -79q-46 2 -66 2q-45 0 -68.5 -23.5
t-34.5 -77.5l-5 -25h128z" />
    <glyph glyph-name="fi" unicode="fi" 
d="M413 450h-148l-95 -450h-88l95 450h-142l16 73h142l10 50q34 155 209 155q42 0 60 -2l-17 -79q-34 2 -56 2q-52 0 -76.5 -23t-36.5 -78l-5 -25h148zM569 618h-88l21 100h88zM461 523h88l-111 -523h-88z" />
    <glyph glyph-name="fl" unicode="fl" 
d="M413 450h-148l-95 -450h-88l95 450h-142l16 73h142l10 50q34 155 209 155q42 0 60 -2l-17 -79q-34 2 -56 2q-52 0 -76.5 -23t-36.5 -78l-5 -25h148zM502 718h88l-152 -718h-88z" />
    <glyph glyph-name="f_f_i" unicode="ffi" 
d="M472 450h-98l-95 -450h-88l95 450h-131l-95 -450h-88l95 450h-52l16 73h52l10 50q34 155 189 155q32 0 50 -2l-17 -79q-38 2 -46 2q-41 0 -61 -23t-32 -78l-5 -25h131l10 50q17 80 60 117.5t119 37.5q28 0 40 -2l-17 -79q-26 2 -36 2q-40 0 -55.5 -21.5t-27.5 -79.5
l-5 -25h98zM628 618h-88l21 100h88zM520 523h88l-111 -523h-88z" />
    <glyph glyph-name="f_f_l" unicode="ffl" 
d="M472 450h-98l-95 -450h-88l95 450h-131l-95 -450h-88l95 450h-52l16 73h52l10 50q34 155 189 155q32 0 50 -2l-17 -79q-16 2 -46 2q-41 0 -61 -23t-32 -78l-5 -25h131l10 50q17 80 59 117.5t118 37.5q30 0 42 -2l-17 -79q-26 2 -38 2q-40 0 -54 -21t-27 -80l-5 -25h98z
M561 718h88l-152 -718h-88z" />
    <glyph glyph-name=".notdef" 
d="M44 0v718h512v-718h-512zM93 49h414v618h-414v-618zM267 234v17q0 56 14 80q14 31 46 59q29 29 38.5 46.5t9.5 37.5q0 35 -22.5 59.5t-53.5 24.5q-70 0 -81 -94l-50 8q7 69 43 103.5t92 34.5q55 0 90 -36.5t35 -95.5q0 -34 -13 -60t-51 -60q-36 -32 -44 -52
q-5 -23 -5 -72h-48zM266 117v67h56v-67h-56z" />
    <glyph glyph-name=".null" horiz-adv-x="0" 
 />
    <glyph glyph-name=".null" horiz-adv-x="0" 
 />
    <glyph glyph-name="nonmarkingreturn" 
 />
    <glyph glyph-name="CR" unicode="&#xd;" 
 />
    <glyph glyph-name="space" unicode=" " 
 />
    <glyph glyph-name="exclam" unicode="!" 
d="M235 171l42 310l50 237h97l-50 -237l-90 -310h-49zM175 0l21 102h97l-21 -102h-97z" />
    <glyph glyph-name="quotedbl" unicode="&#x22;" 
d="M334 463v255h73v-255h-73zM192 463v255h73v-255h-73z" />
    <glyph glyph-name="numbersign" unicode="#" 
d="M123 0l29 210h-103l9 63h103l19 142h-103l9 63h103l29 210h67l-29 -210h124l29 210h67l-29 -210h103l-9 -63h-103l-20 -142h103l-9 -63h-103l-29 -210h-66l29 210h-125l-29 -210h-66zM227 273h125l19 142h-124z" />
    <glyph glyph-name="dollar" unicode="$" 
d="M196 -19q-219 9 -171 232h88q-13 -80 6.5 -113.5t92.5 -45.5l56 265q-101 21 -141 67q-42 45 -24 130q17 82 87.5 138.5t157.5 56.5h4l13 64h47l-13 -64q192 -15 162 -190h-85q12 101 -93 116l-51 -238q119 -30 156 -76q39 -45 21 -127q-21 -100 -93 -156t-173 -59
l-20 -96h-47zM287 409l49 229h-2q-50 0 -90.5 -33t-51.5 -83q-18 -91 95 -113zM259 53q60 2 103.5 36.5t55.5 90.5q21 100 -105 128z" />
    <glyph glyph-name="percent" unicode="%" 
d="M22 -20h-58l606 729h58zM177 411q-57 0 -84 36.5t-11 109.5q16 74 58 110t99 36q56 0 83.5 -36t11.5 -110q-16 -73 -58.5 -109.5t-98.5 -36.5zM188 464q28 0 53 23.5t35 69.5t-5 69.5t-43 23.5q-30 0 -54 -23.5t-34 -69.5q-10 -47 4 -70t44 -23zM260 133q16 74 58 110
t99 36q56 0 83.5 -36t11.5 -110q-16 -73 -58.5 -109.5t-98.5 -36.5q-57 0 -84 36.5t-11 109.5zM318 133q-10 -47 4 -70t44 -23q28 0 53 23.5t35 69.5t-5 69.5t-43 23.5q-30 0 -54 -23.5t-34 -69.5z" />
    <glyph glyph-name="ampersand" unicode="&#x26;" 
d="M160 -15q-94 0 -140.5 52t-27.5 143q17 79 66 125.5t142 93.5q-13 21 -19 30.5t-14.5 27.5t-11 31t-2.5 31.5t4 38.5q16 71 74 115.5t130 44.5q71 0 107.5 -40t22.5 -108q-14 -62 -53.5 -102.5t-114.5 -85.5l97 -156q31 47 53 112h83q-29 -92 -97 -183l96 -155h-115
l-50 82q-101 -97 -230 -97zM289 439q103 57 116 124q8 38 -9.5 58.5t-51.5 20.5q-41 0 -67 -21t-34 -57q-11 -55 46 -125zM183 61q96 0 173 80l-120 198q-9 -5 -32 -19t-31 -19t-25.5 -17t-25 -20.5t-18 -22t-16 -28.5t-9.5 -33q-11 -51 21 -85t83 -34z" />
    <glyph glyph-name="quotesingle" unicode="'" 
d="M263 463v255h73v-255h-73z" />
    <glyph glyph-name="parenleft" unicode="(" 
d="M156 22q-21 109 7 239q28 127 90 236q60 107 179 236h61q-126 -165 -167 -258q-44 -99 -70 -220q-26 -119 -15 -221q9 -103 54 -241h-59q-58 124 -80 229z" />
    <glyph glyph-name="parenright" unicode=")" 
d="M65 -207q121 159 165 258q45 97 71 220q25 120 15 222q-9 106 -53 240h58q57 -118 80 -229q22 -111 -6 -239q-27 -124 -90 -236q-64 -112 -179 -236h-61z" />
    <glyph glyph-name="asterisk" unicode="*" 
d="M235 431l-49 34l67 92l-108 34l20 55l105 -38v110h60v-110l105 38l20 -55l-108 -34l67 -92l-49 -34l-65 94z" />
    <glyph glyph-name="plus" unicode="+" 
d="M22 216v73h217v216h73v-216h216v-73h-216v-216h-73v216h-217z" />
    <glyph glyph-name="comma" unicode="," 
d="M172 0l22 106h104l-21 -98q-28 -134 -137 -155l10 46q54 6 75 101h-53z" />
    <glyph glyph-name="hyphen" unicode="-" 
d="M150 232l19 90h245l-19 -90h-245z" />
    <glyph glyph-name="period" unicode="." 
d="M172 0l22 106h104l-22 -106h-104z" />
    <glyph glyph-name="slash" unicode="/" 
d="M63 -19l407 756h66l-406 -756h-67z" />
    <glyph glyph-name="zero" unicode="0" 
d="M219 -19q-69 0 -111.5 31t-56.5 85t-12.5 114t16.5 131q15 72 39.5 132t61.5 114t92.5 84.5t124.5 30.5q68 0 110.5 -30.5t57 -84.5t13 -114t-16.5 -132t-39.5 -132.5t-62 -114t-93 -84t-123.5 -30.5zM236 60q147 0 207 282t-87 282q-71 0 -124 -71t-83 -211
q-29 -136 -7 -209t94 -73z" />
    <glyph glyph-name="one" unicode="1" 
d="M42 0l17 83h167l89 416h-164l14 70q88 3 134 27q47 25 84 107h69l-132 -620h151l-17 -83h-412z" />
    <glyph glyph-name="two" unicode="2" 
d="M-17 0q24 99 78 165q52 66 146 114l141 73q60 31 88 60.5t39 84.5q12 57 -20 92t-92 35q-72 0 -116.5 -47.5t-62.5 -125.5h-88q24 120 101.5 186t195.5 66q95 0 145 -58t30 -152q-15 -70 -60 -120t-124 -89l-135 -66q-120 -59 -150 -135h382l-17 -83h-481z" />
    <glyph glyph-name="three" unicode="3" 
d="M210 -19q-224 0 -185 234h91q-30 -155 117 -155q65 0 117 36.5t65 99.5q14 64 -19.5 96.5t-116.5 32.5q-27 0 -41 -1l17 76q14 -2 45 -2q63 0 104.5 29t54.5 86q11 52 -20 81.5t-87 29.5q-132 0 -169 -151h-86q23 111 94 170.5t182 59.5q93 0 145 -48.5t33 -136.5
q-23 -107 -121 -145l-1 -2q109 -40 82 -164q-23 -107 -105.5 -166.5t-195.5 -59.5z" />
    <glyph glyph-name="four" unicode="4" 
d="M11 171l18 86l417 446h73l-97 -456h103l-16 -76h-103l-36 -171h-88l36 171h-307zM108 247h226l68 319h-2z" />
    <glyph glyph-name="five" unicode="5" 
d="M19 174h91q-5 -57 26.5 -87t98.5 -30q66 0 116.5 46t65.5 114q14 70 -19.5 113.5t-103.5 43.5q-80 0 -144 -67l-75 4l133 376h364l-19 -85h-298l-71 -193q70 44 146 44q96 0 150 -64.5t33 -160.5q-24 -112 -106.5 -180t-196.5 -68q-102 0 -151.5 50.5t-39.5 143.5z" />
    <glyph glyph-name="six" unicode="6" 
d="M228 -19q-122 0 -167 87t-8 259q15 73 41.5 136t67 119t100 88.5t131.5 32.5q84 0 132.5 -51.5t32.5 -135.5h-86q3 108 -98 108q-44 0 -83.5 -25t-66.5 -65.5t-45 -83.5t-27 -86l1 -2q75 86 186 86q96 0 144.5 -62.5t27.5 -160.5q-22 -106 -100 -175t-183 -69zM132 216
q-14 -68 17 -112t98 -44q65 0 111.5 46t60.5 115q15 65 -14.5 106.5t-95.5 41.5t-114 -42t-63 -111z" />
    <glyph glyph-name="seven" unicode="7" 
d="M81 0q42 132 161 305q126 178 253 297h-387l19 86h486l-17 -77q-124 -104 -241 -276q-123 -178 -177 -335h-97z" />
    <glyph glyph-name="eight" unicode="8" 
d="M27 204q25 119 155 169q-87 38 -66 137q19 89 89.5 141t164.5 52q92 0 143.5 -48t34.5 -133q-22 -106 -121 -148q51 -24 71 -68.5t8 -102.5q-22 -103 -101 -162.5t-185 -59.5q-107 0 -161.5 57.5t-31.5 165.5zM308 406q54 0 96 30.5t53 82.5q11 51 -21 78t-88 27
q-53 0 -91.5 -29.5t-48.5 -80.5q-10 -48 20 -78t80 -30zM120 200q-14 -66 18.5 -103t101.5 -37q64 0 110.5 39t60.5 102q13 58 -21 93.5t-97 35.5t-112 -35.5t-61 -94.5z" />
    <glyph glyph-name="nine" unicode="9" 
d="M31 169h88q-6 -54 18 -84.5t77 -30.5q46 0 82 20t63.5 66t40 74t34.5 90q1 3 2 4.5t1.5 4t1.5 4.5l-2 2q-75 -84 -179 -84q-101 0 -147.5 62.5t-24.5 164.5q22 104 98 172.5t179 68.5q246 0 177 -326q-16 -72 -42 -137.5t-66.5 -126t-100.5 -96.5t-131 -36
q-91 0 -138.5 51t-30.5 137zM288 314q67 0 110.5 44t58.5 116q15 68 -13.5 109t-96.5 41q-64 0 -109.5 -45t-59.5 -113q-33 -152 110 -152z" />
    <glyph glyph-name="colon" unicode=":" 
d="M259 410l22 106h104l-22 -106h-104zM172 0l22 106h104l-22 -106h-104z" />
    <glyph glyph-name="semicolon" unicode=";" 
d="M259 410l22 106h104l-22 -106h-104zM172 0l22 106h104l-21 -98q-28 -134 -137 -155l10 46q54 6 75 101h-53z" />
    <glyph glyph-name="less" unicode="&#x3c;" 
d="M22 218v70l506 207v-80l-408 -162l408 -162v-80z" />
    <glyph glyph-name="equal" unicode="=" 
d="M22 317v73h506v-73h-506zM22 115v73h506v-73h-506z" />
    <glyph glyph-name="greater" unicode="&#x3e;" 
d="M47 11v80l408 162l-408 162v80l506 -207v-70z" />
    <glyph glyph-name="question" unicode="?" 
d="M211 183q14 67 38 109q21 38 103 106q9 7 26 20.5t22.5 18.5t17 15.5t16 17.5t11 17.5t10.5 22.5t7 27q10 51 -17 82.5t-80 31.5q-133 0 -167 -158h-88q19 109 95 171.5t179 62.5q92 0 140.5 -53.5t29.5 -142.5q-5 -27 -14 -47t-28.5 -41t-31.5 -31.5t-47 -39.5
q-82 -64 -102 -97q-19 -32 -32 -92h-88zM171 0l21 102h97l-21 -102h-97z" />
    <glyph glyph-name="at" unicode="@" 
d="M34 255q0 164 78.5 276.5t201.5 112.5q105 0 179 -88t74 -224q0 -123 -46.5 -206t-127.5 -83q-41 0 -47 62h-2q-25 -34 -43 -48t-40 -14q-47 0 -74 46.5t-27 113.5q0 107 43.5 191.5t117.5 84.5q34 0 51.5 -18.5t31.5 -59.5l15 62h52l-13 -62q-14 -62 -26 -114
q-29 -131 -29 -152q0 -27 16 -27q41 0 64.5 68t23.5 148q0 115 -54.5 186.5t-138.5 71.5q-98 0 -156.5 -92t-58.5 -230q0 -142 59 -225t162 -83q96 0 171 104h61q-88 -166 -234 -166q-127 0 -205.5 99t-78.5 266zM277 115q26 0 48.5 32.5t34.5 76t12 83.5l-1 8
q0 38 -11.5 65t-36.5 27q-30 0 -51.5 -33t-30.5 -75.5t-9 -86.5q0 -97 45 -97z" />
    <glyph glyph-name="A" unicode="A" 
d="M44 0h-100l382 718h110l68 -718h-106l-18 209h-227zM197 295h177l-19 316h-2z" />
    <glyph glyph-name="B" unicode="B" 
d="M8 0l152 718h255q76 0 119 -49t26 -132q-10 -47 -44.5 -87t-83.5 -63q118 -51 93 -175q-21 -98 -99 -155t-170 -57h-248zM191 414h116q129 0 154 116q11 52 -15 78.5t-91 26.5h-117zM121 83h147q62 0 104.5 35.5t55.5 95.5t-19 90.5t-103 30.5h-131z" />
    <glyph glyph-name="C" unicode="C" 
d="M234 -19q-87 0 -137 51.5t-57.5 136.5t13.5 194q35 166 129 270t225 104q93 0 144 -61.5t41 -173.5h-94q4 73 -24 111t-85 38q-85 0 -147.5 -81t-88.5 -204q-62 -299 115 -299q57 0 107 54.5t80 142.5h94q-42 -131 -127 -207t-188 -76z" />
    <glyph glyph-name="D" unicode="D" 
d="M8 0l152 718h211q84 0 134.5 -48t60.5 -125.5t-8 -175.5q-34 -160 -123.5 -264.5t-219.5 -104.5h-207zM122 83h108q86 0 144 80t84 200q25 121 -2 196.5t-117 75.5h-100z" />
    <glyph glyph-name="E" unicode="E" 
d="M19 0l152 718h433l-18 -86h-336l-47 -220h303l-18 -86h-303l-51 -240h343l-18 -86h-440z" />
    <glyph glyph-name="F" unicode="F" 
d="M15 0l152 718h437l-18 -86h-340l-47 -220h292l-18 -86h-292l-69 -326h-97z" />
    <glyph glyph-name="G" unicode="G" 
d="M234 -19q-127 0 -173 101.5t-8 282.5q34 157 130 264.5t219 107.5q78 0 128 -65t36 -172h-94q5 71 -19 111t-74 40q-80 0 -140.5 -84.5t-86.5 -206.5q-63 -296 106 -296q62 0 112 60.5t74 174.5v2h-134l18 83h225l-81 -384h-63l-4 93q-78 -112 -171 -112z" />
    <glyph glyph-name="H" unicode="H" 
d="M10 0l152 718h96l-63 -297h235l63 297h97l-152 -718h-97l71 335h-235l-71 -335h-96z" />
    <glyph glyph-name="I" unicode="I" 
d="M42 0l18 86h133l116 546h-133l18 86h363l-18 -86h-133l-116 -546h133l-18 -86h-363z" />
    <glyph glyph-name="J" unicode="J" 
d="M22 161l15 70h91l-11 -49q-12 -60 9.5 -89t83.5 -29q126 0 151 124l95 444h-286l18 86h383l-111 -524q-22 -101 -90.5 -157t-172.5 -56q-96 0 -145 46.5t-30 133.5z" />
    <glyph glyph-name="K" unicode="K" 
d="M11 0l152 718h96l-71 -334l339 334h114l-343 -326l199 -392h-115l-163 317l-57 -54l-55 -263h-96z" />
    <glyph glyph-name="L" unicode="L" 
d="M23 0l152 718h96l-134 -632h335l-18 -86h-431z" />
    <glyph glyph-name="M" unicode="M" 
d="M-40 0l152 718h149l-6 -567h3l233 567h149l-152 -718h-94l90 424q10 55 31 139h-3l-240 -563h-96l-2 562h-3q-12 -69 -27 -138l-90 -424h-94z" />
    <glyph glyph-name="N" unicode="N" 
d="M9 0l152 718h114l104 -540h2l115 540h94l-152 -718h-108l-112 540h-2l-114 -540h-93z" />
    <glyph glyph-name="O" unicode="O" 
d="M560 359q-35 -162 -129 -270t-212 -108q-81 0 -130.5 51t-59 135t10.5 192q35 164 127.5 271t212.5 107q119 0 167 -107.5t13 -270.5zM460 359q28 117 2 204.5t-100 87.5q-75 0 -135.5 -84.5t-86.5 -207.5q-16 -81 -13.5 -145.5t31.5 -105.5t80 -41q73 0 134 84t88 208z
" />
    <glyph glyph-name="P" unicode="P" 
d="M177 303l-64 -303h-97l152 718h253q93 0 141.5 -55.5t28.5 -146.5q-20 -96 -90.5 -154.5t-167.5 -58.5h-156zM247 635l-52 -249h123q146 0 173 129q26 120 -117 120h-127z" />
    <glyph glyph-name="Q" unicode="Q" 
d="M560 359q-37 -173 -138 -280l66 -77l-66 -58l-68 78q-65 -41 -135 -41q-81 0 -130.5 51t-59 135t10.5 192q35 164 127.5 271t212.5 107q119 0 167 -107.5t13 -270.5zM246 148l67 60l54 -64q65 84 93 215q28 117 2 204.5t-100 87.5q-75 0 -135.5 -84.5t-86.5 -207.5
q-16 -81 -13.5 -145.5t31.5 -105.5t80 -41q31 0 62 17z" />
    <glyph glyph-name="R" unicode="R" 
d="M167 308l-65 -308h-97l152 718h242q105 0 149.5 -49.5t24.5 -143.5q-26 -118 -135 -172q43 -20 55 -49t2 -86l-23 -134q-6 -28 -2 -42.5t25 -25.5l-3 -16h-120q-8 51 21 180q5 31 6.5 59.5t-20.5 48.5t-67 20h-145zM236 635l-51 -244h135q126 0 152 124q25 120 -85 120
h-151z" />
    <glyph glyph-name="S" unicode="S" 
d="M567 508h-91q12 70 -21 108t-95 38q-65 0 -106.5 -32.5t-54.5 -93.5q-8 -33 7 -54t58 -37l135 -47q152 -52 123 -192q-24 -110 -107 -163.5t-191 -53.5q-117 0 -176 62t-30 189h91q-18 -83 19.5 -125.5t112.5 -42.5t123 31.5t61 89.5q11 52 -11.5 80t-77.5 45l-117 36
q-143 44 -117 169q22 104 95 163t169 59q120 0 170.5 -55.5t30.5 -173.5z" />
    <glyph glyph-name="T" unicode="T" 
d="M174 0l134 632h-212l18 86h523l-18 -86h-214l-134 -632h-97z" />
    <glyph glyph-name="U" unicode="U" 
d="M510 718h98l-99 -466q-27 -126 -108.5 -198.5t-188.5 -72.5q-104 0 -150.5 68t-20.5 190l102 479h96l-96 -452q-20 -93 2.5 -146t87.5 -53t112.5 50.5t68.5 146.5z" />
    <glyph glyph-name="V" unicode="V" 
d="M252 126l289 592h109l-375 -718h-102l-70 718h108l39 -592h2z" />
    <glyph glyph-name="W" unicode="W" 
d="M348 585l-210 -585h-121l63 718h108l-71 -571h2l196 571h132l-48 -571h2l173 571h99l-242 -718h-121l40 585h-2z" />
    <glyph glyph-name="X" unicode="X" 
d="M365 368l134 -368h-120l-91 295l-221 -295h-117l295 368l-127 350h122l84 -275l200 275h116z" />
    <glyph glyph-name="Y" unicode="Y" 
d="M334 289l-61 -289h-97l61 289l-140 429h113l93 -345l239 345h114z" />
    <glyph glyph-name="Z" unicode="Z" 
d="M479 86l-18 -86h-485l17 81l477 551h-327l18 86h452l-18 -84l-478 -548h362z" />
    <glyph glyph-name="bracketleft" unicode="[" 
d="M347 651l-165 -776h108l-15 -71h-187l195 918h187l-15 -71h-108z" />
    <glyph glyph-name="backslash" unicode="\" 
d="M308 -19l-84 756h66l85 -756h-67z" />
    <glyph glyph-name="bracketright" unicode="]" 
d="M211 -125l165 776h-108l15 71h187l-195 -918h-187l15 71h108z" />
    <glyph glyph-name="asciicircum" unicode="^" 
d="M548 269h-77l-171 339l-171 -339h-78l213 419h72z" />
    <glyph glyph-name="underscore" unicode="_" 
d="M524 -123h-600v49h600v-49z" />
    <glyph glyph-name="grave" unicode="`" 
d="M331 593l-79 141h104l42 -141h-67z" />
    <glyph glyph-name="a" unicode="a" 
d="M181 364h-82q43 174 253 174q80 0 129.5 -36.5t34.5 -109.5l-64 -301q-7 -31 21 -31q6 0 30 4l-13 -64q-30 -10 -53 -10q-45 0 -62.5 19.5t-10.5 60.5q-92 -85 -207 -85q-71 0 -109 41t-23 110t63.5 111.5t124.5 51.5l159 19q43 4 55 62q9 42 -17 63.5t-88 21.5
q-108 0 -141 -101zM382 181l18 86q-10 -9 -42 -17q-42 -8 -110 -16q-115 -15 -130 -85q-19 -91 77 -91q58 0 117 34.5t70 88.5z" />
    <glyph glyph-name="b" unicode="b" 
d="M97 0h-83l152 718h88l-55 -261h2q72 81 168 81q103 0 144 -76t18 -185q-26 -124 -102 -208t-190 -84q-95 0 -127 80h-2zM437 263q23 89 1 140t-102 56q-142 -2 -185 -209q-18 -86 5.5 -137.5t96.5 -51.5t119.5 58.5t64.5 143.5z" />
    <glyph glyph-name="c" unicode="c" 
d="M530 347h-85q0 112 -110 112q-79 0 -128.5 -56.5t-67.5 -140.5q-43 -201 110 -201q51 0 96.5 36t65.5 88h85q-36 -96 -105 -148t-160 -52q-114 0 -163.5 74t-25.5 188q28 129 112 210t211 81q89 0 133 -52.5t32 -138.5z" />
    <glyph glyph-name="d" unicode="d" 
d="M608 718l-152 -718h-83l15 72h-2q-69 -87 -170 -87q-76 0 -121 43t-51.5 107.5t6.5 141.5q24 111 97 186t177 75q96 0 137 -89h2l57 269h88zM138 263q-9 -52 -7.5 -97t28.5 -75t77 -30q69 0 116.5 49.5t64.5 126.5q47 222 -94 222q-80 0 -121.5 -50.5t-63.5 -145.5z" />
    <glyph glyph-name="e" unicode="e" 
d="M420 164h88q-34 -82 -110 -131t-168 -49q-117 0 -167.5 73.5t-25.5 189.5q27 131 110.5 211t212.5 80q83 0 128.5 -43.5t51 -111t-9.5 -150.5h-402q-17 -83 14 -127.5t111 -44.5q50 0 101.5 30t65.5 73zM143 303h311q9 77 -20 116.5t-103 39.5q-68 0 -120.5 -45.5
t-67.5 -110.5z" />
    <glyph glyph-name="f" unicode="f" 
d="M563 450h-208l-95 -450h-88l95 450h-172l16 73h172l10 50q34 155 229 155q70 0 100 -2l-17 -79q-54 2 -96 2q-62 0 -91.5 -23.5t-41.5 -77.5l-5 -25h208z" />
    <glyph glyph-name="g" unicode="g" 
d="M564 523l-105 -493q-54 -250 -296 -250q-88 0 -131.5 40.5t-35.5 115.5h88q-2 -40 23 -61.5t77 -21.5q150 0 185 168l8 37h-2q-66 -73 -155 -73q-59 0 -99.5 24.5t-57.5 65t-21 93t10 109.5q24 110 97 185.5t177 75.5q98 0 137 -89h2l16 74h83zM140 263q-18 -86 3.5 -144
t94.5 -58q70 0 117 49.5t64 126.5q47 222 -94 222q-143 0 -185 -196z" />
    <glyph glyph-name="h" unicode="h" 
d="M512 356l-75 -356h-88l72 342q13 63 -5 90t-74 27q-69 0 -116.5 -44.5t-66.5 -129.5l-60 -285h-88l152 718h88l-56 -265h2q78 85 171 85q88 0 125.5 -45.5t18.5 -136.5z" />
    <glyph glyph-name="i" unicode="i" 
d="M399 618h-88l21 100h88zM131 523h248l-96 -450h200l-15 -73h-488l15 73h200l80 377h-160z" />
    <glyph glyph-name="j" unicode="j" 
d="M481 718l-21 -100h-88l21 100h88zM192 523h248l-128 -600q-15 -69 -64.5 -101t-137.5 -32q-42 0 -76 3l16 76h63q64 0 84.5 12t28.5 52l110 517h-160z" />
    <glyph glyph-name="k" unicode="k" 
d="M318 328l143 -328h-113l-107 264l-87 -66l-42 -198h-85l152 718h85l-88 -416l272 221h112z" />
    <glyph glyph-name="l" unicode="l" 
d="M182 718h248l-137 -645h200l-15 -73h-488l15 73h200l122 572h-160z" />
    <glyph glyph-name="m" unicode="m" 
d="M-48 0l111 523h83l-16 -74h2q60 89 137 89q69 0 81 -85q41 48 69 66.5t69 18.5q56 0 78.5 -48.5t5.5 -127.5l-76 -362h-88l71 338q27 121 -31 121q-36 0 -68.5 -42.5t-44.5 -97.5l-67 -319h-88l76 362q21 97 -21 97q-49 0 -84 -49t-51 -125l-60 -285h-88z" />
    <glyph glyph-name="n" unicode="n" 
d="M512 356l-75 -356h-88l68 322q15 70 -2 103.5t-81 33.5q-67 0 -113 -49.5t-62 -124.5l-60 -285h-88l111 523h83l-16 -74h2q80 89 177 89q89 0 126 -47t18 -135z" />
    <glyph glyph-name="o" unicode="o" 
d="M46 262q24 116 106.5 196t194.5 80t160 -80t24 -196t-106.5 -196.5t-195.5 -80.5q-111 0 -159 80t-24 197zM136 262q-18 -83 8 -141.5t102 -58.5q75 0 126.5 59.5t68.5 140.5q9 51 5 95t-34.5 74t-81.5 30q-75 0 -125.5 -58t-68.5 -141z" />
    <glyph glyph-name="p" unicode="p" 
d="M-30 -207l155 730h83l-16 -74h2q74 89 175 89q104 0 145 -75.5t17 -185.5q-26 -124 -102 -208t-190 -84q-91 0 -124 70h-2l-55 -262h-88zM148 237q-16 -76 10 -126t95 -50q74 0 120 58.5t64 143.5q22 101 -3 148.5t-98 47.5q-141 0 -188 -222z" />
    <glyph glyph-name="q" unicode="q" 
d="M564 523l-155 -730h-88l55 262h-2q-66 -70 -154 -70q-59 0 -99.5 24.5t-57.5 65t-21 93t10 109.5q23 109 97 185t177 76q98 0 137 -89h2l16 74h83zM419 237q47 222 -94 222q-79 0 -121.5 -51t-63.5 -145q-18 -85 3.5 -143.5t94.5 -58.5q67 0 116 50t65 126z" />
    <glyph glyph-name="r" unicode="r" 
d="M220 264l-56 -264h-88l111 523h83l-19 -87h2q97 102 219 102q36 0 72 -3l-19 -91h-73q-85 0 -150.5 -51.5t-81.5 -128.5z" />
    <glyph glyph-name="s" unicode="s" 
d="M501 374h-85q7 46 -19 67t-86 21q-41 0 -76 -16t-42 -48q-4 -18 0.5 -32t13 -22t27.5 -15.5t34 -11.5t42 -10t44 -11q70 -20 100 -51.5t16 -96.5q-16 -78 -85 -120.5t-157 -42.5q-111 0 -157 45.5t-28 137.5h85q-9 -54 19.5 -80.5t95.5 -26.5q56 0 92.5 19.5t43.5 53.5
q9 43 -14.5 58.5t-111.5 37.5q-36 9 -57 14q-114 31 -92 137q16 75 82 116t151 41q86 0 130.5 -42t33.5 -122z" />
    <glyph glyph-name="t" unicode="t" 
d="M550 450h-204l-64 -300q-9 -42 12 -61.5t81 -19.5h94l-14 -69q-77 -7 -128 -7q-87 0 -119 35.5t-15 116.5l65 305h-171l16 73h171l31 146h88l-31 -146h204z" />
    <glyph glyph-name="u" unicode="u" 
d="M44 147l80 376h88l-74 -347q-24 -115 76 -115q71 0 118.5 49.5t62.5 124.5l62 288h88l-111 -523h-83l16 76l-2 2q-69 -93 -186 -93q-76 0 -114 42.5t-21 119.5z" />
    <glyph glyph-name="v" unicode="v" 
d="M242 97l249 426h96l-320 -523h-94l-90 523h102l55 -426h2z" />
    <glyph glyph-name="w" unicode="w" 
d="M301 385l-153 -385h-100v523h95l-13 -391h2l144 391h119l-21 -391h2l159 391h87l-222 -523h-102l5 385h-2z" />
    <glyph glyph-name="x" unicode="x" 
d="M336 269l127 -269h-113l-88 197l-167 -197h-111l240 269l-120 254h112l82 -184l161 184h107z" />
    <glyph glyph-name="y" unicode="y" 
d="M246 97l251 426h96l-316 -513q-80 -136 -122 -181q-40 -43 -109 -43q-35 0 -57 8l17 80q23 -9 53 -9t51 21q23 25 65 99l-99 538h99l69 -426h2z" />
    <glyph glyph-name="z" unicode="z" 
d="M518 451l-372 -378h302l-15 -73h-419l14 69l377 381h-271l16 73h384z" />
    <glyph glyph-name="braceleft" unicode="{" 
d="M148 234l13 60q41 3 69.5 41t38.5 86l37 172q11 51 46.5 90t82.5 39h67l-14 -65h-44q-47 0 -63 -82l-35 -165q-11 -48 -42.5 -89.5t-76.5 -55.5l-1 -2q40 -15 54.5 -55t2.5 -93l-35 -164q-17 -82 29 -82h44l-14 -65h-67q-47 0 -66.5 38.5t-8.5 90.5l37 171
q10 51 -1.5 88.5t-52.5 41.5z" />
    <glyph glyph-name="bar" unicode="|" 
d="M263 -19v756h73v-756h-73z" />
    <glyph glyph-name="braceright" unicode="}" 
d="M411 294l-13 -60q-42 -4 -70 -41.5t-38 -88.5l-37 -171q-11 -51 -46.5 -90t-82.5 -39h-67l14 65h44q46 0 63 82l35 164q12 53 43 93t76 55l1 2q-39 14 -53 55.5t-4 89.5l35 165q16 82 -29 82h-44l14 65h67q47 0 66.5 -39t8.5 -90l-37 -172q-5 -30 -4 -57t16 -47.5
t42 -22.5z" />
    <glyph glyph-name="asciitilde" unicode="~" 
d="M501 323l40 -57q-48 -90 -143 -90q-51 0 -123 33q-8 4 -27 12.5t-26 11.5t-21 8t-26.5 6.5t-27.5 1.5q-63 0 -98 -75l-41 57q49 90 143 90q48 0 123 -33q9 -4 27.5 -12.5t26 -11.5t21 -7.5t26 -6t28.5 -1.5q60 0 98 74z" />
    <glyph glyph-name="uni00A0" unicode="&#xa0;" 
 />
    <glyph glyph-name="exclamdown" unicode="&#xa1;" 
d="M265 421l22 102h96l-22 -102h-96zM274 352h49l-43 -310l-50 -237h-96l50 237z" />
    <glyph glyph-name="cent" unicode="&#xa2;" 
d="M530 347h-85q0 80 -55 102l-178 -385q16 -3 37 -3q51 0 96.5 36t65.5 88h85q-36 -96 -105 -148t-160 -52q-26 0 -54 5l-47 -103h-41l54 113q-68 26 -93.5 92.5t-7.5 154.5q28 129 112 210t211 81q11 0 27 -2l41 87h38l-44 -94q59 -17 86 -65t17 -117zM139 262
q-30 -142 39 -185l178 381q-4 0 -11 0.5t-10 0.5q-79 0 -128.5 -56.5t-67.5 -140.5z" />
    <glyph glyph-name="sterling" unicode="&#xa3;" 
d="M222 380h167l-13 -63h-138q2 -35 -5 -66q-21 -97 -158 -185l-1 -1q74 37 139 37q33 0 87.5 -17.5t73.5 -17.5q39 0 82 31l27 -66q-69 -48 -134 -48q-32 0 -97.5 22.5t-104.5 22.5q-56 0 -126 -40l-34 69q139 85 162 187q6 33 -4 72h-107l13 63h69q-26 76 -14 134
q21 98 102.5 151t187.5 53q96 0 143 -59.5t27 -153.5l-3 -15h-88l2 9q13 62 -16.5 102.5t-90.5 40.5q-58 0 -107.5 -34.5t-61.5 -88.5q-12 -57 21 -139z" />
    <glyph glyph-name="currency" unicode="&#xa4;" 
d="M502 603l48 -48l-55 -54q50 -67 50 -150q0 -81 -50 -151l54 -56l-45 -45l-55 58q-67 -55 -149 -55t-149 55l-55 -58l-45 45l54 56q-50 70 -50 151q0 83 50 150l-55 54l48 48l57 -56q61 51 145 51q82 0 145 -51zM128 351q0 -71 51 -125t121 -54t121 54.5t51 124.5
t-51 123.5t-121 53.5q-68 0 -120 -53.5t-52 -123.5z" />
    <glyph glyph-name="yen" unicode="&#xa5;" 
d="M57 327l12 57h154l-126 314h100l110 -305l240 305h100l-260 -314h155l-12 -57h-193l-18 -85h193l-12 -57h-193l-39 -185h-88l39 185h-192l12 57h192l18 85h-192z" />
    <glyph glyph-name="brokenbar" unicode="&#xa6;" 
d="M263 460v277h73v-277h-73zM263 -19v294h73v-294h-73z" />
    <glyph glyph-name="section" unicode="&#xa7;" 
d="M523 554h-85q23 107 -76 107q-39 0 -70 -21.5t-39 -59.5q-10 -47 54 -90l127 -86q53 -36 70 -70t5 -90q-21 -101 -137 -160q42 -49 28 -114q-14 -69 -79 -115t-136 -46q-94 0 -135 49t-22 139h88q-12 -55 8 -83.5t67 -28.5q48 0 80 22t41 61q5 25 -4.5 42t-34.5 37
l-180 140q-55 43 -39 122q23 108 134 158q-38 45 -26 100q16 75 76.5 122.5t139.5 47.5q89 0 126.5 -48t18.5 -135zM381 321l-152 107q-74 -35 -87 -97q-12 -56 27 -85l163 -122q78 40 90 101q13 56 -41 96z" />
    <glyph glyph-name="dieresis" unicode="&#xa8;" 
d="M502 718l-22 -102h-90l22 102h90zM340 718l-22 -102h-90l22 102h90z" />
    <glyph glyph-name="copyright" unicode="&#xa9;" 
d="M301 -19q-144 0 -222.5 96.5t-78.5 282.5t78.5 281.5t222.5 95.5q140 0 219.5 -96.5t79.5 -280.5q0 -182 -80 -280.5t-219 -98.5zM76 360q0 -162 59.5 -239t165.5 -77q102 0 162.5 78t60.5 238q0 161 -60 237.5t-163 76.5q-105 0 -165 -76.5t-60 -237.5zM382 289h68
q-11 -71 -48.5 -116t-87.5 -45q-77 0 -125 66.5t-48 166.5t46.5 165.5t122.5 65.5q53 0 91 -42t48 -115h-67q-6 40 -25.5 65.5t-45.5 25.5q-45 0 -69.5 -46t-24.5 -118q0 -70 26 -119t71 -49q26 0 44.5 25.5t23.5 69.5z" />
    <glyph glyph-name="ordfeminine" unicode="&#xaa;" 
d="M481 454l-9 -44q-20 -5 -33 -5q-61 0 -50 51q-60 -51 -133 -51q-45 0 -71 24.5t-17 66.5q19 90 134 102l90 10q24 3 32 38q3 17 -13.5 28t-54.5 11q-73 0 -88 -53h-54q25 105 163 105q51 0 84.5 -21.5t23.5 -66.5l-38 -180q-3 -17 15 -17q5 0 19 2zM281 457
q38 0 74.5 19.5t43.5 54.5l9 39q-14 -10 -97 -20q-44 -6 -59 -17q-16 -12 -19 -28q-11 -48 48 -48zM148 352h296l-10 -48h-296z" />
    <glyph glyph-name="guillemotleft" unicode="&#xab;" 
d="M456 196l-19 -88l-130 123l19 92l183 123l-18 -88l-123 -81zM231 196l-19 -88l-130 123l19 92l183 123l-18 -88l-123 -81z" />
    <glyph glyph-name="logicalnot" unicode="&#xac;" 
d="M528 289v-289h-73v216h-433v73h506z" />
    <glyph glyph-name="uni00AD" unicode="&#xad;" 
d="M74 232l19 90h245l-19 -90h-245z" />
    <glyph glyph-name="registered" unicode="&#xae;" 
d="M301 -19q-144 0 -222.5 96.5t-78.5 282.5t78.5 281.5t222.5 95.5q140 0 219.5 -96.5t79.5 -280.5q0 -182 -80 -280.5t-219 -98.5zM76 360q0 -162 59.5 -239t165.5 -77q102 0 162.5 78t60.5 238q0 161 -60 237.5t-163 76.5q-105 0 -165 -76.5t-60 -237.5zM246 330v-189
h-66v436h120q140 0 140 -124q0 -103 -100 -120l111 -192h-74l-105 189h-26zM246 386h41q43 0 63.5 16t20.5 55q0 64 -85 64h-40v-135z" />
    <glyph glyph-name="macron" unicode="&#xaf;" 
d="M525 679l-12 -57h-314l12 57h314z" />
    <glyph glyph-name="degree" unicode="&#xb0;" 
d="M421 557q0 -62 -41.5 -104t-104.5 -42q-61 0 -103.5 42.5t-42.5 103.5q0 63 42 104.5t104 41.5q63 0 104.5 -41.5t41.5 -104.5zM275 660q-39 0 -68.5 -31.5t-29.5 -71.5t29.5 -71.5t68.5 -31.5t68.5 31.5t29.5 71.5t-29.5 71.5t-68.5 31.5z" />
    <glyph glyph-name="plusminus" unicode="&#xb1;" 
d="M239 345v161h73v-161h216v-73h-216v-161h-73v161h-217v73h217zM22 0v73h506v-73h-506z" />
    <glyph glyph-name="twosuperior" unicode="&#xb2;" 
d="M351 488l-12 -61h-319q30 115 133 166l105 53q36 19 52.5 37.5t22.5 45.5q6 31 -11.5 49t-58.5 18q-89 0 -111 -93h-59q16 73 65.5 112t124.5 39q60 0 95.5 -35t23.5 -93q-10 -49 -39.5 -76t-95.5 -61l-65 -30q-62 -29 -95 -71h244z" />
    <glyph glyph-name="threesuperior" unicode="&#xb3;" 
d="M47 556h67q-16 -82 69 -82q96 0 112 72q8 37 -10 55.5t-69 18.5h-31l10 50h26q82 0 97 68q5 26 -11.5 41.5t-55.5 15.5q-79 0 -98 -80h-61q14 67 61 103t119 36q59 0 93.5 -29.5t23.5 -83.5q-13 -64 -77 -88l-1 -2q71 -21 55 -98q-14 -66 -69 -101.5t-127 -35.5
q-70 0 -103 35t-20 105z" />
    <glyph glyph-name="acute" unicode="&#xb4;" 
d="M508 734l-140 -141h-66l101 141h105z" />
    <glyph glyph-name="mu" unicode="&#xb5;" 
d="M-66 -207l155 730h88l-68 -316q-13 -67 12.5 -104t84.5 -37q61 0 100 36.5t53 103.5l68 317h88l-85 -398q-7 -34 -0.5 -45.5t27.5 -11.5q18 0 27 2l-15 -73q-31 -7 -56 -7q-40 0 -60 18t-19 53q-67 -76 -151 -76q-36 0 -66.5 18.5t-37.5 48.5l-3 -1l-54 -258h-88z" />
    <glyph glyph-name="paragraph" unicode="&#xb6;" 
d="M161 -173l110 517h-6q-86 0 -136.5 50.5t-32.5 133.5q40 190 271 190h218l-189 -891h-73l176 831h-89l-176 -831h-73z" />
    <glyph glyph-name="periodcentered" unicode="&#xb7;" 
d="M352 326v-106h-104v106h104z" />
    <glyph glyph-name="cedilla" unicode="&#xb8;" 
d="M216 0h46l-60 -62q26 4 32 4q39 0 57.5 -21t10.5 -54q-9 -44 -48 -68t-88 -24q-48 0 -93 22l26 40q38 -15 62 -15q57 0 66 42q4 17 -8.5 28t-32.5 11q-11 0 -40 -8l-13 19z" />
    <glyph glyph-name="onesuperior" unicode="&#xb9;" 
d="M55 427l12 61h113l51 238h-108l10 47q64 2 91 18q30 17 49 61h57l-78 -364h99l-12 -61h-284z" />
    <glyph glyph-name="ordmasculine" unicode="&#xba;" 
d="M503 571q-17 -80 -68 -123t-125 -43q-76 0 -108 43t-15 123t67.5 123t125.5 43q74 0 107 -43.5t16 -122.5zM436 571q11 49 -5 81.5t-62 32.5q-44 0 -74 -31t-41 -83q-11 -53 6 -83.5t61 -30.5t74 30t41 84zM150 352h296l-10 -48h-296z" />
    <glyph glyph-name="guillemotright" unicode="&#xbb;" 
d="M280 108l19 88l122 81l-87 81l18 88l131 -123l-19 -92zM55 108l19 88l122 81l-87 81l18 88l131 -123l-19 -92z" />
    <glyph glyph-name="onequarter" unicode="&#xbc;" 
d="M534 84h-52l-17 -84h-57l17 84h-157l11 51l213 222h48l-47 -224h52zM464 264l-127 -131h99zM236 703l-65 -305h78l-11 -52h-223l11 52h85l41 193h-83l10 46q46 1 71 13q20 10 40 53h46zM570 709h58l-606 -729h-58z" />
    <glyph glyph-name="onehalf" unicode="&#xbd;" 
d="M377 221h-57q14 65 55 100.5t104 35.5q51 0 78.5 -30t17.5 -79q-14 -69 -98 -107l-69 -33q-52 -26 -68 -56h194l-11 -52h-258q14 55 40 88t78 59l73 37q29 15 41.5 28t18.5 38q5 25 -10.5 41t-42.5 16q-34 0 -56 -24t-30 -62zM236 703l-65 -305h78l-11 -52h-223l11 52h85
l41 193h-83l10 46q46 1 71 13q20 10 40 53h46zM570 709h58l-606 -729h-58z" />
    <glyph glyph-name="threequarters" unicode="&#xbe;" 
d="M534 84h-52l-17 -84h-57l17 84h-157l11 51l213 222h48l-47 -224h52zM464 264l-127 -131h99zM128 505l10 50q15 -2 29 -2q63 0 74 51q4 23 -10.5 36t-40.5 13q-61 0 -80 -75h-56q28 125 149 125q50 0 78 -25.5t19 -70.5q-12 -52 -53 -72q46 -22 34 -82q-12 -55 -56.5 -86
t-104.5 -31q-118 0 -99 127h58q-14 -76 55 -76q31 0 55.5 16.5t30.5 44.5q6 29 -10 43t-56 14h-26zM570 709h58l-606 -729h-58z" />
    <glyph glyph-name="questiondown" unicode="&#xbf;" 
d="M268 423l22 102h97l-22 -102h-97zM360 33h88q-19 -108 -95 -171t-179 -63q-91 0 -140 54t-30 143q6 28 15 48t29.5 41.5t34 33t50.5 41.5q78 64 94 91q18 29 31 92h88q-13 -67 -38 -109q-22 -40 -102 -106q-9 -7 -26 -20.5t-23 -18.5t-17.5 -15.5t-15.5 -17t-11 -17.5
t-10.5 -23t-6.5 -27q-11 -51 16.5 -82.5t80.5 -31.5q133 0 167 158z" />
    <glyph glyph-name="Agrave" unicode="&#xc0;" 
d="M44 0h-100l382 718h110l68 -718h-106l-18 209h-227zM197 295h177l-19 316h-2zM371 783l-79 141h104l42 -141h-67z" />
    <glyph glyph-name="Aacute" unicode="&#xc1;" 
d="M44 0h-100l382 718h110l68 -718h-106l-18 209h-227zM197 295h177l-19 316h-2zM548 924l-140 -141h-66l101 141h105z" />
    <glyph glyph-name="Acircumflex" unicode="&#xc2;" 
d="M44 0h-100l382 718h110l68 -718h-106l-18 209h-227zM197 295h177l-19 316h-2zM409 876l-86 -93h-79l129 141h93l69 -141h-80z" />
    <glyph glyph-name="Atilde" unicode="&#xc3;" 
d="M44 0h-100l382 718h110l68 -718h-106l-18 209h-227zM197 295h177l-19 316h-2zM538 912h49q-16 -51 -49.5 -80t-73.5 -29q-28 0 -76 18.5t-62 18.5q-36 0 -56 -44h-48q38 107 126 107q30 0 70 -18.5t62 -18.5q42 0 58 46z" />
    <glyph glyph-name="Adieresis" unicode="&#xc4;" 
d="M44 0h-100l382 718h110l68 -718h-106l-18 209h-227zM197 295h177l-19 316h-2zM543 908l-22 -102h-90l22 102h90zM381 908l-22 -102h-90l22 102h90z" />
    <glyph glyph-name="Aring" unicode="&#xc5;" 
d="M44 0h-100l382 718h110l68 -718h-106l-18 209h-227zM197 295h177l-19 316h-2zM425 946q40 0 60 -26.5t12 -65.5t-40 -65.5t-72 -26.5t-60 26t-12 66q8 38 40 65t72 27zM353 854q-5 -22 7 -37t34 -15q21 0 40 15t23 37t-8 37t-33 15q-22 0 -40.5 -15t-22.5 -37z" />
    <glyph glyph-name="AE" unicode="&#xc6;" 
d="M182 0l44 209h-130l-99 -209h-105l364 718h394l-18 -86h-219l-47 -220h186l-18 -86h-186l-51 -240h227l-18 -86h-324zM298 632l-161 -337h107l72 337h-18z" />
    <glyph glyph-name="Ccedilla" unicode="&#xc7;" 
d="M592 502h-94q4 73 -24 111t-85 38q-85 0 -147.5 -81t-88.5 -204q-62 -299 115 -299q57 0 107 54.5t80 142.5h94q-39 -121 -114.5 -195.5t-169.5 -85.5l-43 -45q26 4 32 4q39 0 57.5 -21t10.5 -54q-9 -44 -48 -68t-88 -24q-48 0 -93 22l26 40q38 -15 62 -15q57 0 66 42
q4 17 -8.5 28t-32.5 11q-11 0 -40 -8l-13 19l65 68q-80 5 -126 57.5t-52.5 135.5t13.5 188q35 166 129 270t225 104q93 0 144 -61.5t41 -173.5z" />
    <glyph glyph-name="Egrave" unicode="&#xc8;" 
d="M19 0l152 718h433l-18 -86h-336l-47 -220h303l-18 -86h-303l-51 -240h343l-18 -86h-440zM381 783l-79 141h104l42 -141h-67z" />
    <glyph glyph-name="Eacute" unicode="&#xc9;" 
d="M19 0l152 718h433l-18 -86h-336l-47 -220h303l-18 -86h-303l-51 -240h343l-18 -86h-440zM558 924l-140 -141h-66l101 141h105z" />
    <glyph glyph-name="Ecircumflex" unicode="&#xca;" 
d="M19 0l152 718h433l-18 -86h-336l-47 -220h303l-18 -86h-303l-51 -240h343l-18 -86h-440zM419 876l-86 -93h-79l129 141h93l69 -141h-80z" />
    <glyph glyph-name="Edieresis" unicode="&#xcb;" 
d="M19 0l152 718h433l-18 -86h-336l-47 -220h303l-18 -86h-303l-51 -240h343l-18 -86h-440zM553 908l-22 -102h-90l22 102h90zM391 908l-22 -102h-90l22 102h90z" />
    <glyph glyph-name="Igrave" unicode="&#xcc;" 
d="M42 0l18 86h133l116 546h-133l18 86h363l-18 -86h-133l-116 -546h133l-18 -86h-363zM371 783l-79 141h104l42 -141h-67z" />
    <glyph glyph-name="Iacute" unicode="&#xcd;" 
d="M42 0l18 86h133l116 546h-133l18 86h363l-18 -86h-133l-116 -546h133l-18 -86h-363zM548 924l-140 -141h-66l101 141h105z" />
    <glyph glyph-name="Icircumflex" unicode="&#xce;" 
d="M42 0l18 86h133l116 546h-133l18 86h363l-18 -86h-133l-116 -546h133l-18 -86h-363zM409 876l-86 -93h-79l129 141h93l69 -141h-80z" />
    <glyph glyph-name="Idieresis" unicode="&#xcf;" 
d="M42 0l18 86h133l116 546h-133l18 86h363l-18 -86h-133l-116 -546h133l-18 -86h-363zM543 908l-22 -102h-90l22 102h90zM381 908l-22 -102h-90l22 102h90z" />
    <glyph glyph-name="Eth" unicode="&#xd0;" 
d="M8 0l69 329h-80l18 81h80l65 308h211q84 0 134.5 -48t60.5 -125.5t-8 -175.5q-34 -160 -123.5 -264.5t-219.5 -104.5h-207zM239 635l-47 -225h128l-18 -81h-128l-52 -246h108q86 0 144 80t84 200q25 121 -2 196.5t-117 75.5h-100z" />
    <glyph glyph-name="Ntilde" unicode="&#xd1;" 
d="M9 0l152 718h114l104 -540h2l115 540h94l-152 -718h-108l-112 540h-2l-114 -540h-93zM538 912h49q-16 -51 -49.5 -80t-73.5 -29q-28 0 -76 18.5t-62 18.5q-36 0 -56 -44h-48q38 107 126 107q30 0 70 -18.5t62 -18.5q42 0 58 46z" />
    <glyph glyph-name="Ograve" unicode="&#xd2;" 
d="M560 359q-35 -162 -129 -270t-212 -108q-81 0 -130.5 51t-59 135t10.5 192q35 164 127.5 271t212.5 107q119 0 167 -107.5t13 -270.5zM460 359q28 117 2 204.5t-100 87.5q-75 0 -135.5 -84.5t-86.5 -207.5q-16 -81 -13.5 -145.5t31.5 -105.5t80 -41q73 0 134 84t88 208z
M371 783l-79 141h104l42 -141h-67z" />
    <glyph glyph-name="Oacute" unicode="&#xd3;" 
d="M560 359q-35 -162 -129 -270t-212 -108q-81 0 -130.5 51t-59 135t10.5 192q35 164 127.5 271t212.5 107q119 0 167 -107.5t13 -270.5zM460 359q28 117 2 204.5t-100 87.5q-75 0 -135.5 -84.5t-86.5 -207.5q-16 -81 -13.5 -145.5t31.5 -105.5t80 -41q73 0 134 84t88 208z
M548 924l-140 -141h-66l101 141h105z" />
    <glyph glyph-name="Ocircumflex" unicode="&#xd4;" 
d="M560 359q-35 -162 -129 -270t-212 -108q-81 0 -130.5 51t-59 135t10.5 192q35 164 127.5 271t212.5 107q119 0 167 -107.5t13 -270.5zM460 359q28 117 2 204.5t-100 87.5q-75 0 -135.5 -84.5t-86.5 -207.5q-16 -81 -13.5 -145.5t31.5 -105.5t80 -41q73 0 134 84t88 208z
M409 876l-86 -93h-79l129 141h93l69 -141h-80z" />
    <glyph glyph-name="Otilde" unicode="&#xd5;" 
d="M560 359q-35 -162 -129 -270t-212 -108q-81 0 -130.5 51t-59 135t10.5 192q35 164 127.5 271t212.5 107q119 0 167 -107.5t13 -270.5zM460 359q28 117 2 204.5t-100 87.5q-75 0 -135.5 -84.5t-86.5 -207.5q-16 -81 -13.5 -145.5t31.5 -105.5t80 -41q73 0 134 84t88 208z
M538 912h49q-16 -51 -49.5 -80t-73.5 -29q-28 0 -76 18.5t-62 18.5q-36 0 -56 -44h-48q38 107 126 107q30 0 70 -18.5t62 -18.5q42 0 58 46z" />
    <glyph glyph-name="Odieresis" unicode="&#xd6;" 
d="M560 359q-35 -162 -129 -270t-212 -108q-81 0 -130.5 51t-59 135t10.5 192q35 164 127.5 271t212.5 107q119 0 167 -107.5t13 -270.5zM460 359q28 117 2 204.5t-100 87.5q-75 0 -135.5 -84.5t-86.5 -207.5q-16 -81 -13.5 -145.5t31.5 -105.5t80 -41q73 0 134 84t88 208z
M543 908l-22 -102h-90l22 102h90zM381 908l-22 -102h-90l22 102h90z" />
    <glyph glyph-name="multiply" unicode="&#xd7;" 
d="M249 253l-202 202l52 51l201 -201l202 201l51 -51l-201 -202l201 -202l-51 -51l-202 201l-202 -201l-51 51z" />
    <glyph glyph-name="Oslash" unicode="&#xd8;" 
d="M560 359q-35 -162 -129 -270t-212 -108q-102 0 -154 80l-72 -80l-36 28l87 97q-37 101 -4 253q35 164 127.5 271t212.5 107q103 0 154 -85l76 85l35 -30l-89 -100q34 -103 4 -248zM140 359q-20 -88 -12 -160l331 370q-26 82 -97 82q-75 0 -135.5 -84.5t-86.5 -207.5z
M460 359q17 81 11 154l-331 -369q26 -77 98 -77q73 0 134 84t88 208z" />
    <glyph glyph-name="Ugrave" unicode="&#xd9;" 
d="M510 718h98l-99 -466q-27 -126 -108.5 -198.5t-188.5 -72.5q-104 0 -150.5 68t-20.5 190l102 479h96l-96 -452q-20 -93 2.5 -146t87.5 -53t112.5 50.5t68.5 146.5zM371 783l-79 141h104l42 -141h-67z" />
    <glyph glyph-name="Uacute" unicode="&#xda;" 
d="M510 718h98l-99 -466q-27 -126 -108.5 -198.5t-188.5 -72.5q-104 0 -150.5 68t-20.5 190l102 479h96l-96 -452q-20 -93 2.5 -146t87.5 -53t112.5 50.5t68.5 146.5zM548 924l-140 -141h-66l101 141h105z" />
    <glyph glyph-name="Ucircumflex" unicode="&#xdb;" 
d="M510 718h98l-99 -466q-27 -126 -108.5 -198.5t-188.5 -72.5q-104 0 -150.5 68t-20.5 190l102 479h96l-96 -452q-20 -93 2.5 -146t87.5 -53t112.5 50.5t68.5 146.5zM409 876l-86 -93h-79l129 141h93l69 -141h-80z" />
    <glyph glyph-name="Udieresis" unicode="&#xdc;" 
d="M510 718h98l-99 -466q-27 -126 -108.5 -198.5t-188.5 -72.5q-104 0 -150.5 68t-20.5 190l102 479h96l-96 -452q-20 -93 2.5 -146t87.5 -53t112.5 50.5t68.5 146.5zM543 908l-22 -102h-90l22 102h90zM381 908l-22 -102h-90l22 102h90z" />
    <glyph glyph-name="Yacute" unicode="&#xdd;" 
d="M334 289l-61 -289h-97l61 289l-140 429h113l93 -345l239 345h114zM548 924l-140 -141h-66l101 141h105z" />
    <glyph glyph-name="Thorn" unicode="&#xde;" 
d="M152 184l-39 -184h-97l152 718h97l-25 -119h156q93 0 141 -55t29 -147q-20 -96 -90.5 -154.5t-167.5 -58.5h-156zM222 516l-53 -249h123q146 0 174 129q25 120 -117 120h-127z" />
    <glyph glyph-name="germandbls" unicode="&#xdf;" 
d="M-6 0l113 532q20 95 91.5 145.5t168.5 50.5q90 0 144 -45.5t35 -134.5q-21 -96 -116 -148q47 -13 70 -63t12 -103q-24 -115 -102 -182q-77 -67 -202 -67q-30 0 -51 7l16 75q17 -3 43 -3q171 0 202 150q30 140 -140 140q-27 0 -40 -4l17 79q14 -2 22 -2q155 0 179 113
q12 56 -20 84t-86 28q-67 0 -105.5 -33.5t-54.5 -108.5l-108 -510h-88z" />
    <glyph glyph-name="agrave" unicode="&#xe0;" 
d="M181 364h-82q43 174 253 174q80 0 129.5 -36.5t34.5 -109.5l-64 -301q-7 -31 21 -31q6 0 30 4l-13 -64q-30 -10 -53 -10q-45 0 -62.5 19.5t-10.5 60.5q-92 -85 -207 -85q-71 0 -109 41t-23 110t63.5 111.5t124.5 51.5l159 19q43 4 55 62q9 42 -17 63.5t-88 21.5
q-108 0 -141 -101zM382 181l18 86q-10 -9 -42 -17q-42 -8 -110 -16q-115 -15 -130 -85q-19 -91 77 -91q58 0 117 34.5t70 88.5zM331 593l-79 141h104l42 -141h-67z" />
    <glyph glyph-name="aacute" unicode="&#xe1;" 
d="M181 364h-82q43 174 253 174q80 0 129.5 -36.5t34.5 -109.5l-64 -301q-7 -31 21 -31q6 0 30 4l-13 -64q-30 -10 -53 -10q-45 0 -62.5 19.5t-10.5 60.5q-92 -85 -207 -85q-71 0 -109 41t-23 110t63.5 111.5t124.5 51.5l159 19q43 4 55 62q9 42 -17 63.5t-88 21.5
q-108 0 -141 -101zM382 181l18 86q-10 -9 -42 -17q-42 -8 -110 -16q-115 -15 -130 -85q-19 -91 77 -91q58 0 117 34.5t70 88.5zM508 734l-140 -141h-66l101 141h105z" />
    <glyph glyph-name="acircumflex" unicode="&#xe2;" 
d="M181 364h-82q43 174 253 174q80 0 129.5 -36.5t34.5 -109.5l-64 -301q-7 -31 21 -31q6 0 30 4l-13 -64q-30 -10 -53 -10q-45 0 -62.5 19.5t-10.5 60.5q-92 -85 -207 -85q-71 0 -109 41t-23 110t63.5 111.5t124.5 51.5l159 19q43 4 55 62q9 42 -17 63.5t-88 21.5
q-108 0 -141 -101zM382 181l18 86q-10 -9 -42 -17q-42 -8 -110 -16q-115 -15 -130 -85q-19 -91 77 -91q58 0 117 34.5t70 88.5zM368 686l-85 -93h-79l129 141h93l69 -141h-80z" />
    <glyph glyph-name="atilde" unicode="&#xe3;" 
d="M181 364h-82q43 174 253 174q80 0 129.5 -36.5t34.5 -109.5l-64 -301q-7 -31 21 -31q6 0 30 4l-13 -64q-30 -10 -53 -10q-45 0 -62.5 19.5t-10.5 60.5q-92 -85 -207 -85q-71 0 -109 41t-23 110t63.5 111.5t124.5 51.5l159 19q43 4 55 62q9 42 -17 63.5t-88 21.5
q-108 0 -141 -101zM382 181l18 86q-10 -9 -42 -17q-42 -8 -110 -16q-115 -15 -130 -85q-19 -91 77 -91q58 0 117 34.5t70 88.5zM498 722h49q-16 -51 -49.5 -80t-73.5 -29q-28 0 -76 18.5t-62 18.5q-37 0 -57 -44h-48q38 107 127 107q30 0 69.5 -18.5t61.5 -18.5q41 0 59 46z
" />
    <glyph glyph-name="adieresis" unicode="&#xe4;" 
d="M181 364h-82q43 174 253 174q80 0 129.5 -36.5t34.5 -109.5l-64 -301q-7 -31 21 -31q6 0 30 4l-13 -64q-30 -10 -53 -10q-45 0 -62.5 19.5t-10.5 60.5q-92 -85 -207 -85q-71 0 -109 41t-23 110t63.5 111.5t124.5 51.5l159 19q43 4 55 62q9 42 -17 63.5t-88 21.5
q-108 0 -141 -101zM382 181l18 86q-10 -9 -42 -17q-42 -8 -110 -16q-115 -15 -130 -85q-19 -91 77 -91q58 0 117 34.5t70 88.5zM502 718l-22 -102h-90l22 102h90zM340 718l-22 -102h-90l22 102h90z" />
    <glyph glyph-name="aring" unicode="&#xe5;" 
d="M181 364h-82q43 174 253 174q80 0 129.5 -36.5t34.5 -109.5l-64 -301q-7 -31 21 -31q6 0 30 4l-13 -64q-30 -10 -53 -10q-45 0 -62.5 19.5t-10.5 60.5q-92 -85 -207 -85q-71 0 -109 41t-23 110t63.5 111.5t124.5 51.5l159 19q43 4 55 62q9 42 -17 63.5t-88 21.5
q-108 0 -141 -101zM382 181l18 86q-10 -9 -42 -17q-42 -8 -110 -16q-115 -15 -130 -85q-19 -91 77 -91q58 0 117 34.5t70 88.5zM384 756q40 0 60.5 -26.5t12.5 -65.5t-40 -65.5t-72 -26.5t-60.5 26t-11.5 66q8 38 39.5 65t71.5 27zM313 664q-5 -22 7 -37t34 -15
q21 0 39.5 15t23.5 37q4 22 -8 37t-33 15q-22 0 -40.5 -15t-22.5 -37z" />
    <glyph glyph-name="ae" unicode="&#xe6;" 
d="M454 161h82q-29 -82 -83 -130.5t-114 -48.5q-91 0 -109 89q-66 -89 -162 -89q-60 0 -89.5 41t-14.5 110q30 142 165 164l106 18q22 6 35 62q17 85 -60 85q-75 0 -97 -101h-78q22 88 70 131t133 43q84 0 111 -54q49 54 116 54q55 0 83 -43t27 -110.5t-17 -151.5h-247
q-36 -172 53 -172q24 0 51.5 31t38.5 72zM326 300h161q21 156 -48 156q-35 0 -67 -46t-46 -110zM224 178l19 86q-13 -12 -28 -17q-7 -3 -59 -16q-51 -7 -73.5 -27t-30.5 -58q-10 -45 1 -68t50 -23q32 0 70.5 35t50.5 88z" />
    <glyph glyph-name="ccedilla" unicode="&#xe7;" 
d="M530 347h-85q0 112 -110 112q-79 0 -128.5 -56.5t-67.5 -140.5q-43 -201 110 -201q51 0 96.5 36t65.5 88h85q-34 -92 -98.5 -143t-149.5 -56l-46 -48q26 4 32 4q39 0 57.5 -21t10.5 -54q-9 -44 -48 -68t-88 -24q-48 0 -93 22l26 40q38 -15 62 -15q57 0 66 42
q4 17 -8.5 28t-32.5 11q-11 0 -40 -8l-13 19l70 73q-99 10 -141 82t-20 178q28 129 112 210t211 81q89 0 133 -52.5t32 -138.5z" />
    <glyph glyph-name="egrave" unicode="&#xe8;" 
d="M420 164h88q-34 -82 -110 -131t-168 -49q-117 0 -167.5 73.5t-25.5 189.5q27 131 110.5 211t212.5 80q83 0 128.5 -43.5t51 -111t-9.5 -150.5h-402q-17 -83 14 -127.5t111 -44.5q50 0 101.5 30t65.5 73zM143 303h311q9 77 -20 116.5t-103 39.5q-68 0 -120.5 -45.5
t-67.5 -110.5zM341 593l-79 141h104l42 -141h-67z" />
    <glyph glyph-name="eacute" unicode="&#xe9;" 
d="M420 164h88q-34 -82 -110 -131t-168 -49q-117 0 -167.5 73.5t-25.5 189.5q27 131 110.5 211t212.5 80q83 0 128.5 -43.5t51 -111t-9.5 -150.5h-402q-17 -83 14 -127.5t111 -44.5q50 0 101.5 30t65.5 73zM143 303h311q9 77 -20 116.5t-103 39.5q-68 0 -120.5 -45.5
t-67.5 -110.5zM518 734l-140 -141h-66l101 141h105z" />
    <glyph glyph-name="ecircumflex" unicode="&#xea;" 
d="M420 164h88q-34 -82 -110 -131t-168 -49q-117 0 -167.5 73.5t-25.5 189.5q27 131 110.5 211t212.5 80q83 0 128.5 -43.5t51 -111t-9.5 -150.5h-402q-17 -83 14 -127.5t111 -44.5q50 0 101.5 30t65.5 73zM143 303h311q9 77 -20 116.5t-103 39.5q-68 0 -120.5 -45.5
t-67.5 -110.5zM378 686l-85 -93h-79l129 141h93l69 -141h-80z" />
    <glyph glyph-name="edieresis" unicode="&#xeb;" 
d="M420 164h88q-34 -82 -110 -131t-168 -49q-117 0 -167.5 73.5t-25.5 189.5q27 131 110.5 211t212.5 80q83 0 128.5 -43.5t51 -111t-9.5 -150.5h-402q-17 -83 14 -127.5t111 -44.5q50 0 101.5 30t65.5 73zM143 303h311q9 77 -20 116.5t-103 39.5q-68 0 -120.5 -45.5
t-67.5 -110.5zM512 718l-22 -102h-90l22 102h90zM350 718l-22 -102h-90l22 102h90z" />
    <glyph glyph-name="igrave" unicode="&#xec;" 
d="M131 523h248l-96 -450h200l-15 -73h-488l15 73h200l80 377h-160zM311 593l-79 141h104l42 -141h-67z" />
    <glyph glyph-name="iacute" unicode="&#xed;" 
d="M131 523h248l-96 -450h200l-15 -73h-488l15 73h200l80 377h-160zM488 734l-140 -141h-66l101 141h105z" />
    <glyph glyph-name="icircumflex" unicode="&#xee;" 
d="M131 523h248l-96 -450h200l-15 -73h-488l15 73h200l80 377h-160zM348 686l-85 -93h-79l129 141h93l69 -141h-80z" />
    <glyph glyph-name="idieresis" unicode="&#xef;" 
d="M131 523h248l-96 -450h200l-15 -73h-488l15 73h200l80 377h-160zM482 718l-22 -102h-90l22 102h90zM320 718l-22 -102h-90l22 102h90z" />
    <glyph glyph-name="eth" unicode="&#xf0;" 
d="M562 695l-118 -51q128 -144 81 -362q-26 -124 -106.5 -210.5t-196.5 -86.5q-110 0 -161.5 75t-27.5 187q23 107 102 185t183 78q82 0 122 -55l3 2q-15 82 -79 152l-137 -62l-33 42l130 57q-44 40 -78 55l81 36q44 -18 80 -53l117 50zM124 247q-16 -77 11.5 -131.5
t100.5 -54.5t124 55t67 131q16 77 -10.5 132t-100.5 55t-124.5 -54t-67.5 -133z" />
    <glyph glyph-name="ntilde" unicode="&#xf1;" 
d="M512 356l-75 -356h-88l68 322q15 70 -2 103.5t-81 33.5q-67 0 -113 -49.5t-62 -124.5l-60 -285h-88l111 523h83l-16 -74h2q80 89 177 89q89 0 126 -47t18 -135zM498 722h49q-16 -51 -49.5 -80t-73.5 -29q-28 0 -76 18.5t-62 18.5q-37 0 -57 -44h-48q38 107 127 107
q30 0 69.5 -18.5t61.5 -18.5q41 0 59 46z" />
    <glyph glyph-name="ograve" unicode="&#xf2;" 
d="M46 262q24 116 106.5 196t194.5 80t160 -80t24 -196t-106.5 -196.5t-195.5 -80.5q-111 0 -159 80t-24 197zM136 262q-18 -83 8 -141.5t102 -58.5q75 0 126.5 59.5t68.5 140.5q9 51 5 95t-34.5 74t-81.5 30q-75 0 -125.5 -58t-68.5 -141zM331 593l-79 141h104l42 -141h-67
z" />
    <glyph glyph-name="oacute" unicode="&#xf3;" 
d="M46 262q24 116 106.5 196t194.5 80t160 -80t24 -196t-106.5 -196.5t-195.5 -80.5q-111 0 -159 80t-24 197zM136 262q-18 -83 8 -141.5t102 -58.5q75 0 126.5 59.5t68.5 140.5q9 51 5 95t-34.5 74t-81.5 30q-75 0 -125.5 -58t-68.5 -141zM508 734l-140 -141h-66l101 141
h105z" />
    <glyph glyph-name="ocircumflex" unicode="&#xf4;" 
d="M46 262q24 116 106.5 196t194.5 80t160 -80t24 -196t-106.5 -196.5t-195.5 -80.5q-111 0 -159 80t-24 197zM136 262q-18 -83 8 -141.5t102 -58.5q75 0 126.5 59.5t68.5 140.5q9 51 5 95t-34.5 74t-81.5 30q-75 0 -125.5 -58t-68.5 -141zM368 686l-85 -93h-79l129 141h93
l69 -141h-80z" />
    <glyph glyph-name="otilde" unicode="&#xf5;" 
d="M46 262q24 116 106.5 196t194.5 80t160 -80t24 -196t-106.5 -196.5t-195.5 -80.5q-111 0 -159 80t-24 197zM136 262q-18 -83 8 -141.5t102 -58.5q75 0 126.5 59.5t68.5 140.5q9 51 5 95t-34.5 74t-81.5 30q-75 0 -125.5 -58t-68.5 -141zM498 722h49q-16 -51 -49.5 -80
t-73.5 -29q-28 0 -76 18.5t-62 18.5q-37 0 -57 -44h-48q38 107 127 107q30 0 69.5 -18.5t61.5 -18.5q41 0 59 46z" />
    <glyph glyph-name="odieresis" unicode="&#xf6;" 
d="M46 262q24 116 106.5 196t194.5 80t160 -80t24 -196t-106.5 -196.5t-195.5 -80.5q-111 0 -159 80t-24 197zM136 262q-18 -83 8 -141.5t102 -58.5q75 0 126.5 59.5t68.5 140.5q9 51 5 95t-34.5 74t-81.5 30q-75 0 -125.5 -58t-68.5 -141zM502 718l-22 -102h-90l22 102h90z
M340 718l-22 -102h-90l22 102h90z" />
    <glyph glyph-name="divide" unicode="&#xf7;" 
d="M327 510v-106h-104v106h104zM528 216h-506v73h506v-73zM327 103v-106h-104v106h104z" />
    <glyph glyph-name="oslash" unicode="&#xf8;" 
d="M46 262q24 116 106.5 196t194.5 80q86 0 136 -50l59 57l31 -26l-65 -63q49 -76 23 -194q-24 -116 -106.5 -196.5t-195.5 -80.5q-94 0 -145 60l-69 -67l-31 26l77 75q-37 75 -15 183zM136 262q-13 -66 -2 -113l284 275q-29 37 -88 37q-75 0 -125.5 -58t-68.5 -141z
M441 262q16 70 -3 126l-288 -279q31 -47 96 -47q75 0 126.5 59.5t68.5 140.5z" />
    <glyph glyph-name="ugrave" unicode="&#xf9;" 
d="M44 147l80 376h88l-74 -347q-24 -115 76 -115q71 0 118.5 49.5t62.5 124.5l62 288h88l-111 -523h-83l16 76l-2 2q-69 -93 -186 -93q-76 0 -114 42.5t-21 119.5zM331 593l-79 141h104l42 -141h-67z" />
    <glyph glyph-name="uacute" unicode="&#xfa;" 
d="M44 147l80 376h88l-74 -347q-24 -115 76 -115q71 0 118.5 49.5t62.5 124.5l62 288h88l-111 -523h-83l16 76l-2 2q-69 -93 -186 -93q-76 0 -114 42.5t-21 119.5zM508 734l-140 -141h-66l101 141h105z" />
    <glyph glyph-name="ucircumflex" unicode="&#xfb;" 
d="M44 147l80 376h88l-74 -347q-24 -115 76 -115q71 0 118.5 49.5t62.5 124.5l62 288h88l-111 -523h-83l16 76l-2 2q-69 -93 -186 -93q-76 0 -114 42.5t-21 119.5zM368 686l-85 -93h-79l129 141h93l69 -141h-80z" />
    <glyph glyph-name="udieresis" unicode="&#xfc;" 
d="M44 147l80 376h88l-74 -347q-24 -115 76 -115q71 0 118.5 49.5t62.5 124.5l62 288h88l-111 -523h-83l16 76l-2 2q-69 -93 -186 -93q-76 0 -114 42.5t-21 119.5zM502 718l-22 -102h-90l22 102h90zM340 718l-22 -102h-90l22 102h90z" />
    <glyph glyph-name="yacute" unicode="&#xfd;" 
d="M246 97l251 426h96l-316 -513q-80 -136 -122 -181q-40 -43 -109 -43q-35 0 -57 8l17 80q23 -9 53 -9t51 21q23 25 65 99l-99 538h99l69 -426h2zM508 734l-140 -141h-66l101 141h105z" />
    <glyph glyph-name="thorn" unicode="&#xfe;" 
d="M-30 -207l196 925h83l-57 -269h2q74 89 175 89q104 0 145 -75.5t17 -185.5q-26 -124 -102 -208t-190 -84q-91 0 -124 70h-2l-55 -262h-88zM148 237q-16 -76 10 -126t95 -50q74 0 120 58.5t64 143.5q22 101 -3 148.5t-98 47.5q-141 0 -188 -222z" />
    <glyph glyph-name="ydieresis" unicode="&#xff;" 
d="M246 97l251 426h96l-316 -513q-80 -136 -122 -181q-40 -43 -109 -43q-35 0 -57 8l17 80q23 -9 53 -9t51 21q23 25 65 99l-99 538h99l69 -426h2zM502 718l-22 -102h-90l22 102h90zM340 718l-22 -102h-90l22 102h90z" />
    <glyph glyph-name="Amacron" unicode="&#x100;" 
d="M44 0h-100l382 718h110l68 -718h-106l-18 209h-227zM197 295h177l-19 316h-2zM565 869l-12 -57h-314l12 57h314z" />
    <glyph glyph-name="amacron" unicode="&#x101;" 
d="M181 364h-82q43 174 253 174q80 0 129.5 -36.5t34.5 -109.5l-64 -301q-7 -31 21 -31q6 0 30 4l-13 -64q-30 -10 -53 -10q-45 0 -62.5 19.5t-10.5 60.5q-92 -85 -207 -85q-71 0 -109 41t-23 110t63.5 111.5t124.5 51.5l159 19q43 4 55 62q9 42 -17 63.5t-88 21.5
q-108 0 -141 -101zM382 181l18 86q-10 -9 -42 -17q-42 -8 -110 -16q-115 -15 -130 -85q-19 -91 77 -91q58 0 117 34.5t70 88.5zM525 679l-12 -57h-314l12 57h314z" />
    <glyph glyph-name="Abreve" unicode="&#x102;" 
d="M44 0h-100l382 718h110l68 -718h-106l-18 209h-227zM197 295h177l-19 316h-2zM268 921h49q0 -79 85 -79q86 0 119 79h49q-36 -136 -180 -136q-143 0 -122 136z" />
    <glyph glyph-name="abreve" unicode="&#x103;" 
d="M181 364h-82q43 174 253 174q80 0 129.5 -36.5t34.5 -109.5l-64 -301q-7 -31 21 -31q6 0 30 4l-13 -64q-30 -10 -53 -10q-45 0 -62.5 19.5t-10.5 60.5q-92 -85 -207 -85q-71 0 -109 41t-23 110t63.5 111.5t124.5 51.5l159 19q43 4 55 62q9 42 -17 63.5t-88 21.5
q-108 0 -141 -101zM382 181l18 86q-10 -9 -42 -17q-42 -8 -110 -16q-115 -15 -130 -85q-19 -91 77 -91q58 0 117 34.5t70 88.5zM228 731h49q0 -79 85 -79q86 0 119 79h49q-36 -136 -180 -136q-143 0 -122 136z" />
    <glyph glyph-name="Aogonek" unicode="&#x104;" 
d="M398 0l-18 209h-227l-109 -209h-100l382 718h110l68 -718q-41 -3 -74 -29.5t-40 -58.5q-5 -21 4 -34t30 -13q18 0 43 10l-13 -63q-33 -14 -68 -14q-45 0 -67 23.5t-14 65.5q15 66 93 113zM353 611l-156 -316h177l-19 316h-2z" />
    <glyph glyph-name="aogonek" unicode="&#x105;" 
d="M181 364h-82q43 174 253 174q80 0 129.5 -36.5t34.5 -109.5l-64 -301q-7 -31 21 -31q6 0 30 4l-13 -64q-30 -10 -53 -10q-8 0 -24 2q-26 -11 -46 -33.5t-25 -46.5q-5 -21 4 -34t30 -13q18 0 43 10l-13 -63q-33 -14 -68 -14q-45 0 -67 23.5t-14 65.5q17 73 114 126
q-13 19 -7 57q-92 -85 -207 -85q-71 0 -109 41t-23 110t63.5 111.5t124.5 51.5l159 19q43 4 55 62q9 42 -17 63.5t-88 21.5q-108 0 -141 -101zM382 181l18 86q-10 -9 -42 -17q-42 -8 -110 -16q-115 -15 -130 -85q-19 -91 77 -91q58 0 117 34.5t70 88.5z" />
    <glyph glyph-name="Cacute" unicode="&#x106;" 
d="M234 -19q-87 0 -137 51.5t-57.5 136.5t13.5 194q35 166 129 270t225 104q93 0 144 -61.5t41 -173.5h-94q4 73 -24 111t-85 38q-85 0 -147.5 -81t-88.5 -204q-62 -299 115 -299q57 0 107 54.5t80 142.5h94q-42 -131 -127 -207t-188 -76zM578 924l-140 -141h-66l101 141
h105z" />
    <glyph glyph-name="cacute" unicode="&#x107;" 
d="M530 347h-85q0 112 -110 112q-79 0 -128.5 -56.5t-67.5 -140.5q-43 -201 110 -201q51 0 96.5 36t65.5 88h85q-36 -96 -105 -148t-160 -52q-114 0 -163.5 74t-25.5 188q28 129 112 210t211 81q89 0 133 -52.5t32 -138.5zM518 734l-140 -141h-66l101 141h105z" />
    <glyph glyph-name="Ccircumflex" unicode="&#x108;" 
d="M234 -19q-87 0 -137 51.5t-57.5 136.5t13.5 194q35 166 129 270t225 104q93 0 144 -61.5t41 -173.5h-94q4 73 -24 111t-85 38q-85 0 -147.5 -81t-88.5 -204q-62 -299 115 -299q57 0 107 54.5t80 142.5h94q-42 -131 -127 -207t-188 -76zM439 876l-86 -93h-79l129 141h93
l69 -141h-80z" />
    <glyph glyph-name="ccircumflex" unicode="&#x109;" 
d="M530 347h-85q0 112 -110 112q-79 0 -128.5 -56.5t-67.5 -140.5q-43 -201 110 -201q51 0 96.5 36t65.5 88h85q-36 -96 -105 -148t-160 -52q-114 0 -163.5 74t-25.5 188q28 129 112 210t211 81q89 0 133 -52.5t32 -138.5zM378 686l-85 -93h-79l129 141h93l69 -141h-80z" />
    <glyph glyph-name="Cdotaccent" unicode="&#x10a;" 
d="M234 -19q-87 0 -137 51.5t-57.5 136.5t13.5 194q35 166 129 270t225 104q93 0 144 -61.5t41 -173.5h-94q4 73 -24 111t-85 38q-85 0 -147.5 -81t-88.5 -204q-62 -299 115 -299q57 0 107 54.5t80 142.5h94q-42 -131 -127 -207t-188 -76zM469 808h-88l22 100h88z" />
    <glyph glyph-name="cdotaccent" unicode="&#x10b;" 
d="M530 347h-85q0 112 -110 112q-79 0 -128.5 -56.5t-67.5 -140.5q-43 -201 110 -201q51 0 96.5 36t65.5 88h85q-36 -96 -105 -148t-160 -52q-114 0 -163.5 74t-25.5 188q28 129 112 210t211 81q89 0 133 -52.5t32 -138.5zM409 618h-88l21 100h88z" />
    <glyph glyph-name="Ccaron" unicode="&#x10c;" 
d="M234 -19q-87 0 -137 51.5t-57.5 136.5t13.5 194q35 166 129 270t225 104q93 0 144 -61.5t41 -173.5h-94q4 73 -24 111t-85 38q-85 0 -147.5 -81t-88.5 -204q-62 -299 115 -299q57 0 107 54.5t80 142.5h94q-42 -131 -127 -207t-188 -76zM383 924l46 -93l86 93h80
l-129 -141h-93l-69 141h79z" />
    <glyph glyph-name="ccaron" unicode="&#x10d;" 
d="M530 347h-85q0 112 -110 112q-79 0 -128.5 -56.5t-67.5 -140.5q-43 -201 110 -201q51 0 96.5 36t65.5 88h85q-36 -96 -105 -148t-160 -52q-114 0 -163.5 74t-25.5 188q28 129 112 210t211 81q89 0 133 -52.5t32 -138.5zM323 734l46 -93l86 93h80l-129 -141h-93l-69 141
h79z" />
    <glyph glyph-name="Dcaron" unicode="&#x10e;" 
d="M8 0l152 718h211q84 0 134.5 -48t60.5 -125.5t-8 -175.5q-34 -160 -123.5 -264.5t-219.5 -104.5h-207zM122 83h108q86 0 144 80t84 200q25 121 -2 196.5t-117 75.5h-100zM323 924l46 -93l86 93h80l-129 -141h-93l-69 141h79z" />
    <glyph glyph-name="dcaron" unicode="&#x10f;" 
d="M588 718l-152 -718h-83l15 72h-2q-69 -87 -170 -87q-76 0 -121 43t-51.5 107.5t6.5 141.5q24 111 97 186t177 75q96 0 137 -89h2l57 269h88zM118 263q-9 -52 -7.5 -97t28.5 -75t77 -30q69 0 116.5 49.5t64.5 126.5q47 222 -94 222q-80 0 -121.5 -50.5t-63.5 -145.5z
M591 535l8 35q51 11 60 55l2 6h-43l18 87h86l-18 -87q-9 -43 -39 -68.5t-74 -27.5z" />
    <glyph glyph-name="Dcroat" unicode="&#x110;" 
d="M8 0l69 329h-80l18 81h80l65 308h211q84 0 134.5 -48t60.5 -125.5t-8 -175.5q-34 -160 -123.5 -264.5t-219.5 -104.5h-207zM239 635l-47 -225h128l-18 -81h-128l-52 -246h108q86 0 144 80t84 200q25 121 -2 196.5t-117 75.5h-100z" />
    <glyph glyph-name="dcroat" unicode="&#x111;" 
d="M608 718l-16 -75h68l-12 -55h-68l-124 -588h-83l15 72h-2q-69 -87 -170 -87q-76 0 -121 43t-51.5 107.5t6.5 141.5q24 111 97 186t177 75q96 0 137 -89h2l29 139h-180l12 55h180l16 75h88zM138 263q-9 -52 -7.5 -97t28.5 -75t77 -30q69 0 116.5 49.5t64.5 126.5
q47 222 -94 222q-80 0 -121.5 -50.5t-63.5 -145.5z" />
    <glyph glyph-name="Emacron" unicode="&#x112;" 
d="M19 0l152 718h433l-18 -86h-336l-47 -220h303l-18 -86h-303l-51 -240h343l-18 -86h-440zM575 869l-12 -57h-314l12 57h314z" />
    <glyph glyph-name="emacron" unicode="&#x113;" 
d="M420 164h88q-34 -82 -110 -131t-168 -49q-117 0 -167.5 73.5t-25.5 189.5q27 131 110.5 211t212.5 80q83 0 128.5 -43.5t51 -111t-9.5 -150.5h-402q-17 -83 14 -127.5t111 -44.5q50 0 101.5 30t65.5 73zM143 303h311q9 77 -20 116.5t-103 39.5q-68 0 -120.5 -45.5
t-67.5 -110.5zM535 679l-12 -57h-314l12 57h314z" />
    <glyph glyph-name="Ebreve" unicode="&#x114;" 
d="M19 0l152 718h433l-18 -86h-336l-47 -220h303l-18 -86h-303l-51 -240h343l-18 -86h-440zM278 921h49q0 -79 85 -79q86 0 119 79h49q-36 -136 -180 -136q-143 0 -122 136z" />
    <glyph glyph-name="ebreve" unicode="&#x115;" 
d="M420 164h88q-34 -82 -110 -131t-168 -49q-117 0 -167.5 73.5t-25.5 189.5q27 131 110.5 211t212.5 80q83 0 128.5 -43.5t51 -111t-9.5 -150.5h-402q-17 -83 14 -127.5t111 -44.5q50 0 101.5 30t65.5 73zM143 303h311q9 77 -20 116.5t-103 39.5q-68 0 -120.5 -45.5
t-67.5 -110.5zM238 731h49q0 -79 85 -79q86 0 119 79h49q-36 -136 -180 -136q-143 0 -122 136z" />
    <glyph glyph-name="Edotaccent" unicode="&#x116;" 
d="M19 0l152 718h433l-18 -86h-336l-47 -220h303l-18 -86h-303l-51 -240h343l-18 -86h-440zM449 808h-88l22 100h88z" />
    <glyph glyph-name="edotaccent" unicode="&#x117;" 
d="M420 164h88q-34 -82 -110 -131t-168 -49q-117 0 -167.5 73.5t-25.5 189.5q27 131 110.5 211t212.5 80q83 0 128.5 -43.5t51 -111t-9.5 -150.5h-402q-17 -83 14 -127.5t111 -44.5q50 0 101.5 30t65.5 73zM143 303h311q9 77 -20 116.5t-103 39.5q-68 0 -120.5 -45.5
t-67.5 -110.5zM409 618h-88l21 100h88z" />
    <glyph glyph-name="Eogonek" unicode="&#x118;" 
d="M477 86l-18 -86h-1q-34 -3 -65 -29.5t-38 -58.5q-5 -21 4 -34t30 -13q18 0 43 10l-13 -63q-33 -14 -68 -14q-45 0 -67 23.5t-14 65.5q15 66 92 113h-343l152 718h433l-18 -86h-336l-47 -220h303l-18 -86h-303l-51 -240h343z" />
    <glyph glyph-name="eogonek" unicode="&#x119;" 
d="M420 164h88q-24 -58 -69 -100.5t-104 -61.5q-29 -9 -58 -35t-35 -55q-5 -21 4 -34t30 -13q18 0 43 10l-13 -63q-33 -14 -68 -14q-45 0 -67 23.5t-14 65.5q12 56 68 97q-115 1 -164 74.5t-24 188.5q27 131 110.5 211t212.5 80q83 0 128.5 -43.5t51 -111t-9.5 -150.5h-402
q-17 -83 14 -127.5t111 -44.5q50 0 101.5 30t65.5 73zM143 303h311q9 77 -20 116.5t-103 39.5q-68 0 -120.5 -45.5t-67.5 -110.5z" />
    <glyph glyph-name="Ecaron" unicode="&#x11a;" 
d="M19 0l152 718h433l-18 -86h-336l-47 -220h303l-18 -86h-303l-51 -240h343l-18 -86h-440zM363 924l46 -93l86 93h80l-129 -141h-93l-69 141h79z" />
    <glyph glyph-name="ecaron" unicode="&#x11b;" 
d="M420 164h88q-34 -82 -110 -131t-168 -49q-117 0 -167.5 73.5t-25.5 189.5q27 131 110.5 211t212.5 80q83 0 128.5 -43.5t51 -111t-9.5 -150.5h-402q-17 -83 14 -127.5t111 -44.5q50 0 101.5 30t65.5 73zM143 303h311q9 77 -20 116.5t-103 39.5q-68 0 -120.5 -45.5
t-67.5 -110.5zM323 734l46 -93l86 93h80l-129 -141h-93l-69 141h79z" />
    <glyph glyph-name="Gcircumflex" unicode="&#x11c;" 
d="M234 -19q-127 0 -173 101.5t-8 282.5q34 157 130 264.5t219 107.5q78 0 128 -65t36 -172h-94q5 71 -19 111t-74 40q-80 0 -140.5 -84.5t-86.5 -206.5q-63 -296 106 -296q62 0 112 60.5t74 174.5v2h-134l18 83h225l-81 -384h-63l-4 93q-78 -112 -171 -112zM419 876
l-86 -93h-79l129 141h93l69 -141h-80z" />
    <glyph glyph-name="gcircumflex" unicode="&#x11d;" 
d="M564 523l-105 -493q-54 -250 -296 -250q-88 0 -131.5 40.5t-35.5 115.5h88q-2 -40 23 -61.5t77 -21.5q150 0 185 168l8 37h-2q-66 -73 -155 -73q-59 0 -99.5 24.5t-57.5 65t-21 93t10 109.5q24 110 97 185.5t177 75.5q98 0 137 -89h2l16 74h83zM140 263q-18 -86 3.5 -144
t94.5 -58q70 0 117 49.5t64 126.5q47 222 -94 222q-143 0 -185 -196zM368 686l-85 -93h-79l129 141h93l69 -141h-80z" />
    <glyph glyph-name="Gbreve" unicode="&#x11e;" 
d="M234 -19q-127 0 -173 101.5t-8 282.5q34 157 130 264.5t219 107.5q78 0 128 -65t36 -172h-94q5 71 -19 111t-74 40q-80 0 -140.5 -84.5t-86.5 -206.5q-63 -296 106 -296q62 0 112 60.5t74 174.5v2h-134l18 83h225l-81 -384h-63l-4 93q-78 -112 -171 -112zM278 921h49
q0 -79 85 -79q86 0 119 79h49q-36 -136 -180 -136q-143 0 -122 136z" />
    <glyph glyph-name="gbreve" unicode="&#x11f;" 
d="M564 523l-105 -493q-54 -250 -296 -250q-88 0 -131.5 40.5t-35.5 115.5h88q-2 -40 23 -61.5t77 -21.5q150 0 185 168l8 37h-2q-66 -73 -155 -73q-59 0 -99.5 24.5t-57.5 65t-21 93t10 109.5q24 110 97 185.5t177 75.5q98 0 137 -89h2l16 74h83zM140 263q-18 -86 3.5 -144
t94.5 -58q70 0 117 49.5t64 126.5q47 222 -94 222q-143 0 -185 -196zM228 731h49q0 -79 85 -79q86 0 119 79h49q-36 -136 -180 -136q-143 0 -122 136z" />
    <glyph glyph-name="Gdotaccent" unicode="&#x120;" 
d="M234 -19q-127 0 -173 101.5t-8 282.5q34 157 130 264.5t219 107.5q78 0 128 -65t36 -172h-94q5 71 -19 111t-74 40q-80 0 -140.5 -84.5t-86.5 -206.5q-63 -296 106 -296q62 0 112 60.5t74 174.5v2h-134l18 83h225l-81 -384h-63l-4 93q-78 -112 -171 -112zM449 808h-88
l22 100h88z" />
    <glyph glyph-name="gdotaccent" unicode="&#x121;" 
d="M564 523l-105 -493q-54 -250 -296 -250q-88 0 -131.5 40.5t-35.5 115.5h88q-2 -40 23 -61.5t77 -21.5q150 0 185 168l8 37h-2q-66 -73 -155 -73q-59 0 -99.5 24.5t-57.5 65t-21 93t10 109.5q24 110 97 185.5t177 75.5q98 0 137 -89h2l16 74h83zM140 263q-18 -86 3.5 -144
t94.5 -58q70 0 117 49.5t64 126.5q47 222 -94 222q-143 0 -185 -196zM399 618h-88l21 100h88z" />
    <glyph glyph-name="Gcommaaccent" unicode="&#x122;" 
d="M234 -19q-127 0 -173 101.5t-8 282.5q34 157 130 264.5t219 107.5q78 0 128 -65t36 -172h-94q5 71 -19 111t-74 40q-80 0 -140.5 -84.5t-86.5 -206.5q-63 -296 106 -296q62 0 112 60.5t74 174.5v2h-134l18 83h225l-81 -384h-63l-4 93q-78 -112 -171 -112zM138 -235l7 34
q51 11 60 55l2 6h-43l18 87h86l-18 -87q-9 -42 -39 -67.5t-73 -27.5z" />
    <glyph glyph-name="gcommaaccent" unicode="&#x123;" 
d="M564 523l-105 -493q-54 -250 -296 -250q-88 0 -131.5 40.5t-35.5 115.5h88q-2 -40 23 -61.5t77 -21.5q150 0 185 168l8 37h-2q-66 -73 -155 -73q-59 0 -99.5 24.5t-57.5 65t-21 93t10 109.5q24 110 97 185.5t177 75.5q98 0 137 -89h2l16 74h83zM140 263q-18 -86 3.5 -144
t94.5 -58q70 0 117 49.5t64 126.5q47 222 -94 222q-143 0 -185 -196zM433 769l-7 -35q-52 -9 -61 -56l-1 -5h43l-19 -87h-86l19 87q9 43 39 69t73 27z" />
    <glyph glyph-name="Hcircumflex" unicode="&#x124;" 
d="M10 0l152 718h96l-63 -297h235l63 297h97l-152 -718h-97l71 335h-235l-71 -335h-96zM409 876l-86 -93h-79l129 141h93l69 -141h-80z" />
    <glyph glyph-name="hcircumflex" unicode="&#x125;" 
d="M512 356l-75 -356h-88l72 342q13 63 -5 90t-74 27q-69 0 -116.5 -44.5t-66.5 -129.5l-60 -285h-88l152 718h88l-56 -265h2q78 85 171 85q88 0 125.5 -45.5t18.5 -136.5zM239 876l-86 -93h-79l129 141h93l69 -141h-80z" />
    <glyph glyph-name="Hbar" unicode="&#x126;" 
d="M590 718l-26 -124h59l-16 -76h-59l-110 -518h-97l71 335h-235l-71 -335h-96l110 518h-59l16 76h59l26 124h96l-26 -124h235l26 124h97zM195 421h235l21 97h-235z" />
    <glyph glyph-name="hbar" unicode="&#x127;" 
d="M512 356l-75 -356h-88l72 342q13 63 -5 90t-74 27q-69 0 -116.5 -44.5t-66.5 -129.5l-60 -285h-88l124 588h-73l12 55h73l16 75h88l-16 -75h175l-12 -55h-175l-28 -135h2q78 85 171 85q88 0 125.5 -45.5t18.5 -136.5z" />
    <glyph glyph-name="Itilde" unicode="&#x128;" 
d="M42 0l18 86h133l116 546h-133l18 86h363l-18 -86h-133l-116 -546h133l-18 -86h-363zM538 912h49q-16 -51 -49.5 -80t-73.5 -29q-28 0 -76 18.5t-62 18.5q-36 0 -56 -44h-48q38 107 126 107q30 0 70 -18.5t62 -18.5q42 0 58 46z" />
    <glyph glyph-name="itilde" unicode="&#x129;" 
d="M131 523h248l-96 -450h200l-15 -73h-488l15 73h200l80 377h-160zM478 722h49q-16 -51 -49.5 -80t-73.5 -29q-28 0 -76 18.5t-62 18.5q-37 0 -57 -44h-48q38 107 127 107q30 0 69.5 -18.5t61.5 -18.5q41 0 59 46z" />
    <glyph glyph-name="Imacron" unicode="&#x12a;" 
d="M42 0l18 86h133l116 546h-133l18 86h363l-18 -86h-133l-116 -546h133l-18 -86h-363zM565 869l-12 -57h-314l12 57h314z" />
    <glyph glyph-name="imacron" unicode="&#x12b;" 
d="M131 523h248l-96 -450h200l-15 -73h-488l15 73h200l80 377h-160zM505 679l-12 -57h-314l12 57h314z" />
    <glyph glyph-name="Ibreve" unicode="&#x12c;" 
d="M42 0l18 86h133l116 546h-133l18 86h363l-18 -86h-133l-116 -546h133l-18 -86h-363zM268 921h49q0 -79 85 -79q86 0 119 79h49q-36 -136 -180 -136q-143 0 -122 136z" />
    <glyph glyph-name="ibreve" unicode="&#x12d;" 
d="M131 523h248l-96 -450h200l-15 -73h-488l15 73h200l80 377h-160zM208 731h49q0 -79 85 -79q86 0 119 79h49q-36 -136 -180 -136q-143 0 -122 136z" />
    <glyph glyph-name="Iogonek" unicode="&#x12e;" 
d="M405 0h-110q-34 -3 -65 -29.5t-38 -58.5q-5 -21 4 -34t30 -13q18 0 43 10l-13 -63q-33 -14 -68 -14q-45 0 -67 23.5t-14 65.5q15 66 92 113h-157l18 86h133l116 546h-133l18 86h363l-18 -86h-133l-116 -546h133z" />
    <glyph glyph-name="iogonek" unicode="&#x12f;" 
d="M399 618h-88l21 100h88zM131 523h248l-96 -450h200l-15 -73h-183q-34 -3 -65 -29.5t-38 -58.5q-5 -21 4 -34t30 -13q18 0 43 10l-13 -63q-33 -14 -68 -14q-45 0 -67 23.5t-14 65.5q15 66 92 113h-209l15 73h200l80 377h-160z" />
    <glyph glyph-name="Idotaccent" unicode="&#x130;" 
d="M42 0l18 86h133l116 546h-133l18 86h363l-18 -86h-133l-116 -546h133l-18 -86h-363zM439 808h-88l22 100h88z" />
    <glyph glyph-name="dotlessi" unicode="&#x131;" 
d="M131 523h248l-96 -450h200l-15 -73h-488l15 73h200l80 377h-160z" />
    <glyph glyph-name="Jcircumflex" unicode="&#x134;" 
d="M22 161l15 70h91l-11 -49q-12 -60 9.5 -89t83.5 -29q126 0 151 124l95 444h-286l18 86h383l-111 -524q-22 -101 -90.5 -157t-172.5 -56q-96 0 -145 46.5t-30 133.5zM419 876l-86 -93h-79l129 141h93l69 -141h-80z" />
    <glyph glyph-name="jcircumflex" unicode="&#x135;" 
d="M192 523h248l-128 -600q-15 -69 -64.5 -101t-137.5 -32q-42 0 -76 3l16 76h63q64 0 84.5 12t28.5 52l110 517h-160zM368 686l-85 -93h-79l129 141h93l69 -141h-80z" />
    <glyph glyph-name="Kcommaaccent" unicode="&#x136;" 
d="M11 0l152 718h96l-71 -334l339 334h114l-343 -326l199 -392h-115l-163 317l-57 -54l-55 -263h-96zM128 -235l7 34q51 11 60 55l2 6h-43l18 87h86l-18 -87q-9 -42 -39 -67.5t-73 -27.5z" />
    <glyph glyph-name="kcommaaccent" unicode="&#x137;" 
d="M318 328l143 -328h-113l-107 264l-87 -66l-42 -198h-85l152 718h85l-88 -416l272 221h112zM128 -235l7 34q51 11 60 55l2 6h-43l18 87h86l-18 -87q-9 -42 -39 -67.5t-73 -27.5z" />
    <glyph glyph-name="kgreenlandic" unicode="&#x138;" 
d="M318 328l143 -328h-113l-107 264l-87 -66l-42 -198h-85l111 523h85l-47 -221l272 221h112z" />
    <glyph glyph-name="Lacute" unicode="&#x139;" 
d="M23 0l152 718h96l-134 -632h335l-18 -86h-431zM408 924l-140 -141h-66l101 141h105z" />
    <glyph glyph-name="lacute" unicode="&#x13a;" 
d="M182 718h248l-137 -645h200l-15 -73h-488l15 73h200l122 572h-160zM548 924l-140 -141h-66l101 141h105z" />
    <glyph glyph-name="Lcommaaccent" unicode="&#x13b;" 
d="M23 0l152 718h96l-134 -632h335l-18 -86h-431zM138 -235l7 34q51 11 60 55l2 6h-43l18 87h86l-18 -87q-9 -42 -39 -67.5t-73 -27.5z" />
    <glyph glyph-name="lcommaaccent" unicode="&#x13c;" 
d="M182 718h248l-137 -645h200l-15 -73h-488l15 73h200l122 572h-160zM128 -235l7 34q51 11 60 55l2 6h-43l18 87h86l-18 -87q-9 -42 -39 -67.5t-73 -27.5z" />
    <glyph glyph-name="Lcaron" unicode="&#x13d;" 
d="M23 0l152 718h96l-134 -632h335l-18 -86h-431zM371 535l8 35q51 11 60 55l2 6h-43l18 87h86l-18 -87q-9 -43 -39 -68.5t-74 -27.5z" />
    <glyph glyph-name="lcaron" unicode="&#x13e;" 
d="M182 718h248l-137 -645h200l-15 -73h-488l15 73h200l122 572h-160zM441 535l8 35q51 11 60 55l2 6h-43l18 87h86l-18 -87q-9 -43 -39 -68.5t-74 -27.5z" />
    <glyph glyph-name="Ldot" unicode="&#x13f;" 
d="M23 0l152 718h96l-134 -632h335l-18 -86h-431zM529 317h-88l21 100h88z" />
    <glyph glyph-name="ldot" unicode="&#x140;" 
d="M182 718h248l-137 -645h200l-15 -73h-488l15 73h200l122 572h-160zM655 317h-88l21 100h88z" />
    <glyph glyph-name="Lslash" unicode="&#x141;" 
d="M271 718l-65 -307l225 82l-16 -77l-226 -82l-52 -248h335l-18 -86h-431l62 296l-67 -24l17 77l67 24l73 345h96z" />
    <glyph glyph-name="lslash" unicode="&#x142;" 
d="M182 718h248l-56 -264l164 81l-17 -82l-164 -81l-64 -299h200l-15 -73h-488l15 73h200l53 251l-156 -77l18 83l156 76l51 239h-160z" />
    <glyph glyph-name="Nacute" unicode="&#x143;" 
d="M9 0l152 718h114l104 -540h2l115 540h94l-152 -718h-108l-112 540h-2l-114 -540h-93zM548 924l-140 -141h-66l101 141h105z" />
    <glyph glyph-name="nacute" unicode="&#x144;" 
d="M512 356l-75 -356h-88l68 322q15 70 -2 103.5t-81 33.5q-67 0 -113 -49.5t-62 -124.5l-60 -285h-88l111 523h83l-16 -74h2q80 89 177 89q89 0 126 -47t18 -135zM508 734l-140 -141h-66l101 141h105z" />
    <glyph glyph-name="Ncommaaccent" unicode="&#x145;" 
d="M9 0l152 718h114l104 -540h2l115 540h94l-152 -718h-108l-112 540h-2l-114 -540h-93zM128 -235l7 34q51 11 60 55l2 6h-43l18 87h86l-18 -87q-9 -42 -39 -67.5t-73 -27.5z" />
    <glyph glyph-name="ncommaaccent" unicode="&#x146;" 
d="M512 356l-75 -356h-88l68 322q15 70 -2 103.5t-81 33.5q-67 0 -113 -49.5t-62 -124.5l-60 -285h-88l111 523h83l-16 -74h2q80 89 177 89q89 0 126 -47t18 -135zM128 -235l7 34q51 11 60 55l2 6h-43l18 87h86l-18 -87q-9 -42 -39 -67.5t-73 -27.5z" />
    <glyph glyph-name="Ncaron" unicode="&#x147;" 
d="M9 0l152 718h114l104 -540h2l115 540h94l-152 -718h-108l-112 540h-2l-114 -540h-93zM353 924l46 -93l86 93h80l-129 -141h-93l-69 141h79z" />
    <glyph glyph-name="ncaron" unicode="&#x148;" 
d="M512 356l-75 -356h-88l68 322q15 70 -2 103.5t-81 33.5q-67 0 -113 -49.5t-62 -124.5l-60 -285h-88l111 523h83l-16 -74h2q80 89 177 89q89 0 126 -47t18 -135zM313 734l46 -93l86 93h80l-129 -141h-93l-69 141h79z" />
    <glyph glyph-name="Eng" unicode="&#x14a;" 
d="M383 188l113 530h94l-153 -722q-22 -103 -88 -158t-170 -55l18 83q59 0 93.5 29.5t47.5 93.5l3 11l-123 540h-2l-114 -540h-93l152 718h114l106 -530h2z" />
    <glyph glyph-name="eng" unicode="&#x14b;" 
d="M11 0l111 523h83l-16 -74h2q80 89 177 89q89 0 126 -47t18 -135l-77 -365q-21 -98 -85 -150.5t-161 -52.5l17 79q115 0 139 118l72 337q15 70 -2 103.5t-81 33.5q-67 0 -113 -49.5t-62 -124.5l-60 -285h-88z" />
    <glyph glyph-name="Omacron" unicode="&#x14c;" 
d="M560 359q-35 -162 -129 -270t-212 -108q-81 0 -130.5 51t-59 135t10.5 192q35 164 127.5 271t212.5 107q119 0 167 -107.5t13 -270.5zM460 359q28 117 2 204.5t-100 87.5q-75 0 -135.5 -84.5t-86.5 -207.5q-16 -81 -13.5 -145.5t31.5 -105.5t80 -41q73 0 134 84t88 208z
M565 869l-12 -57h-314l12 57h314z" />
    <glyph glyph-name="omacron" unicode="&#x14d;" 
d="M46 262q24 116 106.5 196t194.5 80t160 -80t24 -196t-106.5 -196.5t-195.5 -80.5q-111 0 -159 80t-24 197zM136 262q-18 -83 8 -141.5t102 -58.5q75 0 126.5 59.5t68.5 140.5q9 51 5 95t-34.5 74t-81.5 30q-75 0 -125.5 -58t-68.5 -141zM525 679l-12 -57h-314l12 57h314z
" />
    <glyph glyph-name="Obreve" unicode="&#x14e;" 
d="M560 359q-35 -162 -129 -270t-212 -108q-81 0 -130.5 51t-59 135t10.5 192q35 164 127.5 271t212.5 107q119 0 167 -107.5t13 -270.5zM460 359q28 117 2 204.5t-100 87.5q-75 0 -135.5 -84.5t-86.5 -207.5q-16 -81 -13.5 -145.5t31.5 -105.5t80 -41q73 0 134 84t88 208z
M268 921h49q0 -79 85 -79q86 0 119 79h49q-36 -136 -180 -136q-143 0 -122 136z" />
    <glyph glyph-name="obreve" unicode="&#x14f;" 
d="M46 262q24 116 106.5 196t194.5 80t160 -80t24 -196t-106.5 -196.5t-195.5 -80.5q-111 0 -159 80t-24 197zM136 262q-18 -83 8 -141.5t102 -58.5q75 0 126.5 59.5t68.5 140.5q9 51 5 95t-34.5 74t-81.5 30q-75 0 -125.5 -58t-68.5 -141zM228 731h49q0 -79 85 -79
q86 0 119 79h49q-36 -136 -180 -136q-143 0 -122 136z" />
    <glyph glyph-name="Ohungarumlaut" unicode="&#x150;" 
d="M560 359q-35 -162 -129 -270t-212 -108q-81 0 -130.5 51t-59 135t10.5 192q35 164 127.5 271t212.5 107q119 0 167 -107.5t13 -270.5zM460 359q28 117 2 204.5t-100 87.5q-75 0 -135.5 -84.5t-86.5 -207.5q-16 -81 -13.5 -145.5t31.5 -105.5t80 -41q73 0 134 84t88 208z
M465 783h-48l82 141h90zM329 783h-49l83 141h90z" />
    <glyph glyph-name="ohungarumlaut" unicode="&#x151;" 
d="M46 262q24 116 106.5 196t194.5 80t160 -80t24 -196t-106.5 -196.5t-195.5 -80.5q-111 0 -159 80t-24 197zM136 262q-18 -83 8 -141.5t102 -58.5q75 0 126.5 59.5t68.5 140.5q9 51 5 95t-34.5 74t-81.5 30q-75 0 -125.5 -58t-68.5 -141zM425 593h-48l82 141h90zM289 593
h-49l83 141h90z" />
    <glyph glyph-name="OE" unicode="&#x152;" 
d="M357 718h300l-18 -86h-189l-47 -220h173l-18 -86h-173l-51 -240h191l-18 -85h-313q-66 0 -110.5 29.5t-62.5 78.5t-21.5 113t13.5 133q21 97 64 176.5t116.5 133t163.5 53.5zM237 86l116 549h-13q-83 0 -141.5 -77t-88.5 -219q-55 -253 122 -253h5z" />
    <glyph glyph-name="oe" unicode="&#x153;" 
d="M437 164h87q-68 -179 -192 -179q-74 0 -102 61q-44 -60 -120 -60q-51 0 -80.5 38.5t-33.5 100t10 137.5q25 115 85.5 195.5t135.5 80.5q76 0 103 -66q52 66 136 66q50 0 75 -43t23 -110.5t-18 -151.5h-222q-36 -172 36 -172q18 0 41 29t36 74zM96 262q-19 -76 -13 -138
t43 -62q36 0 67 58.5t48 141.5q18 74 12 137t-42 63q-37 0 -67 -58t-48 -142zM339 303h131q27 156 -32 156q-28 0 -57 -47t-42 -109z" />
    <glyph glyph-name="Racute" unicode="&#x154;" 
d="M167 308l-65 -308h-97l152 718h242q105 0 149.5 -49.5t24.5 -143.5q-26 -118 -135 -172q43 -20 55 -49t2 -86l-23 -134q-6 -28 -2 -42.5t25 -25.5l-3 -16h-120q-8 51 21 180q5 31 6.5 59.5t-20.5 48.5t-67 20h-145zM236 635l-51 -244h135q126 0 152 124q25 120 -85 120
h-151zM548 924l-140 -141h-66l101 141h105z" />
    <glyph glyph-name="racute" unicode="&#x155;" 
d="M220 264l-56 -264h-88l111 523h83l-19 -87h2q97 102 219 102q36 0 72 -3l-19 -91h-73q-85 0 -150.5 -51.5t-81.5 -128.5zM508 734l-140 -141h-66l101 141h105z" />
    <glyph glyph-name="Rcommaaccent" unicode="&#x156;" 
d="M167 308l-65 -308h-97l152 718h242q105 0 149.5 -49.5t24.5 -143.5q-26 -118 -135 -172q43 -20 55 -49t2 -86l-23 -134q-6 -28 -2 -42.5t25 -25.5l-3 -16h-120q-8 51 21 180q5 31 6.5 59.5t-20.5 48.5t-67 20h-145zM236 635l-51 -244h135q126 0 152 124q25 120 -85 120
h-151zM128 -235l7 34q51 11 60 55l2 6h-43l18 87h86l-18 -87q-9 -42 -39 -67.5t-73 -27.5z" />
    <glyph glyph-name="rcommaaccent" unicode="&#x157;" 
d="M220 264l-56 -264h-88l111 523h83l-19 -87h2q97 102 219 102q36 0 72 -3l-19 -91h-73q-85 0 -150.5 -51.5t-81.5 -128.5zM28 -235l7 34q51 11 60 55l2 6h-43l18 87h86l-18 -87q-9 -42 -39 -67.5t-73 -27.5z" />
    <glyph glyph-name="Rcaron" unicode="&#x158;" 
d="M167 308l-65 -308h-97l152 718h242q105 0 149.5 -49.5t24.5 -143.5q-26 -118 -135 -172q43 -20 55 -49t2 -86l-23 -134q-6 -28 -2 -42.5t25 -25.5l-3 -16h-120q-8 51 21 180q5 31 6.5 59.5t-20.5 48.5t-67 20h-145zM236 635l-51 -244h135q126 0 152 124q25 120 -85 120
h-151zM353 924l46 -93l86 93h80l-129 -141h-93l-69 141h79z" />
    <glyph glyph-name="rcaron" unicode="&#x159;" 
d="M220 264l-56 -264h-88l111 523h83l-19 -87h2q97 102 219 102q36 0 72 -3l-19 -91h-73q-85 0 -150.5 -51.5t-81.5 -128.5zM313 734l46 -93l86 93h80l-129 -141h-93l-69 141h79z" />
    <glyph glyph-name="Sacute" unicode="&#x15a;" 
d="M567 508h-91q12 70 -21 108t-95 38q-65 0 -106.5 -32.5t-54.5 -93.5q-8 -33 7 -54t58 -37l135 -47q152 -52 123 -192q-24 -110 -107 -163.5t-191 -53.5q-117 0 -176 62t-30 189h91q-18 -83 19.5 -125.5t112.5 -42.5t123 31.5t61 89.5q11 52 -11.5 80t-77.5 45l-117 36
q-143 44 -117 169q22 104 95 163t169 59q120 0 170.5 -55.5t30.5 -173.5zM548 924l-140 -141h-66l101 141h105z" />
    <glyph glyph-name="sacute" unicode="&#x15b;" 
d="M501 374h-85q7 46 -19 67t-86 21q-41 0 -76 -16t-42 -48q-4 -18 0.5 -32t13 -22t27.5 -15.5t34 -11.5t42 -10t44 -11q70 -20 100 -51.5t16 -96.5q-16 -78 -85 -120.5t-157 -42.5q-111 0 -157 45.5t-28 137.5h85q-9 -54 19.5 -80.5t95.5 -26.5q56 0 92.5 19.5t43.5 53.5
q9 43 -14.5 58.5t-111.5 37.5q-36 9 -57 14q-114 31 -92 137q16 75 82 116t151 41q86 0 130.5 -42t33.5 -122zM508 734l-140 -141h-66l101 141h105z" />
    <glyph glyph-name="Scircumflex" unicode="&#x15c;" 
d="M567 508h-91q12 70 -21 108t-95 38q-65 0 -106.5 -32.5t-54.5 -93.5q-8 -33 7 -54t58 -37l135 -47q152 -52 123 -192q-24 -110 -107 -163.5t-191 -53.5q-117 0 -176 62t-30 189h91q-18 -83 19.5 -125.5t112.5 -42.5t123 31.5t61 89.5q11 52 -11.5 80t-77.5 45l-117 36
q-143 44 -117 169q22 104 95 163t169 59q120 0 170.5 -55.5t30.5 -173.5zM409 876l-86 -93h-79l129 141h93l69 -141h-80z" />
    <glyph glyph-name="scircumflex" unicode="&#x15d;" 
d="M501 374h-85q7 46 -19 67t-86 21q-41 0 -76 -16t-42 -48q-4 -18 0.5 -32t13 -22t27.5 -15.5t34 -11.5t42 -10t44 -11q70 -20 100 -51.5t16 -96.5q-16 -78 -85 -120.5t-157 -42.5q-111 0 -157 45.5t-28 137.5h85q-9 -54 19.5 -80.5t95.5 -26.5q56 0 92.5 19.5t43.5 53.5
q9 43 -14.5 58.5t-111.5 37.5q-36 9 -57 14q-114 31 -92 137q16 75 82 116t151 41q86 0 130.5 -42t33.5 -122zM368 686l-85 -93h-79l129 141h93l69 -141h-80z" />
    <glyph glyph-name="Scedilla" unicode="&#x15e;" 
d="M567 508h-91q12 70 -21 108t-95 38q-65 0 -106.5 -32.5t-54.5 -93.5q-8 -33 7 -54t58 -37l135 -47q152 -52 123 -192q-23 -105 -99.5 -158t-178.5 -58l-42 -44q26 4 32 4q39 0 57.5 -21t10.5 -54q-9 -44 -48 -68t-88 -24q-48 0 -93 22l26 40q38 -15 62 -15q57 0 66 42
q4 17 -8.5 28t-32.5 11q-11 0 -40 -8l-13 19l65 68q-105 6 -156.5 68.5t-23.5 181.5h91q-18 -83 19.5 -125.5t112.5 -42.5t123 31.5t61 89.5q11 52 -11.5 80t-77.5 45l-117 36q-143 44 -117 169q22 104 95 163t169 59q120 0 170.5 -55.5t30.5 -173.5z" />
    <glyph glyph-name="scedilla" unicode="&#x15f;" 
d="M501 374h-85q7 46 -19 67t-86 21q-41 0 -76 -16t-42 -48q-4 -18 0.5 -32t13 -22t27.5 -15.5t34 -11.5t42 -10t44 -11q70 -20 100 -51.5t16 -96.5q-16 -76 -81.5 -118.5t-151.5 -44.5l-45 -47q26 4 32 4q39 0 57.5 -21t10.5 -54q-9 -44 -48 -68t-88 -24q-48 0 -93 22
l26 40q38 -15 62 -15q57 0 66 42q4 17 -8.5 28t-32.5 11q-11 0 -40 -8l-13 19l70 73q-183 13 -150 181h85q-9 -54 19.5 -80.5t95.5 -26.5q56 0 92.5 19.5t43.5 53.5q9 43 -14.5 58.5t-111.5 37.5q-36 9 -57 14q-114 31 -92 137q16 75 82 116t151 41q86 0 130.5 -42
t33.5 -122z" />
    <glyph glyph-name="Scaron" unicode="&#x160;" 
d="M567 508h-91q12 70 -21 108t-95 38q-65 0 -106.5 -32.5t-54.5 -93.5q-8 -33 7 -54t58 -37l135 -47q152 -52 123 -192q-24 -110 -107 -163.5t-191 -53.5q-117 0 -176 62t-30 189h91q-18 -83 19.5 -125.5t112.5 -42.5t123 31.5t61 89.5q11 52 -11.5 80t-77.5 45l-117 36
q-143 44 -117 169q22 104 95 163t169 59q120 0 170.5 -55.5t30.5 -173.5zM353 924l46 -93l86 93h80l-129 -141h-93l-69 141h79z" />
    <glyph glyph-name="scaron" unicode="&#x161;" 
d="M501 374h-85q7 46 -19 67t-86 21q-41 0 -76 -16t-42 -48q-4 -18 0.5 -32t13 -22t27.5 -15.5t34 -11.5t42 -10t44 -11q70 -20 100 -51.5t16 -96.5q-16 -78 -85 -120.5t-157 -42.5q-111 0 -157 45.5t-28 137.5h85q-9 -54 19.5 -80.5t95.5 -26.5q56 0 92.5 19.5t43.5 53.5
q9 43 -14.5 58.5t-111.5 37.5q-36 9 -57 14q-114 31 -92 137q16 75 82 116t151 41q86 0 130.5 -42t33.5 -122zM313 734l46 -93l86 93h80l-129 -141h-93l-69 141h79z" />
    <glyph glyph-name="uni0162" unicode="&#x162;" 
d="M174 0l134 632h-212l18 86h523l-18 -86h-214l-134 -632h-97zM128 -235l7 34q51 11 60 55l2 6h-43l18 87h86l-18 -87q-9 -42 -39 -67.5t-73 -27.5z" />
    <glyph glyph-name="uni0163" unicode="&#x163;" 
d="M550 450h-204l-64 -300q-9 -42 12 -61.5t81 -19.5h94l-14 -69q-77 -7 -128 -7q-87 0 -119 35.5t-15 116.5l65 305h-171l16 73h171l31 146h88l-31 -146h204zM188 -235l7 34q51 11 60 55l2 6h-43l18 87h86l-18 -87q-9 -42 -39 -67.5t-73 -27.5z" />
    <glyph glyph-name="Tcaron" unicode="&#x164;" 
d="M174 0l134 632h-212l18 86h523l-18 -86h-214l-134 -632h-97zM353 924l46 -93l86 93h80l-129 -141h-93l-69 141h79z" />
    <glyph glyph-name="tcaron" unicode="&#x165;" 
d="M550 450h-204l-64 -300q-9 -42 12 -61.5t81 -19.5h94l-14 -69q-77 -7 -128 -7q-87 0 -119 35.5t-15 116.5l65 305h-171l16 73h171l31 146h88l-31 -146h204zM491 535l8 35q51 11 60 55l2 6h-43l18 87h86l-18 -87q-9 -43 -39 -68.5t-74 -27.5z" />
    <glyph glyph-name="Tbar" unicode="&#x166;" 
d="M105 312l17 81h135l51 239h-212l18 86h523l-18 -86h-214l-51 -239h138l-17 -81h-138l-66 -312h-97l66 312h-135z" />
    <glyph glyph-name="tbar" unicode="&#x167;" 
d="M550 450h-204l-16 -74h194l-14 -67h-194l-34 -159q-9 -42 12 -61.5t81 -19.5h94l-14 -69q-77 -7 -128 -7q-87 0 -119 35.5t-15 116.5l35 164h-171l14 67h171l16 74h-171l16 73h171l31 146h88l-31 -146h204z" />
    <glyph glyph-name="Utilde" unicode="&#x168;" 
d="M510 718h98l-99 -466q-27 -126 -108.5 -198.5t-188.5 -72.5q-104 0 -150.5 68t-20.5 190l102 479h96l-96 -452q-20 -93 2.5 -146t87.5 -53t112.5 50.5t68.5 146.5zM538 912h49q-16 -51 -49.5 -80t-73.5 -29q-28 0 -76 18.5t-62 18.5q-36 0 -56 -44h-48q38 107 126 107
q30 0 70 -18.5t62 -18.5q42 0 58 46z" />
    <glyph glyph-name="utilde" unicode="&#x169;" 
d="M44 147l80 376h88l-74 -347q-24 -115 76 -115q71 0 118.5 49.5t62.5 124.5l62 288h88l-111 -523h-83l16 76l-2 2q-69 -93 -186 -93q-76 0 -114 42.5t-21 119.5zM498 722h49q-16 -51 -49.5 -80t-73.5 -29q-28 0 -76 18.5t-62 18.5q-37 0 -57 -44h-48q38 107 127 107
q30 0 69.5 -18.5t61.5 -18.5q41 0 59 46z" />
    <glyph glyph-name="Umacron" unicode="&#x16a;" 
d="M510 718h98l-99 -466q-27 -126 -108.5 -198.5t-188.5 -72.5q-104 0 -150.5 68t-20.5 190l102 479h96l-96 -452q-20 -93 2.5 -146t87.5 -53t112.5 50.5t68.5 146.5zM565 869l-12 -57h-314l12 57h314z" />
    <glyph glyph-name="umacron" unicode="&#x16b;" 
d="M44 147l80 376h88l-74 -347q-24 -115 76 -115q71 0 118.5 49.5t62.5 124.5l62 288h88l-111 -523h-83l16 76l-2 2q-69 -93 -186 -93q-76 0 -114 42.5t-21 119.5zM525 679l-12 -57h-314l12 57h314z" />
    <glyph glyph-name="Ubreve" unicode="&#x16c;" 
d="M510 718h98l-99 -466q-27 -126 -108.5 -198.5t-188.5 -72.5q-104 0 -150.5 68t-20.5 190l102 479h96l-96 -452q-20 -93 2.5 -146t87.5 -53t112.5 50.5t68.5 146.5zM268 921h49q0 -79 85 -79q86 0 119 79h49q-36 -136 -180 -136q-143 0 -122 136z" />
    <glyph glyph-name="ubreve" unicode="&#x16d;" 
d="M44 147l80 376h88l-74 -347q-24 -115 76 -115q71 0 118.5 49.5t62.5 124.5l62 288h88l-111 -523h-83l16 76l-2 2q-69 -93 -186 -93q-76 0 -114 42.5t-21 119.5zM228 731h49q0 -79 85 -79q86 0 119 79h49q-36 -136 -180 -136q-143 0 -122 136z" />
    <glyph glyph-name="Uring" unicode="&#x16e;" 
d="M510 718h98l-99 -466q-27 -126 -108.5 -198.5t-188.5 -72.5q-104 0 -150.5 68t-20.5 190l102 479h96l-96 -452q-20 -93 2.5 -146t87.5 -53t112.5 50.5t68.5 146.5zM425 946q40 0 60 -26.5t12 -65.5t-40 -65.5t-72 -26.5t-60 26t-12 66q8 38 40 65t72 27zM353 854
q-5 -22 7 -37t34 -15q21 0 40 15t23 37t-8 37t-33 15q-22 0 -40.5 -15t-22.5 -37z" />
    <glyph glyph-name="uring" unicode="&#x16f;" 
d="M44 147l80 376h88l-74 -347q-24 -115 76 -115q71 0 118.5 49.5t62.5 124.5l62 288h88l-111 -523h-83l16 76l-2 2q-69 -93 -186 -93q-76 0 -114 42.5t-21 119.5zM384 756q40 0 60.5 -26.5t12.5 -65.5t-40 -65.5t-72 -26.5t-60.5 26t-11.5 66q8 38 39.5 65t71.5 27z
M313 664q-5 -22 7 -37t34 -15q21 0 39.5 15t23.5 37q4 22 -8 37t-33 15q-22 0 -40.5 -15t-22.5 -37z" />
    <glyph glyph-name="Uhungarumlaut" unicode="&#x170;" 
d="M510 718h98l-99 -466q-27 -126 -108.5 -198.5t-188.5 -72.5q-104 0 -150.5 68t-20.5 190l102 479h96l-96 -452q-20 -93 2.5 -146t87.5 -53t112.5 50.5t68.5 146.5zM465 783h-48l82 141h90zM329 783h-49l83 141h90z" />
    <glyph glyph-name="uhungarumlaut" unicode="&#x171;" 
d="M44 147l80 376h88l-74 -347q-24 -115 76 -115q71 0 118.5 49.5t62.5 124.5l62 288h88l-111 -523h-83l16 76l-2 2q-69 -93 -186 -93q-76 0 -114 42.5t-21 119.5zM425 593h-48l82 141h90zM289 593h-49l83 141h90z" />
    <glyph glyph-name="Uogonek" unicode="&#x172;" 
d="M510 718h98l-99 -466q-20 -93 -71 -158.5t-120 -92.5q-33 -12 -61.5 -36t-34.5 -53q-5 -21 4 -34t30 -13q18 0 43 10l-13 -63q-33 -14 -68 -14q-45 0 -67 23.5t-14 65.5q12 52 64 94q-98 4 -141.5 71.5t-18.5 186.5l102 479h96l-96 -452q-20 -93 2.5 -146t87.5 -53
t112.5 50.5t68.5 146.5z" />
    <glyph glyph-name="uogonek" unicode="&#x173;" 
d="M44 147l80 376h88l-74 -347q-24 -115 76 -115q71 0 118.5 49.5t62.5 124.5l62 288h88l-111 -523q-30 -6 -58 -33t-34 -55q-5 -21 4.5 -34t29.5 -13q18 0 43 10l-13 -63q-33 -14 -68 -14q-45 0 -67 23.5t-14 65.5q15 65 94 113l16 76l-2 2q-69 -93 -186 -93
q-76 0 -114 42.5t-21 119.5z" />
    <glyph glyph-name="Wcircumflex" unicode="&#x174;" 
d="M348 585l-210 -585h-121l63 718h108l-71 -571h2l196 571h132l-48 -571h2l173 571h99l-242 -718h-121l40 585h-2zM409 876l-86 -93h-79l129 141h93l69 -141h-80z" />
    <glyph glyph-name="wcircumflex" unicode="&#x175;" 
d="M301 385l-153 -385h-100v523h95l-13 -391h2l144 391h119l-21 -391h2l159 391h87l-222 -523h-102l5 385h-2zM368 686l-85 -93h-79l129 141h93l69 -141h-80z" />
    <glyph glyph-name="Ycircumflex" unicode="&#x176;" 
d="M334 289l-61 -289h-97l61 289l-140 429h113l93 -345l239 345h114zM409 876l-86 -93h-79l129 141h93l69 -141h-80z" />
    <glyph glyph-name="ycircumflex" unicode="&#x177;" 
d="M246 97l251 426h96l-316 -513q-80 -136 -122 -181q-40 -43 -109 -43q-35 0 -57 8l17 80q23 -9 53 -9t51 21q23 25 65 99l-99 538h99l69 -426h2zM368 686l-85 -93h-79l129 141h93l69 -141h-80z" />
    <glyph glyph-name="Ydieresis" unicode="&#x178;" 
d="M334 289l-61 -289h-97l61 289l-140 429h113l93 -345l239 345h114zM543 908l-22 -102h-90l22 102h90zM381 908l-22 -102h-90l22 102h90z" />
    <glyph glyph-name="Zacute" unicode="&#x179;" 
d="M479 86l-18 -86h-485l17 81l477 551h-327l18 86h452l-18 -84l-478 -548h362zM548 924l-140 -141h-66l101 141h105z" />
    <glyph glyph-name="zacute" unicode="&#x17a;" 
d="M518 451l-372 -378h302l-15 -73h-419l14 69l377 381h-271l16 73h384zM508 734l-140 -141h-66l101 141h105z" />
    <glyph glyph-name="Zdotaccent" unicode="&#x17b;" 
d="M479 86l-18 -86h-485l17 81l477 551h-327l18 86h452l-18 -84l-478 -548h362zM439 808h-88l22 100h88z" />
    <glyph glyph-name="zdotaccent" unicode="&#x17c;" 
d="M518 451l-372 -378h302l-15 -73h-419l14 69l377 381h-271l16 73h384zM399 618h-88l21 100h88z" />
    <glyph glyph-name="Zcaron" unicode="&#x17d;" 
d="M479 86l-18 -86h-485l17 81l477 551h-327l18 86h452l-18 -84l-478 -548h362zM353 924l46 -93l86 93h80l-129 -141h-93l-69 141h79z" />
    <glyph glyph-name="zcaron" unicode="&#x17e;" 
d="M518 451l-372 -378h302l-15 -73h-419l14 69l377 381h-271l16 73h384zM313 734l46 -93l86 93h80l-129 -141h-93l-69 141h79z" />
    <glyph glyph-name="florin" unicode="&#x192;" 
d="M627 703l-31 -77q-31 16 -54 16q-29 0 -56 -24.5t-46 -72.5l-41 -103h118l-14 -70h-131l-124 -308q-21 -52 -35.5 -84t-38.5 -72t-48.5 -62t-60.5 -37.5t-78 -15.5q-39 0 -60 12l32 80q22 -13 49 -13q24 0 44 11.5t35 34t24.5 42t21.5 48.5l149 364h-107l14 70h121
l50 118q29 72 72 115t120 43q45 0 75 -15z" />
    <glyph glyph-name="Scommaaccent" unicode="&#x218;" 
d="M567 508h-91q12 70 -21 108t-95 38q-65 0 -106.5 -32.5t-54.5 -93.5q-8 -33 7 -54t58 -37l135 -47q152 -52 123 -192q-24 -110 -107 -163.5t-191 -53.5q-117 0 -176 62t-30 189h91q-18 -83 19.5 -125.5t112.5 -42.5t123 31.5t61 89.5q11 52 -11.5 80t-77.5 45l-117 36
q-143 44 -117 169q22 104 95 163t169 59q120 0 170.5 -55.5t30.5 -173.5zM128 -235l7 34q51 11 60 55l2 6h-43l18 87h86l-18 -87q-9 -42 -39 -67.5t-73 -27.5z" />
    <glyph glyph-name="scommaaccent" unicode="&#x219;" 
d="M501 374h-85q7 46 -19 67t-86 21q-41 0 -76 -16t-42 -48q-4 -18 0.5 -32t13 -22t27.5 -15.5t34 -11.5t42 -10t44 -11q70 -20 100 -51.5t16 -96.5q-16 -78 -85 -120.5t-157 -42.5q-111 0 -157 45.5t-28 137.5h85q-9 -54 19.5 -80.5t95.5 -26.5q56 0 92.5 19.5t43.5 53.5
q9 43 -14.5 58.5t-111.5 37.5q-36 9 -57 14q-114 31 -92 137q16 75 82 116t151 41q86 0 130.5 -42t33.5 -122zM128 -235l7 34q51 11 60 55l2 6h-43l18 87h86l-18 -87q-9 -42 -39 -67.5t-73 -27.5z" />
    <glyph glyph-name="uni021A" unicode="&#x21a;" 
d="M174 0l134 632h-212l18 86h523l-18 -86h-214l-134 -632h-97zM128 -235l7 34q51 11 60 55l2 6h-43l18 87h86l-18 -87q-9 -42 -39 -67.5t-73 -27.5z" />
    <glyph glyph-name="uni021B" unicode="&#x21b;" 
d="M550 450h-204l-64 -300q-9 -42 12 -61.5t81 -19.5h94l-14 -69q-77 -7 -128 -7q-87 0 -119 35.5t-15 116.5l65 305h-171l16 73h171l31 146h88l-31 -146h204zM188 -235l7 34q51 11 60 55l2 6h-43l18 87h86l-18 -87q-9 -42 -39 -67.5t-73 -27.5z" />
    <glyph glyph-name="dotlessj" unicode="&#x237;" 
d="M192 523h248l-128 -600q-15 -69 -64.5 -101t-137.5 -32q-42 0 -76 3l16 76h63q64 0 84.5 12t28.5 52l110 517h-160z" />
    <glyph glyph-name="circumflex" unicode="&#x2c6;" 
d="M368 686l-85 -93h-79l129 141h93l69 -141h-80z" />
    <glyph glyph-name="caron" unicode="&#x2c7;" 
d="M313 734l46 -93l86 93h80l-129 -141h-93l-69 141h79z" />
    <glyph glyph-name="uni02C9" unicode="&#x2c9;" 
d="M525 679l-12 -57h-314l12 57h314z" />
    <glyph glyph-name="breve" unicode="&#x2d8;" 
d="M228 731h49q0 -79 85 -79q86 0 119 79h49q-36 -136 -180 -136q-143 0 -122 136z" />
    <glyph glyph-name="dotaccent" unicode="&#x2d9;" 
d="M399 618h-88l21 100h88z" />
    <glyph glyph-name="ring" unicode="&#x2da;" 
d="M384 756q40 0 60.5 -26.5t12.5 -65.5t-40 -65.5t-72 -26.5t-60.5 26t-11.5 66q8 38 39.5 65t71.5 27zM313 664q-5 -22 7 -37t34 -15q21 0 39.5 15t23.5 37q4 22 -8 37t-33 15q-22 0 -40.5 -15t-22.5 -37z" />
    <glyph glyph-name="ogonek" unicode="&#x2db;" 
d="M232 13l73 -13q-34 -3 -65 -29.5t-38 -58.5q-5 -21 4 -34t30 -13q18 0 43 10l-13 -63q-33 -14 -68 -14q-45 0 -67 23.5t-14 65.5q17 74 115 126z" />
    <glyph glyph-name="tilde" unicode="&#x2dc;" 
d="M498 722h49q-16 -51 -49.5 -80t-73.5 -29q-28 0 -76 18.5t-62 18.5q-37 0 -57 -44h-48q38 107 127 107q30 0 69.5 -18.5t61.5 -18.5q41 0 59 46z" />
    <glyph glyph-name="hungarumlaut" unicode="&#x2dd;" 
d="M425 593h-48l82 141h90zM289 593h-49l83 141h90z" />
    <glyph glyph-name="uni0394" unicode="&#x394;" 
d="M499 0h-550l383 718h98zM348 588l-249 -502h280l-29 502h-2z" />
    <glyph glyph-name="uni03A9" unicode="&#x3a9;" 
d="M508 86l-18 -86h-242l16 78q161 122 203 314q23 111 -5 185t-99 74q-74 0 -133.5 -73.5t-83.5 -185.5q-43 -196 71 -314l-16 -78h-243l18 86h131l1 4q-100 114 -57 311q31 146 124.5 241t205.5 95q111 0 164 -95t22 -241q-42 -193 -190 -311l-1 -4h132z" />
    <glyph glyph-name="uni03BC" unicode="&#x3bc;" 
d="M-66 -207l155 730h88l-68 -316q-13 -67 12.5 -104t84.5 -37q61 0 100 36.5t53 103.5l68 317h88l-85 -398q-7 -34 -0.5 -45.5t27.5 -11.5q18 0 27 2l-15 -73q-31 -7 -56 -7q-40 0 -60 18t-19 53q-67 -76 -151 -76q-36 0 -66.5 18.5t-37.5 48.5l-3 -1l-54 -258h-88z" />
    <glyph glyph-name="pi" unicode="&#x3c0;" 
d="M29 446l17 77h577l-17 -77h-87l-69 -325q-6 -29 0.5 -41t32.5 -12q18 0 37 4l-17 -77q-31 -6 -63 -6q-60 0 -76.5 27.5t-3.5 91.5l72 338h-231l-94 -446h-88l94 446h-84z" />
    <glyph glyph-name="Wgrave" unicode="&#x1e80;" 
d="M348 585l-210 -585h-121l63 718h108l-71 -571h2l196 571h132l-48 -571h2l173 571h99l-242 -718h-121l40 585h-2zM371 783l-79 141h104l42 -141h-67z" />
    <glyph glyph-name="wgrave" unicode="&#x1e81;" 
d="M301 385l-153 -385h-100v523h95l-13 -391h2l144 391h119l-21 -391h2l159 391h87l-222 -523h-102l5 385h-2zM331 593l-79 141h104l42 -141h-67z" />
    <glyph glyph-name="Wacute" unicode="&#x1e82;" 
d="M348 585l-210 -585h-121l63 718h108l-71 -571h2l196 571h132l-48 -571h2l173 571h99l-242 -718h-121l40 585h-2zM548 924l-140 -141h-66l101 141h105z" />
    <glyph glyph-name="wacute" unicode="&#x1e83;" 
d="M301 385l-153 -385h-100v523h95l-13 -391h2l144 391h119l-21 -391h2l159 391h87l-222 -523h-102l5 385h-2zM508 734l-140 -141h-66l101 141h105z" />
    <glyph glyph-name="Wdieresis" unicode="&#x1e84;" 
d="M348 585l-210 -585h-121l63 718h108l-71 -571h2l196 571h132l-48 -571h2l173 571h99l-242 -718h-121l40 585h-2zM543 908l-22 -102h-90l22 102h90zM381 908l-22 -102h-90l22 102h90z" />
    <glyph glyph-name="wdieresis" unicode="&#x1e85;" 
d="M301 385l-153 -385h-100v523h95l-13 -391h2l144 391h119l-21 -391h2l159 391h87l-222 -523h-102l5 385h-2zM502 718l-22 -102h-90l22 102h90zM340 718l-22 -102h-90l22 102h90z" />
    <glyph glyph-name="Ygrave" unicode="&#x1ef2;" 
d="M334 289l-61 -289h-97l61 289l-140 429h113l93 -345l239 345h114zM371 783l-79 141h104l42 -141h-67z" />
    <glyph glyph-name="ygrave" unicode="&#x1ef3;" 
d="M246 97l251 426h96l-316 -513q-80 -136 -122 -181q-40 -43 -109 -43q-35 0 -57 8l17 80q23 -9 53 -9t51 21q23 25 65 99l-99 538h99l69 -426h2zM331 593l-79 141h104l42 -141h-67z" />
    <glyph glyph-name="endash" unicode="&#x2013;" 
d="M540 313l-15 -73h-500l15 73h500z" />
    <glyph glyph-name="emdash" unicode="&#x2014;" 
d="M590 313l-15 -73h-600l15 73h600z" />
    <glyph glyph-name="quoteleft" unicode="&#x2018;" 
d="M398 576l-23 -106h-104l21 98q15 70 47.5 107t90.5 50l-10 -47q-56 -8 -75 -102h53z" />
    <glyph glyph-name="quoteright" unicode="&#x2019;" 
d="M302 612l22 106h104l-21 -98q-14 -69 -46.5 -106.5t-90.5 -50.5l10 47q54 8 75 102h-53z" />
    <glyph glyph-name="quotesinglbase" unicode="&#x201a;" 
d="M172 0l22 106h104l-21 -98q-28 -134 -137 -155l10 46q54 6 75 101h-53z" />
    <glyph glyph-name="quotedblleft" unicode="&#x201c;" 
d="M500 576l-23 -106h-104l21 98q15 70 47.5 107t90.5 50l-10 -47q-56 -8 -75 -102h53zM295 576l-23 -106h-104l21 98q15 70 47.5 107t90.5 50l-10 -47q-56 -8 -75 -102h53z" />
    <glyph glyph-name="quotedblright" unicode="&#x201d;" 
d="M404 612l22 106h104l-21 -98q-14 -69 -46.5 -106.5t-90.5 -50.5l10 47q54 8 75 102h-53zM199 612l22 106h104l-21 -98q-14 -69 -46.5 -106.5t-90.5 -50.5l10 47q54 8 75 102h-53z" />
    <glyph glyph-name="quotedblbase" unicode="&#x201e;" 
d="M274 0l22 106h104l-21 -98q-28 -134 -137 -155l10 46q54 6 75 101h-53zM69 0l22 106h104l-21 -98q-28 -134 -137 -155l10 46q54 6 75 101h-53z" />
    <glyph glyph-name="dagger" unicode="&#x2020;" 
d="M362 431l-125 -590h-94l125 590h-189l16 76h189l45 211h94l-45 -211h188l-16 -76h-188z" />
    <glyph glyph-name="daggerdbl" unicode="&#x2021;" 
d="M364 439l-68 -320h188l-16 -76h-188l-43 -202h-94l43 202h-189l16 76h189l68 320h-189l16 76h189l43 203h94l-43 -203h188l-16 -76h-188z" />
    <glyph glyph-name="bullet" unicode="&#x2022;" 
d="M457 359q0 -67 -46 -112t-113 -45q-66 0 -111 45.5t-45 111.5t45 112t111 46t112.5 -46t46.5 -112z" />
    <glyph glyph-name="ellipsis" unicode="&#x2026;" 
d="M501 106l-22 -106h-104l22 106h104zM298 106l-22 -106h-104l22 106h104zM95 106l-22 -106h-104l22 106h104z" />
    <glyph glyph-name="perthousand" unicode="&#x2030;" 
d="M390 709h58l-471 -729h-57zM254 557q-16 -73 -52.5 -109.5t-84.5 -36.5t-69.5 36.5t-5.5 109.5q16 74 52.5 110t84.5 36q47 0 69 -36t6 -110zM169 656q-25 0 -45 -25.5t-30 -73.5q-10 -49 -1 -74t34 -25q24 0 44.5 25.5t30.5 73.5q10 47 0.5 73t-33.5 26zM552 133
q-16 -73 -52.5 -109.5t-84.5 -36.5t-69.5 36.5t-5.5 109.5q16 74 52.5 110t84.5 36q47 0 69 -36t6 -110zM327 133q-16 -73 -52.5 -109.5t-84.5 -36.5t-69.5 36.5t-5.5 109.5q16 74 52.5 110t84.5 36q47 0 69 -36t6 -110zM467 232q-25 0 -45 -25.5t-30 -73.5q-10 -49 -1 -74
t34 -25q24 0 44.5 25.5t30.5 73.5q10 47 0.5 73t-33.5 26zM242 232q-25 0 -45 -25.5t-30 -73.5q-10 -49 -1 -74t34 -25q24 0 44.5 25.5t30.5 73.5q10 47 0.5 73t-33.5 26z" />
    <glyph glyph-name="guilsinglleft" unicode="&#x2039;" 
d="M343 196l-19 -88l-130 123l19 92l183 123l-18 -88l-123 -81z" />
    <glyph glyph-name="guilsinglright" unicode="&#x203a;" 
d="M167 108l19 88l122 81l-87 81l18 88l131 -123l-19 -92z" />
    <glyph glyph-name="fraction" unicode="&#x2044;" 
d="M570 709h58l-606 -729h-58z" />
    <glyph glyph-name="zero.superior" unicode="&#x2070;" 
d="M382 634q-20 -94 -71 -156.5t-134 -62.5q-77 0 -106.5 55.5t-5.5 163.5q22 107 75 163.5t130 56.5t105.5 -57.5t6.5 -162.5zM314 634q33 162 -56 162q-91 0 -124 -162q-35 -160 55 -160t125 160z" />
    <glyph glyph-name="four.superior" unicode="&#x2074;" 
d="M31 521l13 60l264 271h64l-58 -273h66l-13 -58h-66l-19 -94h-64l19 94h-206zM250 579l40 190h-2l-182 -190h144z" />
    <glyph glyph-name="five.superior" unicode="&#x2075;" 
d="M405 852l-14 -63h-194l-37 -99q40 22 86 22q65 0 101 -40t22 -104q-14 -67 -69.5 -110t-125.5 -43q-62 0 -98 33t-32 92h68q-1 -30 18 -48.5t55 -18.5q46 0 75.5 24.5t38.5 64.5q9 42 -12.5 67t-65.5 25q-53 0 -91 -39h-58l86 237h247z" />
    <glyph glyph-name="six.superior" unicode="&#x2076;" 
d="M283 854q52 0 85 -30.5t28 -81.5h-66q-4 55 -63 55q-52 0 -89 -47.5t-50 -107.5l1 -1q51 52 123 52q60 0 94 -36t22 -96q-14 -65 -67.5 -105.5t-119.5 -40.5q-164 0 -119 211q21 98 76.5 162.5t144.5 65.5zM122 556q-8 -37 13 -60t60 -23t67.5 24t36.5 62q7 36 -13 57
t-58 21q-40 0 -69.5 -22t-36.5 -59z" />
    <glyph glyph-name="seven.superior" unicode="&#x2077;" 
d="M103 789l14 63h305l-10 -47q-78 -68 -145 -170q-69 -102 -107 -208h-67q33 98 103 199q69 102 136 163h-229z" />
    <glyph glyph-name="eight.superior" unicode="&#x2078;" 
d="M308 651q72 -31 57 -102q-13 -64 -67 -99t-121 -35t-106 36t-26 98q15 69 99 102q-56 29 -44 88q11 55 60.5 85t109.5 30t96 -30t25 -85q-12 -58 -83 -88zM320 736q6 27 -10.5 43.5t-51.5 16.5q-34 0 -58.5 -16t-30.5 -44q-5 -28 11.5 -45t51.5 -17q34 0 58.5 17.5
t29.5 44.5zM189 473q40 0 69.5 21.5t36.5 53.5t-13 51.5t-62 19.5t-70 -19.5t-35 -51.5t13 -53.5t61 -21.5z" />
    <glyph glyph-name="nine.superior" unicode="&#x2079;" 
d="M197 572q-64 0 -97.5 37t-20.5 100q14 65 65.5 105t118.5 40q167 0 125 -198q-10 -47 -28 -88.5t-44.5 -76.5t-66 -55.5t-85.5 -20.5q-57 0 -89 30.5t-28 83.5h66q0 -56 62 -56q97 0 141 149l-2 2q-46 -52 -117 -52zM221 628q39 0 67.5 22.5t37.5 63.5q8 37 -11 59.5
t-62 22.5q-38 0 -68 -24t-37 -62q-18 -82 73 -82z" />
    <glyph glyph-name="zero.inferior" unicode="&#x2080;" 
d="M382 0q-20 -94 -71 -156.5t-134 -62.5q-77 0 -106.5 55.5t-5.5 163.5q22 107 75 163.5t130 56.5t105.5 -57.5t6.5 -162.5zM314 0q33 162 -56 162q-91 0 -124 -162q-35 -160 55 -160t125 160z" />
    <glyph glyph-name="one.inferior" unicode="&#x2081;" 
d="M55 -207l12 61h113l51 238h-108l10 47q64 2 91 18q30 17 49 61h57l-78 -364h99l-12 -61h-284z" />
    <glyph glyph-name="two.inferior" unicode="&#x2082;" 
d="M351 -146l-12 -61h-319q30 115 133 166l105 53q36 19 52.5 37.5t22.5 45.5q6 31 -11.5 49t-58.5 18q-89 0 -111 -93h-59q16 73 65.5 112t124.5 39q60 0 95.5 -35t23.5 -93q-10 -49 -39.5 -76t-95.5 -61l-65 -30q-62 -29 -95 -71h244z" />
    <glyph glyph-name="three.inferior" unicode="&#x2083;" 
d="M47 -78h67q-16 -82 69 -82q96 0 112 72q8 37 -10 55.5t-69 18.5h-31l10 50h26q82 0 97 68q5 26 -11.5 41.5t-55.5 15.5q-79 0 -98 -80h-61q14 67 61 103t119 36q59 0 93.5 -29.5t23.5 -83.5q-13 -64 -77 -88l-1 -2q71 -21 55 -98q-14 -66 -69 -101.5t-127 -35.5
q-70 0 -103 35t-20 105z" />
    <glyph glyph-name="four.inferior" unicode="&#x2084;" 
d="M31 -113l13 60l264 271h64l-58 -273h66l-13 -58h-66l-19 -94h-64l19 94h-206zM250 -55l40 190h-2l-182 -190h144z" />
    <glyph glyph-name="five.inferior" unicode="&#x2085;" 
d="M405 218l-14 -63h-194l-37 -99q40 22 86 22q65 0 101 -40t22 -104q-14 -67 -69.5 -110t-125.5 -43q-62 0 -98 33t-32 92h68q-1 -30 18 -48.5t55 -18.5q46 0 75.5 24.5t38.5 64.5q9 42 -12.5 67t-65.5 25q-53 0 -91 -39h-58l86 237h247z" />
    <glyph glyph-name="six.inferior" unicode="&#x2086;" 
d="M283 220q52 0 85 -30.5t28 -81.5h-66q-4 55 -63 55q-52 0 -89 -47.5t-50 -107.5l1 -1q51 52 123 52q60 0 94 -36t22 -96q-14 -65 -67.5 -105.5t-119.5 -40.5q-164 0 -119 211q21 98 76.5 162.5t144.5 65.5zM122 -78q-8 -37 13 -60t60 -23t67.5 24t36.5 62q7 36 -13 57
t-58 21q-40 0 -69.5 -22t-36.5 -59z" />
    <glyph glyph-name="seven.inferior" unicode="&#x2087;" 
d="M103 155l14 63h305l-10 -47q-78 -68 -145 -170q-69 -102 -107 -208h-67q33 98 103 199q69 102 136 163h-229z" />
    <glyph glyph-name="eight.inferior" unicode="&#x2088;" 
d="M308 17q72 -31 57 -102q-13 -64 -67 -99t-121 -35t-106 36t-26 98q15 69 99 102q-56 29 -44 88q11 55 60.5 85t109.5 30t96 -30t25 -85q-12 -58 -83 -88zM320 102q6 27 -10.5 43.5t-51.5 16.5q-34 0 -58.5 -16t-30.5 -44q-5 -28 11.5 -45t51.5 -17q34 0 58.5 17.5
t29.5 44.5zM189 -161q40 0 69.5 21.5t36.5 53.5t-13 51.5t-62 19.5t-70 -19.5t-35 -51.5t13 -53.5t61 -21.5z" />
    <glyph glyph-name="nine.inferior" unicode="&#x2089;" 
d="M197 -62q-64 0 -97.5 37t-20.5 100q14 65 65.5 105t118.5 40q167 0 125 -198q-10 -47 -28 -88.5t-44.5 -76.5t-66 -55.5t-85.5 -20.5q-57 0 -89 30.5t-28 83.5h66q0 -56 62 -56q97 0 141 149l-2 2q-46 -52 -117 -52zM221 -6q39 0 67.5 22.5t37.5 63.5q8 37 -11 59.5
t-62 22.5q-38 0 -68 -24t-37 -62q-18 -82 73 -82z" />
    <glyph glyph-name="Euro" unicode="&#x20ac;" 
d="M472 447l-22 -53h-243q-10 -35 -16 -74h230l-22 -53h-216q-11 -97 15.5 -149.5t87.5 -52.5q47 0 85 32.5t62 89.5h84q-28 -90 -97.5 -145.5t-159.5 -55.5q-70 0 -113 42t-55.5 103.5t-3.5 135.5h-62l22 53h49q11 53 17 74h-61l22 53h57q40 115 117 193t182 78
q86 0 126.5 -52.5t29.5 -139.5h-85q6 112 -100 112q-110 0 -178 -191h248z" />
    <glyph glyph-name="afii61289" unicode="&#x2113;" 
d="M427 153l37 -40q-95 -127 -213 -127q-79 0 -109 50t-18 126q-7 -5 -25 -17q-18 -14 -33 -23l-18 55q27 18 38 26q32 22 54 39l54 252q26 122 82 178t121 56q62 0 84 -45.5t7 -115.5q-33 -155 -265 -344l-6 -30q-13 -67 6 -100t59 -33q71 0 145 93zM281 498l-38 -181
q158 146 180 249q19 92 -40 92q-27 0 -55.5 -38.5t-46.5 -121.5z" />
    <glyph glyph-name="trademark" unicode="&#x2122;" 
d="M354 718l63 -304l63 304h105v-412h-69v335h-1l-75 -335h-47l-74 335h-2v-335h-68v412h105zM228 718v-60h-72v-352h-69v352h-72v60h213z" />
    <glyph glyph-name="Omega" unicode="&#x2126;" 
d="M508 86l-18 -86h-242l16 78q161 122 203 314q23 111 -5 185t-99 74q-74 0 -133.5 -73.5t-83.5 -185.5q-43 -196 71 -314l-16 -78h-243l18 86h131l1 4q-100 114 -57 311q31 146 124.5 241t205.5 95q111 0 164 -95t22 -241q-42 -193 -190 -311l-1 -4h132z" />
    <glyph glyph-name="estimated" unicode="&#x212e;" 
d="M564 263h-413v-185q60 -60 148 -60q64 0 111 29t87 94l35 -22q-47 -74 -100 -106t-133 -32q-118 0 -191 81t-73 201q0 122 72.5 202.5t191.5 80.5q118 0 191.5 -79t73.5 -204zM151 300h298v149q-64 61 -151 61q-86 0 -147 -61v-149z" />
    <glyph glyph-name="partialdiff" unicode="&#x2202;" 
d="M141 575l-51 62q29 21 47.5 32t54 22.5t73.5 11.5q149 0 225 -134q47 -84 47 -221q0 -35 -3 -68.5t-11.5 -78t-26.5 -80.5t-44.5 -68.5t-70 -50.5t-99.5 -18t-100 21t-69 56t-37.5 73.5t-12.5 78.5q0 94 59.5 157.5t156.5 63.5q102 0 156 -67q4 247 -164 260
q-40 0 -75 -16t-55 -36zM295 355q-72 0 -104 -43t-32 -104q0 -76 35.5 -111t92.5 -35q76 0 112.5 66.5t34.5 163.5q-21 22 -58.5 42.5t-80.5 20.5z" />
    <glyph glyph-name="Delta" unicode="&#x2206;" 
d="M499 0h-550l383 718h98zM348 588l-249 -502h280l-29 502h-2z" />
    <glyph glyph-name="product" unicode="&#x220f;" 
d="M12 -207v894h577v-894h-97v809h-383v-809h-97z" />
    <glyph glyph-name="summation" unicode="&#x2211;" 
d="M591 -208h-581v77l347 383l-334 359v76h552v-85h-413l320 -345v-4l-339 -375h448v-86z" />
    <glyph glyph-name="minus" unicode="&#x2212;" 
d="M528 289v-73h-506v73h506z" />
    <glyph glyph-name="uni2215" unicode="&#x2215;" 
d="M570 709h58l-606 -729h-58z" />
    <glyph glyph-name="uni2219" unicode="&#x2219;" 
d="M352 326v-106h-104v106h104z" />
    <glyph glyph-name="radical" unicode="&#x221a;" 
d="M76 312l-23 63l138 53l118 -311l167 718h71l-194 -841h-75l-131 344z" />
    <glyph glyph-name="infinity" unicode="&#x221e;" 
d="M129 427q10 0 20.5 -2t18.5 -4t17.5 -7.5t15.5 -8.5t15.5 -11t13.5 -11t13 -13t11 -12t11.5 -13t10.5 -12q23 29 40 46t46.5 33t60.5 16q59 0 105.5 -44t46.5 -127q0 -75 -42.5 -123.5t-110.5 -48.5q-75 0 -146 88q-27 -29 -42.5 -43.5t-44 -29t-57.5 -14.5
q-69 0 -113 47t-44 124q0 80 45.5 125t108.5 45zM420 338q-46 0 -99 -84q49 -79 101 -79q22 0 44 19t22 61q0 40 -21 61.5t-47 21.5zM128 337q-26 0 -46 -22t-20 -60t19 -58.5t50 -20.5q25 0 54 26t45 52q-24 38 -53 60.5t-49 22.5z" />
    <glyph glyph-name="integral" unicode="&#x222b;" 
d="M468 729l-13 -76q-16 6 -34 6q-41 0 -59 -40t-18 -145q0 -66 7 -190t7 -259q0 -134 -45.5 -189t-115.5 -55q-43 0 -66 10l15 78q18 -7 38 -7q78 0 78 175q0 92 -7 226.5t-7 207.5q0 140 41 203t125 63q32 0 54 -8z" />
    <glyph glyph-name="approxequal" unicode="&#x2248;" 
d="M501 424l40 -57q-48 -90 -143 -90q-51 0 -123 33q-8 4 -27 12.5t-26 11.5t-21 8t-26.5 6.5t-27.5 1.5q-63 0 -98 -75l-41 57q50 90 143 90q48 0 123 -33q9 -4 27.5 -12.5t26 -11.5t21 -7.5t26 -6t28.5 -1.5q60 0 98 74zM501 222l40 -57q-48 -90 -143 -90q-51 0 -123 33
q-8 4 -27 12.5t-26 11.5t-21 8t-26.5 6.5t-27.5 1.5q-63 0 -98 -75l-41 57q50 90 143 90q48 0 123 -33q9 -4 27.5 -12.5t26 -11.5t21 -7.5t26 -6t28.5 -1.5q60 0 98 74z" />
    <glyph glyph-name="notequal" unicode="&#x2260;" 
d="M528 115h-254l-35 -132l-66 17l30 115h-181v73h200l34 129h-234v73h253l35 133l67 -18l-31 -115h182v-73h-201l-33 -129h234v-73z" />
    <glyph glyph-name="lessequal" unicode="&#x2264;" 
d="M553 189v-80l-506 207v70l506 207v-80l-408 -162zM553 73v-73h-506v73h506z" />
    <glyph glyph-name="greaterequal" unicode="&#x2265;" 
d="M47 109v80l408 162l-408 162v80l506 -207v-70zM553 73v-73h-506v73h506z" />
    <glyph glyph-name="lozenge" unicode="&#x25ca;" 
d="M301 697l291 -457l-291 -457l-292 457zM510 240l-209 345l-211 -345l211 -345z" />
    <glyph glyph-name="f_i" unicode="&#xf001;" 
d="M413 450h-148l-95 -450h-88l95 450h-142l16 73h142l10 50q34 155 209 155q42 0 60 -2l-17 -79q-34 2 -56 2q-52 0 -76.5 -23t-36.5 -78l-5 -25h148zM569 618h-88l21 100h88zM461 523h88l-111 -523h-88z" />
    <glyph glyph-name="f_l" unicode="&#xf002;" 
d="M413 450h-148l-95 -450h-88l95 450h-142l16 73h142l10 50q34 155 209 155q42 0 60 -2l-17 -79q-34 2 -56 2q-52 0 -76.5 -23t-36.5 -78l-5 -25h148zM502 718h88l-152 -718h-88z" />
    <glyph glyph-name="uniF8FF" unicode="&#xf8ff;" 
d="M44 718h512v-718h-512v718zM93 49h414v618h-414v-618zM315 234h-48v17q0 56 14 80q14 31 46 59q29 29 38.5 46.5t9.5 37.5q0 35 -22.5 59.5t-53.5 24.5q-70 0 -81 -94l-50 8q7 69 43 103.5t92 34.5q55 0 90 -36.5t35 -95.5q0 -34 -13 -60t-51 -60q-36 -32 -44 -52
q-5 -23 -5 -72zM322 117h-56v67h56v-67z" />
    <glyph glyph-name="commaaccent" 
d="M128 -235l7 34q51 11 60 55l2 6h-43l18 87h86l-18 -87q-9 -42 -39 -67.5t-73 -27.5z" />
    <glyph glyph-name="zero.denominator" 
d="M382 208q-20 -94 -71 -156.5t-134 -62.5q-77 0 -106.5 55.5t-5.5 163.5q22 107 75 163.5t130 56.5t105.5 -57.5t6.5 -162.5zM314 208q33 162 -56 162q-91 0 -124 -162q-35 -160 55 -160t125 160z" />
    <glyph glyph-name="one.denominator" 
d="M55 0l12 61h113l51 238h-108l10 47q64 2 91 18q30 17 49 61h57l-78 -364h99l-12 -61h-284z" />
    <glyph glyph-name="two.denominator" 
d="M351 61l-12 -61h-319q30 115 133 166l105 53q36 19 52.5 37.5t22.5 45.5q6 31 -11.5 49t-58.5 18q-89 0 -111 -93h-59q16 73 65.5 112t124.5 39q60 0 95.5 -35t23.5 -93q-10 -49 -39.5 -76t-95.5 -61l-65 -30q-62 -29 -95 -71h244z" />
    <glyph glyph-name="three.denominator" 
d="M47 129h67q-16 -82 69 -82q96 0 112 72q8 37 -10 55.5t-69 18.5h-31l10 50h26q82 0 97 68q5 26 -11.5 41.5t-55.5 15.5q-79 0 -98 -80h-61q14 67 61 103t119 36q59 0 93.5 -29.5t23.5 -83.5q-13 -64 -77 -88l-1 -2q71 -21 55 -98q-14 -66 -69 -101.5t-127 -35.5
q-70 0 -103 35t-20 105z" />
    <glyph glyph-name="four.denominator" 
d="M31 94l13 60l264 271h64l-58 -273h66l-13 -58h-66l-19 -94h-64l19 94h-206zM250 152l40 190h-2l-182 -190h144z" />
    <glyph glyph-name="five.denominator" 
d="M405 426l-14 -63h-194l-37 -99q40 22 86 22q65 0 101 -40t22 -104q-14 -67 -69.5 -110t-125.5 -43q-62 0 -98 33t-32 92h68q-1 -30 18 -48.5t55 -18.5q46 0 75.5 24.5t38.5 64.5q9 42 -12.5 67t-65.5 25q-53 0 -91 -39h-58l86 237h247z" />
    <glyph glyph-name="six.denominator" 
d="M283 428q52 0 85 -30.5t28 -81.5h-66q-4 55 -63 55q-52 0 -89 -47.5t-50 -107.5l1 -1q51 52 123 52q60 0 94 -36t22 -96q-14 -65 -67.5 -105.5t-119.5 -40.5q-164 0 -119 211q21 98 76.5 162.5t144.5 65.5zM122 130q-8 -37 13 -60t60 -23t67.5 24t36.5 62q7 36 -13 57
t-58 21q-40 0 -69.5 -22t-36.5 -59z" />
    <glyph glyph-name="seven.denominator" 
d="M103 362l14 63h305l-10 -47q-78 -68 -145 -170q-69 -102 -107 -208h-67q33 98 103 199q69 102 136 163h-229z" />
    <glyph glyph-name="eight.denominator" 
d="M308 225q72 -31 57 -102q-13 -64 -67 -99t-121 -35t-106 36t-26 98q15 69 99 102q-56 29 -44 88q11 55 60.5 85t109.5 30t96 -30t25 -85q-12 -58 -83 -88zM320 310q6 27 -10.5 43.5t-51.5 16.5q-34 0 -58.5 -16t-30.5 -44q-5 -28 11.5 -45t51.5 -17q34 0 58.5 17.5
t29.5 44.5zM189 47q40 0 69.5 21.5t36.5 53.5t-13 51.5t-62 19.5t-70 -19.5t-35 -51.5t13 -53.5t61 -21.5z" />
    <glyph glyph-name="nine.denominator" 
d="M197 146q-64 0 -97.5 37t-20.5 100q14 65 65.5 105t118.5 40q167 0 125 -198q-10 -47 -28 -88.5t-44.5 -76.5t-66 -55.5t-85.5 -20.5q-57 0 -89 30.5t-28 83.5h66q0 -56 62 -56q97 0 141 149l-2 2q-46 -52 -117 -52zM221 202q39 0 67.5 22.5t37.5 63.5q8 37 -11 59.5
t-62 22.5q-38 0 -68 -24t-37 -62q-18 -82 73 -82z" />
    <glyph glyph-name="zero.numerator" 
d="M382 479q-20 -94 -71 -156.5t-134 -62.5q-77 0 -106.5 55.5t-5.5 163.5q22 107 75 163.5t130 56.5t105.5 -57.5t6.5 -162.5zM314 479q33 162 -56 162q-91 0 -124 -162q-35 -160 55 -160t125 160z" />
    <glyph glyph-name="one.numerator" 
d="M55 270l12 61h113l51 238h-108l10 47q64 2 91 18q30 17 49 61h57l-78 -364h99l-12 -61h-284z" />
    <glyph glyph-name="two.numerator" 
d="M351 331l-12 -61h-319q30 115 133 166l105 53q36 19 52.5 37.5t22.5 45.5q6 31 -11.5 49t-58.5 18q-89 0 -111 -93h-59q16 73 65.5 112t124.5 39q60 0 95.5 -35t23.5 -93q-10 -49 -39.5 -76t-95.5 -61l-65 -30q-62 -29 -95 -71h244z" />
    <glyph glyph-name="three.numerator" 
d="M47 397h67q-16 -82 69 -82q96 0 112 72q8 37 -10 55.5t-69 18.5h-31l10 50h26q82 0 97 68q5 26 -11.5 41.5t-55.5 15.5q-79 0 -98 -80h-61q14 67 61 103t119 36q59 0 93.5 -29.5t23.5 -83.5q-13 -64 -77 -88l-1 -2q71 -21 55 -98q-14 -66 -69 -101.5t-127 -35.5
q-70 0 -103 35t-20 105z" />
    <glyph glyph-name="four.numerator" 
d="M31 364l13 60l264 271h64l-58 -273h66l-13 -58h-66l-19 -94h-64l19 94h-206zM250 422l40 190h-2l-182 -190h144z" />
    <glyph glyph-name="five.numerator" 
d="M405 695l-14 -63h-194l-37 -99q40 22 86 22q65 0 101 -40t22 -104q-14 -67 -69.5 -110t-125.5 -43q-62 0 -98 33t-32 92h68q-1 -30 18 -48.5t55 -18.5q46 0 75.5 24.5t38.5 64.5q9 42 -12.5 67t-65.5 25q-53 0 -91 -39h-58l86 237h247z" />
    <glyph glyph-name="six.numerator" 
d="M283 697q52 0 85 -30.5t28 -81.5h-66q-4 55 -63 55q-52 0 -89 -47.5t-50 -107.5l1 -1q51 52 123 52q60 0 94 -36t22 -96q-14 -65 -67.5 -105.5t-119.5 -40.5q-164 0 -119 211q21 98 76.5 162.5t144.5 65.5zM122 399q-8 -37 13 -60t60 -23t67.5 24t36.5 62q7 36 -13 57
t-58 21q-40 0 -69.5 -22t-36.5 -59z" />
    <glyph glyph-name="seven.numerator" 
d="M103 632l14 63h305l-10 -47q-78 -68 -145 -170q-69 -102 -107 -208h-67q33 98 103 199q69 102 136 163h-229z" />
    <glyph glyph-name="eight.numerator" 
d="M308 494q72 -32 57 -102q-13 -64 -67 -99t-121 -35t-106 36t-26 98q15 69 99 102q-56 29 -44 88q11 55 60.5 85t109.5 30t96 -30t25 -85q-12 -58 -83 -88zM320 579q6 27 -10.5 43.5t-51.5 16.5q-34 0 -58.5 -16t-30.5 -44q-5 -28 11.5 -45t51.5 -17q34 0 58.5 17.5
t29.5 44.5zM189 316q40 0 69.5 21.5t36.5 53.5t-13 51.5t-62 19.5t-70 -19.5t-35 -51.5t13 -53.5t61 -21.5z" />
    <glyph glyph-name="nine.numerator" 
d="M197 414q-64 0 -97.5 37t-20.5 100q14 65 65.5 105t118.5 40q167 0 125 -198q-10 -47 -28 -88.5t-44.5 -76.5t-66 -55.5t-85.5 -20.5q-57 0 -89 30.5t-28 83.5h66q0 -56 62 -56q97 0 141 149l-2 2q-46 -52 -117 -52zM221 470q39 0 67.5 22.5t37.5 63.5q8 37 -11 59.5
t-62 22.5q-38 0 -68 -24t-37 -62q-18 -82 73 -82z" />
    <glyph glyph-name="acute.cap" 
d="M548 924l-140 -141h-66l101 141h105z" />
    <glyph glyph-name="breve.cap" 
d="M268 921h49q0 -79 85 -79q86 0 119 79h49q-36 -136 -180 -136q-143 0 -122 136z" />
    <glyph glyph-name="caron.alt" 
d="M291 535l8 35q51 11 60 55l2 6h-43l18 87h86l-18 -87q-9 -43 -39 -68.5t-74 -27.5z" />
    <glyph glyph-name="caron.cap" 
d="M353 924l46 -93l86 93h80l-129 -141h-93l-69 141h79z" />
    <glyph glyph-name="circumflex.cap" 
d="M409 876l-86 -93h-79l129 141h93l69 -141h-80z" />
    <glyph glyph-name="commaaccent.alt" 
d="M433 769l-7 -35q-52 -9 -61 -56l-1 -5h43l-19 -87h-86l19 87q9 43 39 69t73 27z" />
    <glyph glyph-name="dieresis.cap" 
d="M543 908l-22 -102h-90l22 102h90zM381 908l-22 -102h-90l22 102h90z" />
    <glyph glyph-name="dotaccent.cap" 
d="M439 808h-88l22 100h88z" />
    <glyph glyph-name="grave.cap" 
d="M371 783l-79 141h104l42 -141h-67z" />
    <glyph glyph-name="hungarumlaut.cap" 
d="M465 783h-48l82 141h90zM329 783h-49l83 141h90z" />
    <glyph glyph-name="macron.cap" 
d="M565 869l-12 -57h-314l12 57h314z" />
    <glyph glyph-name="ring.cap" 
d="M425 946q40 0 60 -26.5t12 -65.5t-40 -65.5t-72 -26.5t-60 26t-12 66q8 38 40 65t72 27zM353 854q-5 -22 7 -37t34 -15q21 0 40 15t23 37t-8 37t-33 15q-22 0 -40.5 -15t-22.5 -37z" />
    <glyph glyph-name="tilde.cap" 
d="M538 912h49q-16 -51 -49.5 -80t-73.5 -29q-28 0 -76 18.5t-62 18.5q-36 0 -56 -44h-48q38 107 126 107q30 0 70 -18.5t62 -18.5q42 0 58 46z" />
  </font>
</defs>
</svg>
