<?xml version="1.0" standalone="no"?>
<!DOCTYPE svg PUBLIC "-//W3C//DTD SVG 1.1//EN" "http://www.w3.org/Graphics/SVG/1.1/DTD/svg11.dtd" >
<svg xmlns="http://www.w3.org/2000/svg" xmlns:xlink="http://www.w3.org/1999/xlink" version="1.1">
<metadata>
Created by FontForge 20170731 at Thu Oct 11 09:41:25 2018
 By Aleksey,,,
Copyright 2018 The Inter UI project authors
</metadata>
<defs>
<font id="InterUI-Regular" horiz-adv-x="0" >
  <font-face 
    font-family="Inter UI"
    font-weight="400"
    font-stretch="normal"
    units-per-em="2816"
    panose-1="2 11 5 2 3 0 0 0 0 4"
    ascent="2252"
    descent="-564"
    x-height="1536"
    cap-height="2048"
    bbox="-2080 -1076 4524 3012"
    underline-thickness="170"
    underline-position="-677"
    unicode-range="U+0020-1F16B"
  />
<missing-glyph horiz-adv-x="2800" 
d="M248 -640v512h2304v-512h-2304zM248 1472v512h2304v-512h-2304zM248 2176v512h2304v-512h-2304zM248 64v512h2304v-512h-2304zM248 768v512h2304v-512h-2304z" />
    <glyph glyph-name=".notdef" horiz-adv-x="2800" 
d="M248 -640v512h2304v-512h-2304zM248 1472v512h2304v-512h-2304zM248 2176v512h2304v-512h-2304zM248 64v512h2304v-512h-2304zM248 768v512h2304v-512h-2304z" />
    <glyph glyph-name=".null" 
 />
    <glyph glyph-name="nonmarkingreturn" horiz-adv-x="938" 
 />
    <glyph glyph-name="uni0020" unicode=" " horiz-adv-x="792" 
 />
    <glyph glyph-name="uni0021" unicode="!" horiz-adv-x="784" 
d="M528 2048l-20 -1472h-232l-20 1472h272zM392 -32q-81 0 -136.5 55.5t-55.5 136.5t55.5 136.5t136.5 55.5t136.5 -55.5t55.5 -136.5t-55.5 -136.5t-136.5 -55.5z" />
    <glyph glyph-name="uni0022" unicode="&#x22;" horiz-adv-x="1264" 
d="M452 2048v-704h-220v704h220zM964 2048v-704h-220v704h220z" />
    <glyph glyph-name="uni0023" unicode="#" horiz-adv-x="1808" 
d="M360 0l272 2048h204l-272 -2048h-204zM984 0l272 2048h204l-276 -2048h-200zM1652 1280h-1428l28 208h1428zM1560 568h-1428l28 200h1428z" />
    <glyph glyph-name="uni0024" unicode="$" horiz-adv-x="1796" 
d="M840 -256v2560h128v-2560h-128zM1368 1536q-18 152 -146 236t-314 84q-204 0 -328 -96.5t-124 -243.5q0 -110 67.5 -177.5t160 -105t168.5 -57.5l208 -56q80 -21 178.5 -58t189 -100.5t149.5 -162.5t59 -243q0 -166 -86.5 -300t-252 -213t-401.5 -79q-220 0 -380.5 71
t-252 198t-103.5 295h256q10 -116 78.5 -191.5t174 -112t227.5 -36.5q142 0 255 46.5t179 130t66 195.5q0 102 -57 166t-150 104t-201 70l-252 72q-240 69 -380 197t-140 335q0 172 93.5 300.5t252 200t354.5 71.5q198 0 352 -70.5t244.5 -192.5t95.5 -277h-240z" />
    <glyph glyph-name="uni0025" unicode="%" horiz-adv-x="2288" 
d="M1256 384v108q0 112 46.5 205.5t136 150t217.5 56.5q130 0 218 -56.5t133 -150t45 -205.5v-108q0 -112 -45.5 -205.5t-134 -150t-216.5 -56.5q-130 0 -219 56.5t-135 150t-46 205.5zM1460 492v-108q0 -93 44 -166.5t152 -73.5q105 0 148.5 73.5t43.5 166.5v108
q0 93 -42 166.5t-150 73.5q-105 0 -150.5 -73.5t-45.5 -166.5zM236 1556v108q0 112 46.5 205.5t136 150t217.5 56.5q130 0 218 -56.5t133 -150t45 -205.5v-108q0 -112 -45.5 -205.5t-134 -150t-216.5 -56.5q-130 0 -219 56.5t-135 150t-46 205.5zM440 1664v-108
q0 -93 44 -166.5t152 -73.5q105 0 148.5 73.5t43.5 166.5v108q0 93 -42 166.5t-150 73.5q-105 0 -150.5 -73.5t-45.5 -166.5zM312 0l1408 2048h228l-1408 -2048h-228z" />
    <glyph glyph-name="uni0026" unicode="&#x26;" horiz-adv-x="1800" 
d="M572 1128l296 220q87 57 139.5 122t52.5 170q0 78 -68.5 151t-179.5 73q-78 0 -137.5 -39.5t-93 -100t-33.5 -124.5q0 -108 84.5 -220t183.5 -232l940 -1148h-284l-776 936q-108 130 -196 236t-140 209t-52 223q0 138 61.5 242.5t173 163t261.5 58.5q154 0 265 -59.5
t171 -157t60 -211.5q0 -147 -73 -255t-199 -201l-408 -304q-138 -102 -187 -198t-49 -138q0 -96 50 -179t141 -134t213 -51q116 0 226 49.5t199.5 143.5t142 226t52.5 297h228q0 -204 -47 -333t-106 -202.5t-95 -108.5l-44 -60q-99 -111 -250 -165.5t-298 -54.5
q-202 0 -348 74t-225 203t-79 295q0 128 54.5 227.5t151 185t222.5 171.5z" />
    <glyph glyph-name="uni0027" unicode="'" horiz-adv-x="624" 
d="M420 2048v-704h-220v704h220z" />
    <glyph glyph-name="uni0028" unicode="(" horiz-adv-x="1020" 
d="M300 864q0 378 98.5 695.5t281.5 584.5h208q-96 -132 -174 -342t-124 -455t-46 -483t46 -483t124 -455t174 -342h-208q-183 267 -281.5 584.5t-98.5 695.5z" />
    <glyph glyph-name="uni0029" unicode=")" horiz-adv-x="1020" 
d="M720 864q0 -378 -98.5 -695.5t-281.5 -584.5h-208q96 132 174 342t124 455t46 483t-46 483t-124 455t-174 342h208q183 -267 281.5 -584.5t98.5 -695.5z" />
    <glyph glyph-name="uni002A" unicode="*" horiz-adv-x="1408" 
d="M608 896l16 440l-372 -236l-96 168l392 204l-392 204l96 168l372 -236l-16 440h192l-16 -440l372 236l96 -168l-392 -204l392 -204l-96 -168l-372 236l16 -440h-192z" />
    <glyph glyph-name="uni002B" unicode="+" horiz-adv-x="1808" 
d="M1544 1008v-224h-1280v224h1280zM1016 1536v-1280h-224v1280h224z" />
    <glyph glyph-name="uni002C" unicode="," horiz-adv-x="788" 
d="M568 280l-16 -108q-17 -114 -51.5 -244t-71.5 -245t-61 -183h-180q13 64 34 169t42.5 234.5t35.5 264.5l12 112h256z" />
    <glyph glyph-name="uni002D" unicode="-" horiz-adv-x="1296" 
d="M1096 988v-220h-896v220h896z" />
    <glyph glyph-name="uni002E" unicode="." horiz-adv-x="776" 
d="M388 -16q-75 0 -127.5 52.5t-52.5 127.5t54 125.5t126 50.5q75 0 127.5 -52t52.5 -124q0 -75 -52.5 -127.5t-127.5 -52.5z" />
    <glyph glyph-name="uni002F" unicode="/" horiz-adv-x="1004" 
d="M940 2144l-660 -2452h-216l660 2452h216z" />
    <glyph glyph-name="uni0030" unicode="0" horiz-adv-x="1776" 
d="M888 -28q-216 0 -374 128t-244 364t-86 560q0 322 86 558t244 365t374 129t374 -129t244 -365t86 -558q0 -324 -86 -560t-244 -364t-374 -128zM888 192q139 0 242.5 101.5t160.5 288t57 442.5t-56.5 443.5t-160 290t-243.5 102.5t-243.5 -102.5t-160 -290t-56.5 -443.5
t57 -442.5t160.5 -288t242.5 -101.5z" />
    <glyph glyph-name="uni0031" unicode="1" horiz-adv-x="1232" 
d="M856 2048v-2048h-236v1688h-16q-15 -28 -72.5 -63.5t-149.5 -62t-210 -26.5v208q119 0 206 43t145.5 101t89 105t35.5 55h208z" />
    <glyph glyph-name="uni0032" unicode="2" horiz-adv-x="1704" 
d="M212 0v180l676 740q119 130 196 226.5t114.5 182t37.5 179.5q0 162 -112.5 257t-279.5 95q-178 0 -283 -106.5t-105 -281.5h-236q0 180 83 316t226 212t323 76t319 -76t218 -205t79 -287q0 -113 -40.5 -220.5t-140 -239t-275.5 -320.5l-460 -492v-16h952v-220h-1292z" />
    <glyph glyph-name="uni0033" unicode="3" horiz-adv-x="1792" 
d="M904 -28q-198 0 -352.5 68t-245 189.5t-98.5 282.5h252q11 -148 136.5 -234t303.5 -86q197 0 324.5 100.5t127.5 263.5q0 170 -125.5 277t-358.5 107h-164v220h164q182 0 297 97t115 259q0 155 -101 249.5t-271 94.5q-106 0 -199.5 -38.5t-152.5 -111t-64 -174.5h-240
q6 161 97 282.5t238.5 189.5t324.5 68q190 0 326 -76.5t209 -201.5t73 -270q0 -173 -90.5 -295t-245.5 -169v-16q194 -32 303 -164.5t109 -327.5q0 -167 -90.5 -299.5t-246.5 -208.5t-355 -76z" />
    <glyph glyph-name="uni0034" unicode="4" horiz-adv-x="1808" 
d="M164 420v204l900 1424h148v-316h-100l-680 -1076v-16h1212v-220h-1480zM1128 0v482v95v1471h236v-2048h-236z" />
    <glyph glyph-name="uni0035" unicode="5" horiz-adv-x="1712" 
d="M852 -28q-176 0 -317 70t-226 192t-93 278h240q14 -139 126.5 -229.5t269.5 -90.5q126 0 224.5 59t155 162t56.5 235q0 134 -58.5 239.5t-160.5 166.5t-233 62q-94 1 -193 -28.5t-163 -75.5l-232 28l124 1008h1064v-220h-856l-72 -604h12q63 50 158 83t198 33
q188 0 335.5 -89.5t232 -245t84.5 -353.5q0 -196 -87.5 -349.5t-240.5 -242t-348 -88.5z" />
    <glyph glyph-name="uni0036" unicode="6" horiz-adv-x="1756" 
d="M892 -28q-126 2 -252 48t-230 155.5t-167 297t-63 471.5q0 364 90 617.5t256.5 386t397.5 132.5q172 0 306.5 -69t219.5 -191.5t110 -283.5h-244q-34 141 -132 232.5t-260 91.5q-238 0 -374.5 -207.5t-137.5 -584.5h16q84 127 215 199.5t289 72.5q176 0 322 -87.5
t234 -241t88 -351.5q0 -190 -85 -347.5t-238.5 -250t-360.5 -90.5zM892 192q126 0 226.5 63t159 169t58.5 236q0 127 -56.5 231.5t-155 166.5t-224.5 62q-127 0 -229 -65t-162 -170.5t-61 -228.5t57 -228.5t158 -170.5t229 -65z" />
    <glyph glyph-name="uni0037" unicode="7" horiz-adv-x="1608" 
d="M276 0l916 1812v16h-1056v220h1312v-232l-912 -1816h-260z" />
    <glyph glyph-name="uni0038" unicode="8" horiz-adv-x="1736" 
d="M868 -28q-207 0 -364 73.5t-245 203t-87 295.5q-1 129 51 240t142.5 185.5t202.5 94.5v12q-147 38 -234 165.5t-86 290.5q-1 156 79 279t220.5 194t320.5 71q178 0 318 -71t220.5 -194t81.5 -279q-1 -163 -88.5 -290.5t-231.5 -165.5v-12q110 -20 199.5 -94.5
t142.5 -185.5t54 -240q-1 -166 -89.5 -295.5t-245 -203t-361.5 -73.5zM868 192q208 0 329.5 99.5t122.5 264.5q-1 116 -60 205t-161 140t-231 51q-132 0 -234 -51t-160.5 -140t-57.5 -205q-1 -165 120 -264.5t332 -99.5zM868 1164q165 0 272 96.5t108 255.5
q-1 156 -105.5 250t-274.5 94q-172 0 -276.5 -94t-103.5 -250q-1 -159 105.5 -255.5t274.5 -96.5z" />
    <glyph glyph-name="uni0039" unicode="9" horiz-adv-x="1756" 
d="M864 2080q126 -1 252 -48t230 -156t167 -296.5t63 -471.5q0 -364 -90 -617.5t-257 -386t-397 -132.5q-172 0 -306.5 68.5t-220 191t-109.5 284.5h244q33 -141 131.5 -232.5t260.5 -91.5q237 0 374.5 207t137.5 585h-16q-84 -126 -214.5 -199t-289.5 -73
q-176 0 -322.5 87.5t-234 241t-87.5 351.5q0 190 84.5 347t238 250t361.5 91zM864 1860q-126 0 -226.5 -63t-159 -169t-58.5 -236q0 -128 56.5 -232.5t155 -166t224.5 -61.5t228.5 65t163 171t60.5 228t-57.5 228t-158 171t-228.5 65z" />
    <glyph glyph-name="uni003A" unicode=":" horiz-adv-x="776" 
d="M388 -16q-75 0 -127.5 52.5t-52.5 127.5t54 125.5t126 50.5q75 0 127.5 -52t52.5 -124q0 -75 -52.5 -127.5t-127.5 -52.5zM388 1124q-75 0 -127.5 52.5t-52.5 127.5t54 125.5t126 50.5q75 0 127.5 -52t52.5 -124q0 -75 -52.5 -127.5t-127.5 -52.5z" />
    <glyph glyph-name="uni003B" unicode=";" horiz-adv-x="788" 
d="M568 280l-16 -108q-17 -114 -51.5 -244t-71.5 -245t-61 -183h-180q13 64 34 169t42.5 234.5t35.5 264.5l12 112h256zM424 1124q-75 0 -127.5 52.5t-52.5 127.5t54 125.5t126 50.5q75 0 127.5 -52t52.5 -124q0 -75 -52.5 -127.5t-127.5 -52.5z" />
    <glyph glyph-name="uni003C" unicode="&#x3c;" horiz-adv-x="1296" 
d="M1088 328l-156 -152l-800 720l800 720l156 -152l-632 -564v-8z" />
    <glyph glyph-name="uni003D" unicode="=" horiz-adv-x="1808" 
d="M328 732h1152v-220h-1152v220zM328 1280h1152v-220h-1152v220z" />
    <glyph glyph-name="uni003E" unicode="&#x3e;" horiz-adv-x="1296" 
d="M348 176l-156 152l632 564v8l-632 564l156 152l800 -720z" />
    <glyph glyph-name="uni003F" unicode="?" horiz-adv-x="1428" 
d="M524 576q0 195 38 311t108.5 186.5t169.5 130.5q88 53 148 139t60 205q0 147 -99.5 233.5t-240.5 86.5q-82 0 -158 -34t-127 -107t-59 -191h-252q8 170 88.5 291t213 185t294.5 64q176 0 306.5 -70t202 -192t71.5 -278q0 -166 -74 -284t-206 -198q-90 -55 -143.5 -116.5
t-77 -147.5t-23.5 -214h-240zM652 -32q-81 0 -136.5 55.5t-55.5 136.5t55.5 136.5t136.5 55.5t136.5 -55.5t55.5 -136.5t-55.5 -136.5t-136.5 -55.5z" />
    <glyph glyph-name="uni0040" unicode="@" horiz-adv-x="2636" 
d="M1288 1180q-114 0 -194.5 -59.5t-123 -158t-42.5 -214.5q0 -128 34 -240.5t111 -182t207 -69.5q201 0 288.5 121.5t87.5 370.5q0 168 -42 262t-124 132t-202 38zM1368 1972q281 0 492.5 -91.5t354 -247t214 -349.5t71.5 -400q0 -145 -14 -294t-59 -273.5t-138.5 -200.5
t-252.5 -76q-70 0 -154 22t-149 73t-77 137h-12q-24 -58 -73.5 -110t-129 -83t-193.5 -27q-130 5 -229 58.5t-165.5 146t-100 215t-33.5 264.5q0 135 40 247t111.5 196t168 134.5t208.5 62.5q100 10 182 -8.5t135 -55t67 -80.5h12v112h212v-904q0 -84 47 -148t137 -64
q153 0 202.5 159t49.5 501q0 134 -36.5 264.5t-110 244.5t-185.5 201t-262.5 136.5t-341.5 49.5q-235 0 -420.5 -72.5t-315 -211t-197 -336t-67.5 -448.5q0 -510 267.5 -787t780.5 -277q110 0 217 21t189 46t118 37l56 -184q-62 -26 -161.5 -52t-212 -43t-214.5 -17
q-408 0 -689 147.5t-426 430t-145 686.5q0 390 147 669.5t423 429t662 149.5z" />
    <glyph glyph-name="uni0041" unicode="A" horiz-adv-x="1904" 
d="M332 0h-260l752 2048h256l752 -2048h-260l-612 1724h-16zM428 800h1048v-220h-1048v220z" />
    <glyph glyph-name="uni0042" unicode="B" horiz-adv-x="1832" 
d="M248 0v2048h716q214 0 353 -73.5t207 -197t68 -273.5q0 -132 -46.5 -218t-122 -136t-163.5 -74v-20q94 -6 189 -66t159 -172t64 -274q0 -154 -70 -277t-221 -195t-393 -72h-740zM496 220h492q243 0 345.5 94.5t102.5 229.5q0 104 -53 192.5t-151 142t-232 53.5h-504v-712
zM496 1148h460q168 0 284 97t116 259q0 135 -94 229.5t-298 94.5h-468v-680z" />
    <glyph glyph-name="uni0043" unicode="C" horiz-adv-x="2048" 
d="M1896 1408h-248q-30 142 -115 239t-205 147t-256 50q-186 0 -336.5 -94t-239 -277t-88.5 -449t88.5 -449t239 -277t336.5 -94q136 0 256 50t205 147t115 239h248q-28 -157 -102 -281t-184 -210.5t-246.5 -131.5t-291.5 -45q-262 0 -466 128t-321 364t-117 560t117 560
t321 364t466 128q206 0 379 -79.5t290 -229t155 -359.5z" />
    <glyph glyph-name="uni0044" unicode="D" horiz-adv-x="2024" 
d="M880 0h-492v220h476q254 0 421 98t249 279t82 431q0 248 -81 427.5t-242 276t-401 96.5h-516v220h532q298 0 510 -122.5t325 -351t113 -546.5q0 -320 -114 -550.5t-332 -354t-530 -123.5zM496 2048v-2048h-248v2048h248z" />
    <glyph glyph-name="uni0045" unicode="E" horiz-adv-x="1684" 
d="M248 0v2048h1236v-220h-988v-692h924v-220h-924v-696h1004v-220h-1252z" />
    <glyph glyph-name="uni0046" unicode="F" horiz-adv-x="1652" 
d="M248 0v2048h1228v-220h-980v-692h888v-220h-888v-916h-248z" />
    <glyph glyph-name="uni0047" unicode="G" horiz-adv-x="2092" 
d="M168 1024q0 324 114.5 560t317 364t464.5 128q216 0 392 -84.5t293 -235t155 -348.5h-256q-65 202 -213.5 319t-370.5 117q-182 0 -331 -94t-237 -277t-88 -449t89 -449t241 -277t342 -94q174 0 308.5 75.5t211 211t76.5 313.5v72l76 -72h-616v220h780v-220
q0 -253 -107.5 -440t-296 -289.5t-432.5 -102.5q-272 0 -477.5 128t-320 364t-114.5 560z" />
    <glyph glyph-name="uni0048" unicode="H" horiz-adv-x="2084" 
d="M248 0v2048h248v-912h1092v912h248v-2048h-248v916h-1092v-916h-248z" />
    <glyph glyph-name="uni0049" unicode="I" horiz-adv-x="744" 
d="M496 2048v-2048h-248v2048h248z" />
    <glyph glyph-name="uni004A" unicode="J" horiz-adv-x="1528" 
d="M1032 584v1464h248v-1464q0 -196 -72 -333t-203 -208t-309 -71q-168 0 -299 61.5t-206 175.5t-75 271h244q0 -130 95 -209t241 -79q161 0 248.5 100.5t87.5 291.5z" />
    <glyph glyph-name="uni004B" unicode="K" horiz-adv-x="1836" 
d="M248 0v2048h248v-1016h24l920 1016h324l-860 -924l860 -1124h-300l-712 952l-256 -288v-664h-248z" />
    <glyph glyph-name="uni004C" unicode="L" horiz-adv-x="1584" 
d="M248 0v2048h248v-1828h952v-220h-1200z" />
    <glyph glyph-name="uni004D" unicode="M" horiz-adv-x="2504" 
d="M248 2048h296l696 -1700h24l696 1700h296v-2048h-232v1556h-20l-640 -1556h-224l-640 1556h-20v-1556h-232v2048z" />
    <glyph glyph-name="uni004E" unicode="N" horiz-adv-x="2120" 
d="M1872 2048v-2048h-240l-1116 1608h-20v-1608h-248v2048h240l1120 -1612h20v1612h244z" />
    <glyph glyph-name="uni004F" unicode="O" horiz-adv-x="2144" 
d="M1976 1024q0 -324 -117 -560t-321 -364t-466 -128t-466 128t-321 364t-117 560t117 560t321 364t466 128t466 -128t321 -364t117 -560zM1736 1024q0 266 -88.5 449t-239 277t-336.5 94t-336.5 -94t-239 -277t-88.5 -449t88.5 -449t239 -277t336.5 -94t336.5 94t239 277
t88.5 449z" />
    <glyph glyph-name="uni0050" unicode="P" horiz-adv-x="1788" 
d="M248 0v2048h692q241 0 395 -86.5t228 -233.5t73 -328q1 -181 -73 -329t-227 -235.5t-392 -87.5h-496v220h488q247 0 352 124t104 308q1 185 -104.5 306.5t-355.5 121.5h-436v-1828h-248z" />
    <glyph glyph-name="uni0051" unicode="Q" horiz-adv-x="2144" 
d="M992 640h272l228 -300l60 -80l340 -452h-272l-224 300l-56 76zM1976 1024q0 -324 -117 -560t-321 -364t-466 -128t-466 128t-321 364t-117 560t117 560t321 364t466 128t466 -128t321 -364t117 -560zM1736 1024q0 266 -88.5 449t-239 277t-336.5 94t-336.5 -94t-239 -277
t-88.5 -449t88.5 -449t239 -277t336.5 -94t336.5 94t239 277t88.5 449z" />
    <glyph glyph-name="uni0052" unicode="R" horiz-adv-x="1800" 
d="M248 0v2048h736q206 0 352 -79.5t223 -220t77 -324.5q0 -198 -94.5 -351t-289.5 -225l464 -848h-288l-432 800h-596v224h544q231 0 339.5 106.5t108.5 289.5q0 192 -108 300t-312 108h-476v-1828h-248z" />
    <glyph glyph-name="uni0053" unicode="S" horiz-adv-x="1796" 
d="M1368 1536q-18 152 -146 236t-314 84q-204 0 -328 -96.5t-124 -243.5q0 -110 67.5 -177.5t160 -105t168.5 -57.5l208 -56q80 -21 178.5 -58t189 -100.5t149.5 -162.5t59 -243q0 -166 -86.5 -300t-252 -213t-401.5 -79q-220 0 -380.5 71t-252 198t-103.5 295h256
q10 -116 78.5 -191.5t174 -112t227.5 -36.5q142 0 255 46.5t179 130t66 195.5q0 102 -57 166t-150 104t-201 70l-252 72q-240 69 -380 197t-140 335q0 172 93.5 300.5t252 200t354.5 71.5q198 0 352 -70.5t244.5 -192.5t95.5 -277h-240z" />
    <glyph glyph-name="uni0054" unicode="T" horiz-adv-x="1808" 
d="M136 1828v220h1536v-220h-644v-1828h-248v1828h-644z" />
    <glyph glyph-name="uni0055" unicode="U" horiz-adv-x="2088" 
d="M1592 2048h248v-1356q0 -230 -109 -393t-290 -249t-397 -86t-397 86t-290 249t-109 393v1356h248v-1356q0 -160 76 -270.5t201 -168t271 -57.5t271 57.5t201 168t76 270.5v1356z" />
    <glyph glyph-name="uni0056" unicode="V" horiz-adv-x="1904" 
d="M332 2048l608 -1724h24l608 1724h260l-752 -2048h-256l-752 2048h260z" />
    <glyph glyph-name="uni0057" unicode="W" horiz-adv-x="2672" 
d="M620 0l-560 2048h252l428 -1668h20l436 1668h280l436 -1668h20l428 1668h252l-560 -2048h-256l-452 1632h-16l-452 -1632h-256z" />
    <glyph glyph-name="uni0058" unicode="X" horiz-adv-x="1808" 
d="M368 2048l528 -852h16l528 852h292l-644 -1024l644 -1024h-292l-528 836h-16l-528 -836h-292l660 1024l-660 1024h292z" />
    <glyph glyph-name="uni0059" unicode="Y" horiz-adv-x="1880" 
d="M76 2048h284l568 -956h24l568 956h284l-740 -1204v-844h-248v844z" />
    <glyph glyph-name="uni005A" unicode="Z" horiz-adv-x="1760" 
d="M180 0v180l1104 1648h-1116v220h1412v-180l-1104 -1648h1116v-220h-1412z" />
    <glyph glyph-name="uni005B" unicode="[" horiz-adv-x="1020" 
d="M332 -416v2560h592v-196h-368v-2168h368v-196h-592z" />
    <glyph glyph-name="uni005C" unicode="\" horiz-adv-x="1008" 
d="M88 2048h232l596 -2356h-232z" />
    <glyph glyph-name="uni005D" unicode="]" horiz-adv-x="1020" 
d="M688 2144v-2560h-592v196h368v2168h-368v196h592z" />
    <glyph glyph-name="uni005E" unicode="^" horiz-adv-x="1264" 
d="M648 1688l-264 -684h-256l412 1000h164zM884 1004l-268 684l-56 316h168l408 -1000h-252z" />
    <glyph glyph-name="uni005F" unicode="_" horiz-adv-x="1272" 
d="M1276 0v-220h-1280v220h1280z" />
    <glyph glyph-name="uni0060" unicode="`" horiz-adv-x="752" 
d="M388 2112l268 -408h-236l-364 408h332z" />
    <glyph glyph-name="uni0061" unicode="a" horiz-adv-x="1588" 
d="M668 -36q-146 0 -265 55.5t-189 161t-70 255.5q0 132 52 214.5t139 129.5t192.5 70.5t212.5 37.5q140 18 227.5 29t128 34.5t40.5 80.5q0 149 -80 232.5t-244 83.5q-169 0 -265 -74t-135 -158l-224 80q60 140 160.5 218.5t220 110t235.5 31.5q74 0 170.5 -17.5t187 -71.5
t150.5 -163t60 -292v-1012h-236v208h-12q-24 -50 -80 -107t-149 -97t-227 -40zM704 176q140 0 236.5 55t146 142t49.5 183v216q-15 -18 -65.5 -32.5t-116 -25t-127 -18t-99.5 -12.5q-92 -12 -171.5 -38.5t-128 -79t-48.5 -142.5q0 -123 91.5 -185.5t232.5 -62.5z" />
    <glyph glyph-name="uni0062" unicode="b" horiz-adv-x="1716" 
d="M216 0v2048h236v-756h20q26 40 72.5 102.5t134 112t237.5 49.5q194 0 342 -97t231 -275t83 -420q0 -244 -83 -422.5t-230 -276t-339 -97.5q-148 0 -237 49.5t-137 113t-74 105.5h-28v-236h-228zM448 768q0 -261 113.5 -424.5t326.5 -163.5q148 0 247.5 78.5t150 212
t50.5 297.5q0 162 -49.5 292.5t-149 207t-249.5 76.5q-216 0 -328 -159t-112 -417z" />
    <glyph glyph-name="uni0063" unicode="c" horiz-adv-x="1572" 
d="M840 -32q-216 0 -372 102t-240 281t-84 409q0 234 86.5 413.5t242 281t363.5 101.5q162 0 292 -60t213 -168t103 -252h-236q-27 105 -119.5 186.5t-248.5 81.5q-207 0 -333.5 -157.5t-126.5 -418.5q0 -267 125 -427.5t335 -160.5q138 0 236.5 71t131.5 197h236
q-20 -136 -98.5 -244.5t-207 -172t-298.5 -63.5z" />
    <glyph glyph-name="uni0064" unicode="d" horiz-adv-x="1716" 
d="M1500 0h-228v236h-28q-26 -42 -74 -105.5t-137 -113t-237 -49.5q-192 0 -339 97.5t-230 276t-83 422.5q0 242 83 420t231 275t342 97q150 0 237.5 -49.5t134 -112t72.5 -102.5h20v756h236v-2048zM1268 768q0 258 -112 417t-328 159q-150 0 -249.5 -76.5t-149 -207
t-49.5 -292.5q0 -164 50.5 -297.5t150 -212t247.5 -78.5q213 0 326.5 163.5t113.5 424.5z" />
    <glyph glyph-name="uni0065" unicode="e" horiz-adv-x="1640" 
d="M860 -32q-222 0 -382.5 98.5t-247 276t-86.5 413.5t86.5 416.5t242 282t363.5 101.5q120 0 237 -40t213 -129.5t153 -236.5t57 -362v-100h-1184v204h944q0 195 -114 323.5t-306 128.5q-141 0 -243.5 -69.5t-157.5 -181t-55 -237.5v-136q0 -262 133 -401t347 -139
q139 0 239 60t145 180l228 -64q-54 -174 -216 -281t-396 -107z" />
    <glyph glyph-name="uni0066" unicode="f" horiz-adv-x="1016" 
d="M900 1536v-200h-828v200h828zM320 0v1748q0 132 62 220t161 132t209 44q87 0 142 -14t82 -26l-68 -204q-18 6 -49.5 15t-82.5 9q-117 0 -168.5 -59t-51.5 -173v-1692h-236z" />
    <glyph glyph-name="uni0067" unicode="g" horiz-adv-x="1716" 
d="M828 -576q-246 0 -397 92.5t-223 215.5l188 132q30 -38 80.5 -92t135 -95t216.5 -41q118 0 218 40.5t160 124t58 211.5v272h-20q-26 -42 -73.5 -103.5t-136 -109t-238.5 -47.5q-186 0 -333.5 88t-233 256t-85.5 408q0 236 83 411.5t231 272t342 96.5q150 0 238.5 -49.5
t136 -112t73.5 -102.5h24v244h228v-1548q0 -198 -94 -322.5t-247 -183t-331 -58.5zM828 236q213 0 326.5 144.5t113.5 399.5q0 249 -112 406.5t-328 157.5q-150 0 -249.5 -76t-149 -204t-49.5 -284q0 -240 113 -392t335 -152z" />
    <glyph glyph-name="uni0068" unicode="h" horiz-adv-x="1664" 
d="M452 924v-924h-236v2048h236v-752h20q54 119 162.5 189.5t289.5 70.5q157 0 275 -62.5t183.5 -191.5t65.5 -326v-976h-236v960q0 183 -94.5 283.5t-261.5 100.5q-175 0 -289.5 -109.5t-114.5 -310.5z" />
    <glyph glyph-name="uni0069" unicode="i" horiz-adv-x="668" 
d="M216 0v1536h236v-1536h-236zM336 1788q-69 0 -118.5 47t-49.5 113t49.5 113t118.5 47t118.5 -47t49.5 -113t-49.5 -113t-118.5 -47z" />
    <glyph glyph-name="uni006A" unicode="j" horiz-adv-x="668" 
d="M216 1536h236v-1648q0 -142 -48.5 -246t-146 -161t-245.5 -57h-48v220h44q108 0 158 63.5t50 180.5v1648zM332 1788q-69 0 -118.5 47t-49.5 113t49.5 113t118.5 47t118.5 -47t49.5 -113t-49.5 -113t-118.5 -47z" />
    <glyph glyph-name="uni006B" unicode="k" horiz-adv-x="1532" 
d="M436 560l-4 292h48l672 684h292l-716 -724h-20zM216 0v2048h236v-2048h-236zM1192 0l-600 760l168 164l732 -924h-300z" />
    <glyph glyph-name="uni006C" unicode="l" horiz-adv-x="668" 
d="M452 2048v-2048h-236v2048h236z" />
    <glyph glyph-name="uni006D" unicode="m" horiz-adv-x="2448" 
d="M216 0v1536h228v-240h20q48 123 155 191.5t257 68.5q152 0 253.5 -68.5t158.5 -191.5h16q59 119 177 189.5t283 70.5q206 0 337 -128.5t131 -399.5v-1028h-236v1028q0 170 -93 243t-219 73q-162 0 -251 -97.5t-89 -246.5v-1000h-240v1052q0 131 -85 211.5t-219 80.5
q-92 0 -171.5 -49t-128 -135.5t-48.5 -199.5v-960h-236z" />
    <glyph glyph-name="uni006E" unicode="n" horiz-adv-x="1648" 
d="M452 924v-924h-236v1536h228v-240h20q54 117 164 188.5t284 71.5q156 0 273 -63.5t182 -192t65 -324.5v-976h-236v960q0 181 -94 282.5t-258 101.5q-169 0 -280.5 -109.5t-111.5 -310.5z" />
    <glyph glyph-name="uni006F" unicode="o" horiz-adv-x="1680" 
d="M840 -32q-208 0 -364.5 99t-244 277t-87.5 416q0 240 87.5 419t244 278t364.5 99t364.5 -99t244 -278t87.5 -419q0 -238 -87.5 -416t-244 -277t-364.5 -99zM840 180q158 0 260 81t151 213t49 286t-49 287t-151 215t-260 82t-260 -82t-151 -215t-49 -287t49 -286t151 -213
t260 -81z" />
    <glyph glyph-name="uni0070" unicode="p" horiz-adv-x="1716" 
d="M920 -32q-148 0 -237 49.5t-137 113t-74 105.5h-116v1056h116q26 40 72.5 102.5t134 112t237.5 49.5q194 0 342 -97t231 -275t83 -420q0 -244 -83 -422.5t-230 -276t-339 -97.5zM216 -576v2112h228v-288l-72 -496l80 -388v-940h-236zM888 180q148 0 247.5 78.5t150 212
t50.5 297.5q0 162 -49.5 292.5t-149 207t-249.5 76.5q-216 0 -328 -159t-112 -417q0 -261 113.5 -424.5t326.5 -163.5z" />
    <glyph glyph-name="uni0071" unicode="q" horiz-adv-x="1716" 
d="M796 -32q-192 0 -339 97.5t-230 276t-83 422.5q0 242 83 420t231 275t342 97q150 0 237.5 -49.5t134 -112t72.5 -102.5h116v-1056h-116q-26 -42 -74 -105.5t-137 -113t-237 -49.5zM1500 -576h-236v940l80 388l-72 496v288h228v-2112zM828 180q213 0 326.5 163.5
t113.5 424.5q0 258 -112 417t-328 159q-150 0 -249.5 -76.5t-149 -207t-49.5 -292.5q0 -164 50.5 -297.5t150 -212t247.5 -78.5z" />
    <glyph glyph-name="uni0072" unicode="r" horiz-adv-x="1080" 
d="M216 0v1536h228v-232h16q41 114 151 185t249 71q64 0 112 -15t84 -41l-80 -200q-25 13 -58.5 20.5t-77.5 7.5q-168 0 -278 -102.5t-110 -257.5v-972h-236z" />
    <glyph glyph-name="uni0073" unicode="s" horiz-adv-x="1472" 
d="M1304 1192l-212 -60q-31 80 -104 150t-228 70q-141 0 -234.5 -64.5t-93.5 -163.5q0 -88 64 -139t200 -85l228 -56q408 -100 408 -416q0 -133 -75.5 -236.5t-210.5 -163.5t-314 -60q-235 0 -389 102t-195 298l224 56q32 -124 121.5 -186t234.5 -62q165 0 262.5 70.5
t97.5 169.5q0 163 -228 216l-256 60q-211 50 -309.5 155.5t-98.5 264.5q0 130 73.5 230t201 157t289.5 57q228 0 358.5 -100t185.5 -264z" />
    <glyph glyph-name="uni0074" unicode="t" horiz-adv-x="1040" 
d="M884 1536v-200h-796v200h796zM320 1904h236v-1464q0 -100 29.5 -149.5t76 -66t98.5 -16.5q39 0 64 4.5t40 7.5l48 -212q-24 -9 -67 -18.5t-109 -9.5q-100 0 -195.5 43t-158 131t-62.5 222v1528z" />
    <glyph glyph-name="uni0075" unicode="u" horiz-adv-x="1636" 
d="M1184 628v908h236v-1536h-236v260h-16q-54 -117 -168 -198.5t-288 -81.5q-144 0 -256 63.5t-176 192t-64 324.5v976h236v-960q0 -168 94.5 -268t241.5 -100q88 0 179.5 45t154 138t62.5 237z" />
    <glyph glyph-name="uni0076" unicode="v" horiz-adv-x="1568" 
d="M1472 1536l-568 -1536h-240l-568 1536h256l424 -1224h16l424 1224h256z" />
    <glyph glyph-name="uni0077" unicode="w" horiz-adv-x="2288" 
d="M564 0l-468 1536h248l332 -1176h16l328 1176h252l324 -1172h16l332 1172h248l-468 -1536h-232l-336 1180h-24l-336 -1180h-232z" />
    <glyph glyph-name="uni0078" unicode="x" horiz-adv-x="1520" 
d="M392 1536l368 -628l368 628h272l-496 -768l496 -768h-272l-368 596l-368 -596h-272l488 768l-488 768h272z" />
    <glyph glyph-name="uni0079" unicode="y" horiz-adv-x="1568" 
d="M360 -596q-60 0 -107 9.5t-65 18.5l60 208q129 -33 213.5 2t150.5 206l56 140l-572 1548h256l424 -1224h16l424 1224h256l-660 -1784q-44 -118 -108.5 -195t-150 -115t-193.5 -38z" />
    <glyph glyph-name="uni007A" unicode="z" horiz-adv-x="1524" 
d="M172 0v180l872 1120v16h-884v220h1188v-188l-848 -1112v-16h864v-220h-1192z" />
    <glyph glyph-name="uni007B" unicode="{" horiz-adv-x="1020" 
d="M104 860v124q167 0 233.5 70t66.5 234v320q0 138 26.5 239t86.5 167t160 98t247 32v-196q-116 0 -182.5 -36t-94 -111.5t-27.5 -192.5v-400q0 -78 -20.5 -142t-75.5 -110t-156.5 -71t-263.5 -25zM924 -416q-147 0 -247 32t-160 98t-86.5 167t-26.5 239v320
q0 164 -66.5 234t-233.5 70v124q162 0 263.5 -25t156.5 -71t75.5 -110t20.5 -142v-400q0 -117 27.5 -192t94 -111.5t182.5 -36.5v-196zM104 744v240h236v-240h-236z" />
    <glyph glyph-name="uni007C" unicode="|" horiz-adv-x="920" 
d="M560 2708v-3368h-200v3368h200z" />
    <glyph glyph-name="uni007D" unicode="}" horiz-adv-x="1020" 
d="M916 868v-124q-167 0 -233.5 -70t-66.5 -234v-320q0 -138 -26.5 -239t-86.5 -167t-160 -98t-247 -32v196q116 0 182.5 36.5t94 111.5t27.5 192v400q0 78 20.5 142t75.5 110t156.5 71t263.5 25zM96 2144q147 0 247 -32t160 -98t86.5 -167t26.5 -239v-320q0 -164 66.5 -234
t233.5 -70v-124q-162 0 -263.5 25t-156.5 71t-75.5 110t-20.5 142v400q0 117 -27.5 192.5t-94 111.5t-182.5 36v196zM916 984v-240h-236v240h236z" />
    <glyph glyph-name="uni007E" unicode="~" horiz-adv-x="1680" 
d="M1320 1172h220q3 -219 -111.5 -345.5t-288.5 -126.5q-102 0 -192 44.5t-168 131.5q-60 69 -112 100.5t-112 31.5q-81 0 -134 -57t-62 -183h-220q2 146 55.5 251t144 161t204.5 56q93 0 179.5 -41t176.5 -131q66 -66 116 -101t116 -35q78 0 133 56t55 188z" />
    <glyph glyph-name="uni00A0" unicode="&#xa0;" horiz-adv-x="792" 
 />
    <glyph glyph-name="uni00A1" unicode="&#xa1;" horiz-adv-x="784" 
d="M528 -520h-272l20 1472h232zM392 1560q81 0 136.5 -55.5t55.5 -136.5t-55.5 -136.5t-136.5 -55.5t-136.5 55.5t-55.5 136.5t55.5 136.5t136.5 55.5z" />
    <glyph glyph-name="uni00A2" unicode="&#xa2;" horiz-adv-x="1572" 
d="M768 -256v2036h128v-2036h-128zM840 -32q-216 0 -372 102t-240 281t-84 409q0 234 86.5 413.5t242 281t363.5 101.5q162 0 292 -60t213 -168t103 -252h-236q-27 105 -119.5 186.5t-248.5 81.5q-207 0 -333.5 -157.5t-126.5 -418.5q0 -267 125 -427.5t335 -160.5
q138 0 236.5 71t131.5 197h236q-20 -136 -98.5 -244.5t-207 -172t-298.5 -63.5z" />
    <glyph glyph-name="uni00A3" unicode="&#xa3;" horiz-adv-x="1776" 
d="M1540 0h-1356v220h1356v-220zM1108 796h-932v228h932v-228zM612 1428l32 -868q6 -126 -22.5 -232.5t-109.5 -163.5l-248 56q60 0 92 60t43 140t9 140l-28 868q-8 218 79.5 362t230 215t298.5 71q143 0 260 -51.5t197 -138.5t112 -195.5t3 -222.5l-232 64
q14 104 -31.5 176.5t-126 110t-170.5 37.5q-96 0 -185 -45.5t-146 -140t-57 -242.5z" />
    <glyph glyph-name="uni00A4" unicode="&#xa4;" horiz-adv-x="2036" 
d="M416 836q0 -176 80.5 -322.5t216 -234t299.5 -87.5t298.5 87.5t214 234t79.5 322.5q0 178 -79.5 324t-214 233t-298.5 87t-299.5 -87t-216 -233t-80.5 -324zM196 836q0 183 63 339.5t175.5 273.5t260.5 182t317 65q170 0 318.5 -65t261 -182t176.5 -273.5t64 -339.5
t-64 -340t-176.5 -275t-261 -183.5t-318.5 -65.5q-169 0 -317 65.5t-260.5 183.5t-175.5 275t-63 340zM1872 1556l-280 -284l-160 168l276 284zM604 264l-280 -284l-160 168l276 280zM1708 -20l-276 284l160 164l280 -280zM440 1272l-276 284l160 168l280 -284z" />
    <glyph glyph-name="uni00A5" unicode="&#xa5;" horiz-adv-x="1544" 
d="M1344 1020v-180h-1144v180h1144zM1344 624v-180h-1144v180h1144zM704 908l524 1140h276l-608 -1220h-164zM316 2048l524 -1140l-28 -80h-164l-608 1220h276zM896 1076v-1076h-248v1076h248z" />
    <glyph glyph-name="uni00A6" unicode="&#xa6;" horiz-adv-x="748" 
d="M264 552h220v-936h-220v936zM484 2048v-932h-220v932h220z" />
    <glyph glyph-name="uni00A7" unicode="&#xa7;" horiz-adv-x="1552" 
d="M1272 1564h-228q0 129 -65.5 214.5t-206.5 85.5q-90 0 -147.5 -33t-85 -83t-27.5 -100q0 -90 72 -162t144 -114l388 -228q39 -22 89 -59t96 -90.5t76.5 -125.5t30.5 -165q0 -74 -38.5 -148t-102 -131t-139.5 -81v-4q72 -63 106 -145.5t34 -178.5q0 -148 -72 -243.5
t-188 -142t-248 -46.5q-158 0 -281 62.5t-193 178t-70 275.5h232q0 -147 88.5 -225.5t223.5 -78.5q111 0 195.5 54.5t84.5 165.5q0 76 -34 127t-84 86t-98 63l-388 224q-39 23 -89 60t-96 91.5t-76.5 127t-30.5 165.5q0 72 36 147t99 134t145 83v8q-63 63 -101.5 141.5
t-38.5 174.5q0 124 63 220.5t173 152t252 55.5q154 0 266 -65.5t173 -181t61 -265.5zM1188 704q0 87 -58 152.5t-130 107.5l-392 228q-44 26 -101.5 1t-100 -87t-42.5 -146q0 -96 58.5 -157.5t133.5 -106.5l372 -216q42 -24 103.5 0t109 83t47.5 141z" />
    <glyph glyph-name="uni00A8" unicode="&#xa8;" horiz-adv-x="1648" 
d="M540 1788q-63 0 -111.5 48.5t-48.5 111.5q0 69 48.5 114.5t111.5 45.5q69 0 114.5 -45.5t45.5 -114.5q0 -63 -45.5 -111.5t-114.5 -48.5zM1108 1788q-63 0 -111.5 48.5t-48.5 111.5q0 69 48.5 114.5t111.5 45.5q69 0 114.5 -45.5t45.5 -114.5q0 -63 -45.5 -111.5
t-114.5 -48.5z" />
    <glyph glyph-name="uni00A9" unicode="&#xa9;" horiz-adv-x="2288" 
d="M1372 820h216q0 -216 -125 -324t-335 -108q-222 0 -351 147.5t-129 384.5v164q0 237 129 384.5t351 147.5q210 0 335 -108t125 -324h-212q0 132 -64 190t-184 58q-132 0 -200 -97.5t-68 -250.5v-164q0 -153 68 -250.5t200 -97.5q120 0 182 56.5t62 191.5zM336 1004
q0 -183 63 -339.5t174.5 -273.5t258 -182t312.5 -65q168 0 314.5 65t257.5 182t173.5 273.5t62.5 339.5q0 182 -62.5 337.5t-173.5 272t-257.5 181.5t-314.5 65q-166 0 -312.5 -65t-258 -181.5t-174.5 -272t-63 -337.5zM168 1004q0 218 76 404.5t211 327t311.5 218.5
t377.5 78q203 0 379.5 -78t311 -218.5t210 -327t75.5 -404.5q0 -219 -75.5 -407t-210 -328t-311 -218.5t-379.5 -78.5q-201 0 -377.5 78.5t-311.5 218.5t-211 328t-76 407z" />
    <glyph glyph-name="uni00AA" unicode="&#xaa;" horiz-adv-x="1264" 
d="M800 1184v468q0 87 -39.5 131.5t-120.5 44.5q-90 0 -141 -35t-51 -101l-236 20q0 138 116.5 229t311.5 91q180 0 290 -95.5t110 -284.5v-432q0 -66 7.5 -127t28.5 -121h-244q-15 48 -23.5 103t-8.5 109zM860 1584v-160h-200q-120 0 -174 -46t-54 -106q0 -57 38 -88.5
t122 -31.5q56 0 113.5 25t96 61t38.5 70l24 -160q-30 -66 -110.5 -131t-221.5 -65q-165 0 -254.5 85.5t-89.5 226.5q0 153 117.5 236.5t354.5 83.5h200z" />
    <glyph glyph-name="uni00AB" unicode="&#xab;" horiz-adv-x="1264" 
d="M692 220h-208l-404 600v20h228zM692 1448l-384 -620h-228v20l404 600h208zM1204 220h-208l-404 600v20h228zM1204 1448l-384 -620h-228v20l404 600h208z" />
    <glyph glyph-name="uni00AC" unicode="&#xac;" horiz-adv-x="1520" 
d="M1336 1108v-236h-1148v236h1148zM1336 1000v-484h-276v484h276z" />
    <glyph glyph-name="uni00AD" unicode="&#xad;" horiz-adv-x="1296" 
d="M1096 988v-220h-896v220h896z" />
    <glyph glyph-name="uni00AE" unicode="&#xae;" horiz-adv-x="2288" 
d="M1180 900h-296l-4 184h276q84 0 148 41t64 119q0 99 -54 137.5t-186 38.5h-180v-984h-208v1168h388q204 0 324 -87.5t120 -264.5q0 -114 -76.5 -189.5t-223.5 -114.5q6 3 -8 -10t-8 -10q-24 -14 -30 -20t-13 -7t-33 -1zM1164 900l28 128q216 0 296 -91t80 -229v-76
q0 -110 24 -176v-20h-212q-15 33 -17.5 99.5t-2.5 96.5v76q0 96 -44 144t-152 48zM336 1004q0 -183 63 -339.5t174.5 -273.5t258 -182t312.5 -65q168 0 314.5 65t257.5 182t173.5 273.5t62.5 339.5q0 182 -62.5 337.5t-173.5 272t-257.5 181.5t-314.5 65q-166 0 -312.5 -65
t-258 -181.5t-174.5 -272t-63 -337.5zM168 1004q0 218 76 404.5t211 327t311.5 218.5t377.5 78q203 0 379.5 -78t311 -218.5t210 -327t75.5 -404.5q0 -219 -75.5 -407t-210 -328t-311 -218.5t-379.5 -78.5q-201 0 -377.5 78.5t-311.5 218.5t-211 328t-76 407z" />
    <glyph glyph-name="uni00AF" unicode="&#xaf;" horiz-adv-x="1264" 
d="M1104 1984v-200h-940v200h940z" />
    <glyph glyph-name="uni00B0" unicode="&#xb0;" horiz-adv-x="1264" 
d="M632 1076q-126 0 -230.5 62.5t-167 167t-62.5 230.5q0 128 62.5 232.5t167 166t230.5 61.5q128 0 232.5 -61.5t166 -166t61.5 -232.5q0 -126 -61.5 -230.5t-166 -167t-232.5 -62.5zM632 1276q108 0 186 78t78 186t-78 186t-186 78t-186 -78t-78 -186t78 -186t186 -78z
" />
    <glyph glyph-name="uni00B1" unicode="&#xb1;" horiz-adv-x="1808" 
d="M1544 220v-220h-1280v220h1280zM1544 1096v-224h-524v-440h-232v440h-524v224h524v440h232v-440h524z" />
    <glyph glyph-name="uni00B2" unicode="&#xb2;" horiz-adv-x="1156" 
d="M136 1024v152l464 420q96 87 156 156t60 156t-71 137.5t-173 50.5q-108 0 -174 -56t-66 -152h-200q0 171 126 275.5t318 104.5t314 -103.5t122 -256.5q0 -114 -70.5 -217.5t-241.5 -250.5l-268 -232v-8h604v-176h-900z" />
    <glyph glyph-name="uni00B3" unicode="&#xb3;" horiz-adv-x="1156" 
d="M568 1008q-134 0 -234 43.5t-155 121t-55 179.5h216q0 -75 63.5 -121.5t168.5 -46.5t178.5 50t73.5 134q0 87 -79.5 141.5t-196.5 54.5h-88v168h88q111 0 181.5 52t70.5 136q0 81 -65 128.5t-167 47.5q-99 0 -161.5 -45.5t-62.5 -126.5h-204q0 102 55.5 179.5t153 121
t223.5 43.5t223.5 -43.5t153 -120t55.5 -176.5q0 -99 -68 -173t-176 -95v-12q126 -27 203 -105t77 -183q0 -104 -61.5 -183.5t-168 -124t-242.5 -44.5z" />
    <glyph glyph-name="uni00B4" unicode="&#xb4;" horiz-adv-x="1300" 
d="M392 1760l240 456h276l-308 -456h-208z" />
    <glyph glyph-name="uni00B5" unicode="&#xb5;" horiz-adv-x="1752" 
d="M216 -576v2112h236v-908q0 -187 116 -303.5t308 -116.5t308 117t116 303v908h236v-1536h-236v228h-12q-62 -121 -173 -184.5t-239 -63.5t-238.5 63.5t-173.5 184.5h-12v-804h-236z" />
    <glyph glyph-name="uni00B6" unicode="&#xb6;" horiz-adv-x="1688" 
d="M1440 1828h-496v-1068h-116q-218 0 -369 83.5t-229 229t-78 331.5q0 184 78 329.5t229 230t369 84.5h612v-220zM1192 0v2048h248v-2048h-248z" />
    <glyph glyph-name="uni00B7" unicode="&#xb7;" horiz-adv-x="784" 
d="M392 876q-75 0 -127.5 52.5t-52.5 127.5t54 125.5t126 50.5q75 0 127.5 -52t52.5 -124q0 -75 -52.5 -127.5t-127.5 -52.5z" />
    <glyph glyph-name="uni00B8" unicode="&#xb8;" horiz-adv-x="752" 
d="M280 8h196l-16 -80q78 -12 143 -65.5t65 -170.5q0 -129 -106.5 -210.5t-313.5 -81.5l-8 156q93 0 154.5 29.5t61.5 98.5t-51 94t-165 34z" />
    <glyph glyph-name="uni00B9" unicode="&#xb9;" horiz-adv-x="848" 
d="M604 2252v-1228h-196v956h-12q-18 -27 -92.5 -59.5t-191.5 -32.5v172q98 0 164.5 38t102 84t41.5 70h184z" />
    <glyph glyph-name="uni00BA" unicode="&#xba;" horiz-adv-x="1264" 
d="M156 1436v108q0 213 128.5 350.5t347.5 137.5q222 0 349 -137.5t127 -350.5v-108q0 -213 -126.5 -348.5t-345.5 -135.5q-222 0 -351 135.5t-129 348.5zM396 1544v-108q0 -123 60 -203.5t180 -80.5q117 0 174.5 80.5t57.5 203.5v108q0 120 -58 202t-178 82
q-117 0 -176.5 -82t-59.5 -202z" />
    <glyph glyph-name="uni00BB" unicode="&#xbb;" horiz-adv-x="1264" 
d="M4 220l384 620h228v-20l-404 -600h-208zM4 1448h208l404 -600v-20h-228zM516 220l384 620h228v-20l-404 -600h-208zM516 1448h208l404 -600v-20h-228z" />
    <glyph glyph-name="uni00BC" unicode="&#xbc;" horiz-adv-x="2492" 
d="M380 0l1408 2048h228l-1408 -2048h-228zM432 960v796h-16q-46 -41 -127 -86.5t-161 -57.5v200q94 32 160.5 83t104.5 95.5t47 57.5h204v-1088h-212zM1460 232v180l448 676h292v-252h-232l-276 -412v-12h376h27h269v-180h-904zM1984 0v307v36v745h216v-1088h-216z" />
    <glyph glyph-name="uni00BD" unicode="&#xbd;" horiz-adv-x="2636" 
d="M380 0l1408 2048h228l-1408 -2048h-228zM432 960v796h-16q-46 -41 -127 -86.5t-161 -57.5v200q94 32 160.5 83t104.5 95.5t47 57.5h204v-1088h-212zM2508 188v-188h-832v156l396 372q98 92 137.5 146t38.5 98q1 72 -45.5 110t-126.5 38q-98 0 -148.5 -52.5t-51.5 -123.5
h-224q1 147 111 253.5t309 106.5q185 0 291 -94t105 -238q0 -73 -29 -129.5t-89 -117t-150 -145.5l-204 -192h512z" />
    <glyph glyph-name="uni00BE" unicode="&#xbe;" horiz-adv-x="2688" 
d="M576 0l1408 2048h228l-1408 -2048h-228zM1656 232v180l448 676h292v-252h-232l-276 -412v-12h376h27h269v-180h-904zM2180 0v307v36v745h216v-1088h-216zM544 944q-192 0 -304 87t-112 237h228q0 -63 50.5 -101.5t137.5 -38.5q90 0 141 39.5t51 108.5t-56.5 110.5
t-155.5 41.5h-116v168h116q90 0 141 39t51 105t-47.5 105t-128.5 39q-78 0 -125 -34t-47 -94h-228q0 141 106.5 224.5t289.5 83.5q177 0 292.5 -79t115.5 -217q0 -99 -64 -163t-180 -81v-16q126 -16 195 -82t69 -174q0 -141 -114 -224.5t-306 -83.5z" />
    <glyph glyph-name="uni00BF" unicode="&#xbf;" horiz-adv-x="1428" 
d="M904 956q0 -195 -37.5 -310.5t-108.5 -186.5t-170 -131q-88 -53 -148 -139t-60 -205q0 -147 99.5 -233.5t240.5 -86.5q82 0 158 34t127.5 107t58.5 191h252q-7 -170 -88 -291t-213.5 -185t-294.5 -64q-176 0 -306.5 70t-202 192t-71.5 278q0 166 74 284t206 198
q91 55 144 116.5t76.5 147.5t23.5 214h240zM776 1564q81 0 136.5 -55.5t55.5 -136.5t-55.5 -136.5t-136.5 -55.5t-136.5 55.5t-55.5 136.5t55.5 136.5t136.5 55.5z" />
    <glyph glyph-name="uni00C0" unicode="&#xc0;" horiz-adv-x="1904" 
d="M332 0h-260l752 2048h256l752 -2048h-260l-612 1724h-16zM428 800h1048v-220h-1048v220zM840 2640l268 -408h-236l-364 408h332z" />
    <glyph glyph-name="uni00C1" unicode="&#xc1;" horiz-adv-x="1904" 
d="M332 0h-260l752 2048h256l752 -2048h-260l-612 1724h-16zM428 800h1048v-220h-1048v220zM840 2224l240 456h276l-308 -456h-208z" />
    <glyph glyph-name="uni00C2" unicode="&#xc2;" horiz-adv-x="1904" 
d="M332 0h-260l752 2048h256l752 -2048h-260l-612 1724h-16zM428 800h1048v-220h-1048v220zM712 2264h-192v16l364 376h136l368 -376v-16h-192l-244 240z" />
    <glyph glyph-name="uni00C3" unicode="&#xc3;" horiz-adv-x="1904" 
d="M332 0h-260l752 2048h256l752 -2048h-260l-612 1724h-16zM428 800h1048v-220h-1048v220zM644 2252l-184 8q0 102 40 180.5t109 123t155 44.5q76 0 130.5 -32t108 -64t125.5 -32q57 0 96.5 44.5t39.5 107.5l180 -16q0 -104 -40 -180.5t-109 -118t-155 -41.5
q-69 0 -114 19.5t-80 44.5t-74 44.5t-96 19.5t-94.5 -44.5t-37.5 -107.5z" />
    <glyph glyph-name="uni00C4" unicode="&#xc4;" horiz-adv-x="1904" 
d="M332 0h-260l752 2048h256l752 -2048h-260l-612 1724h-16zM428 800h1048v-220h-1048v220zM668 2300q-63 0 -111.5 48.5t-48.5 111.5q0 69 48.5 114.5t111.5 45.5q69 0 114.5 -45.5t45.5 -114.5q0 -63 -45.5 -111.5t-114.5 -48.5zM1236 2300q-63 0 -111.5 48.5t-48.5 111.5
q0 69 48.5 114.5t111.5 45.5q69 0 114.5 -45.5t45.5 -114.5q0 -63 -45.5 -111.5t-114.5 -48.5z" />
    <glyph glyph-name="uni00C5" unicode="&#xc5;" horiz-adv-x="1904" 
d="M332 0h-260l752 2048h256l752 -2048h-260l-612 1724h-16zM428 800h1048v-220h-1048v220zM588 2576q0 96 48.5 176t131 128t184.5 48t183.5 -48t129 -128t47.5 -176q0 -144 -103.5 -242t-256.5 -98q-102 0 -184.5 45t-131 122t-48.5 173zM760 2576q0 -72 54 -130t138 -58
t138 58t54 130q0 75 -54 135.5t-138 60.5t-138 -60.5t-54 -135.5z" />
    <glyph glyph-name="uni00C6" unicode="&#xc6;" horiz-adv-x="2788" 
d="M72 0l992 2048h1524v-220h-988v-692h924v-220h-924v-696h1004v-220h-1252v1828h-148l-860 -1828h-272zM508 580v220h968v-220h-968z" />
    <glyph glyph-name="uni00C7" unicode="&#xc7;" horiz-adv-x="2048" 
d="M1896 1408h-248q-30 142 -115 239t-205 147t-256 50q-186 0 -336.5 -94t-239 -277t-88.5 -449t88.5 -449t239 -277t336.5 -94q136 0 256 50t205 147t115 239h248q-28 -157 -102 -281t-184 -210.5t-246.5 -131.5t-291.5 -45q-262 0 -466 128t-321 364t-117 560t117 560
t321 364t466 128q206 0 379 -79.5t290 -229t155 -359.5zM968 -8h196l-16 -80q78 -12 143 -65.5t65 -170.5q0 -129 -106.5 -210.5t-313.5 -81.5l-8 156q93 0 154.5 29.5t61.5 98.5t-51 94t-165 34z" />
    <glyph glyph-name="uni00C8" unicode="&#xc8;" horiz-adv-x="1684" 
d="M248 0v2048h1236v-220h-988v-692h924v-220h-924v-696h1004v-220h-1252zM732 2640l268 -408h-236l-364 408h332z" />
    <glyph glyph-name="uni00C9" unicode="&#xc9;" horiz-adv-x="1684" 
d="M248 0v2048h1236v-220h-988v-692h924v-220h-924v-696h1004v-220h-1252zM732 2224l240 456h276l-308 -456h-208z" />
    <glyph glyph-name="uni00CA" unicode="&#xca;" horiz-adv-x="1684" 
d="M248 0v2048h1236v-220h-988v-692h924v-220h-924v-696h1004v-220h-1252zM604 2264h-192v16l364 376h136l368 -376v-16h-192l-244 240z" />
    <glyph glyph-name="uni00CB" unicode="&#xcb;" horiz-adv-x="1684" 
d="M248 0v2048h1236v-220h-988v-692h924v-220h-924v-696h1004v-220h-1252zM560 2300q-63 0 -111.5 48.5t-48.5 111.5q0 69 48.5 114.5t111.5 45.5q69 0 114.5 -45.5t45.5 -114.5q0 -63 -45.5 -111.5t-114.5 -48.5zM1128 2300q-63 0 -111.5 48.5t-48.5 111.5q0 69 48.5 114.5
t111.5 45.5q69 0 114.5 -45.5t45.5 -114.5q0 -63 -45.5 -111.5t-114.5 -48.5z" />
    <glyph glyph-name="uni00CC" unicode="&#xcc;" horiz-adv-x="744" 
d="M496 2048v-2048h-248v2048h248zM260 2640l268 -408h-236l-364 408h332z" />
    <glyph glyph-name="uni00CD" unicode="&#xcd;" horiz-adv-x="744" 
d="M496 2048v-2048h-248v2048h248zM260 2224l240 456h276l-308 -456h-208z" />
    <glyph glyph-name="uni00CE" unicode="&#xce;" horiz-adv-x="744" 
d="M496 2048v-2048h-248v2048h248zM132 2264h-192v16l364 376h136l368 -376v-16h-192l-244 240z" />
    <glyph glyph-name="uni00CF" unicode="&#xcf;" horiz-adv-x="744" 
d="M496 2048v-2048h-248v2048h248zM88 2300q-63 0 -111.5 48.5t-48.5 111.5q0 69 48.5 114.5t111.5 45.5q69 0 114.5 -45.5t45.5 -114.5q0 -63 -45.5 -111.5t-114.5 -48.5zM656 2300q-63 0 -111.5 48.5t-48.5 111.5q0 69 48.5 114.5t111.5 45.5q69 0 114.5 -45.5
t45.5 -114.5q0 -63 -45.5 -111.5t-114.5 -48.5z" />
    <glyph glyph-name="uni00D0" unicode="&#xd0;" horiz-adv-x="2024" 
d="M880 0h-492v220h476q254 0 421 98t249 279t82 431q0 248 -81 427.5t-242 276t-401 96.5h-516v220h532q298 0 510 -122.5t325 -351t113 -546.5q0 -320 -114 -550.5t-332 -354t-530 -123.5zM496 2048v-2048h-248v2048h248zM-68 964v184h880v-184h-880z" />
    <glyph glyph-name="uni00D1" unicode="&#xd1;" horiz-adv-x="2120" 
d="M1872 2048v-2048h-240l-1116 1608h-20v-1608h-248v2048h240l1120 -1612h20v1612h244zM752 2232l-184 8q0 102 40 180.5t109 123t155 44.5q76 0 130.5 -32t108 -64t125.5 -32q57 0 96.5 44.5t39.5 107.5l180 -16q0 -104 -40 -180.5t-109 -118t-155 -41.5q-69 0 -114 19.5
t-80 44.5t-74 44.5t-96 19.5t-94.5 -44.5t-37.5 -107.5z" />
    <glyph glyph-name="uni00D2" unicode="&#xd2;" horiz-adv-x="2144" 
d="M1976 1024q0 -324 -117 -560t-321 -364t-466 -128t-466 128t-321 364t-117 560t117 560t321 364t466 128t466 -128t321 -364t117 -560zM1736 1024q0 266 -88.5 449t-239 277t-336.5 94t-336.5 -94t-239 -277t-88.5 -449t88.5 -449t239 -277t336.5 -94t336.5 94t239 277
t88.5 449zM960 2640l268 -408h-236l-364 408h332z" />
    <glyph glyph-name="uni00D3" unicode="&#xd3;" horiz-adv-x="2144" 
d="M1976 1024q0 -324 -117 -560t-321 -364t-466 -128t-466 128t-321 364t-117 560t117 560t321 364t466 128t466 -128t321 -364t117 -560zM1736 1024q0 266 -88.5 449t-239 277t-336.5 94t-336.5 -94t-239 -277t-88.5 -449t88.5 -449t239 -277t336.5 -94t336.5 94t239 277
t88.5 449zM960 2224l240 456h276l-308 -456h-208z" />
    <glyph glyph-name="uni00D4" unicode="&#xd4;" horiz-adv-x="2144" 
d="M1976 1024q0 -324 -117 -560t-321 -364t-466 -128t-466 128t-321 364t-117 560t117 560t321 364t466 128t466 -128t321 -364t117 -560zM1736 1024q0 266 -88.5 449t-239 277t-336.5 94t-336.5 -94t-239 -277t-88.5 -449t88.5 -449t239 -277t336.5 -94t336.5 94t239 277
t88.5 449zM832 2264h-192v16l364 376h136l368 -376v-16h-192l-244 240z" />
    <glyph glyph-name="uni00D5" unicode="&#xd5;" horiz-adv-x="2144" 
d="M1976 1024q0 -324 -117 -560t-321 -364t-466 -128t-466 128t-321 364t-117 560t117 560t321 364t466 128t466 -128t321 -364t117 -560zM1736 1024q0 266 -88.5 449t-239 277t-336.5 94t-336.5 -94t-239 -277t-88.5 -449t88.5 -449t239 -277t336.5 -94t336.5 94t239 277
t88.5 449zM764 2252l-184 8q0 102 40 180.5t109 123t155 44.5q76 0 130.5 -32t108 -64t125.5 -32q57 0 96.5 44.5t39.5 107.5l180 -16q0 -104 -40 -180.5t-109 -118t-155 -41.5q-69 0 -114 19.5t-80 44.5t-74 44.5t-96 19.5t-94.5 -44.5t-37.5 -107.5z" />
    <glyph glyph-name="uni00D6" unicode="&#xd6;" horiz-adv-x="2144" 
d="M1976 1024q0 -324 -117 -560t-321 -364t-466 -128t-466 128t-321 364t-117 560t117 560t321 364t466 128t466 -128t321 -364t117 -560zM1736 1024q0 266 -88.5 449t-239 277t-336.5 94t-336.5 -94t-239 -277t-88.5 -449t88.5 -449t239 -277t336.5 -94t336.5 94t239 277
t88.5 449zM788 2300q-63 0 -111.5 48.5t-48.5 111.5q0 69 48.5 114.5t111.5 45.5q69 0 114.5 -45.5t45.5 -114.5q0 -63 -45.5 -111.5t-114.5 -48.5zM1356 2300q-63 0 -111.5 48.5t-48.5 111.5q0 69 48.5 114.5t111.5 45.5q69 0 114.5 -45.5t45.5 -114.5q0 -63 -45.5 -111.5
t-114.5 -48.5z" />
    <glyph glyph-name="uni00D7" unicode="&#xd7;" horiz-adv-x="1808" 
d="M452 280l-152 156l1072 1092l152 -156zM1356 280l-1072 1092l152 156l1072 -1092z" />
    <glyph glyph-name="uni00D8" unicode="&#xd8;" horiz-adv-x="2144" 
d="M432 -84l-152 104l1424 2108l152 -104zM1976 1024q0 -324 -117 -560t-321 -364t-466 -128t-466 128t-321 364t-117 560t117 560t321 364t466 128t466 -128t321 -364t117 -560zM1736 1024q0 266 -88.5 449t-239 277t-336.5 94t-336.5 -94t-239 -277t-88.5 -449t88.5 -449
t239 -277t336.5 -94t336.5 94t239 277t88.5 449z" />
    <glyph glyph-name="uni00D9" unicode="&#xd9;" horiz-adv-x="2088" 
d="M1592 2048h248v-1356q0 -230 -109 -393t-290 -249t-397 -86t-397 86t-290 249t-109 393v1356h248v-1356q0 -160 76 -270.5t201 -168t271 -57.5t271 57.5t201 168t76 270.5v1356zM932 2640l268 -408h-236l-364 408h332z" />
    <glyph glyph-name="uni00DA" unicode="&#xda;" horiz-adv-x="2088" 
d="M1592 2048h248v-1356q0 -230 -109 -393t-290 -249t-397 -86t-397 86t-290 249t-109 393v1356h248v-1356q0 -160 76 -270.5t201 -168t271 -57.5t271 57.5t201 168t76 270.5v1356zM932 2224l240 456h276l-308 -456h-208z" />
    <glyph glyph-name="uni00DB" unicode="&#xdb;" horiz-adv-x="2088" 
d="M1592 2048h248v-1356q0 -230 -109 -393t-290 -249t-397 -86t-397 86t-290 249t-109 393v1356h248v-1356q0 -160 76 -270.5t201 -168t271 -57.5t271 57.5t201 168t76 270.5v1356zM804 2264h-192v16l364 376h136l368 -376v-16h-192l-244 240z" />
    <glyph glyph-name="uni00DC" unicode="&#xdc;" horiz-adv-x="2088" 
d="M1592 2048h248v-1356q0 -230 -109 -393t-290 -249t-397 -86t-397 86t-290 249t-109 393v1356h248v-1356q0 -160 76 -270.5t201 -168t271 -57.5t271 57.5t201 168t76 270.5v1356zM760 2300q-63 0 -111.5 48.5t-48.5 111.5q0 69 48.5 114.5t111.5 45.5q69 0 114.5 -45.5
t45.5 -114.5q0 -63 -45.5 -111.5t-114.5 -48.5zM1328 2300q-63 0 -111.5 48.5t-48.5 111.5q0 69 48.5 114.5t111.5 45.5q69 0 114.5 -45.5t45.5 -114.5q0 -63 -45.5 -111.5t-114.5 -48.5z" />
    <glyph glyph-name="uni00DD" unicode="&#xdd;" horiz-adv-x="1880" 
d="M76 2048h284l568 -956h24l568 956h284l-740 -1204v-844h-248v844zM828 2224l240 456h276l-308 -456h-208z" />
    <glyph glyph-name="uni00DE" unicode="&#xde;" horiz-adv-x="1776" 
d="M232 2048h248v-2048h-248v2048zM348 1624h528q218 0 369 -79.5t229 -213t78 -295.5t-78 -295.5t-229 -213t-369 -79.5h-528v220h528q142 0 240 42.5t149 124t51 197.5t-51 199.5t-149 128t-240 44.5h-528v220z" />
    <glyph glyph-name="uni00DF" unicode="&#xdf;" horiz-adv-x="1716" 
d="M248 0v1524q0 171 75.5 295t209 190.5t307.5 66.5q170 0 305 -64t213 -182t78 -282q0 -175 -90 -294.5t-234 -169.5v-20q195 -19 319.5 -152.5t124.5 -347.5q0 -162 -74 -289.5t-208 -201t-314 -73.5h-224v220h228q163 0 259.5 96.5t96.5 247.5q0 158 -107 261t-289 103
h-180v224h128q101 0 174.5 51.5t113.5 134t40 174.5q0 144 -95.5 244t-260.5 100q-155 0 -257.5 -92.5t-102.5 -239.5v-1524h-236z" />
    <glyph glyph-name="uni00E0" unicode="&#xe0;" horiz-adv-x="1588" 
d="M668 -36q-146 0 -265 55.5t-189 161t-70 255.5q0 132 52 214.5t139 129.5t192.5 70.5t212.5 37.5q140 18 227.5 29t128 34.5t40.5 80.5q0 149 -80 232.5t-244 83.5q-169 0 -265 -74t-135 -158l-224 80q60 140 160.5 218.5t220 110t235.5 31.5q74 0 170.5 -17.5t187 -71.5
t150.5 -163t60 -292v-1012h-236v208h-12q-24 -50 -80 -107t-149 -97t-227 -40zM704 176q140 0 236.5 55t146 142t49.5 183v216q-15 -18 -65.5 -32.5t-116 -25t-127 -18t-99.5 -12.5q-92 -12 -171.5 -38.5t-128 -79t-48.5 -142.5q0 -123 91.5 -185.5t232.5 -62.5zM708 2128
l268 -408h-236l-364 408h332z" />
    <glyph glyph-name="uni00E1" unicode="&#xe1;" horiz-adv-x="1588" 
d="M668 -36q-146 0 -265 55.5t-189 161t-70 255.5q0 132 52 214.5t139 129.5t192.5 70.5t212.5 37.5q140 18 227.5 29t128 34.5t40.5 80.5q0 149 -80 232.5t-244 83.5q-169 0 -265 -74t-135 -158l-224 80q60 140 160.5 218.5t220 110t235.5 31.5q74 0 170.5 -17.5t187 -71.5
t150.5 -163t60 -292v-1012h-236v208h-12q-24 -50 -80 -107t-149 -97t-227 -40zM704 176q140 0 236.5 55t146 142t49.5 183v216q-15 -18 -65.5 -32.5t-116 -25t-127 -18t-99.5 -12.5q-92 -12 -171.5 -38.5t-128 -79t-48.5 -142.5q0 -123 91.5 -185.5t232.5 -62.5zM708 1712
l240 456h276l-308 -456h-208z" />
    <glyph glyph-name="uni00E2" unicode="&#xe2;" horiz-adv-x="1588" 
d="M668 -36q-146 0 -265 55.5t-189 161t-70 255.5q0 132 52 214.5t139 129.5t192.5 70.5t212.5 37.5q140 18 227.5 29t128 34.5t40.5 80.5q0 149 -80 232.5t-244 83.5q-169 0 -265 -74t-135 -158l-224 80q60 140 160.5 218.5t220 110t235.5 31.5q74 0 170.5 -17.5t187 -71.5
t150.5 -163t60 -292v-1012h-236v208h-12q-24 -50 -80 -107t-149 -97t-227 -40zM704 176q140 0 236.5 55t146 142t49.5 183v216q-15 -18 -65.5 -32.5t-116 -25t-127 -18t-99.5 -12.5q-92 -12 -171.5 -38.5t-128 -79t-48.5 -142.5q0 -123 91.5 -185.5t232.5 -62.5zM580 1752
h-192v16l364 376h136l368 -376v-16h-192l-244 240z" />
    <glyph glyph-name="uni00E3" unicode="&#xe3;" horiz-adv-x="1588" 
d="M668 -36q-146 0 -265 55.5t-189 161t-70 255.5q0 132 52 214.5t139 129.5t192.5 70.5t212.5 37.5q140 18 227.5 29t128 34.5t40.5 80.5q0 149 -80 232.5t-244 83.5q-169 0 -265 -74t-135 -158l-224 80q60 140 160.5 218.5t220 110t235.5 31.5q74 0 170.5 -17.5t187 -71.5
t150.5 -163t60 -292v-1012h-236v208h-12q-24 -50 -80 -107t-149 -97t-227 -40zM704 176q140 0 236.5 55t146 142t49.5 183v216q-15 -18 -65.5 -32.5t-116 -25t-127 -18t-99.5 -12.5q-92 -12 -171.5 -38.5t-128 -79t-48.5 -142.5q0 -123 91.5 -185.5t232.5 -62.5zM512 1720
l-184 8q0 102 40 180.5t109 123t155 44.5q76 0 130.5 -32t108 -64t125.5 -32q57 0 96.5 44.5t39.5 107.5l180 -16q0 -104 -40 -180.5t-109 -118t-155 -41.5q-69 0 -114 19.5t-80 44.5t-74 44.5t-96 19.5t-94.5 -44.5t-37.5 -107.5z" />
    <glyph glyph-name="uni00E4" unicode="&#xe4;" horiz-adv-x="1588" 
d="M668 -36q-146 0 -265 55.5t-189 161t-70 255.5q0 132 52 214.5t139 129.5t192.5 70.5t212.5 37.5q140 18 227.5 29t128 34.5t40.5 80.5q0 149 -80 232.5t-244 83.5q-169 0 -265 -74t-135 -158l-224 80q60 140 160.5 218.5t220 110t235.5 31.5q74 0 170.5 -17.5t187 -71.5
t150.5 -163t60 -292v-1012h-236v208h-12q-24 -50 -80 -107t-149 -97t-227 -40zM704 176q140 0 236.5 55t146 142t49.5 183v216q-15 -18 -65.5 -32.5t-116 -25t-127 -18t-99.5 -12.5q-92 -12 -171.5 -38.5t-128 -79t-48.5 -142.5q0 -123 91.5 -185.5t232.5 -62.5zM536 1788
q-63 0 -111.5 48.5t-48.5 111.5q0 69 48.5 114.5t111.5 45.5q69 0 114.5 -45.5t45.5 -114.5q0 -63 -45.5 -111.5t-114.5 -48.5zM1104 1788q-63 0 -111.5 48.5t-48.5 111.5q0 69 48.5 114.5t111.5 45.5q69 0 114.5 -45.5t45.5 -114.5q0 -63 -45.5 -111.5t-114.5 -48.5z" />
    <glyph glyph-name="uni00E5" unicode="&#xe5;" horiz-adv-x="1588" 
d="M668 -36q-146 0 -265 55.5t-189 161t-70 255.5q0 132 52 214.5t139 129.5t192.5 70.5t212.5 37.5q140 18 227.5 29t128 34.5t40.5 80.5q0 149 -80 232.5t-244 83.5q-169 0 -265 -74t-135 -158l-224 80q60 140 160.5 218.5t220 110t235.5 31.5q74 0 170.5 -17.5t187 -71.5
t150.5 -163t60 -292v-1012h-236v208h-12q-24 -50 -80 -107t-149 -97t-227 -40zM704 176q140 0 236.5 55t146 142t49.5 183v216q-15 -18 -65.5 -32.5t-116 -25t-127 -18t-99.5 -12.5q-92 -12 -171.5 -38.5t-128 -79t-48.5 -142.5q0 -123 91.5 -185.5t232.5 -62.5zM456 2064
q0 96 48.5 176t131 128t184.5 48t183.5 -48t129 -128t47.5 -176q0 -144 -103.5 -242t-256.5 -98q-102 0 -184.5 45t-131 122t-48.5 173zM628 2064q0 -72 54 -130t138 -58t138 58t54 130q0 75 -54 135.5t-138 60.5t-138 -60.5t-54 -135.5z" />
    <glyph glyph-name="uni00E6" unicode="&#xe6;" horiz-adv-x="2604" 
d="M1824 -32q-255 0 -413.5 129.5t-218.5 354.5l44 732q75 174 217.5 273t346.5 99q120 0 237 -40t213 -129.5t153 -236.5t57 -362v-80l-1184 -92v204l944 72q0 195 -114 323.5t-306 128.5q-201 0 -328.5 -151.5t-127.5 -424.5v-104q23 -237 149.5 -360.5t330.5 -123.5
q141 0 240 60t144 180l228 -64q-54 -174 -216 -281t-396 -107zM704 176q140 0 236.5 55t146 142t49.5 183v216q-15 -18 -65.5 -32.5t-116 -25t-127 -18t-99.5 -12.5q-92 -12 -171.5 -38.5t-128 -79t-48.5 -142.5q0 -123 91.5 -185.5t232.5 -62.5zM668 -36q-146 0 -265 55.5
t-189 161t-70 255.5q0 131 52 213.5t138 129.5t192 71.5t214 37.5q114 14 203.5 23t141 29t51.5 68q0 172 -79 256t-241 84q-171 0 -268 -74t-136 -158l-224 80q60 140 160.5 218.5t220 110t235.5 31.5q210 0 335.5 -83.5t164.5 -200.5l-64 -944h-12q-6 -40 -43.5 -101
t-107.5 -121.5t-172 -101t-237 -40.5z" />
    <glyph glyph-name="uni00E7" unicode="&#xe7;" horiz-adv-x="1572" 
d="M840 -32q-216 0 -372 102t-240 281t-84 409q0 234 86.5 413.5t242 281t363.5 101.5q162 0 292 -60t213 -168t103 -252h-236q-27 105 -119.5 186.5t-248.5 81.5q-207 0 -333.5 -157.5t-126.5 -418.5q0 -267 125 -427.5t335 -160.5q138 0 236.5 71t131.5 197h236
q-20 -136 -98.5 -244.5t-207 -172t-298.5 -63.5zM728 8h196l-16 -80q78 -12 143 -65.5t65 -170.5q0 -129 -106.5 -210.5t-313.5 -81.5l-8 156q93 0 154.5 29.5t61.5 98.5t-51 94t-165 34z" />
    <glyph glyph-name="uni00E8" unicode="&#xe8;" horiz-adv-x="1640" 
d="M860 -32q-222 0 -382.5 98.5t-247 276t-86.5 413.5t86.5 416.5t242 282t363.5 101.5q120 0 237 -40t213 -129.5t153 -236.5t57 -362v-100h-1184v204h944q0 195 -114 323.5t-306 128.5q-141 0 -243.5 -69.5t-157.5 -181t-55 -237.5v-136q0 -262 133 -401t347 -139
q139 0 239 60t145 180l228 -64q-54 -174 -216 -281t-396 -107zM712 2128l268 -408h-236l-364 408h332z" />
    <glyph glyph-name="uni00E9" unicode="&#xe9;" horiz-adv-x="1640" 
d="M860 -32q-222 0 -382.5 98.5t-247 276t-86.5 413.5t86.5 416.5t242 282t363.5 101.5q120 0 237 -40t213 -129.5t153 -236.5t57 -362v-100h-1184v204h944q0 195 -114 323.5t-306 128.5q-141 0 -243.5 -69.5t-157.5 -181t-55 -237.5v-136q0 -262 133 -401t347 -139
q139 0 239 60t145 180l228 -64q-54 -174 -216 -281t-396 -107zM712 1712l240 456h276l-308 -456h-208z" />
    <glyph glyph-name="uni00EA" unicode="&#xea;" horiz-adv-x="1640" 
d="M860 -32q-222 0 -382.5 98.5t-247 276t-86.5 413.5t86.5 416.5t242 282t363.5 101.5q120 0 237 -40t213 -129.5t153 -236.5t57 -362v-100h-1184v204h944q0 195 -114 323.5t-306 128.5q-141 0 -243.5 -69.5t-157.5 -181t-55 -237.5v-136q0 -262 133 -401t347 -139
q139 0 239 60t145 180l228 -64q-54 -174 -216 -281t-396 -107zM584 1752h-192v16l364 376h136l368 -376v-16h-192l-244 240z" />
    <glyph glyph-name="uni00EB" unicode="&#xeb;" horiz-adv-x="1640" 
d="M860 -32q-222 0 -382.5 98.5t-247 276t-86.5 413.5t86.5 416.5t242 282t363.5 101.5q120 0 237 -40t213 -129.5t153 -236.5t57 -362v-100h-1184v204h944q0 195 -114 323.5t-306 128.5q-141 0 -243.5 -69.5t-157.5 -181t-55 -237.5v-136q0 -262 133 -401t347 -139
q139 0 239 60t145 180l228 -64q-54 -174 -216 -281t-396 -107zM540 1788q-63 0 -111.5 48.5t-48.5 111.5q0 69 48.5 114.5t111.5 45.5q69 0 114.5 -45.5t45.5 -114.5q0 -63 -45.5 -111.5t-114.5 -48.5zM1108 1788q-63 0 -111.5 48.5t-48.5 111.5q0 69 48.5 114.5t111.5 45.5
q69 0 114.5 -45.5t45.5 -114.5q0 -63 -45.5 -111.5t-114.5 -48.5z" />
    <glyph glyph-name="uni00EC" unicode="&#xec;" horiz-adv-x="668" 
d="M216 0v1536h236v-1536h-236zM224 2128l268 -408h-236l-364 408h332z" />
    <glyph glyph-name="uni00ED" unicode="&#xed;" horiz-adv-x="668" 
d="M216 0v1536h236v-1536h-236zM224 1712l240 456h276l-308 -456h-208z" />
    <glyph glyph-name="uni00EE" unicode="&#xee;" horiz-adv-x="668" 
d="M216 0v1536h236v-1536h-236zM96 1752h-192v16l364 376h136l368 -376v-16h-192l-244 240z" />
    <glyph glyph-name="uni00EF" unicode="&#xef;" horiz-adv-x="668" 
d="M216 0v1536h236v-1536h-236zM52 1788q-63 0 -111.5 48.5t-48.5 111.5q0 69 48.5 114.5t111.5 45.5q69 0 114.5 -45.5t45.5 -114.5q0 -63 -45.5 -111.5t-114.5 -48.5zM620 1788q-63 0 -111.5 48.5t-48.5 111.5q0 69 48.5 114.5t111.5 45.5q69 0 114.5 -45.5t45.5 -114.5
q0 -63 -45.5 -111.5t-114.5 -48.5z" />
    <glyph glyph-name="uni00F0" unicode="&#xf0;" horiz-adv-x="1632" 
d="M1328 1948l-820 -396l-68 148l820 396zM816 -32q-206 0 -357 95t-233 261t-82 380q0 218 82 384t221 259t309 93q116 0 203 -40t147 -100t94 -120h20q-33 93 -90 199t-146.5 216.5t-219 216t-308.5 196.5l104 168q168 -87 332.5 -222t299.5 -314.5t215.5 -402
t80.5 -485.5q0 -248 -84 -423.5t-235 -268t-353 -92.5zM816 180q146 0 245 68t149 183t50 257q0 130 -45 258t-143 213t-256 85q-146 0 -243 -75t-145 -198t-48 -267q0 -136 45 -255.5t141 -194t250 -74.5z" />
    <glyph glyph-name="uni00F1" unicode="&#xf1;" horiz-adv-x="1636" 
d="M456 1720l-184 8q0 102 40 180.5t109 123t155 44.5q76 0 130.5 -32t108 -64t125.5 -32q57 0 96.5 44.5t39.5 107.5l180 -16q0 -104 -40 -180.5t-109 -118t-155 -41.5q-69 0 -114 19.5t-80 44.5t-74 44.5t-96 19.5t-94.5 -44.5t-37.5 -107.5zM452 924v-924h-236v1536h228
v-240h20q54 117 164 188.5t284 71.5q156 0 273 -63.5t182 -192t65 -324.5v-976h-236v960q0 181 -94 282.5t-258 101.5q-169 0 -280.5 -109.5t-111.5 -310.5z" />
    <glyph glyph-name="uni00F2" unicode="&#xf2;" horiz-adv-x="1680" 
d="M840 -32q-208 0 -364.5 99t-244 277t-87.5 416q0 240 87.5 419t244 278t364.5 99t364.5 -99t244 -278t87.5 -419q0 -238 -87.5 -416t-244 -277t-364.5 -99zM840 180q158 0 260 81t151 213t49 286t-49 287t-151 215t-260 82t-260 -82t-151 -215t-49 -287t49 -286t151 -213
t260 -81zM728 2128l268 -408h-236l-364 408h332z" />
    <glyph glyph-name="uni00F3" unicode="&#xf3;" horiz-adv-x="1680" 
d="M840 -32q-208 0 -364.5 99t-244 277t-87.5 416q0 240 87.5 419t244 278t364.5 99t364.5 -99t244 -278t87.5 -419q0 -238 -87.5 -416t-244 -277t-364.5 -99zM840 180q158 0 260 81t151 213t49 286t-49 287t-151 215t-260 82t-260 -82t-151 -215t-49 -287t49 -286t151 -213
t260 -81zM728 1712l240 456h276l-308 -456h-208z" />
    <glyph glyph-name="uni00F4" unicode="&#xf4;" horiz-adv-x="1680" 
d="M840 -32q-208 0 -364.5 99t-244 277t-87.5 416q0 240 87.5 419t244 278t364.5 99t364.5 -99t244 -278t87.5 -419q0 -238 -87.5 -416t-244 -277t-364.5 -99zM840 180q158 0 260 81t151 213t49 286t-49 287t-151 215t-260 82t-260 -82t-151 -215t-49 -287t49 -286t151 -213
t260 -81zM600 1752h-192v16l364 376h136l368 -376v-16h-192l-244 240z" />
    <glyph glyph-name="uni00F5" unicode="&#xf5;" horiz-adv-x="1680" 
d="M532 1720l-184 8q0 102 40 180.5t109 123t155 44.5q76 0 130.5 -32t108 -64t125.5 -32q57 0 96.5 44.5t39.5 107.5l180 -16q0 -104 -40 -180.5t-109 -118t-155 -41.5q-69 0 -114 19.5t-80 44.5t-74 44.5t-96 19.5t-94.5 -44.5t-37.5 -107.5zM840 -32q-208 0 -364.5 99
t-244 277t-87.5 416q0 240 87.5 419t244 278t364.5 99t364.5 -99t244 -278t87.5 -419q0 -238 -87.5 -416t-244 -277t-364.5 -99zM840 180q158 0 260 81t151 213t49 286t-49 287t-151 215t-260 82t-260 -82t-151 -215t-49 -287t49 -286t151 -213t260 -81z" />
    <glyph glyph-name="uni00F6" unicode="&#xf6;" horiz-adv-x="1680" 
d="M840 -32q-208 0 -364.5 99t-244 277t-87.5 416q0 240 87.5 419t244 278t364.5 99t364.5 -99t244 -278t87.5 -419q0 -238 -87.5 -416t-244 -277t-364.5 -99zM840 180q158 0 260 81t151 213t49 286t-49 287t-151 215t-260 82t-260 -82t-151 -215t-49 -287t49 -286t151 -213
t260 -81zM556 1788q-63 0 -111.5 48.5t-48.5 111.5q0 69 48.5 114.5t111.5 45.5q69 0 114.5 -45.5t45.5 -114.5q0 -63 -45.5 -111.5t-114.5 -48.5zM1124 1788q-63 0 -111.5 48.5t-48.5 111.5q0 69 48.5 114.5t111.5 45.5q69 0 114.5 -45.5t45.5 -114.5q0 -63 -45.5 -111.5
t-114.5 -48.5z" />
    <glyph glyph-name="uni00F7" unicode="&#xf7;" horiz-adv-x="1808" 
d="M1544 1008v-220h-1280v220h1280zM736 1408q0 69 42 114.5t126 45.5q81 0 124.5 -45.5t43.5 -114.5q0 -66 -43.5 -111t-124.5 -45q-84 0 -126 45t-42 111zM736 380q0 69 42 116.5t126 47.5q81 0 124.5 -47.5t43.5 -116.5q0 -66 -43.5 -111t-124.5 -45q-84 0 -126 45
t-42 111z" />
    <glyph glyph-name="uni00F8" unicode="&#xf8;" horiz-adv-x="1680" 
d="M380 -84l-152 104l1072 1588l152 -104zM840 -32q-208 0 -364.5 99t-244 277t-87.5 416q0 240 87.5 419t244 278t364.5 99t364.5 -99t244 -278t87.5 -419q0 -238 -87.5 -416t-244 -277t-364.5 -99zM840 180q158 0 260 81t151 213t49 286t-49 287t-151 215t-260 82
t-260 -82t-151 -215t-49 -287t49 -286t151 -213t260 -81z" />
    <glyph glyph-name="uni00F9" unicode="&#xf9;" horiz-adv-x="1636" 
d="M1184 628v908h236v-1536h-236v260h-16q-54 -117 -168 -198.5t-288 -81.5q-144 0 -256 63.5t-176 192t-64 324.5v976h236v-960q0 -168 94.5 -268t241.5 -100q88 0 179.5 45t154 138t62.5 237zM708 2128l268 -408h-236l-364 408h332z" />
    <glyph glyph-name="uni00FA" unicode="&#xfa;" horiz-adv-x="1636" 
d="M1184 628v908h236v-1536h-236v260h-16q-54 -117 -168 -198.5t-288 -81.5q-144 0 -256 63.5t-176 192t-64 324.5v976h236v-960q0 -168 94.5 -268t241.5 -100q88 0 179.5 45t154 138t62.5 237zM708 1712l240 456h276l-308 -456h-208z" />
    <glyph glyph-name="uni00FB" unicode="&#xfb;" horiz-adv-x="1636" 
d="M1184 628v908h236v-1536h-236v260h-16q-54 -117 -168 -198.5t-288 -81.5q-144 0 -256 63.5t-176 192t-64 324.5v976h236v-960q0 -168 94.5 -268t241.5 -100q88 0 179.5 45t154 138t62.5 237zM580 1752h-192v16l364 376h136l368 -376v-16h-192l-244 240z" />
    <glyph glyph-name="uni00FC" unicode="&#xfc;" horiz-adv-x="1636" 
d="M1184 628v908h236v-1536h-236v260h-16q-54 -117 -168 -198.5t-288 -81.5q-144 0 -256 63.5t-176 192t-64 324.5v976h236v-960q0 -168 94.5 -268t241.5 -100q88 0 179.5 45t154 138t62.5 237zM536 1788q-63 0 -111.5 48.5t-48.5 111.5q0 69 48.5 114.5t111.5 45.5
q69 0 114.5 -45.5t45.5 -114.5q0 -63 -45.5 -111.5t-114.5 -48.5zM1104 1788q-63 0 -111.5 48.5t-48.5 111.5q0 69 48.5 114.5t111.5 45.5q69 0 114.5 -45.5t45.5 -114.5q0 -63 -45.5 -111.5t-114.5 -48.5z" />
    <glyph glyph-name="uni00FD" unicode="&#xfd;" horiz-adv-x="1568" 
d="M360 -596q-60 0 -107 9.5t-65 18.5l60 208q129 -33 213.5 2t150.5 206l56 140l-572 1548h256l424 -1224h16l424 1224h256l-660 -1784q-44 -118 -108.5 -195t-150 -115t-193.5 -38zM668 1712l240 456h276l-308 -456h-208z" />
    <glyph glyph-name="uni00FE" unicode="&#xfe;" horiz-adv-x="1716" 
d="M216 2048h236v-876l-60 -388l60 -496v-864h-236v2624zM356 1292h116q26 40 72.5 102.5t134 112t237.5 49.5q194 0 342 -97t231 -275t83 -420q0 -244 -83 -422.5t-230 -276t-339 -97.5q-148 0 -237 49.5t-137 113t-74 105.5h-116v1056zM1336 768q0 162 -49.5 292.5
t-149 207t-249.5 76.5q-144 0 -242 -72.5t-148 -202t-50 -301.5q0 -174 51 -306.5t149 -207t240 -74.5q148 0 247.5 78.5t150 212t50.5 297.5z" />
    <glyph glyph-name="uni00FF" unicode="&#xff;" horiz-adv-x="1568" 
d="M360 -596q-60 0 -107 9.5t-65 18.5l60 208q129 -33 213.5 2t150.5 206l56 140l-572 1548h256l424 -1224h16l424 1224h256l-660 -1784q-44 -118 -108.5 -195t-150 -115t-193.5 -38zM496 1788q-63 0 -111.5 48.5t-48.5 111.5q0 69 48.5 114.5t111.5 45.5q69 0 114.5 -45.5
t45.5 -114.5q0 -63 -45.5 -111.5t-114.5 -48.5zM1064 1788q-63 0 -111.5 48.5t-48.5 111.5q0 69 48.5 114.5t111.5 45.5q69 0 114.5 -45.5t45.5 -114.5q0 -63 -45.5 -111.5t-114.5 -48.5z" />
    <glyph glyph-name="uni0100" unicode="&#x100;" horiz-adv-x="1904" 
d="M332 0h-260l752 2048h256l752 -2048h-260l-612 1724h-16zM428 800h1048v-220h-1048v220zM1424 2524v-200h-940v200h940z" />
    <glyph glyph-name="uni0101" unicode="&#x101;" horiz-adv-x="1588" 
d="M668 -36q-146 0 -265 55.5t-189 161t-70 255.5q0 132 52 214.5t139 129.5t192.5 70.5t212.5 37.5q140 18 227.5 29t128 34.5t40.5 80.5q0 149 -80 232.5t-244 83.5q-169 0 -265 -74t-135 -158l-224 80q60 140 160.5 218.5t220 110t235.5 31.5q74 0 170.5 -17.5t187 -71.5
t150.5 -163t60 -292v-1012h-236v208h-12q-24 -50 -80 -107t-149 -97t-227 -40zM704 176q140 0 236.5 55t146 142t49.5 183v216q-15 -18 -65.5 -32.5t-116 -25t-127 -18t-99.5 -12.5q-92 -12 -171.5 -38.5t-128 -79t-48.5 -142.5q0 -123 91.5 -185.5t232.5 -62.5zM1292 2012
v-200h-940v200h940z" />
    <glyph glyph-name="uni0102" unicode="&#x102;" horiz-adv-x="1904" 
d="M332 0h-260l752 2048h256l752 -2048h-260l-612 1724h-16zM428 800h1048v-220h-1048v220zM1148 2584h220q0 -162 -112 -265t-304 -103q-189 0 -300.5 103t-111.5 265h220q0 -78 43.5 -137t148.5 -59t150.5 59t45.5 137z" />
    <glyph glyph-name="uni0103" unicode="&#x103;" horiz-adv-x="1588" 
d="M668 -36q-146 0 -265 55.5t-189 161t-70 255.5q0 132 52 214.5t139 129.5t192.5 70.5t212.5 37.5q140 18 227.5 29t128 34.5t40.5 80.5q0 149 -80 232.5t-244 83.5q-169 0 -265 -74t-135 -158l-224 80q60 140 160.5 218.5t220 110t235.5 31.5q74 0 170.5 -17.5t187 -71.5
t150.5 -163t60 -292v-1012h-236v208h-12q-24 -50 -80 -107t-149 -97t-227 -40zM704 176q140 0 236.5 55t146 142t49.5 183v216q-15 -18 -65.5 -32.5t-116 -25t-127 -18t-99.5 -12.5q-92 -12 -171.5 -38.5t-128 -79t-48.5 -142.5q0 -123 91.5 -185.5t232.5 -62.5zM1016 2072
h220q0 -162 -112 -265t-304 -103q-189 0 -300.5 103t-111.5 265h220q0 -78 43.5 -137t148.5 -59t150.5 59t45.5 137z" />
    <glyph glyph-name="uni0104" unicode="&#x104;" horiz-adv-x="1904" 
d="M332 0h-260l752 2048h256l752 -2048h-260l-612 1724h-16zM428 800h1048v-220h-1048v220zM1644 -600q-123 0 -203.5 67.5t-80.5 196.5q0 74 36 148t116 143t212 129l108 -84q-90 -66 -161 -140t-71 -164q0 -45 22 -70.5t82 -25.5q45 0 80 12t56 24l16 -176
q-33 -21 -86.5 -40.5t-125.5 -19.5z" />
    <glyph glyph-name="uni0105" unicode="&#x105;" horiz-adv-x="1588" 
d="M668 -36q-146 0 -265 55.5t-189 161t-70 255.5q0 132 52 214.5t139 129.5t192.5 70.5t212.5 37.5q140 18 227.5 29t128 34.5t40.5 80.5q0 149 -80 232.5t-244 83.5q-169 0 -265 -74t-135 -158l-224 80q60 140 160.5 218.5t220 110t235.5 31.5q74 0 170.5 -17.5t187 -71.5
t150.5 -163t60 -292v-1012h-236v208h-12q-24 -50 -80 -107t-149 -97t-227 -40zM704 176q140 0 236.5 55t146 142t49.5 183v216q-15 -18 -65.5 -32.5t-116 -25t-127 -18t-99.5 -12.5q-92 -12 -171.5 -38.5t-128 -79t-48.5 -142.5q0 -123 91.5 -185.5t232.5 -62.5zM1184 -600
q-123 0 -203.5 67.5t-80.5 196.5q0 74 36 148t116 143t212 129l108 -84q-90 -66 -161 -140t-71 -164q0 -45 22 -70.5t82 -25.5q45 0 80 12t56 24l16 -176q-33 -21 -86.5 -40.5t-125.5 -19.5z" />
    <glyph glyph-name="uni0106" unicode="&#x106;" horiz-adv-x="2048" 
d="M1896 1408h-248q-30 142 -115 239t-205 147t-256 50q-186 0 -336.5 -94t-239 -277t-88.5 -449t88.5 -449t239 -277t336.5 -94q136 0 256 50t205 147t115 239h248q-28 -157 -102 -281t-184 -210.5t-246.5 -131.5t-291.5 -45q-262 0 -466 128t-321 364t-117 560t117 560
t321 364t466 128q206 0 379 -79.5t290 -229t155 -359.5zM960 2224l240 456h276l-308 -456h-208z" />
    <glyph glyph-name="uni0107" unicode="&#x107;" horiz-adv-x="1572" 
d="M840 -32q-216 0 -372 102t-240 281t-84 409q0 234 86.5 413.5t242 281t363.5 101.5q162 0 292 -60t213 -168t103 -252h-236q-27 105 -119.5 186.5t-248.5 81.5q-207 0 -333.5 -157.5t-126.5 -418.5q0 -267 125 -427.5t335 -160.5q138 0 236.5 71t131.5 197h236
q-20 -136 -98.5 -244.5t-207 -172t-298.5 -63.5zM720 1712l240 456h276l-308 -456h-208z" />
    <glyph glyph-name="uni0108" unicode="&#x108;" horiz-adv-x="2048" 
d="M1896 1408h-248q-30 142 -115 239t-205 147t-256 50q-186 0 -336.5 -94t-239 -277t-88.5 -449t88.5 -449t239 -277t336.5 -94q136 0 256 50t205 147t115 239h248q-28 -157 -102 -281t-184 -210.5t-246.5 -131.5t-291.5 -45q-262 0 -466 128t-321 364t-117 560t117 560
t321 364t466 128q206 0 379 -79.5t290 -229t155 -359.5zM832 2264h-192v16l364 376h136l368 -376v-16h-192l-244 240z" />
    <glyph glyph-name="uni0109" unicode="&#x109;" horiz-adv-x="1572" 
d="M840 -32q-216 0 -372 102t-240 281t-84 409q0 234 86.5 413.5t242 281t363.5 101.5q162 0 292 -60t213 -168t103 -252h-236q-27 105 -119.5 186.5t-248.5 81.5q-207 0 -333.5 -157.5t-126.5 -418.5q0 -267 125 -427.5t335 -160.5q138 0 236.5 71t131.5 197h236
q-20 -136 -98.5 -244.5t-207 -172t-298.5 -63.5zM592 1752h-192v16l364 376h136l368 -376v-16h-192l-244 240z" />
    <glyph glyph-name="uni010A" unicode="&#x10a;" horiz-adv-x="2048" 
d="M1896 1408h-248q-30 142 -115 239t-205 147t-256 50q-186 0 -336.5 -94t-239 -277t-88.5 -449t88.5 -449t239 -277t336.5 -94q136 0 256 50t205 147t115 239h248q-28 -157 -102 -281t-184 -210.5t-246.5 -131.5t-291.5 -45q-262 0 -466 128t-321 364t-117 560t117 560
t321 364t466 128q206 0 379 -79.5t290 -229t155 -359.5zM1072 2300q-69 0 -118.5 47t-49.5 113t49.5 113t118.5 47t118.5 -47t49.5 -113t-49.5 -113t-118.5 -47z" />
    <glyph glyph-name="uni010B" unicode="&#x10b;" horiz-adv-x="1572" 
d="M840 -32q-216 0 -372 102t-240 281t-84 409q0 234 86.5 413.5t242 281t363.5 101.5q162 0 292 -60t213 -168t103 -252h-236q-27 105 -119.5 186.5t-248.5 81.5q-207 0 -333.5 -157.5t-126.5 -418.5q0 -267 125 -427.5t335 -160.5q138 0 236.5 71t131.5 197h236
q-20 -136 -98.5 -244.5t-207 -172t-298.5 -63.5zM832 1788q-69 0 -118.5 47t-49.5 113t49.5 113t118.5 47t118.5 -47t49.5 -113t-49.5 -113t-118.5 -47z" />
    <glyph glyph-name="uni010C" unicode="&#x10c;" horiz-adv-x="2048" 
d="M1896 1408h-248q-30 142 -115 239t-205 147t-256 50q-186 0 -336.5 -94t-239 -277t-88.5 -449t88.5 -449t239 -277t336.5 -94q136 0 256 50t205 147t115 239h248q-28 -157 -102 -281t-184 -210.5t-246.5 -131.5t-291.5 -45q-262 0 -466 128t-321 364t-117 560t117 560
t321 364t466 128q206 0 379 -79.5t290 -229t155 -359.5zM832 2628l240 -240l244 240h192v-16l-368 -376h-136l-364 376v16h192z" />
    <glyph glyph-name="uni010D" unicode="&#x10d;" horiz-adv-x="1572" 
d="M840 -32q-216 0 -372 102t-240 281t-84 409q0 234 86.5 413.5t242 281t363.5 101.5q162 0 292 -60t213 -168t103 -252h-236q-27 105 -119.5 186.5t-248.5 81.5q-207 0 -333.5 -157.5t-126.5 -418.5q0 -267 125 -427.5t335 -160.5q138 0 236.5 71t131.5 197h236
q-20 -136 -98.5 -244.5t-207 -172t-298.5 -63.5zM592 2116l240 -240l244 240h192v-16l-368 -376h-136l-364 376v16h192z" />
    <glyph glyph-name="uni010E" unicode="&#x10e;" horiz-adv-x="2024" 
d="M880 0h-492v220h476q254 0 421 98t249 279t82 431q0 248 -81 427.5t-242 276t-401 96.5h-516v220h532q298 0 510 -122.5t325 -351t113 -546.5q0 -320 -114 -550.5t-332 -354t-530 -123.5zM496 2048v-2048h-248v2048h248zM608 2628l240 -240l244 240h192v-16l-368 -376
h-136l-364 376v16h192z" />
    <glyph glyph-name="uni010F" unicode="&#x10f;" horiz-adv-x="1924" 
d="M1500 0h-228v236h-28q-26 -42 -74 -105.5t-137 -113t-237 -49.5q-192 0 -339 97.5t-230 276t-83 422.5q0 242 83 420t231 275t342 97q150 0 237.5 -49.5t134 -112t72.5 -102.5h20v756h236v-2048zM1268 768q0 258 -112 417t-328 159q-150 0 -249.5 -76.5t-149 -207
t-49.5 -292.5q0 -164 50.5 -297.5t150 -212t247.5 -78.5q213 0 326.5 163.5t113.5 424.5zM1956 2048v-124q-3 -132 -42.5 -287.5t-117.5 -272.5l-200 40q34 80 62 170.5t45 180t17 165.5v128h236z" />
    <glyph glyph-name="uni0110" unicode="&#x110;" horiz-adv-x="2024" 
d="M880 0h-492v220h476q254 0 421 98t249 279t82 431q0 248 -81 427.5t-242 276t-401 96.5h-516v220h532q298 0 510 -122.5t325 -351t113 -546.5q0 -320 -114 -550.5t-332 -354t-530 -123.5zM496 2048v-2048h-248v2048h248zM-68 964v184h880v-184h-880z" />
    <glyph glyph-name="uni0111" unicode="&#x111;" horiz-adv-x="1716" 
d="M1500 0h-228v236h-28q-26 -42 -74 -105.5t-137 -113t-237 -49.5q-192 0 -339 97.5t-230 276t-83 422.5q0 242 83 420t231 275t342 97q150 0 237.5 -49.5t134 -112t72.5 -102.5h20v756h236v-2048zM1268 768q0 258 -112 417t-328 159q-150 0 -249.5 -76.5t-149 -207
t-49.5 -292.5q0 -164 50.5 -297.5t150 -212t247.5 -78.5q213 0 326.5 163.5t113.5 424.5zM940 1668v184h880v-184h-880z" />
    <glyph glyph-name="uni0112" unicode="&#x112;" horiz-adv-x="1684" 
d="M248 0v2048h1236v-220h-988v-692h924v-220h-924v-696h1004v-220h-1252zM1316 2524v-200h-940v200h940z" />
    <glyph glyph-name="uni0113" unicode="&#x113;" horiz-adv-x="1640" 
d="M860 -32q-222 0 -382.5 98.5t-247 276t-86.5 413.5t86.5 416.5t242 282t363.5 101.5q120 0 237 -40t213 -129.5t153 -236.5t57 -362v-100h-1184v204h944q0 195 -114 323.5t-306 128.5q-141 0 -243.5 -69.5t-157.5 -181t-55 -237.5v-136q0 -262 133 -401t347 -139
q139 0 239 60t145 180l228 -64q-54 -174 -216 -281t-396 -107zM1296 2012v-200h-940v200h940z" />
    <glyph glyph-name="uni0114" unicode="&#x114;" horiz-adv-x="1684" 
d="M248 0v2048h1236v-220h-988v-692h924v-220h-924v-696h1004v-220h-1252zM1040 2584h220q0 -162 -112 -265t-304 -103q-189 0 -300.5 103t-111.5 265h220q0 -78 43.5 -137t148.5 -59t150.5 59t45.5 137z" />
    <glyph glyph-name="uni0115" unicode="&#x115;" horiz-adv-x="1640" 
d="M860 -32q-222 0 -382.5 98.5t-247 276t-86.5 413.5t86.5 416.5t242 282t363.5 101.5q120 0 237 -40t213 -129.5t153 -236.5t57 -362v-100h-1184v204h944q0 195 -114 323.5t-306 128.5q-141 0 -243.5 -69.5t-157.5 -181t-55 -237.5v-136q0 -262 133 -401t347 -139
q139 0 239 60t145 180l228 -64q-54 -174 -216 -281t-396 -107zM1020 2072h220q0 -162 -112 -265t-304 -103q-189 0 -300.5 103t-111.5 265h220q0 -78 43.5 -137t148.5 -59t150.5 59t45.5 137z" />
    <glyph glyph-name="uni0116" unicode="&#x116;" horiz-adv-x="1684" 
d="M248 0v2048h1236v-220h-988v-692h924v-220h-924v-696h1004v-220h-1252zM844 2300q-69 0 -118.5 47t-49.5 113t49.5 113t118.5 47t118.5 -47t49.5 -113t-49.5 -113t-118.5 -47z" />
    <glyph glyph-name="uni0117" unicode="&#x117;" horiz-adv-x="1640" 
d="M860 -32q-222 0 -382.5 98.5t-247 276t-86.5 413.5t86.5 416.5t242 282t363.5 101.5q120 0 237 -40t213 -129.5t153 -236.5t57 -362v-100h-1184v204h944q0 195 -114 323.5t-306 128.5q-141 0 -243.5 -69.5t-157.5 -181t-55 -237.5v-136q0 -262 133 -401t347 -139
q139 0 239 60t145 180l228 -64q-54 -174 -216 -281t-396 -107zM824 1788q-69 0 -118.5 47t-49.5 113t49.5 113t118.5 47t118.5 -47t49.5 -113t-49.5 -113t-118.5 -47z" />
    <glyph glyph-name="uni0118" unicode="&#x118;" horiz-adv-x="1684" 
d="M248 0v2048h1236v-220h-988v-692h924v-220h-924v-696h1004v-220h-1252zM1312 -600q-123 0 -203.5 67.5t-80.5 196.5q0 74 36 148t116 143t212 129l108 -84q-90 -66 -161 -140t-71 -164q0 -45 22 -70.5t82 -25.5q45 0 80 12t56 24l16 -176q-33 -21 -86.5 -40.5
t-125.5 -19.5z" />
    <glyph glyph-name="uni0119" unicode="&#x119;" horiz-adv-x="1640" 
d="M860 -32q-222 0 -382.5 98.5t-247 276t-86.5 413.5t86.5 416.5t242 282t363.5 101.5q120 0 237 -40t213 -129.5t153 -236.5t57 -362v-100h-1184v204h944q0 195 -114 323.5t-306 128.5q-141 0 -243.5 -69.5t-157.5 -181t-55 -237.5v-136q0 -262 133 -401t347 -139
q139 0 239 60t145 180l228 -64q-54 -174 -216 -281t-396 -107zM868 -600q-123 0 -203.5 67.5t-80.5 196.5q0 74 36 148t116 143t212 129l108 -84q-90 -66 -161 -140t-71 -164q0 -45 22 -70.5t82 -25.5q45 0 80 12t56 24l16 -176q-33 -21 -86.5 -40.5t-125.5 -19.5z" />
    <glyph glyph-name="uni011A" unicode="&#x11a;" horiz-adv-x="1684" 
d="M248 0v2048h1236v-220h-988v-692h924v-220h-924v-696h1004v-220h-1252zM604 2628l240 -240l244 240h192v-16l-368 -376h-136l-364 376v16h192z" />
    <glyph glyph-name="uni011B" unicode="&#x11b;" horiz-adv-x="1640" 
d="M860 -32q-222 0 -382.5 98.5t-247 276t-86.5 413.5t86.5 416.5t242 282t363.5 101.5q120 0 237 -40t213 -129.5t153 -236.5t57 -362v-100h-1184v204h944q0 195 -114 323.5t-306 128.5q-141 0 -243.5 -69.5t-157.5 -181t-55 -237.5v-136q0 -262 133 -401t347 -139
q139 0 239 60t145 180l228 -64q-54 -174 -216 -281t-396 -107zM584 2116l240 -240l244 240h192v-16l-368 -376h-136l-364 376v16h192z" />
    <glyph glyph-name="uni011C" unicode="&#x11c;" horiz-adv-x="2092" 
d="M168 1024q0 324 114.5 560t317 364t464.5 128q216 0 392 -84.5t293 -235t155 -348.5h-256q-65 202 -213.5 319t-370.5 117q-182 0 -331 -94t-237 -277t-88 -449t89 -449t241 -277t342 -94q174 0 308.5 75.5t211 211t76.5 313.5v72l76 -72h-616v220h780v-220
q0 -253 -107.5 -440t-296 -289.5t-432.5 -102.5q-272 0 -477.5 128t-320 364t-114.5 560zM824 2264h-192v16l364 376h136l368 -376v-16h-192l-244 240z" />
    <glyph glyph-name="uni011D" unicode="&#x11d;" horiz-adv-x="1716" 
d="M828 -576q-246 0 -397 92.5t-223 215.5l188 132q30 -38 80.5 -92t135 -95t216.5 -41q118 0 218 40.5t160 124t58 211.5v272h-20q-26 -42 -73.5 -103.5t-136 -109t-238.5 -47.5q-186 0 -333.5 88t-233 256t-85.5 408q0 236 83 411.5t231 272t342 96.5q150 0 238.5 -49.5
t136 -112t73.5 -102.5h24v244h228v-1548q0 -198 -94 -322.5t-247 -183t-331 -58.5zM828 236q213 0 326.5 144.5t113.5 399.5q0 249 -112 406.5t-328 157.5q-150 0 -249.5 -76t-149 -204t-49.5 -284q0 -240 113 -392t335 -152zM648 1752h-192v16l364 376h136l368 -376v-16
h-192l-244 240z" />
    <glyph glyph-name="uni011E" unicode="&#x11e;" horiz-adv-x="2092" 
d="M168 1024q0 324 114.5 560t317 364t464.5 128q216 0 392 -84.5t293 -235t155 -348.5h-256q-65 202 -213.5 319t-370.5 117q-182 0 -331 -94t-237 -277t-88 -449t89 -449t241 -277t342 -94q174 0 308.5 75.5t211 211t76.5 313.5v72l76 -72h-616v220h780v-220
q0 -253 -107.5 -440t-296 -289.5t-432.5 -102.5q-272 0 -477.5 128t-320 364t-114.5 560zM1260 2584h220q0 -162 -112 -265t-304 -103q-189 0 -300.5 103t-111.5 265h220q0 -78 43.5 -137t148.5 -59t150.5 59t45.5 137z" />
    <glyph glyph-name="uni011F" unicode="&#x11f;" horiz-adv-x="1716" 
d="M828 -576q-246 0 -397 92.5t-223 215.5l188 132q30 -38 80.5 -92t135 -95t216.5 -41q118 0 218 40.5t160 124t58 211.5v272h-20q-26 -42 -73.5 -103.5t-136 -109t-238.5 -47.5q-186 0 -333.5 88t-233 256t-85.5 408q0 236 83 411.5t231 272t342 96.5q150 0 238.5 -49.5
t136 -112t73.5 -102.5h24v244h228v-1548q0 -198 -94 -322.5t-247 -183t-331 -58.5zM828 236q213 0 326.5 144.5t113.5 399.5q0 249 -112 406.5t-328 157.5q-150 0 -249.5 -76t-149 -204t-49.5 -284q0 -240 113 -392t335 -152zM1084 2072h220q0 -162 -112 -265t-304 -103
q-189 0 -300.5 103t-111.5 265h220q0 -78 43.5 -137t148.5 -59t150.5 59t45.5 137z" />
    <glyph glyph-name="uni0120" unicode="&#x120;" horiz-adv-x="2092" 
d="M168 1024q0 324 114.5 560t317 364t464.5 128q216 0 392 -84.5t293 -235t155 -348.5h-256q-65 202 -213.5 319t-370.5 117q-182 0 -331 -94t-237 -277t-88 -449t89 -449t241 -277t342 -94q174 0 308.5 75.5t211 211t76.5 313.5v72l76 -72h-616v220h780v-220
q0 -253 -107.5 -440t-296 -289.5t-432.5 -102.5q-272 0 -477.5 128t-320 364t-114.5 560zM1064 2300q-69 0 -118.5 47t-49.5 113t49.5 113t118.5 47t118.5 -47t49.5 -113t-49.5 -113t-118.5 -47z" />
    <glyph glyph-name="uni0121" unicode="&#x121;" horiz-adv-x="1716" 
d="M828 -576q-246 0 -397 92.5t-223 215.5l188 132q30 -38 80.5 -92t135 -95t216.5 -41q118 0 218 40.5t160 124t58 211.5v272h-20q-26 -42 -73.5 -103.5t-136 -109t-238.5 -47.5q-186 0 -333.5 88t-233 256t-85.5 408q0 236 83 411.5t231 272t342 96.5q150 0 238.5 -49.5
t136 -112t73.5 -102.5h24v244h228v-1548q0 -198 -94 -322.5t-247 -183t-331 -58.5zM828 236q213 0 326.5 144.5t113.5 399.5q0 249 -112 406.5t-328 157.5q-150 0 -249.5 -76t-149 -204t-49.5 -284q0 -240 113 -392t335 -152zM888 1788q-69 0 -118.5 47t-49.5 113t49.5 113
t118.5 47t118.5 -47t49.5 -113t-49.5 -113t-118.5 -47z" />
    <glyph glyph-name="uni0122" unicode="&#x122;" horiz-adv-x="2092" 
d="M168 1024q0 324 114.5 560t317 364t464.5 128q216 0 392 -84.5t293 -235t155 -348.5h-256q-65 202 -213.5 319t-370.5 117q-182 0 -331 -94t-237 -277t-88 -449t89 -449t241 -277t342 -94q174 0 308.5 75.5t211 211t76.5 313.5v72l76 -72h-616v220h780v-220
q0 -253 -107.5 -440t-296 -289.5t-432.5 -102.5q-272 0 -477.5 128t-320 364t-114.5 560zM1180 -128v-124q-3 -132 -42.5 -287.5t-117.5 -272.5l-200 40q34 80 62 170.5t45 180t17 165.5v128h236z" />
    <glyph glyph-name="uni0123" unicode="&#x123;" horiz-adv-x="1716" 
d="M828 -576q-246 0 -397 92.5t-223 215.5l188 132q30 -38 80.5 -92t135 -95t216.5 -41q118 0 218 40.5t160 124t58 211.5v272h-20q-26 -42 -73.5 -103.5t-136 -109t-238.5 -47.5q-186 0 -333.5 88t-233 256t-85.5 408q0 236 83 411.5t231 272t342 96.5q150 0 238.5 -49.5
t136 -112t73.5 -102.5h24v244h228v-1548q0 -198 -94 -322.5t-247 -183t-331 -58.5zM828 236q213 0 326.5 144.5t113.5 399.5q0 249 -112 406.5t-328 157.5q-150 0 -249.5 -76t-149 -204t-49.5 -284q0 -240 113 -392t335 -152zM744 1740v176q0 84 32.5 168t80 153t91.5 107
l156 -124q-48 -84 -66 -156.5t-18 -159.5v-164h-276z" />
    <glyph glyph-name="uni0124" unicode="&#x124;" horiz-adv-x="2084" 
d="M248 0v2048h248v-912h1092v912h248v-2048h-248v916h-1092v-916h-248zM812 2268h-192v16l364 376h136l368 -376v-16h-192l-244 240z" />
    <glyph glyph-name="uni0125" unicode="&#x125;" horiz-adv-x="1664" 
d="M452 924v-924h-236v2048h236v-752h20q54 119 162.5 189.5t289.5 70.5q157 0 275 -62.5t183.5 -191.5t65.5 -326v-976h-236v960q0 183 -94.5 283.5t-261.5 100.5q-175 0 -289.5 -109.5t-114.5 -310.5zM96 2264h-192v16l364 376h136l368 -376v-16h-192l-244 240z" />
    <glyph glyph-name="uni0126" unicode="&#x126;" horiz-adv-x="2188" 
d="M2052 1616v-208h-1916v208h1916zM300 0v2048h248v-912h1092v912h248v-2048h-248v916h-1092v-916h-248z" />
    <glyph glyph-name="uni0127" unicode="&#x127;" horiz-adv-x="1664" 
d="M452 924v-924h-236v2048h236v-752h20q54 119 162.5 189.5t289.5 70.5q157 0 275 -62.5t183.5 -191.5t65.5 -326v-976h-236v960q0 183 -94.5 283.5t-261.5 100.5q-175 0 -289.5 -109.5t-114.5 -310.5zM-104 1700v184h880v-184h-880z" />
    <glyph glyph-name="uni0128" unicode="&#x128;" horiz-adv-x="744" 
d="M496 2048v-2048h-248v2048h248zM64 2232l-184 8q0 102 40 180.5t109 123t155 44.5q76 0 130.5 -32t108 -64t125.5 -32q57 0 96.5 44.5t39.5 107.5l180 -16q0 -104 -40 -180.5t-109 -118t-155 -41.5q-69 0 -114 19.5t-80 44.5t-74 44.5t-96 19.5t-94.5 -44.5t-37.5 -107.5
z" />
    <glyph glyph-name="uni0129" unicode="&#x129;" horiz-adv-x="784" 
d="M84 1720l-184 8q0 102 40 180.5t109 123t155 44.5q76 0 130.5 -32t108 -64t125.5 -32q57 0 96.5 44.5t39.5 107.5l180 -16q0 -104 -40 -180.5t-109 -118t-155 -41.5q-69 0 -114 19.5t-80 44.5t-74 44.5t-96 19.5t-94.5 -44.5t-37.5 -107.5zM276 0v1536h236v-1536h-236z
" />
    <glyph glyph-name="uni012A" unicode="&#x12a;" horiz-adv-x="744" 
d="M496 2048v-2048h-248v2048h248zM844 2524v-200h-940v200h940z" />
    <glyph glyph-name="uni012B" unicode="&#x12b;" horiz-adv-x="668" 
d="M216 0v1536h236v-1536h-236zM808 2012v-200h-940v200h940z" />
    <glyph glyph-name="uni012C" unicode="&#x12c;" horiz-adv-x="744" 
d="M496 2048v-2048h-248v2048h248zM568 2584h220q0 -162 -112 -265t-304 -103q-189 0 -300.5 103t-111.5 265h220q0 -78 43.5 -137t148.5 -59t150.5 59t45.5 137z" />
    <glyph glyph-name="uni012D" unicode="&#x12d;" horiz-adv-x="668" 
d="M216 0v1536h236v-1536h-236zM532 2072h220q0 -162 -112 -265t-304 -103q-189 0 -300.5 103t-111.5 265h220q0 -78 43.5 -137t148.5 -59t150.5 59t45.5 137z" />
    <glyph glyph-name="uni012E" unicode="&#x12e;" horiz-adv-x="744" 
d="M496 2048v-2048h-248v2048h248zM308 -600q-123 0 -203.5 67.5t-80.5 196.5q0 74 36 148t116 143t212 129l108 -84q-90 -66 -161 -140t-71 -164q0 -45 22 -70.5t82 -25.5q45 0 80 12t56 24l16 -176q-33 -21 -86.5 -40.5t-125.5 -19.5z" />
    <glyph glyph-name="uni012F" unicode="&#x12f;" horiz-adv-x="672" 
d="M264 -600q-123 0 -203.5 67.5t-80.5 196.5q0 74 36 148t116 143t212 129l108 -84q-90 -66 -161 -140t-71 -164q0 -45 22 -70.5t82 -25.5q45 0 80 12t56 24l16 -176q-33 -21 -86.5 -40.5t-125.5 -19.5zM216 0v1536h236v-1536h-236zM336 1788q-69 0 -118.5 47t-49.5 113
t49.5 113t118.5 47t118.5 -47t49.5 -113t-49.5 -113t-118.5 -47z" />
    <glyph glyph-name="uni0130" unicode="&#x130;" horiz-adv-x="744" 
d="M496 2048v-2048h-248v2048h248zM372 2300q-69 0 -118.5 47t-49.5 113t49.5 113t118.5 47t118.5 -47t49.5 -113t-49.5 -113t-118.5 -47z" />
    <glyph glyph-name="uni0131" unicode="&#x131;" horiz-adv-x="668" 
d="M216 0v1536h236v-1536h-236z" />
    <glyph glyph-name="uni0132" unicode="&#x132;" horiz-adv-x="2272" 
d="M496 2048v-2048h-248v2048h248zM1776 584v1464h248v-1464q0 -196 -72 -333t-203 -208t-309 -71q-168 0 -299 61.5t-206 175.5t-75 271h244q0 -130 95 -209t241 -79q161 0 248.5 100.5t87.5 291.5z" />
    <glyph glyph-name="uni0133" unicode="&#x133;" horiz-adv-x="1336" 
d="M216 0v1536h236v-1536h-236zM336 1788q-69 0 -118.5 47t-49.5 113t49.5 113t118.5 47t118.5 -47t49.5 -113t-49.5 -113t-118.5 -47zM884 1536h236v-1648q0 -142 -48.5 -246t-146 -161t-245.5 -57h-48v220h44q108 0 158 63.5t50 180.5v1648zM1000 1788q-69 0 -118.5 47
t-49.5 113t49.5 113t118.5 47t118.5 -47t49.5 -113t-49.5 -113t-118.5 -47z" />
    <glyph glyph-name="uni0134" unicode="&#x134;" horiz-adv-x="1528" 
d="M1032 584v1464h248v-1464q0 -196 -72 -333t-203 -208t-309 -71q-168 0 -299 61.5t-206 175.5t-75 271h244q0 -130 95 -209t241 -79q161 0 248.5 100.5t87.5 291.5zM916 2264h-192v16l364 376h136l368 -376v-16h-192l-244 240z" />
    <glyph glyph-name="uni0135" unicode="&#x135;" horiz-adv-x="668" 
d="M216 1536h236v-1648q0 -142 -48.5 -246t-146 -161t-245.5 -57h-48v220h44q108 0 158 63.5t50 180.5v1648zM92 1752h-192v16l364 376h136l368 -376v-16h-192l-244 240z" />
    <glyph glyph-name="uni0136" unicode="&#x136;" horiz-adv-x="1836" 
d="M248 0v2048h248v-1016h24l920 1016h324l-860 -924l860 -1124h-300l-712 952l-256 -288v-664h-248zM1040 -128v-124q-3 -132 -42.5 -287.5t-117.5 -272.5l-200 40q34 80 62 170.5t45 180t17 165.5v128h236z" />
    <glyph glyph-name="uni0137" unicode="&#x137;" horiz-adv-x="1532" 
d="M436 560l-4 292h48l672 684h292l-716 -724h-20zM216 0v2048h236v-2048h-236zM1192 0l-600 760l168 164l732 -924h-300zM912 -128v-124q-3 -132 -42.5 -287.5t-117.5 -272.5l-200 40q34 80 62 170.5t45 180t17 165.5v128h236z" />
    <glyph glyph-name="uni0138" unicode="&#x138;" horiz-adv-x="1776" 
d="M516 1488v-1488h-276v1488h276zM1492 1488l-740 -860h-328l-44 236h248l532 624h332zM1188 0l-572 668l176 196l744 -864h-348z" />
    <glyph glyph-name="uni0139" unicode="&#x139;" horiz-adv-x="1584" 
d="M248 0v2048h248v-1828h952v-220h-1200zM260 2224l240 456h276l-308 -456h-208z" />
    <glyph glyph-name="uni013A" unicode="&#x13a;" horiz-adv-x="668" 
d="M452 2048v-2048h-236v2048h236zM220 2224l240 456h276l-308 -456h-208z" />
    <glyph glyph-name="uni013B" unicode="&#x13b;" horiz-adv-x="1584" 
d="M248 0v2048h248v-1828h952v-220h-1200zM968 -128v-124q-3 -132 -42.5 -287.5t-117.5 -272.5l-200 40q34 80 62 170.5t45 180t17 165.5v128h236z" />
    <glyph glyph-name="uni013C" unicode="&#x13c;" horiz-adv-x="668" 
d="M452 2048v-2048h-236v2048h236zM456 -128v-124q-3 -132 -42.5 -287.5t-117.5 -272.5l-200 40q34 80 62 170.5t45 180t17 165.5v128h236z" />
    <glyph glyph-name="uni013D" unicode="&#x13d;" horiz-adv-x="1584" 
d="M248 0v2048h248v-1828h952v-220h-1200zM1084 2048v-124q-3 -132 -42.5 -287.5t-117.5 -272.5l-200 40q34 80 62 170.5t45 180t17 165.5v128h236z" />
    <glyph glyph-name="uni013E" unicode="&#x13e;" horiz-adv-x="824" 
d="M452 2048v-2048h-236v2048h236zM856 2048v-124q-3 -132 -42.5 -287.5t-117.5 -272.5l-200 40q34 80 62 170.5t45 180t17 165.5v128h236z" />
    <glyph glyph-name="uni013F" unicode="&#x13f;" horiz-adv-x="1584" 
d="M248 0v2048h248v-1828h952v-220h-1200zM972 1008q-69 0 -118.5 47t-49.5 113t49.5 113t118.5 47t118.5 -47t49.5 -113t-49.5 -113t-118.5 -47z" />
    <glyph glyph-name="uni0140" unicode="&#x140;" horiz-adv-x="888" 
d="M452 2048v-2048h-236v2048h236zM748 980q-69 0 -118.5 47t-49.5 113t49.5 113t118.5 47t118.5 -47t49.5 -113t-49.5 -113t-118.5 -47z" />
    <glyph glyph-name="uni0141" unicode="&#x141;" horiz-adv-x="1584" 
d="M872 1280v-180l-812 -256v180zM248 0v2048h248v-1828h952v-220h-1200z" />
    <glyph glyph-name="uni0142" unicode="&#x142;" horiz-adv-x="668" 
d="M672 1280v-176l-676 -256v176zM452 2048v-2048h-236v2048h236z" />
    <glyph glyph-name="uni0143" unicode="&#x143;" horiz-adv-x="2120" 
d="M1872 2048v-2048h-240l-1116 1608h-20v-1608h-248v2048h240l1120 -1612h20v1612h244zM948 2224l240 456h276l-308 -456h-208z" />
    <glyph glyph-name="uni0144" unicode="&#x144;" horiz-adv-x="1648" 
d="M452 924v-924h-236v1536h228v-240h20q54 117 164 188.5t284 71.5q156 0 273 -63.5t182 -192t65 -324.5v-976h-236v960q0 181 -94 282.5t-258 101.5q-169 0 -280.5 -109.5t-111.5 -310.5zM712 1712l240 456h276l-308 -456h-208z" />
    <glyph glyph-name="uni0145" unicode="&#x145;" horiz-adv-x="2120" 
d="M1872 2048v-2048h-240l-1116 1608h-20v-1608h-248v2048h240l1120 -1612h20v1612h244zM1180 -128v-124q-3 -132 -42.5 -287.5t-117.5 -272.5l-200 40q34 80 62 170.5t45 180t17 165.5v128h236z" />
    <glyph glyph-name="uni0146" unicode="&#x146;" horiz-adv-x="1648" 
d="M452 924v-924h-236v1536h228v-240h20q54 117 164 188.5t284 71.5q156 0 273 -63.5t182 -192t65 -324.5v-976h-236v960q0 181 -94 282.5t-258 101.5q-169 0 -280.5 -109.5t-111.5 -310.5zM944 -128v-124q-3 -132 -42.5 -287.5t-117.5 -272.5l-200 40q34 80 62 170.5
t45 180t17 165.5v128h236z" />
    <glyph glyph-name="uni0147" unicode="&#x147;" horiz-adv-x="2120" 
d="M1872 2048v-2048h-240l-1116 1608h-20v-1608h-248v2048h240l1120 -1612h20v1612h244zM820 2628l240 -240l244 240h192v-16l-368 -376h-136l-364 376v16h192z" />
    <glyph glyph-name="uni0148" unicode="&#x148;" horiz-adv-x="1648" 
d="M452 924v-924h-236v1536h228v-240h20q54 117 164 188.5t284 71.5q156 0 273 -63.5t182 -192t65 -324.5v-976h-236v960q0 181 -94 282.5t-258 101.5q-169 0 -280.5 -109.5t-111.5 -310.5zM584 2116l240 -240l244 240h192v-16l-368 -376h-136l-364 376v16h192z" />
    <glyph glyph-name="uni014A" unicode="&#x14a;" horiz-adv-x="2120" 
d="M1632 0h240v-164q0 -132 -55.5 -224t-148 -140t-204.5 -48q-36 0 -72.5 1.5t-63.5 10.5v204q15 -3 35 -5.5t41 -2.5q96 0 162 44t66 164v160zM1872 2048v-2048h-240l-1116 1608h-20v-1608h-248v2048h240l1120 -1612h20v1612h244z" />
    <glyph glyph-name="uni014B" unicode="&#x14b;" horiz-adv-x="1648" 
d="M1196 0h236v-164q0 -198 -116 -305t-284 -107q-36 0 -72.5 1.5t-63.5 10.5v200q15 -3 35 -5.5t41 -2.5q96 0 160 44t64 164v164zM452 924v-924h-236v1536h228v-240h20q54 117 164 188.5t284 71.5q156 0 273 -63.5t182 -192t65 -324.5v-976h-236v960q0 181 -94 282.5
t-258 101.5q-169 0 -280.5 -109.5t-111.5 -310.5z" />
    <glyph glyph-name="uni014C" unicode="&#x14c;" horiz-adv-x="2144" 
d="M1976 1024q0 -324 -117 -560t-321 -364t-466 -128t-466 128t-321 364t-117 560t117 560t321 364t466 128t466 -128t321 -364t117 -560zM1736 1024q0 266 -88.5 449t-239 277t-336.5 94t-336.5 -94t-239 -277t-88.5 -449t88.5 -449t239 -277t336.5 -94t336.5 94t239 277
t88.5 449zM1544 2524v-200h-940v200h940z" />
    <glyph glyph-name="uni014D" unicode="&#x14d;" horiz-adv-x="1680" 
d="M840 -32q-208 0 -364.5 99t-244 277t-87.5 416q0 240 87.5 419t244 278t364.5 99t364.5 -99t244 -278t87.5 -419q0 -238 -87.5 -416t-244 -277t-364.5 -99zM840 180q158 0 260 81t151 213t49 286t-49 287t-151 215t-260 82t-260 -82t-151 -215t-49 -287t49 -286t151 -213
t260 -81zM1312 2012v-200h-940v200h940z" />
    <glyph glyph-name="uni014E" unicode="&#x14e;" horiz-adv-x="2144" 
d="M1976 1024q0 -324 -117 -560t-321 -364t-466 -128t-466 128t-321 364t-117 560t117 560t321 364t466 128t466 -128t321 -364t117 -560zM1736 1024q0 266 -88.5 449t-239 277t-336.5 94t-336.5 -94t-239 -277t-88.5 -449t88.5 -449t239 -277t336.5 -94t336.5 94t239 277
t88.5 449zM1268 2584h220q0 -162 -112 -265t-304 -103q-189 0 -300.5 103t-111.5 265h220q0 -78 43.5 -137t148.5 -59t150.5 59t45.5 137z" />
    <glyph glyph-name="uni014F" unicode="&#x14f;" horiz-adv-x="1680" 
d="M840 -32q-208 0 -364.5 99t-244 277t-87.5 416q0 240 87.5 419t244 278t364.5 99t364.5 -99t244 -278t87.5 -419q0 -238 -87.5 -416t-244 -277t-364.5 -99zM840 180q158 0 260 81t151 213t49 286t-49 287t-151 215t-260 82t-260 -82t-151 -215t-49 -287t49 -286t151 -213
t260 -81zM1036 2072h220q0 -162 -112 -265t-304 -103q-189 0 -300.5 103t-111.5 265h220q0 -78 43.5 -137t148.5 -59t150.5 59t45.5 137z" />
    <glyph glyph-name="uni0150" unicode="&#x150;" horiz-adv-x="2144" 
d="M1976 1024q0 -324 -117 -560t-321 -364t-466 -128t-466 128t-321 364t-117 560t117 560t321 364t466 128t466 -128t321 -364t117 -560zM1736 1024q0 266 -88.5 449t-239 277t-336.5 94t-336.5 -94t-239 -277t-88.5 -449t88.5 -449t239 -277t336.5 -94t336.5 94t239 277
t88.5 449zM1132 2216l308 424h264l-364 -424h-208zM720 2216l224 424h260l-296 -424h-188z" />
    <glyph glyph-name="uni0151" unicode="&#x151;" horiz-adv-x="1680" 
d="M840 -32q-208 0 -364.5 99t-244 277t-87.5 416q0 240 87.5 419t244 278t364.5 99t364.5 -99t244 -278t87.5 -419q0 -238 -87.5 -416t-244 -277t-364.5 -99zM840 180q158 0 260 81t151 213t49 286t-49 287t-151 215t-260 82t-260 -82t-151 -215t-49 -287t49 -286t151 -213
t260 -81zM900 1704l308 424h264l-364 -424h-208zM488 1704l224 424h260l-296 -424h-188z" />
    <glyph glyph-name="uni0152" unicode="&#x152;" horiz-adv-x="2684" 
d="M1072 0q-270 0 -473.5 128.5t-317 359t-113.5 536.5q0 308 113.5 538.5t317 358t473.5 127.5h276v-220h-276q-198 0 -347.5 -100t-233 -281t-83.5 -423q0 -240 83.5 -421t233 -282t347.5 -101h276v-220h-276zM1248 0v2048h1236v-220h-988v-692h924v-220h-924v-696h1004
v-220h-1252z" />
    <glyph glyph-name="uni0153" unicode="&#x153;" horiz-adv-x="2788" 
d="M840 -32q-208 0 -364.5 99t-244 277t-87.5 416q0 240 87.5 419t244 278t364.5 99t364.5 -99t244 -278t87.5 -419q0 -238 -87.5 -416t-244 -277t-364.5 -99zM840 180q158 0 260 81t151 213t49 286t-49 287t-151 215t-260 82t-260 -82t-151 -215t-49 -287t49 -286t151 -213
t260 -81zM2016 -32q-222 0 -382.5 98.5t-247 276t-86.5 413.5t86.5 416.5t242 282t363.5 101.5q120 0 237 -40t213 -129.5t153 -236.5t57 -362v-100h-1184v204h944q0 195 -114 323.5t-306 128.5q-142 0 -244 -69.5t-157 -181t-55 -237.5v-136q0 -262 133 -401t347 -139
q139 0 239 60t145 180l228 -64q-54 -174 -216 -281t-396 -107z" />
    <glyph glyph-name="uni0154" unicode="&#x154;" horiz-adv-x="1800" 
d="M248 0v2048h736q206 0 352 -79.5t223 -220t77 -324.5q0 -198 -94.5 -351t-289.5 -225l464 -848h-288l-432 800h-596v224h544q231 0 339.5 106.5t108.5 289.5q0 192 -108 300t-312 108h-476v-1828h-248zM768 2224l240 456h276l-308 -456h-208z" />
    <glyph glyph-name="uni0155" unicode="&#x155;" horiz-adv-x="1080" 
d="M216 0v1536h228v-232h16q41 114 151 185t249 71q64 0 112 -15t84 -41l-80 -200q-25 13 -58.5 20.5t-77.5 7.5q-168 0 -278 -102.5t-110 -257.5v-972h-236zM468 1712l240 456h276l-308 -456h-208z" />
    <glyph glyph-name="uni0156" unicode="&#x156;" horiz-adv-x="1800" 
d="M248 0v2048h736q206 0 352 -79.5t223 -220t77 -324.5q0 -198 -94.5 -351t-289.5 -225l464 -848h-288l-432 800h-596v224h544q231 0 339.5 106.5t108.5 289.5q0 192 -108 300t-312 108h-476v-1828h-248zM1044 -128v-124q-3 -132 -42.5 -287.5t-117.5 -272.5l-200 40
q34 80 62 170.5t45 180t17 165.5v128h236z" />
    <glyph glyph-name="uni0157" unicode="&#x157;" horiz-adv-x="1080" 
d="M216 0v1536h228v-232h16q41 114 151 185t249 71q64 0 112 -15t84 -41l-80 -200q-25 13 -58.5 20.5t-77.5 7.5q-168 0 -278 -102.5t-110 -257.5v-972h-236zM452 -128v-124q-3 -132 -42.5 -287.5t-117.5 -272.5l-200 40q34 80 62 170.5t45 180t17 165.5v128h236z" />
    <glyph glyph-name="uni0158" unicode="&#x158;" horiz-adv-x="1800" 
d="M248 0v2048h736q206 0 352 -79.5t223 -220t77 -324.5q0 -198 -94.5 -351t-289.5 -225l464 -848h-288l-432 800h-596v224h544q231 0 339.5 106.5t108.5 289.5q0 192 -108 300t-312 108h-476v-1828h-248zM640 2628l240 -240l244 240h192v-16l-368 -376h-136l-364 376v16
h192z" />
    <glyph glyph-name="uni0159" unicode="&#x159;" horiz-adv-x="1080" 
d="M216 0v1536h228v-232h16q41 114 151 185t249 71q64 0 112 -15t84 -41l-80 -200q-25 13 -58.5 20.5t-77.5 7.5q-168 0 -278 -102.5t-110 -257.5v-972h-236zM340 2116l240 -240l244 240h192v-16l-368 -376h-136l-364 376v16h192z" />
    <glyph glyph-name="uni015A" unicode="&#x15a;" horiz-adv-x="1796" 
d="M1368 1536q-18 152 -146 236t-314 84q-204 0 -328 -96.5t-124 -243.5q0 -110 67.5 -177.5t160 -105t168.5 -57.5l208 -56q80 -21 178.5 -58t189 -100.5t149.5 -162.5t59 -243q0 -166 -86.5 -300t-252 -213t-401.5 -79q-220 0 -380.5 71t-252 198t-103.5 295h256
q10 -116 78.5 -191.5t174 -112t227.5 -36.5q142 0 255 46.5t179 130t66 195.5q0 102 -57 166t-150 104t-201 70l-252 72q-240 69 -380 197t-140 335q0 172 93.5 300.5t252 200t354.5 71.5q198 0 352 -70.5t244.5 -192.5t95.5 -277h-240zM784 2224l240 456h276l-308 -456
h-208z" />
    <glyph glyph-name="uni015B" unicode="&#x15b;" horiz-adv-x="1472" 
d="M1304 1192l-212 -60q-31 80 -104 150t-228 70q-141 0 -234.5 -64.5t-93.5 -163.5q0 -88 64 -139t200 -85l228 -56q408 -100 408 -416q0 -133 -75.5 -236.5t-210.5 -163.5t-314 -60q-235 0 -389 102t-195 298l224 56q32 -124 121.5 -186t234.5 -62q165 0 262.5 70.5
t97.5 169.5q0 163 -228 216l-256 60q-211 50 -309.5 155.5t-98.5 264.5q0 130 73.5 230t201 157t289.5 57q228 0 358.5 -100t185.5 -264zM648 1712l240 456h276l-308 -456h-208z" />
    <glyph glyph-name="uni015C" unicode="&#x15c;" horiz-adv-x="1796" 
d="M1368 1536q-18 152 -146 236t-314 84q-204 0 -328 -96.5t-124 -243.5q0 -110 67.5 -177.5t160 -105t168.5 -57.5l208 -56q80 -21 178.5 -58t189 -100.5t149.5 -162.5t59 -243q0 -166 -86.5 -300t-252 -213t-401.5 -79q-220 0 -380.5 71t-252 198t-103.5 295h256
q10 -116 78.5 -191.5t174 -112t227.5 -36.5q142 0 255 46.5t179 130t66 195.5q0 102 -57 166t-150 104t-201 70l-252 72q-240 69 -380 197t-140 335q0 172 93.5 300.5t252 200t354.5 71.5q198 0 352 -70.5t244.5 -192.5t95.5 -277h-240zM656 2264h-192v16l364 376h136
l368 -376v-16h-192l-244 240z" />
    <glyph glyph-name="uni015D" unicode="&#x15d;" horiz-adv-x="1472" 
d="M1304 1192l-212 -60q-31 80 -104 150t-228 70q-141 0 -234.5 -64.5t-93.5 -163.5q0 -88 64 -139t200 -85l228 -56q408 -100 408 -416q0 -133 -75.5 -236.5t-210.5 -163.5t-314 -60q-235 0 -389 102t-195 298l224 56q32 -124 121.5 -186t234.5 -62q165 0 262.5 70.5
t97.5 169.5q0 163 -228 216l-256 60q-211 50 -309.5 155.5t-98.5 264.5q0 130 73.5 230t201 157t289.5 57q228 0 358.5 -100t185.5 -264zM520 1752h-192v16l364 376h136l368 -376v-16h-192l-244 240z" />
    <glyph glyph-name="uni015E" unicode="&#x15e;" horiz-adv-x="1796" 
d="M1368 1536q-18 152 -146 236t-314 84q-204 0 -328 -96.5t-124 -243.5q0 -110 67.5 -177.5t160 -105t168.5 -57.5l208 -56q80 -21 178.5 -58t189 -100.5t149.5 -162.5t59 -243q0 -166 -86.5 -300t-252 -213t-401.5 -79q-220 0 -380.5 71t-252 198t-103.5 295h256
q10 -116 78.5 -191.5t174 -112t227.5 -36.5q142 0 255 46.5t179 130t66 195.5q0 102 -57 166t-150 104t-201 70l-252 72q-240 69 -380 197t-140 335q0 172 93.5 300.5t252 200t354.5 71.5q198 0 352 -70.5t244.5 -192.5t95.5 -277h-240zM796 8h196l-16 -80q78 -12 143 -65.5
t65 -170.5q0 -129 -106.5 -210.5t-313.5 -81.5l-8 156q93 0 154.5 29.5t61.5 98.5t-51 94t-165 34z" />
    <glyph glyph-name="uni015F" unicode="&#x15f;" horiz-adv-x="1472" 
d="M1304 1192l-212 -60q-31 80 -104 150t-228 70q-141 0 -234.5 -64.5t-93.5 -163.5q0 -88 64 -139t200 -85l228 -56q408 -100 408 -416q0 -133 -75.5 -236.5t-210.5 -163.5t-314 -60q-235 0 -389 102t-195 298l224 56q32 -124 121.5 -186t234.5 -62q165 0 262.5 70.5
t97.5 169.5q0 163 -228 216l-256 60q-211 50 -309.5 155.5t-98.5 264.5q0 130 73.5 230t201 157t289.5 57q228 0 358.5 -100t185.5 -264zM652 8h196l-16 -80q78 -12 143 -65.5t65 -170.5q0 -129 -106.5 -210.5t-313.5 -81.5l-8 156q93 0 154.5 29.5t61.5 98.5t-51 94
t-165 34z" />
    <glyph glyph-name="uni0160" unicode="&#x160;" horiz-adv-x="1796" 
d="M1368 1536q-18 152 -146 236t-314 84q-204 0 -328 -96.5t-124 -243.5q0 -110 67.5 -177.5t160 -105t168.5 -57.5l208 -56q80 -21 178.5 -58t189 -100.5t149.5 -162.5t59 -243q0 -166 -86.5 -300t-252 -213t-401.5 -79q-220 0 -380.5 71t-252 198t-103.5 295h256
q10 -116 78.5 -191.5t174 -112t227.5 -36.5q142 0 255 46.5t179 130t66 195.5q0 102 -57 166t-150 104t-201 70l-252 72q-240 69 -380 197t-140 335q0 172 93.5 300.5t252 200t354.5 71.5q198 0 352 -70.5t244.5 -192.5t95.5 -277h-240zM656 2628l240 -240l244 240h192v-16
l-368 -376h-136l-364 376v16h192z" />
    <glyph glyph-name="uni0161" unicode="&#x161;" horiz-adv-x="1472" 
d="M1304 1192l-212 -60q-31 80 -104 150t-228 70q-141 0 -234.5 -64.5t-93.5 -163.5q0 -88 64 -139t200 -85l228 -56q408 -100 408 -416q0 -133 -75.5 -236.5t-210.5 -163.5t-314 -60q-235 0 -389 102t-195 298l224 56q32 -124 121.5 -186t234.5 -62q165 0 262.5 70.5
t97.5 169.5q0 163 -228 216l-256 60q-211 50 -309.5 155.5t-98.5 264.5q0 130 73.5 230t201 157t289.5 57q228 0 358.5 -100t185.5 -264zM520 2116l240 -240l244 240h192v-16l-368 -376h-136l-364 376v16h192z" />
    <glyph glyph-name="uni0162" unicode="&#x162;" horiz-adv-x="1808" 
d="M136 1828v220h1536v-220h-644v-1828h-248v1828h-644zM832 8h196l-16 -80q78 -12 143 -65.5t65 -170.5q0 -129 -106.5 -210.5t-313.5 -81.5l-8 156q93 0 154.5 29.5t61.5 98.5t-51 94t-165 34z" />
    <glyph glyph-name="uni0163" unicode="&#x163;" horiz-adv-x="1040" 
d="M884 1536v-200h-796v200h796zM320 1904h236v-1464q0 -100 29.5 -149.5t76 -66t98.5 -16.5q39 0 64 4.5t40 7.5l48 -212q-24 -9 -67 -18.5t-109 -9.5q-100 0 -195.5 43t-158 131t-62.5 222v1528zM584 8h196l-16 -80q78 -12 143 -65.5t65 -170.5q0 -129 -106.5 -210.5
t-313.5 -81.5l-8 156q93 0 154.5 29.5t61.5 98.5t-51 94t-165 34z" />
    <glyph glyph-name="uni0164" unicode="&#x164;" horiz-adv-x="1808" 
d="M136 1828v220h1536v-220h-644v-1828h-248v1828h-644zM664 2628l240 -240l244 240h192v-16l-368 -376h-136l-364 376v16h192z" />
    <glyph glyph-name="uni0165" unicode="&#x165;" horiz-adv-x="1000" 
d="M884 1536v-200h-796v200h796zM320 1904h236v-1464q0 -100 29.5 -149.5t76 -66t98.5 -16.5q39 0 64 4.5t40 7.5l48 -212q-24 -9 -67 -18.5t-109 -9.5q-100 0 -195.5 43t-158 131t-62.5 222v1528zM968 2304v-124q-3 -132 -42.5 -287.5t-117.5 -272.5l-200 40
q34 80 62 170.5t45 180t17 165.5v128h236z" />
    <glyph glyph-name="uni0166" unicode="&#x166;" horiz-adv-x="1808" 
d="M136 1828v220h1536v-220h-644v-1828h-248v1828h-644zM464 964v184h880v-184h-880z" />
    <glyph glyph-name="uni0167" unicode="&#x167;" horiz-adv-x="1040" 
d="M88 840v184h796v-184h-796zM884 1536v-200h-796v200h796zM320 1904h236v-1464q0 -100 29.5 -149.5t76 -66t98.5 -16.5q39 0 64 4.5t40 7.5l48 -212q-24 -9 -67 -18.5t-109 -9.5q-100 0 -195.5 43t-158 131t-62.5 222v1528z" />
    <glyph glyph-name="uni0168" unicode="&#x168;" horiz-adv-x="2088" 
d="M1592 2048h248v-1356q0 -230 -109 -393t-290 -249t-397 -86t-397 86t-290 249t-109 393v1356h248v-1356q0 -160 76 -270.5t201 -168t271 -57.5t271 57.5t201 168t76 270.5v1356zM736 2232l-184 8q0 102 40 180.5t109 123t155 44.5q76 0 130.5 -32t108 -64t125.5 -32
q57 0 96.5 44.5t39.5 107.5l180 -16q0 -104 -40 -180.5t-109 -118t-155 -41.5q-69 0 -114 19.5t-80 44.5t-74 44.5t-96 19.5t-94.5 -44.5t-37.5 -107.5z" />
    <glyph glyph-name="uni0169" unicode="&#x169;" horiz-adv-x="1636" 
d="M456 1720l-184 8q0 102 40 180.5t109 123t155 44.5q76 0 130.5 -32t108 -64t125.5 -32q57 0 96.5 44.5t39.5 107.5l180 -16q0 -104 -40 -180.5t-109 -118t-155 -41.5q-69 0 -114 19.5t-80 44.5t-74 44.5t-96 19.5t-94.5 -44.5t-37.5 -107.5zM1184 628v908h236v-1536h-236
v260h-16q-54 -117 -168 -198.5t-288 -81.5q-144 0 -256 63.5t-176 192t-64 324.5v976h236v-960q0 -168 94.5 -268t241.5 -100q88 0 179.5 45t154 138t62.5 237z" />
    <glyph glyph-name="uni016A" unicode="&#x16a;" horiz-adv-x="2088" 
d="M1592 2048h248v-1356q0 -230 -109 -393t-290 -249t-397 -86t-397 86t-290 249t-109 393v1356h248v-1356q0 -160 76 -270.5t201 -168t271 -57.5t271 57.5t201 168t76 270.5v1356zM1516 2524v-200h-940v200h940z" />
    <glyph glyph-name="uni016B" unicode="&#x16b;" horiz-adv-x="1636" 
d="M1184 628v908h236v-1536h-236v260h-16q-54 -117 -168 -198.5t-288 -81.5q-144 0 -256 63.5t-176 192t-64 324.5v976h236v-960q0 -168 94.5 -268t241.5 -100q88 0 179.5 45t154 138t62.5 237zM1292 2012v-200h-940v200h940z" />
    <glyph glyph-name="uni016C" unicode="&#x16c;" horiz-adv-x="2088" 
d="M1592 2048h248v-1356q0 -230 -109 -393t-290 -249t-397 -86t-397 86t-290 249t-109 393v1356h248v-1356q0 -160 76 -270.5t201 -168t271 -57.5t271 57.5t201 168t76 270.5v1356zM1240 2584h220q0 -162 -112 -265t-304 -103q-189 0 -300.5 103t-111.5 265h220
q0 -78 43.5 -137t148.5 -59t150.5 59t45.5 137z" />
    <glyph glyph-name="uni016D" unicode="&#x16d;" horiz-adv-x="1636" 
d="M1184 628v908h236v-1536h-236v260h-16q-54 -117 -168 -198.5t-288 -81.5q-144 0 -256 63.5t-176 192t-64 324.5v976h236v-960q0 -168 94.5 -268t241.5 -100q88 0 179.5 45t154 138t62.5 237zM1016 2072h220q0 -162 -112 -265t-304 -103q-189 0 -300.5 103t-111.5 265h220
q0 -78 43.5 -137t148.5 -59t150.5 59t45.5 137z" />
    <glyph glyph-name="uni016E" unicode="&#x16e;" horiz-adv-x="2088" 
d="M1592 2048h248v-1356q0 -230 -109 -393t-290 -249t-397 -86t-397 86t-290 249t-109 393v1356h248v-1356q0 -160 76 -270.5t201 -168t271 -57.5t271 57.5t201 168t76 270.5v1356zM680 2576q0 96 48.5 176t131 128t184.5 48t183.5 -48t129 -128t47.5 -176
q0 -144 -103.5 -242t-256.5 -98q-102 0 -184.5 45t-131 122t-48.5 173zM852 2576q0 -72 54 -130t138 -58t138 58t54 130q0 75 -54 135.5t-138 60.5t-138 -60.5t-54 -135.5z" />
    <glyph glyph-name="uni016F" unicode="&#x16f;" horiz-adv-x="1636" 
d="M1184 628v908h236v-1536h-236v260h-16q-54 -117 -168 -198.5t-288 -81.5q-144 0 -256 63.5t-176 192t-64 324.5v976h236v-960q0 -168 94.5 -268t241.5 -100q88 0 179.5 45t154 138t62.5 237zM456 2064q0 96 48.5 176t131 128t184.5 48t183.5 -48t129 -128t47.5 -176
q0 -144 -103.5 -242t-256.5 -98q-102 0 -184.5 45t-131 122t-48.5 173zM628 2064q0 -72 54 -130t138 -58t138 58t54 130q0 75 -54 135.5t-138 60.5t-138 -60.5t-54 -135.5z" />
    <glyph glyph-name="uni0170" unicode="&#x170;" horiz-adv-x="2088" 
d="M1592 2048h248v-1356q0 -230 -109 -393t-290 -249t-397 -86t-397 86t-290 249t-109 393v1356h248v-1356q0 -160 76 -270.5t201 -168t271 -57.5t271 57.5t201 168t76 270.5v1356zM1104 2216l308 424h264l-364 -424h-208zM692 2216l224 424h260l-296 -424h-188z" />
    <glyph glyph-name="uni0171" unicode="&#x171;" horiz-adv-x="1636" 
d="M1184 628v908h236v-1536h-236v260h-16q-54 -117 -168 -198.5t-288 -81.5q-144 0 -256 63.5t-176 192t-64 324.5v976h236v-960q0 -168 94.5 -268t241.5 -100q88 0 179.5 45t154 138t62.5 237zM880 1704l308 424h264l-364 -424h-208zM468 1704l224 424h260l-296 -424h-188z
" />
    <glyph glyph-name="uni0172" unicode="&#x172;" horiz-adv-x="2088" 
d="M1592 2048h248v-1356q0 -230 -109 -393t-290 -249t-397 -86t-397 86t-290 249t-109 393v1356h248v-1356q0 -160 76 -270.5t201 -168t271 -57.5t271 57.5t201 168t76 270.5v1356zM1052 -596q-123 0 -203.5 67.5t-80.5 196.5q0 74 36 148t116 143t212 129l108 -84
q-90 -66 -161 -140t-71 -164q0 -45 22 -70.5t82 -25.5q45 0 80 12t56 24l16 -176q-33 -21 -86.5 -40.5t-125.5 -19.5z" />
    <glyph glyph-name="uni0173" unicode="&#x173;" horiz-adv-x="1636" 
d="M1184 628v908h236v-1536h-236v260h-16q-54 -117 -168 -198.5t-288 -81.5q-144 0 -256 63.5t-176 192t-64 324.5v976h236v-960q0 -168 94.5 -268t241.5 -100q88 0 179.5 45t154 138t62.5 237zM1232 -600q-123 0 -203.5 67.5t-80.5 196.5q0 74 36 148t116 143t212 129
l108 -84q-90 -66 -161 -140t-71 -164q0 -45 22 -70.5t82 -25.5q45 0 80 12t56 24l16 -176q-33 -21 -86.5 -40.5t-125.5 -19.5z" />
    <glyph glyph-name="uni0174" unicode="&#x174;" horiz-adv-x="2672" 
d="M620 0l-560 2048h252l428 -1668h20l436 1668h280l436 -1668h20l428 1668h252l-560 -2048h-256l-452 1632h-16l-452 -1632h-256zM1096 2264h-192v16l364 376h136l368 -376v-16h-192l-244 240z" />
    <glyph glyph-name="uni0175" unicode="&#x175;" horiz-adv-x="2288" 
d="M564 0l-468 1536h248l332 -1176h16l328 1176h252l324 -1172h16l332 1172h248l-468 -1536h-232l-336 1180h-24l-336 -1180h-232zM904 1752h-192v16l364 376h136l368 -376v-16h-192l-244 240z" />
    <glyph glyph-name="uni0176" unicode="&#x176;" horiz-adv-x="1880" 
d="M76 2048h284l568 -956h24l568 956h284l-740 -1204v-844h-248v844zM700 2264h-192v16l364 376h136l368 -376v-16h-192l-244 240z" />
    <glyph glyph-name="uni0177" unicode="&#x177;" horiz-adv-x="1568" 
d="M360 -596q-60 0 -107 9.5t-65 18.5l60 208q129 -33 213.5 2t150.5 206l56 140l-572 1548h256l424 -1224h16l424 1224h256l-660 -1784q-44 -118 -108.5 -195t-150 -115t-193.5 -38zM540 1752h-192v16l364 376h136l368 -376v-16h-192l-244 240z" />
    <glyph glyph-name="uni0178" unicode="&#x178;" horiz-adv-x="1880" 
d="M76 2048h284l568 -956h24l568 956h284l-740 -1204v-844h-248v844zM656 2300q-63 0 -111.5 48.5t-48.5 111.5q0 69 48.5 114.5t111.5 45.5q69 0 114.5 -45.5t45.5 -114.5q0 -63 -45.5 -111.5t-114.5 -48.5zM1224 2300q-63 0 -111.5 48.5t-48.5 111.5q0 69 48.5 114.5
t111.5 45.5q69 0 114.5 -45.5t45.5 -114.5q0 -63 -45.5 -111.5t-114.5 -48.5z" />
    <glyph glyph-name="uni0179" unicode="&#x179;" horiz-adv-x="1760" 
d="M180 0v180l1104 1648h-1116v220h1412v-180l-1104 -1648h1116v-220h-1412zM768 2224l240 456h276l-308 -456h-208z" />
    <glyph glyph-name="uni017A" unicode="&#x17a;" horiz-adv-x="1524" 
d="M172 0v180l872 1120v16h-884v220h1188v-188l-848 -1112v-16h864v-220h-1192zM648 1712l240 456h276l-308 -456h-208z" />
    <glyph glyph-name="uni017B" unicode="&#x17b;" horiz-adv-x="1760" 
d="M180 0v180l1104 1648h-1116v220h1412v-180l-1104 -1648h1116v-220h-1412zM880 2300q-69 0 -118.5 47t-49.5 113t49.5 113t118.5 47t118.5 -47t49.5 -113t-49.5 -113t-118.5 -47z" />
    <glyph glyph-name="uni017C" unicode="&#x17c;" horiz-adv-x="1524" 
d="M172 0v180l872 1120v16h-884v220h1188v-188l-848 -1112v-16h864v-220h-1192zM760 1788q-69 0 -118.5 47t-49.5 113t49.5 113t118.5 47t118.5 -47t49.5 -113t-49.5 -113t-118.5 -47z" />
    <glyph glyph-name="uni017D" unicode="&#x17d;" horiz-adv-x="1760" 
d="M180 0v180l1104 1648h-1116v220h1412v-180l-1104 -1648h1116v-220h-1412zM640 2628l240 -240l244 240h192v-16l-368 -376h-136l-364 376v16h192z" />
    <glyph glyph-name="uni017E" unicode="&#x17e;" horiz-adv-x="1524" 
d="M172 0v180l872 1120v16h-884v220h1188v-188l-848 -1112v-16h864v-220h-1192zM520 2116l240 -240l244 240h192v-16l-368 -376h-136l-364 376v16h192z" />
    <glyph glyph-name="uni017F" unicode="&#x17f;" horiz-adv-x="752" 
d="M316 0h-276v1640q0 243 127 371.5t349 128.5q48 0 98 -8t98 -20l-32 -204q-24 6 -54 9t-66 3q-120 0 -182 -74t-62 -206v-1640z" />
    <glyph glyph-name="uni0180" unicode="&#x180;" horiz-adv-x="1716" 
d="M216 0v2048h236v-756h20q26 40 72.5 102.5t134 112t237.5 49.5q194 0 342 -97t231 -275t83 -420q0 -244 -83 -422.5t-230 -276t-339 -97.5q-148 0 -237 49.5t-137 113t-74 105.5h-28v-236h-228zM448 768q0 -261 113.5 -424.5t326.5 -163.5q148 0 247.5 78.5t150 212
t50.5 297.5q0 162 -49.5 292.5t-149 207t-249.5 76.5q-216 0 -328 -159t-112 -417zM-104 1668v184h880v-184h-880z" />
    <glyph glyph-name="uni0181" unicode="&#x181;" horiz-adv-x="2260" 
d="M744 1828h-196q-80 0 -118.5 -35.5t-50 -92t-11.5 -120.5v-76h-232v136q0 168 105 288t303 120h200v-220zM676 0v2048h716q214 0 353 -73.5t207 -197t68 -273.5q0 -132 -46.5 -218t-122 -136t-163.5 -74v-20q94 -6 189 -66t159 -172t64 -274q0 -154 -70 -277t-221 -195
t-393 -72h-740zM924 220h492q243 0 345.5 94.5t102.5 229.5q0 104 -53 192.5t-151 142t-232 53.5h-504v-712zM924 1148h460q168 0 284 97t116 259q0 135 -94 229.5t-298 94.5h-468v-680z" />
    <glyph glyph-name="uni0182" unicode="&#x182;" horiz-adv-x="1840" 
d="M248 0v2048h1236v-220h-988v-640h520q220 0 371.5 -72t230 -203t78.5 -309t-78.5 -314t-230 -213t-371.5 -77h-768zM496 216h520q140 0 237.5 56.5t148 146t50.5 189.5q0 147 -113 253.5t-323 106.5h-520v-752z" />
    <glyph glyph-name="uni0183" unicode="&#x183;" horiz-adv-x="1716" 
d="M1400 2048v-220h-948v220h948zM216 0v2048h236v-756h20q26 40 72.5 102.5t134 112t237.5 49.5q194 0 342 -97t231 -275t83 -420q0 -244 -83 -422.5t-230 -276t-339 -97.5q-148 0 -237 49.5t-137 113t-74 105.5h-28v-236h-228zM448 768q0 -261 113.5 -424.5t326.5 -163.5
q148 0 247.5 78.5t150 212t50.5 297.5q0 162 -49.5 292.5t-149 207t-249.5 76.5q-216 0 -328 -159t-112 -417z" />
    <glyph glyph-name="uni0184" unicode="&#x184;" horiz-adv-x="2012" 
d="M756 2048v-220h-728v220h728zM692 1188h584q220 0 371.5 -72t230 -203t78.5 -309t-78.5 -314t-230 -213t-371.5 -77h-768v2048h248v-1832h520q140 0 237.5 56.5t148 146t50.5 189.5q0 147 -113 253.5t-323 106.5h-584v220z" />
    <glyph glyph-name="uni0185" unicode="&#x185;" horiz-adv-x="1776" 
d="M328 2112h64v-672h-64l-224 280v112zM488 1292h116q26 40 72.5 102.5t134 112t237.5 49.5q194 0 342 -97t231 -275t83 -420q0 -244 -83 -422.5t-230 -276t-339 -97.5q-148 0 -237 49.5t-137 113t-74 105.5h-116v1056zM1468 768q0 162 -49.5 292.5t-149 207t-249.5 76.5
q-144 0 -242 -72.5t-148 -202t-50 -301.5q0 -174 51 -306.5t149 -207t240 -74.5q148 0 247.5 78.5t150 212t50.5 297.5zM348 2048h236v-876l-80 -388l72 -496v-288h-228v2048z" />
    <glyph glyph-name="uni0186" unicode="&#x186;" horiz-adv-x="2048" 
d="M976 -28q-154 0 -291 45t-247 131.5t-183.5 210.5t-102.5 281h248q30 -142 115 -239t205 -147t256 -50q186 0 336.5 94t239 277t88.5 449t-88.5 449t-239 277t-336.5 94q-136 0 -256 -50t-205 -147t-115 -239h-248q38 210 155 359.5t290 229t379 79.5q262 0 466 -128
t321 -364t117 -560t-117 -560t-321 -364t-466 -128z" />
    <glyph glyph-name="uni0187" unicode="&#x187;" horiz-adv-x="2172" 
d="M1896 1408h-236v256q0 132 53.5 224t144 140t202.5 48q36 0 72.5 -1.5t63.5 -10.5v-200q-15 3 -35 5.5t-41 2.5q-64 0 -114.5 -18.5t-80 -64t-29.5 -125.5v-256zM1896 1408h-248q-30 142 -115 239t-205 147t-256 50q-186 0 -336.5 -94t-239 -277t-88.5 -449t88.5 -449
t239 -277t336.5 -94q136 0 256 50t205 147t115 239h248q-28 -157 -102 -281t-184 -210.5t-246.5 -131.5t-291.5 -45q-262 0 -466 128t-321 364t-117 560t117 560t321 364t466 128q206 0 379 -79.5t290 -229t155 -359.5z" />
    <glyph glyph-name="uni0188" unicode="&#x188;" horiz-adv-x="1720" 
d="M1444 1076h-236v200q0 132 53.5 224t144 140t202.5 48q36 0 72.5 -1.5t63.5 -10.5v-200q-15 3 -35 5.5t-41 2.5q-96 0 -160 -44t-64 -164v-200zM840 -32q-216 0 -372 102t-240 281t-84 409q0 234 86.5 413.5t242 281t363.5 101.5q162 0 292 -60t213 -168t103 -252h-236
q-27 105 -119.5 186.5t-248.5 81.5q-207 0 -333.5 -157.5t-126.5 -418.5q0 -267 125 -427.5t335 -160.5q138 0 236.5 71t131.5 197h236q-20 -136 -98.5 -244.5t-207 -172t-298.5 -63.5z" />
    <glyph glyph-name="uni0189" unicode="&#x189;" horiz-adv-x="2024" 
d="M880 0h-492v220h476q254 0 421 98t249 279t82 431q0 248 -81 427.5t-242 276t-401 96.5h-516v220h532q298 0 510 -122.5t325 -351t113 -546.5q0 -320 -114 -550.5t-332 -354t-530 -123.5zM496 2048v-2048h-248v2048h248zM-68 964v184h880v-184h-880z" />
    <glyph glyph-name="uni018A" unicode="&#x18a;" horiz-adv-x="2340" 
d="M616 1828h-196q-80 0 -118.5 -35.5t-50 -92t-11.5 -120.5v-76h-232v136q0 168 105 288t303 120h200v-220zM1196 0h-492v220h476q254 0 421 98t249 279t82 431q0 248 -81 427.5t-242 276t-401 96.5h-516v220h532q298 0 510 -122.5t325 -351t113 -546.5q0 -320 -114 -550.5
t-332 -354t-530 -123.5zM812 2048v-2048h-248v2048h248z" />
    <glyph glyph-name="uni018B" unicode="&#x18b;" horiz-adv-x="1776" 
d="M1612 0h-764q-220 0 -372.5 77t-232 213t-79.5 314t79.5 311t232 207t372.5 74h480v576h-948v232h1232v-2004zM1328 228v736h-480q-213 0 -304.5 -104.5t-91.5 -251.5q0 -100 40 -186.5t127 -140t229 -53.5h480z" />
    <glyph glyph-name="uni018C" unicode="&#x18c;" horiz-adv-x="1716" 
d="M1500 0h-228v236h-28q-26 -42 -74 -105.5t-137 -113t-237 -49.5q-192 0 -339 97.5t-230 276t-83 422.5q0 242 83 420t231 275t342 97q150 0 237.5 -49.5t134 -112t72.5 -102.5h20v756h236v-2048zM1268 768q0 258 -112 417t-328 159q-150 0 -249.5 -76.5t-149 -207
t-49.5 -292.5q0 -164 50.5 -297.5t150 -212t247.5 -78.5q213 0 326.5 163.5t113.5 424.5zM316 2048h948v-220h-948v220z" />
    <glyph glyph-name="uni018D" unicode="&#x18d;" horiz-adv-x="1520" 
d="M1236 -516h-976v212h608q-16 22 -63.5 69t-104 99t-100.5 88q-148 128 -261.5 253.5t-178 260t-64.5 290.5v28q0 208 78.5 373.5t227 262t358.5 96.5t359.5 -96.5t229 -262t79.5 -373.5v-28q0 -164 -73.5 -303.5t-212 -232t-334.5 -116.5q-21 -3 -27 -3.5t-21 -0.5
q60 -55 123 -111.5t125.5 -113t120.5 -113.5t107 -114v-164zM1152 756v28q0 138 -40.5 254.5t-127 187t-224.5 70.5q-136 0 -222.5 -70.5t-128 -187t-41.5 -254.5v-28q0 -162 76 -283.5t172 -184.5q27 -9 55.5 -12.5t64.5 -3.5q144 0 236 67.5t136 178t44 238.5z" />
    <glyph glyph-name="uni018E" unicode="&#x18e;" horiz-adv-x="1668" 
d="M1428 2048v-2048h-1236v220h988v692h-924v220h924v696h-1004v220h1252z" />
    <glyph glyph-name="uni018F" unicode="&#x18f;" horiz-adv-x="2032" 
d="M1016 -28q-274 0 -458 112.5t-277 319t-93 488.5v172h1484v-216h-1200v-44q0 -168 51 -304t170 -216t323 -80q174 0 295.5 99t185 266t63.5 371v116q0 206 -63.5 374t-201 267t-359.5 99q-177 0 -295 -35.5t-193 -68.5l-68 208q28 18 99 49.5t185 57t272 25.5
q294 0 497.5 -125t309 -345t105.5 -506v-116q0 -286 -112 -504t-301 -341t-419 -123z" />
    <glyph glyph-name="uni0190" unicode="&#x190;" horiz-adv-x="1776" 
d="M1112 960h-232q-200 0 -354.5 59t-242 171t-87.5 270q0 186 89 313.5t249 193t374 65.5q184 0 337.5 -67t246 -191t92.5 -294h-284q0 141 -110.5 230.5t-281.5 89.5q-225 0 -326.5 -97.5t-101.5 -238.5q0 -144 93 -236t315 -92h224v-176zM880 1080h232v-172h-224
q-216 0 -326 -84.5t-110 -267.5q0 -180 123 -268t333 -88q195 0 307.5 104.5t112.5 251.5h284q0 -153 -60.5 -263.5t-162.5 -181.5t-227 -105t-254 -34q-210 0 -378.5 59.5t-267 189t-98.5 339.5q0 252 190 386t526 134z" />
    <glyph glyph-name="uni0191" unicode="&#x191;" horiz-adv-x="1652" 
d="M248 0h248v-164q0 -99 -30 -175.5t-88.5 -129.5t-146 -80t-203.5 -27q-12 0 -21.5 1.5t-54.5 10.5v204q15 -3 35 -5.5t41 -2.5q96 0 158 44t62 164v160zM248 0v2048h1228v-220h-980v-692h888v-220h-888v-916h-248z" />
    <glyph glyph-name="uni0192" unicode="&#x192;" horiz-adv-x="1088" 
d="M912 1488v-204h-280v-1408q0 -231 -113 -353.5t-323 -122.5q-42 0 -79.5 4t-76.5 16l20 216q21 -9 69.5 -12.5t66.5 -3.5q81 0 134.5 68t53.5 188v1408h-248v204h248v152q0 243 121 371.5t307 128.5q57 0 127 -10.5t109 -25.5l-60 -216q-21 6 -48.5 11t-63.5 5
q-120 0 -182 -66t-62 -198v-152h280z" />
    <glyph glyph-name="uni0193" unicode="&#x193;" horiz-adv-x="2176" 
d="M1900 1408h-252l12 216q6 99 34 175.5t78 129.5t123 80t169 27q36 0 72.5 -1.5t63.5 -10.5v-200q-15 3 -35 5.5t-41 2.5q-64 0 -114.5 -18.5t-80 -64t-29.5 -125.5v-216zM168 1024q0 324 114.5 560t317 364t464.5 128q216 0 392 -84.5t293 -235t155 -348.5h-256
q-65 202 -213.5 319t-370.5 117q-182 0 -331 -94t-237 -277t-88 -449t89 -449t241 -277t342 -94q174 0 308.5 75.5t211 211t76.5 313.5v72l76 -72h-616v220h780v-220q0 -253 -107.5 -440t-296 -289.5t-432.5 -102.5q-272 0 -477.5 128t-320 364t-114.5 560z" />
    <glyph glyph-name="uni0194" unicode="&#x194;" horiz-adv-x="1776" 
d="M28 2048h268l700 -1660q59 -138 107 -241t83.5 -179t54.5 -134t19 -106q0 -104 -44.5 -177.5t-128 -112t-199.5 -38.5t-199.5 38.5t-128 112t-44.5 177.5q0 51 18 109.5t51.5 134t81 177t105.5 239.5l708 1660h268l-816 -1892q-75 -174 -119.5 -271t-44.5 -157
q0 -42 33 -73t87 -31t87 32.5t33 71.5q0 60 -41 154t-119 274z" />
    <glyph glyph-name="uni0195" unicode="&#x195;" horiz-adv-x="2664" 
d="M216 0v2048h236v-752h20q54 119 162.5 189.5t289.5 70.5q157 0 275 -62.5t183.5 -191.5t65.5 -326v-208h-236v192q0 183 -94.5 283.5t-261.5 100.5q-175 0 -289.5 -109.5t-114.5 -310.5v-924h-236zM1724 -28q-142 0 -258.5 66.5t-185 207.5t-68.5 362v160h236v-160
q0 -180 48 -272t116.5 -124t127.5 -32q125 0 232.5 110t173.5 362t66 676v208h236v-208q0 -480 -96 -779t-260 -438t-368 -139z" />
    <glyph glyph-name="uni0196" unicode="&#x196;" horiz-adv-x="1008" 
d="M444 2112v-1640q0 -129 62 -204.5t182 -75.5q36 0 66 5t54 11l32 -208q-48 -12 -98 -20t-98 -8q-222 0 -349 130t-127 370v1640h276z" />
    <glyph glyph-name="uni0197" unicode="&#x197;" horiz-adv-x="744" 
d="M496 2048v-2048h-248v2048h248zM-68 964v184h880v-184h-880z" />
    <glyph glyph-name="uni0198" unicode="&#x198;" horiz-adv-x="1892" 
d="M248 0v2048h248v-1016h24l812 896q120 132 266.5 143.5t269.5 -75.5l-100 -184q-66 42 -134.5 32.5t-145.5 -92.5l-584 -628l860 -1124h-300l-712 952l-256 -288v-664h-248z" />
    <glyph glyph-name="uni0199" unicode="&#x199;" horiz-adv-x="1500" 
d="M1176 0l-540 708l-184 -200v-508h-236v1600h236v-756h20l624 692h300l-604 -656l668 -880h-284zM452 1464h-236v200q0 99 30.5 175.5t85.5 129.5t127.5 80t156.5 27q36 0 72.5 -1.5t63.5 -10.5v-200q-15 3 -35 5.5t-41 2.5q-96 0 -160 -44t-64 -164v-200z" />
    <glyph glyph-name="uni019A" unicode="&#x19a;" horiz-adv-x="668" 
d="M452 2048v-2048h-236v2048h236zM-104 964v184h880v-184h-880z" />
    <glyph glyph-name="uni019B" unicode="&#x19b;" horiz-adv-x="1776" 
d="M944 1952v-236l-676 -256v232zM848 1088l-392 -1088h-304l576 1516l192 -12zM468 2088q153 0 227.5 -60t116.5 -168l596 -1536q18 -44 36 -68.5t40 -34t52 -9.5h25.5h22.5l8 -220q-15 -6 -45 -11t-63 -5q-82 0 -142 17.5t-109 76t-97 182.5l-424 1092l-160 396
q-30 75 -67.5 101.5t-88.5 26.5q-12 0 -32 -0.5t-32 -3.5v208q18 6 62 11t74 5z" />
    <glyph glyph-name="uni019C" unicode="&#x19c;" horiz-adv-x="2544" 
d="M2044 292v1712h272v-2004h-260zM2064 692l128 4q0 -208 -57 -371.5t-182 -258t-329 -94.5q-146 0 -256 59t-171 198t-61 379v1396h272v-1396q0 -164 38.5 -252.5t98 -122t123.5 -33.5q148 0 234.5 65.5t124 177t37.5 249.5zM1160 692l128 4q0 -208 -58 -371.5t-184 -258
t-330 -94.5q-148 0 -257.5 60t-170 199t-60.5 377v1396h276v-1396q0 -164 37.5 -252.5t96 -122t122.5 -33.5q148 0 235.5 65.5t126 177t38.5 249.5z" />
    <glyph glyph-name="uni019D" unicode="&#x19d;" horiz-adv-x="2132" 
d="M260 0h248v-164q0 -99 -32 -175.5t-88 -129.5t-130 -80t-158 -27q-36 0 -72.5 1.5t-63.5 10.5v204q15 -3 35 -5.5t41 -2.5q96 0 158 44t62 164v160zM1884 2048v-2048h-240l-1116 1608h-20v-1608h-248v2048h240l1120 -1612h20v1612h244z" />
    <glyph glyph-name="uni019E" unicode="&#x19e;" horiz-adv-x="1648" 
d="M452 924v-924h-236v1536h228v-240h20q54 117 164 188.5t284 71.5q156 0 273 -63.5t182 -192t65 -324.5v-1552h-236v1536q0 180 -93.5 282t-258.5 102q-168 0 -280 -109.5t-112 -310.5z" />
    <glyph glyph-name="uni019F" unicode="&#x19f;" horiz-adv-x="2144" 
d="M1776 1136v-220q-144 -67 -265 -78.5t-228.5 9.5t-210.5 54t-210.5 57.5t-228.5 19.5t-265 -62v220q144 66 265 77t228.5 -10.5t210.5 -54.5t210.5 -57t228.5 -18.5t265 63.5zM1976 1024q0 -324 -117 -560t-321 -364t-466 -128t-466 128t-321 364t-117 560t117 560
t321 364t466 128t466 -128t321 -364t117 -560zM1736 1024q0 266 -88.5 449t-239 277t-336.5 94t-336.5 -94t-239 -277t-88.5 -449t88.5 -449t239 -277t336.5 -94t336.5 94t239 277t88.5 449z" />
    <glyph glyph-name="uni01A0" unicode="&#x1a0;" horiz-adv-x="2180" 
d="M1904 2196h236q0 -270 -134.5 -417t-401.5 -147v196q156 0 228 97t72 271zM1976 1024q0 -324 -117 -560t-321 -364t-466 -128t-466 128t-321 364t-117 560t117 560t321 364t466 128t466 -128t321 -364t117 -560zM1736 1024q0 266 -88.5 449t-239 277t-336.5 94
t-336.5 -94t-239 -277t-88.5 -449t88.5 -449t239 -277t336.5 -94t336.5 94t239 277t88.5 449z" />
    <glyph glyph-name="uni01A1" unicode="&#x1a1;" horiz-adv-x="1684" 
d="M1464 1652h220q0 -228 -99.5 -362t-348.5 -134v168q100 0 148.5 41t64 115t15.5 172zM840 -32q-208 0 -364.5 99t-244 277t-87.5 416q0 240 87.5 419t244 278t364.5 99t364.5 -99t244 -278t87.5 -419q0 -238 -87.5 -416t-244 -277t-364.5 -99zM840 180q158 0 260 81
t151 213t49 286t-49 287t-151 215t-260 82t-260 -82t-151 -215t-49 -287t49 -286t151 -213t260 -81z" />
    <glyph glyph-name="uni01A2" unicode="&#x1a2;" horiz-adv-x="2288" 
d="M1680 1000v-728q-36 -56 -114 -126.5t-220 -122t-370 -51.5q-242 0 -432 110t-299 324t-109 526v128l284 4v-132q0 -220 63.5 -384.5t190 -256t314.5 -91.5q138 0 220.5 24.5t128 58t71.5 61.5v656h272zM1680 1732v-756h-272v680q-26 30 -72 63.5t-131 57t-229 23.5
q-168 0 -293 -85.5t-194 -248t-69 -394.5v-116h-284v116q0 302 108.5 517t298 329t433.5 114q228 0 370 -51.5t220 -122t114 -126.5zM2152 2004v-2576h-276v2304l-320 -116v232l384 156h212z" />
    <glyph glyph-name="uni01A3" unicode="&#x1a3;" horiz-adv-x="1776" 
d="M764 192q57 0 107.5 16.5t92.5 43.5v496h276v-560q-54 -64 -128.5 -112.5t-163 -76t-184.5 -27.5q-228 0 -376 103.5t-220 273t-72 367.5v56q0 198 73 367.5t221 273t374 103.5q104 0 192.5 -25.5t160 -73t123.5 -113.5v-604h-276v532q-39 30 -89.5 47t-110.5 17
q-154 0 -239 -78.5t-119 -199t-34 -246.5v-56q0 -166 46.5 -283t134 -179t211.5 -62zM1680 1488v-2060h-272v1704l-300 -176v348l356 184h216z" />
    <glyph glyph-name="uni01A4" unicode="&#x1a4;" horiz-adv-x="2176" 
d="M708 1828h-196q-80 0 -118.5 -35.5t-50 -92t-11.5 -120.5v-76h-232v136q0 168 105 288t303 120h200v-220zM640 0v2048h692q241 0 395 -86.5t228 -233.5t73 -328q1 -181 -73 -329t-227 -235.5t-392 -87.5h-496v220h488q247 0 352 124t104 308q1 185 -104.5 306.5
t-355.5 121.5h-436v-1828h-248z" />
    <glyph glyph-name="uni01A5" unicode="&#x1a5;" horiz-adv-x="1716" 
d="M444 1536h-228q0 175 104.5 269.5t287.5 94.5q47 0 83.5 -3.5t52.5 -8.5v-200q-19 4 -39 6t-37 2q-106 0 -165 -41t-59 -119zM920 -32q-148 0 -237 49.5t-137 113t-74 105.5h-116v1056h116q26 40 72.5 102.5t134 112t237.5 49.5q194 0 342 -97t231 -275t83 -420
q0 -244 -83 -422.5t-230 -276t-339 -97.5zM216 -576v2112h228v-288l-72 -496l80 -388v-940h-236zM888 180q148 0 247.5 78.5t150 212t50.5 297.5q0 162 -49.5 292.5t-149 207t-249.5 76.5q-216 0 -328 -159t-112 -417q0 -261 113.5 -424.5t326.5 -163.5z" />
    <glyph glyph-name="uni01A6" unicode="&#x1a6;" horiz-adv-x="2032" 
d="M152 1864v280h288v-280h-288zM152 2004h668q228 0 385 -69.5t238 -204t81 -330.5q0 -138 -55 -251t-159 -193t-250 -120l-76 -28h-608v228h444q210 0 315 105.5t105 258.5q0 168 -97.5 270t-322.5 102h-380v-1772h-288v2004zM1576 -496l-748 1408h300l752 -1392v-16h-304
z" />
    <glyph glyph-name="uni01A7" unicode="&#x1a7;" horiz-adv-x="1796" 
d="M428 1536h-240q6 155 96 277t244 192.5t352 70.5q196 0 354.5 -71.5t252 -200t93.5 -300.5q0 -207 -140 -335t-380 -197l-252 -72q-108 -30 -201 -70t-150 -104t-57 -166q0 -112 66 -195.5t179 -130t255 -46.5q122 0 227.5 36.5t174 112t78.5 191.5h256
q-12 -168 -103.5 -295t-252 -198t-380.5 -71q-236 0 -401.5 79t-252 213t-86.5 300q0 144 59 243t149.5 162.5t189.5 100.5t178 58l208 56q76 20 168.5 57.5t160 105t67.5 177.5q0 147 -124 243.5t-328 96.5q-186 0 -314 -84t-146 -236z" />
    <glyph glyph-name="uni01A8" unicode="&#x1a8;" horiz-adv-x="1472" 
d="M168 1192q56 164 186 264t358 100q162 0 289.5 -57t201 -157t73.5 -230q0 -159 -98 -264.5t-310 -155.5l-256 -60q-228 -53 -228 -216q0 -99 97.5 -169.5t262.5 -70.5q145 0 235 62t121 186l224 -56q-41 -196 -194.5 -298t-389.5 -102q-178 0 -313.5 60t-211 163.5
t-75.5 236.5q0 316 408 416l228 56q137 34 200.5 85t63.5 139q0 99 -93.5 163.5t-234.5 64.5q-154 0 -227.5 -70t-104.5 -150z" />
    <glyph glyph-name="uni01A9" unicode="&#x1a9;" horiz-adv-x="1776" 
d="M1576 232v-232h-1296v232h1296zM1512 2004v-232h-1280v232h1280zM1124 1012v-28l-784 -984h-172v208l652 788l-652 796v212h172z" />
    <glyph glyph-name="uni01AA" unicode="&#x1aa;" horiz-adv-x="1520" 
d="M816 1560l276 116v-1756q0 -141 47 -196.5t137 -55.5q18 0 42.5 3t45.5 9v-216q-30 -12 -77 -18t-83 -6q-195 0 -291.5 123t-96.5 357v1640zM156 1676q0 130 63 236t169 169t236 63q128 0 234.5 -63t170 -169t63.5 -236q0 -128 -63.5 -234.5t-170 -170t-234.5 -63.5
q-130 0 -236 63.5t-169 170t-63 234.5zM624 1460q87 0 147.5 54.5t60.5 165.5q0 108 -60.5 164t-147.5 56q-90 0 -151 -56t-61 -164q0 -111 61 -165.5t151 -54.5z" />
    <glyph glyph-name="uni01AB" unicode="&#x1ab;" horiz-adv-x="1048" 
d="M684 184l236 48v-396q0 -198 -116 -305t-284 -107q-36 0 -72.5 1.5t-63.5 10.5v200q15 -3 35 -5.5t41 -2.5q64 0 114.5 18.5t80 64t29.5 125.5v348zM884 1536v-200h-796v200h796zM320 1904h236v-1464q0 -100 29.5 -149.5t76 -66t98.5 -16.5q39 0 64 4.5t40 7.5l48 -212
q-24 -9 -67 -18.5t-109 -9.5q-100 0 -195.5 43t-158 131t-62.5 222v1528z" />
    <glyph glyph-name="uni01AC" unicode="&#x1ac;" horiz-adv-x="1920" 
d="M1016 2048v-220h-472q-70 0 -110 -33t-57 -85t-17 -110v-76h-224v120q0 180 109.5 292t298.5 112h472zM1784 2048v-220h-644v-1828h-248v1828h-196v220h1088z" />
    <glyph glyph-name="uni01AD" unicode="&#x1ad;" horiz-adv-x="1008" 
d="M636 1532h-276v204q0 99 34 175t92.5 128t135.5 78.5t162 26.5q30 0 68 -5.5t68 -14.5v-184q-18 6 -39.5 9t-36.5 3q-64 0 -110.5 -20.5t-72 -68t-25.5 -127.5v-204zM908 1488v-204h-816v204h816zM360 1572h276v-1160q0 -123 48 -165.5t108 -42.5q33 0 67.5 6.5t52.5 9.5
v-220q-30 -9 -81 -18.5t-123 -9.5q-141 0 -244.5 101.5t-103.5 338.5v1160z" />
    <glyph glyph-name="uni01AE" unicode="&#x1ae;" horiz-adv-x="1808" 
d="M1028 0v-164q0 -120 72 -156t168 -36h76v-220h-136q-84 0 -161 26.5t-137 78.5t-95 128t-35 175v168h248zM136 1828v220h1536v-220h-644v-1828h-248v1828h-644z" />
    <glyph glyph-name="uni01AF" unicode="&#x1af;" horiz-adv-x="2436" 
d="M2068 2172h232q0 -196 -58.5 -329.5t-188 -202t-341.5 -68.5v196q140 0 217.5 46t108 136t30.5 222zM1592 2048h248v-1356q0 -230 -109 -393t-290 -249t-397 -86t-397 86t-290 249t-109 393v1356h248v-1356q0 -160 76 -270.5t201 -168t271 -57.5t271 57.5t201 168
t76 270.5v1356z" />
    <glyph glyph-name="uni01B0" unicode="&#x1b0;" horiz-adv-x="1752" 
d="M1600 1604h208q0 -152 -40 -254.5t-140 -154t-280 -51.5v164q124 0 176.5 30.5t64 96t11.5 169.5zM1184 628v908h236v-1536h-236v260h-16q-54 -117 -168 -198.5t-288 -81.5q-144 0 -256 63.5t-176 192t-64 324.5v976h236v-960q0 -168 94.5 -268t241.5 -100q88 0 179.5 45
t154 138t62.5 237z" />
    <glyph glyph-name="uni01B1" unicode="&#x1b1;" horiz-adv-x="2144" 
d="M168 968q0 291 115 503t313 341v16h-428v220h728v-280q-132 -56 -243 -171.5t-178 -276t-67 -352.5q0 -214 85 -387t235 -275t344 -102t344 102t235 275t85 387q0 192 -67 352.5t-178 276t-243 171.5v280h728v-220h-428v-16q198 -126 313 -339.5t115 -504.5
q0 -292 -116 -516.5t-320 -352t-468 -127.5t-468 127.5t-320 352t-116 516.5z" />
    <glyph glyph-name="uni01B2" unicode="&#x1b2;" horiz-adv-x="1776" 
d="M888 -28q-206 0 -371 75t-261 225t-96 376v1356h284v-1356q0 -231 121.5 -339.5t322.5 -108.5t322.5 108.5t121.5 339.5v904q0 135 -58.5 189.5t-169.5 54.5q-18 0 -44 -1t-44 -7v220q30 9 76.5 16.5t79.5 7.5q198 0 323 -124.5t125 -355.5v-904q0 -226 -102 -376
t-269 -225t-361 -75z" />
    <glyph glyph-name="uni01B3" unicode="&#x1b3;" horiz-adv-x="1988" 
d="M1572 1672l-216 100l44 72q66 110 152.5 167t184 62t195.5 -41l-64 -200q-72 30 -138.5 14t-117.5 -106zM916 1044v48h48v-48h-48zM360 2048l580 -976l416 700l216 -100l-508 -828v-844h-248v844l-740 1204h284z" />
    <glyph glyph-name="uni01B4" unicode="&#x1b4;" horiz-adv-x="1716" 
d="M1344 1304l-224 84l20 56q40 112 97 215.5t142 170t209 66.5q78 0 147.5 -27t120.5 -69l-64 -164q-39 21 -82.5 36.5t-85.5 15.5q-93 0 -146.5 -80t-113.5 -248zM592 -136l48 136l-544 1536h256l408 -1188l360 1040l224 -84l-540 -1532q-31 -88 -80.5 -157.5t-113 -117
t-139 -72.5t-159.5 -25q-20 0 -57.5 3.5t-73 8t-49.5 8.5v220q9 -3 37 -5.5t79 -2.5q129 0 212.5 47t131.5 185z" />
    <glyph glyph-name="uni01B5" unicode="&#x1b5;" horiz-adv-x="1760" 
d="M180 0v180l1104 1648h-1116v220h1412v-180l-1104 -1648h1116v-220h-1412zM460 964v184h880v-184h-880z" />
    <glyph glyph-name="uni01B6" unicode="&#x1b6;" horiz-adv-x="1524" 
d="M172 0v180l872 1120v16h-884v220h1188v-188l-848 -1112v-16h864v-220h-1192zM320 676v184h880v-184h-880z" />
    <glyph glyph-name="uni01B7" unicode="&#x1b7;" horiz-adv-x="1860" 
d="M884 -576q-210 0 -378.5 89t-268 241t-101.5 342h244q10 -120 72.5 -221t172 -162t259.5 -61q166 0 299 75.5t211 204t78 288.5t-82 285.5t-236 198t-370 72.5h-236v212l720 824v16h-1104v220h1444v-180l-744 -852v-16q254 -10 442 -117t291 -280.5t103 -382.5
q0 -165 -62.5 -309.5t-174.5 -253.5t-260 -171t-319 -62z" />
    <glyph glyph-name="uni01B8" unicode="&#x1b8;" horiz-adv-x="1860" 
d="M976 -576q-171 0 -319 62t-260 171t-174.5 253.5t-62.5 309.5q0 209 103 382.5t290.5 280.5t442.5 117v16l-744 852v180h1444v-220h-1104v-16l720 -824v-212h-236q-216 0 -370 -72.5t-236 -198t-82 -285.5t78 -288.5t211 -204t299 -75.5q150 0 259.5 61t172 162t72.5 221
h244q-2 -190 -101.5 -342t-268 -241t-378.5 -89z" />
    <glyph glyph-name="uni01B9" unicode="&#x1b9;" horiz-adv-x="1788" 
d="M1580 0q-16 -160 -107.5 -281.5t-242 -190t-342.5 -68.5q-202 0 -358 77.5t-245 214t-89 312.5q0 172 74.5 303t208 211t309.5 98v16l-552 664v180h1204v-220h-876v-16l512 -616v-200h-192q-195 0 -319.5 -117t-124.5 -303q0 -168 124.5 -276t319.5 -108q176 0 297.5 89
t146.5 231h252z" />
    <glyph glyph-name="uni01BA" unicode="&#x1ba;" horiz-adv-x="1520" 
d="M200 1488h1196v-168l-708 -640h-216v172l532 416h-804v220zM400 -176q0 -90 79 -147t229 -57q76 0 152 24.5t129 84t59 163.5h272q0 -124 -70.5 -236.5t-207 -184t-334.5 -71.5q-176 0 -306.5 56t-202 156t-71.5 232q0 180 141.5 283.5t414.5 160.5q183 39 247.5 85
t64.5 139q0 78 -65.5 123t-218.5 45h-88v220h88q170 0 296 -50t195 -139t69 -207q0 -99 -38.5 -170.5t-111 -121.5t-173 -85.5t-225.5 -62.5q-198 -42 -261 -100.5t-63 -139.5z" />
    <glyph glyph-name="uni01BB" unicode="&#x1bb;" horiz-adv-x="1704" 
d="M212 0v180l676 740q119 130 196 226.5t114.5 182t37.5 179.5q0 162 -112.5 257t-279.5 95q-178 0 -283 -106.5t-105 -281.5h-236q0 180 83 316t226 212t323 76t319 -76t218 -205t79 -287q0 -113 -40.5 -220.5t-140 -239t-275.5 -320.5l-460 -492v-16h952v-220h-1292z
M728 964v184h880v-184h-880z" />
    <glyph glyph-name="uni01BC" unicode="&#x1bc;" horiz-adv-x="1680" 
d="M536 2048v-236h-444v236h444zM852 -28q-176 0 -317 70t-226 192t-93 278h240q14 -139 126.5 -229.5t269.5 -90.5q126 0 224.5 59t155 162t56.5 235q0 134 -58.5 239.5t-160.5 166.5t-233 62q-94 1 -193 -28.5t-163 -75.5l-232 28l124 1008h1064v-220h-856l-72 -604h12
q63 50 158 83t198 33q188 0 335.5 -89.5t232 -245t84.5 -353.5q0 -196 -87.5 -349.5t-240.5 -242t-348 -88.5z" />
    <glyph glyph-name="uni01BD" unicode="&#x1bd;" horiz-adv-x="1520" 
d="M524 648l-236 20l96 820h932v-236h-700l-40 -324q45 30 127.5 55.5t160.5 28.5q249 6 388.5 -130.5t139.5 -385.5q0 -146 -59.5 -264t-189 -187t-339.5 -69q-96 0 -196.5 27t-185.5 82.5t-137.5 139t-52.5 195.5l264 24q0 -111 86.5 -177.5t221.5 -66.5q165 0 240.5 83.5
t75.5 212.5q0 132 -77.5 214t-230.5 82q-117 0 -183 -43.5t-105 -100.5zM544 1488v-236h-416v236h416z" />
    <glyph glyph-name="uni01BE" unicode="&#x1be;" horiz-adv-x="1520" 
d="M1084 396q0 82 -50.5 133t-125 94t-149 96.5t-125 137t-50.5 219.5v768h276v-760q0 -85 36 -139.5t93 -92.5t121 -73t121 -79t93 -110.5t36 -169.5q0 -132 -72.5 -233t-203 -158t-304.5 -57q-200 0 -337.5 71.5t-208 185t-70.5 239.5h276q4 -104 56 -164.5t129 -86
t155 -25.5q147 0 225.5 58.5t78.5 145.5zM1132 1488v-204h-816v204h816z" />
    <glyph glyph-name="uni01BF" unicode="&#x1bf;" horiz-adv-x="1776" 
d="M528 1204v-1776h-276v2060h252zM456 900l-132 -112q17 170 61.5 304.5t120.5 229t184 144.5t250 50q190 0 320 -96t197 -267t67 -397v-28q0 -214 -75 -368t-216.5 -264t-341.5 -191.5t-451 -152.5v220q232 56 414.5 148t288 239t105.5 369v28q0 144 -41.5 265t-128 194
t-222.5 73q-120 0 -201 -54.5t-129 -143t-70 -190.5z" />
    <glyph glyph-name="uni01C0" unicode="&#x1c0;" horiz-adv-x="748" 
d="M484 2048v-2048h-220v2048h220z" />
    <glyph glyph-name="uni01C1" unicode="&#x1c1;" horiz-adv-x="1008" 
d="M408 2048v-2048h-220v2048h220zM780 2048v-2048h-220v2048h220z" />
    <glyph glyph-name="uni01C2" unicode="&#x1c2;" horiz-adv-x="752" 
d="M484 2048v-2048h-220v2048h220zM-64 1280v184h880v-184h-880zM-64 600v184h880v-184h-880z" />
    <glyph glyph-name="uni01C3" unicode="&#x1c3;" horiz-adv-x="784" 
d="M528 2048l-20 -1472h-232l-20 1472h272zM392 -32q-81 0 -136.5 55.5t-55.5 136.5t55.5 136.5t136.5 55.5t136.5 -55.5t55.5 -136.5t-55.5 -136.5t-136.5 -55.5z" />
    <glyph glyph-name="uni01C5" unicode="&#x1c5;" horiz-adv-x="3548" 
d="M880 0h-492v220h476q254 0 421 98t249 279t82 431q0 248 -81 427.5t-242 276t-401 96.5h-516v220h532q298 0 510 -122.5t325 -351t113 -546.5q0 -320 -114 -550.5t-332 -354t-530 -123.5zM496 2048v-2048h-248v2048h248zM2196 0v180l872 1120v16h-884v220h1188v-188
l-848 -1112v-16h864v-220h-1192zM2544 2116l240 -240l244 240h192v-16l-368 -376h-136l-364 376v16h192z" />
    <glyph glyph-name="uni01C6" unicode="&#x1c6;" horiz-adv-x="2980" 
d="M1500 0h-228v236h-28q-26 -42 -74 -105.5t-137 -113t-237 -49.5q-192 0 -339 97.5t-230 276t-83 422.5q0 242 83 420t231 275t342 97q150 0 237.5 -49.5t134 -112t72.5 -102.5h20v756h236v-2048zM1268 768q0 258 -112 417t-328 159q-150 0 -249.5 -76.5t-149 -207
t-49.5 -292.5q0 -164 50.5 -297.5t150 -212t247.5 -78.5q213 0 326.5 163.5t113.5 424.5zM1628 0v180l872 1120v16h-884v220h1188v-188l-848 -1112v-16h864v-220h-1192zM1988 2048l240 -240l244 240h192v-16l-368 -376h-136l-364 376v16h192z" />
    <glyph glyph-name="uni01C7" unicode="&#x1c7;" horiz-adv-x="3112" 
d="M248 0v2048h248v-1828h952v-220h-1200zM2616 584v1464h248v-1464q0 -196 -72 -333t-203 -208t-309 -71q-168 0 -299 61.5t-206 175.5t-75 271h244q0 -130 95 -209t241 -79q161 0 248.5 100.5t87.5 291.5z" />
    <glyph glyph-name="uni01C8" unicode="&#x1c8;" horiz-adv-x="2508" 
d="M504 0v2048h248v-1828h952v-220h-1200zM2056 1536h236v-1648q0 -142 -48.5 -246t-146 -161t-245.5 -57h-48v220h44q108 0 158 63.5t50 180.5v1648zM2172 1788q-69 0 -118.5 47t-49.5 113t49.5 113t118.5 47t118.5 -47t49.5 -113t-49.5 -113t-118.5 -47z" />
    <glyph glyph-name="uni01C9" unicode="&#x1c9;" horiz-adv-x="1336" 
d="M452 2048v-2048h-236v2048h236zM884 1536h236v-1648q0 -142 -48.5 -246t-146 -161t-245.5 -57h-48v220h44q108 0 158 63.5t50 180.5v1648zM1000 1788q-69 0 -118.5 47t-49.5 113t49.5 113t118.5 47t118.5 -47t49.5 -113t-49.5 -113t-118.5 -47z" />
    <glyph glyph-name="uni01CA" unicode="&#x1ca;" horiz-adv-x="3648" 
d="M1872 2048v-2048h-240l-1116 1608h-20v-1608h-248v2048h240l1120 -1612h20v1612h244zM3152 584v1464h248v-1464q0 -196 -72 -333t-203 -208t-309 -71q-168 0 -299 61.5t-206 175.5t-75 271h244q0 -130 95 -209t241 -79q161 0 248.5 100.5t87.5 291.5z" />
    <glyph glyph-name="uni01CB" unicode="&#x1cb;" horiz-adv-x="2748" 
d="M1872 2048v-2048h-240l-1116 1608h-20v-1608h-248v2048h240l1120 -1612h20v1612h244zM2296 1536h236v-1648q0 -142 -48.5 -246t-146 -161t-245.5 -57h-48v220h44q108 0 158 63.5t50 180.5v1648zM2412 1788q-69 0 -118.5 47t-49.5 113t49.5 113t118.5 47t118.5 -47
t49.5 -113t-49.5 -113t-118.5 -47z" />
    <glyph glyph-name="uni01CC" unicode="&#x1cc;" horiz-adv-x="2316" 
d="M452 924v-924h-236v1536h228v-240h20q54 117 164 188.5t284 71.5q156 0 273 -63.5t182 -192t65 -324.5v-976h-236v960q0 181 -94 282.5t-258 101.5q-169 0 -280.5 -109.5t-111.5 -310.5zM1864 1536h236v-1648q0 -142 -48.5 -246t-146 -161t-245.5 -57h-48v220h44
q108 0 158 63.5t50 180.5v1648zM1980 1788q-69 0 -118.5 47t-49.5 113t49.5 113t118.5 47t118.5 -47t49.5 -113t-49.5 -113t-118.5 -47z" />
    <glyph glyph-name="uni01CD" unicode="&#x1cd;" horiz-adv-x="1904" 
d="M332 0h-260l752 2048h256l752 -2048h-260l-612 1724h-16zM428 800h1048v-220h-1048v220zM712 2628l240 -240l244 240h192v-16l-368 -376h-136l-364 376v16h192z" />
    <glyph glyph-name="uni01CE" unicode="&#x1ce;" horiz-adv-x="1588" 
d="M668 -36q-146 0 -265 55.5t-189 161t-70 255.5q0 132 52 214.5t139 129.5t192.5 70.5t212.5 37.5q140 18 227.5 29t128 34.5t40.5 80.5q0 149 -80 232.5t-244 83.5q-169 0 -265 -74t-135 -158l-224 80q60 140 160.5 218.5t220 110t235.5 31.5q74 0 170.5 -17.5t187 -71.5
t150.5 -163t60 -292v-1012h-236v208h-12q-24 -50 -80 -107t-149 -97t-227 -40zM704 176q140 0 236.5 55t146 142t49.5 183v216q-15 -18 -65.5 -32.5t-116 -25t-127 -18t-99.5 -12.5q-92 -12 -171.5 -38.5t-128 -79t-48.5 -142.5q0 -123 91.5 -185.5t232.5 -62.5zM580 2116
l240 -240l244 240h192v-16l-368 -376h-136l-364 376v16h192z" />
    <glyph glyph-name="uni01CF" unicode="&#x1cf;" horiz-adv-x="744" 
d="M496 2048v-2048h-248v2048h248zM132 2628l240 -240l244 240h192v-16l-368 -376h-136l-364 376v16h192z" />
    <glyph glyph-name="uni01D0" unicode="&#x1d0;" horiz-adv-x="668" 
d="M216 0v1536h236v-1536h-236zM96 2116l240 -240l244 240h192v-16l-368 -376h-136l-364 376v16h192z" />
    <glyph glyph-name="uni01D1" unicode="&#x1d1;" horiz-adv-x="2144" 
d="M1976 1024q0 -324 -117 -560t-321 -364t-466 -128t-466 128t-321 364t-117 560t117 560t321 364t466 128t466 -128t321 -364t117 -560zM1736 1024q0 266 -88.5 449t-239 277t-336.5 94t-336.5 -94t-239 -277t-88.5 -449t88.5 -449t239 -277t336.5 -94t336.5 94t239 277
t88.5 449zM832 2628l240 -240l244 240h192v-16l-368 -376h-136l-364 376v16h192z" />
    <glyph glyph-name="uni01D2" unicode="&#x1d2;" horiz-adv-x="1680" 
d="M840 -32q-208 0 -364.5 99t-244 277t-87.5 416q0 240 87.5 419t244 278t364.5 99t364.5 -99t244 -278t87.5 -419q0 -238 -87.5 -416t-244 -277t-364.5 -99zM840 180q158 0 260 81t151 213t49 286t-49 287t-151 215t-260 82t-260 -82t-151 -215t-49 -287t49 -286t151 -213
t260 -81zM600 2116l240 -240l244 240h192v-16l-368 -376h-136l-364 376v16h192z" />
    <glyph glyph-name="uni01D3" unicode="&#x1d3;" horiz-adv-x="2088" 
d="M1592 2048h248v-1356q0 -230 -109 -393t-290 -249t-397 -86t-397 86t-290 249t-109 393v1356h248v-1356q0 -160 76 -270.5t201 -168t271 -57.5t271 57.5t201 168t76 270.5v1356zM804 2628l240 -240l244 240h192v-16l-368 -376h-136l-364 376v16h192z" />
    <glyph glyph-name="uni01D4" unicode="&#x1d4;" horiz-adv-x="1636" 
d="M1184 628v908h236v-1536h-236v260h-16q-54 -117 -168 -198.5t-288 -81.5q-144 0 -256 63.5t-176 192t-64 324.5v976h236v-960q0 -168 94.5 -268t241.5 -100q88 0 179.5 45t154 138t62.5 237zM580 2116l240 -240l244 240h192v-16l-368 -376h-136l-364 376v16h192z" />
    <glyph glyph-name="uni01D5" unicode="&#x1d5;" horiz-adv-x="2088" 
d="M1592 2048h248v-1356q0 -230 -109 -393t-290 -249t-397 -86t-397 86t-290 249t-109 393v1356h248v-1356q0 -160 76 -270.5t201 -168t271 -57.5t271 57.5t201 168t76 270.5v1356zM1512 2888v-208h-936v208h936zM564 2417q0 65 40.5 110t115.5 45q78 0 119 -45t41 -111
q0 -63 -40.5 -105.5t-117.5 -42.5q-79 0 -118.5 44t-39.5 105zM1208 2415q0 64 41 108.5t119 44.5q75 0 115.5 -44.5t40.5 -107.5q0 -60 -39 -106t-117 -46t-119 44.5t-41 106.5z" />
    <glyph glyph-name="uni01D6" unicode="&#x1d6;" horiz-adv-x="1636" 
d="M1184 628v908h236v-1536h-236v260h-16q-54 -117 -168 -198.5t-288 -81.5q-144 0 -256 63.5t-176 192t-64 324.5v976h236v-960q0 -168 94.5 -268t241.5 -100q88 0 179.5 45t154 138t62.5 237zM372 1896q0 63 41 107.5t119 44.5t117 -46t39 -106q0 -63 -40.5 -105.5
t-115.5 -42.5q-78 0 -119 42.5t-41 105.5zM964 1893q0 62 39 108.5t117 46.5t119 -46.5t41 -109.5q0 -60 -41 -104t-119 -44t-117 44t-39 105zM1300 2416v-208h-940v208h940z" />
    <glyph glyph-name="uni01D7" unicode="&#x1d7;" horiz-adv-x="2088" 
d="M1592 2048h248v-1356q0 -230 -109 -393t-290 -249t-397 -86t-397 86t-290 249t-109 393v1356h248v-1356q0 -160 76 -270.5t201 -168t271 -57.5t271 57.5t201 168t76 270.5v1356zM720 2264q-63 0 -111.5 48.5t-48.5 111.5q0 69 48.5 114.5t111.5 45.5q69 0 114.5 -45.5
t45.5 -114.5q0 -63 -45.5 -111.5t-114.5 -48.5zM1368 2264q-63 0 -111.5 48.5t-48.5 111.5q0 69 48.5 114.5t111.5 45.5q69 0 114.5 -45.5t45.5 -114.5q0 -63 -45.5 -111.5t-114.5 -48.5zM932 2496l172 312h252l-252 -312h-172z" />
    <glyph glyph-name="uni01D8" unicode="&#x1d8;" horiz-adv-x="1636" 
d="M1184 628v908h236v-1536h-236v260h-16q-54 -117 -168 -198.5t-288 -81.5q-144 0 -256 63.5t-176 192t-64 324.5v976h236v-960q0 -168 94.5 -268t241.5 -100q88 0 179.5 45t154 138t62.5 237zM536 1752q-63 0 -111.5 48.5t-48.5 111.5q0 69 48.5 114.5t111.5 45.5
q69 0 114.5 -45.5t45.5 -114.5q0 -63 -45.5 -111.5t-114.5 -48.5zM1104 1752q-63 0 -111.5 48.5t-48.5 111.5q0 69 48.5 114.5t111.5 45.5q69 0 114.5 -45.5t45.5 -114.5q0 -63 -45.5 -111.5t-114.5 -48.5zM708 2176l240 456h276l-308 -456h-208z" />
    <glyph glyph-name="uni01D9" unicode="&#x1d9;" horiz-adv-x="2088" 
d="M1592 2048h248v-1356q0 -230 -109 -393t-290 -249t-397 -86t-397 86t-290 249t-109 393v1356h248v-1356q0 -160 76 -270.5t201 -168t271 -57.5t271 57.5t201 168t76 270.5v1356zM564 2417q0 65 40.5 110t115.5 45q78 0 119 -45t41 -111q0 -63 -40.5 -105.5t-117.5 -42.5
q-79 0 -118.5 44t-39.5 105zM1208 2415q0 64 41 108.5t119 44.5q75 0 115.5 -44.5t40.5 -107.5q0 -60 -39 -106t-117 -46t-119 44.5t-41 106.5zM840 2876l200 -172l200 172h236v-24l-352 -300h-168l-348 296v28h232z" />
    <glyph glyph-name="uni01DA" unicode="&#x1da;" horiz-adv-x="1636" 
d="M1184 628v908h236v-1536h-236v260h-16q-54 -117 -168 -198.5t-288 -81.5q-144 0 -256 63.5t-176 192t-64 324.5v976h236v-960q0 -168 94.5 -268t241.5 -100q88 0 179.5 45t154 138t62.5 237zM372 1896q0 60 39 106t117 46t119 -44.5t41 -107.5t-41 -105.5t-119 -42.5
q-75 0 -115.5 42.5t-40.5 105.5zM960 1892q0 63 41 109.5t119 46.5t119 -46.5t41 -109.5q0 -60 -41 -104t-119 -44t-119 44t-41 104zM620 2532l200 -232l200 232h236v-16l-352 -380h-168l-348 380v16h232z" />
    <glyph glyph-name="uni01DB" unicode="&#x1db;" horiz-adv-x="2088" 
d="M1592 2048h248v-1356q0 -230 -109 -393t-290 -249t-397 -86t-397 86t-290 249t-109 393v1356h248v-1356q0 -160 76 -270.5t201 -168t271 -57.5t271 57.5t201 168t76 270.5v1356zM972 2808l176 -312h-176l-252 312h252zM564 2417q0 65 40.5 110t115.5 45q78 0 119 -45
t41 -111q0 -63 -40.5 -105.5t-117.5 -42.5q-79 0 -118.5 44t-39.5 105zM1208 2415q0 64 41 108.5t119 44.5q75 0 115.5 -44.5t40.5 -107.5q0 -60 -39 -106t-117 -46t-119 44.5t-41 106.5z" />
    <glyph glyph-name="uni01DC" unicode="&#x1dc;" horiz-adv-x="1636" 
d="M1184 628v908h236v-1536h-236v260h-16q-54 -117 -168 -198.5t-288 -81.5q-144 0 -256 63.5t-176 192t-64 324.5v976h236v-960q0 -168 94.5 -268t241.5 -100q88 0 179.5 45t154 138t62.5 237zM372 1896q0 60 39 106t117 46t119 -44.5t41 -107.5t-41 -105.5t-119 -42.5
q-75 0 -115.5 42.5t-40.5 105.5zM960 1892q0 63 41 109.5t119 46.5t119 -46.5t41 -109.5q0 -60 -41 -104t-119 -44t-119 44t-41 104zM708 2528l268 -408h-236l-364 408h332z" />
    <glyph glyph-name="uni01DD" unicode="&#x1dd;" horiz-adv-x="1640" 
d="M780 1568q222 0 382.5 -98.5t247 -276t86.5 -413.5t-86.5 -416.5t-242 -282t-363.5 -101.5q-120 0 -237 40t-213 129.5t-153 237t-57 361.5v100h1184v-204h-944q0 -195 114 -323.5t306 -128.5q141 0 243.5 69.5t157.5 181t55 237.5v136q0 262 -132.5 401t-347.5 139
q-139 0 -239 -60t-145 -180l-228 64q54 174 216 281t396 107z" />
    <glyph glyph-name="uni01DE" unicode="&#x1de;" horiz-adv-x="1904" 
d="M332 0h-260l752 2048h256l752 -2048h-260l-612 1724h-16zM428 800h1048v-220h-1048v220zM1420 2888v-208h-936v208h936zM472 2417q0 65 40.5 110t115.5 45q78 0 119 -45t41 -111q0 -63 -40.5 -105.5t-117.5 -42.5q-79 0 -118.5 44t-39.5 105zM1116 2415q0 64 41 108.5
t119 44.5q75 0 115.5 -44.5t40.5 -107.5q0 -60 -39 -106t-117 -46t-119 44.5t-41 106.5z" />
    <glyph glyph-name="uni01DF" unicode="&#x1df;" horiz-adv-x="1588" 
d="M668 -36q-146 0 -265 55.5t-189 161t-70 255.5q0 132 52 214.5t139 129.5t192.5 70.5t212.5 37.5q140 18 227.5 29t128 34.5t40.5 80.5q0 149 -80 232.5t-244 83.5q-169 0 -265 -74t-135 -158l-224 80q60 140 160.5 218.5t220 110t235.5 31.5q74 0 170.5 -17.5t187 -71.5
t150.5 -163t60 -292v-1012h-236v208h-12q-24 -50 -80 -107t-149 -97t-227 -40zM704 176q140 0 236.5 55t146 142t49.5 183v216q-15 -18 -65.5 -32.5t-116 -25t-127 -18t-99.5 -12.5q-92 -12 -171.5 -38.5t-128 -79t-48.5 -142.5q0 -123 91.5 -185.5t232.5 -62.5zM372 1896
q0 63 41 107.5t119 44.5t117 -46t39 -106q0 -63 -40.5 -105.5t-115.5 -42.5q-78 0 -119 42.5t-41 105.5zM964 1893q0 62 39 108.5t117 46.5t119 -46.5t41 -109.5q0 -60 -41 -104t-119 -44t-117 44t-39 105zM1300 2416v-208h-940v208h940z" />
    <glyph glyph-name="uni01E0" unicode="&#x1e0;" horiz-adv-x="1904" 
d="M332 0h-260l752 2048h256l752 -2048h-260l-612 1724h-16zM428 800h1048v-220h-1048v220zM792 2416q0 63 41 107.5t119 44.5t119 -44.5t41 -107.5t-41 -107.5t-119 -44.5t-119 44.5t-41 107.5zM1424 2888v-208h-940v208h940z" />
    <glyph glyph-name="uni01E1" unicode="&#x1e1;" horiz-adv-x="1588" 
d="M668 -36q-146 0 -265 55.5t-189 161t-70 255.5q0 132 52 214.5t139 129.5t192.5 70.5t212.5 37.5q140 18 227.5 29t128 34.5t40.5 80.5q0 149 -80 232.5t-244 83.5q-169 0 -265 -74t-135 -158l-224 80q60 140 160.5 218.5t220 110t235.5 31.5q74 0 170.5 -17.5t187 -71.5
t150.5 -163t60 -292v-1012h-236v208h-12q-24 -50 -80 -107t-149 -97t-227 -40zM704 176q140 0 236.5 55t146 142t49.5 183v216q-15 -18 -65.5 -32.5t-116 -25t-127 -18t-99.5 -12.5q-92 -12 -171.5 -38.5t-128 -79t-48.5 -142.5q0 -123 91.5 -185.5t232.5 -62.5zM664 1892
q0 66 40.5 111t115.5 45q81 0 120.5 -46.5t39.5 -109.5t-41 -105.5t-119 -42.5q-75 0 -115.5 42.5t-40.5 105.5zM1300 2412v-208h-940v208h940z" />
    <glyph glyph-name="uni01E2" unicode="&#x1e2;" horiz-adv-x="2788" 
d="M72 0l992 2048h1524v-220h-988v-692h924v-220h-924v-696h1004v-220h-1252v1828h-148l-860 -1828h-272zM508 580v220h968v-220h-968zM2292 2524v-200h-940v200h940z" />
    <glyph glyph-name="uni01E3" unicode="&#x1e3;" horiz-adv-x="2604" 
d="M1824 -32q-255 0 -413.5 129.5t-218.5 354.5l44 732q75 174 217.5 273t346.5 99q120 0 237 -40t213 -129.5t153 -236.5t57 -362v-80l-1184 -92v204l944 72q0 195 -114 323.5t-306 128.5q-201 0 -328.5 -151.5t-127.5 -424.5v-104q23 -237 149.5 -360.5t330.5 -123.5
q141 0 240 60t144 180l228 -64q-54 -174 -216 -281t-396 -107zM704 176q140 0 236.5 55t146 142t49.5 183v216q-15 -18 -65.5 -32.5t-116 -25t-127 -18t-99.5 -12.5q-92 -12 -171.5 -38.5t-128 -79t-48.5 -142.5q0 -123 91.5 -185.5t232.5 -62.5zM668 -36q-146 0 -265 55.5
t-189 161t-70 255.5q0 131 52 213.5t138 129.5t192 71.5t214 37.5q114 14 203.5 23t141 29t51.5 68q0 172 -79 256t-241 84q-171 0 -268 -74t-136 -158l-224 80q60 140 160.5 218.5t220 110t235.5 31.5q210 0 335.5 -83.5t164.5 -200.5l-64 -944h-12q-6 -40 -43.5 -101
t-107.5 -121.5t-172 -101t-237 -40.5zM1756 2012v-200h-940v200h940z" />
    <glyph glyph-name="uni01E4" unicode="&#x1e4;" horiz-adv-x="2092" 
d="M1136 456v184h880v-184h-880zM168 1024q0 324 114.5 560t317 364t464.5 128q216 0 392 -84.5t293 -235t155 -348.5h-256q-65 202 -213.5 319t-370.5 117q-182 0 -331 -94t-237 -277t-88 -449t89 -449t241 -277t342 -94q174 0 308.5 75.5t211 211t76.5 313.5v72l76 -72
h-616v220h780v-220q0 -253 -107.5 -440t-296 -289.5t-432.5 -102.5q-272 0 -477.5 128t-320 364t-114.5 560z" />
    <glyph glyph-name="uni01E5" unicode="&#x1e5;" horiz-adv-x="1716" 
d="M828 -576q-246 0 -397 92.5t-223 215.5l188 132q30 -38 80.5 -92t135 -95t216.5 -41q118 0 218 40.5t160 124t58 211.5v272h-20q-26 -42 -73.5 -103.5t-136 -109t-238.5 -47.5q-186 0 -333.5 88t-233 256t-85.5 408q0 236 83 411.5t231 272t342 96.5q150 0 238.5 -49.5
t136 -112t73.5 -102.5h24v244h228v-1548q0 -198 -94 -322.5t-247 -183t-331 -58.5zM828 236q213 0 326.5 144.5t113.5 399.5q0 249 -112 406.5t-328 157.5q-150 0 -249.5 -76t-149 -204t-49.5 -284q0 -240 113 -392t335 -152zM948 684v184h880v-184h-880z" />
    <glyph glyph-name="uni01E6" unicode="&#x1e6;" horiz-adv-x="2092" 
d="M168 1024q0 324 114.5 560t317 364t464.5 128q216 0 392 -84.5t293 -235t155 -348.5h-256q-65 202 -213.5 319t-370.5 117q-182 0 -331 -94t-237 -277t-88 -449t89 -449t241 -277t342 -94q174 0 308.5 75.5t211 211t76.5 313.5v72l76 -72h-616v220h780v-220
q0 -253 -107.5 -440t-296 -289.5t-432.5 -102.5q-272 0 -477.5 128t-320 364t-114.5 560zM824 2628l240 -240l244 240h192v-16l-368 -376h-136l-364 376v16h192z" />
    <glyph glyph-name="uni01E7" unicode="&#x1e7;" horiz-adv-x="1716" 
d="M828 -576q-246 0 -397 92.5t-223 215.5l188 132q30 -38 80.5 -92t135 -95t216.5 -41q118 0 218 40.5t160 124t58 211.5v272h-20q-26 -42 -73.5 -103.5t-136 -109t-238.5 -47.5q-186 0 -333.5 88t-233 256t-85.5 408q0 236 83 411.5t231 272t342 96.5q150 0 238.5 -49.5
t136 -112t73.5 -102.5h24v244h228v-1548q0 -198 -94 -322.5t-247 -183t-331 -58.5zM828 236q213 0 326.5 144.5t113.5 399.5q0 249 -112 406.5t-328 157.5q-150 0 -249.5 -76t-149 -204t-49.5 -284q0 -240 113 -392t335 -152zM648 2116l240 -240l244 240h192v-16l-368 -376
h-136l-364 376v16h192z" />
    <glyph glyph-name="uni01E8" unicode="&#x1e8;" horiz-adv-x="1836" 
d="M248 0v2048h248v-1016h24l920 1016h324l-860 -924l860 -1124h-300l-712 952l-256 -288v-664h-248zM688 2628l240 -240l244 240h192v-16l-368 -376h-136l-364 376v16h192z" />
    <glyph glyph-name="uni01E9" unicode="&#x1e9;" horiz-adv-x="1532" 
d="M436 560l-4 292h48l672 684h292l-716 -724h-20zM216 0v2048h236v-2048h-236zM1192 0l-600 760l168 164l732 -924h-300zM96 2628l240 -240l244 240h192v-16l-368 -376h-136l-364 376v16h192z" />
    <glyph glyph-name="uni01EA" unicode="&#x1ea;" horiz-adv-x="2144" 
d="M1976 1024q0 -324 -117 -560t-321 -364t-466 -128t-466 128t-321 364t-117 560t117 560t321 364t466 128t466 -128t321 -364t117 -560zM1736 1024q0 266 -88.5 449t-239 277t-336.5 94t-336.5 -94t-239 -277t-88.5 -449t88.5 -449t239 -277t336.5 -94t336.5 94t239 277
t88.5 449zM1080 -608q-123 0 -203.5 67.5t-80.5 196.5q0 74 36 148t116 143t212 129l108 -84q-90 -66 -161 -140t-71 -164q0 -45 22 -70.5t82 -25.5q45 0 80 12t56 24l16 -176q-33 -21 -86.5 -40.5t-125.5 -19.5z" />
    <glyph glyph-name="uni01EB" unicode="&#x1eb;" horiz-adv-x="1680" 
d="M840 -32q-208 0 -364.5 99t-244 277t-87.5 416q0 240 87.5 419t244 278t364.5 99t364.5 -99t244 -278t87.5 -419q0 -238 -87.5 -416t-244 -277t-364.5 -99zM840 180q158 0 260 81t151 213t49 286t-49 287t-151 215t-260 82t-260 -82t-151 -215t-49 -287t49 -286t151 -213
t260 -81zM868 -600q-123 0 -203.5 67.5t-80.5 196.5q0 74 36 148t116 143t212 129l108 -84q-90 -66 -161 -140t-71 -164q0 -45 22 -70.5t82 -25.5q45 0 80 12t56 24l16 -176q-33 -21 -86.5 -40.5t-125.5 -19.5z" />
    <glyph glyph-name="uni01EC" unicode="&#x1ec;" horiz-adv-x="2144" 
d="M1976 1024q0 -324 -117 -560t-321 -364t-466 -128t-466 128t-321 364t-117 560t117 560t321 364t466 128t466 -128t321 -364t117 -560zM1736 1024q0 266 -88.5 449t-239 277t-336.5 94t-336.5 -94t-239 -277t-88.5 -449t88.5 -449t239 -277t336.5 -94t336.5 94t239 277
t88.5 449zM1080 -608q-123 0 -203.5 67.5t-80.5 196.5q0 74 36 148t116 143t212 129l108 -84q-90 -66 -161 -140t-71 -164q0 -45 22 -70.5t82 -25.5q45 0 80 12t56 24l16 -176q-33 -21 -86.5 -40.5t-125.5 -19.5zM1544 2524v-200h-940v200h940z" />
    <glyph glyph-name="uni01ED" unicode="&#x1ed;" horiz-adv-x="1680" 
d="M840 -32q-208 0 -364.5 99t-244 277t-87.5 416q0 240 87.5 419t244 278t364.5 99t364.5 -99t244 -278t87.5 -419q0 -238 -87.5 -416t-244 -277t-364.5 -99zM840 180q158 0 260 81t151 213t49 286t-49 287t-151 215t-260 82t-260 -82t-151 -215t-49 -287t49 -286t151 -213
t260 -81zM868 -600q-123 0 -203.5 67.5t-80.5 196.5q0 74 36 148t116 143t212 129l108 -84q-90 -66 -161 -140t-71 -164q0 -45 22 -70.5t82 -25.5q45 0 80 12t56 24l16 -176q-33 -21 -86.5 -40.5t-125.5 -19.5zM1312 2012v-200h-940v200h940z" />
    <glyph glyph-name="uni01EE" unicode="&#x1ee;" horiz-adv-x="1860" 
d="M884 -576q-210 0 -378.5 89t-268 241t-101.5 342h244q10 -120 72.5 -221t172 -162t259.5 -61q166 0 299 75.5t211 204t78 288.5t-82 285.5t-236 198t-370 72.5h-236v212l720 824v16h-1104v220h1444v-180l-744 -852v-16q254 -10 442 -117t291 -280.5t103 -382.5
q0 -165 -62.5 -309.5t-174.5 -253.5t-260 -171t-319 -62zM692 2628l240 -240l244 240h192v-16l-368 -376h-136l-364 376v16h192z" />
    <glyph glyph-name="uni01EF" unicode="&#x1ef;" horiz-adv-x="1788" 
d="M208 0h252q25 -142 146.5 -231t297.5 -89q195 0 319.5 108t124.5 276q0 186 -124.5 303t-319.5 117h-192v200l512 616v16h-876v220h1204v-180l-552 -664v-16q176 -18 309.5 -98t208 -211t74.5 -303q0 -176 -89 -312.5t-245 -214t-358 -77.5q-192 0 -342.5 68.5t-242 190
t-107.5 281.5zM660 2116l240 -240l244 240h192v-16l-368 -376h-136l-364 376v16h192z" />
    <glyph glyph-name="uni01F0" unicode="&#x1f0;" horiz-adv-x="668" 
d="M216 1536h236v-1648q0 -142 -48.5 -246t-146 -161t-245.5 -57h-48v220h44q108 0 158 63.5t50 180.5v1648zM92 2116l240 -240l244 240h192v-16l-368 -376h-136l-364 376v16h192z" />
    <glyph glyph-name="uni01F1" unicode="&#x1f1;" horiz-adv-x="3784" 
d="M880 0h-492v220h476q254 0 421 98t249 279t82 431q0 248 -81 427.5t-242 276t-401 96.5h-516v220h532q298 0 510 -122.5t325 -351t113 -546.5q0 -320 -114 -550.5t-332 -354t-530 -123.5zM496 2048v-2048h-248v2048h248zM2204 0v180l1104 1648h-1116v220h1412v-180
l-1104 -1648h1116v-220h-1412z" />
    <glyph glyph-name="uni01F2" unicode="&#x1f2;" horiz-adv-x="3548" 
d="M880 0h-492v220h476q254 0 421 98t249 279t82 431q0 248 -81 427.5t-242 276t-401 96.5h-516v220h532q298 0 510 -122.5t325 -351t113 -546.5q0 -320 -114 -550.5t-332 -354t-530 -123.5zM496 2048v-2048h-248v2048h248zM2196 0v180l872 1120v16h-884v220h1188v-188
l-848 -1112v-16h864v-220h-1192z" />
    <glyph glyph-name="uni01F4" unicode="&#x1f4;" horiz-adv-x="2092" 
d="M168 1024q0 324 114.5 560t317 364t464.5 128q216 0 392 -84.5t293 -235t155 -348.5h-256q-65 202 -213.5 319t-370.5 117q-182 0 -331 -94t-237 -277t-88 -449t89 -449t241 -277t342 -94q174 0 308.5 75.5t211 211t76.5 313.5v72l76 -72h-616v220h780v-220
q0 -253 -107.5 -440t-296 -289.5t-432.5 -102.5q-272 0 -477.5 128t-320 364t-114.5 560zM952 2224l240 456h276l-308 -456h-208z" />
    <glyph glyph-name="uni01F5" unicode="&#x1f5;" horiz-adv-x="1716" 
d="M828 -576q-246 0 -397 92.5t-223 215.5l188 132q30 -38 80.5 -92t135 -95t216.5 -41q118 0 218 40.5t160 124t58 211.5v272h-20q-26 -42 -73.5 -103.5t-136 -109t-238.5 -47.5q-186 0 -333.5 88t-233 256t-85.5 408q0 236 83 411.5t231 272t342 96.5q150 0 238.5 -49.5
t136 -112t73.5 -102.5h24v244h228v-1548q0 -198 -94 -322.5t-247 -183t-331 -58.5zM828 236q213 0 326.5 144.5t113.5 399.5q0 249 -112 406.5t-328 157.5q-150 0 -249.5 -76t-149 -204t-49.5 -284q0 -240 113 -392t335 -152zM776 1712l240 456h276l-308 -456h-208z" />
    <glyph glyph-name="uni01F6" unicode="&#x1f6;" horiz-adv-x="3136" 
d="M248 0v2048h248v-912h1092v912h248v-1344h-248v212h-1092v-916h-248zM2260 -28q-300 0 -486 171.5t-186 504.5v56h248v-56q0 -231 111.5 -339.5t312.5 -108.5t306.5 108.5t105.5 339.5v888h248v-888q0 -226 -84 -376t-233 -225t-343 -75z" />
    <glyph glyph-name="uni01F7" unicode="&#x1f7;" horiz-adv-x="1776" 
d="M444 2004v-2576h-288v2576h288zM292 -248v228q270 42 467 159t325 279.5t190 346.5t62 359v76q0 156 -32.5 269.5t-98 186.5t-164.5 108.5t-233 35.5q-152 0 -245 -55.5t-143 -156t-72 -236.5v540q87 66 201.5 103t258.5 37q250 0 432 -92.5t281 -278t99 -465.5v-72
q0 -262 -101 -496t-282.5 -419.5t-422.5 -304.5t-522 -152z" />
    <glyph glyph-name="uni01F8" unicode="&#x1f8;" horiz-adv-x="2120" 
d="M1872 2048v-2048h-240l-1116 1608h-20v-1608h-248v2048h240l1120 -1612h20v1612h244zM948 2640l268 -408h-236l-364 408h332z" />
    <glyph glyph-name="uni01F9" unicode="&#x1f9;" horiz-adv-x="1648" 
d="M452 924v-924h-236v1536h228v-240h20q54 117 164 188.5t284 71.5q156 0 273 -63.5t182 -192t65 -324.5v-976h-236v960q0 181 -94 282.5t-258 101.5q-169 0 -280.5 -109.5t-111.5 -310.5zM712 2128l268 -408h-236l-364 408h332z" />
    <glyph glyph-name="uni01FA" unicode="&#x1fa;" horiz-adv-x="1904" 
d="M332 0h-260l752 2048h256l752 -2048h-260l-612 1724h-16zM428 800h1048v-220h-1048v220zM952 2160q-96 0 -166 68t-70 164t70 164t166 68q99 0 167.5 -68t68.5 -164t-68.5 -164t-167.5 -68zM952 2296q42 0 69 28.5t27 67.5q0 36 -27 64t-69 28q-39 0 -67.5 -28t-28.5 -64
q0 -39 28.5 -67.5t67.5 -28.5zM852 2688l200 248h272l-304 -248h-168z" />
    <glyph glyph-name="uni01FB" unicode="&#x1fb;" horiz-adv-x="1588" 
d="M668 -36q-146 0 -265 55.5t-189 161t-70 255.5q0 132 52 214.5t139 129.5t192.5 70.5t212.5 37.5q140 18 227.5 29t128 34.5t40.5 80.5q0 149 -80 232.5t-244 83.5q-169 0 -265 -74t-135 -158l-224 80q60 140 160.5 218.5t220 110t235.5 31.5q74 0 170.5 -17.5t187 -71.5
t150.5 -163t60 -292v-1012h-236v208h-12q-24 -50 -80 -107t-149 -97t-227 -40zM704 176q140 0 236.5 55t146 142t49.5 183v216q-15 -18 -65.5 -32.5t-116 -25t-127 -18t-99.5 -12.5q-92 -12 -171.5 -38.5t-128 -79t-48.5 -142.5q0 -123 91.5 -185.5t232.5 -62.5zM820 1648
q-96 0 -166 68t-70 164t70 164t166 68q99 0 167.5 -68t68.5 -164t-68.5 -164t-167.5 -68zM820 1784q42 0 69 28.5t27 67.5q0 36 -27 64t-69 28q-39 0 -67.5 -28t-28.5 -64q0 -39 28.5 -67.5t67.5 -28.5zM720 2176l200 248h272l-304 -248h-168z" />
    <glyph glyph-name="uni01FC" unicode="&#x1fc;" horiz-adv-x="2788" 
d="M72 0l992 2048h1524v-220h-988v-692h924v-220h-924v-696h1004v-220h-1252v1828h-148l-860 -1828h-272zM508 580v220h968v-220h-968zM1708 2224l240 456h276l-308 -456h-208z" />
    <glyph glyph-name="uni01FD" unicode="&#x1fd;" horiz-adv-x="2604" 
d="M1824 -32q-255 0 -413.5 129.5t-218.5 354.5l44 732q75 174 217.5 273t346.5 99q120 0 237 -40t213 -129.5t153 -236.5t57 -362v-80l-1184 -92v204l944 72q0 195 -114 323.5t-306 128.5q-201 0 -328.5 -151.5t-127.5 -424.5v-104q23 -237 149.5 -360.5t330.5 -123.5
q141 0 240 60t144 180l228 -64q-54 -174 -216 -281t-396 -107zM704 176q140 0 236.5 55t146 142t49.5 183v216q-15 -18 -65.5 -32.5t-116 -25t-127 -18t-99.5 -12.5q-92 -12 -171.5 -38.5t-128 -79t-48.5 -142.5q0 -123 91.5 -185.5t232.5 -62.5zM668 -36q-146 0 -265 55.5
t-189 161t-70 255.5q0 131 52 213.5t138 129.5t192 71.5t214 37.5q114 14 203.5 23t141 29t51.5 68q0 172 -79 256t-241 84q-171 0 -268 -74t-136 -158l-224 80q60 140 160.5 218.5t220 110t235.5 31.5q210 0 335.5 -83.5t164.5 -200.5l-64 -944h-12q-6 -40 -43.5 -101
t-107.5 -121.5t-172 -101t-237 -40.5zM1172 1712l240 456h276l-308 -456h-208z" />
    <glyph glyph-name="uni01FE" unicode="&#x1fe;" horiz-adv-x="2144" 
d="M1976 1024q0 -324 -117 -560t-321 -364t-466 -128t-466 128t-321 364t-117 560t117 560t321 364t466 128t466 -128t321 -364t117 -560zM1736 1024q0 266 -88.5 449t-239 277t-336.5 94t-336.5 -94t-239 -277t-88.5 -449t88.5 -449t239 -277t336.5 -94t336.5 94t239 277
t88.5 449zM432 -84l-152 104l1424 2108l152 -104zM960 2224l240 456h276l-308 -456h-208z" />
    <glyph glyph-name="uni01FF" unicode="&#x1ff;" horiz-adv-x="1680" 
d="M840 -32q-208 0 -364.5 99t-244 277t-87.5 416q0 240 87.5 419t244 278t364.5 99t364.5 -99t244 -278t87.5 -419q0 -238 -87.5 -416t-244 -277t-364.5 -99zM840 180q158 0 260 81t151 213t49 286t-49 287t-151 215t-260 82t-260 -82t-151 -215t-49 -287t49 -286t151 -213
t260 -81zM380 -84l-152 104l1072 1588l152 -104zM728 1712l240 456h276l-308 -456h-208z" />
    <glyph glyph-name="uni0200" unicode="&#x200;" horiz-adv-x="1904" 
d="M332 0h-260l752 2048h256l752 -2048h-260l-612 1724h-16zM428 800h1048v-220h-1048v220zM912 2248l-336 364h-332l420 -364h248zM1276 2248l-252 364h-304l336 -364h220z" />
    <glyph glyph-name="uni0201" unicode="&#x201;" horiz-adv-x="1588" 
d="M668 -36q-146 0 -265 55.5t-189 161t-70 255.5q0 132 52 214.5t139 129.5t192.5 70.5t212.5 37.5q140 18 227.5 29t128 34.5t40.5 80.5q0 149 -80 232.5t-244 83.5q-169 0 -265 -74t-135 -158l-224 80q60 140 160.5 218.5t220 110t235.5 31.5q74 0 170.5 -17.5t187 -71.5
t150.5 -163t60 -292v-1012h-236v208h-12q-24 -50 -80 -107t-149 -97t-227 -40zM704 176q140 0 236.5 55t146 142t49.5 183v216q-15 -18 -65.5 -32.5t-116 -25t-127 -18t-99.5 -12.5q-92 -12 -171.5 -38.5t-128 -79t-48.5 -142.5q0 -123 91.5 -185.5t232.5 -62.5zM780 1736
l-336 364h-332l420 -364h248zM1144 1736l-252 364h-304l336 -364h220z" />
    <glyph glyph-name="uni0202" unicode="&#x202;" horiz-adv-x="1904" 
d="M332 0h-260l752 2048h256l752 -2048h-260l-612 1724h-16zM428 800h1048v-220h-1048v220zM540 2288q0 162 112 267t304 105t302 -105t110 -267h-220q0 81 -45 140.5t-147 59.5q-108 0 -152 -61t-44 -139h-220z" />
    <glyph glyph-name="uni0203" unicode="&#x203;" horiz-adv-x="1588" 
d="M668 -36q-146 0 -265 55.5t-189 161t-70 255.5q0 132 52 214.5t139 129.5t192.5 70.5t212.5 37.5q140 18 227.5 29t128 34.5t40.5 80.5q0 149 -80 232.5t-244 83.5q-169 0 -265 -74t-135 -158l-224 80q60 140 160.5 218.5t220 110t235.5 31.5q74 0 170.5 -17.5t187 -71.5
t150.5 -163t60 -292v-1012h-236v208h-12q-24 -50 -80 -107t-149 -97t-227 -40zM704 176q140 0 236.5 55t146 142t49.5 183v216q-15 -18 -65.5 -32.5t-116 -25t-127 -18t-99.5 -12.5q-92 -12 -171.5 -38.5t-128 -79t-48.5 -142.5q0 -123 91.5 -185.5t232.5 -62.5zM408 1776
q0 162 112 267t304 105t302 -105t110 -267h-220q0 81 -45 140.5t-147 59.5q-108 0 -152 -61t-44 -139h-220z" />
    <glyph glyph-name="uni0204" unicode="&#x204;" horiz-adv-x="1684" 
d="M248 0v2048h1236v-220h-988v-692h924v-220h-924v-696h1004v-220h-1252zM804 2248l-336 364h-332l420 -364h248zM1168 2248l-252 364h-304l336 -364h220z" />
    <glyph glyph-name="uni0205" unicode="&#x205;" horiz-adv-x="1640" 
d="M860 -32q-222 0 -382.5 98.5t-247 276t-86.5 413.5t86.5 416.5t242 282t363.5 101.5q120 0 237 -40t213 -129.5t153 -236.5t57 -362v-100h-1184v204h944q0 195 -114 323.5t-306 128.5q-141 0 -243.5 -69.5t-157.5 -181t-55 -237.5v-136q0 -262 133 -401t347 -139
q139 0 239 60t145 180l228 -64q-54 -174 -216 -281t-396 -107zM784 1736l-336 364h-332l420 -364h248zM1148 1736l-252 364h-304l336 -364h220z" />
    <glyph glyph-name="uni0206" unicode="&#x206;" horiz-adv-x="1684" 
d="M248 0v2048h1236v-220h-988v-692h924v-220h-924v-696h1004v-220h-1252zM432 2288q0 162 112 267t304 105t302 -105t110 -267h-220q0 81 -45 140.5t-147 59.5q-108 0 -152 -61t-44 -139h-220z" />
    <glyph glyph-name="uni0207" unicode="&#x207;" horiz-adv-x="1640" 
d="M860 -32q-222 0 -382.5 98.5t-247 276t-86.5 413.5t86.5 416.5t242 282t363.5 101.5q120 0 237 -40t213 -129.5t153 -236.5t57 -362v-100h-1184v204h944q0 195 -114 323.5t-306 128.5q-141 0 -243.5 -69.5t-157.5 -181t-55 -237.5v-136q0 -262 133 -401t347 -139
q139 0 239 60t145 180l228 -64q-54 -174 -216 -281t-396 -107zM412 1776q0 162 112 267t304 105t302 -105t110 -267h-220q0 81 -45 140.5t-147 59.5q-108 0 -152 -61t-44 -139h-220z" />
    <glyph glyph-name="uni0208" unicode="&#x208;" horiz-adv-x="744" 
d="M496 2048v-2048h-248v2048h248zM332 2248l-336 364h-332l420 -364h248zM696 2248l-252 364h-304l336 -364h220z" />
    <glyph glyph-name="uni0209" unicode="&#x209;" horiz-adv-x="668" 
d="M216 0v1536h236v-1536h-236zM296 1736l-336 364h-332l420 -364h248zM660 1736l-252 364h-304l336 -364h220z" />
    <glyph glyph-name="uni020A" unicode="&#x20a;" horiz-adv-x="744" 
d="M496 2048v-2048h-248v2048h248zM-40 2288q0 162 112 267t304 105t302 -105t110 -267h-220q0 81 -45 140.5t-147 59.5q-108 0 -152 -61t-44 -139h-220z" />
    <glyph glyph-name="uni020B" unicode="&#x20b;" horiz-adv-x="668" 
d="M216 0v1536h236v-1536h-236zM-76 1776q0 162 112 267t304 105t302 -105t110 -267h-220q0 81 -45 140.5t-147 59.5q-108 0 -152 -61t-44 -139h-220z" />
    <glyph glyph-name="uni020C" unicode="&#x20c;" horiz-adv-x="2144" 
d="M1976 1024q0 -324 -117 -560t-321 -364t-466 -128t-466 128t-321 364t-117 560t117 560t321 364t466 128t466 -128t321 -364t117 -560zM1736 1024q0 266 -88.5 449t-239 277t-336.5 94t-336.5 -94t-239 -277t-88.5 -449t88.5 -449t239 -277t336.5 -94t336.5 94t239 277
t88.5 449zM1032 2248l-336 364h-332l420 -364h248zM1396 2248l-252 364h-304l336 -364h220z" />
    <glyph glyph-name="uni020D" unicode="&#x20d;" horiz-adv-x="1680" 
d="M840 -32q-208 0 -364.5 99t-244 277t-87.5 416q0 240 87.5 419t244 278t364.5 99t364.5 -99t244 -278t87.5 -419q0 -238 -87.5 -416t-244 -277t-364.5 -99zM840 180q158 0 260 81t151 213t49 286t-49 287t-151 215t-260 82t-260 -82t-151 -215t-49 -287t49 -286t151 -213
t260 -81zM800 1736l-336 364h-332l420 -364h248zM1164 1736l-252 364h-304l336 -364h220z" />
    <glyph glyph-name="uni020E" unicode="&#x20e;" horiz-adv-x="2144" 
d="M1976 1024q0 -324 -117 -560t-321 -364t-466 -128t-466 128t-321 364t-117 560t117 560t321 364t466 128t466 -128t321 -364t117 -560zM1736 1024q0 266 -88.5 449t-239 277t-336.5 94t-336.5 -94t-239 -277t-88.5 -449t88.5 -449t239 -277t336.5 -94t336.5 94t239 277
t88.5 449zM660 2288q0 162 112 267t304 105t302 -105t110 -267h-220q0 81 -45 140.5t-147 59.5q-108 0 -152 -61t-44 -139h-220z" />
    <glyph glyph-name="uni020F" unicode="&#x20f;" horiz-adv-x="1680" 
d="M840 -32q-208 0 -364.5 99t-244 277t-87.5 416q0 240 87.5 419t244 278t364.5 99t364.5 -99t244 -278t87.5 -419q0 -238 -87.5 -416t-244 -277t-364.5 -99zM840 180q158 0 260 81t151 213t49 286t-49 287t-151 215t-260 82t-260 -82t-151 -215t-49 -287t49 -286t151 -213
t260 -81zM428 1776q0 162 112 267t304 105t302 -105t110 -267h-220q0 81 -45 140.5t-147 59.5q-108 0 -152 -61t-44 -139h-220z" />
    <glyph glyph-name="uni0210" unicode="&#x210;" horiz-adv-x="1800" 
d="M248 0v2048h736q206 0 352 -79.5t223 -220t77 -324.5q0 -198 -94.5 -351t-289.5 -225l464 -848h-288l-432 800h-596v224h544q231 0 339.5 106.5t108.5 289.5q0 192 -108 300t-312 108h-476v-1828h-248zM840 2248l-336 364h-332l420 -364h248zM1204 2248l-252 364h-304
l336 -364h220z" />
    <glyph glyph-name="uni0211" unicode="&#x211;" horiz-adv-x="1080" 
d="M216 0v1536h228v-232h16q41 114 151 185t249 71q64 0 112 -15t84 -41l-80 -200q-25 13 -58.5 20.5t-77.5 7.5q-168 0 -278 -102.5t-110 -257.5v-972h-236zM540 1736l-336 364h-332l420 -364h248zM904 1736l-252 364h-304l336 -364h220z" />
    <glyph glyph-name="uni0212" unicode="&#x212;" horiz-adv-x="1800" 
d="M248 0v2048h736q206 0 352 -79.5t223 -220t77 -324.5q0 -198 -94.5 -351t-289.5 -225l464 -848h-288l-432 800h-596v224h544q231 0 339.5 106.5t108.5 289.5q0 192 -108 300t-312 108h-476v-1828h-248zM468 2288q0 162 112 267t304 105t302 -105t110 -267h-220
q0 81 -45 140.5t-147 59.5q-108 0 -152 -61t-44 -139h-220z" />
    <glyph glyph-name="uni0213" unicode="&#x213;" horiz-adv-x="1080" 
d="M216 0v1536h228v-232h16q41 114 151 185t249 71q64 0 112 -15t84 -41l-80 -200q-25 13 -58.5 20.5t-77.5 7.5q-168 0 -278 -102.5t-110 -257.5v-972h-236zM216 1776q0 162 112 267t304 105t302 -105t110 -267h-220q0 81 -45 140.5t-147 59.5q-108 0 -152 -61t-44 -139
h-220z" />
    <glyph glyph-name="uni0214" unicode="&#x214;" horiz-adv-x="2088" 
d="M1592 2048h248v-1356q0 -230 -109 -393t-290 -249t-397 -86t-397 86t-290 249t-109 393v1356h248v-1356q0 -160 76 -270.5t201 -168t271 -57.5t271 57.5t201 168t76 270.5v1356zM1004 2248l-336 364h-332l420 -364h248zM1368 2248l-252 364h-304l336 -364h220z" />
    <glyph glyph-name="uni0215" unicode="&#x215;" horiz-adv-x="1636" 
d="M1184 628v908h236v-1536h-236v260h-16q-54 -117 -168 -198.5t-288 -81.5q-144 0 -256 63.5t-176 192t-64 324.5v976h236v-960q0 -168 94.5 -268t241.5 -100q88 0 179.5 45t154 138t62.5 237zM780 1736l-336 364h-332l420 -364h248zM1144 1736l-252 364h-304l336 -364h220
z" />
    <glyph glyph-name="uni0216" unicode="&#x216;" horiz-adv-x="2088" 
d="M1592 2048h248v-1356q0 -230 -109 -393t-290 -249t-397 -86t-397 86t-290 249t-109 393v1356h248v-1356q0 -160 76 -270.5t201 -168t271 -57.5t271 57.5t201 168t76 270.5v1356zM632 2288q0 162 112 267t304 105t302 -105t110 -267h-220q0 81 -45 140.5t-147 59.5
q-108 0 -152 -61t-44 -139h-220z" />
    <glyph glyph-name="uni0217" unicode="&#x217;" horiz-adv-x="1636" 
d="M1184 628v908h236v-1536h-236v260h-16q-54 -117 -168 -198.5t-288 -81.5q-144 0 -256 63.5t-176 192t-64 324.5v976h236v-960q0 -168 94.5 -268t241.5 -100q88 0 179.5 45t154 138t62.5 237zM408 1776q0 162 112 267t304 105t302 -105t110 -267h-220q0 81 -45 140.5
t-147 59.5q-108 0 -152 -61t-44 -139h-220z" />
    <glyph glyph-name="uni0218" unicode="&#x218;" horiz-adv-x="1796" 
d="M1368 1536q-18 152 -146 236t-314 84q-204 0 -328 -96.5t-124 -243.5q0 -110 67.5 -177.5t160 -105t168.5 -57.5l208 -56q80 -21 178.5 -58t189 -100.5t149.5 -162.5t59 -243q0 -166 -86.5 -300t-252 -213t-401.5 -79q-220 0 -380.5 71t-252 198t-103.5 295h256
q10 -116 78.5 -191.5t174 -112t227.5 -36.5q142 0 255 46.5t179 130t66 195.5q0 102 -57 166t-150 104t-201 70l-252 72q-240 69 -380 197t-140 335q0 172 93.5 300.5t252 200t354.5 71.5q198 0 352 -70.5t244.5 -192.5t95.5 -277h-240zM1020 -164v-124
q-3 -132 -42.5 -287.5t-117.5 -272.5l-200 40q34 80 62 170.5t45 180t17 165.5v128h236z" />
    <glyph glyph-name="uni0219" unicode="&#x219;" horiz-adv-x="1472" 
d="M1304 1192l-212 -60q-31 80 -104 150t-228 70q-141 0 -234.5 -64.5t-93.5 -163.5q0 -88 64 -139t200 -85l228 -56q408 -100 408 -416q0 -133 -75.5 -236.5t-210.5 -163.5t-314 -60q-235 0 -389 102t-195 298l224 56q32 -124 121.5 -186t234.5 -62q165 0 262.5 70.5
t97.5 169.5q0 163 -228 216l-256 60q-211 50 -309.5 155.5t-98.5 264.5q0 130 73.5 230t201 157t289.5 57q228 0 358.5 -100t185.5 -264zM880 -128v-124q-3 -132 -42.5 -287.5t-117.5 -272.5l-200 40q34 80 62 170.5t45 180t17 165.5v128h236z" />
    <glyph glyph-name="uni021A" unicode="&#x21a;" horiz-adv-x="1808" 
d="M136 1828v220h1536v-220h-644v-1828h-248v1828h-644zM1024 -128v-124q-3 -132 -42.5 -287.5t-117.5 -272.5l-200 40q34 80 62 170.5t45 180t17 165.5v128h236z" />
    <glyph glyph-name="uni021B" unicode="&#x21b;" horiz-adv-x="1040" 
d="M884 1536v-200h-796v200h796zM320 1904h236v-1464q0 -100 29.5 -149.5t76 -66t98.5 -16.5q39 0 64 4.5t40 7.5l48 -212q-24 -9 -67 -18.5t-109 -9.5q-100 0 -195.5 43t-158 131t-62.5 222v1528zM696 -128v-124q-3 -132 -42.5 -287.5t-117.5 -272.5l-200 40
q34 80 62 170.5t45 180t17 165.5v128h236z" />
    <glyph glyph-name="uni021C" unicode="&#x21c;" horiz-adv-x="1776" 
d="M304 444v208q236 71 418 147.5t307.5 170t190 214.5t64.5 280q0 135 -101.5 235.5t-326.5 100.5q-106 0 -195 -41t-143 -114t-54 -169h-284q0 170 92.5 295t246 193t337.5 68q218 0 378 -65.5t247 -193t87 -313.5q0 -180 -95.5 -336.5t-266.5 -285.5t-401.5 -228.5
t-500.5 -165.5zM1100 872l140 156q114 -42 194.5 -118.5t123 -191t42.5 -270.5q0 -244 -96.5 -418t-271 -293.5t-411 -199.5t-517.5 -137v228q318 64 543.5 163t345 258t119.5 403q0 180 -49 277.5t-163 142.5z" />
    <glyph glyph-name="uni021D" unicode="&#x21d;" horiz-adv-x="1520" 
d="M300 288v204q126 30 255.5 77t238.5 116.5t175.5 167t66.5 227.5q0 81 -63.5 148.5t-216.5 67.5q-126 0 -213 -65.5t-87 -158.5h-272q0 136 78 235.5t208 154t286 54.5q258 0 407 -111.5t149 -324.5q0 -153 -85 -282t-229 -231t-325 -172.5t-373 -106.5zM888 624l152 140
q147 -63 223.5 -198t76.5 -306q0 -260 -120 -435t-352 -278t-568 -147v216q228 50 400 124.5t268 198t96 321.5q0 129 -44.5 227t-131.5 137z" />
    <glyph glyph-name="uni021E" unicode="&#x21e;" horiz-adv-x="2084" 
d="M248 0v2048h248v-912h1092v912h248v-2048h-248v916h-1092v-916h-248zM812 2632l240 -240l244 240h192v-16l-368 -376h-136l-364 376v16h192z" />
    <glyph glyph-name="uni021F" unicode="&#x21f;" horiz-adv-x="1664" 
d="M452 924v-924h-236v2048h236v-752h20q54 119 162.5 189.5t289.5 70.5q157 0 275 -62.5t183.5 -191.5t65.5 -326v-976h-236v960q0 183 -94.5 283.5t-261.5 100.5q-175 0 -289.5 -109.5t-114.5 -310.5zM96 2628l240 -240l244 240h192v-16l-368 -376h-136l-364 376v16h192z
" />
    <glyph glyph-name="uni0220" unicode="&#x220;" horiz-adv-x="1776" 
d="M1616 -572h-276v1928q0 234 -124 341t-328 107q-171 0 -297.5 -39t-222.5 -105v220q62 42 142.5 76.5t176 55t201.5 20.5q190 0 356 -75t269 -225t103 -376v-1928zM436 2004v-2004h-272v2004h272z" />
    <glyph glyph-name="uni0221" unicode="&#x221;" horiz-adv-x="2024" 
d="M1264 336h236v-500q0 -102 56.5 -155t131.5 -53q72 0 116 45.5t44 114.5q0 63 -36.5 105t-99.5 51q-72 12 -129.5 -15.5t-102.5 -72.5l-376 -380l-152 156l312 320q96 99 214.5 149.5t229.5 50.5q165 0 274.5 -99.5t109.5 -264.5q0 -162 -109 -263t-295 -101
q-154 0 -247 65.5t-135 165t-42 201.5v480zM1500 0h-228v236h-28q-26 -42 -74 -105.5t-137 -113t-237 -49.5q-192 0 -339 97.5t-230 276t-83 422.5q0 242 83 420t231 275t342 97q150 0 237.5 -49.5t134 -112t72.5 -102.5h20v756h236v-2048zM1268 768q0 258 -112 417
t-328 159q-150 0 -249.5 -76.5t-149 -207t-49.5 -292.5q0 -164 50.5 -297.5t150 -212t247.5 -78.5q213 0 326.5 163.5t113.5 424.5z" />
    <glyph glyph-name="uni0222" unicode="&#x222;" horiz-adv-x="1776" 
d="M872 1212h32q214 0 386 -69t273 -205t101 -338q0 -212 -101 -351.5t-273 -208t-386 -68.5h-32q-214 0 -386 68.5t-273 207t-101 348.5q0 204 101 341t273 206t386 69zM904 996h-32q-216 0 -346 -98t-130 -302t130 -296t346 -92h32q216 0 346 92.5t130 299.5
q0 201 -130 298.5t-346 97.5zM860 1232h56q126 0 231.5 25t169 90t63.5 185q0 129 -65.5 190t-194.5 94v216q152 -8 275.5 -63t196 -163t72.5 -274q0 -192 -104.5 -305t-275 -162t-368.5 -49h-56q-198 0 -368.5 49t-275 162t-104.5 305q0 166 73.5 274t197 163t273.5 63
v-216q-129 -33 -194.5 -94t-65.5 -190q0 -120 64.5 -185t170 -90t229.5 -25z" />
    <glyph glyph-name="uni0223" unicode="&#x223;" horiz-adv-x="1776" 
d="M872 1208h32q214 0 385 -68t271 -203t100 -337q0 -212 -100 -351.5t-271 -208t-385 -68.5h-32q-214 0 -385 68.5t-271 207t-100 348.5q0 204 100 340t271 204t385 68zM904 1000h-32q-216 0 -348 -100t-132 -304t132 -304t348 -100h32q213 0 346.5 100.5t133.5 307.5
q0 201 -133.5 300.5t-346.5 99.5zM916 1220q126 0 232.5 29.5t171 106t64.5 216.5q0 150 -67.5 231.5t-196.5 132.5v204q150 -6 272.5 -73.5t195 -192t72.5 -302.5q0 -206 -103.5 -328t-273 -175t-367.5 -53h-56q-198 0 -367.5 53t-273 175t-103.5 328q0 178 72.5 302.5
t195 192t272.5 73.5v-204q-129 -51 -196.5 -132.5t-67.5 -231.5q0 -140 65.5 -216.5t172 -106t230.5 -29.5h56z" />
    <glyph glyph-name="uni0224" unicode="&#x224;" horiz-adv-x="1760" 
d="M1016 220h184q189 0 298.5 -112t109.5 -292v-120h-224v76q0 58 -17 110t-57 85t-110 33h-184v220zM1016 220v-220h-836v180l1104 1648h-1116v220h1412v-180l-1104 -1648h540z" />
    <glyph glyph-name="uni0225" unicode="&#x225;" horiz-adv-x="1520" 
d="M1192 -320v76q0 64 -15.5 119.5t-58 90t-122.5 34.5h-820v200l864 1116h-880v220h1184v-188l-860 -1128h512q195 0 301.5 -116.5t106.5 -287.5v-136h-212z" />
    <glyph glyph-name="uni0226" unicode="&#x226;" horiz-adv-x="1904" 
d="M332 0h-260l752 2048h256l752 -2048h-260l-612 1724h-16zM428 800h1048v-220h-1048v220zM952 2300q-69 0 -118.5 47t-49.5 113t49.5 113t118.5 47t118.5 -47t49.5 -113t-49.5 -113t-118.5 -47z" />
    <glyph glyph-name="uni0227" unicode="&#x227;" horiz-adv-x="1588" 
d="M668 -36q-146 0 -265 55.5t-189 161t-70 255.5q0 132 52 214.5t139 129.5t192.5 70.5t212.5 37.5q140 18 227.5 29t128 34.5t40.5 80.5q0 149 -80 232.5t-244 83.5q-169 0 -265 -74t-135 -158l-224 80q60 140 160.5 218.5t220 110t235.5 31.5q74 0 170.5 -17.5t187 -71.5
t150.5 -163t60 -292v-1012h-236v208h-12q-24 -50 -80 -107t-149 -97t-227 -40zM704 176q140 0 236.5 55t146 142t49.5 183v216q-15 -18 -65.5 -32.5t-116 -25t-127 -18t-99.5 -12.5q-92 -12 -171.5 -38.5t-128 -79t-48.5 -142.5q0 -123 91.5 -185.5t232.5 -62.5zM820 1788
q-69 0 -118.5 47t-49.5 113t49.5 113t118.5 47t118.5 -47t49.5 -113t-49.5 -113t-118.5 -47z" />
    <glyph glyph-name="uni0228" unicode="&#x228;" horiz-adv-x="1684" 
d="M248 0v2048h1236v-220h-988v-692h924v-220h-924v-696h1004v-220h-1252zM744 8h196l-16 -80q78 -12 143 -65.5t65 -170.5q0 -129 -106.5 -210.5t-313.5 -81.5l-8 156q93 0 154.5 29.5t61.5 98.5t-51 94t-165 34z" />
    <glyph glyph-name="uni0229" unicode="&#x229;" horiz-adv-x="1640" 
d="M860 -32q-222 0 -382.5 98.5t-247 276t-86.5 413.5t86.5 416.5t242 282t363.5 101.5q120 0 237 -40t213 -129.5t153 -236.5t57 -362v-100h-1184v204h944q0 195 -114 323.5t-306 128.5q-141 0 -243.5 -69.5t-157.5 -181t-55 -237.5v-136q0 -262 133 -401t347 -139
q139 0 239 60t145 180l228 -64q-54 -174 -216 -281t-396 -107zM724 8h196l-16 -80q78 -12 143 -65.5t65 -170.5q0 -129 -106.5 -210.5t-313.5 -81.5l-8 156q93 0 154.5 29.5t61.5 98.5t-51 94t-165 34z" />
    <glyph glyph-name="uni022A" unicode="&#x22a;" horiz-adv-x="2144" 
d="M1976 1024q0 -324 -117 -560t-321 -364t-466 -128t-466 128t-321 364t-117 560t117 560t321 364t466 128t466 -128t321 -364t117 -560zM1736 1024q0 266 -88.5 449t-239 277t-336.5 94t-336.5 -94t-239 -277t-88.5 -449t88.5 -449t239 -277t336.5 -94t336.5 94t239 277
t88.5 449zM1540 2888v-208h-936v208h936zM592 2417q0 65 40.5 110t115.5 45q78 0 119 -45t41 -111q0 -63 -40.5 -105.5t-117.5 -42.5q-79 0 -118.5 44t-39.5 105zM1236 2415q0 64 41 108.5t119 44.5q75 0 115.5 -44.5t40.5 -107.5q0 -60 -39 -106t-117 -46t-119 44.5
t-41 106.5z" />
    <glyph glyph-name="uni022B" unicode="&#x22b;" horiz-adv-x="1680" 
d="M840 -32q-208 0 -364.5 99t-244 277t-87.5 416q0 240 87.5 419t244 278t364.5 99t364.5 -99t244 -278t87.5 -419q0 -238 -87.5 -416t-244 -277t-364.5 -99zM840 180q158 0 260 81t151 213t49 286t-49 287t-151 215t-260 82t-260 -82t-151 -215t-49 -287t49 -286t151 -213
t260 -81zM392 1896q0 63 41 107.5t119 44.5t117 -46t39 -106q0 -63 -40.5 -105.5t-115.5 -42.5q-78 0 -119 42.5t-41 105.5zM984 1893q0 62 39 108.5t117 46.5t119 -46.5t41 -109.5q0 -60 -41 -104t-119 -44t-117 44t-39 105zM1320 2416v-208h-940v208h940z" />
    <glyph glyph-name="uni022C" unicode="&#x22c;" horiz-adv-x="2144" 
d="M1976 1024q0 -324 -117 -560t-321 -364t-466 -128t-466 128t-321 364t-117 560t117 560t321 364t466 128t466 -128t321 -364t117 -560zM1736 1024q0 266 -88.5 449t-239 277t-336.5 94t-336.5 -94t-239 -277t-88.5 -449t88.5 -449t239 -277t336.5 -94t336.5 94t239 277
t88.5 449zM1336 2540l120 -32q0 -102 -65 -177t-167 -75q-74 0 -119 26t-85 52t-100 26q-45 0 -76.5 -38t-31.5 -86l-120 32q0 99 64.5 177.5t163.5 78.5q62 0 108.5 -25t92 -50t103.5 -25q45 0 78.5 32.5t33.5 83.5zM1544 2888v-208h-940v208h940z" />
    <glyph glyph-name="uni022D" unicode="&#x22d;" horiz-adv-x="1680" 
d="M840 -32q-208 0 -364.5 99t-244 277t-87.5 416q0 240 87.5 419t244 278t364.5 99t364.5 -99t244 -278t87.5 -419q0 -238 -87.5 -416t-244 -277t-364.5 -99zM840 180q158 0 260 81t151 213t49 286t-49 287t-151 215t-260 82t-260 -82t-151 -215t-49 -287t49 -286t151 -213
t260 -81zM1152 2104l184 -16q0 -104 -41 -180.5t-110 -118t-153 -41.5q-69 0 -114.5 19.5t-81.5 44.5t-75.5 44.5t-96.5 19.5q-54 0 -93 -46t-39 -106l-180 8q0 102 40 180.5t108 123t152 44.5q76 0 130.5 -32t108 -64t125.5 -32q57 0 96.5 44.5t39.5 107.5zM1320 2456v-208
h-940v208h940z" />
    <glyph glyph-name="uni022E" unicode="&#x22e;" horiz-adv-x="2144" 
d="M1976 1024q0 -324 -117 -560t-321 -364t-466 -128t-466 128t-321 364t-117 560t117 560t321 364t466 128t466 -128t321 -364t117 -560zM1736 1024q0 266 -88.5 449t-239 277t-336.5 94t-336.5 -94t-239 -277t-88.5 -449t88.5 -449t239 -277t336.5 -94t336.5 94t239 277
t88.5 449zM1072 2300q-69 0 -118.5 47t-49.5 113t49.5 113t118.5 47t118.5 -47t49.5 -113t-49.5 -113t-118.5 -47z" />
    <glyph glyph-name="uni022F" unicode="&#x22f;" horiz-adv-x="1680" 
d="M840 -32q-208 0 -364.5 99t-244 277t-87.5 416q0 240 87.5 419t244 278t364.5 99t364.5 -99t244 -278t87.5 -419q0 -238 -87.5 -416t-244 -277t-364.5 -99zM840 180q158 0 260 81t151 213t49 286t-49 287t-151 215t-260 82t-260 -82t-151 -215t-49 -287t49 -286t151 -213
t260 -81zM840 1788q-69 0 -118.5 47t-49.5 113t49.5 113t118.5 47t118.5 -47t49.5 -113t-49.5 -113t-118.5 -47z" />
    <glyph glyph-name="uni0230" unicode="&#x230;" horiz-adv-x="2144" 
d="M1976 1024q0 -324 -117 -560t-321 -364t-466 -128t-466 128t-321 364t-117 560t117 560t321 364t466 128t466 -128t321 -364t117 -560zM1736 1024q0 266 -88.5 449t-239 277t-336.5 94t-336.5 -94t-239 -277t-88.5 -449t88.5 -449t239 -277t336.5 -94t336.5 94t239 277
t88.5 449zM912 2416q0 63 41 107.5t119 44.5t119 -44.5t41 -107.5t-41 -107.5t-119 -44.5t-119 44.5t-41 107.5zM1544 2888v-208h-940v208h940z" />
    <glyph glyph-name="uni0231" unicode="&#x231;" horiz-adv-x="1680" 
d="M840 -32q-208 0 -364.5 99t-244 277t-87.5 416q0 240 87.5 419t244 278t364.5 99t364.5 -99t244 -278t87.5 -419q0 -238 -87.5 -416t-244 -277t-364.5 -99zM840 180q158 0 260 81t151 213t49 286t-49 287t-151 215t-260 82t-260 -82t-151 -215t-49 -287t49 -286t151 -213
t260 -81zM684 1892q0 66 40.5 111t115.5 45q81 0 120.5 -46.5t39.5 -109.5t-41 -105.5t-119 -42.5q-75 0 -115.5 42.5t-40.5 105.5zM1320 2412v-208h-940v208h940z" />
    <glyph glyph-name="uni0232" unicode="&#x232;" horiz-adv-x="1880" 
d="M76 2048h284l568 -956h24l568 956h284l-740 -1204v-844h-248v844zM1412 2524v-200h-940v200h940z" />
    <glyph glyph-name="uni0233" unicode="&#x233;" horiz-adv-x="1568" 
d="M360 -596q-60 0 -107 9.5t-65 18.5l60 208q129 -33 213.5 2t150.5 206l56 140l-572 1548h256l424 -1224h16l424 1224h256l-660 -1784q-44 -118 -108.5 -195t-150 -115t-193.5 -38zM1252 2012v-200h-940v200h940z" />
    <glyph glyph-name="uni0234" unicode="&#x234;" horiz-adv-x="964" 
d="M216 336h236v-47v-118.5v-148.5v-139v-87q0 -69 56.5 -118.5t131.5 -49.5q72 0 116 45.5t44 114.5q0 72 -47 112t-125 40q-96 0 -162.5 -53t-129.5 -119l-280 -292l-152 156l312 320q64 66 139 110.5t153 67t152 22.5q110 0 197 -45t137 -127t50 -192q0 -108 -49.5 -190
t-140 -128t-214.5 -46q-115 0 -196 38t-131.5 101.5t-73.5 140t-23 152.5v480zM452 2048v-2048h-236v2048h236z" />
    <glyph glyph-name="uni0235" unicode="&#x235;" horiz-adv-x="2152" 
d="M1196 148h236v-120q0 -69 56.5 -118.5t131.5 -49.5q72 0 116 45.5t44 114.5q0 72 -47 112t-125 40q-48 0 -88 -14.5t-74.5 -38.5t-66 -55t-63.5 -64l-280 -292l-152 156l312 320q48 50 102 87t111 62.5t115.5 38t115.5 12.5q110 0 197 -45t137 -127t50 -192
q0 -162 -109 -263t-295 -101q-154 0 -247 65.5t-135 165t-42 201.5v60zM452 924v-924h-236v1536h228v-240h20q54 117 164 188.5t284 71.5q156 0 273 -63.5t182 -192t65 -324.5v-976h-236v960q0 181 -94 282.5t-258 101.5q-169 0 -280.5 -109.5t-111.5 -310.5z" />
    <glyph glyph-name="uni0236" unicode="&#x236;" horiz-adv-x="1364" 
d="M400 1904h236v-1564q0 -69 56.5 -118.5t131.5 -49.5q72 0 120 45.5t48 114.5q0 72 -51 112t-129 40q-96 0 -162.5 -53t-129.5 -119l-280 -292l-152 156l312 320q64 66 139 110.5t153 67t152 22.5q110 0 199 -45t141 -127t52 -192q0 -108 -51.5 -190t-144 -128t-216.5 -46
q-115 0 -196 38t-131.5 101.5t-73.5 140t-23 152.5v1504zM964 1536v-200h-796v200h796z" />
    <glyph glyph-name="uni0237" unicode="&#x237;" horiz-adv-x="668" 
d="M216 1536h236v-1648q0 -142 -48.5 -246t-146 -161t-245.5 -57h-48v220h44q108 0 158 63.5t50 180.5v1648z" />
    <glyph glyph-name="uni0238" unicode="&#x238;" horiz-adv-x="2544" 
d="M2408 756v-28q0 -216 -68.5 -387t-198 -270t-313.5 -99q-192 0 -319.5 88t-198 251t-90.5 389v88q15 170 58 304.5t116.5 229t180.5 144.5t249 50q188 0 318.5 -96t198 -267t67.5 -397zM2132 728v28q0 144 -36 265t-119 194t-225 73q-122 0 -203.5 -54.5t-129 -143
t-67.5 -190.5v-312q22 -96 69.5 -185t129 -146t205.5 -57q134 0 217 72t121 192t38 264zM1132 288v1824h276v-2112h-252zM140 728v28q0 226 74 397t207 267t311 96q188 0 314 -88t196 -251t90 -389v-88q-15 -169 -58 -304t-116.5 -229.5t-180 -144.5t-249.5 -50
q-174 0 -306.5 99t-207 270t-74.5 387zM416 756v-28q0 -144 39 -264t123 -192t218 -72q124 0 203 53.5t126 142t75 192.5v312q-20 102 -67.5 190.5t-129 143t-203.5 54.5q-136 0 -220.5 -73t-124 -194t-39.5 -265z" />
    <glyph glyph-name="uni0239" unicode="&#x239;" horiz-adv-x="2544" 
d="M1132 -572v1776l24 284h228l24 -284v-1776h-276zM140 728v28q0 226 70.5 397t204 267t321.5 96q190 0 319 -88t201 -251t92 -389v-88q-15 -169 -59 -304t-119.5 -229.5t-183 -144.5t-250.5 -50q-186 0 -319.5 99t-205 270t-71.5 387zM416 756v-28q0 -144 41 -266
t127 -196t220 -74q124 0 205 55.5t130 146t77 194.5v312q-20 102 -69.5 192.5t-133 147t-205.5 56.5q-136 0 -222.5 -75t-128 -198t-41.5 -267zM2404 756v-28q0 -216 -67.5 -387t-197 -270t-315.5 -99q-144 0 -253 48.5t-184.5 139.5t-120.5 220.5t-62 291.5v116
q22 226 95 389t202 251t319 88t320 -96t197 -267t67 -397zM2128 728v28q0 144 -40.5 265t-127 194t-224.5 73q-120 0 -201 -54.5t-129 -143t-70 -190.5v-340q28 -96 76 -180t127 -136t201 -52q136 0 221.5 74t126 196t40.5 266z" />
    <glyph glyph-name="uni023A" unicode="&#x23a;" horiz-adv-x="1904" 
d="M1572 2308l-912 -2568h-228l912 2568h228zM332 0h-260l752 2048h256l752 -2048h-260l-612 1724h-16zM428 800h1048v-220h-1048v220z" />
    <glyph glyph-name="uni023B" unicode="&#x23b;" horiz-adv-x="2048" 
d="M464 -260l912 2568h228l-912 -2568h-228zM1896 1408h-248q-30 142 -115 239t-205 147t-256 50q-186 0 -336.5 -94t-239 -277t-88.5 -449t88.5 -449t239 -277t336.5 -94q136 0 256 50t205 147t115 239h248q-28 -157 -102 -281t-184 -210.5t-246.5 -131.5t-291.5 -45
q-262 0 -466 128t-321 364t-117 560t117 560t321 364t466 128q206 0 379 -79.5t290 -229t155 -359.5z" />
    <glyph glyph-name="uni023C" unicode="&#x23c;" horiz-adv-x="1572" 
d="M1424 2048l-1048 -2624h-192l1052 2624h188zM840 -32q-216 0 -372 102t-240 281t-84 409q0 234 86.5 413.5t242 281t363.5 101.5q162 0 292 -60t213 -168t103 -252h-236q-27 105 -119.5 186.5t-248.5 81.5q-207 0 -333.5 -157.5t-126.5 -418.5q0 -267 125 -427.5
t335 -160.5q138 0 236.5 71t131.5 197h236q-20 -136 -98.5 -244.5t-207 -172t-298.5 -63.5z" />
    <glyph glyph-name="uni023D" unicode="&#x23d;" horiz-adv-x="1584" 
d="M248 0v2048h248v-1828h952v-220h-1200zM-68 964v184h880v-184h-880z" />
    <glyph glyph-name="uni023E" unicode="&#x23e;" horiz-adv-x="1808" 
d="M360 -260l912 2568h228l-912 -2568h-228zM136 1828v220h1536v-220h-644v-1828h-248v1828h-644z" />
    <glyph glyph-name="uni023F" unicode="&#x23f;" horiz-adv-x="1472" 
d="M376 364q131 -232 212 -378t132 -224.5t87.5 -108t76.5 -29.5q54 0 104.5 33t83.5 63l92 -160q-45 -45 -122 -90.5t-158 -45.5q-88 0 -157.5 37.5t-128.5 109.5t-118 173l-292 508zM1304 1192l-212 -60q-31 80 -104 150t-228 70q-141 0 -234.5 -64.5t-93.5 -163.5
q0 -88 64 -139t200 -85l228 -56q408 -100 408 -416q0 -133 -75.5 -236.5t-210.5 -163.5t-314 -60q-235 0 -389 102t-195 298l224 56q32 -124 121.5 -186t234.5 -62q165 0 262.5 70.5t97.5 169.5q0 163 -228 216l-256 60q-211 50 -309.5 155.5t-98.5 264.5q0 130 73.5 230
t201 157t289.5 57q228 0 358.5 -100t185.5 -264z" />
    <glyph glyph-name="uni0240" unicode="&#x240;" horiz-adv-x="1516" 
d="M484 220h60q151 0 255.5 -58t177.5 -144t129 -172t108.5 -144t117.5 -58q38 0 71 10t61 27t52 39l92 -160q-45 -45 -119 -90.5t-173 -45.5q-90 0 -154.5 41.5t-115.5 107t-100 139.5t-106.5 139.5t-135.5 107t-188 41.5h-32v220zM484 220v-220h-308v200l864 1116h-880
v220h1184v-188z" />
    <glyph glyph-name="uni0241" unicode="&#x241;" horiz-adv-x="1520" 
d="M664 624h60q156 0 241 73.5t118 189t33 241.5v160q0 93 -18.5 182.5t-62 162.5t-119.5 116t-192 43q-150 0 -238.5 -88t-97.5 -232h-268q6 160 82.5 286.5t210 200t311.5 73.5q228 0 378 -103.5t224 -273t74 -367.5v-160q0 -198 -74 -367.5t-224 -273t-378 -103.5h-60
v240zM880 624v-624h-288v624h288z" />
    <glyph glyph-name="uni0242" unicode="&#x242;" horiz-adv-x="1520" 
d="M192 964q0 170 74 294t199 191t279 67q188 0 318.5 -65.5t198 -193t67.5 -313.5q0 -138 -54 -251.5t-176 -181t-326 -67.5h-64v172h60q106 0 169 43t91 118t28 171q0 141 -69 244.5t-243 103.5q-126 0 -201 -95.5t-75 -236.5h-276zM640 616h276v-616h-276v616z" />
    <glyph glyph-name="uni0243" unicode="&#x243;" horiz-adv-x="1988" 
d="M404 0v2048h716q214 0 353 -73.5t207 -197t68 -273.5q0 -132 -46.5 -218t-122 -136t-163.5 -74v-20q94 -6 189 -66t159 -172t64 -274q0 -154 -70 -277t-221 -195t-393 -72h-740zM652 220h492q243 0 345.5 94.5t102.5 229.5q0 104 -53 192.5t-151 142t-232 53.5h-504v-712
zM652 1148h460q168 0 284 97t116 259q0 135 -94 229.5t-298 94.5h-468v-680zM88 484v184h880v-184h-880z" />
    <glyph glyph-name="uni0244" unicode="&#x244;" horiz-adv-x="2088" 
d="M2096 1188v-164h-2104v164h2104zM1592 2048h248v-1356q0 -230 -109 -393t-290 -249t-397 -86t-397 86t-290 249t-109 393v1356h248v-1356q0 -160 76 -270.5t201 -168t271 -57.5t271 57.5t201 168t76 270.5v1356z" />
    <glyph glyph-name="uni0245" unicode="&#x245;" horiz-adv-x="2032" 
d="M1572 0l-580 1688l-72 316h220l744 -2004h-312zM1036 1688l-572 -1688h-312l740 2004h220z" />
    <glyph glyph-name="uni0246" unicode="&#x246;" horiz-adv-x="1684" 
d="M1412 2308l-740 -2568h-228l740 2568h228zM248 0v2048h1236v-220h-988v-692h924v-220h-924v-696h1004v-220h-1252z" />
    <glyph glyph-name="uni0247" unicode="&#x247;" horiz-adv-x="1640" 
d="M1424 2048l-1048 -2624h-192l1052 2624h188zM860 -32q-222 0 -382.5 98.5t-247 276t-86.5 413.5t86.5 416.5t242 282t363.5 101.5q120 0 237 -40t213 -129.5t153 -236.5t57 -362v-100h-1184v204h944q0 195 -114 323.5t-306 128.5q-141 0 -243.5 -69.5t-157.5 -181
t-55 -237.5v-136q0 -262 133 -401t347 -139q139 0 239 60t145 180l228 -64q-54 -174 -216 -281t-396 -107z" />
    <glyph glyph-name="uni0248" unicode="&#x248;" horiz-adv-x="1528" 
d="M1032 584v1464h248v-1464q0 -196 -72 -333t-203 -208t-309 -71q-168 0 -299 61.5t-206 175.5t-75 271h244q0 -130 95 -209t241 -79q161 0 248.5 100.5t87.5 291.5zM716 1124v184h880v-184h-880z" />
    <glyph glyph-name="uni0249" unicode="&#x249;" horiz-adv-x="668" 
d="M216 1536h236v-1648q0 -142 -48.5 -246t-146 -161t-245.5 -57h-48v220h44q108 0 158 63.5t50 180.5v1648zM-108 800v184h880v-184h-880zM332 1788q-69 0 -118.5 47t-49.5 113t49.5 113t118.5 47t118.5 -47t49.5 -113t-49.5 -113t-118.5 -47z" />
    <glyph glyph-name="uni024A" unicode="&#x24a;" horiz-adv-x="2196" 
d="M1896 2048v-2212q0 -120 64 -164t160 -44q21 0 41 2.5t35 5.5v-200q-27 -9 -63.5 -10.5t-72.5 -1.5q-84 0 -156.5 27t-127.5 80t-85.5 129.5t-30.5 175.5v488h-16q-78 -171 -239.5 -263.5t-368.5 -92.5q-192 0 -351 77.5t-275 219t-179 337t-63 430.5q0 228 62.5 419
t178 331t275 217t352.5 77q210 0 371.5 -91t236.5 -253h24v316h228zM1036 204q226 0 364 110t201 296.5t63 417.5q0 226 -67 413t-205.5 299t-351.5 112q-190 0 -331 -107t-219 -293t-78 -424q0 -254 80 -439t221 -285t323 -100z" />
    <glyph glyph-name="uni024B" unicode="&#x24b;" horiz-adv-x="1800" 
d="M1664 -576q-84 0 -156.5 27t-127.5 80t-85.5 129.5t-30.5 175.5v100h236v-100q0 -120 64 -164t160 -44q21 0 41 2.5t35 5.5v-200q-27 -9 -63.5 -10.5t-72.5 -1.5zM796 -32q-192 0 -339 97.5t-230 276t-83 422.5q0 242 83 420t231 275t342 97q150 0 237.5 -49.5t134 -112
t72.5 -102.5h116v-1056h-116q-26 -42 -74 -105.5t-137 -113t-237 -49.5zM1500 -64h-236v428l80 388l-72 496v288h228v-1600zM828 180q213 0 326.5 163.5t113.5 424.5q0 258 -112 417t-328 159q-150 0 -249.5 -76.5t-149 -207t-49.5 -292.5q0 -164 50.5 -297.5t150 -212
t247.5 -78.5z" />
    <glyph glyph-name="uni024C" unicode="&#x24c;" horiz-adv-x="1824" 
d="M412 800h-380v224h380v-224zM272 0v2048h736q206 0 352 -79.5t223 -220t77 -324.5q0 -198 -94.5 -351t-289.5 -225l464 -848h-288l-432 800h-596v224h544q231 0 339.5 106.5t108.5 289.5q0 192 -108 300t-312 108h-476v-1828h-248z" />
    <glyph glyph-name="uni024D" unicode="&#x24d;" horiz-adv-x="1080" 
d="M216 0v1536h228v-232h16q41 114 151 185t249 71q64 0 112 -15t84 -41l-80 -200q-25 13 -58.5 20.5t-77.5 7.5q-168 0 -278 -102.5t-110 -257.5v-972h-236zM-104 644v184h880v-184h-880z" />
    <glyph glyph-name="uni024E" unicode="&#x24e;" horiz-adv-x="1880" 
d="M1872 1628v-164h-1864v164h1864zM76 2048h284l568 -956h24l568 956h284l-740 -1204v-844h-248v844z" />
    <glyph glyph-name="uni024F" unicode="&#x24f;" horiz-adv-x="1568" 
d="M1452 1096v-184h-1344v184h1344zM360 -596q-60 0 -107 9.5t-65 18.5l60 208q129 -33 213.5 2t150.5 206l56 140l-572 1548h256l424 -1224h16l424 1224h256l-660 -1784q-44 -118 -108.5 -195t-150 -115t-193.5 -38z" />
    <glyph glyph-name="uni0250" unicode="&#x250;" horiz-adv-x="1588" 
d="M920 1572q146 0 265 -55.5t189 -161t70 -255.5q0 -132 -52 -214.5t-139 -129.5t-192.5 -70.5t-212.5 -37.5q-140 -18 -227.5 -28.5t-128 -34.5t-40.5 -81q0 -149 80 -232.5t244 -83.5q169 0 265 74t135 158l224 -80q-60 -140 -160.5 -218.5t-220 -110t-235.5 -31.5
q-73 0 -170 17.5t-187.5 71.5t-150.5 163t-60 292v1012h236v-208h12q24 50 80 107t149 97t227 40zM884 1360q-140 0 -236.5 -55t-146 -142t-49.5 -183v-216q15 18 65.5 32.5t116 25t127.5 18.5t99 12q92 12 171.5 38.5t128 79t48.5 142.5q0 123 -91.5 185.5t-232.5 62.5z
" />
    <glyph glyph-name="uni0251" unicode="&#x251;" horiz-adv-x="1804" 
d="M780 -32q-192 2 -335 104.5t-222 282.5t-79 413q0 231 83.5 408.5t230.5 278.5t338 101q210 0 336.5 -117.5t199.5 -302.5h92l36 -364l200 -772h-220l-15.5 61.5t-39.5 157.5t-50.5 203t-49 201t-33.5 149q-15 73 -46 170t-83 189t-132.5 152.5t-194.5 60.5
q-122 0 -216 -74t-147 -205t-53 -301q0 -166 50 -298.5t140 -209t210 -76.5q111 0 193 61.5t138 155t90.5 193t50.5 174.5l168 772h220l-180 -772l-36 -376h-80q-78 -186 -215 -304t-349 -116z" />
    <glyph glyph-name="uni0252" unicode="&#x252;" horiz-adv-x="1776" 
d="M1608 800v-28q0 -234 -67.5 -414.5t-198 -283t-318.5 -102.5q-182 0 -302.5 88t-187 251t-86.5 389v84q20 228 86.5 392t188 252t305.5 88t313.5 -92.5t198 -254t68.5 -369.5zM1332 772v28q0 136 -37.5 248.5t-120 180t-218.5 67.5q-132 0 -212.5 -72t-127 -187
t-76.5 -245v-68q22 -136 69 -257.5t130 -198t213 -76.5q138 0 221.5 80t121 212t37.5 288zM580 0h-232v1076q0 123 -31 159.5t-73 36.5q-12 0 -23 -2t-17 -2l-32 200q42 30 85 39t91 9q129 0 202.5 -101.5t73.5 -338.5v-752z" />
    <glyph glyph-name="uni0253" unicode="&#x253;" horiz-adv-x="1716" 
d="M452 1400h-236v264q0 99 30.5 175.5t85.5 129.5t127.5 80t156.5 27q36 0 72.5 -1.5t63.5 -10.5v-200q-15 3 -35 5.5t-41 2.5q-64 0 -114.5 -18.5t-80 -64t-29.5 -125.5v-264zM216 1536h236v-244h20q26 40 72.5 102.5t134 112t237.5 49.5q194 0 342 -97t231 -275t83 -420
q0 -244 -83 -422.5t-230 -276t-339 -97.5q-148 0 -237 49.5t-137 113t-74 105.5h-28v-236h-228v1536zM1336 768q0 162 -49.5 292.5t-149 207t-249.5 76.5q-144 0 -242 -72.5t-148 -202t-50 -301.5q0 -174 51 -306.5t149 -207t240 -74.5q148 0 247.5 78.5t150 212t50.5 297.5
z" />
    <glyph glyph-name="uni0254" unicode="&#x254;" horiz-adv-x="1520" 
d="M128 472h260q12 -117 108 -198.5t228 -81.5q156 0 242 78.5t120 199t34 246.5v56q0 126 -35 246.5t-121 199t-240 78.5q-150 0 -237 -95.5t-99 -224.5h-260q8 150 83 272.5t206 195t307 72.5q228 0 376 -103.5t220 -273t72 -367.5v-56q0 -198 -72 -367.5t-220 -273
t-376 -103.5q-158 0 -290.5 71t-215 185t-90.5 244z" />
    <glyph glyph-name="uni0255" unicode="&#x255;" horiz-adv-x="1572" 
d="M840 180q138 0 233 64.5t95 163.5q0 75 -54.5 109.5t-105.5 34.5q-95 0 -199 -49.5t-206 -127t-192.5 -162t-160 -156.5t-106.5 -109l-164 144q47 48 119 129.5t167.5 174t211.5 175.5t250 136t284 53q134 0 222 -44.5t131 -122t43 -177.5q0 -138 -76 -238.5t-205 -155
t-287 -54.5v212zM1444 1076h-236q-27 105 -119.5 186.5t-248.5 81.5q-207 0 -333.5 -157.5t-126.5 -418.5q0 -267 125 -427.5t335 -160.5v-212q-214 0 -370 101.5t-241 282t-85 416.5q0 230 86.5 408t242 279t363.5 101q162 0 292 -60t213 -168t103 -252z" />
    <glyph glyph-name="uni0256" unicode="&#x256;" horiz-adv-x="1716" 
d="M1664 -576q-84 0 -156.5 27t-127.5 80t-85.5 129.5t-30.5 175.5v456h236v-456q0 -120 64 -164t160 -44q21 0 41 2.5t35 5.5v-200q-27 -9 -63.5 -10.5t-72.5 -1.5zM1500 0h-228v236h-28q-26 -42 -74 -105.5t-137 -113t-237 -49.5q-192 0 -339 97.5t-230 276t-83 422.5
q0 242 83 420t231 275t342 97q150 0 237.5 -49.5t134 -112t72.5 -102.5h20v756h236v-2048zM1268 768q0 258 -112 417t-328 159q-150 0 -249.5 -76.5t-149 -207t-49.5 -292.5q0 -164 50.5 -297.5t150 -212t247.5 -78.5q213 0 326.5 163.5t113.5 424.5z" />
    <glyph glyph-name="uni0257" unicode="&#x257;" horiz-adv-x="1732" 
d="M796 -32q-192 0 -339 97.5t-230 276t-83 422.5q0 242 83 420t231 275t342 97q150 0 237.5 -49.5t134 -112t72.5 -102.5h116v-1056h-116q-26 -42 -74 -105.5t-137 -113t-237 -49.5zM1264 1672q0 99 30.5 175t86 128t129 78.5t158.5 26.5q33 0 71 -3.5t65 -12.5v-204
q-15 6 -38 7t-38 1q-64 0 -115.5 -15.5t-82 -58t-30.5 -122.5v-1672h-228v288l72 496l-80 388v500zM828 180q213 0 326.5 163.5t113.5 424.5q0 258 -112 417t-328 159q-150 0 -249.5 -76.5t-149 -207t-49.5 -292.5q0 -164 50.5 -297.5t150 -212t247.5 -78.5z" />
    <glyph glyph-name="uni0258" unicode="&#x258;" horiz-adv-x="1520" 
d="M708 -28q-150 0 -258.5 42t-184 109t-125.5 141l168 128q66 -87 159.5 -143.5t228.5 -56.5q136 0 230.5 67.5t144 181t49.5 251.5v56q0 134 -27.5 236t-78 171.5t-119 105t-151.5 35.5q-128 0 -200 -60t-104 -151t-40 -185v-20h832v-220h-1108v120q0 210 63.5 376.5
t200 263t356.5 96.5q166 0 315 -89.5t243 -261t94 -417.5v-56q0 -210 -83.5 -372.5t-238 -255t-366.5 -92.5z" />
    <glyph glyph-name="uni0259" unicode="&#x259;" horiz-adv-x="1640" 
d="M780 1568q222 0 382.5 -98.5t247 -276t86.5 -413.5t-86.5 -416.5t-242 -282t-363.5 -101.5q-120 0 -237 40t-213 129.5t-153 237t-57 361.5v100h1184v-204h-944q0 -195 114 -323.5t306 -128.5q141 0 243.5 69.5t157.5 181t55 237.5v136q0 262 -132.5 401t-347.5 139
q-139 0 -239 -60t-145 -180l-228 64q54 174 216 281t396 107z" />
    <glyph glyph-name="uni025A" unicode="&#x25a;" horiz-adv-x="2032" 
d="M676 1516q212 0 366.5 -92.5t238 -254t83.5 -369.5v-60q0 -244 -94 -415.5t-243 -262t-315 -90.5q-220 0 -356.5 97.5t-200 265t-63.5 377.5v88l1036 200v-228l-760 -144v-40q0 -94 32.5 -185t108 -151t203.5 -60q83 0 151.5 35.5t119 105t78 172t27.5 235.5v60
q0 136 -49.5 248.5t-144 180t-230.5 67.5q-135 0 -228.5 -56.5t-159.5 -143.5l-168 128q50 74 125.5 141t184 109t258.5 42zM1236 792v228l364 68q18 -118 40.5 -207t64 -139t115.5 -50q36 0 54 0.5t30 3.5l36 -168q-39 -18 -83.5 -31t-92.5 -13q-114 0 -181 48t-103 127
t-56 173z" />
    <glyph glyph-name="uni025B" unicode="&#x25b;" horiz-adv-x="1520" 
d="M716 800h208v-112h-184q-108 0 -187 -35t-122 -93.5t-43 -131.5q0 -108 105 -174t279 -66q168 0 259 64t121 196h248q-13 -108 -63 -196t-133 -150.5t-195 -96t-249 -33.5q-178 0 -318.5 55.5t-221 155.5t-80.5 233q0 61 23.5 128t85 125t175 94.5t292.5 36.5zM924 736
h-208q-175 0 -283.5 34t-166 88.5t-78 119.5t-20.5 126q0 142 74 243t206.5 155t307.5 54t306.5 -53t211 -152.5t98.5 -238.5h-248q-25 104 -119 168t-249 64q-158 0 -253 -66.5t-95 -173.5q0 -96 82.5 -154t249.5 -58h184v-156z" />
    <glyph glyph-name="uni025C" unicode="&#x25c;" horiz-adv-x="1512" 
d="M792 800q179 0 292.5 -36.5t175 -94.5t85 -125t23.5 -128q0 -133 -80.5 -233t-220.5 -155.5t-319 -55.5q-136 0 -248.5 33.5t-195.5 96t-133 150.5t-63 196h248q30 -132 121 -196t259 -64q174 0 279 66t105 174q0 73 -43 131.5t-122 93.5t-187 35h-184v112h208zM584 736
v156h184q167 0 249.5 58t82.5 154q0 107 -95 173.5t-253 66.5q-154 0 -248.5 -64t-119.5 -168h-248q20 139 99 238.5t210.5 152.5t306.5 53t307.5 -54t206.5 -155t74 -243q0 -61 -20.5 -126t-78 -119.5t-165.5 -88.5t-284 -34h-208z" />
    <glyph glyph-name="uni025D" unicode="&#x25d;" horiz-adv-x="2032" 
d="M1240 1000v224l364 72q18 -118 40.5 -208t64 -141t115.5 -51q36 0 54 2.5t30 5.5l36 -168q-39 -21 -83.5 -32.5t-92.5 -11.5q-114 0 -181 47.5t-103 126t-56 170.5zM792 800q179 0 292.5 -36.5t175 -94.5t85 -125t23.5 -128q0 -133 -80.5 -233t-220.5 -155.5t-319 -55.5
q-136 0 -248.5 33.5t-195.5 96t-133 150.5t-63 196h248q30 -132 121 -196t259 -64q174 0 279 66t105 174q0 73 -43 131.5t-122 93.5t-187 35h-184v112h208zM584 736v156h184q167 0 249.5 58t82.5 154q0 107 -95 173.5t-253 66.5q-154 0 -248.5 -64t-119.5 -168h-248
q20 139 99 238.5t210.5 152.5t306.5 53t307.5 -54t206.5 -155t74 -243q0 -61 -20.5 -126t-78 -119.5t-165.5 -88.5t-284 -34h-208z" />
    <glyph glyph-name="uni025E" unicode="&#x25e;" horiz-adv-x="1584" 
d="M820 -28q-171 0 -300 56t-216.5 162.5t-131.5 258.5t-44 343h236q0 -281 112.5 -442.5t343.5 -161.5q167 0 269.5 66t102.5 174q0 109 -95 184.5t-257 75.5h-184v112h208q179 0 292.5 -36.5t175 -94.5t85 -125t23.5 -128q0 -133 -80.5 -233t-220.5 -155.5t-319 -55.5z
M864 736h-208v156h184q167 0 249.5 58t82.5 154q0 107 -92 173.5t-244 66.5q-159 0 -263.5 -66.5t-156.5 -190.5t-52 -295h-236q0 178 44.5 319.5t132 240.5t218 151.5t301.5 52.5q263 0 425.5 -119.5t162.5 -332.5q0 -61 -20.5 -126t-78 -119.5t-165.5 -88.5t-284 -34z" />
    <glyph glyph-name="uni025F" unicode="&#x25f;" horiz-adv-x="668" 
d="M216 1536h236v-1648q0 -142 -48.5 -246t-146 -161t-245.5 -57h-48v220h44q108 0 158 63.5t50 180.5v1648zM-108 800v184h880v-184h-880z" />
    <glyph glyph-name="uni0260" unicode="&#x260;" horiz-adv-x="1728" 
d="M1500 1464h-228v200q0 99 29.5 175.5t82.5 129.5t124.5 80t155.5 27q36 0 72.5 -1.5t63.5 -10.5v-200q-15 3 -35 5.5t-41 2.5q-64 0 -114.5 -18.5t-80 -64t-29.5 -125.5v-200zM828 -576q-246 0 -397 92.5t-223 215.5l188 132q30 -38 80.5 -92t135 -95t216.5 -41
q118 0 218 40.5t160 124t58 211.5v272h-20q-26 -42 -73.5 -103.5t-136 -109t-238.5 -47.5q-186 0 -333.5 88t-233 256t-85.5 408q0 236 83 411.5t231 272t342 96.5q150 0 238.5 -49.5t136 -112t73.5 -102.5h24v244h228v-1548q0 -198 -94 -322.5t-247 -183t-331 -58.5z
M828 236q213 0 326.5 144.5t113.5 399.5q0 249 -112 406.5t-328 157.5q-150 0 -249.5 -76t-149 -204t-49.5 -284q0 -240 113 -392t335 -152z" />
    <glyph glyph-name="uni0261" unicode="&#x261;" horiz-adv-x="1716" 
d="M828 -576q-246 0 -397 92.5t-223 215.5l188 132q30 -38 80.5 -92t135 -95t216.5 -41q118 0 218 40.5t160 124t58 211.5v272h-20q-26 -42 -73.5 -103.5t-136 -109t-238.5 -47.5q-186 0 -333.5 88t-233 256t-85.5 408q0 236 83 411.5t231 272t342 96.5q150 0 238.5 -49.5
t136 -112t73.5 -102.5h24v244h228v-1548q0 -198 -94 -322.5t-247 -183t-331 -58.5zM828 236q213 0 326.5 144.5t113.5 399.5q0 249 -112 406.5t-328 157.5q-150 0 -249.5 -76t-149 -204t-49.5 -284q0 -240 113 -392t335 -152z" />
    <glyph glyph-name="uni0262" unicode="&#x262;" horiz-adv-x="1776" 
d="M1552 760v-544q-34 -46 -114.5 -103t-211 -99t-314.5 -42q-212 0 -373.5 84.5t-252 234t-90.5 345.5v224q0 194 91 342t251 231t366 83q210 0 347.5 -66t210 -180t86.5 -258h-248q-18 141 -121.5 214.5t-274.5 73.5q-128 0 -233.5 -58.5t-168 -158t-62.5 -223.5v-224
q0 -126 61.5 -226.5t168 -159t242.5 -58.5q108 0 191 21.5t137 49t76 45.5v232h-388v220h624z" />
    <glyph glyph-name="uni0263" unicode="&#x263;" horiz-adv-x="1676" 
d="M836 -600q-116 0 -200.5 38.5t-130 112t-45.5 177.5q0 45 21 106.5t51 121.5l788 1580h260l-688 -1408q-78 -162 -127 -249.5t-49 -150.5q0 -42 33 -71t87 -29t87 30.5t33 69.5q0 60 -42.5 147.5t-129.5 264.5l-688 1396h260l792 -1580q36 -72 46 -132t10 -96
q0 -104 -43.5 -177.5t-126 -112t-198.5 -38.5z" />
    <glyph glyph-name="uni0264" unicode="&#x264;" horiz-adv-x="2032" 
d="M328 1136l-172 172q69 81 157 144.5t223 63.5q130 0 232 -90.5t188 -231t168 -290.5q70 -126 130 -232t97 -197t37 -171q0 -156 -97.5 -244t-274.5 -88v228q54 0 75 31t21 73q0 66 -54.5 166.5t-141.5 253.5q-120 212 -188.5 325.5t-119 156t-116.5 42.5q-48 0 -88 -32
t-76 -80zM1880 1308l-172 -172q-36 48 -77.5 80t-86.5 32q-66 0 -117.5 -43.5t-121 -157t-189.5 -323.5q-87 -153 -141.5 -253.5t-54.5 -166.5q0 -42 21 -73t75 -31v-228q-174 0 -273 88t-99 244q0 80 37 171t97 197t130 232q82 150 168 290.5t189 231t235 90.5t221.5 -63.5
t158.5 -144.5z" />
    <glyph glyph-name="uni0265" unicode="&#x265;" horiz-adv-x="1664" 
d="M1212 612v924h236v-2112h-236v816h-20q-54 -120 -163 -190t-289 -70q-158 0 -276 62.5t-183 191t-65 326.5v976h236v-960q0 -183 94 -283.5t262 -100.5q174 0 289 109.5t115 310.5z" />
    <glyph glyph-name="uni0266" unicode="&#x266;" horiz-adv-x="1648" 
d="M444 1536h-228v128q0 99 30.5 175.5t85.5 129.5t127.5 80t156.5 27q36 0 72.5 -1.5t63.5 -10.5v-200q-15 3 -35 5.5t-41 2.5q-64 0 -116.5 -18.5t-84 -64t-31.5 -125.5v-128zM452 924v-924h-236v1536h228v-240h20q54 117 164 188.5t284 71.5q156 0 273 -63.5t182 -192
t65 -324.5v-976h-236v960q0 181 -94 282.5t-258 101.5q-169 0 -280.5 -109.5t-111.5 -310.5z" />
    <glyph glyph-name="uni0267" unicode="&#x267;" horiz-adv-x="1648" 
d="M1196 0h236v-164q0 -99 -30.5 -175.5t-85.5 -129.5t-127.5 -80t-156.5 -27q-36 0 -72.5 1.5t-63.5 10.5v200q15 -3 35 -5.5t41 -2.5q96 0 160 44t64 164v164zM452 924v-924h-236v1536h228v-240h20q54 117 164 188.5t284 71.5q156 0 273 -63.5t182 -192t65 -324.5v-976
h-236v960q0 181 -94 282.5t-258 101.5q-169 0 -280.5 -109.5t-111.5 -310.5zM444 1536h-228v128q0 99 30.5 175.5t85.5 129.5t127.5 80t156.5 27q36 0 72.5 -1.5t63.5 -10.5v-200q-15 3 -35 5.5t-41 2.5q-64 0 -116.5 -18.5t-84 -64t-31.5 -125.5v-128z" />
    </font>
</defs>
</svg>
