<?xml version="1.0" standalone="no"?>
<!DOCTYPE svg PUBLIC "-//W3C//DTD SVG 1.1//EN" "http://www.w3.org/Graphics/SVG/1.1/DTD/svg11.dtd" >
<svg xmlns="http://www.w3.org/2000/svg" xmlns:xlink="http://www.w3.org/1999/xlink" version="1.1">
<metadata>
Created by FontForge 20170731 at Thu Oct 11 09:41:21 2018
 By Aleksey,,,
Copyright 2018 The Inter UI project authors
</metadata>
<defs>
<font id="InterUI-Italic" horiz-adv-x="0" >
  <font-face 
    font-family="Inter UI"
    font-weight="400"
    font-style="italic"
    font-stretch="normal"
    units-per-em="2816"
    panose-1="2 11 5 2 3 0 0 0 0 4"
    ascent="2252"
    descent="-564"
    x-height="1536"
    cap-height="2048"
    bbox="-2096 -1076 4548 3012"
    underline-thickness="170"
    underline-position="-677"
    slope="-9.39999"
    unicode-range="U+0020-1F16B"
  />
<missing-glyph horiz-adv-x="2800" 
d="M248 -640v512h2304v-512h-2304zM248 1472v512h2304v-512h-2304zM248 2176v512h2304v-512h-2304zM248 64v512h2304v-512h-2304zM248 768v512h2304v-512h-2304z" />
    <glyph glyph-name=".notdef" horiz-adv-x="2800" 
d="M248 -640v512h2304v-512h-2304zM248 1472v512h2304v-512h-2304zM248 2176v512h2304v-512h-2304zM248 64v512h2304v-512h-2304zM248 768v512h2304v-512h-2304z" />
    <glyph glyph-name=".null" 
 />
    <glyph glyph-name="nonmarkingreturn" horiz-adv-x="938" 
 />
    <glyph glyph-name="uni0020" unicode=" " horiz-adv-x="792" 
 />
    <glyph glyph-name="uni0021" unicode="!" horiz-adv-x="784" 
d="M740 2048l-264 -1472h-232l224 1472h272zM276 -32q-82 0 -132.5 55.5t-43.5 136.5t67.5 136.5t140.5 55.5q82 0 132.5 -55.5t43.5 -136.5t-67.5 -136.5t-140.5 -55.5z" />
    <glyph glyph-name="uni0022" unicode="&#x22;" horiz-adv-x="1264" 
d="M664 2048l-116 -704h-220l116 704h220zM1176 2048l-116 -704h-220l116 704h220z" />
    <glyph glyph-name="uni0023" unicode="#" horiz-adv-x="1808" 
d="M232 0l612 2048h204l-612 -2048h-204zM856 0l612 2048h204l-616 -2048h-200zM1736 1280h-1428l64 208h1428zM1528 568h-1428l60 200h1428z" />
    <glyph glyph-name="uni0024" unicode="$" horiz-adv-x="1796" 
d="M664 -256l464 2560h128l-464 -2560h-128zM1492 1520q0 165 -109 250.5t-295 85.5q-204 0 -344 -96.5t-164 -243.5q-13 -82 17 -140.5t85.5 -97t119.5 -63t118 -39.5l200 -56q75 -21 167 -58t172 -100.5t122.5 -162.5t18.5 -243q-28 -166 -136.5 -300t-286 -213
t-413.5 -79q-220 0 -369.5 71t-220 198t-54.5 295h256q-10 -116 46 -191.5t156 -112t222 -36.5q142 0 262.5 46.5t200 130t97.5 195.5q18 102 -28 166t-133 104t-191 70l-240 72q-228 69 -346.5 197t-85.5 335q30 172 145 300.5t285 200t366 71.5q198 0 339 -71.5t210 -197
t51 -287.5h-240z" />
    <glyph glyph-name="uni0025" unicode="%" horiz-adv-x="2288" 
d="M1192 384l20 108q18 112 80 205.5t161 150t227 56.5q130 0 208.5 -56.5t108 -150t11.5 -205.5l-20 -108q-18 -112 -79 -205.5t-159 -150t-226 -56.5q-130 0 -209.5 56.5t-110 150t-12.5 205.5zM1416 492l-20 -108q-15 -93 16.5 -166.5t139.5 -73.5q105 0 161 73.5
t71 166.5l20 108q15 93 -14.5 166.5t-137.5 73.5q-105 0 -163 -73.5t-73 -166.5zM368 1556l16 108q18 112 80 205.5t161 150t227 56.5q130 0 208.5 -56.5t108 -150t11.5 -205.5l-16 -108q-20 -112 -81 -205.5t-158 -150t-225 -56.5q-130 0 -210.5 56.5t-111 150t-10.5 205.5
zM588 1664l-16 -108q-18 -93 15 -166.5t141 -73.5q105 0 159.5 73.5t72.5 166.5l16 108q15 93 -14.5 166.5t-137.5 73.5q-105 0 -163 -73.5t-73 -166.5zM264 0l1564 2048h232l-1564 -2048h-232z" />
    <glyph glyph-name="uni0026" unicode="&#x26;" horiz-adv-x="1796" 
d="M628 1128l332 220q96 57 159 122t81 170q12 78 -44.5 151t-167.5 73q-78 0 -143.5 -39.5t-109 -100t-55.5 -124.5q-18 -108 48.5 -220t147.5 -232l748 -1148h-284l-620 936q-86 130 -156 236t-105 209t-15 223q22 138 100.5 242.5t200 163t271.5 58.5q154 0 255.5 -59.5
t145 -157t23.5 -211.5q-24 -147 -115.5 -255t-232.5 -201l-456 -304q-156 -102 -221 -198t-71 -138q-16 -96 20.5 -179t119 -134t204.5 -51q116 0 234 49.5t222.5 143.5t178.5 226t101 297h228q-34 -204 -99.5 -331.5t-134 -200t-110.5 -112.5l-64 -60
q-117 -111 -277 -165.5t-307 -54.5q-202 0 -336 74t-191 203t-29 295q30 192 172 323.5t352 260.5z" />
    <glyph glyph-name="uni0027" unicode="'" horiz-adv-x="624" 
d="M632 2048l-116 -704h-220l116 704h220z" />
    <glyph glyph-name="uni0028" unicode="(" horiz-adv-x="1020" 
d="M316 864q63 378 213.5 695.5t378.5 584.5h208q-88 -99 -174.5 -243.5t-162 -317t-132.5 -356.5t-87 -363q-40 -238 -34.5 -483t49 -455t117.5 -342h-208q-138 267 -184.5 584.5t16.5 695.5z" />
    <glyph glyph-name="uni0029" unicode=")" horiz-adv-x="1020" 
d="M736 864q-63 -378 -213.5 -695.5t-378.5 -584.5h-208q89 99 175 243.5t161.5 317t132.5 357t87 362.5q40 238 34.5 483t-49 455t-117.5 342h208q138 -267 184.5 -584.5t-16.5 -695.5z" />
    <glyph glyph-name="uni002A" unicode="*" horiz-adv-x="1408" 
d="M628 896l92 440l-408 -236l-68 168l420 204l-360 204l124 168l336 -236l56 440h192l-88 -440l404 236l72 -168l-420 -204l360 -204l-124 -168l-336 236l-60 -440h-192z" />
    <glyph glyph-name="uni002B" unicode="+" horiz-adv-x="1808" 
d="M1584 1008l-36 -224h-1280l36 224h1280zM1144 1536l-212 -1280h-224l212 1280h224z" />
    <glyph glyph-name="uni002C" unicode="," horiz-adv-x="788" 
d="M488 280l-36 -108q-36 -114 -92 -244t-111 -245t-89 -183h-180q22 64 60 169t81 234t79 265l32 112h256z" />
    <glyph glyph-name="uni002D" unicode="-" horiz-adv-x="1296" 
d="M1116 988v-220h-900v220h900z" />
    <glyph glyph-name="uni002E" unicode="." horiz-adv-x="776" 
d="M288 -16q-76 0 -127 52.5t-53 127.5q-1 75 53 125.5t127 50.5q74 0 128 -52t52 -124q-1 -50 -25.5 -91t-65 -65t-89.5 -24z" />
    <glyph glyph-name="uni002F" unicode="/" horiz-adv-x="1004" 
d="M1168 2144l-1064 -2452h-216l1064 2452h216z" />
    <glyph glyph-name="uni0030" unicode="0" horiz-adv-x="1776" 
d="M772 -28q-219 0 -359 130.5t-189.5 370t4.5 567.5q54 318 176.5 550.5t298 359t389.5 126.5q218 0 357.5 -131t188 -371t-5.5 -566q-54 -320 -176 -552.5t-297 -358t-387 -125.5zM780 192q142 0 265.5 103.5t214 294t132.5 450.5q63 378 -17 599t-291 221
q-144 0 -268.5 -104.5t-215 -296t-132.5 -451.5q-63 -378 20.5 -597t291.5 -219z" />
    <glyph glyph-name="uni0031" unicode="1" horiz-adv-x="1232" 
d="M1068 2048l-340 -2048h-236l280 1688h-16q-19 -28 -82.5 -63.5t-160 -62t-213.5 -26.5l32 208q119 0 212.5 42.5t159.5 100.5t105.5 105t50.5 56h208z" />
    <glyph glyph-name="uni0032" unicode="2" horiz-adv-x="1704" 
d="M84 0l32 180l796 740q140 130 233.5 227t146 182t68.5 179q27 162 -66.5 257t-261.5 95q-177 0 -303.5 -107t-156.5 -281h-236q30 180 137.5 316t265 212t337.5 76t305 -76t181 -205t30 -287q-20 -114 -78.5 -221t-180 -239t-329.5 -320l-540 -492l-4 -16h952l-36 -220
h-1292z" />
    <glyph glyph-name="uni0033" unicode="3" horiz-adv-x="1796" 
d="M784 -28q-201 0 -347 67.5t-218 189t-51 283.5h248q-13 -147 93.5 -233.5t278.5 -86.5q203 0 353 100.5t175 279.5q26 160 -77.5 264t-338.5 104h-168l36 220h156q182 0 317 102t163 270q25 149 -55.5 238.5t-248.5 89.5q-109 0 -212 -38.5t-176 -111t-92 -174.5h-240
q31 160 139 281.5t263.5 190t329.5 68.5q193 0 319.5 -79t180 -207.5t28.5 -277.5q-25 -168 -132 -285.5t-268 -166.5l-20 -12q126 -22 209 -91.5t116.5 -176t10.5 -240.5q-27 -170 -134 -298t-272 -199t-366 -71z" />
    <glyph glyph-name="uni0034" unicode="4" horiz-adv-x="1808" 
d="M108 420l32 204l1136 1424h148l-52 -316h-100l-860 -1076v-16h1212l-36 -220h-1480zM1000 0l80 484l16 92l244 1472h236l-340 -2048h-236z" />
    <glyph glyph-name="uni0035" unicode="5" horiz-adv-x="1712" 
d="M736 -28q-177 0 -309.5 70.5t-200.5 193t-50 276.5h236q-9 -138 81.5 -229t250.5 -91q128 0 240.5 61t189.5 168t98 243q30 195 -70 323.5t-294 128.5q-99 0 -205.5 -31.5t-178.5 -76.5l-244 32l288 1008h1080l-40 -236h-856l-168 -588l8 4q69 51 165 81.5t199 30.5
q179 0 315 -92t202.5 -251t34.5 -361q-32 -192 -142 -342t-273.5 -236t-356.5 -86z" />
    <glyph glyph-name="uni0036" unicode="6" horiz-adv-x="1756" 
d="M776 -28q-129 1 -250 49t-209 159.5t-120.5 302.5t15.5 477q60 360 189 610t314 380t413 130q170 0 295.5 -68.5t194 -191t66.5 -284.5h-236q-5 143 -84.5 233.5t-243.5 90.5q-238 0 -416 -203.5t-244 -596.5l16 16q105 126 243 195t293 69q180 0 315 -90t199 -247
t30 -359q-32 -186 -139.5 -339.5t-272 -244t-368.5 -88.5zM784 192q128 0 242 65t193 175t101 244q20 122 -18 223t-123 161t-207 60q-130 0 -247 -67.5t-197 -177t-100 -235.5q-20 -118 18 -220t125 -165t213 -63z" />
    <glyph glyph-name="uni0037" unicode="7" horiz-adv-x="1608" 
d="M148 0l1216 1812l4 16h-1056l36 220h1312l-40 -232l-1212 -1816h-260z" />
    <glyph glyph-name="uni0038" unicode="8" horiz-adv-x="1736" 
d="M752 -28q-210 0 -358 77.5t-217 210.5t-41 300q21 126 90 233t168.5 179t213.5 92l20 12q-141 39 -213 168t-39 304q29 152 126 271t243 188t323 69q182 0 314 -73.5t195 -200t35 -286.5q-18 -106 -71.5 -197t-134 -155t-178.5 -88l-20 -12q108 -22 187 -98.5t115 -190
t14 -247.5q-28 -162 -135.5 -287.5t-272 -197t-364.5 -71.5zM760 192q213 0 357 104t171 276q27 170 -80 275t-296 105q-134 0 -248 -53t-189.5 -146t-94.5 -213q-25 -161 74 -254.5t306 -93.5zM920 1164q173 0 300 101.5t156 266.5q27 154 -58 241t-254 87q-180 0 -305 -99
t-151 -261q-25 -157 62.5 -246.5t249.5 -89.5z" />
    <glyph glyph-name="uni0039" unicode="9" horiz-adv-x="1756" 
d="M1068 2080q129 -1 250 -49t209 -160t120.5 -302t-15.5 -477q-60 -360 -189 -610t-314 -380t-413 -130q-170 0 -295.5 68.5t-194 191t-66.5 284.5h236q6 -144 84.5 -234t243.5 -90q237 0 415.5 203.5t244.5 596.5l-16 -16q-105 -126 -242.5 -195t-293.5 -69
q-180 0 -315 90t-199 247t-30 359q32 186 139.5 339.5t272 244t368.5 88.5zM1060 1860q-128 0 -242 -65t-193 -175t-101 -244q-20 -122 18 -223t123 -161t207 -60q130 0 247 67.5t197 177t100 235.5q20 118 -18 220t-125 165t-213 63z" />
    <glyph glyph-name="uni003A" unicode=":" horiz-adv-x="776" 
d="M288 -16q-76 0 -127 52.5t-53 127.5q-1 75 53 125.5t127 50.5q74 0 128 -52t52 -124q-1 -50 -25.5 -91t-65 -65t-89.5 -24zM476 1124q-76 0 -127 52.5t-53 127.5q-1 75 53 125.5t127 50.5q74 0 128 -52t52 -124q-1 -50 -25.5 -91t-65 -65t-89.5 -24z" />
    <glyph glyph-name="uni003B" unicode=";" horiz-adv-x="788" 
d="M488 280l-36 -108q-36 -114 -92 -244t-111 -245t-89 -183h-180q22 64 60 169t81 234t79 265l32 112h256zM480 1124q-76 0 -127 52.5t-53 127.5q-1 75 53 125.5t127 50.5q74 0 128 -52t52 -124q-1 -50 -25.5 -91t-65 -65t-89.5 -24z" />
    <glyph glyph-name="uni003C" unicode="&#x3c;" horiz-adv-x="1296" 
d="M1016 328l-176 -152l-704 720l912 720l156 -152l-724 -564l-4 -8z" />
    <glyph glyph-name="uni003D" unicode="=" horiz-adv-x="1808" 
d="M324 732h1152l-40 -220h-1152zM412 1280h1152l-36 -220h-1152z" />
    <glyph glyph-name="uni003E" unicode="&#x3e;" horiz-adv-x="1296" 
d="M232 176l-156 152l724 564l4 8l-540 564l176 152l704 -720z" />
    <glyph glyph-name="uni003F" unicode="?" horiz-adv-x="1428" 
d="M492 576q32 196 89.5 311.5t140 186t190.5 130.5q96 54 171 139t93 205q24 147 -59.5 233.5t-224.5 86.5q-82 0 -164.5 -34t-146 -107t-89.5 -191h-252q36 170 136.5 291t243 185t304.5 64q176 0 295 -70t171 -192t26 -278q-27 -165 -121.5 -283.5t-238.5 -196.5
q-100 -56 -163.5 -118t-101 -148t-59.5 -214h-240zM536 -32q-82 0 -132.5 55.5t-43.5 136.5t67.5 136.5t140.5 55.5q82 0 132.5 -55.5t43.5 -136.5t-67.5 -136.5t-140.5 -55.5z" />
    <glyph glyph-name="uni0040" unicode="@" horiz-adv-x="2636" 
d="M1356 1180q-114 0 -204 -59.5t-149 -158t-79 -214.5q-20 -128 -4.5 -240.5t81 -182t195.5 -69.5q201 0 307.5 121.5t148.5 370.5q28 168 1.5 262t-102 132t-195.5 38zM1568 1972q281 0 477 -91.5t312.5 -247t156 -349.5t6.5 -400q-24 -145 -62.5 -294t-104.5 -273.5
t-172 -200.5t-265 -76q-70 0 -151 22t-138 73t-55 137h-12q-32 -58 -90 -110t-143 -83t-199 -27q-129 5 -218.5 58.5t-140.5 146t-64 215t11 264.5q23 135 81 247t143.5 196t189.5 134.5t218 62.5q102 10 181 -8.5t126 -55t53 -80.5h12l20 112h212l-152 -904
q-12 -84 25 -148t127 -64q153 0 228 159t132 501q23 134 8 264.5t-69.5 244.5t-152.5 201t-240.5 136.5t-333.5 49.5q-235 0 -433 -72.5t-350 -211t-252 -336t-141 -448.5q-84 -510 137.5 -787t734.5 -277q110 0 220 21t196 46t124 37l28 -184q-68 -26 -172 -52t-219 -43
t-217 -17q-408 0 -664.5 147.5t-355 430t-32.5 686.5q48 293 170 524t308.5 392.5t429.5 246.5t532 85z" />
    <glyph glyph-name="uni0041" unicode="A" horiz-adv-x="1904" 
d="M204 0h-260l1092 2048h256l412 -2048h-260l-324 1724h-16zM432 800h1048l-36 -220h-1048z" />
    <glyph glyph-name="uni0042" unicode="B" horiz-adv-x="1832" 
d="M120 0l340 2048h716q214 0 341 -73.5t174 -197t21 -273.5q-33 -198 -149 -295t-251 -133l-4 -20q92 -6 177 -66t131 -172t20 -274q-26 -154 -117 -277t-254 -195t-405 -72h-740zM404 220h492q243 0 361.5 94.5t142.5 229.5q16 104 -22.5 192.5t-127 142t-222.5 53.5h-504
zM560 1148h460q112 0 210 44t164 124t82 188q24 135 -54 229.5t-282 94.5h-468z" />
    <glyph glyph-name="uni0043" unicode="C" horiz-adv-x="2048" 
d="M2000 1408h-244q-6 142 -73.5 239t-177 147t-241.5 50q-190 0 -360 -96.5t-291 -283t-165 -456.5q-44 -262 13 -441t189 -271t314 -92q140 0 272 50t235 147t157 239h248q-55 -157 -148.5 -281t-215.5 -210.5t-263 -131.5t-293 -45q-266 0 -452.5 130.5t-266 370
t-25.5 567.5q54 320 207 552.5t375 358t482 125.5q208 0 370 -79.5t256 -229t98 -359.5z" />
    <glyph glyph-name="uni0044" unicode="D" horiz-adv-x="2024" 
d="M760 0h-500l36 220h472q254 0 438.5 100t298 285t155.5 439q42 244 -7.5 419.5t-193 270t-383.5 94.5h-524l36 220h524q298 0 491.5 -125t270 -357t22.5 -554q-52 -316 -201.5 -542.5t-386 -348t-548.5 -121.5zM708 2048l-340 -2048h-248l340 2048h248z" />
    <glyph glyph-name="uni0045" unicode="E" horiz-adv-x="1684" 
d="M120 0l340 2048h1236l-36 -220h-988l-116 -692h924l-36 -220h-924l-116 -696h1004l-36 -220h-1252z" />
    <glyph glyph-name="uni0046" unicode="F" horiz-adv-x="1652" 
d="M120 0l340 2048h1228l-36 -220h-980l-116 -692h888l-36 -220h-888l-152 -916h-248z" />
    <glyph glyph-name="uni0047" unicode="G" horiz-adv-x="2092" 
d="M208 1024q52 324 205.5 560t377 364t485.5 128q216 0 378.5 -84.5t254 -235t95.5 -348.5h-256q-30 201 -158 318.5t-350 117.5q-182 0 -346.5 -94t-283 -277t-162.5 -449t14.5 -449t195 -277t326.5 -94q174 0 321 76t245 211t126 313l12 72l64 -72h-616l40 220h780
l-40 -220q-40 -254 -178 -441t-344 -289t-450 -102q-272 0 -456 128t-259 364t-21 560z" />
    <glyph glyph-name="uni0048" unicode="H" horiz-adv-x="2084" 
d="M120 0l340 2048h248l-152 -912h1092l152 912h248l-340 -2048h-248l152 916h-1092l-152 -916h-248z" />
    <glyph glyph-name="uni0049" unicode="I" horiz-adv-x="744" 
d="M708 2048l-340 -2048h-248l340 2048h248z" />
    <glyph glyph-name="uni004A" unicode="J" horiz-adv-x="1560" 
d="M1004 592l240 1456h248l-244 -1472q-32 -196 -121.5 -330.5t-228 -204t-318.5 -69.5q-172 0 -296 62t-182 175.5t-34 270.5h236q-19 -136 59.5 -212t220.5 -76q164 0 275.5 104t144.5 296z" />
    <glyph glyph-name="uni004B" unicode="K" horiz-adv-x="1836" 
d="M120 0l340 2048h248l-168 -1016h24l1088 1016h324l-1012 -924l672 -1124h-300l-552 952l-304 -288l-112 -664h-248z" />
    <glyph glyph-name="uni004C" unicode="L" horiz-adv-x="1584" 
d="M120 0l340 2048h248l-304 -1828h952l-36 -220h-1200z" />
    <glyph glyph-name="uni004D" unicode="M" horiz-adv-x="2504" 
d="M460 2048h296l416 -1700h24l976 1700h296l-340 -2048h-232l260 1556h-20l-900 -1556h-224l-380 1556h-20l-260 -1556h-232z" />
    <glyph glyph-name="uni004E" unicode="N" horiz-adv-x="2120" 
d="M2084 2048l-340 -2048h-240l-848 1608h-20l-268 -1608h-248l340 2048h240l852 -1612h20l268 1612h244z" />
    <glyph glyph-name="uni004F" unicode="O" horiz-adv-x="2144" 
d="M2016 1008q-54 -320 -207 -552.5t-374 -358t-479 -125.5q-266 0 -452.5 130.5t-266 370t-25.5 567.5q54 320 207 552.5t375 358t482 125.5q264 0 449.5 -130.5t265 -370t25.5 -567.5zM1780 1040q44 262 -13 441t-189 271t-314 92q-190 0 -360 -96.5t-291 -283
t-165 -456.5q-44 -262 13 -441t189 -271t314 -92q190 0 360 96.5t291 283t165 456.5z" />
    <glyph glyph-name="uni0050" unicode="P" horiz-adv-x="1784" 
d="M120 0l340 2048h692q240 0 379.5 -86t189 -233t19.5 -329q-30 -180 -128.5 -328t-266 -236t-405.5 -88h-496l36 220h488q246 0 372 124.5t156 307.5q30 186 -54.5 307t-333.5 121h-436l-304 -1828h-248z" />
    <glyph glyph-name="uni0051" unicode="Q" horiz-adv-x="2184" 
d="M956 640h272l228 -300l60 -80l340 -452h-272l-224 300l-56 76zM2016 1008q-54 -320 -207 -552.5t-374 -358t-479 -125.5q-266 0 -452.5 130.5t-266 370t-25.5 567.5q54 320 207 552.5t375 358t482 125.5q264 0 449.5 -130.5t265 -370t25.5 -567.5zM1780 1040
q44 262 -13 441t-189 271t-314 92q-190 0 -360 -96.5t-291 -283t-165 -456.5q-44 -262 13 -441t189 -271t314 -92q190 0 360 96.5t291 283t165 456.5z" />
    <glyph glyph-name="uni0052" unicode="R" horiz-adv-x="1764" 
d="M120 0l340 2048h684q244 0 381.5 -86t184 -229t18.5 -313q-33 -210 -154.5 -353t-313.5 -215l304 -852h-288l-276 796h-596l40 228h504q180 0 291.5 51.5t169 141t75.5 203.5q16 96 -3.5 190t-105 156t-267.5 62h-436l-304 -1828h-248z" />
    <glyph glyph-name="uni0053" unicode="S" horiz-adv-x="1796" 
d="M1492 1520q0 165 -109 250.5t-295 85.5q-204 0 -344 -96.5t-164 -243.5q-13 -82 17 -140.5t85.5 -97t119.5 -63t118 -39.5l200 -56q75 -21 167 -58t172 -100.5t122.5 -162.5t18.5 -243q-28 -166 -136.5 -300t-286 -213t-413.5 -79q-220 0 -369.5 71t-220 198t-54.5 295
h256q-10 -116 46 -191.5t156 -112t222 -36.5q142 0 262.5 46.5t200 130t97.5 195.5q18 102 -28 166t-133 104t-191 70l-240 72q-228 69 -346.5 197t-85.5 335q30 172 145 300.5t285 200t366 71.5q198 0 339 -71.5t210 -197t51 -287.5h-240z" />
    <glyph glyph-name="uni0054" unicode="T" horiz-adv-x="1808" 
d="M312 1828l36 220h1536l-36 -220h-644l-304 -1828h-248l304 1828h-644z" />
    <glyph glyph-name="uni0055" unicode="U" horiz-adv-x="2088" 
d="M1804 2048h248l-224 -1356q-39 -230 -175 -393t-331 -249t-410 -86q-217 0 -384 86t-249 249t-43 393l224 1356h248l-224 -1356q-27 -160 30 -270.5t172 -168t262 -57.5q145 0 279.5 57.5t230 168t122.5 270.5z" />
    <glyph glyph-name="uni0056" unicode="V" horiz-adv-x="1904" 
d="M544 2048l324 -1724h24l892 1724h260l-1092 -2048h-256l-412 2048h260z" />
    <glyph glyph-name="uni0057" unicode="W" horiz-adv-x="2672" 
d="M492 0l-220 2048h252l152 -1668h20l712 1668h280l160 -1668h20l704 1668h252l-900 -2048h-256l-180 1632h-16l-724 -1632h-256z" />
    <glyph glyph-name="uni0058" unicode="X" horiz-adv-x="1808" 
d="M580 2048l388 -852h16l668 852h292l-812 -1024l472 -1024h-292l-388 836h-16l-668 -836h-292l832 1024l-492 1024h292z" />
    <glyph glyph-name="uni0059" unicode="Y" horiz-adv-x="1880" 
d="M288 2048h284l412 -956h24l724 956h284l-940 -1204l-140 -844h-248l140 844z" />
    <glyph glyph-name="uni005A" unicode="Z" horiz-adv-x="1760" 
d="M52 0l32 180l1376 1648h-1116l36 220h1412l-28 -180l-1380 -1648h1116l-36 -220h-1412z" />
    <glyph glyph-name="uni005B" unicode="[" horiz-adv-x="1020" 
d="M136 -416l424 2560h592l-32 -196h-368l-360 -2168h368l-32 -196h-592z" />
    <glyph glyph-name="uni005C" unicode="\" horiz-adv-x="1008" 
d="M220 2048h232l380 -2356h-232z" />
    <glyph glyph-name="uni005D" unicode="]" horiz-adv-x="1020" 
d="M916 2144l-424 -2560h-592l32 196h368l360 2168h-368l32 196h592z" />
    <glyph glyph-name="uni005E" unicode="^" horiz-adv-x="1264" 
d="M800 1688l-376 -684h-256l576 1000h164zM924 1004l-156 684l-4 316h168l244 -1000h-252z" />
    <glyph glyph-name="uni005F" unicode="_" horiz-adv-x="1272" 
d="M1148 0l-36 -220h-1280l36 220h1280z" />
    <glyph glyph-name="uni0060" unicode="`" horiz-adv-x="752" 
d="M612 2112l200 -408h-236l-296 408h332z" />
    <glyph glyph-name="uni0061" unicode="a" horiz-adv-x="1588" 
d="M536 -36q-146 0 -256 55.5t-163 161t-29 255.5q23 132 89 214.5t160.5 130t204 71t218.5 36.5q142 18 231 29t134 35t55 80q24 150 -41.5 233t-230.5 83q-168 0 -277 -74t-163 -158l-208 80q82 140 196 218.5t239 110t241 31.5q74 0 167 -17.5t174.5 -71.5t123 -163
t11.5 -292l-168 -1012h-236l36 208h-12q-32 -50 -97.5 -107t-165 -97t-233.5 -40zM604 176q140 0 245.5 55t170 142t80.5 183l36 216q-18 -18 -71 -32.5t-119.5 -25t-129 -18t-100.5 -12.5q-94 -12 -178.5 -38.5t-142 -79t-71.5 -142.5q-21 -123 59 -185.5t221 -62.5z" />
    <glyph glyph-name="uni0062" unicode="b" horiz-adv-x="1716" 
d="M88 0l340 2048h236l-124 -756h20q32 40 89 102.5t153 112t246 49.5q194 0 325.5 -97t185 -275t13.5 -420q-40 -244 -152.5 -422.5t-276 -276t-355.5 -97.5q-148 0 -228.5 49.5t-118 113t-57.5 105.5h-28l-40 -236h-228zM448 768q-42 -261 44.5 -424.5t299.5 -163.5
q148 0 260 78.5t184 212t100 297.5q26 162 -1.5 292.5t-114 207t-236.5 76.5q-216 0 -355 -159t-181 -417z" />
    <glyph glyph-name="uni0063" unicode="c" horiz-adv-x="1572" 
d="M708 -32q-217 0 -355.5 102t-192.5 281t-16 409q38 234 154 413.5t289 281t381 101.5q242 0 387.5 -132t140.5 -348h-236q-10 105 -89.5 186.5t-234.5 81.5q-138 0 -254 -71.5t-195 -201t-107 -303.5q-46 -267 53.5 -427.5t310.5 -160.5q137 0 247 71t165 197h236
q-44 -136 -141 -244.5t-235 -172t-308 -63.5z" />
    <glyph glyph-name="uni0064" unicode="d" horiz-adv-x="1716" 
d="M1372 0h-228l38 236h-28q-34 -42 -92.5 -105.5t-155.5 -113t-245 -49.5q-192 0 -323 97.5t-184.5 276t-12.5 422.5q40 242 152.5 420t276 275t357.5 97q150 0 230 -49.5t116 -112t55 -102.5h20l126 756h236zM1266 768q44 258 -42.5 417t-302.5 159q-150 0 -261.5 -76.5
t-182.5 -207t-99 -292.5q-26 -164 2 -297.5t114 -212t234 -78.5q213 0 353.5 163.5t184.5 424.5z" />
    <glyph glyph-name="uni0065" unicode="e" horiz-adv-x="1644" 
d="M728 -32q-222 0 -366 98.5t-201 276t-17 413.5q38 236 154 416.5t289 282t381 101.5q120 0 230.5 -40t191.5 -129.5t113.5 -236.5t-3.5 -362l-16 -100h-1184l32 204h944q33 195 -59.5 323.5t-284.5 128.5q-133 0 -248.5 -71.5t-192.5 -180.5t-95 -220l-28 -176
q-46 -286 63 -401t333 -115q141 0 249.5 60t174.5 180l216 -64q-84 -174 -263 -281t-413 -107z" />
    <glyph glyph-name="uni0066" unicode="f" horiz-adv-x="1016" 
d="M1028 1536l-32 -200h-828l32 200h828zM192 0l292 1748q20 132 96.5 220t183 132t216.5 44q87 0 139.5 -14t76.5 -26l-100 -204q-18 6 -47.5 15t-80.5 9q-117 0 -178 -59t-82 -173l-280 -1692h-236z" />
    <glyph glyph-name="uni0067" unicode="g" horiz-adv-x="1716" 
d="M604 -576q-246 0 -381.5 92.5t-186.5 215.5l212 132q22 -38 63 -92t119 -95t210 -41q118 0 225 40.5t181 124t94 211.5l44 272h-20q-34 -42 -91.5 -103.5t-154 -109t-246.5 -47.5q-186 0 -319 88t-191 256t-18 408q40 236 153 411.5t277 272t358 96.5q150 0 230 -49.5
t117 -112t57 -102.5h24l40 244h228l-256 -1548q-34 -198 -149 -322.5t-278 -183t-341 -58.5zM740 236q213 0 349.5 144.5t178.5 399.5q42 249 -43 406.5t-301 157.5q-150 0 -262.5 -76t-184 -204t-97.5 -284q-39 -240 49.5 -392t310.5 -152z" />
    <glyph glyph-name="uni0068" unicode="h" horiz-adv-x="1664" 
d="M476 924l-152 -924h-236l340 2048h236l-124 -752h20q72 120 192.5 190t303.5 70q156 0 263.5 -62.5t152 -191t12.5 -326.5l-164 -976h-236l160 960q30 183 -48.5 283.5t-243.5 100.5q-174 0 -307 -109.5t-169 -310.5z" />
    <glyph glyph-name="uni0069" unicode="i" horiz-adv-x="668" 
d="M88 0l256 1536h236l-256 -1536h-236zM532 1788q-69 0 -118.5 47t-49.5 113t49.5 113t118.5 47t118.5 -47t49.5 -113t-49.5 -113t-118.5 -47z" />
    <glyph glyph-name="uni006A" unicode="j" horiz-adv-x="668" 
d="M344 1536h236l-272 -1648q-24 -142 -90.5 -246t-174 -161t-255.5 -57h-48l36 220h44q108 0 169.5 63.5t82.5 180.5zM528 1788q-69 0 -118.5 47t-49.5 113t49.5 113t118.5 47t118.5 -47t49.5 -113t-49.5 -113t-118.5 -47z" />
    <glyph glyph-name="uni006B" unicode="k" horiz-adv-x="1532" 
d="M400 560l44 292h48l788 684h292l-836 -724h-20zM88 0l340 2048h236l-340 -2048h-236zM1064 0l-472 760l192 164l580 -924h-300z" />
    <glyph glyph-name="uni006C" unicode="l" horiz-adv-x="668" 
d="M664 2048l-340 -2048h-236l340 2048h236z" />
    <glyph glyph-name="uni006D" unicode="m" horiz-adv-x="2448" 
d="M88 0l256 1536h228l-40 -240h20q69 123 187.5 191.5t268.5 68.5t241 -68.5t127 -191.5h16q78 120 208.5 190t295.5 70q204 0 314.5 -129t65.5 -399l-172 -1028h-236l172 1028q27 171 -53.5 243.5t-206.5 72.5q-162 0 -267 -97t-129 -247l-168 -1000h-240l176 1052
q21 132 -50 212t-206 80q-92 0 -180 -49.5t-151 -136t-81 -198.5l-160 -960h-236z" />
    <glyph glyph-name="uni006E" unicode="n" horiz-adv-x="1648" 
d="M476 924l-152 -924h-236l256 1536h228l-40 -240h20q72 117 195 188.5t297 71.5q154 0 260.5 -63.5t151 -192t12.5 -324.5l-164 -976h-236l160 960q30 180 -46.5 282t-241.5 102q-171 0 -299.5 -109.5t-164.5 -310.5z" />
    <glyph glyph-name="uni006F" unicode="o" horiz-adv-x="1680" 
d="M724 -32q-212 0 -354.5 101t-201.5 283t-20 424q38 236 152 411.5t283 272t373 96.5q212 0 355 -101.5t202 -284t19 -426.5q-38 -234 -152 -408.5t-283 -271t-373 -96.5zM728 180q162 0 282 83t194.5 218.5t99.5 294.5q24 150 -2 279.5t-111 209t-239 79.5
q-162 0 -282 -84t-194 -221t-100 -295q-24 -150 2 -278.5t111 -207t239 -78.5z" />
    <glyph glyph-name="uni0070" unicode="p" horiz-adv-x="1716" 
d="M788 -32q-148 0 -228.5 49.5t-118 113t-57.5 105.5h-116l176 1056h116q32 40 89 102.5t153 112t246 49.5q194 0 325.5 -97t185 -275t13.5 -420q-40 -244 -152.5 -422.5t-276 -276t-355.5 -97.5zM-8 -576l352 2112h228l-48 -288l-156 -496l16 -388l-156 -940h-236z
M792 180q148 0 260 78.5t184 212t100 297.5q26 162 -1.5 292.5t-114 207t-236.5 76.5q-216 0 -355 -159t-181 -417q-42 -261 44.5 -424.5t299.5 -163.5z" />
    <glyph glyph-name="uni0071" unicode="q" horiz-adv-x="1716" 
d="M665 -32q-192 0 -323 97.5t-184.5 276t-12.5 422.5q40 242 152.5 420t276 275t357.5 97q150 0 230 -49.5t116 -112t55 -102.5h116l-174 -1056h-116q-34 -42 -92.5 -105.5t-155.5 -113t-245 -49.5zM1281 -576h-236l156 940l144 388l8 496l48 288h228zM732 180
q213 0 353.5 163.5t184.5 424.5q44 258 -42.5 417t-302.5 159q-150 0 -261.5 -76.5t-182.5 -207t-99 -292.5q-26 -164 2 -297.5t114 -212t234 -78.5z" />
    <glyph glyph-name="uni0072" unicode="r" horiz-adv-x="1080" 
d="M88 0l256 1536h228l-40 -232h16q60 114 181.5 185t262.5 71q122 0 184 -56l-112 -196q-21 12 -54 18t-78 6q-112 0 -207.5 -47t-159.5 -128t-81 -185l-160 -972h-236z" />
    <glyph glyph-name="uni0073" unicode="s" horiz-adv-x="1472" 
d="M1376 1192l-224 -60q-12 54 -41.5 104.5t-90 83t-164.5 32.5q-141 0 -245 -64.5t-119 -163.5q-15 -87 40 -139t184 -85l220 -56q392 -101 340 -416q-22 -132 -115 -236t-238 -164t-323 -60q-237 0 -374 102.5t-146 297.5l236 56q9 -123 88.5 -185.5t223.5 -62.5
q165 0 275 70.5t125 169.5q15 81 -31.5 135t-160.5 81l-244 60q-204 51 -285.5 156t-54.5 264q22 130 112.5 230t228 157t299.5 57q228 0 341 -99.5t143 -264.5z" />
    <glyph glyph-name="uni0074" unicode="t" horiz-adv-x="1040" 
d="M1012 1536l-32 -200h-796l32 200h796zM508 1904h236l-244 -1464q-16 -100 5.5 -149.5t66 -66t96.5 -16.5q39 0 64 4.5t40 7.5l16 -212q-27 -9 -72.5 -18.5t-111.5 -9.5q-100 0 -188 43t-135 131t-25 222z" />
    <glyph glyph-name="uni0075" unicode="u" horiz-adv-x="1636" 
d="M1160 628l152 908h236l-256 -1536h-236l44 260h-16q-72 -117 -201 -198.5t-303 -81.5q-144 0 -245.5 63.5t-144 192t-10.5 324.5l164 976h236l-160 -960q-27 -168 51 -268t225 -100q88 0 186.5 45t176 138t101.5 237z" />
    <glyph glyph-name="uni0076" unicode="v" horiz-adv-x="1568" 
d="M1600 1536l-824 -1536h-240l-312 1536h256l220 -1224h16l628 1224h256z" />
    <glyph glyph-name="uni0077" unicode="w" horiz-adv-x="2288" 
d="M436 0l-212 1536h248l136 -1176h16l524 1176h252l128 -1172h16l528 1172h248l-724 -1536h-232l-140 1180h-24l-532 -1180h-232z" />
    <glyph glyph-name="uni0078" unicode="x" horiz-adv-x="1520" 
d="M520 1536l264 -628l472 628h272l-624 -768l368 -768h-272l-268 596l-468 -596h-272l616 768l-360 768h272z" />
    <glyph glyph-name="uni0079" unicode="y" horiz-adv-x="1568" 
d="M136 -596q-60 0 -106.5 9.5t-61.5 18.5l92 208q82 -22 148.5 -15.5t127 58t124.5 165.5l76 140l-312 1548h256l220 -1224h16l628 1224h256l-956 -1784q-64 -118 -140.5 -195t-168 -115t-199.5 -38z" />
    <glyph glyph-name="uni007A" unicode="z" horiz-adv-x="1524" 
d="M44 0l32 180l1044 1120l4 16h-872l36 220h1188l-32 -188l-1020 -1112l-4 -16h852l-36 -220h-1192z" />
    <glyph glyph-name="uni007B" unicode="{" horiz-adv-x="1020" 
d="M120 860l20 124q168 0 246.5 69t105.5 235l52 320q23 138 66 239t113.5 167t176 98t252.5 32l-32 -196q-116 0 -189 -36t-113 -111t-58 -193l-68 -400q-12 -78 -43 -142t-93 -110t-168 -71t-268 -25zM728 -416q-147 0 -241.5 32t-144 98t-59 167t12.5 239l52 320
q27 165 -26.5 234.5t-221.5 69.5l20 124q162 0 259.5 -25t144.5 -71t57.5 -110t-1.5 -142l-68 -400q-20 -118 -4.5 -193t76 -111t176.5 -36zM100 744l40 240h236l-40 -240h-236z" />
    <glyph glyph-name="uni007C" unicode="|" horiz-adv-x="920" 
d="M880 2708l-556 -3368h-200l556 3368h200z" />
    <glyph glyph-name="uni007D" unicode="}" horiz-adv-x="1020" 
d="M932 868l-20 -124q-168 0 -246.5 -69t-105.5 -235l-52 -320q-22 -138 -65.5 -239t-114 -167t-176 -98t-252.5 -32l32 196q116 0 189 36t113 111t58 193l68 400q12 78 43 142t93 110t168 71t268 25zM324 2144q147 0 241.5 -32t144 -98t59.5 -167t-13 -239l-52 -320
q-27 -165 26.5 -234.5t221.5 -69.5l-20 -124q-162 0 -259.5 25t-144.5 71t-57.5 110t1.5 142l68 400q20 118 4.5 193t-76 111t-176.5 36zM952 984l-40 -240h-236l40 240h236z" />
    <glyph glyph-name="uni007E" unicode="~" horiz-adv-x="1680" 
d="M1388 1172h220q-33 -219 -169.5 -345.5t-310.5 -126.5q-102 0 -184 44.5t-148 131.5q-48 69 -94 100.5t-106 31.5q-81 0 -143.5 -57t-92.5 -183h-220q26 146 96.5 251t170 161t213.5 56q93 0 173 -41t155 -131q57 -66 101.5 -101t110.5 -35q78 0 141 56t87 188z" />
    <glyph glyph-name="uni00A0" unicode="&#xa0;" horiz-adv-x="792" 
 />
    <glyph glyph-name="uni00A1" unicode="&#xa1;" horiz-adv-x="784" 
d="M44 -520l264 1472h232l-224 -1472h-272zM508 1560q82 0 132.5 -55.5t43.5 -136.5t-67.5 -136.5t-140.5 -55.5q-82 0 -132.5 55.5t-43.5 136.5t67.5 136.5t140.5 55.5z" />
    <glyph glyph-name="uni00A2" unicode="&#xa2;" horiz-adv-x="1580" 
d="M600 -256l336 2036h128l-336 -2036h-128zM708 -32q-217 0 -355.5 102t-192.5 281t-16 409q38 234 154 413.5t289 281t381 101.5q242 0 387.5 -132t140.5 -348h-236q-10 105 -89.5 186.5t-234.5 81.5q-138 0 -254 -71.5t-195 -201t-107 -303.5q-46 -267 53.5 -427.5
t310.5 -160.5q137 0 247 71t165 197h236q-44 -136 -141 -244.5t-235 -172t-308 -63.5z" />
    <glyph glyph-name="uni00A3" unicode="&#xa3;" horiz-adv-x="1776" 
d="M1412 0h-1356l36 220h1356zM1112 796h-932l40 228h932zM720 1428l-112 -868q-15 -126 -60.5 -232.5t-135.5 -163.5l-240 56q60 0 101.5 60t66 140t32.5 140l116 868q28 218 139.5 362t266 215t310.5 71q190 0 319 -88.5t173 -228t-20 -291.5l-220 64q30 104 -4 176.5
t-108 110t-164 37.5q-96 0 -192 -45.5t-169 -140t-99 -242.5z" />
    <glyph glyph-name="uni00A4" unicode="&#xa4;" horiz-adv-x="2036" 
d="M428 836q-30 -176 26 -322.5t177 -234t285 -87.5t313 87.5t253 234t134 322.5q30 178 -26 324t-177 233t-285 87t-313 -87t-253 -233t-134 -324zM208 836q30 183 118.5 339.5t220 273.5t290 182t327.5 65q170 0 308 -65t231.5 -182t132 -273.5t8.5 -339.5t-120 -340
t-222.5 -275t-292 -183.5t-329.5 -65.5q-169 0 -306 65.5t-229.5 183.5t-129.5 275t-7 340zM2004 1556l-328 -284l-132 168l324 284zM520 264l-328 -284l-132 168l324 280zM1576 -20l-228 284l188 164l232 -280zM524 1272l-228 284l188 168l232 -284z" />
    <glyph glyph-name="uni00A5" unicode="&#xa5;" horiz-adv-x="1544" 
d="M1384 1020l-28 -180h-1144l28 180h1144zM1320 624l-28 -180h-1144l28 180h1144zM728 908l712 1140h276l-812 -1220h-164zM528 2048l336 -1140l-44 -80h-164l-404 1220h276zM948 1076l-180 -1076h-248l180 1076h248z" />
    <glyph glyph-name="uni00A6" unicode="&#xa6;" horiz-adv-x="748" 
d="M228 552h220l-156 -936h-220zM696 2048l-156 -932h-220l156 932h220z" />
    <glyph glyph-name="uni00A7" unicode="&#xa7;" horiz-adv-x="1552" 
d="M1404 1564h-228q21 129 -31 214.5t-193 85.5q-90 0 -152.5 -33t-98 -83t-45.5 -100q-15 -90 45.5 -162t126.5 -114l352 -228q35 -22 78.5 -59t81 -90.5t55.5 -125.5t1 -165q-12 -74 -62.5 -148t-124 -131t-153.5 -81v-4q63 -63 83 -145.5t5 -178.5q-24 -148 -112 -243.5
t-212 -142t-256 -46.5q-158 0 -270.5 62.5t-164 178t-25.5 275.5h232q-24 -147 52.5 -225.5t211.5 -78.5q111 0 204.5 54.5t111.5 165.5q12 76 -13.5 127t-70 86t-88.5 63l-348 224q-36 23 -80 60t-81 91.5t-55.5 127t-3.5 165.5q12 72 60 147t121 134t159 83v8
q-51 63 -77 141.5t-11 174.5q22 124 101 220.5t198 152t261 55.5q154 0 255 -65.5t143 -181t18 -265.5zM1176 704q15 87 -31.5 152.5t-112.5 107.5l-352 228q-40 26 -102 1t-115 -87t-67 -146q-15 -96 33.5 -157.5t114.5 -106.5l336 -216q38 -24 104 0t123 83t69 141z" />
    <glyph glyph-name="uni00A8" unicode="&#xa8;" horiz-adv-x="1660" 
d="M740 1784q-67 0 -115 47t-49 113q1 66 49 113t115 47q66 0 113.5 -47t46.5 -113q1 -66 -46.5 -113t-113.5 -47zM1312 1784q-67 0 -115 47t-49 113q1 65 49 112.5t115 47.5q66 0 113.5 -47t46.5 -113q1 -66 -46.5 -113t-113.5 -47z" />
    <glyph glyph-name="uni00A9" unicode="&#xa9;" horiz-adv-x="2288" 
d="M1380 820h216q-36 -216 -179 -324t-353 -108q-222 0 -326.5 147.5t-65.5 384.5l28 164q26 158 104 278t197 187t267 67q210 0 317 -108t71 -324h-212q24 132 -32 190t-176 58q-132 0 -214.5 -97.5t-109.5 -250.5l-28 -164q-24 -153 28 -250.5t184 -97.5q120 0 191.5 56.5
t92.5 191.5zM376 1004q-30 -183 7 -339.5t128.5 -273.5t227 -182t301.5 -65q168 0 325.5 65t288.5 182t219.5 273.5t118.5 339.5q30 182 -7 337.5t-129 272t-228 181.5t-304 65q-166 0 -323 -65t-287.5 -181.5t-219 -272t-118.5 -337.5zM208 1004q36 218 143 404.5t264 327
t346.5 218.5t390.5 78q203 0 367 -78t275.5 -218.5t156.5 -327t9 -404.5q-36 -219 -143 -407t-264.5 -328t-347.5 -218.5t-393 -78.5q-201 0 -364.5 78.5t-274.5 218.5t-156 328t-9 407z" />
    <glyph glyph-name="uni00AA" unicode="&#xaa;" horiz-adv-x="1264" 
d="M868 1184l80 468q12 87 -19.5 131.5t-112.5 44.5q-90 0 -147 -35t-69 -101l-232 20q24 138 154.5 229t325.5 91q180 0 275 -95.5t65 -284.5l-72 -432q-12 -66 -14.5 -127t6.5 -121h-244q-6 48 -5.5 103t9.5 109zM996 1584l-28 -160h-200q-120 0 -181.5 -46t-70.5 -106
q-9 -57 23.5 -88.5t116.5 -31.5q56 0 117.5 25t106 61t48.5 70v-160q-42 -66 -132.5 -131t-231.5 -65q-165 0 -240.5 85.5t-51.5 226.5q24 153 155.5 236.5t368.5 83.5h200z" />
    <glyph glyph-name="uni00AB" unicode="&#xab;" horiz-adv-x="1264" 
d="M600 220h-208l-304 600l4 20h228zM804 1448l-488 -620h-228l4 20l504 600h208zM1112 220h-208l-304 600l4 20h228zM1316 1448l-488 -620h-228l4 20l504 600h208z" />
    <glyph glyph-name="uni00AC" unicode="&#xac;" horiz-adv-x="1520" 
d="M1392 1108l-40 -236h-1148l40 236h1148zM1376 1000l-80 -484h-276l80 484h276z" />
    <glyph glyph-name="uni00AD" unicode="&#xad;" horiz-adv-x="1296" 
d="M1116 988v-220h-900v220h900z" />
    <glyph glyph-name="uni00AE" unicode="&#xae;" horiz-adv-x="2288" 
d="M1200 900h-296l28 184h276q84 0 154.5 41t85.5 119q15 99 -32.5 137.5t-179.5 38.5h-180l-164 -984h-208l196 1168h388q204 0 309 -87.5t75 -264.5q-18 -114 -107 -189.5t-245 -114.5q9 3 -8 -10t-8 -10q-28 -14 -36 -20t-15 -7t-33 -1zM1184 900l52 128q144 0 219 -41.5
t97 -114t8 -164.5l-16 -76q-6 -51 -8 -97t4 -79l-4 -20h-212q-9 33 0 99.5t12 96.5l16 76q15 96 -22.5 144t-145.5 48zM376 1004q-30 -183 7 -339.5t128.5 -273.5t227 -182t301.5 -65q168 0 325.5 65t288.5 182t219.5 273.5t118.5 339.5q30 182 -7 337.5t-129 272
t-228 181.5t-304 65q-166 0 -323 -65t-287.5 -181.5t-219 -272t-118.5 -337.5zM208 1004q36 218 143 404.5t264 327t346.5 218.5t390.5 78q203 0 367 -78t275.5 -218.5t156.5 -327t9 -404.5q-36 -219 -143 -407t-264.5 -328t-347.5 -218.5t-393 -78.5q-201 0 -364.5 78.5
t-274.5 218.5t-156 328t-9 407z" />
    <glyph glyph-name="uni00AF" unicode="&#xaf;" horiz-adv-x="1264" 
d="M1304 1988l-32 -204h-940l32 204h940z" />
    <glyph glyph-name="uni00B0" unicode="&#xb0;" horiz-adv-x="1264" 
d="M684 1076q-126 0 -220.5 62.5t-140 167t-23.5 230.5q20 128 100 232.5t195 166t241 61.5q128 0 221.5 -61.5t138 -166t24.5 -232.5q-22 -126 -101 -230.5t-193 -167t-242 -62.5zM716 1276q108 0 199 78t109 186t-47 186t-173 78t-199 -78t-109 -186t47 -186t173 -78z" />
    <glyph glyph-name="uni00B1" unicode="&#xb1;" horiz-adv-x="1808" 
d="M1452 220l-36 -220h-1280l36 220h1280zM1600 1096l-40 -224h-524l-72 -440h-232l72 440h-524l40 224h524l72 440h232l-72 -440h524z" />
    <glyph glyph-name="uni00B2" unicode="&#xb2;" horiz-adv-x="1156" 
d="M176 1024l24 152l532 420q126 99 193 165.5t79 138.5q15 93 -40.5 144.5t-163.5 51.5t-187 -56t-97 -152h-200q20 120 94.5 205t183 130t230.5 45q124 0 214.5 -46.5t134 -128t27.5 -185.5q-12 -74 -51.5 -141.5t-121 -145t-219.5 -181.5l-308 -232v-8h604l-28 -176h-900
z" />
    <glyph glyph-name="uni00B3" unicode="&#xb3;" horiz-adv-x="1152" 
d="M624 1008q-134 0 -231.5 44.5t-144 122t-28.5 177.5h208q-12 -72 42.5 -118t165.5 -46q117 0 195 52.5t93 139.5q15 84 -45 134t-195 50h-96l28 168h84q114 0 195.5 55t96.5 145q12 69 -35.5 118.5t-152.5 49.5q-108 0 -182.5 -47.5t-89.5 -128.5h-200q16 104 83 181.5
t169 120t224 42.5t215.5 -43t140 -122t28.5 -187q-15 -96 -93 -166t-195 -94l-4 -8q120 -27 185 -108t47 -192q-18 -104 -89.5 -180.5t-180 -118t-238.5 -41.5z" />
    <glyph glyph-name="uni00B4" unicode="&#xb4;" horiz-adv-x="1296" 
d="M556 1760l312 456h276l-380 -456h-208z" />
    <glyph glyph-name="uni00B5" unicode="&#xb5;" horiz-adv-x="1752" 
d="M-8 -576l352 2112h236l-152 -908q-30 -186 67 -303t289 -117t327 117t165 303l152 908h236l-256 -1536h-236l40 228h-12q-84 -120 -205.5 -184t-250.5 -64q-126 0 -226 64t-142 184h-12l-136 -804h-236z" />
    <glyph glyph-name="uni00B6" unicode="&#xb6;" horiz-adv-x="1688" 
d="M1616 1828h-496l-176 -1068h-116q-218 0 -355.5 83.5t-192 229t-24.5 331.5q32 184 134.5 329.5t267 230t382.5 84.5h612zM1064 0l340 2048h248l-340 -2048h-248z" />
    <glyph glyph-name="uni00B7" unicode="&#xb7;" horiz-adv-x="784" 
d="M340 876q-76 0 -127 52.5t-53 127.5q-1 75 53 125.5t127 50.5q74 0 128 -52t52 -124q-1 -50 -25.5 -91t-65 -65t-89.5 -24z" />
    <glyph glyph-name="uni00B8" unicode="&#xb8;" horiz-adv-x="752" 
d="M156 8h196l-32 -80q78 -12 133.5 -65.5t34.5 -170.5q-21 -129 -141 -210.5t-327 -81.5l20 156q93 0 158.5 29.5t77.5 98.5t-35 94t-161 34z" />
    <glyph glyph-name="uni00B9" unicode="&#xb9;" horiz-adv-x="848" 
d="M852 2252l-204 -1228h-196l160 956h-8q-24 -30 -106.5 -61t-193.5 -31l24 172q100 0 173.5 39t116 85t50.5 68h184z" />
    <glyph glyph-name="uni00BA" unicode="&#xba;" horiz-adv-x="1264" 
d="M268 1436l16 108q24 142 100 252t193 173t263 63q222 0 327 -137.5t69 -350.5l-16 -108q-24 -142 -99 -251t-191 -171t-262 -62q-222 0 -329 135.5t-71 348.5zM524 1544l-16 -108q-21 -123 25.5 -203.5t166.5 -80.5q117 0 188 80.5t92 203.5l16 108q21 120 -23.5 202
t-164.5 82q-117 0 -190 -82t-94 -202z" />
    <glyph glyph-name="uni00BB" unicode="&#xbb;" horiz-adv-x="1264" 
d="M-88 220l488 620h228l-4 -20l-504 -600h-208zM116 1448h208l304 -600l-4 -20h-228zM424 220l488 620h228l-4 -20l-504 -600h-208zM628 1448h208l304 -600l-4 -20h-228z" />
    <glyph glyph-name="uni00BC" unicode="&#xbc;" horiz-adv-x="2468" 
d="M332 0l1564 2048h232l-1564 -2048h-232zM464 960l132 796h-16q-51 -42 -141 -87t-171 -57l32 200q100 32 176 83.5t121.5 96t54.5 56.5h204l-180 -1088h-212zM1348 232l28 180l560 676h292l-44 -252h-228l-344 -412l-4 -12h372h34h266l-28 -180h-904zM1832 0l52 312l8 48
l120 728h216l-180 -1088h-216z" />
    <glyph glyph-name="uni00BD" unicode="&#xbd;" horiz-adv-x="2612" 
d="M332 0l1564 2048h232l-1564 -2048h-232zM464 960l132 796h-16q-51 -42 -141 -87t-171 -57l32 200q100 32 176 83.5t121.5 96t54.5 56.5h204l-180 -1088h-212zM2388 188l-32 -188h-832l28 156l456 372q114 93 162 146t54 98q12 72 -27.5 110t-120.5 38q-96 0 -156 -52
t-72 -124h-224q16 98 79.5 180t166 131t234.5 49q186 0 275 -94t65 -238q-12 -72 -50.5 -129t-108 -118t-173.5 -145l-236 -192h512z" />
    <glyph glyph-name="uni00BE" unicode="&#xbe;" horiz-adv-x="2664" 
d="M528 0l1564 2048h232l-1564 -2048h-232zM1544 232l28 180l560 676h292l-44 -252h-228l-344 -412l-4 -12h372h34h266l-28 -180h-904zM2028 0l52 312l8 48l120 728h216l-180 -1088h-216zM576 944q-192 0 -290 87t-74 237h228q-12 -63 32.5 -101.5t131.5 -38.5
q90 0 147 39.5t69 108.5t-36.5 110.5t-147.5 41.5h-116l28 168h116q90 0 146.5 39t65.5 105q12 66 -29.5 105t-122.5 39q-78 0 -130.5 -34t-61.5 -94h-228q24 141 144.5 224.5t303.5 83.5q177 0 279 -79t81 -217q-18 -99 -92 -163t-192 -81l-4 -16q123 -15 180.5 -81.5
t39.5 -174.5q-21 -141 -148.5 -224.5t-319.5 -83.5z" />
    <glyph glyph-name="uni00BF" unicode="&#xbf;" horiz-adv-x="1428" 
d="M936 956q-32 -196 -89.5 -311.5t-140 -186t-190.5 -130.5q-96 -54 -171 -139t-93 -205q-24 -147 59.5 -233.5t224.5 -86.5q82 0 164.5 34t146 107t89.5 191h252q-36 -170 -136.5 -291t-243 -185t-304.5 -64q-176 0 -295 70t-171 192t-26 278q27 165 121.5 283.5
t238.5 196.5q100 56 163.5 118t101 148t59.5 214h240zM892 1564q82 0 132.5 -55.5t43.5 -136.5t-67.5 -136.5t-140.5 -55.5q-82 0 -132.5 55.5t-43.5 136.5t67.5 136.5t140.5 55.5z" />
    <glyph glyph-name="uni00C0" unicode="&#xc0;" horiz-adv-x="1904" 
d="M204 0h-260l1092 2048h256l412 -2048h-260l-324 1724h-16zM432 800h1048l-36 -220h-1048zM1152 2640l200 -408h-236l-296 408h332z" />
    <glyph glyph-name="uni00C1" unicode="&#xc1;" horiz-adv-x="1904" 
d="M204 0h-260l1092 2048h256l412 -2048h-260l-324 1724h-16zM432 800h1048l-36 -220h-1048zM1084 2224l312 456h276l-380 -456h-208z" />
    <glyph glyph-name="uni00C2" unicode="&#xc2;" horiz-adv-x="1904" 
d="M204 0h-260l1092 2048h256l412 -2048h-260l-324 1724h-16zM432 800h1048l-36 -220h-1048zM954 2264h-192l1 16l429 376h136l303 -376l-1 -16h-192l-205 240z" />
    <glyph glyph-name="uni00C3" unicode="&#xc3;" horiz-adv-x="1904" 
d="M204 0h-260l1092 2048h256l412 -2048h-260l-324 1724h-16zM432 800h1048l-36 -220h-1048zM864 2252h-184q16 102 70 182.5t131 127t163 46.5q76 0 125.5 -32t98 -64t120.5 -32q57 0 104 44.5t56 107.5h184q-16 -104 -71 -184.5t-133 -126t-164 -45.5q-69 0 -110 19.5
t-72 44.5t-66 44.5t-92 19.5t-102.5 -44.5t-57.5 -107.5z" />
    <glyph glyph-name="uni00C4" unicode="&#xc4;" horiz-adv-x="1904" 
d="M204 0h-260l1092 2048h256l412 -2048h-260l-324 1724h-16zM432 800h1048l-36 -220h-1048zM948 2296q-67 0 -115 47t-49 113q1 66 49 113t115 47q66 0 113.5 -47t46.5 -113q1 -66 -46.5 -113t-113.5 -47zM1520 2296q-67 0 -115 47t-49 113q1 65 49 112.5t115 47.5
q66 0 113.5 -47t46.5 -113q1 -66 -46.5 -113t-113.5 -47z" />
    <glyph glyph-name="uni00C5" unicode="&#xc5;" horiz-adv-x="1904" 
d="M204 0h-260l1092 2048h256l412 -2048h-260l-324 1724h-16zM432 800h1048l-36 -220h-1048zM888 2576q16 96 78 176t153 128t193 48t175 -48t107 -128t18 -176t-76 -173t-149 -122t-191 -45q-153 0 -242.5 98t-65.5 242zM1060 2576q-12 -72 32 -130t128 -58t148 58t76 130
q12 75 -32 135.5t-128 60.5t-148 -60.5t-76 -135.5z" />
    <glyph glyph-name="uni00C6" unicode="&#xc6;" horiz-adv-x="2788" 
d="M-56 0l1332 2048h1524l-36 -220h-988l-116 -692h924l-36 -220h-924l-116 -696h1004l-36 -220h-1252l304 1828h-148l-1164 -1828h-272zM480 580l36 220h968l-36 -220h-968z" />
    <glyph glyph-name="uni00C7" unicode="&#xc7;" horiz-adv-x="2048" 
d="M2000 1408h-244q-6 142 -73.5 239t-177 147t-241.5 50q-190 0 -360 -96.5t-291 -283t-165 -456.5q-44 -262 13 -441t189 -271t314 -92q140 0 272 50t235 147t157 239h248q-55 -157 -148.5 -281t-215.5 -210.5t-263 -131.5t-293 -45q-266 0 -452.5 130.5t-266 370
t-25.5 567.5q54 320 207 552.5t375 358t482 125.5q208 0 370 -79.5t256 -229t98 -359.5zM856 -8h196l-32 -80q78 -12 133.5 -65.5t34.5 -170.5q-21 -129 -141 -210.5t-327 -81.5l20 156q93 0 158.5 29.5t77.5 98.5t-35 94t-161 34z" />
    <glyph glyph-name="uni00C8" unicode="&#xc8;" horiz-adv-x="1684" 
d="M120 0l340 2048h1236l-36 -220h-988l-116 -692h924l-36 -220h-924l-116 -696h1004l-36 -220h-1252zM1044 2640l200 -408h-236l-296 408h332z" />
    <glyph glyph-name="uni00C9" unicode="&#xc9;" horiz-adv-x="1684" 
d="M120 0l340 2048h1236l-36 -220h-988l-116 -692h924l-36 -220h-924l-116 -696h1004l-36 -220h-1252zM976 2224l312 456h276l-380 -456h-208z" />
    <glyph glyph-name="uni00CA" unicode="&#xca;" horiz-adv-x="1684" 
d="M120 0l340 2048h1236l-36 -220h-988l-116 -692h924l-36 -220h-924l-116 -696h1004l-36 -220h-1252zM846 2264h-192l1 16l429 376h136l303 -376l-1 -16h-192l-205 240z" />
    <glyph glyph-name="uni00CB" unicode="&#xcb;" horiz-adv-x="1684" 
d="M120 0l340 2048h1236l-36 -220h-988l-116 -692h924l-36 -220h-924l-116 -696h1004l-36 -220h-1252zM840 2296q-67 0 -115 47t-49 113q1 66 49 113t115 47q66 0 113.5 -47t46.5 -113q1 -66 -46.5 -113t-113.5 -47zM1412 2296q-67 0 -115 47t-49 113q1 65 49 112.5
t115 47.5q66 0 113.5 -47t46.5 -113q1 -66 -46.5 -113t-113.5 -47z" />
    <glyph glyph-name="uni00CC" unicode="&#xcc;" horiz-adv-x="744" 
d="M708 2048l-340 -2048h-248l340 2048h248zM568 2640l200 -408h-236l-296 408h332z" />
    <glyph glyph-name="uni00CD" unicode="&#xcd;" horiz-adv-x="744" 
d="M708 2048l-340 -2048h-248l340 2048h248zM500 2224l312 456h276l-380 -456h-208z" />
    <glyph glyph-name="uni00CE" unicode="&#xce;" horiz-adv-x="744" 
d="M708 2048l-340 -2048h-248l340 2048h248zM370 2264h-192l1 16l429 376h136l303 -376l-1 -16h-192l-205 240z" />
    <glyph glyph-name="uni00CF" unicode="&#xcf;" horiz-adv-x="744" 
d="M708 2048l-340 -2048h-248l340 2048h248zM364 2296q-67 0 -115 47t-49 113q1 66 49 113t115 47q66 0 113.5 -47t46.5 -113q1 -66 -46.5 -113t-113.5 -47zM936 2296q-67 0 -115 47t-49 113q1 65 49 112.5t115 47.5q66 0 113.5 -47t46.5 -113q1 -66 -46.5 -113t-113.5 -47z
" />
    <glyph glyph-name="uni00D0" unicode="&#xd0;" horiz-adv-x="2024" 
d="M760 0h-500l36 220h472q254 0 438.5 100t298 285t155.5 439q42 244 -7.5 419.5t-193 270t-383.5 94.5h-524l36 220h524q298 0 491.5 -125t270 -357t22.5 -554q-52 -316 -201.5 -542.5t-386 -348t-548.5 -121.5zM708 2048l-340 -2048h-248l340 2048h248zM12 964l32 184
h880l-32 -184h-880z" />
    <glyph glyph-name="uni00D1" unicode="&#xd1;" horiz-adv-x="2120" 
d="M2084 2048l-340 -2048h-240l-848 1608h-20l-268 -1608h-248l340 2048h240l852 -1612h20l268 1612h244zM996 2232h-184q16 102 70 182.5t131 127t163 46.5q76 0 125.5 -32t98 -64t120.5 -32q57 0 104 44.5t56 107.5h184q-16 -104 -71 -184.5t-133 -126t-164 -45.5
q-69 0 -110 19.5t-72 44.5t-66 44.5t-92 19.5t-102.5 -44.5t-57.5 -107.5z" />
    <glyph glyph-name="uni00D2" unicode="&#xd2;" horiz-adv-x="2144" 
d="M2016 1008q-54 -320 -207 -552.5t-374 -358t-479 -125.5q-266 0 -452.5 130.5t-266 370t-25.5 567.5q54 320 207 552.5t375 358t482 125.5q264 0 449.5 -130.5t265 -370t25.5 -567.5zM1780 1040q44 262 -13 441t-189 271t-314 92q-190 0 -360 -96.5t-291 -283
t-165 -456.5q-44 -262 13 -441t189 -271t314 -92q190 0 360 96.5t291 283t165 456.5zM1268 2640l200 -408h-236l-296 408h332z" />
    <glyph glyph-name="uni00D3" unicode="&#xd3;" horiz-adv-x="2144" 
d="M2016 1008q-54 -320 -207 -552.5t-374 -358t-479 -125.5q-266 0 -452.5 130.5t-266 370t-25.5 567.5q54 320 207 552.5t375 358t482 125.5q264 0 449.5 -130.5t265 -370t25.5 -567.5zM1780 1040q44 262 -13 441t-189 271t-314 92q-190 0 -360 -96.5t-291 -283
t-165 -456.5q-44 -262 13 -441t189 -271t314 -92q190 0 360 96.5t291 283t165 456.5zM1200 2224l312 456h276l-380 -456h-208z" />
    <glyph glyph-name="uni00D4" unicode="&#xd4;" horiz-adv-x="2144" 
d="M2016 1008q-54 -320 -207 -552.5t-374 -358t-479 -125.5q-266 0 -452.5 130.5t-266 370t-25.5 567.5q54 320 207 552.5t375 358t482 125.5q264 0 449.5 -130.5t265 -370t25.5 -567.5zM1780 1040q44 262 -13 441t-189 271t-314 92q-190 0 -360 -96.5t-291 -283
t-165 -456.5q-44 -262 13 -441t189 -271t314 -92q190 0 360 96.5t291 283t165 456.5zM1070 2264h-192l1 16l429 376h136l303 -376l-1 -16h-192l-205 240z" />
    <glyph glyph-name="uni00D5" unicode="&#xd5;" horiz-adv-x="2144" 
d="M2016 1008q-54 -320 -207 -552.5t-374 -358t-479 -125.5q-266 0 -452.5 130.5t-266 370t-25.5 567.5q54 320 207 552.5t375 358t482 125.5q264 0 449.5 -130.5t265 -370t25.5 -567.5zM1780 1040q44 262 -13 441t-189 271t-314 92q-190 0 -360 -96.5t-291 -283
t-165 -456.5q-44 -262 13 -441t189 -271t314 -92q190 0 360 96.5t291 283t165 456.5zM980 2252h-184q16 102 70 182.5t131 127t163 46.5q76 0 125.5 -32t98 -64t120.5 -32q57 0 104 44.5t56 107.5h184q-16 -104 -71 -184.5t-133 -126t-164 -45.5q-69 0 -110 19.5t-72 44.5
t-66 44.5t-92 19.5t-102.5 -44.5t-57.5 -107.5z" />
    <glyph glyph-name="uni00D6" unicode="&#xd6;" horiz-adv-x="2144" 
d="M2016 1008q-54 -320 -207 -552.5t-374 -358t-479 -125.5q-266 0 -452.5 130.5t-266 370t-25.5 567.5q54 320 207 552.5t375 358t482 125.5q264 0 449.5 -130.5t265 -370t25.5 -567.5zM1780 1040q44 262 -13 441t-189 271t-314 92q-190 0 -360 -96.5t-291 -283
t-165 -456.5q-44 -262 13 -441t189 -271t314 -92q190 0 360 96.5t291 283t165 456.5zM1064 2296q-67 0 -115 47t-49 113q1 66 49 113t115 47q66 0 113.5 -47t46.5 -113q1 -66 -46.5 -113t-113.5 -47zM1636 2296q-67 0 -115 47t-49 113q1 65 49 112.5t115 47.5
q66 0 113.5 -47t46.5 -113q1 -66 -46.5 -113t-113.5 -47z" />
    <glyph glyph-name="uni00D7" unicode="&#xd7;" horiz-adv-x="1808" 
d="M372 280l-128 156l1252 1092l128 -156zM1276 280l-892 1092l176 156l892 -1092z" />
    <glyph glyph-name="uni00D8" unicode="&#xd8;" horiz-adv-x="2148" 
d="M480 -84l-152 104l1424 2108l152 -104zM2016 1004q-54 -320 -207 -552.5t-374 -358t-479 -125.5q-266 0 -452.5 130.5t-266 370t-25.5 567.5q54 320 207 552.5t375 358t482 125.5q264 0 449.5 -130.5t265 -370t25.5 -567.5zM1780 1036q44 262 -13 441t-189 271t-314 92
q-190 0 -360 -96.5t-291 -283t-165 -456.5q-44 -262 13 -441t189 -271t314 -92q190 0 360 96.5t291 283t165 456.5z" />
    <glyph glyph-name="uni00D9" unicode="&#xd9;" horiz-adv-x="2088" 
d="M1804 2048h248l-224 -1356q-39 -230 -175 -393t-331 -249t-410 -86q-217 0 -384 86t-249 249t-43 393l224 1356h248l-224 -1356q-27 -160 30 -270.5t172 -168t262 -57.5q145 0 279.5 57.5t230 168t122.5 270.5zM1244 2640l200 -408h-236l-296 408h332z" />
    <glyph glyph-name="uni00DA" unicode="&#xda;" horiz-adv-x="2088" 
d="M1804 2048h248l-224 -1356q-39 -230 -175 -393t-331 -249t-410 -86q-217 0 -384 86t-249 249t-43 393l224 1356h248l-224 -1356q-27 -160 30 -270.5t172 -168t262 -57.5q145 0 279.5 57.5t230 168t122.5 270.5zM1176 2224l312 456h276l-380 -456h-208z" />
    <glyph glyph-name="uni00DB" unicode="&#xdb;" horiz-adv-x="2088" 
d="M1804 2048h248l-224 -1356q-39 -230 -175 -393t-331 -249t-410 -86q-217 0 -384 86t-249 249t-43 393l224 1356h248l-224 -1356q-27 -160 30 -270.5t172 -168t262 -57.5q145 0 279.5 57.5t230 168t122.5 270.5zM1046 2264h-192l1 16l429 376h136l303 -376l-1 -16h-192
l-205 240z" />
    <glyph glyph-name="uni00DC" unicode="&#xdc;" horiz-adv-x="2088" 
d="M1804 2048h248l-224 -1356q-39 -230 -175 -393t-331 -249t-410 -86q-217 0 -384 86t-249 249t-43 393l224 1356h248l-224 -1356q-27 -160 30 -270.5t172 -168t262 -57.5q145 0 279.5 57.5t230 168t122.5 270.5zM1040 2296q-67 0 -115 47t-49 113q1 66 49 113t115 47
q66 0 113.5 -47t46.5 -113q1 -66 -46.5 -113t-113.5 -47zM1612 2296q-67 0 -115 47t-49 113q1 65 49 112.5t115 47.5q66 0 113.5 -47t46.5 -113q1 -66 -46.5 -113t-113.5 -47z" />
    <glyph glyph-name="uni00DD" unicode="&#xdd;" horiz-adv-x="1880" 
d="M288 2048h284l412 -956h24l724 956h284l-940 -1204l-140 -844h-248l140 844zM1072 2224l312 456h276l-380 -456h-208z" />
    <glyph glyph-name="uni00DE" unicode="&#xde;" horiz-adv-x="1776" 
d="M444 2048h248l-340 -2048h-248zM488 1624h528q218 0 356.5 -79.5t195 -213t28.5 -295.5q-26 -162 -126 -295.5t-264 -213t-382 -79.5h-528l36 220h528q142 0 247 42.5t169 124t84 197.5t-17.5 199.5t-129 128t-233.5 44.5h-528z" />
    <glyph glyph-name="uni00DF" unicode="&#xdf;" horiz-adv-x="1716" 
d="M120 0l252 1524q29 172 125 295.5t240.5 190t318.5 66.5q170 0 293 -63.5t181.5 -182t33.5 -282.5q-27 -183 -137.5 -298.5t-262.5 -165.5l-4 -20q193 -19 296.5 -151t67.5 -349q-28 -165 -123 -292t-242 -199.5t-327 -72.5h-224l36 220h228q164 0 278 96.5t138 247.5
q25 158 -65 261t-271 103h-180l36 224h128q101 0 183 51.5t135.5 134t69.5 174.5q23 144 -56 244t-244 100q-157 0 -274.5 -92.5t-141.5 -239.5l-252 -1524h-236z" />
    <glyph glyph-name="uni00E0" unicode="&#xe0;" horiz-adv-x="1588" 
d="M536 -36q-146 0 -256 55.5t-163 161t-29 255.5q23 132 89 214.5t160.5 130t204 71t218.5 36.5q142 18 231 29t134 35t55 80q24 150 -41.5 233t-230.5 83q-168 0 -277 -74t-163 -158l-208 80q82 140 196 218.5t239 110t241 31.5q74 0 167 -17.5t174.5 -71.5t123 -163
t11.5 -292l-168 -1012h-236l36 208h-12q-32 -50 -97.5 -107t-165 -97t-233.5 -40zM604 176q140 0 245.5 55t170 142t80.5 183l36 216q-18 -18 -71 -32.5t-119.5 -25t-129 -18t-100.5 -12.5q-94 -12 -178.5 -38.5t-142 -79t-71.5 -142.5q-21 -123 59 -185.5t221 -62.5z
M932 2128l200 -408h-236l-296 408h332z" />
    <glyph glyph-name="uni00E1" unicode="&#xe1;" horiz-adv-x="1588" 
d="M536 -36q-146 0 -256 55.5t-163 161t-29 255.5q23 132 89 214.5t160.5 130t204 71t218.5 36.5q142 18 231 29t134 35t55 80q24 150 -41.5 233t-230.5 83q-168 0 -277 -74t-163 -158l-208 80q82 140 196 218.5t239 110t241 31.5q74 0 167 -17.5t174.5 -71.5t123 -163
t11.5 -292l-168 -1012h-236l36 208h-12q-32 -50 -97.5 -107t-165 -97t-233.5 -40zM604 176q140 0 245.5 55t170 142t80.5 183l36 216q-18 -18 -71 -32.5t-119.5 -25t-129 -18t-100.5 -12.5q-94 -12 -178.5 -38.5t-142 -79t-71.5 -142.5q-21 -123 59 -185.5t221 -62.5z
M864 1712l312 456h276l-380 -456h-208z" />
    <glyph glyph-name="uni00E2" unicode="&#xe2;" horiz-adv-x="1588" 
d="M536 -36q-146 0 -256 55.5t-163 161t-29 255.5q23 132 89 214.5t160.5 130t204 71t218.5 36.5q142 18 231 29t134 35t55 80q24 150 -41.5 233t-230.5 83q-168 0 -277 -74t-163 -158l-208 80q82 140 196 218.5t239 110t241 31.5q74 0 167 -17.5t174.5 -71.5t123 -163
t11.5 -292l-168 -1012h-236l36 208h-12q-32 -50 -97.5 -107t-165 -97t-233.5 -40zM604 176q140 0 245.5 55t170 142t80.5 183l36 216q-18 -18 -71 -32.5t-119.5 -25t-129 -18t-100.5 -12.5q-94 -12 -178.5 -38.5t-142 -79t-71.5 -142.5q-21 -123 59 -185.5t221 -62.5z
M734 1752h-192l1 16l429 376h136l303 -376l-1 -16h-192l-205 240z" />
    <glyph glyph-name="uni00E3" unicode="&#xe3;" horiz-adv-x="1588" 
d="M536 -36q-146 0 -256 55.5t-163 161t-29 255.5q23 132 89 214.5t160.5 130t204 71t218.5 36.5q142 18 231 29t134 35t55 80q24 150 -41.5 233t-230.5 83q-168 0 -277 -74t-163 -158l-208 80q82 140 196 218.5t239 110t241 31.5q74 0 167 -17.5t174.5 -71.5t123 -163
t11.5 -292l-168 -1012h-236l36 208h-12q-32 -50 -97.5 -107t-165 -97t-233.5 -40zM604 176q140 0 245.5 55t170 142t80.5 183l36 216q-18 -18 -71 -32.5t-119.5 -25t-129 -18t-100.5 -12.5q-94 -12 -178.5 -38.5t-142 -79t-71.5 -142.5q-21 -123 59 -185.5t221 -62.5z
M668 1720h-184q16 102 70 182.5t131 127t163 46.5q76 0 125.5 -32t98 -64t120.5 -32q57 0 104 44.5t56 107.5h184q-16 -104 -71 -184.5t-133 -126t-164 -45.5q-69 0 -110 19.5t-72 44.5t-66 44.5t-92 19.5t-102.5 -44.5t-57.5 -107.5z" />
    <glyph glyph-name="uni00E4" unicode="&#xe4;" horiz-adv-x="1588" 
d="M536 -36q-146 0 -256 55.5t-163 161t-29 255.5q23 132 89 214.5t160.5 130t204 71t218.5 36.5q142 18 231 29t134 35t55 80q24 150 -41.5 233t-230.5 83q-168 0 -277 -74t-163 -158l-208 80q82 140 196 218.5t239 110t241 31.5q74 0 167 -17.5t174.5 -71.5t123 -163
t11.5 -292l-168 -1012h-236l36 208h-12q-32 -50 -97.5 -107t-165 -97t-233.5 -40zM604 176q140 0 245.5 55t170 142t80.5 183l36 216q-18 -18 -71 -32.5t-119.5 -25t-129 -18t-100.5 -12.5q-94 -12 -178.5 -38.5t-142 -79t-71.5 -142.5q-21 -123 59 -185.5t221 -62.5z
M728 1784q-67 0 -115 47t-49 113q1 66 49 113t115 47q66 0 113.5 -47t46.5 -113q1 -66 -46.5 -113t-113.5 -47zM1300 1784q-67 0 -115 47t-49 113q1 65 49 112.5t115 47.5q66 0 113.5 -47t46.5 -113q1 -66 -46.5 -113t-113.5 -47z" />
    <glyph glyph-name="uni00E5" unicode="&#xe5;" horiz-adv-x="1588" 
d="M536 -36q-146 0 -256 55.5t-163 161t-29 255.5q23 132 89 214.5t160.5 130t204 71t218.5 36.5q142 18 231 29t134 35t55 80q24 150 -41.5 233t-230.5 83q-168 0 -277 -74t-163 -158l-208 80q82 140 196 218.5t239 110t241 31.5q74 0 167 -17.5t174.5 -71.5t123 -163
t11.5 -292l-168 -1012h-236l36 208h-12q-32 -50 -97.5 -107t-165 -97t-233.5 -40zM604 176q140 0 245.5 55t170 142t80.5 183l36 216q-18 -18 -71 -32.5t-119.5 -25t-129 -18t-100.5 -12.5q-94 -12 -178.5 -38.5t-142 -79t-71.5 -142.5q-21 -123 59 -185.5t221 -62.5z
M668 2064q16 96 78 176t153 128t193 48t175 -48t107 -128t18 -176t-76 -173t-149 -122t-191 -45q-153 0 -242.5 98t-65.5 242zM840 2064q-12 -72 32 -130t128 -58t148 58t76 130q12 75 -32 135.5t-128 60.5t-148 -60.5t-76 -135.5z" />
    <glyph glyph-name="uni00E6" unicode="&#xe6;" horiz-adv-x="2604" 
d="M1704 -32q-255 0 -397.5 129.5t-166.5 354.5l164 732q105 174 264.5 273t363.5 99q120 0 230.5 -40t191.5 -129.5t113.5 -236.5t-3.5 -362l-12 -80l-1200 -92l32 204l956 72q33 195 -59.5 323.5t-284.5 128.5q-201 0 -354 -151.5t-198 -424.5l-12 -96q-18 -241 92.5 -366
t315.5 -126q153 -1 259 62t157 162l228 -8q-36 -128 -134 -224.5t-239.5 -150t-306.5 -53.5zM604 176q140 0 245.5 55t170 142t80.5 183l36 216q-18 -18 -71 -32.5t-119.5 -25t-129 -18t-100.5 -12.5q-94 -12 -178.5 -38.5t-142 -79t-71.5 -142.5q-21 -123 59 -185.5
t221 -62.5zM536 -36q-146 0 -256 55.5t-163 161t-29 255.5q23 131 88 213.5t159.5 129.5t204 71.5t220.5 37.5q116 14 207 23t146 29t63 68q29 174 -37 257t-227 83q-171 0 -280.5 -74t-163.5 -158l-208 80q82 140 196 218.5t239 110t241 31.5q210 0 320.5 -83.5
t131.5 -200.5l-220 -944h-12q-13 -40 -61 -101t-127.5 -121.5t-188 -101t-243.5 -40.5z" />
    <glyph glyph-name="uni00E7" unicode="&#xe7;" horiz-adv-x="1572" 
d="M708 -32q-217 0 -355.5 102t-192.5 281t-16 409q38 234 154 413.5t289 281t381 101.5q242 0 387.5 -132t140.5 -348h-236q-10 105 -89.5 186.5t-234.5 81.5q-138 0 -254 -71.5t-195 -201t-107 -303.5q-46 -267 53.5 -427.5t310.5 -160.5q137 0 247 71t165 197h236
q-44 -136 -141 -244.5t-235 -172t-308 -63.5zM620 8h196l-32 -80q78 -12 133.5 -65.5t34.5 -170.5q-21 -129 -141 -210.5t-327 -81.5l20 156q93 0 158.5 29.5t77.5 98.5t-35 94t-161 34z" />
    <glyph glyph-name="uni00E8" unicode="&#xe8;" horiz-adv-x="1644" 
d="M728 -32q-222 0 -366 98.5t-201 276t-17 413.5q38 236 154 416.5t289 282t381 101.5q120 0 230.5 -40t191.5 -129.5t113.5 -236.5t-3.5 -362l-16 -100h-1184l32 204h944q33 195 -59.5 323.5t-284.5 128.5q-133 0 -248.5 -71.5t-192.5 -180.5t-95 -220l-28 -176
q-46 -286 63 -401t333 -115q141 0 249.5 60t174.5 180l216 -64q-84 -174 -263 -281t-413 -107zM936 2128l200 -408h-236l-296 408h332z" />
    <glyph glyph-name="uni00E9" unicode="&#xe9;" horiz-adv-x="1644" 
d="M728 -32q-222 0 -366 98.5t-201 276t-17 413.5q38 236 154 416.5t289 282t381 101.5q120 0 230.5 -40t191.5 -129.5t113.5 -236.5t-3.5 -362l-16 -100h-1184l32 204h944q33 195 -59.5 323.5t-284.5 128.5q-133 0 -248.5 -71.5t-192.5 -180.5t-95 -220l-28 -176
q-46 -286 63 -401t333 -115q141 0 249.5 60t174.5 180l216 -64q-84 -174 -263 -281t-413 -107zM868 1712l312 456h276l-380 -456h-208z" />
    <glyph glyph-name="uni00EA" unicode="&#xea;" horiz-adv-x="1644" 
d="M728 -32q-222 0 -366 98.5t-201 276t-17 413.5q38 236 154 416.5t289 282t381 101.5q120 0 230.5 -40t191.5 -129.5t113.5 -236.5t-3.5 -362l-16 -100h-1184l32 204h944q33 195 -59.5 323.5t-284.5 128.5q-133 0 -248.5 -71.5t-192.5 -180.5t-95 -220l-28 -176
q-46 -286 63 -401t333 -115q141 0 249.5 60t174.5 180l216 -64q-84 -174 -263 -281t-413 -107zM738 1752h-192l1 16l429 376h136l303 -376l-1 -16h-192l-205 240z" />
    <glyph glyph-name="uni00EB" unicode="&#xeb;" horiz-adv-x="1644" 
d="M728 -32q-222 0 -366 98.5t-201 276t-17 413.5q38 236 154 416.5t289 282t381 101.5q120 0 230.5 -40t191.5 -129.5t113.5 -236.5t-3.5 -362l-16 -100h-1184l32 204h944q33 195 -59.5 323.5t-284.5 128.5q-133 0 -248.5 -71.5t-192.5 -180.5t-95 -220l-28 -176
q-46 -286 63 -401t333 -115q141 0 249.5 60t174.5 180l216 -64q-84 -174 -263 -281t-413 -107zM732 1784q-67 0 -115 47t-49 113q1 66 49 113t115 47q66 0 113.5 -47t46.5 -113q1 -66 -46.5 -113t-113.5 -47zM1304 1784q-67 0 -115 47t-49 113q1 65 49 112.5t115 47.5
q66 0 113.5 -47t46.5 -113q1 -66 -46.5 -113t-113.5 -47z" />
    <glyph glyph-name="uni00EC" unicode="&#xec;" horiz-adv-x="668" 
d="M88 0l256 1536h236l-256 -1536h-236zM452 2132l200 -408h-236l-296 408h332z" />
    <glyph glyph-name="uni00ED" unicode="&#xed;" horiz-adv-x="668" 
d="M88 0l256 1536h236l-256 -1536h-236zM384 1716l312 456h276l-380 -456h-208z" />
    <glyph glyph-name="uni00EE" unicode="&#xee;" horiz-adv-x="668" 
d="M88 0l256 1536h236l-256 -1536h-236zM254 1756h-192l1 16l429 376h136l303 -376l-1 -16h-192l-205 240z" />
    <glyph glyph-name="uni00EF" unicode="&#xef;" horiz-adv-x="668" 
d="M88 0l256 1536h236l-256 -1536h-236zM248 1788q-67 0 -115 47t-49 113q1 66 49 113t115 47q66 0 113.5 -47t46.5 -113q1 -66 -46.5 -113t-113.5 -47zM820 1788q-67 0 -115 47t-49 113q1 65 49 112.5t115 47.5q66 0 113.5 -47t46.5 -113q1 -66 -46.5 -113t-113.5 -47z" />
    <glyph glyph-name="uni00F0" unicode="&#xf0;" horiz-adv-x="1632" 
d="M1524 1948l-888 -396l-40 148l884 396zM684 -32q-206 0 -341 95t-190 261t-21 380q36 218 146 384t265 259t325 93q116 0 196.5 -40t130 -100t73.5 -120h20q-24 124 -88 270t-193 291t-347 267l132 168q155 -87 297 -222t247 -314.5t148.5 -402t-0.5 -485.5
q-40 -248 -152.5 -423.5t-279 -268t-368.5 -92.5zM720 180q146 0 256 68t179 183t93 257q20 130 -4 258t-107 213t-241 85q-146 0 -256 -75t-179 -198t-93 -267q-22 -136 3.5 -255.5t110 -194t238.5 -74.5z" />
    <glyph glyph-name="uni00F1" unicode="&#xf1;" horiz-adv-x="1636" 
d="M612 1720h-184q16 102 70 182.5t131 127t163 46.5q76 0 125.5 -32t98 -64t120.5 -32q57 0 104 44.5t56 107.5h184q-16 -104 -71 -184.5t-133 -126t-164 -45.5q-69 0 -110 19.5t-72 44.5t-66 44.5t-92 19.5t-102.5 -44.5t-57.5 -107.5zM476 924l-152 -924h-236l256 1536
h228l-40 -240h20q72 117 195 188.5t297 71.5q154 0 260.5 -63.5t151 -192t12.5 -324.5l-164 -976h-236l160 960q30 180 -46.5 282t-241.5 102q-171 0 -299.5 -109.5t-164.5 -310.5z" />
    <glyph glyph-name="uni00F2" unicode="&#xf2;" horiz-adv-x="1680" 
d="M724 -32q-212 0 -354.5 101t-201.5 283t-20 424q38 236 152 411.5t283 272t373 96.5q212 0 355 -101.5t202 -284t19 -426.5q-38 -234 -152 -408.5t-283 -271t-373 -96.5zM728 180q162 0 282 83t194.5 218.5t99.5 294.5q24 150 -2 279.5t-111 209t-239 79.5
q-162 0 -282 -84t-194 -221t-100 -295q-24 -150 2 -278.5t111 -207t239 -78.5zM956 2128l200 -408h-236l-296 408h332z" />
    <glyph glyph-name="uni00F3" unicode="&#xf3;" horiz-adv-x="1680" 
d="M724 -32q-212 0 -354.5 101t-201.5 283t-20 424q38 236 152 411.5t283 272t373 96.5q212 0 355 -101.5t202 -284t19 -426.5q-38 -234 -152 -408.5t-283 -271t-373 -96.5zM728 180q162 0 282 83t194.5 218.5t99.5 294.5q24 150 -2 279.5t-111 209t-239 79.5
q-162 0 -282 -84t-194 -221t-100 -295q-24 -150 2 -278.5t111 -207t239 -78.5zM888 1712l312 456h276l-380 -456h-208z" />
    <glyph glyph-name="uni00F4" unicode="&#xf4;" horiz-adv-x="1680" 
d="M724 -32q-212 0 -354.5 101t-201.5 283t-20 424q38 236 152 411.5t283 272t373 96.5q212 0 355 -101.5t202 -284t19 -426.5q-38 -234 -152 -408.5t-283 -271t-373 -96.5zM728 180q162 0 282 83t194.5 218.5t99.5 294.5q24 150 -2 279.5t-111 209t-239 79.5
q-162 0 -282 -84t-194 -221t-100 -295q-24 -150 2 -278.5t111 -207t239 -78.5zM758 1752h-192l1 16l429 376h136l303 -376l-1 -16h-192l-205 240z" />
    <glyph glyph-name="uni00F5" unicode="&#xf5;" horiz-adv-x="1680" 
d="M688 1720h-184q16 102 70 182.5t131 127t163 46.5q76 0 125.5 -32t98 -64t120.5 -32q57 0 104 44.5t56 107.5h184q-16 -104 -71 -184.5t-133 -126t-164 -45.5q-69 0 -110 19.5t-72 44.5t-66 44.5t-92 19.5t-102.5 -44.5t-57.5 -107.5zM724 -32q-212 0 -354.5 101
t-201.5 283t-20 424q38 236 152 411.5t283 272t373 96.5q212 0 355 -101.5t202 -284t19 -426.5q-38 -234 -152 -408.5t-283 -271t-373 -96.5zM728 180q162 0 282 83t194.5 218.5t99.5 294.5q24 150 -2 279.5t-111 209t-239 79.5q-162 0 -282 -84t-194 -221t-100 -295
q-24 -150 2 -278.5t111 -207t239 -78.5z" />
    <glyph glyph-name="uni00F6" unicode="&#xf6;" horiz-adv-x="1680" 
d="M724 -32q-212 0 -354.5 101t-201.5 283t-20 424q38 236 152 411.5t283 272t373 96.5q212 0 355 -101.5t202 -284t19 -426.5q-38 -234 -152 -408.5t-283 -271t-373 -96.5zM728 180q162 0 282 83t194.5 218.5t99.5 294.5q24 150 -2 279.5t-111 209t-239 79.5
q-162 0 -282 -84t-194 -221t-100 -295q-24 -150 2 -278.5t111 -207t239 -78.5zM752 1784q-67 0 -115 47t-49 113q1 66 49 113t115 47q66 0 113.5 -47t46.5 -113q1 -66 -46.5 -113t-113.5 -47zM1324 1784q-67 0 -115 47t-49 113q1 65 49 112.5t115 47.5q66 0 113.5 -47
t46.5 -113q1 -66 -46.5 -113t-113.5 -47z" />
    <glyph glyph-name="uni00F7" unicode="&#xf7;" horiz-adv-x="1808" 
d="M1584 1008l-36 -220h-1280l36 220h1280zM840 1408q12 69 62 114.5t134 45.5q81 0 116.5 -45.5t23.5 -114.5q-9 -66 -60 -111t-132 -45q-84 0 -118.5 45t-25.5 111zM672 380q12 69 62 116.5t134 47.5q81 0 116.5 -47.5t23.5 -116.5q-12 -66 -63.5 -111t-132.5 -45
q-84 0 -118 45t-22 111z" />
    <glyph glyph-name="uni00F8" unicode="&#xf8;" horiz-adv-x="1680" 
d="M240 -84l-136 104l1336 1588l132 -104zM724 -32q-212 0 -354.5 101t-201.5 283t-20 424q38 236 152 411.5t283 272t373 96.5q212 0 355 -101.5t202 -284t19 -426.5q-38 -234 -152 -408.5t-283 -271t-373 -96.5zM728 180q162 0 282 83t194.5 218.5t99.5 294.5
q24 150 -2 279.5t-111 209t-239 79.5q-162 0 -282 -84t-194 -221t-100 -295q-24 -150 2 -278.5t111 -207t239 -78.5z" />
    <glyph glyph-name="uni00F9" unicode="&#xf9;" horiz-adv-x="1636" 
d="M1160 628l152 908h236l-256 -1536h-236l44 260h-16q-72 -117 -201 -198.5t-303 -81.5q-144 0 -245.5 63.5t-144 192t-10.5 324.5l164 976h236l-160 -960q-27 -168 51 -268t225 -100q88 0 186.5 45t176 138t101.5 237zM932 2128l200 -408h-236l-296 408h332z" />
    <glyph glyph-name="uni00FA" unicode="&#xfa;" horiz-adv-x="1636" 
d="M1160 628l152 908h236l-256 -1536h-236l44 260h-16q-72 -117 -201 -198.5t-303 -81.5q-144 0 -245.5 63.5t-144 192t-10.5 324.5l164 976h236l-160 -960q-27 -168 51 -268t225 -100q88 0 186.5 45t176 138t101.5 237zM864 1712l312 456h276l-380 -456h-208z" />
    <glyph glyph-name="uni00FB" unicode="&#xfb;" horiz-adv-x="1636" 
d="M1160 628l152 908h236l-256 -1536h-236l44 260h-16q-72 -117 -201 -198.5t-303 -81.5q-144 0 -245.5 63.5t-144 192t-10.5 324.5l164 976h236l-160 -960q-27 -168 51 -268t225 -100q88 0 186.5 45t176 138t101.5 237zM734 1752h-192l1 16l429 376h136l303 -376l-1 -16
h-192l-205 240z" />
    <glyph glyph-name="uni00FC" unicode="&#xfc;" horiz-adv-x="1636" 
d="M1160 628l152 908h236l-256 -1536h-236l44 260h-16q-72 -117 -201 -198.5t-303 -81.5q-144 0 -245.5 63.5t-144 192t-10.5 324.5l164 976h236l-160 -960q-27 -168 51 -268t225 -100q88 0 186.5 45t176 138t101.5 237zM728 1784q-67 0 -115 47t-49 113q1 66 49 113t115 47
q66 0 113.5 -47t46.5 -113q1 -66 -46.5 -113t-113.5 -47zM1300 1784q-67 0 -115 47t-49 113q1 65 49 112.5t115 47.5q66 0 113.5 -47t46.5 -113q1 -66 -46.5 -113t-113.5 -47z" />
    <glyph glyph-name="uni00FD" unicode="&#xfd;" horiz-adv-x="1568" 
d="M136 -596q-60 0 -106.5 9.5t-61.5 18.5l92 208q82 -22 148.5 -15.5t127 58t124.5 165.5l76 140l-312 1548h256l220 -1224h16l628 1224h256l-956 -1784q-64 -118 -140.5 -195t-168 -115t-199.5 -38zM824 1712l312 456h276l-380 -456h-208z" />
    <glyph glyph-name="uni00FE" unicode="&#xfe;" horiz-adv-x="1716" 
d="M428 2048h236l-144 -876l-124 -388l-24 -496l-144 -864h-236zM444 1292h116q32 40 89 102.5t153 112t246 49.5q194 0 325.5 -97t185 -275t13.5 -420q-40 -244 -152.5 -422.5t-276 -276t-355.5 -97.5q-148 0 -228.5 49.5t-118 113t-57.5 105.5h-116zM1336 768
q26 162 -1.5 292.5t-114 207t-236.5 76.5q-144 0 -254.5 -72.5t-182 -202t-99.5 -301.5q-28 -174 1 -306.5t115 -207t228 -74.5q148 0 260 78.5t184 212t100 297.5z" />
    <glyph glyph-name="uni00FF" unicode="&#xff;" horiz-adv-x="1568" 
d="M136 -596q-60 0 -106.5 9.5t-61.5 18.5l92 208q82 -22 148.5 -15.5t127 58t124.5 165.5l76 140l-312 1548h256l220 -1224h16l628 1224h256l-956 -1784q-64 -118 -140.5 -195t-168 -115t-199.5 -38zM688 1784q-67 0 -115 47t-49 113q1 66 49 113t115 47q66 0 113.5 -47
t46.5 -113q1 -66 -46.5 -113t-113.5 -47zM1260 1784q-67 0 -115 47t-49 113q1 65 49 112.5t115 47.5q66 0 113.5 -47t46.5 -113q1 -66 -46.5 -113t-113.5 -47z" />
    <glyph glyph-name="uni0100" unicode="&#x100;" horiz-adv-x="1904" 
d="M204 0h-260l1092 2048h256l412 -2048h-260l-324 1724h-16zM432 800h1048l-36 -220h-1048zM1724 2528l-32 -204h-940l32 204h940z" />
    <glyph glyph-name="uni0101" unicode="&#x101;" horiz-adv-x="1588" 
d="M536 -36q-146 0 -256 55.5t-163 161t-29 255.5q23 132 89 214.5t160.5 130t204 71t218.5 36.5q142 18 231 29t134 35t55 80q24 150 -41.5 233t-230.5 83q-168 0 -277 -74t-163 -158l-208 80q82 140 196 218.5t239 110t241 31.5q74 0 167 -17.5t174.5 -71.5t123 -163
t11.5 -292l-168 -1012h-236l36 208h-12q-32 -50 -97.5 -107t-165 -97t-233.5 -40zM604 176q140 0 245.5 55t170 142t80.5 183l36 216q-18 -18 -71 -32.5t-119.5 -25t-129 -18t-100.5 -12.5q-94 -12 -178.5 -38.5t-142 -79t-71.5 -142.5q-21 -123 59 -185.5t221 -62.5z
M1504 2016l-32 -204h-940l32 204h940z" />
    <glyph glyph-name="uni0102" unicode="&#x102;" horiz-adv-x="1904" 
d="M204 0h-260l1092 2048h256l412 -2048h-260l-324 1724h-16zM432 800h1048l-36 -220h-1048zM1448 2584h220q-18 -108 -82 -191t-165 -130t-229 -47q-189 0 -284 103t-68 265h220q-12 -78 21.5 -137t138.5 -59t160.5 59t67.5 137z" />
    <glyph glyph-name="uni0103" unicode="&#x103;" horiz-adv-x="1588" 
d="M536 -36q-146 0 -256 55.5t-163 161t-29 255.5q23 132 89 214.5t160.5 130t204 71t218.5 36.5q142 18 231 29t134 35t55 80q24 150 -41.5 233t-230.5 83q-168 0 -277 -74t-163 -158l-208 80q82 140 196 218.5t239 110t241 31.5q74 0 167 -17.5t174.5 -71.5t123 -163
t11.5 -292l-168 -1012h-236l36 208h-12q-32 -50 -97.5 -107t-165 -97t-233.5 -40zM604 176q140 0 245.5 55t170 142t80.5 183l36 216q-18 -18 -71 -32.5t-119.5 -25t-129 -18t-100.5 -12.5q-94 -12 -178.5 -38.5t-142 -79t-71.5 -142.5q-21 -123 59 -185.5t221 -62.5z
M1228 2072h220q-18 -108 -82 -191t-165 -130t-229 -47q-189 0 -284 103t-68 265h220q-12 -78 21.5 -137t138.5 -59t160.5 59t67.5 137z" />
    <glyph glyph-name="uni0104" unicode="&#x104;" horiz-adv-x="1904" 
d="M204 0h-260l1092 2048h256l412 -2048h-260l-324 1724h-16zM432 800h1048l-36 -220h-1048zM1416 -600q-123 0 -192 67.5t-48 196.5q12 74 61 148t141 143t234 129l92 -84q-99 -66 -182 -140t-98 -164q-9 -45 9.5 -70.5t78.5 -25.5q45 0 80.5 12t59.5 24l-12 -176
q-36 -21 -94 -40.5t-130 -19.5z" />
    <glyph glyph-name="uni0105" unicode="&#x105;" horiz-adv-x="1588" 
d="M536 -36q-146 0 -256 55.5t-163 161t-29 255.5q23 132 89 214.5t160.5 130t204 71t218.5 36.5q142 18 231 29t134 35t55 80q24 150 -41.5 233t-230.5 83q-168 0 -277 -74t-163 -158l-208 80q82 140 196 218.5t239 110t241 31.5q74 0 167 -17.5t174.5 -71.5t123 -163
t11.5 -292l-168 -1012h-236l36 208h-12q-32 -50 -97.5 -107t-165 -97t-233.5 -40zM604 176q140 0 245.5 55t170 142t80.5 183l36 216q-18 -18 -71 -32.5t-119.5 -25t-129 -18t-100.5 -12.5q-94 -12 -178.5 -38.5t-142 -79t-71.5 -142.5q-21 -123 59 -185.5t221 -62.5z
M956 -600q-123 0 -192 67.5t-48 196.5q12 74 61 148t141 143t234 129l92 -84q-99 -66 -182 -140t-98 -164q-9 -45 9.5 -70.5t78.5 -25.5q45 0 80.5 12t59.5 24l-12 -176q-36 -21 -94 -40.5t-130 -19.5z" />
    <glyph glyph-name="uni0106" unicode="&#x106;" horiz-adv-x="2048" 
d="M2000 1408h-244q-6 142 -73.5 239t-177 147t-241.5 50q-190 0 -360 -96.5t-291 -283t-165 -456.5q-44 -262 13 -441t189 -271t314 -92q140 0 272 50t235 147t157 239h248q-55 -157 -148.5 -281t-215.5 -210.5t-263 -131.5t-293 -45q-266 0 -452.5 130.5t-266 370
t-25.5 567.5q54 320 207 552.5t375 358t482 125.5q208 0 370 -79.5t256 -229t98 -359.5zM1208 2224l312 456h276l-380 -456h-208z" />
    <glyph glyph-name="uni0107" unicode="&#x107;" horiz-adv-x="1572" 
d="M708 -32q-217 0 -355.5 102t-192.5 281t-16 409q38 234 154 413.5t289 281t381 101.5q242 0 387.5 -132t140.5 -348h-236q-10 105 -89.5 186.5t-234.5 81.5q-138 0 -254 -71.5t-195 -201t-107 -303.5q-46 -267 53.5 -427.5t310.5 -160.5q137 0 247 71t165 197h236
q-44 -136 -141 -244.5t-235 -172t-308 -63.5zM876 1712l312 456h276l-380 -456h-208z" />
    <glyph glyph-name="uni0108" unicode="&#x108;" horiz-adv-x="2048" 
d="M2000 1408h-244q-6 142 -73.5 239t-177 147t-241.5 50q-190 0 -360 -96.5t-291 -283t-165 -456.5q-44 -262 13 -441t189 -271t314 -92q140 0 272 50t235 147t157 239h248q-55 -157 -148.5 -281t-215.5 -210.5t-263 -131.5t-293 -45q-266 0 -452.5 130.5t-266 370
t-25.5 567.5q54 320 207 552.5t375 358t482 125.5q208 0 370 -79.5t256 -229t98 -359.5zM1078 2264h-192l1 16l429 376h136l303 -376l-1 -16h-192l-205 240z" />
    <glyph glyph-name="uni0109" unicode="&#x109;" horiz-adv-x="1572" 
d="M708 -32q-217 0 -355.5 102t-192.5 281t-16 409q38 234 154 413.5t289 281t381 101.5q242 0 387.5 -132t140.5 -348h-236q-10 105 -89.5 186.5t-234.5 81.5q-138 0 -254 -71.5t-195 -201t-107 -303.5q-46 -267 53.5 -427.5t310.5 -160.5q137 0 247 71t165 197h236
q-44 -136 -141 -244.5t-235 -172t-308 -63.5zM746 1752h-192l1 16l429 376h136l303 -376l-1 -16h-192l-205 240z" />
    <glyph glyph-name="uni010A" unicode="&#x10a;" horiz-adv-x="2048" 
d="M2000 1408h-244q-6 142 -73.5 239t-177 147t-241.5 50q-190 0 -360 -96.5t-291 -283t-165 -456.5q-44 -262 13 -441t189 -271t314 -92q140 0 272 50t235 147t157 239h248q-55 -157 -148.5 -281t-215.5 -210.5t-263 -131.5t-293 -45q-266 0 -452.5 130.5t-266 370
t-25.5 567.5q54 320 207 552.5t375 358t482 125.5q208 0 370 -79.5t256 -229t98 -359.5zM1356 2296q-69 0 -118.5 47t-49.5 113t49.5 113t118.5 47t118.5 -47t49.5 -113t-49.5 -113t-118.5 -47z" />
    <glyph glyph-name="uni010B" unicode="&#x10b;" horiz-adv-x="1572" 
d="M708 -32q-217 0 -355.5 102t-192.5 281t-16 409q38 234 154 413.5t289 281t381 101.5q242 0 387.5 -132t140.5 -348h-236q-10 105 -89.5 186.5t-234.5 81.5q-138 0 -254 -71.5t-195 -201t-107 -303.5q-46 -267 53.5 -427.5t310.5 -160.5q137 0 247 71t165 197h236
q-44 -136 -141 -244.5t-235 -172t-308 -63.5zM1024 1784q-69 0 -118.5 47t-49.5 113t49.5 113t118.5 47t118.5 -47t49.5 -113t-49.5 -113t-118.5 -47z" />
    <glyph glyph-name="uni010C" unicode="&#x10c;" horiz-adv-x="2048" 
d="M2000 1408h-244q-6 142 -73.5 239t-177 147t-241.5 50q-190 0 -360 -96.5t-291 -283t-165 -456.5q-44 -262 13 -441t189 -271t314 -92q140 0 272 50t235 147t157 239h248q-55 -157 -148.5 -281t-215.5 -210.5t-263 -131.5t-293 -45q-266 0 -452.5 130.5t-266 370
t-25.5 567.5q54 320 207 552.5t375 358t482 125.5q208 0 370 -79.5t256 -229t98 -359.5zM1144 2628l200 -240l284 240h192l-4 -16l-428 -376h-136l-304 376l4 16h192z" />
    <glyph glyph-name="uni010D" unicode="&#x10d;" horiz-adv-x="1572" 
d="M708 -32q-217 0 -355.5 102t-192.5 281t-16 409q38 234 154 413.5t289 281t381 101.5q242 0 387.5 -132t140.5 -348h-236q-10 105 -89.5 186.5t-234.5 81.5q-138 0 -254 -71.5t-195 -201t-107 -303.5q-46 -267 53.5 -427.5t310.5 -160.5q137 0 247 71t165 197h236
q-44 -136 -141 -244.5t-235 -172t-308 -63.5zM812 2116l200 -240l284 240h192l-4 -16l-428 -376h-136l-304 376l4 16h192z" />
    <glyph glyph-name="uni010E" unicode="&#x10e;" horiz-adv-x="2024" 
d="M760 0h-500l36 220h472q254 0 438.5 100t298 285t155.5 439q42 244 -7.5 419.5t-193 270t-383.5 94.5h-524l36 220h524q298 0 491.5 -125t270 -357t22.5 -554q-52 -316 -201.5 -542.5t-386 -348t-548.5 -121.5zM708 2048l-340 -2048h-248l340 2048h248zM1172 2628
l200 -240l284 240h192l-4 -16l-428 -376h-136l-304 376l4 16h192z" />
    <glyph glyph-name="uni010F" unicode="&#x10f;" horiz-adv-x="1924" 
d="M1372 0h-228l38 236h-28q-34 -42 -92.5 -105.5t-155.5 -113t-245 -49.5q-192 0 -323 97.5t-184.5 276t-12.5 422.5q40 242 152.5 420t276 275t357.5 97q150 0 230 -49.5t116 -112t55 -102.5h20l126 756h236zM1266 768q44 258 -42.5 417t-302.5 159q-150 0 -261.5 -76.5
t-182.5 -207t-99 -292.5q-26 -164 2 -297.5t114 -212t234 -78.5q213 0 353.5 163.5t184.5 424.5zM2168 2048l-20 -124q-24 -132 -90 -287.5t-162 -272.5l-196 40q48 80 91 170.5t74 180t43 165.5l20 128h240z" />
    <glyph glyph-name="uni0110" unicode="&#x110;" horiz-adv-x="2024" 
d="M760 0h-500l36 220h472q254 0 438.5 100t298 285t155.5 439q42 244 -7.5 419.5t-193 270t-383.5 94.5h-524l36 220h524q298 0 491.5 -125t270 -357t22.5 -554q-52 -316 -201.5 -542.5t-386 -348t-548.5 -121.5zM708 2048l-340 -2048h-248l340 2048h248zM12 964l32 184
h880l-32 -184h-880z" />
    <glyph glyph-name="uni0111" unicode="&#x111;" horiz-adv-x="1716" 
d="M1372 0h-228l38 236h-28q-34 -42 -92.5 -105.5t-155.5 -113t-245 -49.5q-192 0 -323 97.5t-184.5 276t-12.5 422.5q40 242 152.5 420t276 275t357.5 97q150 0 230 -49.5t116 -112t55 -102.5h20l126 756h236zM1266 768q44 258 -42.5 417t-302.5 159q-150 0 -261.5 -76.5
t-182.5 -207t-99 -292.5q-26 -164 2 -297.5t114 -212t234 -78.5q213 0 353.5 163.5t184.5 424.5zM1088 1668l32 184h880l-32 -184h-880z" />
    <glyph glyph-name="uni0112" unicode="&#x112;" horiz-adv-x="1684" 
d="M120 0l340 2048h1236l-36 -220h-988l-116 -692h924l-36 -220h-924l-116 -696h1004l-36 -220h-1252zM1616 2528l-32 -204h-940l32 204h940z" />
    <glyph glyph-name="uni0113" unicode="&#x113;" horiz-adv-x="1644" 
d="M728 -32q-222 0 -366 98.5t-201 276t-17 413.5q38 236 154 416.5t289 282t381 101.5q120 0 230.5 -40t191.5 -129.5t113.5 -236.5t-3.5 -362l-16 -100h-1184l32 204h944q33 195 -59.5 323.5t-284.5 128.5q-133 0 -248.5 -71.5t-192.5 -180.5t-95 -220l-28 -176
q-46 -286 63 -401t333 -115q141 0 249.5 60t174.5 180l216 -64q-84 -174 -263 -281t-413 -107zM1508 2016l-32 -204h-940l32 204h940z" />
    <glyph glyph-name="uni0114" unicode="&#x114;" horiz-adv-x="1684" 
d="M120 0l340 2048h1236l-36 -220h-988l-116 -692h924l-36 -220h-924l-116 -696h1004l-36 -220h-1252zM1340 2584h220q-18 -108 -82 -191t-165 -130t-229 -47q-189 0 -284 103t-68 265h220q-12 -78 21.5 -137t138.5 -59t160.5 59t67.5 137z" />
    <glyph glyph-name="uni0115" unicode="&#x115;" horiz-adv-x="1644" 
d="M728 -32q-222 0 -366 98.5t-201 276t-17 413.5q38 236 154 416.5t289 282t381 101.5q120 0 230.5 -40t191.5 -129.5t113.5 -236.5t-3.5 -362l-16 -100h-1184l32 204h944q33 195 -59.5 323.5t-284.5 128.5q-133 0 -248.5 -71.5t-192.5 -180.5t-95 -220l-28 -176
q-46 -286 63 -401t333 -115q141 0 249.5 60t174.5 180l216 -64q-84 -174 -263 -281t-413 -107zM1232 2072h220q-18 -108 -82 -191t-165 -130t-229 -47q-189 0 -284 103t-68 265h220q-12 -78 21.5 -137t138.5 -59t160.5 59t67.5 137z" />
    <glyph glyph-name="uni0116" unicode="&#x116;" horiz-adv-x="1684" 
d="M120 0l340 2048h1236l-36 -220h-988l-116 -692h924l-36 -220h-924l-116 -696h1004l-36 -220h-1252zM1124 2296q-69 0 -118.5 47t-49.5 113t49.5 113t118.5 47t118.5 -47t49.5 -113t-49.5 -113t-118.5 -47z" />
    <glyph glyph-name="uni0117" unicode="&#x117;" horiz-adv-x="1644" 
d="M728 -32q-222 0 -366 98.5t-201 276t-17 413.5q38 236 154 416.5t289 282t381 101.5q120 0 230.5 -40t191.5 -129.5t113.5 -236.5t-3.5 -362l-16 -100h-1184l32 204h944q33 195 -59.5 323.5t-284.5 128.5q-133 0 -248.5 -71.5t-192.5 -180.5t-95 -220l-28 -176
q-46 -286 63 -401t333 -115q141 0 249.5 60t174.5 180l216 -64q-84 -174 -263 -281t-413 -107zM1016 1784q-69 0 -118.5 47t-49.5 113t49.5 113t118.5 47t118.5 -47t49.5 -113t-49.5 -113t-118.5 -47z" />
    <glyph glyph-name="uni0118" unicode="&#x118;" horiz-adv-x="1684" 
d="M120 0l340 2048h1236l-36 -220h-988l-116 -692h924l-36 -220h-924l-116 -696h1004l-36 -220h-1252zM1084 -600q-123 0 -192 67.5t-48 196.5q12 74 61 148t141 143t234 129l92 -84q-99 -66 -182 -140t-98 -164q-9 -45 9.5 -70.5t78.5 -25.5q45 0 80.5 12t59.5 24l-12 -176
q-36 -21 -94 -40.5t-130 -19.5z" />
    <glyph glyph-name="uni0119" unicode="&#x119;" horiz-adv-x="1644" 
d="M728 -32q-222 0 -366 98.5t-201 276t-17 413.5q38 236 154 416.5t289 282t381 101.5q120 0 230.5 -40t191.5 -129.5t113.5 -236.5t-3.5 -362l-16 -100h-1184l32 204h944q33 195 -59.5 323.5t-284.5 128.5q-133 0 -248.5 -71.5t-192.5 -180.5t-95 -220l-28 -176
q-46 -286 63 -401t333 -115q141 0 249.5 60t174.5 180l216 -64q-84 -174 -263 -281t-413 -107zM640 -600q-123 0 -192 67.5t-48 196.5q12 74 61 148t141 143t234 129l92 -84q-99 -66 -182 -140t-98 -164q-9 -45 9.5 -70.5t78.5 -25.5q45 0 80.5 12t59.5 24l-12 -176
q-36 -21 -94 -40.5t-130 -19.5z" />
    <glyph glyph-name="uni011A" unicode="&#x11a;" horiz-adv-x="1684" 
d="M120 0l340 2048h1236l-36 -220h-988l-116 -692h924l-36 -220h-924l-116 -696h1004l-36 -220h-1252zM912 2628l200 -240l284 240h192l-4 -16l-428 -376h-136l-304 376l4 16h192z" />
    <glyph glyph-name="uni011B" unicode="&#x11b;" horiz-adv-x="1644" 
d="M728 -32q-222 0 -366 98.5t-201 276t-17 413.5q38 236 154 416.5t289 282t381 101.5q120 0 230.5 -40t191.5 -129.5t113.5 -236.5t-3.5 -362l-16 -100h-1184l32 204h944q33 195 -59.5 323.5t-284.5 128.5q-133 0 -248.5 -71.5t-192.5 -180.5t-95 -220l-28 -176
q-46 -286 63 -401t333 -115q141 0 249.5 60t174.5 180l216 -64q-84 -174 -263 -281t-413 -107zM804 2116l200 -240l284 240h192l-4 -16l-428 -376h-136l-304 376l4 16h192z" />
    <glyph glyph-name="uni011C" unicode="&#x11c;" horiz-adv-x="2092" 
d="M208 1024q52 324 205.5 560t377 364t485.5 128q216 0 378.5 -84.5t254 -235t95.5 -348.5h-256q-30 201 -158 318.5t-350 117.5q-182 0 -346.5 -94t-283 -277t-162.5 -449t14.5 -449t195 -277t326.5 -94q174 0 321 76t245 211t126 313l12 72l64 -72h-616l40 220h780
l-40 -220q-40 -254 -178 -441t-344 -289t-450 -102q-272 0 -456 128t-259 364t-21 560zM1062 2264h-192l1 16l429 376h136l303 -376l-1 -16h-192l-205 240z" />
    <glyph glyph-name="uni011D" unicode="&#x11d;" horiz-adv-x="1716" 
d="M604 -576q-246 0 -381.5 92.5t-186.5 215.5l212 132q22 -38 63 -92t119 -95t210 -41q118 0 225 40.5t181 124t94 211.5l44 272h-20q-34 -42 -91.5 -103.5t-154 -109t-246.5 -47.5q-186 0 -319 88t-191 256t-18 408q40 236 153 411.5t277 272t358 96.5q150 0 230 -49.5
t117 -112t57 -102.5h24l40 244h228l-256 -1548q-34 -198 -149 -322.5t-278 -183t-341 -58.5zM740 236q213 0 349.5 144.5t178.5 399.5q42 249 -43 406.5t-301 157.5q-150 0 -262.5 -76t-184 -204t-97.5 -284q-39 -240 49.5 -392t310.5 -152zM802 1752h-192l1 16l429 376h136
l303 -376l-1 -16h-192l-205 240z" />
    <glyph glyph-name="uni011E" unicode="&#x11e;" horiz-adv-x="2092" 
d="M208 1024q52 324 205.5 560t377 364t485.5 128q216 0 378.5 -84.5t254 -235t95.5 -348.5h-256q-30 201 -158 318.5t-350 117.5q-182 0 -346.5 -94t-283 -277t-162.5 -449t14.5 -449t195 -277t326.5 -94q174 0 321 76t245 211t126 313l12 72l64 -72h-616l40 220h780
l-40 -220q-40 -254 -178 -441t-344 -289t-450 -102q-272 0 -456 128t-259 364t-21 560zM1556 2584h220q-18 -108 -82 -191t-165 -130t-229 -47q-189 0 -284 103t-68 265h220q-12 -78 21.5 -137t138.5 -59t160.5 59t67.5 137z" />
    <glyph glyph-name="uni011F" unicode="&#x11f;" horiz-adv-x="1716" 
d="M604 -576q-246 0 -381.5 92.5t-186.5 215.5l212 132q22 -38 63 -92t119 -95t210 -41q118 0 225 40.5t181 124t94 211.5l44 272h-20q-34 -42 -91.5 -103.5t-154 -109t-246.5 -47.5q-186 0 -319 88t-191 256t-18 408q40 236 153 411.5t277 272t358 96.5q150 0 230 -49.5
t117 -112t57 -102.5h24l40 244h228l-256 -1548q-34 -198 -149 -322.5t-278 -183t-341 -58.5zM740 236q213 0 349.5 144.5t178.5 399.5q42 249 -43 406.5t-301 157.5q-150 0 -262.5 -76t-184 -204t-97.5 -284q-39 -240 49.5 -392t310.5 -152zM1296 2072h220
q-18 -108 -82 -191t-165 -130t-229 -47q-189 0 -284 103t-68 265h220q-12 -78 21.5 -137t138.5 -59t160.5 59t67.5 137z" />
    <glyph glyph-name="uni0120" unicode="&#x120;" horiz-adv-x="2092" 
d="M208 1024q52 324 205.5 560t377 364t485.5 128q216 0 378.5 -84.5t254 -235t95.5 -348.5h-256q-30 201 -158 318.5t-350 117.5q-182 0 -346.5 -94t-283 -277t-162.5 -449t14.5 -449t195 -277t326.5 -94q174 0 321 76t245 211t126 313l12 72l64 -72h-616l40 220h780
l-40 -220q-40 -254 -178 -441t-344 -289t-450 -102q-272 0 -456 128t-259 364t-21 560zM1340 2296q-69 0 -118.5 47t-49.5 113t49.5 113t118.5 47t118.5 -47t49.5 -113t-49.5 -113t-118.5 -47z" />
    <glyph glyph-name="uni0121" unicode="&#x121;" horiz-adv-x="1716" 
d="M604 -576q-246 0 -381.5 92.5t-186.5 215.5l212 132q22 -38 63 -92t119 -95t210 -41q118 0 225 40.5t181 124t94 211.5l44 272h-20q-34 -42 -91.5 -103.5t-154 -109t-246.5 -47.5q-186 0 -319 88t-191 256t-18 408q40 236 153 411.5t277 272t358 96.5q150 0 230 -49.5
t117 -112t57 -102.5h24l40 244h228l-256 -1548q-34 -198 -149 -322.5t-278 -183t-341 -58.5zM740 236q213 0 349.5 144.5t178.5 399.5q42 249 -43 406.5t-301 157.5q-150 0 -262.5 -76t-184 -204t-97.5 -284q-39 -240 49.5 -392t310.5 -152zM1080 1784q-69 0 -118.5 47
t-49.5 113t49.5 113t118.5 47t118.5 -47t49.5 -113t-49.5 -113t-118.5 -47z" />
    <glyph glyph-name="uni0122" unicode="&#x122;" horiz-adv-x="2092" 
d="M208 1024q52 324 205.5 560t377 364t485.5 128q216 0 378.5 -84.5t254 -235t95.5 -348.5h-256q-30 201 -158 318.5t-350 117.5q-182 0 -346.5 -94t-283 -277t-162.5 -449t14.5 -449t195 -277t326.5 -94q174 0 321 76t245 211t126 313l12 72l64 -72h-616l40 220h780
l-40 -220q-40 -254 -178 -441t-344 -289t-450 -102q-272 0 -456 128t-259 364t-21 560zM1040 -128l-20 -124q-24 -132 -90 -287.5t-162 -272.5l-196 40q48 80 91 170.5t74 180t43 165.5l20 128h240z" />
    <glyph glyph-name="uni0123" unicode="&#x123;" horiz-adv-x="1716" 
d="M604 -576q-246 0 -381.5 92.5t-186.5 215.5l212 132q22 -38 63 -92t119 -95t210 -41q118 0 225 40.5t181 124t94 211.5l44 272h-20q-34 -42 -91.5 -103.5t-154 -109t-246.5 -47.5q-186 0 -319 88t-191 256t-18 408q40 236 153 411.5t277 272t358 96.5q150 0 230 -49.5
t117 -112t57 -102.5h24l40 244h228l-256 -1548q-34 -198 -149 -322.5t-278 -183t-341 -58.5zM740 236q213 0 349.5 144.5t178.5 399.5q42 249 -43 406.5t-301 157.5q-150 0 -262.5 -76t-184 -204t-97.5 -284q-39 -240 49.5 -392t310.5 -152zM904 1740l32 176q14 84 60 168
t104 153t108 107l136 -124q-63 -84 -92 -156.5t-44 -159.5l-28 -164h-276z" />
    <glyph glyph-name="uni0124" unicode="&#x124;" horiz-adv-x="2084" 
d="M120 0l340 2048h248l-152 -912h1092l152 912h248l-340 -2048h-248l152 916h-1092l-152 -916h-248zM1054 2268h-192l1 16l429 376h136l303 -376l-1 -16h-192l-205 240z" />
    <glyph glyph-name="uni0125" unicode="&#x125;" horiz-adv-x="1664" 
d="M476 924l-152 -924h-236l340 2048h236l-124 -752h20q72 120 192.5 190t303.5 70q156 0 263.5 -62.5t152 -191t12.5 -326.5l-164 -976h-236l160 960q30 183 -48.5 283.5t-243.5 100.5q-174 0 -307 -109.5t-169 -310.5zM338 2264h-192l1 16l429 376h136l303 -376l-1 -16
h-192l-205 240z" />
    <glyph glyph-name="uni0126" unicode="&#x126;" horiz-adv-x="2188" 
d="M2192 1616l-32 -208h-1916l32 208h1916zM172 0l340 2048h248l-152 -912h1092l152 912h248l-340 -2048h-248l152 916h-1092l-152 -916h-248z" />
    <glyph glyph-name="uni0127" unicode="&#x127;" horiz-adv-x="1664" 
d="M476 924l-152 -924h-236l340 2048h236l-124 -752h20q72 120 192.5 190t303.5 70q156 0 263.5 -62.5t152 -191t12.5 -326.5l-164 -976h-236l160 960q30 183 -48.5 283.5t-243.5 100.5q-174 0 -307 -109.5t-169 -310.5zM48 1700l32 184h880l-32 -184h-880z" />
    <glyph glyph-name="uni0128" unicode="&#x128;" horiz-adv-x="744" 
d="M708 2048l-340 -2048h-248l340 2048h248zM304 2232h-184q16 102 70 182.5t131 127t163 46.5q76 0 125.5 -32t98 -64t120.5 -32q57 0 104 44.5t56 107.5h184q-16 -104 -71 -184.5t-133 -126t-164 -45.5q-69 0 -110 19.5t-72 44.5t-66 44.5t-92 19.5t-102.5 -44.5
t-57.5 -107.5z" />
    <glyph glyph-name="uni0129" unicode="&#x129;" horiz-adv-x="784" 
d="M240 1720h-184q16 102 70 182.5t131 127t163 46.5q76 0 125.5 -32t98 -64t120.5 -32q57 0 104 44.5t56 107.5h184q-16 -104 -71 -184.5t-133 -126t-164 -45.5q-69 0 -110 19.5t-72 44.5t-66 44.5t-92 19.5t-102.5 -44.5t-57.5 -107.5zM148 0l256 1536h236l-256 -1536
h-236z" />
    <glyph glyph-name="uni012A" unicode="&#x12a;" horiz-adv-x="744" 
d="M708 2048l-340 -2048h-248l340 2048h248zM1140 2528l-32 -204h-940l32 204h940z" />
    <glyph glyph-name="uni012B" unicode="&#x12b;" horiz-adv-x="668" 
d="M88 0l256 1536h236l-256 -1536h-236zM1024 2020l-32 -204h-940l32 204h940z" />
    <glyph glyph-name="uni012C" unicode="&#x12c;" horiz-adv-x="744" 
d="M708 2048l-340 -2048h-248l340 2048h248zM864 2584h220q-18 -108 -82 -191t-165 -130t-229 -47q-189 0 -284 103t-68 265h220q-12 -78 21.5 -137t138.5 -59t160.5 59t67.5 137z" />
    <glyph glyph-name="uni012D" unicode="&#x12d;" horiz-adv-x="668" 
d="M88 0l256 1536h236l-256 -1536h-236zM748 2076h220q-18 -108 -82 -191t-165 -130t-229 -47q-189 0 -284 103t-68 265h220q-12 -78 21.5 -137t138.5 -59t160.5 59t67.5 137z" />
    <glyph glyph-name="uni012E" unicode="&#x12e;" horiz-adv-x="744" 
d="M708 2048l-340 -2048h-248l340 2048h248zM80 -600q-123 0 -192 67.5t-48 196.5q12 74 61 148t141 143t234 129l92 -84q-99 -66 -182 -140t-98 -164q-9 -45 9.5 -70.5t78.5 -25.5q45 0 80.5 12t59.5 24l-12 -176q-36 -21 -94 -40.5t-130 -19.5z" />
    <glyph glyph-name="uni012F" unicode="&#x12f;" horiz-adv-x="672" 
d="M36 -600q-123 0 -192 67.5t-48 196.5q12 74 61 148t141 143t234 129l92 -84q-99 -66 -182 -140t-98 -164q-9 -45 9.5 -70.5t78.5 -25.5q45 0 80.5 12t59.5 24l-12 -176q-36 -21 -94 -40.5t-130 -19.5zM88 0l256 1536h236l-256 -1536h-236zM532 1788q-69 0 -118.5 47
t-49.5 113t49.5 113t118.5 47t118.5 -47t49.5 -113t-49.5 -113t-118.5 -47z" />
    <glyph glyph-name="uni0130" unicode="&#x130;" horiz-adv-x="744" 
d="M708 2048l-340 -2048h-248l340 2048h248zM648 2296q-69 0 -118.5 47t-49.5 113t49.5 113t118.5 47t118.5 -47t49.5 -113t-49.5 -113t-118.5 -47z" />
    <glyph glyph-name="uni0131" unicode="&#x131;" horiz-adv-x="668" 
d="M88 0l256 1536h236l-256 -1536h-236z" />
    <glyph glyph-name="uni0132" unicode="&#x132;" horiz-adv-x="2304" 
d="M708 2048l-340 -2048h-248l340 2048h248zM1748 592l240 1456h248l-244 -1472q-32 -196 -121.5 -330.5t-228 -204t-318.5 -69.5q-172 0 -296 62t-182 175.5t-34 270.5h236q-19 -136 59.5 -212t220.5 -76q164 0 275.5 104t144.5 296z" />
    <glyph glyph-name="uni0133" unicode="&#x133;" horiz-adv-x="1336" 
d="M88 0l256 1536h236l-256 -1536h-236zM532 1788q-69 0 -118.5 47t-49.5 113t49.5 113t118.5 47t118.5 -47t49.5 -113t-49.5 -113t-118.5 -47zM1012 1536h236l-272 -1648q-24 -142 -90.5 -246t-174 -161t-255.5 -57h-48l36 220h44q108 0 169.5 63.5t82.5 180.5zM1196 1788
q-69 0 -118.5 47t-49.5 113t49.5 113t118.5 47t118.5 -47t49.5 -113t-49.5 -113t-118.5 -47z" />
    <glyph glyph-name="uni0134" unicode="&#x134;" horiz-adv-x="1560" 
d="M1004 592l240 1456h248l-244 -1472q-32 -196 -121.5 -330.5t-228 -204t-318.5 -69.5q-172 0 -296 62t-182 175.5t-34 270.5h236q-19 -136 59.5 -212t220.5 -76q164 0 275.5 104t144.5 296zM1158 2264h-192l1 16l429 376h136l303 -376l-1 -16h-192l-205 240z" />
    <glyph glyph-name="uni0135" unicode="&#x135;" horiz-adv-x="668" 
d="M344 1536h236l-272 -1648q-24 -142 -90.5 -246t-174 -161t-255.5 -57h-48l36 220h44q108 0 169.5 63.5t82.5 180.5zM250 1756h-192l1 16l429 376h136l303 -376l-1 -16h-192l-205 240z" />
    <glyph glyph-name="uni0136" unicode="&#x136;" horiz-adv-x="1836" 
d="M120 0l340 2048h248l-168 -1016h24l1088 1016h324l-1012 -924l672 -1124h-300l-552 952l-304 -288l-112 -664h-248zM932 -128l-20 -124q-24 -132 -90 -287.5t-162 -272.5l-196 40q48 80 91 170.5t74 180t43 165.5l20 128h240z" />
    <glyph glyph-name="uni0137" unicode="&#x137;" horiz-adv-x="1532" 
d="M400 560l44 292h48l788 684h292l-836 -724h-20zM88 0l340 2048h236l-340 -2048h-236zM1064 0l-472 760l192 164l580 -924h-300zM776 -128l-20 -124q-24 -132 -90 -287.5t-162 -272.5l-196 40q48 80 91 170.5t74 180t43 165.5l20 128h240z" />
    <glyph glyph-name="uni0138" unicode="&#x138;" horiz-adv-x="1776" 
d="M636 1488l-248 -1488h-276l248 1488h276zM1612 1488l-884 -860h-328l-4 236h248l636 624h332zM1060 0l-460 668l208 196l600 -864h-348z" />
    <glyph glyph-name="uni0139" unicode="&#x139;" horiz-adv-x="1584" 
d="M120 0l340 2048h248l-304 -1828h952l-36 -220h-1200zM508 2224l312 456h276l-380 -456h-208z" />
    <glyph glyph-name="uni013A" unicode="&#x13a;" horiz-adv-x="668" 
d="M664 2048l-340 -2048h-236l340 2048h236zM464 2224l312 456h276l-380 -456h-208z" />
    <glyph glyph-name="uni013B" unicode="&#x13b;" horiz-adv-x="1584" 
d="M120 0l340 2048h248l-304 -1828h952l-36 -220h-1200zM844 -128l-20 -124q-24 -132 -90 -287.5t-162 -272.5l-196 40q48 80 91 170.5t74 180t43 165.5l20 128h240z" />
    <glyph glyph-name="uni013C" unicode="&#x13c;" horiz-adv-x="668" 
d="M664 2048l-340 -2048h-236l340 2048h236zM320 -128l-20 -124q-24 -132 -90 -287.5t-162 -272.5l-196 40q48 80 91 170.5t74 180t43 165.5l20 128h240z" />
    <glyph glyph-name="uni013D" unicode="&#x13d;" horiz-adv-x="1584" 
d="M120 0l340 2048h248l-304 -1828h952l-36 -220h-1200zM1292 2048l-20 -124q-24 -132 -90 -287.5t-162 -272.5l-196 40q48 80 91 170.5t74 180t43 165.5l20 128h240z" />
    <glyph glyph-name="uni013E" unicode="&#x13e;" horiz-adv-x="832" 
d="M664 2048l-340 -2048h-236l340 2048h236zM1076 2048l-20 -124q-24 -132 -90 -287.5t-162 -272.5l-196 40q48 80 91 170.5t74 180t43 165.5l20 128h240z" />
    <glyph glyph-name="uni013F" unicode="&#x13f;" horiz-adv-x="1584" 
d="M120 0l340 2048h248l-304 -1828h952l-36 -220h-1200zM1044 1004q-69 0 -118.5 47t-49.5 113t49.5 113t118.5 47t118.5 -47t49.5 -113t-49.5 -113t-118.5 -47z" />
    <glyph glyph-name="uni0140" unicode="&#x140;" horiz-adv-x="900" 
d="M664 2048l-340 -2048h-236l340 2048h236zM820 976q-69 0 -118.5 47t-49.5 113t49.5 113t118.5 47t118.5 -47t49.5 -113t-49.5 -113t-118.5 -47z" />
    <glyph glyph-name="uni0141" unicode="&#x141;" horiz-adv-x="1584" 
d="M872 1280v-180l-812 -256v180zM120 0l340 2048h248l-304 -1828h952l-36 -220h-1200z" />
    <glyph glyph-name="uni0142" unicode="&#x142;" horiz-adv-x="668" 
d="M756 1280l-28 -176l-720 -256l32 176zM664 2048l-340 -2048h-236l340 2048h236z" />
    <glyph glyph-name="uni0143" unicode="&#x143;" horiz-adv-x="2120" 
d="M2084 2048l-340 -2048h-240l-848 1608h-20l-268 -1608h-248l340 2048h240l852 -1612h20l268 1612h244zM1192 2224l312 456h276l-380 -456h-208z" />
    <glyph glyph-name="uni0144" unicode="&#x144;" horiz-adv-x="1648" 
d="M476 924l-152 -924h-236l256 1536h228l-40 -240h20q72 117 195 188.5t297 71.5q154 0 260.5 -63.5t151 -192t12.5 -324.5l-164 -976h-236l160 960q30 180 -46.5 282t-241.5 102q-171 0 -299.5 -109.5t-164.5 -310.5zM868 1712l312 456h276l-380 -456h-208z" />
    <glyph glyph-name="uni0145" unicode="&#x145;" horiz-adv-x="2120" 
d="M2084 2048l-340 -2048h-240l-848 1608h-20l-268 -1608h-248l340 2048h240l852 -1612h20l268 1612h244zM1044 -128l-20 -124q-24 -132 -90 -287.5t-162 -272.5l-196 40q48 80 91 170.5t74 180t43 165.5l20 128h240z" />
    <glyph glyph-name="uni0146" unicode="&#x146;" horiz-adv-x="1648" 
d="M476 924l-152 -924h-236l256 1536h228l-40 -240h20q72 117 195 188.5t297 71.5q154 0 260.5 -63.5t151 -192t12.5 -324.5l-164 -976h-236l160 960q30 180 -46.5 282t-241.5 102q-171 0 -299.5 -109.5t-164.5 -310.5zM808 -128l-20 -124q-24 -132 -90 -287.5t-162 -272.5
l-196 40q48 80 91 170.5t74 180t43 165.5l20 128h240z" />
    <glyph glyph-name="uni0147" unicode="&#x147;" horiz-adv-x="2120" 
d="M2084 2048l-340 -2048h-240l-848 1608h-20l-268 -1608h-248l340 2048h240l852 -1612h20l268 1612h244zM1128 2628l200 -240l284 240h192l-4 -16l-428 -376h-136l-304 376l4 16h192z" />
    <glyph glyph-name="uni0148" unicode="&#x148;" horiz-adv-x="1648" 
d="M476 924l-152 -924h-236l256 1536h228l-40 -240h20q72 117 195 188.5t297 71.5q154 0 260.5 -63.5t151 -192t12.5 -324.5l-164 -976h-236l160 960q30 180 -46.5 282t-241.5 102q-171 0 -299.5 -109.5t-164.5 -310.5zM804 2116l200 -240l284 240h192l-4 -16l-428 -376
h-136l-304 376l4 16h192z" />
    <glyph glyph-name="uni014A" unicode="&#x14a;" horiz-adv-x="2120" 
d="M1504 0h240l-32 -164q-25 -131 -95 -223t-169 -140.5t-212 -48.5q-35 0 -71 1.5t-61 10.5l32 204q15 -3 35 -5.5t41 -2.5q96 0 166 44.5t94 163.5zM2084 2048l-340 -2048h-240l-848 1608h-20l-268 -1608h-248l340 2048h240l852 -1612h20l268 1612h244z" />
    <glyph glyph-name="uni014B" unicode="&#x14b;" horiz-adv-x="1648" 
d="M1068 0h236l-28 -164q-34 -198 -167 -305t-301 -107q-36 0 -72 1.5t-60 10.5l32 200q15 -3 35 -5.5t41 -2.5q96 0 166 44.5t90 163.5zM476 924l-152 -924h-236l256 1536h228l-40 -240h20q72 117 195 188.5t297 71.5q154 0 260.5 -63.5t151 -192t12.5 -324.5l-164 -976
h-236l160 960q30 180 -46.5 282t-241.5 102q-171 0 -299.5 -109.5t-164.5 -310.5z" />
    <glyph glyph-name="uni014C" unicode="&#x14c;" horiz-adv-x="2144" 
d="M2016 1008q-54 -320 -207 -552.5t-374 -358t-479 -125.5q-266 0 -452.5 130.5t-266 370t-25.5 567.5q54 320 207 552.5t375 358t482 125.5q264 0 449.5 -130.5t265 -370t25.5 -567.5zM1780 1040q44 262 -13 441t-189 271t-314 92q-190 0 -360 -96.5t-291 -283
t-165 -456.5q-44 -262 13 -441t189 -271t314 -92q190 0 360 96.5t291 283t165 456.5zM1840 2528l-32 -204h-940l32 204h940z" />
    <glyph glyph-name="uni014D" unicode="&#x14d;" horiz-adv-x="1680" 
d="M724 -32q-212 0 -354.5 101t-201.5 283t-20 424q38 236 152 411.5t283 272t373 96.5q212 0 355 -101.5t202 -284t19 -426.5q-38 -234 -152 -408.5t-283 -271t-373 -96.5zM728 180q162 0 282 83t194.5 218.5t99.5 294.5q24 150 -2 279.5t-111 209t-239 79.5
q-162 0 -282 -84t-194 -221t-100 -295q-24 -150 2 -278.5t111 -207t239 -78.5zM1528 2016l-32 -204h-940l32 204h940z" />
    <glyph glyph-name="uni014E" unicode="&#x14e;" horiz-adv-x="2144" 
d="M2016 1008q-54 -320 -207 -552.5t-374 -358t-479 -125.5q-266 0 -452.5 130.5t-266 370t-25.5 567.5q54 320 207 552.5t375 358t482 125.5q264 0 449.5 -130.5t265 -370t25.5 -567.5zM1780 1040q44 262 -13 441t-189 271t-314 92q-190 0 -360 -96.5t-291 -283
t-165 -456.5q-44 -262 13 -441t189 -271t314 -92q190 0 360 96.5t291 283t165 456.5zM1564 2584h220q-18 -108 -82 -191t-165 -130t-229 -47q-189 0 -284 103t-68 265h220q-12 -78 21.5 -137t138.5 -59t160.5 59t67.5 137z" />
    <glyph glyph-name="uni014F" unicode="&#x14f;" horiz-adv-x="1680" 
d="M724 -32q-212 0 -354.5 101t-201.5 283t-20 424q38 236 152 411.5t283 272t373 96.5q212 0 355 -101.5t202 -284t19 -426.5q-38 -234 -152 -408.5t-283 -271t-373 -96.5zM728 180q162 0 282 83t194.5 218.5t99.5 294.5q24 150 -2 279.5t-111 209t-239 79.5
q-162 0 -282 -84t-194 -221t-100 -295q-24 -150 2 -278.5t111 -207t239 -78.5zM1252 2072h220q-18 -108 -82 -191t-165 -130t-229 -47q-189 0 -284 103t-68 265h220q-12 -78 21.5 -137t138.5 -59t160.5 59t67.5 137z" />
    <glyph glyph-name="uni0150" unicode="&#x150;" horiz-adv-x="2144" 
d="M2016 1008q-54 -320 -207 -552.5t-374 -358t-479 -125.5q-266 0 -452.5 130.5t-266 370t-25.5 567.5q54 320 207 552.5t375 358t482 125.5q264 0 449.5 -130.5t265 -370t25.5 -567.5zM1780 1040q44 262 -13 441t-189 271t-314 92q-190 0 -360 -96.5t-291 -283
t-165 -456.5q-44 -262 13 -441t189 -271t314 -92q190 0 360 96.5t291 283t165 456.5zM1368 2216l380 424h264l-436 -424h-208zM956 2216l296 424h260l-368 -424h-188z" />
    <glyph glyph-name="uni0151" unicode="&#x151;" horiz-adv-x="1680" 
d="M724 -32q-212 0 -354.5 101t-201.5 283t-20 424q38 236 152 411.5t283 272t373 96.5q212 0 355 -101.5t202 -284t19 -426.5q-38 -234 -152 -408.5t-283 -271t-373 -96.5zM728 180q162 0 282 83t194.5 218.5t99.5 294.5q24 150 -2 279.5t-111 209t-239 79.5
q-162 0 -282 -84t-194 -221t-100 -295q-24 -150 2 -278.5t111 -207t239 -78.5zM1056 1704l380 424h264l-436 -424h-208zM644 1704l296 424h260l-368 -424h-188z" />
    <glyph glyph-name="uni0152" unicode="&#x152;" horiz-adv-x="2724" 
d="M944 0q-270 0 -452.5 128.5t-258 359t-25.5 536.5q52 308 203.5 538.5t376 358t492.5 127.5h276l-36 -220h-276q-197 0 -362.5 -100t-279 -281t-154.5 -423q-39 -240 14.5 -421t186.5 -282t331 -101h276l-36 -220h-276zM1160 0l340 2048h1236l-36 -220h-988l-116 -692
h924l-36 -220h-924l-116 -696h1004l-36 -220h-1252z" />
    <glyph glyph-name="uni0153" unicode="&#x153;" horiz-adv-x="2788" 
d="M724 -32q-212 0 -354.5 101t-201.5 283t-20 424q38 236 152 411.5t283 272t373 96.5q212 0 355 -101.5t202 -284t19 -426.5q-38 -234 -152 -408.5t-283 -271t-373 -96.5zM728 180q162 0 282 83t194.5 218.5t99.5 294.5q24 150 -2 279.5t-111 209t-239 79.5
q-162 0 -282 -84t-194 -221t-100 -295q-24 -150 2 -278.5t111 -207t239 -78.5zM1884 -32q-222 0 -366 98.5t-201 276t-17 413.5q38 236 154 416.5t289 282t381 101.5q120 0 230.5 -40t191.5 -129.5t113.5 -236.5t-3.5 -362l-16 -100h-1184l32 204h944q33 195 -59.5 323.5
t-284.5 128.5q-133 0 -248.5 -71.5t-192.5 -180.5t-95 -220l-28 -176q-46 -286 63 -401t333 -115q141 0 249.5 60t174.5 180l216 -64q-84 -174 -263 -281t-413 -107z" />
    <glyph glyph-name="uni0154" unicode="&#x154;" horiz-adv-x="1764" 
d="M120 0l340 2048h684q244 0 381.5 -86t184 -229t18.5 -313q-33 -210 -154.5 -353t-313.5 -215l304 -852h-288l-276 796h-596l40 228h504q180 0 291.5 51.5t169 141t75.5 203.5q16 96 -3.5 190t-105 156t-267.5 62h-436l-304 -1828h-248zM1016 2224l312 456h276l-380 -456
h-208z" />
    <glyph glyph-name="uni0155" unicode="&#x155;" horiz-adv-x="1080" 
d="M88 0l256 1536h228l-40 -232h16q60 114 181.5 185t262.5 71q122 0 184 -56l-112 -196q-21 12 -54 18t-78 6q-112 0 -207.5 -47t-159.5 -128t-81 -185l-160 -972h-236zM596 1712l312 456h276l-380 -456h-208z" />
    <glyph glyph-name="uni0156" unicode="&#x156;" horiz-adv-x="1764" 
d="M120 0l340 2048h684q244 0 381.5 -86t184 -229t18.5 -313q-33 -210 -154.5 -353t-313.5 -215l304 -852h-288l-276 796h-596l40 228h504q180 0 291.5 51.5t169 141t75.5 203.5q16 96 -3.5 190t-105 156t-267.5 62h-436l-304 -1828h-248zM900 -128l-20 -124
q-24 -132 -90 -287.5t-162 -272.5l-196 40q48 80 91 170.5t74 180t43 165.5l20 128h240z" />
    <glyph glyph-name="uni0157" unicode="&#x157;" horiz-adv-x="1080" 
d="M88 0l256 1536h228l-40 -232h16q60 114 181.5 185t262.5 71q122 0 184 -56l-112 -196q-21 12 -54 18t-78 6q-112 0 -207.5 -47t-159.5 -128t-81 -185l-160 -972h-236zM316 -128l-20 -124q-24 -132 -90 -287.5t-162 -272.5l-196 40q48 80 91 170.5t74 180t43 165.5l20 128
h240z" />
    <glyph glyph-name="uni0158" unicode="&#x158;" horiz-adv-x="1764" 
d="M120 0l340 2048h684q244 0 381.5 -86t184 -229t18.5 -313q-33 -210 -154.5 -353t-313.5 -215l304 -852h-288l-276 796h-596l40 228h504q180 0 291.5 51.5t169 141t75.5 203.5q16 96 -3.5 190t-105 156t-267.5 62h-436l-304 -1828h-248zM952 2628l200 -240l284 240h192
l-4 -16l-428 -376h-136l-304 376l4 16h192z" />
    <glyph glyph-name="uni0159" unicode="&#x159;" horiz-adv-x="1080" 
d="M88 0l256 1536h228l-40 -232h16q60 114 181.5 185t262.5 71q122 0 184 -56l-112 -196q-21 12 -54 18t-78 6q-112 0 -207.5 -47t-159.5 -128t-81 -185l-160 -972h-236zM532 2116l200 -240l284 240h192l-4 -16l-428 -376h-136l-304 376l4 16h192z" />
    <glyph glyph-name="uni015A" unicode="&#x15a;" horiz-adv-x="1796" 
d="M1492 1520q0 165 -109 250.5t-295 85.5q-204 0 -344 -96.5t-164 -243.5q-13 -82 17 -140.5t85.5 -97t119.5 -63t118 -39.5l200 -56q75 -21 167 -58t172 -100.5t122.5 -162.5t18.5 -243q-28 -166 -136.5 -300t-286 -213t-413.5 -79q-220 0 -369.5 71t-220 198t-54.5 295
h256q-10 -116 46 -191.5t156 -112t222 -36.5q142 0 262.5 46.5t200 130t97.5 195.5q18 102 -28 166t-133 104t-191 70l-240 72q-228 69 -346.5 197t-85.5 335q30 172 145 300.5t285 200t366 71.5q198 0 339 -71.5t210 -197t51 -287.5h-240zM1028 2224l312 456h276l-380 -456
h-208z" />
    <glyph glyph-name="uni015B" unicode="&#x15b;" horiz-adv-x="1472" 
d="M1376 1192l-224 -60q-12 54 -41.5 104.5t-90 83t-164.5 32.5q-141 0 -245 -64.5t-119 -163.5q-15 -87 40 -139t184 -85l220 -56q392 -101 340 -416q-22 -132 -115 -236t-238 -164t-323 -60q-237 0 -374 102.5t-146 297.5l236 56q9 -123 88.5 -185.5t223.5 -62.5
q165 0 275 70.5t125 169.5q15 81 -31.5 135t-160.5 81l-244 60q-204 51 -285.5 156t-54.5 264q22 130 112.5 230t228 157t299.5 57q228 0 341 -99.5t143 -264.5zM804 1712l312 456h276l-380 -456h-208z" />
    <glyph glyph-name="uni015C" unicode="&#x15c;" horiz-adv-x="1796" 
d="M1492 1520q0 165 -109 250.5t-295 85.5q-204 0 -344 -96.5t-164 -243.5q-13 -82 17 -140.5t85.5 -97t119.5 -63t118 -39.5l200 -56q75 -21 167 -58t172 -100.5t122.5 -162.5t18.5 -243q-28 -166 -136.5 -300t-286 -213t-413.5 -79q-220 0 -369.5 71t-220 198t-54.5 295
h256q-10 -116 46 -191.5t156 -112t222 -36.5q142 0 262.5 46.5t200 130t97.5 195.5q18 102 -28 166t-133 104t-191 70l-240 72q-228 69 -346.5 197t-85.5 335q30 172 145 300.5t285 200t366 71.5q198 0 339 -71.5t210 -197t51 -287.5h-240zM898 2264h-192l1 16l429 376h136
l303 -376l-1 -16h-192l-205 240z" />
    <glyph glyph-name="uni015D" unicode="&#x15d;" horiz-adv-x="1472" 
d="M1376 1192l-224 -60q-12 54 -41.5 104.5t-90 83t-164.5 32.5q-141 0 -245 -64.5t-119 -163.5q-15 -87 40 -139t184 -85l220 -56q392 -101 340 -416q-22 -132 -115 -236t-238 -164t-323 -60q-237 0 -374 102.5t-146 297.5l236 56q9 -123 88.5 -185.5t223.5 -62.5
q165 0 275 70.5t125 169.5q15 81 -31.5 135t-160.5 81l-244 60q-204 51 -285.5 156t-54.5 264q22 130 112.5 230t228 157t299.5 57q228 0 341 -99.5t143 -264.5zM674 1752h-192l1 16l429 376h136l303 -376l-1 -16h-192l-205 240z" />
    <glyph glyph-name="uni015E" unicode="&#x15e;" horiz-adv-x="1796" 
d="M1492 1520q0 165 -109 250.5t-295 85.5q-204 0 -344 -96.5t-164 -243.5q-13 -82 17 -140.5t85.5 -97t119.5 -63t118 -39.5l200 -56q75 -21 167 -58t172 -100.5t122.5 -162.5t18.5 -243q-28 -166 -136.5 -300t-286 -213t-413.5 -79q-220 0 -369.5 71t-220 198t-54.5 295
h256q-10 -116 46 -191.5t156 -112t222 -36.5q142 0 262.5 46.5t200 130t97.5 195.5q18 102 -28 166t-133 104t-191 70l-240 72q-228 69 -346.5 197t-85.5 335q30 172 145 300.5t285 200t366 71.5q198 0 339 -71.5t210 -197t51 -287.5h-240zM676 8h196l-32 -80
q78 -12 133.5 -65.5t34.5 -170.5q-21 -129 -141 -210.5t-327 -81.5l20 156q93 0 158.5 29.5t77.5 98.5t-35 94t-161 34z" />
    <glyph glyph-name="uni015F" unicode="&#x15f;" horiz-adv-x="1472" 
d="M1376 1192l-224 -60q-12 54 -41.5 104.5t-90 83t-164.5 32.5q-141 0 -245 -64.5t-119 -163.5q-15 -87 40 -139t184 -85l220 -56q392 -101 340 -416q-22 -132 -115 -236t-238 -164t-323 -60q-237 0 -374 102.5t-146 297.5l236 56q9 -123 88.5 -185.5t223.5 -62.5
q165 0 275 70.5t125 169.5q15 81 -31.5 135t-160.5 81l-244 60q-204 51 -285.5 156t-54.5 264q22 130 112.5 230t228 157t299.5 57q228 0 341 -99.5t143 -264.5zM528 8h196l-32 -80q78 -12 133.5 -65.5t34.5 -170.5q-21 -129 -141 -210.5t-327 -81.5l20 156q93 0 158.5 29.5
t77.5 98.5t-35 94t-161 34z" />
    <glyph glyph-name="uni0160" unicode="&#x160;" horiz-adv-x="1796" 
d="M1492 1520q0 165 -109 250.5t-295 85.5q-204 0 -344 -96.5t-164 -243.5q-13 -82 17 -140.5t85.5 -97t119.5 -63t118 -39.5l200 -56q75 -21 167 -58t172 -100.5t122.5 -162.5t18.5 -243q-28 -166 -136.5 -300t-286 -213t-413.5 -79q-220 0 -369.5 71t-220 198t-54.5 295
h256q-10 -116 46 -191.5t156 -112t222 -36.5q142 0 262.5 46.5t200 130t97.5 195.5q18 102 -28 166t-133 104t-191 70l-240 72q-228 69 -346.5 197t-85.5 335q30 172 145 300.5t285 200t366 71.5q198 0 339 -71.5t210 -197t51 -287.5h-240zM964 2628l200 -240l284 240h192
l-4 -16l-428 -376h-136l-304 376l4 16h192z" />
    <glyph glyph-name="uni0161" unicode="&#x161;" horiz-adv-x="1472" 
d="M1376 1192l-224 -60q-12 54 -41.5 104.5t-90 83t-164.5 32.5q-141 0 -245 -64.5t-119 -163.5q-15 -87 40 -139t184 -85l220 -56q392 -101 340 -416q-22 -132 -115 -236t-238 -164t-323 -60q-237 0 -374 102.5t-146 297.5l236 56q9 -123 88.5 -185.5t223.5 -62.5
q165 0 275 70.5t125 169.5q15 81 -31.5 135t-160.5 81l-244 60q-204 51 -285.5 156t-54.5 264q22 130 112.5 230t228 157t299.5 57q228 0 341 -99.5t143 -264.5zM740 2116l200 -240l284 240h192l-4 -16l-428 -376h-136l-304 376l4 16h192z" />
    <glyph glyph-name="uni0162" unicode="&#x162;" horiz-adv-x="1808" 
d="M312 1828l36 220h1536l-36 -220h-644l-304 -1828h-248l304 1828h-644zM704 8h196l-32 -80q78 -12 133.5 -65.5t34.5 -170.5q-21 -129 -141 -210.5t-327 -81.5l20 156q93 0 158.5 29.5t77.5 98.5t-35 94t-161 34z" />
    <glyph glyph-name="uni0163" unicode="&#x163;" horiz-adv-x="1040" 
d="M1012 1536l-32 -200h-796l32 200h796zM508 1904h236l-244 -1464q-16 -100 5.5 -149.5t66 -66t96.5 -16.5q39 0 64 4.5t40 7.5l16 -212q-27 -9 -72.5 -18.5t-111.5 -9.5q-100 0 -188 43t-135 131t-25 222zM460 8h196l-32 -80q78 -12 133.5 -65.5t34.5 -170.5
q-21 -129 -141 -210.5t-327 -81.5l20 156q93 0 158.5 29.5t77.5 98.5t-35 94t-161 34z" />
    <glyph glyph-name="uni0164" unicode="&#x164;" horiz-adv-x="1808" 
d="M312 1828l36 220h1536l-36 -220h-644l-304 -1828h-248l304 1828h-644zM972 2628l200 -240l284 240h192l-4 -16l-428 -376h-136l-304 376l4 16h192z" />
    <glyph glyph-name="uni0165" unicode="&#x165;" horiz-adv-x="1000" 
d="M1012 1536l-32 -200h-796l32 200h796zM508 1904h236l-244 -1464q-16 -100 5.5 -149.5t66 -66t96.5 -16.5q39 0 64 4.5t40 7.5l16 -212q-27 -9 -72.5 -18.5t-111.5 -9.5q-100 0 -188 43t-135 131t-25 222zM1220 2304l-20 -124q-24 -132 -90 -287.5t-162 -272.5l-196 40
q48 80 91 170.5t74 180t43 165.5l20 128h240z" />
    <glyph glyph-name="uni0166" unicode="&#x166;" horiz-adv-x="1808" 
d="M312 1828l36 220h1536l-36 -220h-644l-304 -1828h-248l304 1828h-644zM496 964l32 184h880l-32 -184h-880z" />
    <glyph glyph-name="uni0167" unicode="&#x167;" horiz-adv-x="1040" 
d="M104 840l32 184h796l-32 -184h-796zM1012 1536l-32 -200h-796l32 200h796zM508 1904h236l-244 -1464q-16 -100 5.5 -149.5t66 -66t96.5 -16.5q39 0 64 4.5t40 7.5l16 -212q-27 -9 -72.5 -18.5t-111.5 -9.5q-100 0 -188 43t-135 131t-25 222z" />
    <glyph glyph-name="uni0168" unicode="&#x168;" horiz-adv-x="2088" 
d="M1804 2048h248l-224 -1356q-39 -230 -175 -393t-331 -249t-410 -86q-217 0 -384 86t-249 249t-43 393l224 1356h248l-224 -1356q-27 -160 30 -270.5t172 -168t262 -57.5q145 0 279.5 57.5t230 168t122.5 270.5zM980 2232h-184q16 102 70 182.5t131 127t163 46.5
q76 0 125.5 -32t98 -64t120.5 -32q57 0 104 44.5t56 107.5h184q-16 -104 -71 -184.5t-133 -126t-164 -45.5q-69 0 -110 19.5t-72 44.5t-66 44.5t-92 19.5t-102.5 -44.5t-57.5 -107.5z" />
    <glyph glyph-name="uni0169" unicode="&#x169;" horiz-adv-x="1636" 
d="M612 1720h-184q16 102 70 182.5t131 127t163 46.5q76 0 125.5 -32t98 -64t120.5 -32q57 0 104 44.5t56 107.5h184q-16 -104 -71 -184.5t-133 -126t-164 -45.5q-69 0 -110 19.5t-72 44.5t-66 44.5t-92 19.5t-102.5 -44.5t-57.5 -107.5zM1160 628l152 908h236l-256 -1536
h-236l44 260h-16q-72 -117 -201 -198.5t-303 -81.5q-144 0 -245.5 63.5t-144 192t-10.5 324.5l164 976h236l-160 -960q-27 -168 51 -268t225 -100q88 0 186.5 45t176 138t101.5 237z" />
    <glyph glyph-name="uni016A" unicode="&#x16a;" horiz-adv-x="2088" 
d="M1804 2048h248l-224 -1356q-39 -230 -175 -393t-331 -249t-410 -86q-217 0 -384 86t-249 249t-43 393l224 1356h248l-224 -1356q-27 -160 30 -270.5t172 -168t262 -57.5q145 0 279.5 57.5t230 168t122.5 270.5zM1816 2528l-32 -204h-940l32 204h940z" />
    <glyph glyph-name="uni016B" unicode="&#x16b;" horiz-adv-x="1636" 
d="M1160 628l152 908h236l-256 -1536h-236l44 260h-16q-72 -117 -201 -198.5t-303 -81.5q-144 0 -245.5 63.5t-144 192t-10.5 324.5l164 976h236l-160 -960q-27 -168 51 -268t225 -100q88 0 186.5 45t176 138t101.5 237zM1504 2016l-32 -204h-940l32 204h940z" />
    <glyph glyph-name="uni016C" unicode="&#x16c;" horiz-adv-x="2088" 
d="M1804 2048h248l-224 -1356q-39 -230 -175 -393t-331 -249t-410 -86q-217 0 -384 86t-249 249t-43 393l224 1356h248l-224 -1356q-27 -160 30 -270.5t172 -168t262 -57.5q145 0 279.5 57.5t230 168t122.5 270.5zM1540 2584h220q-18 -108 -82 -191t-165 -130t-229 -47
q-189 0 -284 103t-68 265h220q-12 -78 21.5 -137t138.5 -59t160.5 59t67.5 137z" />
    <glyph glyph-name="uni016D" unicode="&#x16d;" horiz-adv-x="1636" 
d="M1160 628l152 908h236l-256 -1536h-236l44 260h-16q-72 -117 -201 -198.5t-303 -81.5q-144 0 -245.5 63.5t-144 192t-10.5 324.5l164 976h236l-160 -960q-27 -168 51 -268t225 -100q88 0 186.5 45t176 138t101.5 237zM1228 2072h220q-18 -108 -82 -191t-165 -130
t-229 -47q-189 0 -284 103t-68 265h220q-12 -78 21.5 -137t138.5 -59t160.5 59t67.5 137z" />
    <glyph glyph-name="uni016E" unicode="&#x16e;" horiz-adv-x="2088" 
d="M1804 2048h248l-224 -1356q-39 -230 -175 -393t-331 -249t-410 -86q-217 0 -384 86t-249 249t-43 393l224 1356h248l-224 -1356q-27 -160 30 -270.5t172 -168t262 -57.5q145 0 279.5 57.5t230 168t122.5 270.5zM980 2576q16 96 78 176t153 128t193 48t175 -48t107 -128
t18 -176t-76 -173t-149 -122t-191 -45q-153 0 -242.5 98t-65.5 242zM1152 2576q-12 -72 32 -130t128 -58t148 58t76 130q12 75 -32 135.5t-128 60.5t-148 -60.5t-76 -135.5z" />
    <glyph glyph-name="uni016F" unicode="&#x16f;" horiz-adv-x="1636" 
d="M1160 628l152 908h236l-256 -1536h-236l44 260h-16q-72 -117 -201 -198.5t-303 -81.5q-144 0 -245.5 63.5t-144 192t-10.5 324.5l164 976h236l-160 -960q-27 -168 51 -268t225 -100q88 0 186.5 45t176 138t101.5 237zM668 2064q16 96 78 176t153 128t193 48t175 -48
t107 -128t18 -176t-76 -173t-149 -122t-191 -45q-153 0 -242.5 98t-65.5 242zM840 2064q-12 -72 32 -130t128 -58t148 58t76 130q12 75 -32 135.5t-128 60.5t-148 -60.5t-76 -135.5z" />
    <glyph glyph-name="uni0170" unicode="&#x170;" horiz-adv-x="2088" 
d="M1804 2048h248l-224 -1356q-39 -230 -175 -393t-331 -249t-410 -86q-217 0 -384 86t-249 249t-43 393l224 1356h248l-224 -1356q-27 -160 30 -270.5t172 -168t262 -57.5q145 0 279.5 57.5t230 168t122.5 270.5zM1344 2216l380 424h264l-436 -424h-208zM932 2216l296 424
h260l-368 -424h-188z" />
    <glyph glyph-name="uni0171" unicode="&#x171;" horiz-adv-x="1636" 
d="M1160 628l152 908h236l-256 -1536h-236l44 260h-16q-72 -117 -201 -198.5t-303 -81.5q-144 0 -245.5 63.5t-144 192t-10.5 324.5l164 976h236l-160 -960q-27 -168 51 -268t225 -100q88 0 186.5 45t176 138t101.5 237zM1032 1704l380 424h264l-436 -424h-208zM620 1704
l296 424h260l-368 -424h-188z" />
    <glyph glyph-name="uni0172" unicode="&#x172;" horiz-adv-x="2088" 
d="M1804 2048h248l-224 -1356q-39 -230 -175 -393t-331 -249t-410 -86q-217 0 -384 86t-249 249t-43 393l224 1356h248l-224 -1356q-27 -160 30 -270.5t172 -168t262 -57.5q145 0 279.5 57.5t230 168t122.5 270.5zM824 -596q-123 0 -192 67.5t-48 196.5q12 74 61 148
t141 143t234 129l92 -84q-99 -66 -182 -140t-98 -164q-9 -45 9.5 -70.5t78.5 -25.5q45 0 80.5 12t59.5 24l-12 -176q-36 -21 -94 -40.5t-130 -19.5z" />
    <glyph glyph-name="uni0173" unicode="&#x173;" horiz-adv-x="1636" 
d="M1160 628l152 908h236l-256 -1536h-236l44 260h-16q-72 -117 -201 -198.5t-303 -81.5q-144 0 -245.5 63.5t-144 192t-10.5 324.5l164 976h236l-160 -960q-27 -168 51 -268t225 -100q88 0 186.5 45t176 138t101.5 237zM1004 -600q-123 0 -192 67.5t-48 196.5q12 74 61 148
t141 143t234 129l92 -84q-99 -66 -182 -140t-98 -164q-9 -45 9.5 -70.5t78.5 -25.5q45 0 80.5 12t59.5 24l-12 -176q-36 -21 -94 -40.5t-130 -19.5z" />
    <glyph glyph-name="uni0174" unicode="&#x174;" horiz-adv-x="2672" 
d="M492 0l-220 2048h252l152 -1668h20l712 1668h280l160 -1668h20l704 1668h252l-900 -2048h-256l-180 1632h-16l-724 -1632h-256zM1338 2264h-192l1 16l429 376h136l303 -376l-1 -16h-192l-205 240z" />
    <glyph glyph-name="uni0175" unicode="&#x175;" horiz-adv-x="2288" 
d="M436 0l-212 1536h248l136 -1176h16l524 1176h252l128 -1172h16l528 1172h248l-724 -1536h-232l-140 1180h-24l-532 -1180h-232zM1058 1752h-192l1 16l429 376h136l303 -376l-1 -16h-192l-205 240z" />
    <glyph glyph-name="uni0176" unicode="&#x176;" horiz-adv-x="1880" 
d="M288 2048h284l412 -956h24l724 956h284l-940 -1204l-140 -844h-248l140 844zM942 2264h-192l1 16l429 376h136l303 -376l-1 -16h-192l-205 240z" />
    <glyph glyph-name="uni0177" unicode="&#x177;" horiz-adv-x="1568" 
d="M136 -596q-60 0 -106.5 9.5t-61.5 18.5l92 208q82 -22 148.5 -15.5t127 58t124.5 165.5l76 140l-312 1548h256l220 -1224h16l628 1224h256l-956 -1784q-64 -118 -140.5 -195t-168 -115t-199.5 -38zM694 1752h-192l1 16l429 376h136l303 -376l-1 -16h-192l-205 240z" />
    <glyph glyph-name="uni0178" unicode="&#x178;" horiz-adv-x="1880" 
d="M288 2048h284l412 -956h24l724 956h284l-940 -1204l-140 -844h-248l140 844zM936 2296q-67 0 -115 47t-49 113q1 66 49 113t115 47q66 0 113.5 -47t46.5 -113q1 -66 -46.5 -113t-113.5 -47zM1508 2296q-67 0 -115 47t-49 113q1 65 49 112.5t115 47.5q66 0 113.5 -47
t46.5 -113q1 -66 -46.5 -113t-113.5 -47z" />
    <glyph glyph-name="uni0179" unicode="&#x179;" horiz-adv-x="1760" 
d="M52 0l32 180l1376 1648h-1116l36 220h1412l-28 -180l-1380 -1648h1116l-36 -220h-1412zM1032 2224l312 456h276l-380 -456h-208z" />
    <glyph glyph-name="uni017A" unicode="&#x17a;" horiz-adv-x="1524" 
d="M44 0l32 180l1044 1120l4 16h-872l36 220h1188l-32 -188l-1020 -1112l-4 -16h852l-36 -220h-1192zM804 1712l312 456h276l-380 -456h-208z" />
    <glyph glyph-name="uni017B" unicode="&#x17b;" horiz-adv-x="1760" 
d="M52 0l32 180l1376 1648h-1116l36 220h1412l-28 -180l-1380 -1648h1116l-36 -220h-1412zM1180 2296q-69 0 -118.5 47t-49.5 113t49.5 113t118.5 47t118.5 -47t49.5 -113t-49.5 -113t-118.5 -47z" />
    <glyph glyph-name="uni017C" unicode="&#x17c;" horiz-adv-x="1524" 
d="M44 0l32 180l1044 1120l4 16h-872l36 220h1188l-32 -188l-1020 -1112l-4 -16h852l-36 -220h-1192zM952 1784q-69 0 -118.5 47t-49.5 113t49.5 113t118.5 47t118.5 -47t49.5 -113t-49.5 -113t-118.5 -47z" />
    <glyph glyph-name="uni017D" unicode="&#x17d;" horiz-adv-x="1760" 
d="M52 0l32 180l1376 1648h-1116l36 220h1412l-28 -180l-1380 -1648h1116l-36 -220h-1412zM968 2628l200 -240l284 240h192l-4 -16l-428 -376h-136l-304 376l4 16h192z" />
    <glyph glyph-name="uni017E" unicode="&#x17e;" horiz-adv-x="1524" 
d="M44 0l32 180l1044 1120l4 16h-872l36 220h1188l-32 -188l-1020 -1112l-4 -16h852l-36 -220h-1192zM740 2116l200 -240l284 240h192l-4 -16l-428 -376h-136l-304 376l4 16h192z" />
    <glyph glyph-name="uni017F" unicode="&#x17f;" horiz-adv-x="752" 
d="M188 0h-276l272 1640q39 243 188.5 371.5t371.5 128.5q48 0 96 -8t96 -20l-68 -204q-21 6 -50.5 9t-65.5 3q-120 0 -195.5 -74t-96.5 -206z" />
    <glyph glyph-name="uni0180" unicode="&#x180;" horiz-adv-x="1716" 
d="M88 0l340 2048h236l-124 -756h20q32 40 89 102.5t153 112t246 49.5q194 0 325.5 -97t185 -275t13.5 -420q-40 -244 -152.5 -422.5t-276 -276t-355.5 -97.5q-148 0 -228.5 49.5t-118 113t-57.5 105.5h-28l-40 -236h-228zM448 768q-42 -261 44.5 -424.5t299.5 -163.5
q148 0 260 78.5t184 212t100 297.5q26 162 -1.5 292.5t-114 207t-236.5 76.5q-216 0 -355 -159t-181 -417zM44 1668l32 184h880l-32 -184h-880z" />
    <glyph glyph-name="uni0181" unicode="&#x181;" horiz-adv-x="2260" 
d="M920 1828h-196q-79 0 -123.5 -35.5t-65.5 -92t-31 -120.5l-12 -76h-232l20 136q17 113 79.5 205.5t163.5 147.5t233 55h200zM548 0l340 2048h716q214 0 341 -73.5t174 -197t21 -273.5q-33 -198 -149 -295t-251 -133l-4 -20q92 -6 177 -66t131 -172t20 -274
q-26 -154 -117 -277t-254 -195t-405 -72h-740zM832 220h492q243 0 361.5 94.5t142.5 229.5q16 104 -22.5 192.5t-127 142t-222.5 53.5h-504zM988 1148h460q112 0 210 44t164 124t82 188q24 135 -54 229.5t-282 94.5h-468z" />
    <glyph glyph-name="uni0182" unicode="&#x182;" horiz-adv-x="1840" 
d="M120 0l340 2048h1236l-36 -220h-988l-108 -640h520q221 0 361 -72t196.5 -203t26.5 -309q-29 -178 -129.5 -314t-265 -213t-385.5 -77h-768zM404 216h520q141 0 247.5 56.5t171.5 146t81 189.5q26 147 -69.5 253.5t-306.5 106.5h-520z" />
    <glyph glyph-name="uni0183" unicode="&#x183;" horiz-adv-x="1716" 
d="M1612 2048l-36 -220h-952l40 220h948zM88 0l340 2048h236l-124 -756h20q32 40 89 102.5t153 112t246 49.5q194 0 325.5 -97t185 -275t13.5 -420q-40 -244 -152.5 -422.5t-276 -276t-355.5 -97.5q-148 0 -228.5 49.5t-118 113t-57.5 105.5h-28l-40 -236h-228zM448 768
q-42 -261 44.5 -424.5t299.5 -163.5q148 0 260 78.5t184 212t100 297.5q26 162 -1.5 292.5t-114 207t-236.5 76.5q-216 0 -355 -159t-181 -417z" />
    <glyph glyph-name="uni0184" unicode="&#x184;" horiz-adv-x="2012" 
d="M968 2048l-36 -220h-728l36 220h728zM760 1188h584q220 0 360 -72t197 -203t27 -309t-131 -314t-265 -213t-384 -77h-768l340 2048h248l-304 -1832h520q140 0 246.5 56.5t172 146t81.5 189.5q24 147 -71 253.5t-305 106.5h-584z" />
    <glyph glyph-name="uni0185" unicode="&#x185;" horiz-adv-x="1776" 
d="M552 2112h64l-112 -672h-64l-180 280l20 112zM576 1292h116q32 40 89 102.5t153 112t246 49.5q194 0 325.5 -97t185 -275t13.5 -420q-40 -244 -152.5 -422.5t-276 -276t-355.5 -97.5q-148 0 -228.5 49.5t-118 113t-57.5 105.5h-116zM1468 768q26 162 -1.5 292.5t-114 207
t-236.5 76.5q-144 0 -254.5 -72.5t-182 -202t-99.5 -301.5q-28 -174 1 -306.5t115 -207t228 -74.5q148 0 260 78.5t184 212t100 297.5zM560 2048h236l-144 -876l-144 -388l-12 -496l-48 -288h-228z" />
    <glyph glyph-name="uni0186" unicode="&#x186;" horiz-adv-x="2048" 
d="M844 -28q-154 0 -284 45t-225 131.5t-148 210.5t-55 281h248q6 -142 75 -239t181 -147t248 -50q186 0 352 94t285 277t163 449t-14 449t-193 277t-321 94q-136 0 -265 -50t-231 -147t-156 -239h-248q74 210 216 359.5t328 229t392 79.5q262 0 445 -128t261 -364t26 -560
q-54 -324 -210.5 -560t-382 -364t-487.5 -128z" />
    <glyph glyph-name="uni0187" unicode="&#x187;" horiz-adv-x="2172" 
d="M2000 1408h-236l44 256q23 132 91 224t166.5 140t210.5 48q35 0 71 -1.5t61 -10.5l-32 -200q-14 3 -33.5 5.5t-42.5 2.5q-63 0 -116 -18.5t-89.5 -64t-50.5 -125.5zM2000 1408h-244q-6 142 -73.5 239t-177 147t-241.5 50q-190 0 -360 -96.5t-291 -283t-165 -456.5
q-44 -262 13 -441t189 -271t314 -92q140 0 272 50t235 147t157 239h248q-55 -157 -148.5 -281t-215.5 -210.5t-263 -131.5t-293 -45q-266 0 -452.5 130.5t-266 370t-25.5 567.5q54 320 207 552.5t375 358t482 125.5q208 0 370 -79.5t256 -229t98 -359.5z" />
    <glyph glyph-name="uni0188" unicode="&#x188;" horiz-adv-x="1720" 
d="M1496 1076h-236l36 200q23 131 91.5 223.5t166.5 140.5t210 48q35 0 71 -1.5t61 -10.5l-32 -200q-15 3 -34.5 5.5t-41.5 2.5q-95 0 -164.5 -44.5t-91.5 -163.5zM708 -32q-217 0 -355.5 102t-192.5 281t-16 409q38 234 154 413.5t289 281t381 101.5q242 0 387.5 -132
t140.5 -348h-236q-10 105 -89.5 186.5t-234.5 81.5q-138 0 -254 -71.5t-195 -201t-107 -303.5q-46 -267 53.5 -427.5t310.5 -160.5q137 0 247 71t165 197h236q-44 -136 -141 -244.5t-235 -172t-308 -63.5z" />
    <glyph glyph-name="uni0189" unicode="&#x189;" horiz-adv-x="2024" 
d="M760 0h-500l36 220h472q254 0 438.5 100t298 285t155.5 439q42 244 -7.5 419.5t-193 270t-383.5 94.5h-524l36 220h524q298 0 491.5 -125t270 -357t22.5 -554q-52 -316 -201.5 -542.5t-386 -348t-548.5 -121.5zM708 2048l-340 -2048h-248l340 2048h248zM12 964l32 184
h880l-32 -184h-880z" />
    <glyph glyph-name="uni018A" unicode="&#x18a;" horiz-adv-x="2340" 
d="M792 1828h-196q-119 0 -162 -76t-58 -172l-12 -76h-232l20 136q17 113 79.5 205.5t163.5 147.5t233 55h200zM1076 0h-500l36 220h472q254 0 438.5 100t298 285t155.5 439q42 244 -7.5 419.5t-193 270t-383.5 94.5h-524l36 220h524q298 0 491.5 -125t270 -357t22.5 -554
q-52 -316 -201.5 -542.5t-386 -348t-548.5 -121.5zM1024 2048l-340 -2048h-248l340 2048h248z" />
    <glyph glyph-name="uni018B" unicode="&#x18b;" horiz-adv-x="1776" 
d="M1484 0h-764q-220 0 -360 77t-197 213t-27 314t132 311t267 207t385 74h480l96 576h-948l36 232h1232zM1240 228l120 736h-480q-213 0 -322.5 -104.5t-133.5 -251.5q-16 -100 10 -186.5t105 -140t221 -53.5h480z" />
    <glyph glyph-name="uni018C" unicode="&#x18c;" horiz-adv-x="1716" 
d="M1372 0h-228l38 236h-28q-34 -42 -92.5 -105.5t-155.5 -113t-245 -49.5q-192 0 -323 97.5t-184.5 276t-12.5 422.5q40 242 152.5 420t276 275t357.5 97q150 0 230 -49.5t116 -112t55 -102.5h20l126 756h236zM1266 768q44 258 -42.5 417t-302.5 159q-150 0 -261.5 -76.5
t-182.5 -207t-99 -292.5q-26 -164 2 -297.5t114 -212t234 -78.5q213 0 353.5 163.5t184.5 424.5zM526 2048h948l-33 -220h-952z" />
    <glyph glyph-name="uni018D" unicode="&#x18d;" horiz-adv-x="1520" 
d="M1024 -516h-976l36 212h608q-14 22 -54 69t-88 99t-86 88q-126 128 -218.5 253.5t-134 260t-15.5 290.5l4 28q34 208 139.5 373.5t270 262t374.5 96.5t343.5 -96.5t186 -262t18.5 -373.5l-4 -28q-28 -164 -124.5 -303.5t-250 -232t-353.5 -116.5q-24 -3 -30.5 -3.5
t-21.5 -0.5q51 -55 105 -111.5t107.5 -113t102.5 -113.5t89 -114zM1152 756l4 28q22 138 0.5 254.5t-96 187t-212.5 70.5q-136 0 -234.5 -70.5t-159 -187t-82.5 -254.5l-4 -28q-27 -162 28.5 -283.5t139.5 -184.5q27 -9 53.5 -12.5t62.5 -3.5q144 0 248 67.5t167 178
t85 238.5z" />
    <glyph glyph-name="uni018E" unicode="&#x18e;" horiz-adv-x="1668" 
d="M1556 2048l-340 -2048h-1236l36 220h988l116 692h-924l36 220h924l116 696h-1004l36 220h1252z" />
    <glyph glyph-name="uni018F" unicode="&#x18f;" horiz-adv-x="2032" 
d="M884 -28q-274 0 -439.5 112.5t-224 319t-12.5 488.5l28 172h1484l-36 -216h-1200l-8 -44q-26 -168 3 -304t135 -216t310 -80q174 0 311.5 99t228 266t124.5 371l20 116q34 206 -1.5 374t-156 267t-342.5 99q-177 0 -302 -35.5t-206 -68.5l-32 208q23 14 71 35.5t121 44
t169.5 37.5t214.5 15q294 0 477.5 -125t253 -345t21.5 -506l-20 -116q-36 -214 -130 -391.5t-229.5 -307t-297.5 -199.5t-335 -70z" />
    <glyph glyph-name="uni0190" unicode="&#x190;" horiz-adv-x="1776" 
d="M1144 960h-232q-200 0 -344 59t-213 171t-43 270q30 186 139.5 313.5t280 193t384.5 65.5q184 0 327 -67t215 -191t42 -294h-284q24 141 -70.5 230.5t-265.5 89.5q-225 0 -342.5 -97.5t-141.5 -238.5q-24 -144 53 -236t299 -92h224zM932 1080h232l-28 -172h-224
q-216 0 -341 -84.5t-155 -267.5q-30 -180 78 -268t318 -88q195 0 325.5 104.5t154.5 251.5h284q-25 -153 -104 -263.5t-192.5 -181.5t-244 -105t-259.5 -34q-210 0 -368.5 59.5t-236 189t-43.5 339.5q42 252 255 386t549 134z" />
    <glyph glyph-name="uni0191" unicode="&#x191;" horiz-adv-x="1652" 
d="M120 0h248l-28 -164q-17 -100 -60 -176.5t-109.5 -129t-154 -79.5t-192.5 -27q-18 0 -40 1.5t-52 10.5l32 204q15 -3 36 -5.5t48 -2.5q87 0 158 42t90 166zM120 0l340 2048h1228l-36 -220h-980l-116 -692h888l-36 -220h-888l-152 -916h-248z" />
    <glyph glyph-name="uni0192" unicode="&#x192;" horiz-adv-x="1088" 
d="M1032 1488l-36 -204h-280l-232 -1408q-39 -231 -172.5 -353.5t-343.5 -122.5q-42 0 -77.5 4t-74.5 16l56 216q21 -9 67.5 -12.5t64.5 -3.5q81 0 146 68t86 188l232 1408h-248l36 204h248l24 152q39 243 182.5 371.5t329.5 128.5q57 0 124.5 -10.5t103.5 -25.5l-96 -216
q-18 6 -45 11t-63 5q-120 0 -193.5 -66t-94.5 -198l-24 -152h280z" />
    <glyph glyph-name="uni0193" unicode="&#x193;" horiz-adv-x="2176" 
d="M2004 1408h-252l48 216q22 99 62.5 175.5t99.5 129.5t136.5 80t173.5 27q36 0 72 -1.5t60 -10.5l-32 -200q-13 3 -32.5 5.5t-39.5 2.5q-65 0 -119 -18.5t-90.5 -64t-50.5 -125.5zM208 1024q52 324 205.5 560t377 364t485.5 128q216 0 378.5 -84.5t254 -235t95.5 -348.5
h-256q-30 201 -158 318.5t-350 117.5q-182 0 -346.5 -94t-283 -277t-162.5 -449t14.5 -449t195 -277t326.5 -94q174 0 321 76t245 211t126 313l12 72l64 -72h-616l40 220h780l-40 -220q-40 -254 -178 -441t-344 -289t-450 -102q-272 0 -456 128t-259 364t-21 560z" />
    <glyph glyph-name="uni0194" unicode="&#x194;" horiz-adv-x="1776" 
d="M240 2048h268l424 -1660q36 -138 67.5 -241t54 -179t32.5 -134t2 -106q-18 -104 -75 -177.5t-147 -112t-206 -38.5t-193 38.5t-109 112t-14 177.5q9 51 36.5 109.5t73.5 134t109.5 177t144.5 239.5l984 1660h268l-1128 -1892q-105 -174 -166 -271t-70 -157q-6 -42 22 -73
t82 -31t92 32.5t44 71.5q9 60 -15.5 154t-72.5 274z" />
    <glyph glyph-name="uni0195" unicode="&#x195;" horiz-adv-x="2664" 
d="M88 0l340 2048h236l-124 -752h20q72 120 192.5 190t303.5 70q156 0 263.5 -62.5t152 -191t12.5 -326.5l-36 -208h-236l32 192q30 183 -48.5 283.5t-243.5 100.5q-174 0 -307 -109.5t-169 -310.5l-152 -924h-236zM1592 -28q-142 0 -247 66.5t-151 207t-10 362.5l28 160
h236l-28 -160q-30 -180 3.5 -272t97 -124t123.5 -32q124 0 249.5 110.5t233 362t177.5 675.5l36 208h236l-36 -208q-80 -480 -225.5 -779t-332 -438t-390.5 -139z" />
    <glyph glyph-name="uni0196" unicode="&#x196;" horiz-adv-x="1008" 
d="M668 2112l-272 -1640q-21 -129 27.5 -204.5t168.5 -75.5q36 0 66.5 5t57.5 11l-4 -208q-48 -12 -100 -20t-100 -8q-222 0 -326.5 130t-65.5 370l272 1640h276z" />
    <glyph glyph-name="uni0197" unicode="&#x197;" horiz-adv-x="744" 
d="M708 2048l-340 -2048h-248l340 2048h248zM-36 964l32 184h880l-32 -184h-880z" />
    <glyph glyph-name="uni0198" unicode="&#x198;" horiz-adv-x="1892" 
d="M120 0l340 2048h248l-168 -1016h24l960 896q141 132 290.5 143.5t257.5 -75.5l-132 -184q-57 42 -128 32t-160 -92l-688 -628l672 -1124h-300l-552 952l-304 -288l-112 -664h-248z" />
    <glyph glyph-name="uni0199" unicode="&#x199;" horiz-adv-x="1500" 
d="M1048 0l-420 708l-220 -200l-84 -508h-236l264 1600h236l-124 -756h20l740 692h300l-712 -656l520 -880h-284zM568 1464h-236l32 200q17 99 60 175.5t106.5 129.5t140.5 80t161 27q36 0 72.5 -1.5t63.5 -10.5l-36 -200q-12 3 -31.5 5.5t-40.5 2.5q-96 0 -167.5 -44
t-92.5 -164z" />
    <glyph glyph-name="uni019A" unicode="&#x19a;" horiz-adv-x="668" 
d="M664 2048l-340 -2048h-236l340 2048h236zM-72 964l32 184h880l-32 -184h-880z" />
    <glyph glyph-name="uni019B" unicode="&#x19b;" horiz-adv-x="1776" 
d="M1140 1952l-40 -236l-716 -256l36 232zM900 1088l-572 -1088h-304l828 1516l188 -12zM688 2088q153 0 216.5 -60t87.5 -168l344 -1536q10 -44 23.5 -68.5t34 -34t50.5 -9.5h25.5h22.5l-28 -220q-15 -6 -47 -11t-65 -5q-82 0 -139.5 17.5t-96 76t-64.5 182.5l-244 1092
l-96 396q-18 75 -49.5 101.5t-82.5 26.5q-12 0 -32.5 -0.5t-35.5 -3.5l36 208q18 6 64 11t76 5z" />
    <glyph glyph-name="uni019C" unicode="&#x19c;" horiz-adv-x="2544" 
d="M1964 292l284 1712h272l-332 -2004h-260zM2052 692l128 4q-34 -208 -118 -371.5t-225 -258t-345 -94.5q-146 0 -245.5 59t-138 198t-0.5 379l232 1396h272l-232 -1396q-26 -164 -2.5 -252.5t77 -122t117.5 -33.5q148 0 245.5 65.5t154 177t80.5 249.5zM1148 692l128 4
q-34 -208 -119 -371.5t-227 -258t-346 -94.5q-148 0 -247.5 60t-137 199t0.5 377l232 1396h276l-232 -1396q-26 -164 -3.5 -252.5t75 -122t116.5 -33.5q148 0 246.5 65.5t156 177t81.5 249.5z" />
    <glyph glyph-name="uni019D" unicode="&#x19d;" horiz-adv-x="2140" 
d="M140 0h248l-32 -164q-21 -106 -62.5 -184.5t-99.5 -130t-130 -76.5t-156 -25q-47 0 -89.5 4.5t-74.5 11.5l32 204q17 -3 37 -5.5t39 -2.5q98 0 168 44t92 164zM2104 2048l-340 -2048h-240l-848 1608h-20l-268 -1608h-248l340 2048h240l852 -1612h20l268 1612h244z" />
    <glyph glyph-name="uni019E" unicode="&#x19e;" horiz-adv-x="1648" 
d="M476 924l-152 -924h-236l256 1536h228l-40 -240h20q72 117 195 188.5t297 71.5q156 0 262.5 -63.5t150 -192t11.5 -324.5l-260 -1552h-236l256 1536q30 180 -46.5 282t-241.5 102q-168 0 -298 -109.5t-166 -310.5z" />
    <glyph glyph-name="uni019F" unicode="&#x19f;" horiz-adv-x="2144" 
d="M1816 1136v-220q-144 -67 -265 -78.5t-228.5 9.5t-210.5 54t-210.5 57.5t-228.5 19.5t-265 -62v220q144 66 265 77t228.5 -10.5t210.5 -54.5t210.5 -57t228.5 -18.5t265 63.5zM2016 1008q-54 -320 -207 -552.5t-374 -358t-479 -125.5q-266 0 -452.5 130.5t-266 370
t-25.5 567.5q54 320 207 552.5t375 358t482 125.5q264 0 449.5 -130.5t265 -370t25.5 -567.5zM1780 1040q44 262 -13 441t-189 271t-314 92q-190 0 -360 -96.5t-291 -283t-165 -456.5q-44 -262 13 -441t189 -271t314 -92q190 0 360 96.5t291 283t165 456.5z" />
    <glyph glyph-name="uni01A0" unicode="&#x1a0;" horiz-adv-x="2180" 
d="M2144 2196h236q-45 -270 -203.5 -417t-424.5 -147l32 196q155 0 243 97t117 271zM2016 1008q-54 -320 -207 -552.5t-374 -358t-479 -125.5q-266 0 -452.5 130.5t-266 370t-25.5 567.5q54 320 207 552.5t375 358t482 125.5q264 0 449.5 -130.5t265 -370t25.5 -567.5z
M1780 1040q44 262 -13 441t-189 271t-314 92q-190 0 -360 -96.5t-291 -283t-165 -456.5q-44 -262 13 -441t189 -271t314 -92q190 0 360 96.5t291 283t165 456.5z" />
    <glyph glyph-name="uni01A1" unicode="&#x1a1;" horiz-adv-x="1688" 
d="M1612 1652h220q-39 -228 -161 -362t-371 -134l28 168q100 0 155 41t83 115t46 172zM724 -32q-212 0 -354.5 101t-201.5 283t-20 424q38 236 152 411.5t283 272t373 96.5q212 0 355 -101.5t202 -284t19 -426.5q-38 -234 -152 -408.5t-283 -271t-373 -96.5zM728 180
q162 0 282 83t194.5 218.5t99.5 294.5q24 150 -2 279.5t-111 209t-239 79.5q-162 0 -282 -84t-194 -221t-100 -295q-24 -150 2 -278.5t111 -207t239 -78.5z" />
    <glyph glyph-name="uni01A2" unicode="&#x1a2;" horiz-adv-x="2288" 
d="M1720 1000l-124 -728q-44 -56 -133.5 -126.5t-240 -122t-378.5 -51.5q-242 0 -413.5 110t-245 324t-21.5 526l20 128l284 4l-20 -132q-36 -220 -0.5 -384.5t146 -256t298.5 -91.5q138 0 225 24.5t138 58t81 61.5l112 656h272zM1840 1732l-124 -756h-272l112 680
q-22 30 -62 63.5t-121 57t-225 23.5q-252 0 -435.5 -190t-240.5 -538l-20 -116h-284l20 116q50 302 193 517t351 329t452 114q228 0 362 -51.5t201 -122t93 -126.5zM2356 2004l-424 -2576h-276l380 2304l-340 -116l40 232l408 156h212z" />
    <glyph glyph-name="uni01A3" unicode="&#x1a3;" horiz-adv-x="1776" 
d="M668 192q57 0 110.5 16.5t101.5 43.5l80 496h276l-92 -560q-64 -64 -146.5 -112.5t-176 -76t-189.5 -27.5q-228 0 -359 103.5t-175 273t-10 367.5l8 56q34 198 135 367.5t266 273t391 103.5q104 0 188.5 -25.5t148 -73t103.5 -113.5l-100 -604h-276l88 532
q-33 30 -80.5 47t-107.5 17q-154 0 -252 -78.5t-152 -199t-76 -246.5l-8 -56q-28 -166 -1.5 -283t104 -179t201.5 -62zM1800 1488l-340 -2060h-272l280 1704l-328 -176l56 348l388 184h216z" />
    <glyph glyph-name="uni01A4" unicode="&#x1a4;" horiz-adv-x="2176" 
d="M884 1828h-196q-79 0 -123.5 -35.5t-65.5 -92t-31 -120.5l-12 -76h-232l20 136q17 113 79.5 205.5t163.5 147.5t233 55h200zM512 0l340 2048h692q240 0 379.5 -86t189 -233t19.5 -329q-30 -180 -128.5 -328t-266 -236t-405.5 -88h-496l36 220h488q246 0 372 124.5
t156 307.5q30 186 -54.5 307t-333.5 121h-436l-304 -1828h-248z" />
    <glyph glyph-name="uni01A5" unicode="&#x1a5;" horiz-adv-x="1716" 
d="M572 1536h-228q28 175 149 269.5t303 94.5q45 0 81 -3t51 -9l-32 -200q-18 3 -38 5.5t-38 2.5q-112 0 -173 -37.5t-75 -122.5zM788 -32q-148 0 -228.5 49.5t-118 113t-57.5 105.5h-116l176 1056h116q32 40 89 102.5t153 112t246 49.5q194 0 325.5 -97t185 -275t13.5 -420
q-40 -244 -152.5 -422.5t-276 -276t-355.5 -97.5zM-8 -576l352 2112h228l-48 -288l-156 -496l16 -388l-156 -940h-236zM792 180q148 0 260 78.5t184 212t100 297.5q26 162 -1.5 292.5t-114 207t-236.5 76.5q-216 0 -355 -159t-181 -417q-42 -261 44.5 -424.5t299.5 -163.5z
" />
    <glyph glyph-name="uni01A6" unicode="&#x1a6;" horiz-adv-x="2032" 
d="M332 1864l48 280h288l-48 -280h-288zM356 2004h668q342 0 497 -155t107 -449q-22 -138 -96 -251t-191 -193t-269 -120l-80 -28h-608l36 228h444q210 0 333 105.5t147 258.5q27 168 -52 270t-304 102h-380l-296 -1772h-288zM1368 -496l-516 1408h300l520 -1392v-16h-304z
" />
    <glyph glyph-name="uni01A7" unicode="&#x1a7;" horiz-adv-x="1788" 
d="M543 1520h-240q36 162 146.5 287.5t275 197t362.5 71.5q196 0 342.5 -71.5t219 -200t45.5 -300.5q-36 -207 -196.5 -335t-411.5 -197l-264 -72q-114 -30 -214 -70t-167.5 -104t-83.5 -166q-19 -112 33 -195.5t157 -130t247 -46.5q122 0 234.5 36.5t193 112t109.5 191.5
h256q-40 -168 -152.5 -295t-285.5 -198t-393 -71q-236 0 -387.5 79t-215.5 213t-37 300q24 144 99 243t176 162.5t205.5 100.5t186.5 58l218 56q79 20 178 57.5t178 105t97 177.5q25 147 -83 243.5t-312 96.5q-186 0 -323.5 -85.5t-192.5 -250.5z" />
    <glyph glyph-name="uni01A8" unicode="&#x1a8;" horiz-adv-x="1472" 
d="M235 1192q84 165 230 264.5t374 99.5q162 0 280.5 -57t176 -157t36.5 -230q-25 -159 -141.5 -264t-337.5 -156l-264 -60q-123 -27 -187 -81t-76 -135q-18 -99 68.5 -169.5t251.5 -70.5q144 0 244.5 62.5t149.5 185.5l218 -56q-74 -195 -245 -297.5t-408 -102.5
q-178 0 -303 60t-183.5 164t-36.5 236q26 162 144.5 263.5t332.5 152.5l239 56q140 33 212 85t86 139q18 99 -64.5 163.5t-223.5 64.5q-156 0 -240 -69.5t-129 -150.5z" />
    <glyph glyph-name="uni01A9" unicode="&#x1a9;" horiz-adv-x="1776" 
d="M1488 232l-40 -232h-1296l40 232h1296zM1716 2004l-36 -232h-1280l36 232h1280zM1164 1012l-4 -28l-948 -984h-172l36 208l780 788l-520 796l36 212h172z" />
    <glyph glyph-name="uni01AA" unicode="&#x1aa;" horiz-adv-x="1520" 
d="M948 1560l296 116l-292 -1756q-24 -141 13 -196.5t127 -55.5q18 0 44.5 3t47.5 9l-36 -216q-33 -12 -80.5 -18t-83.5 -6q-195 0 -271 123t-37 357zM308 1676q20 130 100 236t197 169t247 63q128 0 223.5 -63t142 -169t26.5 -236q-22 -128 -104 -234.5t-199 -170
t-245 -63.5q-130 0 -225.5 63.5t-140 170t-22.5 234.5zM740 1460q87 0 156.5 54.5t87.5 165.5q18 108 -33.5 164t-138.5 56q-90 0 -160 -56t-88 -164q-18 -111 34 -165.5t142 -54.5z" />
    <glyph glyph-name="uni01AB" unicode="&#x1ab;" horiz-adv-x="1048" 
d="M588 184l244 48l-68 -396q-34 -197 -167 -304.5t-301 -107.5q-36 0 -72 1.5t-60 10.5l32 200q15 -3 35 -5.5t41 -2.5q64 0 117 19t89.5 64.5t49.5 124.5zM1012 1536l-32 -200h-796l32 200h796zM508 1904h236l-244 -1464q-16 -100 5.5 -149.5t66 -66t96.5 -16.5
q39 0 64 4.5t40 7.5l16 -212q-27 -9 -72.5 -18.5t-111.5 -9.5q-100 0 -188 43t-135 131t-25 222z" />
    <glyph glyph-name="uni01AC" unicode="&#x1ac;" horiz-adv-x="1920" 
d="M1228 2048l-36 -220h-472q-70 0 -116.5 -33t-72 -85t-35.5 -110l-12 -76h-224l20 120q29 180 157.5 292t318.5 112h472zM1996 2048l-36 -220h-644l-304 -1828h-248l304 1828h-196l36 220h1088z" />
    <glyph glyph-name="uni01AD" unicode="&#x1ad;" horiz-adv-x="1008" 
d="M764 1532h-276l32 204q17 99 63 175t114 128t149 78.5t166 26.5q30 0 67.5 -5.5t64.5 -14.5l-28 -184q-18 6 -39.5 9t-36.5 3q-64 0 -114 -20.5t-83 -68t-47 -127.5zM1028 1488l-36 -204h-816l36 204h816zM492 1572h276l-192 -1160q-21 -123 21.5 -165.5t102.5 -42.5
q33 0 67.5 6.5t52.5 9.5l-36 -220q-30 -9 -83 -18.5t-125 -9.5q-94 0 -166 44t-104 141t-6 255z" />
    <glyph glyph-name="uni01AE" unicode="&#x1ae;" horiz-adv-x="1808" 
d="M900 0l-28 -164q-20 -120 46 -156t162 -36h76l-36 -220h-136q-84 0 -156.5 26.5t-124 78t-73.5 127.5t-6 176l28 168h248zM312 1828l36 220h1536l-36 -220h-644l-304 -1828h-248l304 1828h-644z" />
    <glyph glyph-name="uni01AF" unicode="&#x1af;" horiz-adv-x="2436" 
d="M2300 2172h232q-32 -196 -113 -329.5t-222 -202t-353 -68.5l32 196q140 0 225 46t131 136t68 222zM1804 2048h248l-224 -1356q-39 -230 -175 -393t-331 -249t-410 -86q-217 0 -384 86t-249 249t-43 393l224 1356h248l-224 -1356q-27 -160 30 -270.5t172 -168t262 -57.5
q145 0 279.5 57.5t230 168t122.5 270.5z" />
    <glyph glyph-name="uni01B0" unicode="&#x1b0;" horiz-adv-x="1752" 
d="M1732 1604h208q-25 -152 -81.5 -254.5t-165 -154t-289.5 -51.5l28 164q125 0 182.5 30.5t79.5 96t38 169.5zM1160 628l152 908h236l-256 -1536h-236l44 260h-16q-72 -117 -201 -198.5t-303 -81.5q-144 0 -245.5 63.5t-144 192t-10.5 324.5l164 976h236l-160 -960
q-27 -168 51 -268t225 -100q88 0 186.5 45t176 138t101.5 237z" />
    <glyph glyph-name="uni01B1" unicode="&#x1b1;" horiz-adv-x="2144" 
d="M200 968q48 291 198.5 503t369.5 341l4 16h-428l36 220h728l-48 -280q-140 -56 -270 -171.5t-224 -276t-126 -352.5q-34 -214 23 -387t190 -275t327 -102t360.5 102t280 275t147.5 387q32 192 -8 352.5t-132 276t-216 171.5l48 280h728l-36 -220h-428l-4 -16
q180 -126 258 -339.5t30 -504.5q-36 -219 -132.5 -401.5t-239.5 -315.5t-320.5 -206t-375.5 -73q-264 0 -447 127.5t-262 352t-31 516.5z" />
    <glyph glyph-name="uni01B2" unicode="&#x1b2;" horiz-adv-x="1776" 
d="M756 -28q-206 0 -358.5 75t-224 225t-33.5 376l224 1356h284l-224 -1356q-39 -231 64 -339.5t304 -108.5t341 108.5t179 339.5l148 904q24 135 -24.5 189.5t-159.5 54.5q-18 0 -44.5 -1t-47.5 -7l36 220q33 9 80 16.5t80 7.5q198 0 302.5 -124.5t65.5 -355.5l-148 -904
q-38 -226 -165 -376t-306 -225t-373 -75z" />
    <glyph glyph-name="uni01B3" unicode="&#x1b3;" horiz-adv-x="1988" 
d="M1720 1672l-196 100l56 72q84 110 179.5 167t193 62t187.5 -41l-96 -200q-66 30 -136 14t-136 -106zM960 1044l8 48h48l-8 -48h-48zM572 2048l420 -976l532 700l196 -100l-644 -828l-140 -844h-248l140 844l-540 1204h284z" />
    <glyph glyph-name="uni01B4" unicode="&#x1b4;" horiz-adv-x="1716" 
d="M1432 1304l-208 84l28 56q58 112 132.5 215.5t171 170t220.5 66.5q78 0 142.5 -27t109.5 -69l-92 -164q-36 21 -77 36.5t-83 15.5q-93 0 -159 -80t-153 -248zM444 -136l68 136l-288 1536h256l212 -1188l532 1040l208 -84l-792 -1532q-46 -88 -107.5 -157.5t-133 -117
t-151.5 -72.5t-164 -25q-20 0 -56.5 3.5t-71 8t-48.5 8.5l36 220q9 -3 37 -5.5t79 -2.5q129 0 220.5 47t163.5 185z" />
    <glyph glyph-name="uni01B5" unicode="&#x1b5;" horiz-adv-x="1760" 
d="M52 0l32 180l1376 1648h-1116l36 220h1412l-28 -180l-1380 -1648h1116l-36 -220h-1412zM492 964l32 184h880l-32 -184h-880z" />
    <glyph glyph-name="uni01B6" unicode="&#x1b6;" horiz-adv-x="1524" 
d="M44 0l32 180l1044 1120l4 16h-872l36 220h1188l-32 -188l-1020 -1112l-4 -16h852l-36 -220h-1192zM304 676l32 184h880l-32 -184h-880z" />
    <glyph glyph-name="uni01B7" unicode="&#x1b7;" horiz-adv-x="1864" 
d="M664 -576q-210 0 -364 89t-228 241t-44 342h244q-10 -120 35.5 -221t144 -162t248.5 -61q167 0 312.5 75.5t245 204t126.5 288.5q26 160 -35.5 285.5t-203 198t-357.5 72.5h-236l36 212l856 824v16h-1104l36 220h1444l-28 -180l-884 -852l-4 -16q253 -10 423 -117
t244.5 -280.5t40.5 -382.5q-28 -165 -114.5 -309.5t-216 -253.5t-288 -171t-329.5 -62z" />
    <glyph glyph-name="uni01B8" unicode="&#x1b8;" horiz-adv-x="1864" 
d="M753 -576q-228 0 -395 107.5t-246 288t-43 400.5q35 209 167 382.5t337.5 280.5t461.5 117l1 16l-602 852l32 180h1444l-37 -220h-1104l-5 -16l583 -824l-34 -212h-236q-216 0 -381.5 -72.5t-268.5 -198t-130 -285.5q-26 -160 30.5 -288.5t177.5 -204t288 -75.5
q149 0 268.5 61t198.5 162t108 221h244q-33 -190 -157.5 -342t-308 -241t-393.5 -89z" />
    <glyph glyph-name="uni01B9" unicode="&#x1b9;" horiz-adv-x="1788" 
d="M1452 0q-43 -160 -155 -281.5t-274 -190t-354 -68.5q-202 0 -345 77.5t-209 214t-38 312.5q29 172 125.5 303t243 211t326.5 98l1 16l-444 664l32 180h1204l-37 -220h-876l-2 -16l408 -616l-30 -200h-192q-130 0 -239 -53.5t-182 -148t-94 -218.5q-28 -168 79 -276
t302 -108q177 0 312.5 89.5t185.5 230.5h252z" />
    <glyph glyph-name="uni01BA" unicode="&#x1ba;" horiz-adv-x="1520" 
d="M320 1488h1196l-28 -168l-816 -640h-216l28 172l604 416h-804zM244 -176q-15 -90 53.5 -147t218.5 -57q76 0 156.5 24.5t144 84t87.5 163.5h272q-22 -124 -111.5 -236.5t-238 -184t-346.5 -71.5q-176 0 -296.5 56t-175 156t-32.5 232q30 180 188 283.5t440 160.5
q189 39 261 85t87 139q15 78 -44 123t-212 45h-88l36 220h88q170 0 288 -50t173 -139t35 -207q-16 -99 -66.5 -170.5t-131 -121.5t-187 -85.5t-235.5 -62.5q-204 -42 -278 -100.5t-86 -139.5z" />
    <glyph glyph-name="uni01BB" unicode="&#x1bb;" horiz-adv-x="1704" 
d="M84 0l32 180l796 740q140 130 233.5 227t146 182t68.5 179q27 162 -66.5 257t-261.5 95q-177 0 -303.5 -107t-156.5 -281h-236q30 180 137.5 316t265 212t337.5 76t305 -76t181 -205t30 -287q-20 -114 -78.5 -221t-180 -239t-329.5 -320l-540 -492l-4 -16h952l-36 -220
h-1292zM832 964l32 184h880l-32 -184h-880z" />
    <glyph glyph-name="uni01BC" unicode="&#x1bc;" horiz-adv-x="1680" 
d="M752 2048l-40 -236h-444l40 236h444zM736 -28q-177 0 -309.5 70.5t-200.5 193t-50 276.5h236q-9 -138 81.5 -229t250.5 -91q128 0 240.5 61t189.5 168t98 243q30 195 -70 323.5t-294 128.5q-99 0 -205.5 -31.5t-178.5 -76.5l-244 32l288 1008h1080l-40 -236h-856
l-168 -588l8 4q69 51 165 81.5t199 30.5q179 0 315 -92t202.5 -251t34.5 -361q-32 -192 -142 -342t-273.5 -236t-356.5 -86z" />
    <glyph glyph-name="uni01BD" unicode="&#x1bd;" horiz-adv-x="1520" 
d="M504 648l-232 20l232 820h932l-40 -236h-700l-92 -324q48 30 135 55.5t165 28.5q249 6 366 -130.5t78 -385.5q-24 -146 -103.5 -264t-221 -187t-351.5 -69q-96 0 -192 27t-171.5 82.5t-113.5 139t-19 195.5l268 24q-21 -111 54 -177.5t210 -66.5q165 0 256 83.5
t112 212.5q21 132 -43 214t-217 82q-117 0 -190.5 -43.5t-121.5 -100.5zM664 1488l-40 -236h-416l40 236h416z" />
    <glyph glyph-name="uni01BE" unicode="&#x1be;" horiz-adv-x="1520" 
d="M1024 396q11 68 -17.5 114t-79.5 83t-109 75.5t-106 90.5t-71.5 128t-4.5 189l128 768h276l-128 -760q-14 -85 13 -139.5t78 -92.5t109.5 -73t108.5 -79t75 -110.5t8 -169.5q-22 -132 -111.5 -233t-230 -158t-314.5 -57q-200 0 -325.5 71.5t-177 185t-29.5 239.5h276
q-14 -104 27.5 -164.5t114 -86t150.5 -25.5q147 0 236 58.5t104 145.5zM1252 1488l-36 -204h-816l36 204h816z" />
    <glyph glyph-name="uni01BF" unicode="&#x1bf;" horiz-adv-x="1776" 
d="M600 1204l-292 -1776h-276l340 2060h252zM476 900l-148 -112q60 226 160 389t243 251t333 88t304 -96t153 -267t3 -397l-8 -28q-46 -286 -207.5 -467t-424 -298t-612.5 -211l36 220q242 56 440 148t327 239t165 369l8 28q22 144 1 265t-95 194t-210 73
q-120 0 -210.5 -54.5t-154 -143t-103.5 -190.5z" />
    <glyph glyph-name="uni01C0" unicode="&#x1c0;" horiz-adv-x="748" 
d="M696 2048l-340 -2048h-220l340 2048h220z" />
    <glyph glyph-name="uni01C1" unicode="&#x1c1;" horiz-adv-x="1008" 
d="M640 2048l-340 -2048h-220l340 2048h220zM1012 2048l-340 -2048h-220l340 2048h220z" />
    <glyph glyph-name="uni01C2" unicode="&#x1c2;" horiz-adv-x="752" 
d="M696 2048l-340 -2048h-220l340 2048h220zM-44 1280l32 184h880l-32 -184h-880zM-44 600l32 184h880l-32 -184h-880z" />
    <glyph glyph-name="uni01C3" unicode="&#x1c3;" horiz-adv-x="784" 
d="M740 2048l-264 -1472h-232l224 1472h272zM276 -32q-82 0 -132.5 55.5t-43.5 136.5t67.5 136.5t140.5 55.5q82 0 132.5 -55.5t43.5 -136.5t-67.5 -136.5t-140.5 -55.5z" />
    <glyph glyph-name="uni01C5" unicode="&#x1c5;" horiz-adv-x="3548" 
d="M760 0h-500l36 220h472q254 0 438.5 100t298 285t155.5 439q42 244 -7.5 419.5t-193 270t-383.5 94.5h-524l36 220h524q298 0 491.5 -125t270 -357t22.5 -554q-52 -316 -201.5 -542.5t-386 -348t-548.5 -121.5zM708 2048l-340 -2048h-248l340 2048h248zM2068 0l32 180
l1044 1120l4 16h-872l36 220h1188l-32 -188l-1020 -1112l-4 -16h852l-36 -220h-1192zM2764 2116l200 -240l284 240h192l-4 -16l-428 -376h-136l-304 376l4 16h192z" />
    <glyph glyph-name="uni01C6" unicode="&#x1c6;" horiz-adv-x="2980" 
d="M1372 0h-228l38 236h-28q-34 -42 -92.5 -105.5t-155.5 -113t-245 -49.5q-192 0 -323 97.5t-184.5 276t-12.5 422.5q40 242 152.5 420t276 275t357.5 97q150 0 230 -49.5t116 -112t55 -102.5h20l126 756h236zM1266 768q44 258 -42.5 417t-302.5 159q-150 0 -261.5 -76.5
t-182.5 -207t-99 -292.5q-26 -164 2 -297.5t114 -212t234 -78.5q213 0 353.5 163.5t184.5 424.5zM1500 0l32 180l1044 1120l4 16h-872l36 220h1188l-32 -188l-1020 -1112l-4 -16h852l-36 -220h-1192zM2200 2048l200 -240l284 240h192l-4 -16l-428 -376h-136l-304 376l4 16
h192z" />
    <glyph glyph-name="uni01C7" unicode="&#x1c7;" horiz-adv-x="3144" 
d="M120 0l340 2048h248l-304 -1828h952l-36 -220h-1200zM2588 592l240 1456h248l-244 -1472q-32 -196 -121.5 -330.5t-228 -204t-318.5 -69.5q-172 0 -296 62t-182.5 175.5t-33.5 270.5h236q-19 -136 59.5 -212t220.5 -76q164 0 275.5 104t144.5 296z" />
    <glyph glyph-name="uni01C8" unicode="&#x1c8;" horiz-adv-x="2508" 
d="M376 0l340 2048h248l-304 -1828h952l-36 -220h-1200zM2184 1536h236l-272 -1648q-24 -142 -90.5 -246t-174 -161t-255.5 -57h-48l36 220h44q108 0 169.5 63.5t82.5 180.5zM2368 1788q-69 0 -118.5 47t-49.5 113t49.5 113t118.5 47t118.5 -47t49.5 -113t-49.5 -113
t-118.5 -47z" />
    <glyph glyph-name="uni01C9" unicode="&#x1c9;" horiz-adv-x="1336" 
d="M664 2048l-340 -2048h-236l340 2048h236zM1012 1536h236l-272 -1648q-24 -142 -90.5 -246t-174 -161t-255.5 -57h-48l36 220h44q108 0 169.5 63.5t82.5 180.5zM1196 1788q-69 0 -118.5 47t-49.5 113t49.5 113t118.5 47t118.5 -47t49.5 -113t-49.5 -113t-118.5 -47z" />
    <glyph glyph-name="uni01CA" unicode="&#x1ca;" horiz-adv-x="3680" 
d="M2084 2048l-340 -2048h-240l-848 1608h-20l-268 -1608h-248l340 2048h240l852 -1612h20l268 1612h244zM3124 592l240 1456h248l-244 -1472q-32 -196 -121.5 -330.5t-228 -204t-318.5 -69.5q-172 0 -296 62t-182 175.5t-34 270.5h236q-19 -136 59.5 -212t220.5 -76
q164 0 275.5 104t144.5 296z" />
    <glyph glyph-name="uni01CB" unicode="&#x1cb;" horiz-adv-x="2748" 
d="M2084 2048l-340 -2048h-240l-848 1608h-20l-268 -1608h-248l340 2048h240l852 -1612h20l268 1612h244zM2424 1536h236l-272 -1648q-24 -142 -90.5 -246t-174 -161t-255.5 -57h-48l36 220h44q108 0 169.5 63.5t82.5 180.5zM2608 1788q-69 0 -118.5 47t-49.5 113t49.5 113
t118.5 47t118.5 -47t49.5 -113t-49.5 -113t-118.5 -47z" />
    <glyph glyph-name="uni01CC" unicode="&#x1cc;" horiz-adv-x="2316" 
d="M476 924l-152 -924h-236l256 1536h228l-40 -240h20q72 117 195 188.5t297 71.5q154 0 260.5 -63.5t151 -192t12.5 -324.5l-164 -976h-236l160 960q30 180 -46.5 282t-241.5 102q-171 0 -299.5 -109.5t-164.5 -310.5zM1992 1536h236l-272 -1648q-24 -142 -90.5 -246
t-174 -161t-255.5 -57h-48l36 220h44q108 0 169.5 63.5t82.5 180.5zM2176 1788q-69 0 -118.5 47t-49.5 113t49.5 113t118.5 47t118.5 -47t49.5 -113t-49.5 -113t-118.5 -47z" />
    <glyph glyph-name="uni01CD" unicode="&#x1cd;" horiz-adv-x="1904" 
d="M204 0h-260l1092 2048h256l412 -2048h-260l-324 1724h-16zM432 800h1048l-36 -220h-1048zM1020 2628l200 -240l284 240h192l-4 -16l-428 -376h-136l-304 376l4 16h192z" />
    <glyph glyph-name="uni01CE" unicode="&#x1ce;" horiz-adv-x="1588" 
d="M536 -36q-146 0 -256 55.5t-163 161t-29 255.5q23 132 89 214.5t160.5 130t204 71t218.5 36.5q142 18 231 29t134 35t55 80q24 150 -41.5 233t-230.5 83q-168 0 -277 -74t-163 -158l-208 80q82 140 196 218.5t239 110t241 31.5q74 0 167 -17.5t174.5 -71.5t123 -163
t11.5 -292l-168 -1012h-236l36 208h-12q-32 -50 -97.5 -107t-165 -97t-233.5 -40zM604 176q140 0 245.5 55t170 142t80.5 183l36 216q-18 -18 -71 -32.5t-119.5 -25t-129 -18t-100.5 -12.5q-94 -12 -178.5 -38.5t-142 -79t-71.5 -142.5q-21 -123 59 -185.5t221 -62.5z
M800 2116l200 -240l284 240h192l-4 -16l-428 -376h-136l-304 376l4 16h192z" />
    <glyph glyph-name="uni01CF" unicode="&#x1cf;" horiz-adv-x="744" 
d="M708 2048l-340 -2048h-248l340 2048h248zM436 2628l200 -240l284 240h192l-4 -16l-428 -376h-136l-304 376l4 16h192z" />
    <glyph glyph-name="uni01D0" unicode="&#x1d0;" horiz-adv-x="668" 
d="M88 0l256 1536h236l-256 -1536h-236zM320 2120l200 -240l284 240h192l-4 -16l-428 -376h-136l-304 376l4 16h192z" />
    <glyph glyph-name="uni01D1" unicode="&#x1d1;" horiz-adv-x="2144" 
d="M2016 1008q-54 -320 -207 -552.5t-374 -358t-479 -125.5q-266 0 -452.5 130.5t-266 370t-25.5 567.5q54 320 207 552.5t375 358t482 125.5q264 0 449.5 -130.5t265 -370t25.5 -567.5zM1780 1040q44 262 -13 441t-189 271t-314 92q-190 0 -360 -96.5t-291 -283
t-165 -456.5q-44 -262 13 -441t189 -271t314 -92q190 0 360 96.5t291 283t165 456.5zM1136 2628l200 -240l284 240h192l-4 -16l-428 -376h-136l-304 376l4 16h192z" />
    <glyph glyph-name="uni01D2" unicode="&#x1d2;" horiz-adv-x="1680" 
d="M724 -32q-212 0 -354.5 101t-201.5 283t-20 424q38 236 152 411.5t283 272t373 96.5q212 0 355 -101.5t202 -284t19 -426.5q-38 -234 -152 -408.5t-283 -271t-373 -96.5zM728 180q162 0 282 83t194.5 218.5t99.5 294.5q24 150 -2 279.5t-111 209t-239 79.5
q-162 0 -282 -84t-194 -221t-100 -295q-24 -150 2 -278.5t111 -207t239 -78.5zM824 2116l200 -240l284 240h192l-4 -16l-428 -376h-136l-304 376l4 16h192z" />
    <glyph glyph-name="uni01D3" unicode="&#x1d3;" horiz-adv-x="2088" 
d="M1804 2048h248l-224 -1356q-39 -230 -175 -393t-331 -249t-410 -86q-217 0 -384 86t-249 249t-43 393l224 1356h248l-224 -1356q-27 -160 30 -270.5t172 -168t262 -57.5q145 0 279.5 57.5t230 168t122.5 270.5zM1112 2628l200 -240l284 240h192l-4 -16l-428 -376h-136
l-304 376l4 16h192z" />
    <glyph glyph-name="uni01D4" unicode="&#x1d4;" horiz-adv-x="1636" 
d="M1160 628l152 908h236l-256 -1536h-236l44 260h-16q-72 -117 -201 -198.5t-303 -81.5q-144 0 -245.5 63.5t-144 192t-10.5 324.5l164 976h236l-160 -960q-27 -168 51 -268t225 -100q88 0 186.5 45t176 138t101.5 237zM800 2116l200 -240l284 240h192l-4 -16l-428 -376
h-136l-304 376l4 16h192z" />
    <glyph glyph-name="uni01D5" unicode="&#x1d5;" horiz-adv-x="2088" 
d="M1804 2048h248l-224 -1356q-39 -230 -175 -393t-331 -249t-410 -86q-217 0 -384 86t-249 249t-43 393l224 1356h248l-224 -1356q-27 -160 30 -270.5t172 -168t262 -57.5q145 0 279.5 57.5t230 168t122.5 270.5zM1864 2888l-32 -208h-936l32 208h936zM840 2416
q9 66 57 111t123 45q78 0 111.5 -45t24.5 -111q-12 -63 -59 -105.5t-125 -42.5t-111 44t-21 104zM1484 2416q9 63 57.5 107.5t126.5 44.5q75 0 108 -44.5t24 -107.5q-12 -60 -59 -106t-125 -46t-111 44.5t-21 107.5z" />
    <glyph glyph-name="uni01D6" unicode="&#x1d6;" horiz-adv-x="1636" 
d="M1160 628l152 908h236l-256 -1536h-236l44 260h-16q-72 -117 -201 -198.5t-303 -81.5q-144 0 -245.5 63.5t-144 192t-10.5 324.5l164 976h236l-160 -960q-27 -168 51 -268t225 -100q88 0 186.5 45t176 138t101.5 237zM556 1896q9 63 57.5 107.5t126.5 44.5t109.5 -46
t22.5 -106q-9 -63 -57 -105.5t-123 -42.5q-78 0 -111.5 42.5t-24.5 105.5zM1148 1892q9 63 55.5 109.5t124.5 46.5t111.5 -46.5t24.5 -109.5q-9 -60 -57.5 -104t-126.5 -44t-109.5 44t-22.5 104zM1572 2416l-36 -208h-940l36 208h940z" />
    <glyph glyph-name="uni01D7" unicode="&#x1d7;" horiz-adv-x="2088" 
d="M1804 2048h248l-224 -1356q-39 -230 -175 -393t-331 -249t-410 -86q-217 0 -384 86t-249 249t-43 393l224 1356h248l-224 -1356q-27 -160 30 -270.5t172 -168t262 -57.5q145 0 279.5 57.5t230 168t122.5 270.5zM968 2264q-63 0 -102 48.5t-30 111.5q12 69 68.5 114.5
t119.5 45.5q69 0 106.5 -45.5t25.5 -114.5q-9 -63 -64 -111.5t-124 -48.5zM1616 2264q-63 0 -102 48.5t-30 111.5q12 69 68.5 114.5t119.5 45.5q69 0 106.5 -45.5t25.5 -114.5q-9 -63 -64 -111.5t-124 -48.5zM1220 2496l224 312h252l-304 -312h-172z" />
    <glyph glyph-name="uni01D8" unicode="&#x1d8;" horiz-adv-x="1636" 
d="M1160 628l152 908h236l-256 -1536h-236l44 260h-16q-72 -117 -201 -198.5t-303 -81.5q-144 0 -245.5 63.5t-144 192t-10.5 324.5l164 976h236l-160 -960q-27 -168 51 -268t225 -100q88 0 186.5 45t176 138t101.5 237zM728 1748q-67 0 -115 47t-49 113q1 66 49 113t115 47
q66 0 113.5 -47t46.5 -113q1 -66 -46.5 -113t-113.5 -47zM1300 1748q-67 0 -115 47t-49 113q1 65 49 112.5t115 47.5q66 0 113.5 -47t46.5 -113q1 -66 -46.5 -113t-113.5 -47zM936 2176l312 456h276l-380 -456h-208z" />
    <glyph glyph-name="uni01D9" unicode="&#x1d9;" horiz-adv-x="2088" 
d="M1804 2048h248l-224 -1356q-39 -230 -175 -393t-331 -249t-410 -86q-217 0 -384 86t-249 249t-43 393l224 1356h248l-224 -1356q-27 -160 30 -270.5t172 -168t262 -57.5q145 0 279.5 57.5t230 168t122.5 270.5zM840 2416q9 66 57 111t123 45q78 0 111.5 -45t24.5 -111
q-12 -63 -59 -105.5t-125 -42.5t-111 44t-21 104zM1484 2416q9 63 57.5 107.5t126.5 44.5q75 0 108 -44.5t24 -107.5q-12 -60 -59 -106t-125 -46t-111 44.5t-21 107.5zM1192 2876l172 -172l228 172h236l-4 -24l-404 -300h-168l-296 296l4 28h232z" />
    <glyph glyph-name="uni01DA" unicode="&#x1da;" horiz-adv-x="1636" 
d="M1160 628l152 908h236l-256 -1536h-236l44 260h-16q-72 -117 -201 -198.5t-303 -81.5q-144 0 -245.5 63.5t-144 192t-10.5 324.5l164 976h236l-160 -960q-27 -168 51 -268t225 -100q88 0 186.5 45t176 138t101.5 237zM556 1896q9 60 55.5 106t124.5 46t111.5 -44.5
t24.5 -107.5t-57.5 -105.5t-126.5 -42.5q-75 0 -108 42.5t-24 105.5zM1144 1892q9 63 57.5 109.5t126.5 46.5t111.5 -46.5t24.5 -109.5q-9 -60 -57.5 -104t-126.5 -44t-111.5 44t-24.5 104zM908 2532l164 -232l236 232h236v-16l-416 -380h-168l-284 380v16h232z" />
    <glyph glyph-name="uni01DB" unicode="&#x1db;" horiz-adv-x="2088" 
d="M1804 2048h248l-224 -1356q-39 -230 -175 -393t-331 -249t-410 -86q-217 0 -384 86t-249 249t-43 393l224 1356h248l-224 -1356q-27 -160 30 -270.5t172 -168t262 -57.5q145 0 279.5 57.5t230 168t122.5 270.5zM1312 2808l124 -312h-176l-200 312h252zM840 2416
q9 66 57 111t123 45q78 0 111.5 -45t24.5 -111q-12 -63 -59 -105.5t-125 -42.5t-111 44t-21 104zM1484 2416q9 63 57.5 107.5t126.5 44.5q75 0 108 -44.5t24 -107.5q-12 -60 -59 -106t-125 -46t-111 44.5t-21 107.5z" />
    <glyph glyph-name="uni01DC" unicode="&#x1dc;" horiz-adv-x="1636" 
d="M1160 628l152 908h236l-256 -1536h-236l44 260h-16q-72 -117 -201 -198.5t-303 -81.5q-144 0 -245.5 63.5t-144 192t-10.5 324.5l164 976h236l-160 -960q-27 -168 51 -268t225 -100q88 0 186.5 45t176 138t101.5 237zM556 1896q9 60 55.5 106t124.5 46t111.5 -44.5
t24.5 -107.5t-57.5 -105.5t-126.5 -42.5q-75 0 -108 42.5t-24 105.5zM1144 1892q9 63 57.5 109.5t126.5 46.5t111.5 -46.5t24.5 -109.5q-9 -60 -57.5 -104t-126.5 -44t-111.5 44t-24.5 104zM996 2528l200 -408h-236l-296 408h332z" />
    <glyph glyph-name="uni01DD" unicode="&#x1dd;" horiz-adv-x="1644" 
d="M916 1568q222 0 366 -98.5t201 -276t17 -413.5q-38 -236 -154 -416.5t-289 -282t-381 -101.5q-120 0 -230.5 40t-191.5 129.5t-113.5 237t3.5 361.5l16 100h1184l-32 -204h-944q-33 -195 59.5 -323.5t284.5 -128.5q134 0 249 71.5t192 180.5t95 220l28 176
q46 287 -63 401.5t-333 114.5q-141 0 -249.5 -60t-174.5 -180l-216 64q84 174 263 281t413 107z" />
    <glyph glyph-name="uni01DE" unicode="&#x1de;" horiz-adv-x="1904" 
d="M204 0h-260l1092 2048h256l412 -2048h-260l-324 1724h-16zM432 800h1048l-36 -220h-1048zM1772 2888l-32 -208h-936l32 208h936zM748 2416q9 66 57 111t123 45q78 0 111.5 -45t24.5 -111q-12 -63 -59 -105.5t-125 -42.5t-111 44t-21 104zM1392 2416q9 63 57.5 107.5
t126.5 44.5q75 0 108 -44.5t24 -107.5q-12 -60 -59 -106t-125 -46t-111 44.5t-21 107.5z" />
    <glyph glyph-name="uni01DF" unicode="&#x1df;" horiz-adv-x="1588" 
d="M536 -36q-146 0 -256 55.5t-163 161t-29 255.5q23 132 89 214.5t160.5 130t204 71t218.5 36.5q142 18 231 29t134 35t55 80q24 150 -41.5 233t-230.5 83q-168 0 -277 -74t-163 -158l-208 80q82 140 196 218.5t239 110t241 31.5q74 0 167 -17.5t174.5 -71.5t123 -163
t11.5 -292l-168 -1012h-236l36 208h-12q-32 -50 -97.5 -107t-165 -97t-233.5 -40zM604 176q140 0 245.5 55t170 142t80.5 183l36 216q-18 -18 -71 -32.5t-119.5 -25t-129 -18t-100.5 -12.5q-94 -12 -178.5 -38.5t-142 -79t-71.5 -142.5q-21 -123 59 -185.5t221 -62.5z
M556 1896q9 63 57.5 107.5t126.5 44.5t109.5 -46t22.5 -106q-9 -63 -57 -105.5t-123 -42.5q-78 0 -111.5 42.5t-24.5 105.5zM1148 1892q9 63 55.5 109.5t124.5 46.5t111.5 -46.5t24.5 -109.5q-9 -60 -57.5 -104t-126.5 -44t-109.5 44t-22.5 104zM1572 2416l-36 -208h-940
l36 208h940z" />
    <glyph glyph-name="uni01E0" unicode="&#x1e0;" horiz-adv-x="1904" 
d="M204 0h-260l1092 2048h256l412 -2048h-260l-324 1724h-16zM432 800h1048l-36 -220h-1048zM1068 2416q9 63 57.5 107.5t126.5 44.5t111.5 -44.5t24.5 -107.5q-12 -63 -61 -107.5t-127 -44.5t-111 44.5t-21 107.5zM1776 2888l-32 -208h-940l32 208h940z" />
    <glyph glyph-name="uni01E1" unicode="&#x1e1;" horiz-adv-x="1588" 
d="M536 -36q-146 0 -256 55.5t-163 161t-29 255.5q23 132 89 214.5t160.5 130t204 71t218.5 36.5q142 18 231 29t134 35t55 80q24 150 -41.5 233t-230.5 83q-168 0 -277 -74t-163 -158l-208 80q82 140 196 218.5t239 110t241 31.5q74 0 167 -17.5t174.5 -71.5t123 -163
t11.5 -292l-168 -1012h-236l36 208h-12q-32 -50 -97.5 -107t-165 -97t-233.5 -40zM604 176q140 0 245.5 55t170 142t80.5 183l36 216q-18 -18 -71 -32.5t-119.5 -25t-129 -18t-100.5 -12.5q-94 -12 -178.5 -38.5t-142 -79t-71.5 -142.5q-21 -123 59 -185.5t221 -62.5z
M848 1892q9 66 57 111t123 45q81 0 113 -46.5t23 -109.5q-12 -63 -59 -105.5t-125 -42.5q-75 0 -109.5 42.5t-22.5 105.5zM1568 2412l-32 -208h-940l32 208h940z" />
    <glyph glyph-name="uni01E2" unicode="&#x1e2;" horiz-adv-x="2788" 
d="M-56 0l1332 2048h1524l-36 -220h-988l-116 -692h924l-36 -220h-924l-116 -696h1004l-36 -220h-1252l304 1828h-148l-1164 -1828h-272zM480 580l36 220h968l-36 -220h-968zM2592 2528l-32 -204h-940l32 204h940z" />
    <glyph glyph-name="uni01E3" unicode="&#x1e3;" horiz-adv-x="2604" 
d="M1704 -32q-255 0 -397.5 129.5t-166.5 354.5l164 732q105 174 264.5 273t363.5 99q120 0 230.5 -40t191.5 -129.5t113.5 -236.5t-3.5 -362l-12 -80l-1200 -92l32 204l956 72q33 195 -59.5 323.5t-284.5 128.5q-201 0 -354 -151.5t-198 -424.5l-12 -96q-18 -241 92.5 -366
t315.5 -126q153 -1 259 62t157 162l228 -8q-36 -128 -134 -224.5t-239.5 -150t-306.5 -53.5zM604 176q140 0 245.5 55t170 142t80.5 183l36 216q-18 -18 -71 -32.5t-119.5 -25t-129 -18t-100.5 -12.5q-94 -12 -178.5 -38.5t-142 -79t-71.5 -142.5q-21 -123 59 -185.5
t221 -62.5zM536 -36q-146 0 -256 55.5t-163 161t-29 255.5q23 131 88 213.5t159.5 129.5t204 71.5t220.5 37.5q116 14 207 23t146 29t63 68q29 174 -37 257t-227 83q-171 0 -280.5 -74t-163.5 -158l-208 80q82 140 196 218.5t239 110t241 31.5q210 0 320.5 -83.5
t131.5 -200.5l-220 -944h-12q-13 -40 -61 -101t-127.5 -121.5t-188 -101t-243.5 -40.5zM1968 2016l-32 -204h-940l32 204h940z" />
    <glyph glyph-name="uni01E4" unicode="&#x1e4;" horiz-adv-x="2092" 
d="M1084 456l32 184h880l-32 -184h-880zM208 1024q52 324 205.5 560t377 364t485.5 128q216 0 378.5 -84.5t254 -235t95.5 -348.5h-256q-30 201 -158 318.5t-350 117.5q-182 0 -346.5 -94t-283 -277t-162.5 -449t14.5 -449t195 -277t326.5 -94q174 0 321 76t245 211t126 313
l12 72l64 -72h-616l40 220h780l-40 -220q-40 -254 -178 -441t-344 -289t-450 -102q-272 0 -456 128t-259 364t-21 560z" />
    <glyph glyph-name="uni01E5" unicode="&#x1e5;" horiz-adv-x="1716" 
d="M604 -576q-246 0 -381.5 92.5t-186.5 215.5l212 132q22 -38 63 -92t119 -95t210 -41q118 0 225 40.5t181 124t94 211.5l44 272h-20q-34 -42 -91.5 -103.5t-154 -109t-246.5 -47.5q-186 0 -319 88t-191 256t-18 408q40 236 153 411.5t277 272t358 96.5q150 0 230 -49.5
t117 -112t57 -102.5h24l40 244h228l-256 -1548q-34 -198 -149 -322.5t-278 -183t-341 -58.5zM740 236q213 0 349.5 144.5t178.5 399.5q42 249 -43 406.5t-301 157.5q-150 0 -262.5 -76t-184 -204t-97.5 -284q-39 -240 49.5 -392t310.5 -152zM932 684l32 184h880l-32 -184
h-880z" />
    <glyph glyph-name="uni01E6" unicode="&#x1e6;" horiz-adv-x="2092" 
d="M208 1024q52 324 205.5 560t377 364t485.5 128q216 0 378.5 -84.5t254 -235t95.5 -348.5h-256q-30 201 -158 318.5t-350 117.5q-182 0 -346.5 -94t-283 -277t-162.5 -449t14.5 -449t195 -277t326.5 -94q174 0 321 76t245 211t126 313l12 72l64 -72h-616l40 220h780
l-40 -220q-40 -254 -178 -441t-344 -289t-450 -102q-272 0 -456 128t-259 364t-21 560zM1128 2628l200 -240l284 240h192l-4 -16l-428 -376h-136l-304 376l4 16h192z" />
    <glyph glyph-name="uni01E7" unicode="&#x1e7;" horiz-adv-x="1716" 
d="M604 -576q-246 0 -381.5 92.5t-186.5 215.5l212 132q22 -38 63 -92t119 -95t210 -41q118 0 225 40.5t181 124t94 211.5l44 272h-20q-34 -42 -91.5 -103.5t-154 -109t-246.5 -47.5q-186 0 -319 88t-191 256t-18 408q40 236 153 411.5t277 272t358 96.5q150 0 230 -49.5
t117 -112t57 -102.5h24l40 244h228l-256 -1548q-34 -198 -149 -322.5t-278 -183t-341 -58.5zM740 236q213 0 349.5 144.5t178.5 399.5q42 249 -43 406.5t-301 157.5q-150 0 -262.5 -76t-184 -204t-97.5 -284q-39 -240 49.5 -392t310.5 -152zM868 2116l200 -240l284 240h192
l-4 -16l-428 -376h-136l-304 376l4 16h192z" />
    <glyph glyph-name="uni01E8" unicode="&#x1e8;" horiz-adv-x="1836" 
d="M120 0l340 2048h248l-168 -1016h24l1088 1016h324l-1012 -924l672 -1124h-300l-552 952l-304 -288l-112 -664h-248zM988 2628l200 -240l284 240h192l-4 -16l-428 -376h-136l-304 376l4 16h192z" />
    <glyph glyph-name="uni01E9" unicode="&#x1e9;" horiz-adv-x="1532" 
d="M400 560l44 292h48l788 684h292l-836 -724h-20zM88 0l340 2048h236l-340 -2048h-236zM1064 0l-472 760l192 164l580 -924h-300zM404 2628l200 -240l284 240h192l-4 -16l-428 -376h-136l-304 376l4 16h192z" />
    <glyph glyph-name="uni01EA" unicode="&#x1ea;" horiz-adv-x="2144" 
d="M2016 1008q-54 -320 -207 -552.5t-374 -358t-479 -125.5q-266 0 -452.5 130.5t-266 370t-25.5 567.5q54 320 207 552.5t375 358t482 125.5q264 0 449.5 -130.5t265 -370t25.5 -567.5zM1780 1040q44 262 -13 441t-189 271t-314 92q-190 0 -360 -96.5t-291 -283
t-165 -456.5q-44 -262 13 -441t189 -271t314 -92q190 0 360 96.5t291 283t165 456.5zM868 -600q-123 0 -192 67.5t-48 196.5q12 74 61 148t141 143t234 129l92 -84q-99 -66 -182 -140t-98 -164q-9 -45 9.5 -70.5t78.5 -25.5q45 0 80.5 12t59.5 24l-12 -176
q-36 -21 -94 -40.5t-130 -19.5z" />
    <glyph glyph-name="uni01EB" unicode="&#x1eb;" horiz-adv-x="1680" 
d="M724 -32q-212 0 -354.5 101t-201.5 283t-20 424q38 236 152 411.5t283 272t373 96.5q212 0 355 -101.5t202 -284t19 -426.5q-38 -234 -152 -408.5t-283 -271t-373 -96.5zM728 180q162 0 282 83t194.5 218.5t99.5 294.5q24 150 -2 279.5t-111 209t-239 79.5
q-162 0 -282 -84t-194 -221t-100 -295q-24 -150 2 -278.5t111 -207t239 -78.5zM644 -600q-123 0 -192 67.5t-48 196.5q12 74 61 148t141 143t234 129l92 -84q-99 -66 -182 -140t-98 -164q-9 -45 9.5 -70.5t78.5 -25.5q45 0 80.5 12t59.5 24l-12 -176q-36 -21 -94 -40.5
t-130 -19.5z" />
    <glyph glyph-name="uni01EC" unicode="&#x1ec;" horiz-adv-x="2144" 
d="M2016 1008q-54 -320 -207 -552.5t-374 -358t-479 -125.5q-266 0 -452.5 130.5t-266 370t-25.5 567.5q54 320 207 552.5t375 358t482 125.5q264 0 449.5 -130.5t265 -370t25.5 -567.5zM1780 1040q44 262 -13 441t-189 271t-314 92q-190 0 -360 -96.5t-291 -283
t-165 -456.5q-44 -262 13 -441t189 -271t314 -92q190 0 360 96.5t291 283t165 456.5zM868 -600q-123 0 -192 67.5t-48 196.5q12 74 61 148t141 143t234 129l92 -84q-99 -66 -182 -140t-98 -164q-9 -45 9.5 -70.5t78.5 -25.5q45 0 80.5 12t59.5 24l-12 -176
q-36 -21 -94 -40.5t-130 -19.5zM1840 2528l-32 -204h-940l32 204h940z" />
    <glyph glyph-name="uni01ED" unicode="&#x1ed;" horiz-adv-x="1680" 
d="M724 -32q-212 0 -354.5 101t-201.5 283t-20 424q38 236 152 411.5t283 272t373 96.5q212 0 355 -101.5t202 -284t19 -426.5q-38 -234 -152 -408.5t-283 -271t-373 -96.5zM728 180q162 0 282 83t194.5 218.5t99.5 294.5q24 150 -2 279.5t-111 209t-239 79.5
q-162 0 -282 -84t-194 -221t-100 -295q-24 -150 2 -278.5t111 -207t239 -78.5zM644 -600q-123 0 -192 67.5t-48 196.5q12 74 61 148t141 143t234 129l92 -84q-99 -66 -182 -140t-98 -164q-9 -45 9.5 -70.5t78.5 -25.5q45 0 80.5 12t59.5 24l-12 -176q-36 -21 -94 -40.5
t-130 -19.5zM1528 2016l-32 -204h-940l32 204h940z" />
    <glyph glyph-name="uni01EE" unicode="&#x1ee;" horiz-adv-x="1864" 
d="M664 -576q-210 0 -364 89t-228 241t-44 342h244q-10 -120 35.5 -221t144 -162t248.5 -61q167 0 312.5 75.5t245 204t126.5 288.5q26 160 -35.5 285.5t-203 198t-357.5 72.5h-236l36 212l856 824v16h-1104l36 220h1444l-28 -180l-884 -852l-4 -16q253 -10 423 -117
t244.5 -280.5t40.5 -382.5q-28 -165 -114.5 -309.5t-216 -253.5t-288 -171t-329.5 -62zM1000 2628l200 -240l284 240h192l-4 -16l-428 -376h-136l-304 376l4 16h192z" />
    <glyph glyph-name="uni01EF" unicode="&#x1ef;" horiz-adv-x="1796" 
d="M80 0h252q3 -141 109 -230.5t283 -89.5q130 0 238.5 49.5t180 136t89.5 198.5q30 186 -75.5 303t-300.5 117h-192l36 200l612 616l4 16h-876l36 220h1204l-28 -180l-664 -664l-4 -16q174 -18 294 -98t173 -211t25 -303q-30 -176 -141.5 -312.5t-280 -214t-370.5 -77.5
q-192 0 -331 68.5t-211 190t-62 281.5zM900 2116l200 -240l284 240h192l-4 -16l-428 -376h-136l-304 376l4 16h192z" />
    <glyph glyph-name="uni01F0" unicode="&#x1f0;" horiz-adv-x="668" 
d="M344 1536h236l-272 -1648q-24 -142 -90.5 -246t-174 -161t-255.5 -57h-48l36 220h44q108 0 169.5 63.5t82.5 180.5zM316 2120l200 -240l284 240h192l-4 -16l-428 -376h-136l-304 376l4 16h192z" />
    <glyph glyph-name="uni01F1" unicode="&#x1f1;" horiz-adv-x="3784" 
d="M760 0h-500l36 220h472q254 0 438.5 100t298 285t155.5 439q42 244 -7.5 419.5t-193 270t-383.5 94.5h-524l36 220h524q298 0 491.5 -125t270 -357t22.5 -554q-52 -316 -201.5 -542.5t-386 -348t-548.5 -121.5zM708 2048l-340 -2048h-248l340 2048h248zM2076 0l32 180
l1376 1648h-1116l36 220h1412l-28 -180l-1380 -1648h1116l-36 -220h-1412z" />
    <glyph glyph-name="uni01F2" unicode="&#x1f2;" horiz-adv-x="3548" 
d="M760 0h-500l36 220h472q254 0 438.5 100t298 285t155.5 439q42 244 -7.5 419.5t-193 270t-383.5 94.5h-524l36 220h524q298 0 491.5 -125t270 -357t22.5 -554q-52 -316 -201.5 -542.5t-386 -348t-548.5 -121.5zM708 2048l-340 -2048h-248l340 2048h248zM2068 0l32 180
l1044 1120l4 16h-872l36 220h1188l-32 -188l-1020 -1112l-4 -16h852l-36 -220h-1192z" />
    <glyph glyph-name="uni01F4" unicode="&#x1f4;" horiz-adv-x="2092" 
d="M208 1024q52 324 205.5 560t377 364t485.5 128q216 0 378.5 -84.5t254 -235t95.5 -348.5h-256q-30 201 -158 318.5t-350 117.5q-182 0 -346.5 -94t-283 -277t-162.5 -449t14.5 -449t195 -277t326.5 -94q174 0 321 76t245 211t126 313l12 72l64 -72h-616l40 220h780
l-40 -220q-40 -254 -178 -441t-344 -289t-450 -102q-272 0 -456 128t-259 364t-21 560zM1192 2224l312 456h276l-380 -456h-208z" />
    <glyph glyph-name="uni01F5" unicode="&#x1f5;" horiz-adv-x="1716" 
d="M604 -576q-246 0 -381.5 92.5t-186.5 215.5l212 132q22 -38 63 -92t119 -95t210 -41q118 0 225 40.5t181 124t94 211.5l44 272h-20q-34 -42 -91.5 -103.5t-154 -109t-246.5 -47.5q-186 0 -319 88t-191 256t-18 408q40 236 153 411.5t277 272t358 96.5q150 0 230 -49.5
t117 -112t57 -102.5h24l40 244h228l-256 -1548q-34 -198 -149 -322.5t-278 -183t-341 -58.5zM740 236q213 0 349.5 144.5t178.5 399.5q42 249 -43 406.5t-301 157.5q-150 0 -262.5 -76t-184 -204t-97.5 -284q-39 -240 49.5 -392t310.5 -152zM932 1712l312 456h276l-380 -456
h-208z" />
    <glyph glyph-name="uni01F6" unicode="&#x1f6;" horiz-adv-x="3136" 
d="M120 0l340 2048h248l-152 -912h1092l152 912h248l-224 -1344h-248l36 212h-1092l-152 -916h-248zM2128 -28q-300 0 -457 171.5t-103 504.5l8 56h248l-8 -56q-39 -231 54 -339.5t294 -108.5t325 108.5t163 339.5l148 888h248l-148 -888q-38 -226 -147 -376t-270 -225
t-355 -75z" />
    <glyph glyph-name="uni01F7" unicode="&#x1f7;" horiz-adv-x="1776" 
d="M648 2004l-424 -2576h-288l424 2576h288zM124 -248l36 228q278 42 494.5 159t371 279.5t247.5 346.5t123 359l12 76q26 156 12 269.5t-67 186.5t-146 108.5t-227 35.5q-152 0 -255 -55.5t-170 -156t-111 -236.5l92 540q96 66 216 103t264 37q250 0 417.5 -92.5t236 -278
t22.5 -465.5l-12 -72q-43 -262 -183 -496t-352 -419.5t-473 -304.5t-548 -152z" />
    <glyph glyph-name="uni01F8" unicode="&#x1f8;" horiz-adv-x="2120" 
d="M2084 2048l-340 -2048h-240l-848 1608h-20l-268 -1608h-248l340 2048h240l852 -1612h20l268 1612h244zM1260 2640l200 -408h-236l-296 408h332z" />
    <glyph glyph-name="uni01F9" unicode="&#x1f9;" horiz-adv-x="1648" 
d="M476 924l-152 -924h-236l256 1536h228l-40 -240h20q72 117 195 188.5t297 71.5q154 0 260.5 -63.5t151 -192t12.5 -324.5l-164 -976h-236l160 960q30 180 -46.5 282t-241.5 102q-171 0 -299.5 -109.5t-164.5 -310.5zM936 2128l200 -408h-236l-296 408h332z" />
    <glyph glyph-name="uni01FA" unicode="&#x1fa;" horiz-adv-x="1904" 
d="M204 0h-260l1092 2048h256l412 -2048h-260l-324 1724h-16zM432 800h1048l-36 -220h-1048zM1184 2160q-96 0 -155.5 68t-44.5 164q18 96 99 164t177 68q99 0 156.5 -68t39.5 -164q-15 -96 -94 -164t-178 -68zM1204 2296q42 0 74 28.5t38 67.5q6 36 -16 64t-64 28
q-39 0 -72.5 -28t-39.5 -64q-6 -39 17.5 -67.5t62.5 -28.5zM1172 2688l240 248h272l-344 -248h-168z" />
    <glyph glyph-name="uni01FB" unicode="&#x1fb;" horiz-adv-x="1588" 
d="M536 -36q-146 0 -256 55.5t-163 161t-29 255.5q23 132 89 214.5t160.5 130t204 71t218.5 36.5q142 18 231 29t134 35t55 80q24 150 -41.5 233t-230.5 83q-168 0 -277 -74t-163 -158l-208 80q82 140 196 218.5t239 110t241 31.5q74 0 167 -17.5t174.5 -71.5t123 -163
t11.5 -292l-168 -1012h-236l36 208h-12q-32 -50 -97.5 -107t-165 -97t-233.5 -40zM604 176q140 0 245.5 55t170 142t80.5 183l36 216q-18 -18 -71 -32.5t-119.5 -25t-129 -18t-100.5 -12.5q-94 -12 -178.5 -38.5t-142 -79t-71.5 -142.5q-21 -123 59 -185.5t221 -62.5z
M964 1648q-96 0 -155.5 68t-44.5 164q18 96 99 164t177 68q99 0 156.5 -68t39.5 -164q-15 -96 -94 -164t-178 -68zM984 1784q42 0 74 28.5t38 67.5q6 36 -16 64t-64 28q-39 0 -72.5 -28t-39.5 -64q-6 -39 17.5 -67.5t62.5 -28.5zM952 2176l240 248h272l-344 -248h-168z" />
    <glyph glyph-name="uni01FC" unicode="&#x1fc;" horiz-adv-x="2788" 
d="M-56 0l1332 2048h1524l-36 -220h-988l-116 -692h924l-36 -220h-924l-116 -696h1004l-36 -220h-1252l304 1828h-148l-1164 -1828h-272zM480 580l36 220h968l-36 -220h-968zM1952 2224l312 456h276l-380 -456h-208z" />
    <glyph glyph-name="uni01FD" unicode="&#x1fd;" horiz-adv-x="2604" 
d="M1704 -32q-255 0 -397.5 129.5t-166.5 354.5l164 732q105 174 264.5 273t363.5 99q120 0 230.5 -40t191.5 -129.5t113.5 -236.5t-3.5 -362l-12 -80l-1200 -92l32 204l956 72q33 195 -59.5 323.5t-284.5 128.5q-201 0 -354 -151.5t-198 -424.5l-12 -96q-18 -241 92.5 -366
t315.5 -126q153 -1 259 62t157 162l228 -8q-36 -128 -134 -224.5t-239.5 -150t-306.5 -53.5zM604 176q140 0 245.5 55t170 142t80.5 183l36 216q-18 -18 -71 -32.5t-119.5 -25t-129 -18t-100.5 -12.5q-94 -12 -178.5 -38.5t-142 -79t-71.5 -142.5q-21 -123 59 -185.5
t221 -62.5zM536 -36q-146 0 -256 55.5t-163 161t-29 255.5q23 131 88 213.5t159.5 129.5t204 71.5t220.5 37.5q116 14 207 23t146 29t63 68q29 174 -37 257t-227 83q-171 0 -280.5 -74t-163.5 -158l-208 80q82 140 196 218.5t239 110t241 31.5q210 0 320.5 -83.5
t131.5 -200.5l-220 -944h-12q-13 -40 -61 -101t-127.5 -121.5t-188 -101t-243.5 -40.5zM1328 1712l312 456h276l-380 -456h-208z" />
    <glyph glyph-name="uni01FE" unicode="&#x1fe;" horiz-adv-x="2148" 
d="M2016 1004q-54 -320 -207 -552.5t-374 -358t-479 -125.5q-266 0 -452.5 130.5t-266 370t-25.5 567.5q54 320 207 552.5t375 358t482 125.5q264 0 449.5 -130.5t265 -370t25.5 -567.5zM1780 1036q44 262 -13 441t-189 271t-314 92q-190 0 -360 -96.5t-291 -283
t-165 -456.5q-44 -262 13 -441t189 -271t314 -92q190 0 360 96.5t291 283t165 456.5zM480 -84l-152 104l1424 2108l152 -104zM1200 2220l312 456h276l-380 -456h-208z" />
    <glyph glyph-name="uni01FF" unicode="&#x1ff;" horiz-adv-x="1680" 
d="M724 -32q-212 0 -354.5 101t-201.5 283t-20 424q38 236 152 411.5t283 272t373 96.5q212 0 355 -101.5t202 -284t19 -426.5q-38 -234 -152 -408.5t-283 -271t-373 -96.5zM728 180q162 0 282 83t194.5 218.5t99.5 294.5q24 150 -2 279.5t-111 209t-239 79.5
q-162 0 -282 -84t-194 -221t-100 -295q-24 -150 2 -278.5t111 -207t239 -78.5zM240 -84l-136 104l1336 1588l132 -104zM888 1712l312 456h276l-380 -456h-208z" />
    <glyph glyph-name="uni0200" unicode="&#x200;" horiz-adv-x="1904" 
d="M204 0h-260l1092 2048h256l412 -2048h-260l-324 1724h-16zM432 800h1048l-36 -220h-1048zM1132 2248l-276 364h-332l360 -364h248zM1496 2248l-192 364h-304l276 -364h220z" />
    <glyph glyph-name="uni0201" unicode="&#x201;" horiz-adv-x="1588" 
d="M536 -36q-146 0 -256 55.5t-163 161t-29 255.5q23 132 89 214.5t160.5 130t204 71t218.5 36.5q142 18 231 29t134 35t55 80q24 150 -41.5 233t-230.5 83q-168 0 -277 -74t-163 -158l-208 80q82 140 196 218.5t239 110t241 31.5q74 0 167 -17.5t174.5 -71.5t123 -163
t11.5 -292l-168 -1012h-236l36 208h-12q-32 -50 -97.5 -107t-165 -97t-233.5 -40zM604 176q140 0 245.5 55t170 142t80.5 183l36 216q-18 -18 -71 -32.5t-119.5 -25t-129 -18t-100.5 -12.5q-94 -12 -178.5 -38.5t-142 -79t-71.5 -142.5q-21 -123 59 -185.5t221 -62.5z
M912 1736l-276 364h-332l360 -364h248zM1276 1736l-192 364h-304l276 -364h220z" />
    <glyph glyph-name="uni0202" unicode="&#x202;" horiz-adv-x="1904" 
d="M204 0h-260l1092 2048h256l412 -2048h-260l-324 1724h-16zM432 800h1048l-36 -220h-1048zM796 2288q27 162 155.5 267t320.5 105t285.5 -105t66.5 -267h-220q12 81 -23 140.5t-137 59.5q-108 0 -162 -61t-66 -139h-220z" />
    <glyph glyph-name="uni0203" unicode="&#x203;" horiz-adv-x="1588" 
d="M536 -36q-146 0 -256 55.5t-163 161t-29 255.5q23 132 89 214.5t160.5 130t204 71t218.5 36.5q142 18 231 29t134 35t55 80q24 150 -41.5 233t-230.5 83q-168 0 -277 -74t-163 -158l-208 80q82 140 196 218.5t239 110t241 31.5q74 0 167 -17.5t174.5 -71.5t123 -163
t11.5 -292l-168 -1012h-236l36 208h-12q-32 -50 -97.5 -107t-165 -97t-233.5 -40zM604 176q140 0 245.5 55t170 142t80.5 183l36 216q-18 -18 -71 -32.5t-119.5 -25t-129 -18t-100.5 -12.5q-94 -12 -178.5 -38.5t-142 -79t-71.5 -142.5q-21 -123 59 -185.5t221 -62.5z
M576 1776q27 162 155.5 267t320.5 105t285.5 -105t66.5 -267h-220q12 81 -23 140.5t-137 59.5q-108 0 -162 -61t-66 -139h-220z" />
    <glyph glyph-name="uni0204" unicode="&#x204;" horiz-adv-x="1684" 
d="M120 0l340 2048h1236l-36 -220h-988l-116 -692h924l-36 -220h-924l-116 -696h1004l-36 -220h-1252zM1024 2248l-276 364h-332l360 -364h248zM1388 2248l-192 364h-304l276 -364h220z" />
    <glyph glyph-name="uni0205" unicode="&#x205;" horiz-adv-x="1644" 
d="M728 -32q-222 0 -366 98.5t-201 276t-17 413.5q38 236 154 416.5t289 282t381 101.5q120 0 230.5 -40t191.5 -129.5t113.5 -236.5t-3.5 -362l-16 -100h-1184l32 204h944q33 195 -59.5 323.5t-284.5 128.5q-133 0 -248.5 -71.5t-192.5 -180.5t-95 -220l-28 -176
q-46 -286 63 -401t333 -115q141 0 249.5 60t174.5 180l216 -64q-84 -174 -263 -281t-413 -107zM916 1736l-276 364h-332l360 -364h248zM1280 1736l-192 364h-304l276 -364h220z" />
    <glyph glyph-name="uni0206" unicode="&#x206;" horiz-adv-x="1684" 
d="M120 0l340 2048h1236l-36 -220h-988l-116 -692h924l-36 -220h-924l-116 -696h1004l-36 -220h-1252zM688 2288q27 162 155.5 267t320.5 105t285.5 -105t66.5 -267h-220q12 81 -23 140.5t-137 59.5q-108 0 -162 -61t-66 -139h-220z" />
    <glyph glyph-name="uni0207" unicode="&#x207;" horiz-adv-x="1644" 
d="M728 -32q-222 0 -366 98.5t-201 276t-17 413.5q38 236 154 416.5t289 282t381 101.5q120 0 230.5 -40t191.5 -129.5t113.5 -236.5t-3.5 -362l-16 -100h-1184l32 204h944q33 195 -59.5 323.5t-284.5 128.5q-133 0 -248.5 -71.5t-192.5 -180.5t-95 -220l-28 -176
q-46 -286 63 -401t333 -115q141 0 249.5 60t174.5 180l216 -64q-84 -174 -263 -281t-413 -107zM580 1776q27 162 155.5 267t320.5 105t285.5 -105t66.5 -267h-220q12 81 -23 140.5t-137 59.5q-108 0 -162 -61t-66 -139h-220z" />
    <glyph glyph-name="uni0208" unicode="&#x208;" horiz-adv-x="744" 
d="M708 2048l-340 -2048h-248l340 2048h248zM548 2248l-276 364h-332l360 -364h248zM912 2248l-192 364h-304l276 -364h220z" />
    <glyph glyph-name="uni0209" unicode="&#x209;" horiz-adv-x="668" 
d="M88 0l256 1536h236l-256 -1536h-236zM432 1740l-276 364h-332l360 -364h248zM796 1740l-192 364h-304l276 -364h220z" />
    <glyph glyph-name="uni020A" unicode="&#x20a;" horiz-adv-x="744" 
d="M708 2048l-340 -2048h-248l340 2048h248zM212 2288q27 162 155.5 267t320.5 105t285.5 -105t66.5 -267h-220q12 81 -23 140.5t-137 59.5q-108 0 -162 -61t-66 -139h-220z" />
    <glyph glyph-name="uni020B" unicode="&#x20b;" horiz-adv-x="668" 
d="M88 0l256 1536h236l-256 -1536h-236zM96 1780q27 162 155.5 267t320.5 105t285.5 -105t66.5 -267h-220q12 81 -23 140.5t-137 59.5q-108 0 -162 -61t-66 -139h-220z" />
    <glyph glyph-name="uni020C" unicode="&#x20c;" horiz-adv-x="2144" 
d="M2016 1008q-54 -320 -207 -552.5t-374 -358t-479 -125.5q-266 0 -452.5 130.5t-266 370t-25.5 567.5q54 320 207 552.5t375 358t482 125.5q264 0 449.5 -130.5t265 -370t25.5 -567.5zM1780 1040q44 262 -13 441t-189 271t-314 92q-190 0 -360 -96.5t-291 -283
t-165 -456.5q-44 -262 13 -441t189 -271t314 -92q190 0 360 96.5t291 283t165 456.5zM1248 2248l-276 364h-332l360 -364h248zM1612 2248l-192 364h-304l276 -364h220z" />
    <glyph glyph-name="uni020D" unicode="&#x20d;" horiz-adv-x="1680" 
d="M724 -32q-212 0 -354.5 101t-201.5 283t-20 424q38 236 152 411.5t283 272t373 96.5q212 0 355 -101.5t202 -284t19 -426.5q-38 -234 -152 -408.5t-283 -271t-373 -96.5zM728 180q162 0 282 83t194.5 218.5t99.5 294.5q24 150 -2 279.5t-111 209t-239 79.5
q-162 0 -282 -84t-194 -221t-100 -295q-24 -150 2 -278.5t111 -207t239 -78.5zM936 1736l-276 364h-332l360 -364h248zM1300 1736l-192 364h-304l276 -364h220z" />
    <glyph glyph-name="uni020E" unicode="&#x20e;" horiz-adv-x="2144" 
d="M2016 1008q-54 -320 -207 -552.5t-374 -358t-479 -125.5q-266 0 -452.5 130.5t-266 370t-25.5 567.5q54 320 207 552.5t375 358t482 125.5q264 0 449.5 -130.5t265 -370t25.5 -567.5zM1780 1040q44 262 -13 441t-189 271t-314 92q-190 0 -360 -96.5t-291 -283
t-165 -456.5q-44 -262 13 -441t189 -271t314 -92q190 0 360 96.5t291 283t165 456.5zM912 2288q27 162 155.5 267t320.5 105t285.5 -105t66.5 -267h-220q12 81 -23 140.5t-137 59.5q-108 0 -162 -61t-66 -139h-220z" />
    <glyph glyph-name="uni020F" unicode="&#x20f;" horiz-adv-x="1680" 
d="M724 -32q-212 0 -354.5 101t-201.5 283t-20 424q38 236 152 411.5t283 272t373 96.5q212 0 355 -101.5t202 -284t19 -426.5q-38 -234 -152 -408.5t-283 -271t-373 -96.5zM728 180q162 0 282 83t194.5 218.5t99.5 294.5q24 150 -2 279.5t-111 209t-239 79.5
q-162 0 -282 -84t-194 -221t-100 -295q-24 -150 2 -278.5t111 -207t239 -78.5zM600 1776q27 162 155.5 267t320.5 105t285.5 -105t66.5 -267h-220q12 81 -23 140.5t-137 59.5q-108 0 -162 -61t-66 -139h-220z" />
    <glyph glyph-name="uni0210" unicode="&#x210;" horiz-adv-x="1764" 
d="M120 0l340 2048h684q244 0 381.5 -86t184 -229t18.5 -313q-33 -210 -154.5 -353t-313.5 -215l304 -852h-288l-276 796h-596l40 228h504q180 0 291.5 51.5t169 141t75.5 203.5q16 96 -3.5 190t-105 156t-267.5 62h-436l-304 -1828h-248zM1064 2248l-276 364h-332l360 -364
h248zM1428 2248l-192 364h-304l276 -364h220z" />
    <glyph glyph-name="uni0211" unicode="&#x211;" horiz-adv-x="1080" 
d="M88 0l256 1536h228l-40 -232h16q60 114 181.5 185t262.5 71q122 0 184 -56l-112 -196q-21 12 -54 18t-78 6q-112 0 -207.5 -47t-159.5 -128t-81 -185l-160 -972h-236zM644 1736l-276 364h-332l360 -364h248zM1008 1736l-192 364h-304l276 -364h220z" />
    <glyph glyph-name="uni0212" unicode="&#x212;" horiz-adv-x="1764" 
d="M120 0l340 2048h684q244 0 381.5 -86t184 -229t18.5 -313q-33 -210 -154.5 -353t-313.5 -215l304 -852h-288l-276 796h-596l40 228h504q180 0 291.5 51.5t169 141t75.5 203.5q16 96 -3.5 190t-105 156t-267.5 62h-436l-304 -1828h-248zM728 2288q27 162 155.5 267
t320.5 105t285.5 -105t66.5 -267h-220q12 81 -23 140.5t-137 59.5q-108 0 -162 -61t-66 -139h-220z" />
    <glyph glyph-name="uni0213" unicode="&#x213;" horiz-adv-x="1080" 
d="M88 0l256 1536h228l-40 -232h16q60 114 181.5 185t262.5 71q122 0 184 -56l-112 -196q-21 12 -54 18t-78 6q-112 0 -207.5 -47t-159.5 -128t-81 -185l-160 -972h-236zM388 1776q27 162 155.5 267t320.5 105t285.5 -105t66.5 -267h-220q12 81 -23 140.5t-137 59.5
q-108 0 -162 -61t-66 -139h-220z" />
    <glyph glyph-name="uni0214" unicode="&#x214;" horiz-adv-x="2088" 
d="M1804 2048h248l-224 -1356q-39 -230 -175 -393t-331 -249t-410 -86q-217 0 -384 86t-249 249t-43 393l224 1356h248l-224 -1356q-27 -160 30 -270.5t172 -168t262 -57.5q145 0 279.5 57.5t230 168t122.5 270.5zM1224 2248l-276 364h-332l360 -364h248zM1588 2248
l-192 364h-304l276 -364h220z" />
    <glyph glyph-name="uni0215" unicode="&#x215;" horiz-adv-x="1636" 
d="M1160 628l152 908h236l-256 -1536h-236l44 260h-16q-72 -117 -201 -198.5t-303 -81.5q-144 0 -245.5 63.5t-144 192t-10.5 324.5l164 976h236l-160 -960q-27 -168 51 -268t225 -100q88 0 186.5 45t176 138t101.5 237zM912 1736l-276 364h-332l360 -364h248zM1276 1736
l-192 364h-304l276 -364h220z" />
    <glyph glyph-name="uni0216" unicode="&#x216;" horiz-adv-x="2088" 
d="M1804 2048h248l-224 -1356q-39 -230 -175 -393t-331 -249t-410 -86q-217 0 -384 86t-249 249t-43 393l224 1356h248l-224 -1356q-27 -160 30 -270.5t172 -168t262 -57.5q145 0 279.5 57.5t230 168t122.5 270.5zM888 2288q27 162 155.5 267t320.5 105t285.5 -105
t66.5 -267h-220q12 81 -23 140.5t-137 59.5q-108 0 -162 -61t-66 -139h-220z" />
    <glyph glyph-name="uni0217" unicode="&#x217;" horiz-adv-x="1636" 
d="M1160 628l152 908h236l-256 -1536h-236l44 260h-16q-72 -117 -201 -198.5t-303 -81.5q-144 0 -245.5 63.5t-144 192t-10.5 324.5l164 976h236l-160 -960q-27 -168 51 -268t225 -100q88 0 186.5 45t176 138t101.5 237zM576 1776q27 162 155.5 267t320.5 105t285.5 -105
t66.5 -267h-220q12 81 -23 140.5t-137 59.5q-108 0 -162 -61t-66 -139h-220z" />
    <glyph glyph-name="uni0218" unicode="&#x218;" horiz-adv-x="1796" 
d="M1492 1520q0 165 -109 250.5t-295 85.5q-204 0 -344 -96.5t-164 -243.5q-13 -82 17 -140.5t85.5 -97t119.5 -63t118 -39.5l200 -56q75 -21 167 -58t172 -100.5t122.5 -162.5t18.5 -243q-28 -166 -136.5 -300t-286 -213t-413.5 -79q-220 0 -369.5 71t-220 198t-54.5 295
h256q-10 -116 46 -191.5t156 -112t222 -36.5q142 0 262.5 46.5t200 130t97.5 195.5q18 102 -28 166t-133 104t-191 70l-240 72q-228 69 -346.5 197t-85.5 335q30 172 145 300.5t285 200t366 71.5q198 0 339 -71.5t210 -197t51 -287.5h-240zM880 -164l-20 -124
q-24 -132 -90 -287.5t-162 -272.5l-196 40q48 80 91 170.5t74 180t43 165.5l20 128h240z" />
    <glyph glyph-name="uni0219" unicode="&#x219;" horiz-adv-x="1472" 
d="M1376 1192l-224 -60q-12 54 -41.5 104.5t-90 83t-164.5 32.5q-141 0 -245 -64.5t-119 -163.5q-15 -87 40 -139t184 -85l220 -56q392 -101 340 -416q-22 -132 -115 -236t-238 -164t-323 -60q-237 0 -374 102.5t-146 297.5l236 56q9 -123 88.5 -185.5t223.5 -62.5
q165 0 275 70.5t125 169.5q15 81 -31.5 135t-160.5 81l-244 60q-204 51 -285.5 156t-54.5 264q22 130 112.5 230t228 157t299.5 57q228 0 341 -99.5t143 -264.5zM744 -128l-20 -124q-24 -132 -90 -287.5t-162 -272.5l-196 40q48 80 91 170.5t74 180t43 165.5l20 128h240z
" />
    <glyph glyph-name="uni021A" unicode="&#x21a;" horiz-adv-x="1808" 
d="M312 1828l36 220h1536l-36 -220h-644l-304 -1828h-248l304 1828h-644zM888 -128l-20 -124q-24 -132 -90 -287.5t-162 -272.5l-196 40q48 80 91 170.5t74 180t43 165.5l20 128h240z" />
    <glyph glyph-name="uni021B" unicode="&#x21b;" horiz-adv-x="1040" 
d="M1012 1536l-32 -200h-796l32 200h796zM508 1904h236l-244 -1464q-16 -100 5.5 -149.5t66 -66t96.5 -16.5q39 0 64 4.5t40 7.5l16 -212q-27 -9 -72.5 -18.5t-111.5 -9.5q-100 0 -188 43t-135 131t-25 222zM552 -128l-20 -124q-24 -132 -90 -287.5t-162 -272.5l-196 40
q48 80 91 170.5t74 180t43 165.5l20 128h240z" />
    <glyph glyph-name="uni021C" unicode="&#x21c;" horiz-adv-x="1776" 
d="M252 444l32 208q248 71 443 147.5t335.5 170t225.5 214.5t112 280q21 135 -63 235.5t-309 100.5q-106 0 -202.5 -41t-163 -114t-82.5 -169h-284q28 170 141 295t278 193t349 68q218 0 367.5 -65.5t216 -193t36.5 -313.5q-30 -180 -151.5 -336.5t-314 -285.5t-439 -228.5
t-527.5 -165.5zM1116 872l168 156q106 -42 174 -118.5t92 -191t-2 -270.5q-40 -244 -165.5 -418t-320 -293.5t-445 -199.5t-541.5 -137l40 228q328 64 570 163t388 258t186 403q20 120 12.5 202.5t-46 135t-110.5 82.5z" />
    <glyph glyph-name="uni021D" unicode="&#x21d;" horiz-adv-x="1520" 
d="M220 288l36 204q131 30 268 77t257.5 116.5t203 167t103.5 227.5q12 81 -39.5 148.5t-204.5 67.5q-126 0 -223.5 -65.5t-112.5 -158.5h-272q22 136 116 235.5t233 154t295 54.5q258 0 389 -111.5t95 -324.5q-25 -153 -131.5 -282t-268 -231t-354 -172.5t-390.5 -106.5z
M864 624l176 140q90 -42 144 -117t72 -174t0 -213q-44 -260 -193 -435t-398 -278t-593 -147l36 216q236 50 421 124.5t302 198t149 321.5q21 129 -7 227t-109 137z" />
    <glyph glyph-name="uni021E" unicode="&#x21e;" horiz-adv-x="2084" 
d="M120 0l340 2048h248l-152 -912h1092l152 912h248l-340 -2048h-248l152 916h-1092l-152 -916h-248zM1120 2632l200 -240l284 240h192l-4 -16l-428 -376h-136l-304 376l4 16h192z" />
    <glyph glyph-name="uni021F" unicode="&#x21f;" horiz-adv-x="1664" 
d="M476 924l-152 -924h-236l340 2048h236l-124 -752h20q72 120 192.5 190t303.5 70q156 0 263.5 -62.5t152 -191t12.5 -326.5l-164 -976h-236l160 960q30 183 -48.5 283.5t-243.5 100.5q-174 0 -307 -109.5t-169 -310.5zM404 2628l200 -240l284 240h192l-4 -16l-428 -376
h-136l-304 376l4 16h192z" />
    <glyph glyph-name="uni0220" unicode="&#x220;" horiz-adv-x="1776" 
d="M1396 -572h-276l316 1928q26 156 -13.5 255t-133 146t-229.5 47q-171 0 -303.5 -39t-240.5 -105l36 220q68 42 154 76.5t185 55t205 20.5q190 0 344 -75t232 -225t40 -376zM640 2004l-332 -2004h-272l332 2004h272z" />
    <glyph glyph-name="uni0221" unicode="&#x221;" horiz-adv-x="2024" 
d="M1192 348h236l-80 -512q-18 -102 29.5 -155t122.5 -53q72 0 125 45.5t63 114.5q10 63 -20 104.5t-92 51.5q-70 12 -132.5 -14.5t-115.5 -73.5l-436 -380l-128 156l364 320q113 100 240.5 150t239.5 50q164 0 258.5 -99.5t65.5 -264.5q-28 -162 -153.5 -263t-310.5 -101
q-155 0 -237.5 65.5t-108.5 165t-10 201.5zM1372 0h-228l38 236h-28q-34 -42 -92.5 -105.5t-155.5 -113t-245 -49.5q-192 0 -323 97.5t-184.5 276t-12.5 422.5q40 242 152.5 420t276 275t357.5 97q150 0 230 -49.5t116 -112t55 -102.5h20l126 756h236zM1266 768
q44 258 -42.5 417t-302.5 159q-150 0 -261.5 -76.5t-182.5 -207t-99 -292.5q-26 -164 2 -297.5t114 -212t234 -78.5q213 0 353.5 163.5t184.5 424.5z" />
    <glyph glyph-name="uni0222" unicode="&#x222;" horiz-adv-x="1776" 
d="M944 1212h32q214 0 375.5 -69t240 -205t44.5 -338q-36 -212 -160 -351.5t-307 -208t-397 -68.5h-32q-214 0 -375 68.5t-239 207t-42 348.5q34 204 157 341t306 206t397 69zM940 996h-32q-216 0 -361.5 -98t-178.5 -302t81.5 -296t330.5 -92h32q216 0 361.5 92.5
t178.5 299.5q33 201 -81.5 298.5t-330.5 97.5zM936 1232h56q126 0 236 25t185 90t95 185q21 129 -34.5 190t-181.5 94l36 216q152 -8 266 -63t169 -163t29 -274q-32 -192 -156 -305t-303 -162t-377 -49h-56q-198 0 -360 49t-247 162t-53 305q26 166 117.5 274t224 163
t282.5 63l-36 -216q-132 -33 -207.5 -94t-96.5 -190q-20 -120 33 -185t154 -90t225 -25z" />
    <glyph glyph-name="uni0223" unicode="&#x223;" horiz-adv-x="1776" 
d="M944 1208h32q214 0 374.5 -68t238 -203t43.5 -337q-36 -212 -159 -351.5t-305 -208t-396 -68.5h-32q-214 0 -374 68.5t-237 207t-41 348.5q34 204 156 340t304 204t396 68zM944 1000h-32q-216 0 -365.5 -100t-182.5 -304t81.5 -304t330.5 -100h32q213 0 364 100.5
t184 307.5q33 201 -83 300.5t-329 99.5zM992 1220q126 0 237.5 29.5t188 106t98.5 216.5q27 150 -27 231.5t-177 132.5l36 204q148 -6 259 -73.5t163 -192t22 -302.5q-34 -206 -157.5 -328t-302 -175t-376.5 -53h-56q-198 0 -358.5 53t-244 175t-49.5 328q30 178 123 302.5
t227 192t286 73.5l-36 -204q-135 -51 -216 -132.5t-108 -231.5q-22 -140 31 -216.5t155 -106t226 -29.5h56z" />
    <glyph glyph-name="uni0224" unicode="&#x224;" horiz-adv-x="1760" 
d="M924 220h184q189 0 281.5 -112t62.5 -292l-20 -120h-224l12 76q10 58 1.5 110t-44 85t-105.5 33h-184zM924 220l-36 -220h-836l32 180l1376 1648h-1116l36 220h1412l-28 -180l-1380 -1648h540z" />
    <glyph glyph-name="uni0225" unicode="&#x225;" horiz-adv-x="1520" 
d="M1012 -320l12 76q10 64 3.5 119.5t-43 90t-116.5 34.5h-820l32 200l1052 1116h-880l36 220h1184l-32 -188l-1048 -1128h512q195 0 283 -116.5t61 -287.5l-24 -136h-212z" />
    <glyph glyph-name="uni0226" unicode="&#x226;" horiz-adv-x="1904" 
d="M204 0h-260l1092 2048h256l412 -2048h-260l-324 1724h-16zM432 800h1048l-36 -220h-1048zM1232 2296q-69 0 -118.5 47t-49.5 113t49.5 113t118.5 47t118.5 -47t49.5 -113t-49.5 -113t-118.5 -47z" />
    <glyph glyph-name="uni0227" unicode="&#x227;" horiz-adv-x="1588" 
d="M536 -36q-146 0 -256 55.5t-163 161t-29 255.5q23 132 89 214.5t160.5 130t204 71t218.5 36.5q142 18 231 29t134 35t55 80q24 150 -41.5 233t-230.5 83q-168 0 -277 -74t-163 -158l-208 80q82 140 196 218.5t239 110t241 31.5q74 0 167 -17.5t174.5 -71.5t123 -163
t11.5 -292l-168 -1012h-236l36 208h-12q-32 -50 -97.5 -107t-165 -97t-233.5 -40zM604 176q140 0 245.5 55t170 142t80.5 183l36 216q-18 -18 -71 -32.5t-119.5 -25t-129 -18t-100.5 -12.5q-94 -12 -178.5 -38.5t-142 -79t-71.5 -142.5q-21 -123 59 -185.5t221 -62.5z
M1012 1784q-69 0 -118.5 47t-49.5 113t49.5 113t118.5 47t118.5 -47t49.5 -113t-49.5 -113t-118.5 -47z" />
    <glyph glyph-name="uni0228" unicode="&#x228;" horiz-adv-x="1684" 
d="M120 0l340 2048h1236l-36 -220h-988l-116 -692h924l-36 -220h-924l-116 -696h1004l-36 -220h-1252zM620 8h196l-32 -80q78 -12 133.5 -65.5t34.5 -170.5q-21 -129 -141 -210.5t-327 -81.5l20 156q93 0 158.5 29.5t77.5 98.5t-35 94t-161 34z" />
    <glyph glyph-name="uni0229" unicode="&#x229;" horiz-adv-x="1644" 
d="M728 -32q-222 0 -366 98.5t-201 276t-17 413.5q38 236 154 416.5t289 282t381 101.5q120 0 230.5 -40t191.5 -129.5t113.5 -236.5t-3.5 -362l-16 -100h-1184l32 204h944q33 195 -59.5 323.5t-284.5 128.5q-133 0 -248.5 -71.5t-192.5 -180.5t-95 -220l-28 -176
q-46 -286 63 -401t333 -115q141 0 249.5 60t174.5 180l216 -64q-84 -174 -263 -281t-413 -107zM600 8h196l-32 -80q78 -12 133.5 -65.5t34.5 -170.5q-21 -129 -141 -210.5t-327 -81.5l20 156q93 0 158.5 29.5t77.5 98.5t-35 94t-161 34z" />
    <glyph glyph-name="uni022A" unicode="&#x22a;" horiz-adv-x="2144" 
d="M2016 1008q-54 -320 -207 -552.5t-374 -358t-479 -125.5q-266 0 -452.5 130.5t-266 370t-25.5 567.5q54 320 207 552.5t375 358t482 125.5q264 0 449.5 -130.5t265 -370t25.5 -567.5zM1780 1040q44 262 -13 441t-189 271t-314 92q-190 0 -360 -96.5t-291 -283
t-165 -456.5q-44 -262 13 -441t189 -271t314 -92q190 0 360 96.5t291 283t165 456.5zM1888 2888l-32 -208h-936l32 208h936zM864 2416q9 66 57 111t123 45q78 0 111.5 -45t24.5 -111q-12 -63 -59 -105.5t-125 -42.5t-111 44t-21 104zM1508 2416q9 63 57.5 107.5t126.5 44.5
q75 0 108 -44.5t24 -107.5q-12 -60 -59 -106t-125 -46t-111 44.5t-21 107.5z" />
    <glyph glyph-name="uni022B" unicode="&#x22b;" horiz-adv-x="1680" 
d="M724 -32q-212 0 -354.5 101t-201.5 283t-20 424q38 236 152 411.5t283 272t373 96.5q212 0 355 -101.5t202 -284t19 -426.5q-38 -234 -152 -408.5t-283 -271t-373 -96.5zM728 180q162 0 282 83t194.5 218.5t99.5 294.5q24 150 -2 279.5t-111 209t-239 79.5
q-162 0 -282 -84t-194 -221t-100 -295q-24 -150 2 -278.5t111 -207t239 -78.5zM580 1896q9 63 57.5 107.5t126.5 44.5t109.5 -46t22.5 -106q-9 -63 -57 -105.5t-123 -42.5q-78 0 -111.5 42.5t-24.5 105.5zM1172 1892q9 63 55.5 109.5t124.5 46.5t111.5 -46.5t24.5 -109.5
q-9 -60 -57.5 -104t-126.5 -44t-109.5 44t-22.5 104zM1596 2416l-36 -208h-940l36 208h940z" />
    <glyph glyph-name="uni022C" unicode="&#x22c;" horiz-adv-x="2144" 
d="M2016 1008q-54 -320 -207 -552.5t-374 -358t-479 -125.5q-266 0 -452.5 130.5t-266 370t-25.5 567.5q54 320 207 552.5t375 358t482 125.5q264 0 449.5 -130.5t265 -370t25.5 -567.5zM1780 1040q44 262 -13 441t-189 271t-314 92q-190 0 -360 -96.5t-291 -283
t-165 -456.5q-44 -262 13 -441t189 -271t314 -92q190 0 360 96.5t291 283t165 456.5zM1628 2540l116 -32q-18 -102 -96 -177t-180 -75q-74 0 -115 26t-77 52t-96 26q-45 0 -82 -38t-46 -86l-112 32q15 99 92 177.5t176 78.5q62 0 104.5 -25t84 -50t99.5 -25q45 0 84 32.5
t48 83.5zM1892 2888l-32 -208h-940l32 208h940z" />
    <glyph glyph-name="uni022D" unicode="&#x22d;" horiz-adv-x="1680" 
d="M724 -32q-212 0 -354.5 101t-201.5 283t-20 424q38 236 152 411.5t283 272t373 96.5q212 0 355 -101.5t202 -284t19 -426.5q-38 -234 -152 -408.5t-283 -271t-373 -96.5zM728 180q162 0 282 83t194.5 218.5t99.5 294.5q24 150 -2 279.5t-111 209t-239 79.5
q-162 0 -282 -84t-194 -221t-100 -295q-24 -150 2 -278.5t111 -207t239 -78.5zM1372 2104l184 -16q-18 -104 -71.5 -180.5t-129 -118t-159.5 -41.5q-69 0 -111.5 19.5t-74.5 44.5t-68.5 44.5t-93.5 19.5q-54 0 -100.5 -46t-55.5 -106l-180 8q18 102 70.5 180.5t127 123
t158.5 44.5q76 0 125.5 -32t98 -64t120.5 -32q57 0 104 44.5t56 107.5zM1600 2456l-36 -208h-940l36 208h940z" />
    <glyph glyph-name="uni022E" unicode="&#x22e;" horiz-adv-x="2144" 
d="M2016 1008q-54 -320 -207 -552.5t-374 -358t-479 -125.5q-266 0 -452.5 130.5t-266 370t-25.5 567.5q54 320 207 552.5t375 358t482 125.5q264 0 449.5 -130.5t265 -370t25.5 -567.5zM1780 1040q44 262 -13 441t-189 271t-314 92q-190 0 -360 -96.5t-291 -283
t-165 -456.5q-44 -262 13 -441t189 -271t314 -92q190 0 360 96.5t291 283t165 456.5zM1348 2296q-69 0 -118.5 47t-49.5 113t49.5 113t118.5 47t118.5 -47t49.5 -113t-49.5 -113t-118.5 -47z" />
    <glyph glyph-name="uni022F" unicode="&#x22f;" horiz-adv-x="1680" 
d="M724 -32q-212 0 -354.5 101t-201.5 283t-20 424q38 236 152 411.5t283 272t373 96.5q212 0 355 -101.5t202 -284t19 -426.5q-38 -234 -152 -408.5t-283 -271t-373 -96.5zM728 180q162 0 282 83t194.5 218.5t99.5 294.5q24 150 -2 279.5t-111 209t-239 79.5
q-162 0 -282 -84t-194 -221t-100 -295q-24 -150 2 -278.5t111 -207t239 -78.5zM1036 1784q-69 0 -118.5 47t-49.5 113t49.5 113t118.5 47t118.5 -47t49.5 -113t-49.5 -113t-118.5 -47z" />
    <glyph glyph-name="uni0230" unicode="&#x230;" horiz-adv-x="2144" 
d="M2016 1008q-54 -320 -207 -552.5t-374 -358t-479 -125.5q-266 0 -452.5 130.5t-266 370t-25.5 567.5q54 320 207 552.5t375 358t482 125.5q264 0 449.5 -130.5t265 -370t25.5 -567.5zM1780 1040q44 262 -13 441t-189 271t-314 92q-190 0 -360 -96.5t-291 -283
t-165 -456.5q-44 -262 13 -441t189 -271t314 -92q190 0 360 96.5t291 283t165 456.5zM1184 2416q9 63 57.5 107.5t126.5 44.5t111.5 -44.5t24.5 -107.5q-12 -63 -61 -107.5t-127 -44.5t-111 44.5t-21 107.5zM1892 2888l-32 -208h-940l32 208h940z" />
    <glyph glyph-name="uni0231" unicode="&#x231;" horiz-adv-x="1680" 
d="M724 -32q-212 0 -354.5 101t-201.5 283t-20 424q38 236 152 411.5t283 272t373 96.5q212 0 355 -101.5t202 -284t19 -426.5q-38 -234 -152 -408.5t-283 -271t-373 -96.5zM728 180q162 0 282 83t194.5 218.5t99.5 294.5q24 150 -2 279.5t-111 209t-239 79.5
q-162 0 -282 -84t-194 -221t-100 -295q-24 -150 2 -278.5t111 -207t239 -78.5zM872 1892q9 66 57 111t123 45q81 0 113 -46.5t23 -109.5q-12 -63 -59 -105.5t-125 -42.5q-75 0 -109.5 42.5t-22.5 105.5zM1592 2412l-32 -208h-940l32 208h940z" />
    <glyph glyph-name="uni0232" unicode="&#x232;" horiz-adv-x="1880" 
d="M288 2048h284l412 -956h24l724 956h284l-940 -1204l-140 -844h-248l140 844zM1712 2528l-32 -204h-940l32 204h940z" />
    <glyph glyph-name="uni0233" unicode="&#x233;" horiz-adv-x="1568" 
d="M136 -596q-60 0 -106.5 9.5t-61.5 18.5l92 208q82 -22 148.5 -15.5t127 58t124.5 165.5l76 140l-312 1548h256l220 -1224h16l628 1224h256l-956 -1784q-64 -118 -140.5 -195t-168 -115t-199.5 -38zM1464 2016l-32 -204h-940l32 204h940z" />
    <glyph glyph-name="uni0234" unicode="&#x234;" horiz-adv-x="964" 
d="M144 336h236l-8 -47t-19.5 -118.5t-24.5 -148.5t-22.5 -139t-13.5 -87q-12 -69 36.5 -118.5t123.5 -49.5q72 0 123.5 45.5t60.5 114.5q12 72 -27 112t-117 40q-96 0 -172 -53t-148 -119l-328 -292l-128 156l364 320q57 50 118 87t123.5 62.5t123 38t115.5 12.5
q110 0 189 -45t115 -127t16 -192q-16 -108 -79 -190t-162 -128t-223 -46q-115 0 -189.5 38t-114 101.5t-50 140t1.5 152.5zM664 2048l-340 -2048h-236l340 2048h236z" />
    <glyph glyph-name="uni0235" unicode="&#x235;" horiz-adv-x="2152" 
d="M1092 152h236l-20 -124q-9 -69 38 -118.5t122 -49.5q72 0 124.5 45.5t63.5 114.5q12 72 -29 112t-119 40q-64 0 -118 -24.5t-103 -63.5t-99 -84l-328 -292l-124 156l364 320q56 49 116 86.5t121 62.5t121.5 38t117.5 13q110 0 189.5 -45t116.5 -127t18 -192
q-27 -162 -152.5 -263t-311.5 -101q-115 0 -190 38t-115 101.5t-50 140t3 152.5zM476 924l-152 -924h-236l256 1536h228l-40 -240h20q72 117 195 188.5t297 71.5q154 0 260.5 -63.5t151 -192t12.5 -324.5l-164 -976h-236l160 960q30 180 -46.5 282t-241.5 102
q-171 0 -299.5 -109.5t-164.5 -310.5z" />
    <glyph glyph-name="uni0236" unicode="&#x236;" horiz-adv-x="1364" 
d="M592 1904h236l-260 -1564q-13 -69 35.5 -118.5t124.5 -49.5q71 0 127 45.5t69 114.5q11 72 -34 112t-122 40q-97 0 -171.5 -53t-148.5 -119l-328 -292l-128 156l368 320q73 66 154.5 110.5t164 67t157.5 22.5q109 0 190 -45t120 -127t22 -192q-19 -108 -84 -190
t-165 -128t-223 -46q-116 0 -191.5 38t-115 101.5t-49.5 140t4 152.5zM1080 1536l-32 -200h-796l32 200h796z" />
    <glyph glyph-name="uni0237" unicode="&#x237;" horiz-adv-x="668" 
d="M344 1536h236l-272 -1648q-24 -142 -90.5 -246t-174 -161t-255.5 -57h-48l36 220h44q108 0 169.5 63.5t82.5 180.5z" />
    <glyph glyph-name="uni0238" unicode="&#x238;" horiz-adv-x="2544" 
d="M2408 756l-8 -28q-36 -216 -132.5 -387t-242 -270t-329.5 -99q-144 0 -243.5 50t-158 144.5t-79 229.5t-7.5 304l16 88q44 170 109 304.5t154 229t204 144.5t257 50q188 0 302.5 -96t154 -267t3.5 -397zM2124 728l8 28q22 144 6.5 265t-86 194t-212.5 73
q-122 0 -213 -54.5t-154 -143t-101 -190.5l-48 -312q6 -96 38 -185t103 -146t195 -57q134 0 229 72t153 192t82 264zM1052 288l304 1824h276l-352 -2112h-252zM132 728l8 28q36 226 138 397t251 267t327 96q188 0 300 -88t155 -251t25 -389l-16 -88q-58 -226 -155 -389
t-238 -251t-331 -88q-174 0 -290.5 99t-163 270t-10.5 387zM416 756l-8 -28q-24 -144 -5 -264t91 -192t206 -72q124 0 212.5 53.5t151 142t108.5 192.5l48 312q-2 102 -34 190.5t-104 143t-194 54.5q-136 0 -233.5 -73t-157 -194t-81.5 -265z" />
    <glyph glyph-name="uni0239" unicode="&#x239;" horiz-adv-x="2544" 
d="M912 -572l292 1776l72 284h228l-24 -284l-292 -1776h-276zM132 728l8 28q36 226 134.5 397t248 267t337.5 96q143 0 242.5 -50t159.5 -144.5t82 -229t8 -304.5l-16 -88q-43 -169 -109.5 -304t-157.5 -229.5t-206.5 -144.5t-258.5 -50q-186 0 -303.5 99t-161 270t-7.5 387
zM416 756l-8 -28q-24 -144 -3 -266t95 -196t208 -74q124 0 214.5 55.5t155 146t110.5 194.5l48 312q-2 102 -36 192.5t-108 147t-196 56.5q-136 0 -235.5 -75t-161 -198t-83.5 -267zM2404 756l-8 -28q-36 -216 -131.5 -387t-241 -270t-331.5 -99q-144 0 -245 48.5
t-161.5 139.5t-84 220.5t-13.5 291.5l20 116q60 226 160 389t243 251t333 88t304 -96t153 -267t3 -397zM2120 728l8 28q22 144 1.5 265t-94 194t-211.5 73q-120 0 -210.5 -54.5t-154 -143t-103.5 -190.5l-56 -340q12 -96 46 -180t105 -136t193 -52q136 0 233.5 74t158 196
t84.5 266z" />
    <glyph glyph-name="uni023A" unicode="&#x23a;" horiz-adv-x="1904" 
d="M1828 2308l-1340 -2568h-228l1340 2568h228zM204 0h-260l1092 2048h256l412 -2048h-260l-324 1724h-16zM432 800h1048l-36 -220h-1048z" />
    <glyph glyph-name="uni023B" unicode="&#x23b;" horiz-adv-x="2048" 
d="M292 -260l1340 2568h228l-1340 -2568h-228zM2000 1408h-244q-6 142 -73.5 239t-177 147t-241.5 50q-190 0 -360 -96.5t-291 -283t-165 -456.5q-44 -262 13 -441t189 -271t314 -92q140 0 272 50t235 147t157 239h248q-55 -157 -148.5 -281t-215.5 -210.5t-263 -131.5
t-293 -45q-266 0 -452.5 130.5t-266 370t-25.5 567.5q54 320 207 552.5t375 358t482 125.5q208 0 370 -79.5t256 -229t98 -359.5z" />
    <glyph glyph-name="uni023C" unicode="&#x23c;" horiz-adv-x="1572" 
d="M1636 2048l-1484 -2624h-192l1488 2624h188zM708 -32q-217 0 -355.5 102t-192.5 281t-16 409q38 234 154 413.5t289 281t381 101.5q242 0 387.5 -132t140.5 -348h-236q-10 105 -89.5 186.5t-234.5 81.5q-138 0 -254 -71.5t-195 -201t-107 -303.5q-46 -267 53.5 -427.5
t310.5 -160.5q137 0 247 71t165 197h236q-44 -136 -141 -244.5t-235 -172t-308 -63.5z" />
    <glyph glyph-name="uni023D" unicode="&#x23d;" horiz-adv-x="1584" 
d="M120 0l340 2048h248l-304 -1828h952l-36 -220h-1200zM-36 964l32 184h880l-32 -184h-880z" />
    <glyph glyph-name="uni023E" unicode="&#x23e;" horiz-adv-x="1808" 
d="M188 -260l1340 2568h228l-1340 -2568h-228zM312 1828l36 220h1536l-36 -220h-644l-304 -1828h-248l304 1828h-644z" />
    <glyph glyph-name="uni023F" unicode="&#x23f;" horiz-adv-x="1472" 
d="M296 348q93 -232 149 -375.5t91.5 -219t65.5 -102.5t70 -27q54 0 119.5 33t104.5 63l64 -160q-51 -45 -137 -90.5t-167 -45.5q-88 0 -150.5 38t-109.5 109.5t-88 172.5l-204 500zM1376 1192l-224 -60q-12 54 -41.5 104.5t-90 83t-164.5 32.5q-141 0 -245 -64.5
t-119 -163.5q-15 -87 40 -139t184 -85l220 -56q392 -101 340 -416q-22 -132 -115 -236t-238 -164t-323 -60q-237 0 -374 102.5t-146 297.5l236 56q9 -123 88.5 -185.5t223.5 -62.5q165 0 275 70.5t125 169.5q15 81 -31.5 135t-160.5 81l-244 60q-204 51 -285.5 156
t-54.5 264q22 130 112.5 230t228 157t299.5 57q228 0 341 -99.5t143 -264.5z" />
    <glyph glyph-name="uni0240" unicode="&#x240;" horiz-adv-x="1516" 
d="M392 220h60q126 0 212 -41.5t144 -107t98 -139.5t74 -139.5t72 -107t92 -41.5q38 0 73 10t67 27t60 39l64 -160q-51 -45 -134 -90.5t-182 -45.5q-90 0 -147.5 41.5t-97.5 107t-77 139.5t-83.5 139.5t-117.5 107t-181 41.5h-32zM392 220l-36 -220h-308l32 200l1052 1116
h-880l36 220h1184l-32 -188z" />
    <glyph glyph-name="uni0241" unicode="&#x241;" horiz-adv-x="1520" 
d="M640 624h60q156 0 253 73.5t149 189t74 241.5l28 160q15 93 11 182.5t-36.5 162.5t-101.5 116t-185 43q-150 0 -252.5 -88t-135.5 -232h-268q32 160 129 286.5t243 200t324 73.5q228 0 361.5 -103.5t180 -273t14.5 -367.5l-28 -160q-32 -198 -134.5 -367.5t-270 -273
t-395.5 -103.5h-60zM856 624l-104 -624h-288l104 624h288z" />
    <glyph glyph-name="uni0242" unicode="&#x242;" horiz-adv-x="1520" 
d="M224 964q28 170 122.5 294t231 191t290.5 67q188 0 307.5 -65.5t166 -193t14.5 -313.5q-22 -138 -94 -251.5t-205 -181t-337 -67.5h-64l28 172h60q106 0 176.5 43t110 118t53.5 171q16 94 0 173t-76 127t-176 48q-126 0 -217 -95.5t-115 -236.5h-276zM616 616h276
l-104 -616h-276z" />
    <glyph glyph-name="uni0243" unicode="&#x243;" horiz-adv-x="1988" 
d="M280 0l340 2048h716q214 0 341 -73.5t174 -197t21 -273.5q-33 -198 -149 -295t-251 -133l-4 -20q92 -6 177 -66t131 -172t20 -274q-26 -154 -117 -277t-254 -195t-405 -72h-740zM564 220h492q243 0 361.5 94.5t142.5 229.5q16 104 -22.5 192.5t-127 142t-222.5 53.5h-504
zM720 1148h460q112 0 210 44t164 124t82 188q24 135 -54 229.5t-282 94.5h-468zM40 484l32 184h880l-32 -184h-880z" />
    <glyph glyph-name="uni0244" unicode="&#x244;" horiz-adv-x="2088" 
d="M2164 1188l-24 -164h-2104l24 164h2104zM1804 2048h248l-224 -1356q-39 -230 -175 -393t-331 -249t-410 -86q-217 0 -384 86t-249 249t-43 393l224 1356h248l-224 -1356q-27 -160 30 -270.5t172 -168t262 -57.5q145 0 279.5 57.5t230 168t122.5 270.5z" />
    <glyph glyph-name="uni0245" unicode="&#x245;" horiz-adv-x="2032" 
d="M1444 0l-300 1688l-20 316h220l412 -2004h-312zM1188 1688l-852 -1688h-312l1072 2004h220z" />
    <glyph glyph-name="uni0246" unicode="&#x246;" horiz-adv-x="1684" 
d="M1668 2308l-1168 -2568h-228l1168 2568h228zM120 0l340 2048h1236l-36 -220h-988l-116 -692h924l-36 -220h-924l-116 -696h1004l-36 -220h-1252z" />
    <glyph glyph-name="uni0247" unicode="&#x247;" horiz-adv-x="1644" 
d="M1636 2048l-1484 -2624h-192l1488 2624h188zM728 -32q-222 0 -366 98.5t-201 276t-17 413.5q38 236 154 416.5t289 282t381 101.5q120 0 230.5 -40t191.5 -129.5t113.5 -236.5t-3.5 -362l-16 -100h-1184l32 204h944q33 195 -59.5 323.5t-284.5 128.5q-133 0 -248.5 -71.5
t-192.5 -180.5t-95 -220l-28 -176q-46 -286 63 -401t333 -115q141 0 249.5 60t174.5 180l216 -64q-84 -174 -263 -281t-413 -107z" />
    <glyph glyph-name="uni0248" unicode="&#x248;" horiz-adv-x="1560" 
d="M1004 592l240 1456h248l-244 -1472q-32 -196 -121.5 -330.5t-228 -204t-318.5 -69.5q-172 0 -296 62t-182 175.5t-34 270.5h236q-19 -136 59.5 -212t220.5 -76q164 0 275.5 104t144.5 296zM776 1124l32 184h880l-32 -184h-880z" />
    <glyph glyph-name="uni0249" unicode="&#x249;" horiz-adv-x="668" 
d="M344 1536h236l-272 -1648q-24 -142 -90.5 -246t-174 -161t-255.5 -57h-48l36 220h44q108 0 169.5 63.5t82.5 180.5zM-104 800l32 184h880l-32 -184h-880zM528 1788q-69 0 -118.5 47t-49.5 113t49.5 113t118.5 47t118.5 -47t49.5 -113t-49.5 -113t-118.5 -47z" />
    <glyph glyph-name="uni024A" unicode="&#x24a;" horiz-adv-x="2196" 
d="M2108 2048l-368 -2212q-19 -120 38 -164t154 -44q20 0 40 2.5t36 5.5l-32 -200q-29 -9 -66 -10.5t-74 -1.5q-84 0 -152 27t-114 80t-64 129.5t-2 175.5l80 488h-16q-105 -171 -281.5 -263.5t-382.5 -92.5q-192 0 -338.5 77.5t-239 219t-123 337t8.5 430.5q37 228 131 419
t232.5 331t311 217t365.5 77q210 0 356.5 -91t195.5 -253h24l52 316h228zM940 204q233 0 386.5 110t244.5 296.5t137 417.5q29 230 -5 417t-150 297t-333 110q-191 0 -350 -107t-267.5 -293t-146.5 -424q-43 -254 6 -439t173 -285t305 -100z" />
    <glyph glyph-name="uni024B" unicode="&#x24b;" horiz-adv-x="1800" 
d="M1440 -576q-84 0 -151.5 27t-113.5 80t-64 129.5t-3 175.5l20 100h236l-20 -100q-12 -80 10.5 -125.5t70 -64t111.5 -18.5q21 0 41 2.5t35 5.5l-32 -200q-30 -9 -67 -10.5t-73 -1.5zM664 -32q-192 0 -322.5 97.5t-184 276t-13.5 422.5q40 242 153 420t277 275t358 97
q113 0 184.5 -29t113 -72.5t64.5 -88t38 -74.5h116l-176 -1056h-116q-32 -42 -90.5 -105.5t-156 -113t-245.5 -49.5zM1364 -64h-236l68 428l144 388l12 496l48 288h228zM732 180q213 0 353.5 163.5t182.5 424.5q42 258 -43 417t-301 159q-150 0 -262.5 -76.5t-184 -207
t-97.5 -292.5q-28 -164 0.5 -297.5t116 -212t235.5 -78.5z" />
    <glyph glyph-name="uni024C" unicode="&#x24c;" horiz-adv-x="1788" 
d="M420 800h-380l36 224h380zM144 0l340 2048h684q244 0 381.5 -86t184 -229t18.5 -313q-33 -210 -154.5 -353t-313.5 -215l304 -852h-288l-276 796h-596l40 228h504q180 0 291.5 51.5t169 141t75.5 203.5q16 96 -3.5 190t-105 156t-267.5 62h-436l-304 -1828h-248z" />
    <glyph glyph-name="uni024D" unicode="&#x24d;" horiz-adv-x="1080" 
d="M88 0l256 1536h228l-40 -232h16q60 114 181.5 185t262.5 71q122 0 184 -56l-112 -196q-21 12 -54 18t-78 6q-112 0 -207.5 -47t-159.5 -128t-81 -185l-160 -972h-236zM-124 644l32 184h880l-32 -184h-880z" />
    <glyph glyph-name="uni024E" unicode="&#x24e;" horiz-adv-x="1880" 
d="M2016 1628l-28 -164h-1864l28 164h1864zM288 2048h284l412 -956h24l724 956h284l-940 -1204l-140 -844h-248l140 844z" />
    <glyph glyph-name="uni024F" unicode="&#x24f;" horiz-adv-x="1568" 
d="M1516 1096l-32 -184h-1344l32 184h1344zM136 -596q-60 0 -106.5 9.5t-61.5 18.5l92 208q82 -22 148.5 -15.5t127 58t124.5 165.5l76 140l-312 1548h256l220 -1224h16l628 1224h256l-956 -1784q-64 -118 -140.5 -195t-168 -115t-199.5 -38z" />
    <glyph glyph-name="uni0250" unicode="&#x250;" horiz-adv-x="1588" 
d="M1052 1572q146 0 256 -55.5t163 -161t29 -255.5q-22 -132 -88 -214.5t-160.5 -130t-204 -70.5t-219.5 -37q-142 -18 -231 -29t-134 -35t-55 -80q-24 -150 41.5 -233t230.5 -83q168 0 277 74t163 158l208 -80q-82 -140 -196 -218.5t-239 -110t-241 -31.5
q-73 0 -166.5 17.5t-175 71.5t-123 163t-11.5 292l168 1012h236l-36 -208h12q32 50 97.5 107t165 97t233.5 40zM984 1360q-140 0 -245.5 -55t-170 -142t-80.5 -183l-36 -216q18 18 71 32.5t119.5 25t129.5 18.5t100 12q94 12 178.5 38.5t142 79t71.5 142.5q21 123 -59 185.5
t-221 62.5z" />
    <glyph glyph-name="uni0251" unicode="&#x251;" horiz-adv-x="1800" 
d="M664 -32q-196 2 -325.5 106.5t-180 288t-10.5 421.5q36 226 145.5 400t270 273t348.5 99q216 0 325 -121t151 -307l96 8l-28 -372l72 -764h-224l-4 62t-10.5 159.5t-13 206.5t-12.5 205.5t-8 154.5q-3 69 -17 163t-49.5 184t-104 149.5t-181.5 59.5q-124 0 -233 -76.5
t-187 -211t-108 -308.5q-26 -162 1 -290.5t101 -203t190 -74.5q114 0 208 63t168 158t126 195.5t82 175.5l292 764h224l-308 -772l-100 -376l-76 -8q-111 -186 -263.5 -300.5t-356.5 -111.5z" />
    </font>
</defs>
</svg>
