<?xml version="1.0" standalone="no"?>
<!DOCTYPE svg PUBLIC "-//W3C//DTD SVG 1.1//EN" "http://www.w3.org/Graphics/SVG/1.1/DTD/svg11.dtd" >
<svg xmlns="http://www.w3.org/2000/svg" xmlns:xlink="http://www.w3.org/1999/xlink" version="1.1">
<metadata>
Created by FontForge 20170731 at Thu Oct 11 09:41:54 2018
 By Aleksey,,,
Copyright 2018 The Inter UI project authors
</metadata>
<defs>
<font id="InterUI-MediumItalic" horiz-adv-x="0" >
  <font-face 
    font-family="Inter UI Medium"
    font-weight="500"
    font-style="italic"
    font-stretch="normal"
    units-per-em="2816"
    panose-1="2 11 6 2 3 0 0 0 0 4"
    ascent="2252"
    descent="-564"
    x-height="1536"
    cap-height="2048"
    bbox="-2147 -1107 4524 2981"
    underline-thickness="187"
    underline-position="-794"
    slope="9.39999"
    unicode-range="U+0020-1F16B"
  />
<missing-glyph horiz-adv-x="2852" 
d="M262 768l17 512h2327l-16 -512h-2328zM286 1472l16 512h2328l-17 -512h-2327zM216 -640l17 512h2327l-17 -512h-2327zM239 64l17 512h2327l-17 -512h-2327zM309 2176l17 512h2327l-17 -512h-2327z" />
    <glyph glyph-name=".notdef" horiz-adv-x="2852" 
d="M262 768l17 512h2327l-16 -512h-2328zM286 1472l16 512h2328l-17 -512h-2327zM216 -640l17 512h2327l-17 -512h-2327zM239 64l17 512h2327l-17 -512h-2327zM309 2176l17 512h2327l-17 -512h-2327z" />
    <glyph glyph-name=".null" 
 />
    <glyph glyph-name="nonmarkingreturn" horiz-adv-x="938" 
 />
    <glyph glyph-name="uni0020" unicode=" " horiz-adv-x="746" 
 />
    <glyph glyph-name="uni0021" unicode="!" horiz-adv-x="829" 
d="M790 2048l-268 -1459h-276l215 1459h329zM300 -30q-88 0 -143 59t-48 145q7 85 73 144.5t153 59.5q88 0 143.5 -59t47.5 -145q-7 -86 -72.5 -145t-153.5 -59z" />
    <glyph glyph-name="uni0022" unicode="&#x22;" horiz-adv-x="1223" 
d="M666 2048l-120 -729h-248l120 729h248zM1179 2048l-120 -729h-248l120 729h248z" />
    <glyph glyph-name="uni0023" unicode="#" horiz-adv-x="1838" 
d="M239 0l175 567h-306l55 215h318l145 470h-311l59 220h320l175 564h222l-174 -564h374l175 564h223l-175 -564h303l-58 -220h-314l-146 -470h307l-55 -215h-319l-176 -567h-220l175 567h-374l-175 -567h-223zM704 782h374l145 470h-374z" />
    <glyph glyph-name="uni0024" unicode="$" horiz-adv-x="1812" 
d="M669 -256l41 224q-312 16 -471 175t-129 423h311q-14 -147 80.5 -230.5t258.5 -96.5l124 672l-124 36q-507 146 -443 541q29 168 140.5 299.5t278.5 206t363 81.5l42 229h128l-43 -231q272 -23 417.5 -180.5t116.5 -394.5h-298q1 131 -73 209t-212 97l-118 -639l83 -23
q563 -145 492 -576q-21 -125 -86 -231t-165.5 -185t-240 -127t-304.5 -56l-41 -223h-128zM888 240q175 16 296.5 105.5t143.5 223.5q9 52 -3 94.5t-38 73.5t-71.5 57.5t-94 45t-115.5 37.5zM937 1197l113 611q-171 -10 -285.5 -93.5t-134.5 -208.5q-9 -55 6 -101.5t44 -78
t75.5 -58t88 -42t93.5 -29.5z" />
    <glyph glyph-name="uni0025" unicode="%" horiz-adv-x="2332" 
d="M1202 384l20 108q30 181 162.5 303.5t325.5 122.5q131 0 217 -59t116 -154t11 -213l-20 -108q-30 -181 -161 -303.5t-324 -122.5q-131 0 -217.5 59t-117.5 154t-12 213zM368 1556l16 108q30 181 162 303.5t325 122.5q99 0 173.5 -34t114.5 -92t56.5 -135.5t-0.5 -164.5
l-16 -108q-31 -182 -161.5 -304t-323.5 -122q-131 0 -217.5 59t-117.5 154.5t-11 212.5zM285 0l1551 2048h242l-1551 -2048h-242zM1455 492l-20 -108q-7 -59 -0.5 -109t44.5 -83.5t103 -33.5q94 0 148.5 65t69.5 161l20 108q9 43 5 84t-17.5 72.5t-47 50.5t-83.5 19
q-93 0 -149.5 -65t-72.5 -161zM618 1664l-16 -108q-18 -95 16 -160.5t129 -65.5q93 0 146.5 64t72.5 162l16 108q7 59 1.5 109.5t-43 83.5t-102.5 33q-93 0 -149 -65.5t-71 -160.5z" />
    <glyph glyph-name="uni0026" unicode="&#x26;" horiz-adv-x="1827" 
d="M92 544q14 89 53.5 166t107.5 145t142 123.5t182 122.5q-88 136 -126 247.5t-17 237.5q34 214 199 349t397 135q115 0 206 -36t145 -97.5t76 -142t6 -170.5q-23 -140 -111 -252t-238 -210l-156 -103l328 -490q112 164 144 361h270q-58 -359 -264 -584l231 -346h-337
l-111 162q-115 -93 -264.5 -142t-295.5 -49q-201 0 -340.5 75t-197 204t-29.5 294zM1084 359l-369 540l-61 -40q-122 -80 -188.5 -165t-75.5 -142q-22 -137 65 -232.5t249 -95.5q194 0 380 135zM825 1258l141 89q99 59 153 120.5t69 148.5q12 77 -42 140.5t-153 63.5
q-103 0 -183.5 -72.5t-98.5 -166.5q-11 -72 19 -148.5t95 -174.5z" />
    <glyph glyph-name="uni0027" unicode="'" horiz-adv-x="612" 
d="M640 2048l-120 -729h-248l120 729h248z" />
    <glyph glyph-name="uni0028" unicode="(" horiz-adv-x="1064" 
d="M302 850q122 734 599 1275h274q-183 -200 -343.5 -561t-219.5 -714q-58 -360 -17 -717.5t158 -558.5h-275q-298 549 -176 1276z" />
    <glyph glyph-name="uni0029" unicode=")" horiz-adv-x="1064" 
d="M789 849q-122 -734 -599 -1275h-274q183 200 343.5 561t219.5 714q58 360 17 717.5t-158 558.5h275q298 -549 176 -1276z" />
    <glyph glyph-name="uni002A" unicode="*" horiz-adv-x="1469" 
d="M646 896l92 422l-392 -229l-77 190l405 193l-348 193l141 190l320 -229l51 422h217l-89 -422l389 229l80 -190l-405 -193l348 -193l-141 -190l-320 229l-54 -422h-217z" />
    <glyph glyph-name="uni002B" unicode="+" horiz-adv-x="1766" 
d="M1573 1026l-43 -260h-516l-84 -510h-261l84 510h-515l42 260h517l84 510h261l-84 -510h515z" />
    <glyph glyph-name="uni002C" unicode="," horiz-adv-x="810" 
d="M510 280l-35 -109q-69 -233 -293 -671h-212q8 21 43 115t61 166t60.5 182.5t57.5 204.5l30 112h288z" />
    <glyph glyph-name="uni002D" unicode="-" horiz-adv-x="1318" 
d="M1154 999l-12 -250h-944l12 250h944z" />
    <glyph glyph-name="uni002E" unicode="." horiz-adv-x="798" 
d="M292 -19q-84 0 -139 58t-52 142q2 82 64 139t145 57q82 0 139 -58t53 -138q-5 -83 -67 -141.5t-143 -58.5z" />
    <glyph glyph-name="uni002F" unicode="/" horiz-adv-x="1035" 
d="M1209 2144l-1064 -2452h-267l1064 2452h267z" />
    <glyph glyph-name="uni0030" unicode="0" horiz-adv-x="1811" 
d="M790 -34q-231 0 -380 129.5t-198 368t3 576.5q83 487 319 761.5t574 274.5q230 0 378 -130t196.5 -368t-3.5 -574q-82 -489 -317.5 -763.5t-571.5 -274.5zM802 232q207 0 364.5 216.5t217.5 591.5q61 366 -14 570t-275 204q-209 0 -366.5 -217.5t-218.5 -593.5
q-61 -364 16 -567.5t276 -203.5z" />
    <glyph glyph-name="uni0031" unicode="1" horiz-adv-x="1264" 
d="M1118 2048l-340 -2048h-299l271 1631h-17q-39 -53 -166 -102.5t-285 -49.5l40 254q85 0 166 27.5t137.5 66t105.5 86t73.5 80t36.5 55.5h277z" />
    <glyph glyph-name="uni0032" unicode="2" horiz-adv-x="1735" 
d="M77 0l39 224l810 718q218 196 309 307.5t112 236.5q25 151 -61.5 241.5t-246.5 90.5q-165 0 -283.5 -100t-146.5 -264h-296q23 138 93 254.5t172.5 197t233 125.5t272.5 45q189 0 324 -79.5t192.5 -213.5t31.5 -298q-30 -178 -157 -343t-440 -436l-477 -426l-3 -15h914
l-44 -265h-1348z" />
    <glyph glyph-name="uni0033" unicode="3" horiz-adv-x="1818" 
d="M794 -28q-157 0 -285 41t-212.5 114t-123 178t-21.5 229h309q-14 -133 82.5 -214.5t259.5 -81.5q191 0 327 95.5t160 256.5q24 148 -76.5 240t-308.5 92h-179l42 252h164q172 0 298.5 96t151.5 250q23 136 -52.5 217t-227.5 81q-163 0 -293 -83t-155 -219h-298
q30 162 141.5 291t274.5 199t346 70q147 0 263.5 -46.5t186.5 -125t99.5 -183.5t10.5 -221q-26 -164 -137 -280t-282 -158l-17 -13q195 -32 291.5 -169t62.5 -336q-27 -168 -138 -298.5t-284 -202t-380 -71.5z" />
    <glyph glyph-name="uni0034" unicode="4" horiz-adv-x="1842" 
d="M94 400l40 250l1117 1398h381l-230 -1386h272l-43 -262h-273l-66 -400h-295l66 400h-969zM1110 662l168 1018h-16l-800 -1002v-16h648z" />
    <glyph glyph-name="uni0035" unicode="5" horiz-adv-x="1746" 
d="M754 -28q-187 0 -328.5 72.5t-211 201.5t-49.5 288h297q-11 -132 76 -217t236 -85q180 0 320 123.5t170 313.5q29 184 -65.5 302.5t-273.5 118.5q-96 0 -197.5 -33.5t-169.5 -85.5l-290 45l284 1032h1139l-46 -278h-869l-158 -560l9 3q70 61 172.5 97t214.5 36
q133 0 245 -53t186.5 -144.5t106 -221.5t8.5 -277q-24 -146 -96 -271.5t-177.5 -215t-243.5 -140.5t-289 -51z" />
    <glyph glyph-name="uni0036" unicode="6" horiz-adv-x="1790" 
d="M798 -28q-83 0 -157.5 16t-147 50t-128.5 89t-101.5 133t-67 182t-24 236.5t26.5 295.5q88 527 337.5 817t604.5 290q270 0 430.5 -157t154.5 -407h-296q-5 137 -82 215t-221 78q-229 0 -393.5 -197t-226.5 -558l16 19q100 129 240.5 198.5t299.5 69.5q135 0 247.5 -52
t185.5 -143t103 -220.5t5 -276.5q-24 -143 -95 -268t-175 -216t-243 -143t-293 -51zM808 232q180 0 325.5 131.5t175.5 319.5q28 172 -63.5 290t-259.5 118q-180 0 -329 -133.5t-178 -314.5q-18 -110 16.5 -204t117 -150.5t195.5 -56.5z" />
    <glyph glyph-name="uni0037" unicode="7" horiz-adv-x="1630" 
d="M138 0l1187 1768l4 15h-1034l43 265h1354l-46 -274l-1185 -1774h-323z" />
    <glyph glyph-name="uni0038" unicode="8" horiz-adv-x="1777" 
d="M769 -28q-214 0 -371.5 77t-229.5 211t-45 299q32 188 171.5 330.5t318.5 172.5l16 12q-148 38 -223 167t-44 301q43 232 247.5 383t481.5 151q188 0 329 -72.5t206.5 -200.5t38.5 -286q-27 -162 -138 -285t-265 -158l-16 -12q171 -34 268 -183.5t64 -344.5
q-28 -161 -140 -289.5t-287 -200.5t-382 -72zM788 225q194 0 327 97t158 256q25 157 -72.5 255t-274.5 98q-185 0 -323.5 -106.5t-164.5 -271.5q-24 -152 69 -240t281 -88zM945 1178q160 0 277 94t143 245q25 141 -54 223.5t-236 82.5q-164 0 -279.5 -91.5t-141.5 -240.5
q-22 -143 58.5 -228t232.5 -85z" />
    <glyph glyph-name="uni0039" unicode="9" horiz-adv-x="1790" 
d="M1081 2081q72 -1 138 -13t130.5 -37.5t118.5 -67t100 -98t76.5 -135t47 -173t13.5 -216.5t-26 -262q-88 -527 -337 -817t-604 -290q-271 0 -431 157t-155 407h297q5 -138 81 -216t221 -78q229 0 394 197t226 559l-16 -19q-101 -129 -241 -199t-299 -70q-135 0 -247 52.5
t-185.5 143t-103.5 220t-5 276.5q25 143 95.5 268t174.5 216.5t243.5 143.5t293.5 51zM1070 1821q-180 0 -325.5 -131.5t-174.5 -319.5q-28 -172 63 -290t259 -118q180 0 329 133.5t178 314.5q28 169 -65 290t-264 121z" />
    <glyph glyph-name="uni003A" unicode=":" horiz-adv-x="796" 
d="M295 -19q-84 0 -139 58t-52 142q2 82 64 139t145 57q82 0 139 -58t53 -138q-5 -83 -67 -141.5t-143 -58.5zM480 1099q-84 0 -139 58t-52 142q2 82 64 139t145 57q82 0 139 -58t53 -138q-5 -83 -67 -141.5t-143 -58.5z" />
    <glyph glyph-name="uni003B" unicode=";" horiz-adv-x="808" 
d="M510 280l-35 -109q-69 -233 -293 -671h-212q8 21 43 115t61 166t60.5 182.5t57.5 204.5l30 112h288zM485 1110q-84 0 -139 58t-52 142q2 82 64 139t145 57q82 0 139 -58t53 -138q-5 -83 -67 -141.5t-143 -58.5z" />
    <glyph glyph-name="uni003C" unicode="&#x3c;" horiz-adv-x="1317" 
d="M1055 353l-213 -178l-708 721l923 721l178 -178l-700 -539l-3 -8z" />
    <glyph glyph-name="uni003D" unicode="=" horiz-adv-x="1767" 
d="M299 737h1163l-45 -258h-1163zM392 1313h1163l-42 -258h-1163z" />
    <glyph glyph-name="uni003E" unicode="&#x3e;" horiz-adv-x="1318" 
d="M247 175l-177 178l699 539l3 8l-522 539l212 178l708 -721z" />
    <glyph glyph-name="uni003F" unicode="?" horiz-adv-x="1480" 
d="M498 589q16 111 43 197.5t60 148t81.5 112.5t97.5 86t119 74q235 133 265 327q21 130 -53 210t-205 80q-126 0 -230 -78t-136 -227h-304q35 175 143 303t255.5 191t317.5 63q275 0 417 -150.5t101 -394.5q-49 -309 -363 -480q-104 -59 -164.5 -116.5t-98.5 -139
t-59 -206.5h-287zM570 -30q-87 0 -142.5 59t-48.5 145q7 85 73.5 144.5t153.5 59.5q88 0 143.5 -59t47.5 -145q-7 -86 -73 -145t-154 -59z" />
    <glyph glyph-name="uni0040" unicode="@" horiz-adv-x="2725" 
d="M1623 1994q141 0 266 -23.5t225 -67.5t184 -106.5t143.5 -140t103 -168t62.5 -190.5t23 -208.5t-17 -221.5q-23 -138 -53 -251t-82.5 -227t-120 -192t-168.5 -128t-225 -52q-89 -3 -163.5 19.5t-122.5 76t-47 130.5h-12q-52 -96 -174.5 -158.5t-283.5 -55.5
q-249 10 -365 200t-65 499q24 144 87.5 265t151 204t192.5 134t216 64q153 18 265 -27t124 -115h13l19 112h246l-155 -928q-12 -82 22 -135.5t109 -53.5q133 0 209 146.5t132 482.5q32 190 -5.5 352.5t-136.5 280t-265 184.5t-381 67q-237 0 -437.5 -74t-348.5 -210.5
t-246 -330.5t-137 -432q-82 -500 139 -767.5t724 -267.5q248 0 554 103l36 -219q-112 -47 -296 -84t-347 -37q-619 0 -897.5 332t-179.5 942q48 294 174.5 532t316 402.5t443 253.5t551.5 89zM1410 1154q-164 0 -279 -117t-145 -296q-10 -73 -11.5 -141t16.5 -127.5
t49.5 -103.5t88 -69t132.5 -25q191 0 293.5 114t142.5 353q37 224 -31.5 318t-255.5 94z" />
    <glyph glyph-name="uni0041" unicode="A" horiz-adv-x="1971" 
d="M270 0h-328l1077 2048h357l397 -2048h-328l-97 542h-800zM682 802h620l-156 874h-16z" />
    <glyph glyph-name="uni0042" unicode="B" horiz-adv-x="1842" 
d="M97 0l340 2048h750q159 0 277 -41t184 -114.5t90 -170.5t4 -212q-16 -93 -55.5 -168t-96 -126.5t-121.5 -85t-141 -52.5l-4 -20q77 -4 145.5 -40t119.5 -98t73 -158.5t4 -210.5q-20 -120 -78.5 -218.5t-154 -174t-236.5 -117t-315 -41.5h-785zM450 265h446q212 0 327 82
t139 219q23 151 -70 253t-275 102h-457zM601 1162h413q159 0 279.5 89.5t141.5 234.5q24 134 -54.5 216.5t-255.5 82.5h-422z" />
    <glyph glyph-name="uni0043" unicode="C" horiz-adv-x="2071" 
d="M2025 1382h-307q-3 129 -63 223.5t-159 141.5t-226 47q-183 0 -340.5 -90.5t-271 -271t-153.5 -427.5q-30 -185 -8.5 -325t86.5 -235t166 -143t230 -48q208 0 377.5 107t241.5 299h310q-102 -308 -358.5 -498t-583.5 -190q-202 0 -362.5 74t-262 212.5t-140.5 337
t3 447.5q40 238 140.5 433.5t242.5 326t319.5 202t373.5 71.5q220 0 388 -81.5t262.5 -239.5t94.5 -373z" />
    <glyph glyph-name="uni0044" unicode="D" horiz-adv-x="2032" 
d="M769 0h-672l340 2048h675q299 0 498 -125t277.5 -359.5t24.5 -554.5q-78 -476 -377.5 -742.5t-765.5 -266.5zM451 270h331q347 0 558.5 200.5t273.5 575.5q60 358 -77.5 545t-470.5 187h-365z" />
    <glyph glyph-name="uni0045" unicode="E" horiz-adv-x="1698" 
d="M97 0l340 2048h1284l-44 -266h-975l-104 -624h908l-44 -265h-908l-104 -627h987l-44 -266h-1296z" />
    <glyph glyph-name="uni0046" unicode="F" horiz-adv-x="1650" 
d="M97 0l340 2048h1270l-44 -266h-961l-104 -624h870l-44 -265h-870l-148 -893h-309z" />
    <glyph glyph-name="uni0047" unicode="G" horiz-adv-x="2109" 
d="M200 1023q39 241 140 440t244.5 332.5t324 207t378.5 73.5q331 0 535.5 -187.5t206.5 -487.5h-319q-28 185 -147.5 289t-320.5 104q-130 0 -249.5 -51t-217 -147t-168 -242.5t-100.5 -328.5q-31 -187 -8.5 -331t90 -241.5t172.5 -148t241 -50.5q240 0 419.5 149.5
t217.5 389.5h-502l45 255h805l-41 -233q-30 -191 -119.5 -349.5t-220.5 -266.5t-299 -167.5t-353 -59.5q-207 0 -367.5 73t-258.5 209.5t-134 331t6 437.5z" />
    <glyph glyph-name="uni0048" unicode="H" horiz-adv-x="2090" 
d="M97 0l340 2048h309l-148 -890h1021l148 890h310l-340 -2048h-310l148 893h-1021l-148 -893h-309z" />
    <glyph glyph-name="uni0049" unicode="I" horiz-adv-x="759" 
d="M746 2048l-340 -2048h-309l340 2048h309z" />
    <glyph glyph-name="uni004A" unicode="J" horiz-adv-x="1581" 
d="M994 602l239 1446h308l-242 -1458q-48 -294 -237 -456t-475 -162q-133 0 -240 36.5t-179 104t-102 170t-9 229.5h300q-18 -131 51.5 -204.5t203.5 -73.5q151 0 251 96t131 272z" />
    <glyph glyph-name="uni004B" unicode="K" horiz-adv-x="1871" 
d="M97 0l340 2048h309l-161 -978h25l1020 978h389l-977 -922l640 -1126h-372l-508 915l-288 -279l-108 -636h-309z" />
    <glyph glyph-name="uni004C" unicode="L" horiz-adv-x="1589" 
d="M97 0l340 2048h309l-296 -1782h928l-44 -266h-1237z" />
    <glyph glyph-name="uni004D" unicode="M" horiz-adv-x="2528" 
d="M437 2048h375l390 -1592h24l914 1592h375l-340 -2048h-294l247 1482h-19l-850 -1479h-245l-356 1480h-19l-248 -1483h-294z" />
    <glyph glyph-name="uni004E" unicode="N" horiz-adv-x="2103" 
d="M2090 2048l-340 -2048h-284l-791 1502h-18l-251 -1502h-309l340 2048h286l792 -1504h19l250 1504h306z" />
    <glyph glyph-name="uni004F" unicode="O" horiz-adv-x="2163" 
d="M2043 1004q-40 -238 -140.5 -433t-242 -326t-319 -202t-372.5 -71q-202 0 -363 74t-263.5 212t-141.5 336.5t3 447.5q40 238 140.5 433.5t242.5 326.5t320.5 202.5t374.5 71.5q201 0 361 -74t262 -212.5t141 -337.5t-3 -448zM1742 1042q30 184 9 324.5t-86 235.5
t-166 143.5t-230 48.5q-137 0 -261.5 -52.5t-226 -151t-174 -249.5t-102.5 -337q-60 -356 74 -553t400 -197q137 0 261 52.5t225 150.5t174 248t103 337z" />
    <glyph glyph-name="uni0050" unicode="P" horiz-adv-x="1797" 
d="M97 0l340 2048h730q174 0 302 -50t199.5 -139.5t96.5 -209.5t1 -264q-24 -143 -88.5 -263t-166 -210t-247 -141t-318.5 -51h-420l-120 -720h-309zM570 982h390q217 0 341 110t153 293q30 185 -57 291.5t-306 106.5h-388z" />
    <glyph glyph-name="uni0051" unicode="Q" horiz-adv-x="2195" 
d="M2043 1004q-44 -262 -159 -469t-284 -342l278 -377h-316l-180 244q-194 -88 -413 -88q-202 0 -363 74t-263.5 212t-141.5 336.5t3 447.5q40 238 140.5 433.5t242.5 326.5t320.5 202.5t374.5 71.5q201 0 361 -74t262 -212.5t141 -337.5t-3 -448zM949 664h304l177 -239
q246 214 312 617q30 184 9 324.5t-86 235.5t-166 143.5t-230 48.5q-137 0 -261.5 -52.5t-226 -151t-174 -249.5t-102.5 -337q-60 -356 74 -553t400 -197q123 0 238 43z" />
    <glyph glyph-name="uni0052" unicode="R" horiz-adv-x="1793" 
d="M97 0l340 2048h721q121 0 220 -22.5t168.5 -63.5t120.5 -98.5t74.5 -128.5t30.5 -153t-10 -171q-32 -204 -151.5 -348.5t-310.5 -220.5l300 -842h-351l-270 782h-443l-130 -782h-309zM580 1042h381q430 0 489 367q10 46 7.5 91.5t-11.5 87t-35.5 77t-65 62t-100 41.5
t-139.5 15h-403z" />
    <glyph glyph-name="uni0053" unicode="S" horiz-adv-x="1812" 
d="M1462 1498q1 150 -96.5 230.5t-275.5 80.5q-186 0 -312.5 -85t-147.5 -218q-10 -56 6.5 -103.5t47 -79.5t79.5 -58.5t91.5 -41.5t95.5 -29l192 -52q563 -145 492 -576q-22 -130 -91.5 -240t-177.5 -190t-259 -125t-328 -45q-344 0 -522 160.5t-146 439.5h311
q-10 -108 41.5 -183.5t143.5 -110.5t214 -35q199 0 341.5 92t166.5 240q9 53 -3.5 96.5t-40 74.5t-75.5 58t-98.5 45.5t-119.5 37.5l-231 66q-507 146 -443 541q30 174 148 308.5t294.5 207t381.5 72.5q310 0 480.5 -161t138.5 -417h-298z" />
    <glyph glyph-name="uni0054" unicode="T" horiz-adv-x="1833" 
d="M292 1782l44 266h1585l-44 -266h-639l-296 -1782h-308l296 1782h-638z" />
    <glyph glyph-name="uni0055" unicode="U" horiz-adv-x="2077" 
d="M1755 2048h309l-224 -1355q-29 -169 -115.5 -307.5t-212 -229.5t-281 -140.5t-325.5 -49.5q-171 0 -311 49.5t-235.5 140.5t-135.5 229.5t-11 307.5l224 1355h309l-223 -1350q-18 -105 7.5 -190.5t85 -141.5t145.5 -86t190 -30q139 0 261 51t209.5 154.5t110.5 242.5z
" />
    <glyph glyph-name="uni0056" unicode="V" horiz-adv-x="1971" 
d="M616 2048l295 -1668h23l845 1668h334l-1077 -2048h-357l-397 2048h334z" />
    <glyph glyph-name="uni0057" unicode="W" horiz-adv-x="2754" 
d="M498 0l-228 2048h325l136 -1586h19l678 1586h322l152 -1587h20l660 1587h326l-909 -2048h-311l-175 1534h-16l-687 -1534h-312z" />
    <glyph glyph-name="uni0058" unicode="X" horiz-adv-x="1876" 
d="M647 2048l358 -801h16l622 801h363l-806 -1024l470 -1024h-357l-360 790h-16l-624 -790h-363l825 1024l-481 1024h353z" />
    <glyph glyph-name="uni0059" unicode="Y" horiz-adv-x="1934" 
d="M282 2048h352l381 -931h23l687 931h351l-949 -1244l-133 -804h-309l133 804z" />
    <glyph glyph-name="uni005A" unicode="Z" horiz-adv-x="1799" 
d="M44 0l36 206l1338 1576h-1087l44 266h1464l-33 -206l-1340 -1576h1086l-44 -266h-1464z" />
    <glyph glyph-name="uni005B" unicode="[" horiz-adv-x="1064" 
d="M122 -426l423 2551h657l-39 -237h-371l-344 -2077h371l-39 -237h-658z" />
    <glyph glyph-name="uni005C" unicode="\" horiz-adv-x="1071" 
d="M242 2048h279l350 -2356h-279z" />
    <glyph glyph-name="uni005D" unicode="]" horiz-adv-x="1064" 
d="M969 2125l-423 -2551h-657l39 237h371l344 2077h-371l39 237h658z" />
    <glyph glyph-name="uni005E" unicode="^" horiz-adv-x="1293" 
d="M937 1004l-146 636l-352 -636h-280l579 1000h228l249 -1000h-278z" />
    <glyph glyph-name="uni005F" unicode="_" horiz-adv-x="1295" 
d="M1170 0l-41 -254h-1302l42 254h1301z" />
    <glyph glyph-name="uni0060" unicode="`" horiz-adv-x="850" 
d="M686 2112l201 -414h-272l-303 414h374z" />
    <glyph glyph-name="uni0061" unicode="a" horiz-adv-x="1603" 
d="M516 -34q-148 0 -255.5 53.5t-159.5 161t-28 253.5q17 101 64.5 178t108.5 124t148.5 80.5t165.5 49t179 27.5q230 27 270 36q100 20 128 67q10 17 14 40q21 135 -40.5 206.5t-205.5 71.5q-139 0 -240 -61t-155 -153l-268 64q69 135 183.5 225t243.5 128.5t275 38.5
q48 0 93.5 -4.5t97 -16t94 -31t85 -49t70.5 -69.5t49.5 -93.5t23 -121t-9.5 -151.5l-169 -1020h-292l36 210h-12q-30 -46 -74.5 -87t-105 -77.5t-142 -58t-172.5 -21.5zM618 206q180 0 304.5 102.5t148.5 245.5l33 198q-10 -9 -30 -17t-52 -16t-57 -13t-68.5 -12t-63 -9.5
t-63.5 -8.5t-48 -6q-71 -9 -127 -25t-106.5 -43t-82 -70.5t-40.5 -101.5q-18 -108 51.5 -166t200.5 -58z" />
    <glyph glyph-name="uni0062" unicode="b" horiz-adv-x="1738" 
d="M73 0l340 2048h299l-125 -761h18q27 38 49.5 65.5t68.5 69t94 68t120.5 46.5t153.5 20q284 0 428.5 -212.5t84.5 -578.5q-30 -183 -103 -333.5t-175 -251t-229.5 -155.5t-266.5 -55q-80 0 -145.5 19.5t-105 46t-72.5 67.5t-47 69t-30 67h-25l-40 -239h-292zM494 768
q-40 -247 41.5 -395t270.5 -148q194 0 324.5 151t171.5 392q24 156 -0.5 274.5t-105.5 189t-212 70.5q-192 0 -321 -144.5t-169 -389.5z" />
    <glyph glyph-name="uni0063" unicode="c" horiz-adv-x="1601" 
d="M718 -31q-219 0 -366 101.5t-202 280t-16 410.5q28 174 103 321.5t184.5 252t253 163t303.5 58.5q262 0 412 -141.5t136 -374.5h-291q-6 115 -82.5 189.5t-211.5 74.5q-190 0 -328.5 -145.5t-177.5 -390.5q-43 -250 46.5 -398t280.5 -148q129 0 231 70t151 194h291
q-66 -230 -258.5 -373.5t-458.5 -143.5z" />
    <glyph glyph-name="uni0064" unicode="d" horiz-adv-x="1738" 
d="M1407 0h-292l39 239h-25q-28 -39 -52 -67t-70.5 -69t-94.5 -67.5t-120 -46t-152 -19.5q-284 0 -427.5 214.5t-83.5 580.5q31 183 104 333t175.5 250t229.5 154t266 54q81 0 147 -20t105.5 -46.5t71.5 -68t45.5 -69t27.5 -65.5h18l127 761h299zM1240 768q42 245 -39 389.5
t-274 144.5q-195 0 -324.5 -147.5t-170.5 -386.5q-25 -157 -0.5 -277.5t105.5 -193t211 -72.5q189 0 319.5 148t172.5 395z" />
    <glyph glyph-name="uni0065" unicode="e" horiz-adv-x="1661" 
d="M733 -31q-224 0 -374 97.5t-207.5 276t-17.5 415.5q38 234 155.5 415.5t296 282t389.5 100.5q108 0 200.5 -27t171.5 -85t126.5 -148.5t65.5 -218t-12 -293.5l-17 -106h-1093q-38 -242 55 -352t305 -110q131 0 231 55.5t160 163.5l274 -51q-85 -190 -273 -302.5
t-436 -112.5zM454 902h798q30 178 -56.5 292.5t-258.5 114.5q-85 0 -167.5 -35.5t-145.5 -93t-108.5 -130.5t-61.5 -148z" />
    <glyph glyph-name="uni0066" unicode="f" horiz-adv-x="1044" 
d="M1065 1536l-39 -240h-334l-214 -1296h-300l217 1296h-237l39 240h238l30 178q13 84 48 155t85.5 121t114 85t133.5 52t144 17q147 0 242 -41l-109 -242q-69 23 -129 23q-107 0 -163.5 -52.5t-75.5 -157.5l-23 -138h333z" />
    <glyph glyph-name="uni0067" unicode="g" horiz-adv-x="1738" 
d="M597 -583q-235 0 -377 83t-202 217l247 160q18 -30 33 -51t48.5 -53.5t70 -53t95.5 -36t128 -15.5q118 0 218 39.5t172 123t90 198.5l41 251h-21q-27 -37 -51.5 -65t-70 -67t-94 -64t-120 -43t-152.5 -18q-137 0 -245.5 48.5t-180.5 143.5t-97 235t5 324q40 239 154 418
t275 271.5t347 92.5q82 0 148 -20t105 -46t72 -68.5t46 -68.5t29 -66h22l41 249h292l-253 -1526q-25 -145 -99 -259t-183.5 -186.5t-244.5 -110t-288 -37.5zM760 271q192 0 318 133.5t165 373.5q21 117 10 213.5t-48.5 165.5t-107.5 107t-166 38q-195 0 -326 -146.5
t-169 -377.5q-38 -232 45.5 -369.5t278.5 -137.5z" />
    <glyph glyph-name="uni0068" unicode="h" horiz-adv-x="1695" 
d="M523 912l-150 -912h-299l340 2048h295l-126 -762h19q157 270 500 270q242 0 359 -148.5t72 -430.5l-164 -977h-299l156 941q28 168 -43.5 262t-225.5 94q-163 0 -282.5 -102.5t-151.5 -282.5z" />
    <glyph glyph-name="uni0069" unicode="i" horiz-adv-x="701" 
d="M73 0l256 1536h299l-256 -1536h-299zM541 1765q-78 0 -132.5 52t-53.5 126t58 126t135 52q77 0 131.5 -52t53.5 -126t-58 -126t-134 -52z" />
    <glyph glyph-name="uni006A" unicode="j" horiz-adv-x="701" 
d="M329 1536h299l-270 -1630q-38 -231 -187.5 -356.5t-384.5 -125.5h-80l43 259h58q213 0 253 225zM538 1765q-78 0 -132.5 52t-53.5 126t58 126t135 52q77 0 131.5 -52t53.5 -126t-58 -126t-134 -52z" />
    <glyph glyph-name="uni006B" unicode="k" horiz-adv-x="1567" 
d="M73 0l340 2048h299l-193 -1162h25l722 650h358l-732 -661l518 -875h-367l-407 693l-173 -148l-91 -545h-299z" />
    <glyph glyph-name="uni006C" unicode="l" horiz-adv-x="701" 
d="M712 2048l-340 -2048h-299l340 2048h299z" />
    <glyph glyph-name="uni006D" unicode="m" horiz-adv-x="2488" 
d="M74 0l256 1536h287l-42 -250h19q70 128 191.5 199t272.5 71q149 0 243.5 -71t124.5 -199h16q75 125 208.5 197.5t297.5 72.5q214 0 321 -135.5t65 -390.5l-172 -1030h-300l168 1002q12 76 -1 134t-47 93t-82 52t-109 17q-144 0 -240.5 -88t-119.5 -231l-165 -979h-297
l171 1021q19 125 -46 201t-190 76q-130 0 -239.5 -100t-133.5 -251l-158 -947h-299z" />
    <glyph glyph-name="uni006E" unicode="n" horiz-adv-x="1682" 
d="M523 912l-150 -912h-299l256 1536h287l-42 -250h19q75 127 202.5 198.5t296.5 71.5q239 0 356 -150t71 -429l-164 -977h-299l157 941q28 167 -43 261.5t-224 94.5q-160 0 -276 -102t-148 -283z" />
    <glyph glyph-name="uni006F" unicode="o" horiz-adv-x="1699" 
d="M730 -31q-217 0 -365 100.5t-207.5 283t-20.5 421.5q57 354 284.5 568t547.5 214q217 0 365.5 -100.5t207.5 -284t20 -423.5q-57 -352 -284.5 -565.5t-547.5 -213.5zM747 220q105 0 195.5 44t155 120.5t108 176t61.5 213.5q12 87 11.5 166t-23 146t-60.5 116t-100 76.5
t-143 27.5q-105 0 -195.5 -44.5t-155 -121.5t-107.5 -176.5t-62 -214.5q-12 -87 -11.5 -165.5t23 -145t60.5 -115t100 -76t143 -27.5z" />
    <glyph glyph-name="uni0070" unicode="p" horiz-adv-x="1738" 
d="M830 -30q-80 0 -145.5 19.5t-105 46t-72.5 67.5t-47 69t-30 67h-19l-135 -815h-299l352 2112h292l-42 -249h26q27 38 49.5 65.5t68.5 69t94 68t120.5 46.5t153.5 20q139 0 248.5 -53.5t178.5 -155t93 -248.5t-7 -334q-60 -366 -274.5 -580.5t-499.5 -214.5zM806 225
q130 0 235 72.5t169.5 193t91.5 277.5q25 156 0.5 274.5t-105.5 189t-213 70.5q-192 0 -320.5 -144t-169.5 -390q-39 -247 42 -395t270 -148z" />
    <glyph glyph-name="uni0071" unicode="q" horiz-adv-x="1738" 
d="M643 -30q-285 0 -428.5 214.5t-82.5 580.5q30 183 103 333t175.5 250t230 154t266.5 54q81 0 147 -20t105.5 -46.5t71.5 -68t45.5 -69t27.5 -65.5h26l41 249h292l-348 -2112h-299l135 815h-19q-28 -39 -52 -67t-70.5 -69t-94.5 -67.5t-120 -46t-152 -19.5zM751 225
q189 0 319 148t173 395q41 245 -40 389.5t-273 144.5q-196 0 -325 -147.5t-170 -386.5q-25 -157 -0.5 -277.5t105.5 -193t211 -72.5z" />
    <glyph glyph-name="uni0072" unicode="r" horiz-adv-x="1122" 
d="M73 0l256 1536h289l-41 -244h16q61 123 178.5 195t256.5 72q122 0 189 -56l-136 -247q-49 27 -135 27q-156 0 -275.5 -97.5t-144.5 -247.5l-154 -938h-299z" />
    <glyph glyph-name="uni0073" unicode="s" horiz-adv-x="1509" 
d="M1418 1161l-279 -48q-35 206 -269 206q-130 0 -226 -59t-110 -150q-13 -74 35 -119.5t169 -75.5l236 -56q205 -49 293 -152.5t61 -268.5q-35 -207 -230 -338t-470 -131q-262 0 -407.5 111t-150.5 314l296 44q8 -113 81 -170.5t205 -57.5q146 -1 248.5 62t117.5 156
q12 72 -32 118.5t-152 71.5l-248 57q-410 96 -352 432q34 201 219 325t444 124q244 0 373 -104t148 -291z" />
    <glyph glyph-name="uni0074" unicode="t" horiz-adv-x="1060" 
d="M1046 1536l-39 -240h-317l-140 -844q-11 -51 -5 -87.5t17.5 -59.5t35.5 -36t48 -17.5t56 -4.5q37 0 105 13l16 -247q-95 -31 -202 -32q-91 -2 -166.5 23.5t-129.5 75t-77 129.5t-6 181l150 906h-224l39 240h224l61 368h299l-61 -368h316z" />
    <glyph glyph-name="uni0075" unicode="u" horiz-adv-x="1674" 
d="M1152 637l150 899h300l-256 -1536h-294l45 266h-16q-75 -129 -208 -207.5t-300 -78.5q-228 0 -340.5 150t-67.5 429l164 977h299l-157 -941q-25 -156 46 -249.5t211 -93.5q65 0 131.5 24t127 70t105.5 121.5t60 169.5z" />
    <glyph glyph-name="uni0076" unicode="v" horiz-adv-x="1595" 
d="M1643 1536l-813 -1536h-320l-302 1536h321l192 -1182h16l585 1182h321z" />
    <glyph glyph-name="uni0077" unicode="w" horiz-adv-x="2323" 
d="M406 0l-196 1536h309l113 -1128h15l490 1128h309l112 -1123h15l487 1123h309l-707 -1536h-305l-128 1109h-23l-496 -1109h-304z" />
    <glyph glyph-name="uni0078" unicode="x" horiz-adv-x="1552" 
d="M565 1536l240 -598l441 598h327l-607 -768l355 -768h-327l-250 574l-441 -574h-328l606 768l-344 768h328z" />
    <glyph glyph-name="uni0079" unicode="y" horiz-adv-x="1595" 
d="M154 -597q-64 0 -117 10.5t-77 24.5l111 248q79 -22 142.5 -19t121 49t113.5 143l64 118l-304 1559h320l190 -1192h16l588 1192h321l-932 -1760q-200 -373 -557 -373z" />
    <glyph glyph-name="uni007A" unicode="z" horiz-adv-x="1554" 
d="M42 0l35 205l996 1057l4 14h-827l43 260h1210l-36 -218l-964 -1044l-4 -14h809l-42 -260h-1224z" />
    <glyph glyph-name="uni007B" unicode="{" horiz-adv-x="1064" 
d="M780 -426q-101 0 -178 12t-139 38.5t-100.5 68.5t-61.5 102.5t-23 140.5t14 182l46 288q27 164 -28 232t-223 68l24 149h1l23 139q168 0 248 68.5t106 231.5l46 287q25 153 76 257.5t134.5 168t193.5 91t263 27.5l-39 -237q-170 0 -247 -74.5t-103 -247.5l-62 -364
q-10 -64 -31 -113.5t-61 -94.5t-107 -77t-161 -50l-6 -35q87 -18 144 -51t81 -75.5t31 -96t-5 -112.5l-62 -364q-29 -173 23 -247.5t222 -74.5z" />
    <glyph glyph-name="uni007C" unicode="|" horiz-adv-x="960" 
d="M907 2576l-525 -3181h-258l526 3181h257z" />
    <glyph glyph-name="uni007D" unicode="}" horiz-adv-x="1064" 
d="M311 2125q101 0 178 -12t139 -38.5t100.5 -68.5t61.5 -102.5t23 -140.5t-14 -182l-46 -288q-27 -164 28 -232t223 -68l-24 -149h-1l-23 -139q-168 0 -248 -68.5t-106 -231.5l-46 -287q-25 -153 -76 -257.5t-134.5 -168t-193.5 -91t-263 -27.5l39 237q170 0 247 74.5
t103 247.5l62 364q10 64 31 113.5t61 94.5t107 77t161 50l6 35q-87 18 -144 51t-81 75.5t-31 96t5 112.5l62 364q29 173 -23 247.5t-222 74.5z" />
    <glyph glyph-name="uni007E" unicode="~" horiz-adv-x="1742" 
d="M1417 1192h249q-36 -232 -176.5 -369.5t-327.5 -137.5q-201 0 -341 176q-49 66 -93 95.5t-102 29.5q-86 0 -145.5 -59t-85.5 -176h-249q40 233 180.5 367.5t323.5 134.5q191 0 336 -174q63 -71 104 -100t101 -29q84 0 144 59.5t82 182.5z" />
    <glyph glyph-name="uni00A0" unicode="&#xa0;" horiz-adv-x="746" 
 />
    <glyph glyph-name="uni00A1" unicode="&#xa1;" horiz-adv-x="827" 
d="M33 -519l268 1459h276l-215 -1459h-329zM523 1559q88 0 143 -59t48 -145q-7 -85 -73 -144.5t-153 -59.5q-88 0 -143.5 59t-47.5 145q7 86 72.5 145t153.5 59z" />
    <glyph glyph-name="uni00A2" unicode="&#xa2;" horiz-adv-x="1595" 
d="M603 -256l38 228q-194 18 -322 123.5t-174.5 277t-10.5 388.5q53 332 262.5 548.5t504.5 243.5l38 227h128l-37 -226q239 -14 374 -154t122 -360h-291q-6 104 -69.5 176t-177.5 85l-178 -1076q113 12 201 80.5t133 180.5h291q-63 -218 -241 -359.5t-426 -156.5l-37 -226
h-128zM683 229l176 1067q-161 -30 -275.5 -170.5t-148.5 -357.5q-38 -222 29 -365t219 -174z" />
    <glyph glyph-name="uni00A3" unicode="&#xa3;" horiz-adv-x="1814" 
d="M1461 0h-1400l44 266h97q39 2 72 33t54 79.5t34.5 96.5t19.5 96l31 231h-227l47 266h215l50 374q20 152 89 275t169 200t219.5 118t246.5 41q96 0 180.5 -22.5t148 -63t109 -97t68 -122.5t21 -142.5t-28.5 -154.5l-281 46q18 73 5.5 128t-50 92t-90 55.5t-114.5 18.5
q-138 0 -251 -95.5t-145 -276.5l-48 -374h474l-46 -266h-462l-29 -223q-24 -202 -131 -313h953z" />
    <glyph glyph-name="uni00A4" unicode="&#xa4;" horiz-adv-x="2075" 
d="M221 836q48 291 244 516l-162 199l200 178l164 -198q244 165 519 165q279 0 471 -171l235 204l145 -178l-239 -205q121 -224 75 -510q-46 -276 -229 -494l158 -189l-204 -178l-149 183q-256 -186 -547 -186q-289 0 -482 183l-210 -180l-141 178l216 186q-110 221 -64 497
zM453 836q-22 -128 5 -244.5t92.5 -201t167 -134.5t222.5 -50q160 0 310 84.5t253 229.5t132 316q29 172 -26.5 317.5t-177.5 229t-283 83.5q-121 0 -238.5 -49.5t-210 -133.5t-158.5 -201t-88 -246z" />
    <glyph glyph-name="uni00A5" unicode="&#xa5;" horiz-adv-x="1566" 
d="M1411 1032l-32 -202h-433l-33 -194h434l-33 -202h-434l-73 -434h-308l73 434h-443l33 202h443l33 194h-444l32 202h349l-323 1016h332l258 -926l564 926h332l-663 -1016h336z" />
    <glyph glyph-name="uni00A6" unicode="&#xa6;" horiz-adv-x="822" 
d="M239 558h274l-157 -942h-274zM760 2048l-157 -938h-273l156 938h274z" />
    <glyph glyph-name="uni00A7" unicode="&#xa7;" horiz-adv-x="1591" 
d="M1446 1556h-276q19 117 -33.5 188.5t-176.5 71.5q-110 0 -183 -56t-87 -135q-9 -52 17 -104t64 -86t85 -61l354 -211q280 -169 223 -447q-22 -111 -119.5 -206t-206.5 -127l-2 -4q128 -130 96 -340q-18 -110 -76 -198t-141.5 -143t-184 -84t-210.5 -29q-254 0 -388.5 143
t-95.5 384h280q-21 -127 48 -197.5t201 -68.5q108 0 190.5 50t97.5 143q6 39 -2 74t-21.5 58t-42.5 48.5t-47 37.5t-51 33h-1l-350 207q-283 162 -228 451q22 112 117 208t210 128v6q-124 151 -94 335q34 196 200 323.5t392 127.5q239 0 359 -145t83 -375zM1168 709
q15 71 -24 130.5t-115 102.5l-338 203q-28 19 -67 9t-75.5 -34.5t-66.5 -69.5t-39 -95q-25 -136 143 -237l327 -193q26 -18 66 -8.5t79 33t70.5 67t39.5 92.5z" />
    <glyph glyph-name="uni00A8" unicode="&#xa8;" horiz-adv-x="1587" 
d="M694 1766q-75 0 -126.5 51t-50.5 123q2 72 55.5 123t127.5 51q73 0 123.5 -51t49.5 -123t-54 -123t-125 -51zM1278 1766q-74 0 -125.5 51t-50.5 123q2 71 55.5 122.5t127.5 51.5q73 0 123.5 -51t49.5 -123t-54 -123t-126 -51z" />
    <glyph glyph-name="uni00A9" unicode="&#xa9;" horiz-adv-x="2331" 
d="M220 1004q35 213 145 404.5t265 327.5t349.5 216t394.5 80q134 0 256 -36t219 -102t173.5 -158.5t120.5 -207t59 -247t-11 -277.5q-35 -215 -145 -407t-265 -328.5t-350.5 -216.5t-396.5 -80q-200 0 -368.5 80t-278 216.5t-156 328.5t-11.5 407zM390 1004
q-29 -179 9 -339.5t128.5 -274t229.5 -180t305 -66.5q167 0 329 66.5t290.5 180t220 273.5t120.5 340q29 178 -9 337.5t-129 272.5t-231 179.5t-307 66.5q-221 0 -426.5 -112t-348 -309.5t-181.5 -434.5zM1404 820h218q-34 -211 -177 -321.5t-360 -110.5q-222 0 -329 146.5
t-68 385.5l28 164q39 239 195 385.5t378 146.5q217 0 323 -110.5t70 -321.5h-215q45 248 -210 248q-129 0 -213.5 -94.5t-112.5 -253.5l-28 -164q-25 -158 29.5 -253t184.5 -95q125 0 196 58t91 190z" />
    <glyph glyph-name="uni00AA" unicode="&#xaa;" horiz-adv-x="1300" 
d="M878 1064q-123 -112 -297 -112q-164 0 -241.5 84.5t-53.5 227.5q24 155 157.5 237t370.5 82h141l12 69q25 176 -133 176q-91 0 -148 -35t-69 -101l-235 19q24 141 157 231t327 90q186 0 279.5 -97.5t64.5 -282.5l-72 -432q-26 -136 -8 -249h-246q-6 43 -6 93zM928 1423
h-142q-114 0 -179 -43.5t-75 -108.5q-9 -58 25 -89t117 -31q54 0 116 24t106 60z" />
    <glyph glyph-name="uni00AB" unicode="&#xab;" horiz-adv-x="1370" 
d="M663 203h-228l-304 583l2 8h-2l4 20l497 581h228l-467 -593zM1176 203h-228l-304 583l2 8h-2l4 20l497 581h228l-467 -593z" />
    <glyph glyph-name="uni00AC" unicode="&#xac;" horiz-adv-x="1558" 
d="M1417 1108l-18 -108h2l-80 -484h-279l59 356h-883l40 236h1159z" />
    <glyph glyph-name="uni00AD" unicode="&#xad;" horiz-adv-x="1318" 
d="M1154 999l-12 -250h-944l12 250h944z" />
    <glyph glyph-name="uni00AE" unicode="&#xae;" horiz-adv-x="2331" 
d="M220 1004q35 213 145 404.5t265 327.5t349.5 216t394.5 80q134 0 256 -36t219 -102t173.5 -158.5t120.5 -207t59 -247t-11 -277.5q-35 -215 -145 -407t-265 -328.5t-350.5 -216.5t-396.5 -80q-200 0 -368.5 80t-278 216.5t-156 328.5t-11.5 407zM390 1004
q-29 -179 9 -339.5t128.5 -274t229.5 -180t305 -66.5q167 0 329 66.5t290.5 180t220 273.5t120.5 340q29 178 -9 337.5t-129 272.5t-231 179.5t-307 66.5q-221 0 -426.5 -112t-348 -309.5t-181.5 -434.5zM1206 900h-217l-77 -464h-210l196 1168h391q211 0 314.5 -90.5
t74.5 -264.5q-26 -164 -209 -251q151 -71 117 -290l-16 -76q-13 -118 -4 -176l-4 -20h-214q-10 36 8 161q0 3 4 35l16 76q15 98 -24 145t-146 47zM1020 1084h201q93 0 165 42.5t86 117.5q15 99 -33 137.5t-182 38.5h-181z" />
    <glyph glyph-name="uni00AF" unicode="&#xaf;" horiz-adv-x="1374" 
d="M1366 1993l-34 -214h-953l34 214h953z" />
    <glyph glyph-name="uni00B0" unicode="&#xb0;" horiz-adv-x="1224" 
d="M672 1118q-122 0 -217.5 60t-140.5 163.5t-24 224.5q30 186 186.5 319t343.5 133q92 0 170 -36t128 -96.5t71.5 -144t7.5 -175.5q-32 -185 -185 -316.5t-340 -131.5zM706 1331q98 0 181 70t99 168q16 99 -43 169.5t-157 70.5q-99 0 -183 -70.5t-100 -169.5
q-16 -98 44 -168t159 -70z" />
    <glyph glyph-name="uni00B1" unicode="&#xb1;" horiz-adv-x="1766" 
d="M1593 1147l-45 -259h-513l-71 -434h-266l71 434h-515l45 259h515l73 447h267l-74 -447h513zM1442 257l-42 -257h-1290l42 257h1290z" />
    <glyph glyph-name="uni00B2" unicode="&#xb2;" horiz-adv-x="1173" 
d="M173 1024l27 175l541 408q135 104 191 161.5t66 121.5q14 85 -38 134.5t-156 49.5q-103 0 -177 -52.5t-91 -143.5h-231q20 120 96.5 209.5t187.5 135t240 45.5q197 0 307 -106t86 -266q-18 -117 -104.5 -219t-293.5 -247l-274 -199v-8h584l-32 -199h-929z" />
    <glyph glyph-name="uni00B3" unicode="&#xb3;" horiz-adv-x="1176" 
d="M636 1008q-211 0 -331.5 100.5t-92.5 255.5h240q-11 -69 41.5 -111t155.5 -42q109 0 183.5 49t89.5 130q14 76 -45.5 121t-182.5 45h-106l30 184h93q108 0 185.5 51.5t92.5 134.5q11 65 -35.5 108.5t-139.5 43.5q-103 0 -175 -44.5t-85 -119.5h-231q25 158 164.5 256
t331.5 98q196 0 311.5 -98.5t89.5 -258.5q-15 -95 -95 -163.5t-200 -89.5l-4 -8q127 -24 194 -106.5t49 -192.5q-27 -155 -175 -249t-353 -94z" />
    <glyph glyph-name="uni00B4" unicode="&#xb4;" horiz-adv-x="1290" 
d="M515 1742l324 453h334l-403 -453h-255z" />
    <glyph glyph-name="uni00B5" unicode="&#xb5;" horiz-adv-x="1794" 
d="M-22 -570l351 2106h299l-150 -899q-28 -171 64 -278t270 -107t305 107t154 278l151 899h299l-256 -1536h-294l39 225h-12q-76 -112 -190.5 -173.5t-241.5 -61.5q-124 0 -217.5 62t-130.5 173h-12l-134 -795h-294z" />
    <glyph glyph-name="uni00B6" unicode="&#xb6;" horiz-adv-x="1699" 
d="M1066 0l298 1792h-248l-170 -1032h-116q-162 0 -284.5 48t-193.5 134.5t-97.5 204t-3.5 257.5q24 139 89 256t164.5 203.5t237.5 135.5t300 49h643l-340 -2048h-279z" />
    <glyph glyph-name="uni00B7" unicode="&#xb7;" horiz-adv-x="802" 
d="M334 826q-84 0 -139 58t-52 142q2 82 64 139t145 57q82 0 139 -58t53 -138q-5 -83 -67 -141.5t-143 -58.5z" />
    <glyph glyph-name="uni00B8" unicode="&#xb8;" horiz-adv-x="853" 
d="M206 8h196l-32 -82q94 -15 145 -74t31 -165q-21 -138 -154 -220.5t-351 -82.5l23 167q108 0 175 31.5t79 95.5q12 65 -31.5 93t-157.5 39z" />
    <glyph glyph-name="uni00B9" unicode="&#xb9;" horiz-adv-x="873" 
d="M878 2252l-204 -1228h-223l156 926h-9q-30 -35 -112.5 -63.5t-184.5 -28.5l28 196q126 0 222.5 69t112.5 129h214z" />
    <glyph glyph-name="uni00BA" unicode="&#xba;" horiz-adv-x="1298" 
d="M280 1436l16 107q36 217 189.5 353t371.5 136q146 0 246 -63t139.5 -173.5t15.5 -252.5l-16 -107q-37 -216 -188.5 -350.5t-369.5 -134.5q-222 0 -331 134.5t-73 350.5zM538 1543l-16 -107q-22 -128 27.5 -206t167.5 -78q114 0 187 78t95 206l16 107q22 126 -26 205.5
t-164 79.5q-114 0 -189.5 -79.5t-97.5 -205.5z" />
    <glyph glyph-name="uni00BB" unicode="&#xbb;" horiz-adv-x="1370" 
d="M498 203l465 595l-268 596h228l304 -582l-2 -8h2l-4 -18l-498 -583h-227zM-9 203l465 595l-268 596h228l304 -582l-2 -8h2l-4 -18l-498 -583h-227z" />
    <glyph glyph-name="uni00BC" unicode="&#xbc;" horiz-adv-x="2475" 
d="M1336 219l31 198l550 671h325l-111 -671h156l-31 -198h-158l-36 -219h-239l37 219h-524zM326 0l1551 2048h242l-1551 -2048h-242zM442 960l129 778h-16q-51 -41 -137.5 -80t-159.5 -48l34 215q67 18 133 51t112 68.5t74.5 61.5t41.5 42h205l-180 -1088h-236zM1894 414
l68 413h-14l-329 -400l-3 -13h278z" />
    <glyph glyph-name="uni00BD" unicode="&#xbd;" horiz-adv-x="2612" 
d="M2389 202l-34 -202h-848l29 170l459 364q105 84 153.5 138.5t53.5 94.5q10 66 -25.5 101t-112.5 35q-86 0 -143 -48t-69 -117h-246q25 154 159 259.5t327 105.5q190 0 284.5 -92t68.5 -244q-7 -45 -27 -86t-42 -71.5t-73 -75.5t-87.5 -74t-118.5 -91l-210 -167h502z
M326 0l1551 2048h242l-1551 -2048h-242zM442 960l129 778h-16q-51 -41 -137.5 -80t-159.5 -48l34 215q67 18 133 51t112 68.5t74.5 61.5t41.5 42h205l-180 -1088h-236z" />
    <glyph glyph-name="uni00BE" unicode="&#xbe;" horiz-adv-x="2691" 
d="M1552 219l31 198l550 671h325l-111 -671h156l-31 -198h-158l-36 -219h-239l37 219h-524zM576 944q-197 0 -298 89t-76 241h251q-11 -59 32 -94t127 -35t138.5 36.5t65.5 100.5q11 66 -35.5 104.5t-139.5 38.5h-120l30 176h119q84 0 137.5 36t61.5 98q11 60 -28.5 96
t-116.5 36q-74 0 -122.5 -30t-56.5 -83h-250q24 143 147.5 226.5t310.5 83.5q188 0 291.5 -81t81.5 -219q-17 -98 -91.5 -161t-190.5 -79l-4 -16q123 -15 181 -81.5t40 -172.5q-22 -142 -153.5 -226t-331.5 -84zM542 0l1551 2048h242l-1551 -2048h-242zM2110 414l68 413h-14
l-329 -400l-3 -13h278z" />
    <glyph glyph-name="uni00BF" unicode="&#xbf;" horiz-adv-x="1481" 
d="M980 937q-16 -111 -43 -197.5t-60 -148t-81.5 -112.5t-97.5 -86t-119 -74q-235 -133 -265 -327q-21 -130 53 -210t205 -80q126 0 230 78t136 227h304q-35 -175 -143 -303t-255.5 -191t-317.5 -63q-275 0 -417 150.5t-101 394.5q49 309 363 480q104 59 164.5 116.5
t98.5 139t59 206.5h287zM908 1556q87 0 142.5 -59t48.5 -145q-7 -85 -73.5 -144.5t-153.5 -59.5q-88 0 -143.5 59t-47.5 145q7 86 73 145t154 59z" />
    <glyph glyph-name="uni00C0" unicode="&#xc0;" horiz-adv-x="1971" 
d="M270 0h-328l1077 2048h357l397 -2048h-328l-97 542h-800zM682 802h620l-156 874h-16zM1195 2615l201 -414h-272l-303 414h374z" />
    <glyph glyph-name="uni00C1" unicode="&#xc1;" horiz-adv-x="1971" 
d="M270 0h-328l1077 2048h357l397 -2048h-328l-97 542h-800zM682 802h620l-156 874h-16zM1086 2201l324 453h334l-403 -453h-255z" />
    <glyph glyph-name="uni00C2" unicode="&#xc2;" horiz-adv-x="1971" 
d="M270 0h-328l1077 2048h357l397 -2048h-328l-97 542h-800zM682 802h620l-156 874h-16zM995 2234h-245l1 15l453 380h178l325 -380l-1 -15h-244l-198 224z" />
    <glyph glyph-name="uni00C3" unicode="&#xc3;" horiz-adv-x="1971" 
d="M270 0h-328l1077 2048h357l397 -2048h-328l-97 542h-800zM682 802h620l-156 874h-16zM940 2226l-204 3q24 152 131.5 257t239.5 105q50 0 98.5 -19.5t81 -42.5t79 -42.5t94.5 -19.5q54 0 99 41t53 103l204 -3q-23 -153 -132 -257.5t-242 -104.5q-50 0 -91 13t-68.5 31
t-53.5 36.5t-61 31.5t-76 13q-54 0 -97.5 -41t-54.5 -104z" />
    <glyph glyph-name="uni00C4" unicode="&#xc4;" horiz-adv-x="1971" 
d="M270 0h-328l1077 2048h357l397 -2048h-328l-97 542h-800zM682 802h620l-156 874h-16zM965 2258q-75 0 -126.5 51t-50.5 123q2 72 55.5 123t127.5 51q73 0 123.5 -51t49.5 -123t-54 -123t-125 -51zM1549 2258q-74 0 -125.5 51t-50.5 123q2 71 55.5 122.5t127.5 51.5
q73 0 123.5 -51t49.5 -123t-54 -123t-126 -51z" />
    <glyph glyph-name="uni00C5" unicode="&#xc5;" horiz-adv-x="1971" 
d="M270 0h-328l1077 2048h357l397 -2048h-328l-97 542h-800zM921 2528q21 136 138.5 234t265.5 98t233.5 -97.5t64.5 -234.5q-20 -136 -134 -228.5t-263 -92.5q-150 0 -237.5 92.5t-67.5 228.5zM682 802h620l-156 874h-16zM1093 2528q-11 -71 32.5 -123.5t121.5 -52.5
t137.5 52.5t70.5 123.5q11 73 -33 127t-121 54q-78 0 -138 -54.5t-70 -126.5z" />
    <glyph glyph-name="uni00C6" unicode="&#xc6;" horiz-adv-x="2826" 
d="M-58 0l1294 2048h1613l-44 -266h-975l-104 -624h908l-44 -265h-908l-104 -627h987l-44 -266h-1296l90 542h-697l-336 -542h-340zM779 802h580l159 957h-147z" />
    <glyph glyph-name="uni00C7" unicode="&#xc7;" horiz-adv-x="2071" 
d="M2025 1382h-307q-3 129 -63 223.5t-159 141.5t-226 47q-183 0 -340.5 -90.5t-271 -271t-153.5 -427.5q-30 -185 -8.5 -325t86.5 -235t166 -143t230 -48q208 0 377.5 107t241.5 299h310q-96 -288 -327.5 -474t-532.5 -211l-24 -60q94 -15 145 -74t31 -165
q-21 -138 -154 -220.5t-351 -82.5l23 167q108 0 175 31.5t79 95.5q12 65 -31.5 93t-157.5 39l70 179q-177 20 -315 102.5t-224.5 219.5t-117 324.5t7.5 418.5q40 238 140.5 433.5t242.5 326t319.5 202t373.5 71.5q220 0 388 -81.5t262.5 -239.5t94.5 -373z" />
    <glyph glyph-name="uni00C8" unicode="&#xc8;" horiz-adv-x="1698" 
d="M97 0l340 2048h1284l-44 -266h-975l-104 -624h908l-44 -265h-908l-104 -627h987l-44 -266h-1296zM1060 2615l201 -414h-272l-303 414h374z" />
    <glyph glyph-name="uni00C9" unicode="&#xc9;" horiz-adv-x="1698" 
d="M97 0l340 2048h1284l-44 -266h-975l-104 -624h908l-44 -265h-908l-104 -627h987l-44 -266h-1296zM951 2201l324 453h334l-403 -453h-255z" />
    <glyph glyph-name="uni00CA" unicode="&#xca;" horiz-adv-x="1698" 
d="M97 0l340 2048h1284l-44 -266h-975l-104 -624h908l-44 -265h-908l-104 -627h987l-44 -266h-1296zM860 2234h-245l1 15l453 380h178l325 -380l-1 -15h-244l-198 224z" />
    <glyph glyph-name="uni00CB" unicode="&#xcb;" horiz-adv-x="1698" 
d="M97 0l340 2048h1284l-44 -266h-975l-104 -624h908l-44 -265h-908l-104 -627h987l-44 -266h-1296zM830 2258q-75 0 -126.5 51t-50.5 123q2 72 55.5 123t127.5 51q73 0 123.5 -51t49.5 -123t-54 -123t-125 -51zM1414 2258q-74 0 -125.5 51t-50.5 123q2 71 55.5 122.5
t127.5 51.5q73 0 123.5 -51t49.5 -123t-54 -123t-126 -51z" />
    <glyph glyph-name="uni00CC" unicode="&#xcc;" horiz-adv-x="759" 
d="M746 2048l-340 -2048h-309l340 2048h309zM586 2615l201 -414h-272l-303 414h374z" />
    <glyph glyph-name="uni00CD" unicode="&#xcd;" horiz-adv-x="759" 
d="M746 2048l-340 -2048h-309l340 2048h309zM477 2201l324 453h334l-403 -453h-255z" />
    <glyph glyph-name="uni00CE" unicode="&#xce;" horiz-adv-x="759" 
d="M746 2048l-340 -2048h-309l340 2048h309zM386 2234h-245l1 15l453 380h178l325 -380l-1 -15h-244l-198 224z" />
    <glyph glyph-name="uni00CF" unicode="&#xcf;" horiz-adv-x="759" 
d="M746 2048l-340 -2048h-309l340 2048h309zM357 2258q-75 0 -126.5 51t-50.5 123q2 72 55.5 123t127.5 51q73 0 123.5 -51t49.5 -123t-54 -123t-125 -51zM941 2258q-74 0 -125.5 51t-50.5 123q2 71 55.5 122.5t127.5 51.5q73 0 123.5 -51t49.5 -123t-54 -123t-126 -51z" />
    <glyph glyph-name="uni00D0" unicode="&#xd0;" horiz-adv-x="2032" 
d="M769 0h-672l159 960h-267l36 207h266l146 881h675q299 0 498 -125t277.5 -359.5t24.5 -554.5q-78 -476 -377.5 -742.5t-765.5 -266.5zM600 1167h344l-36 -207h-343l-114 -690h331q347 0 558.5 200.5t273.5 575.5q60 358 -77.5 545t-470.5 187h-365z" />
    <glyph glyph-name="uni00D1" unicode="&#xd1;" horiz-adv-x="2103" 
d="M2090 2048l-340 -2048h-284l-791 1502h-18l-251 -1502h-309l340 2048h286l792 -1504h19l250 1504h306zM990 2211l-204 3q24 152 131.5 257t239.5 105q50 0 98.5 -19.5t81 -42.5t79 -42.5t94.5 -19.5q54 0 99 41t53 103l204 -3q-23 -153 -132 -257.5t-242 -104.5
q-50 0 -91 13t-68.5 31.5t-53.5 36.5t-61 31t-76 13q-54 0 -97.5 -41t-54.5 -104z" />
    <glyph glyph-name="uni00D2" unicode="&#xd2;" horiz-adv-x="2163" 
d="M2043 1004q-40 -238 -140.5 -433t-242 -326t-319 -202t-372.5 -71q-202 0 -363 74t-263.5 212t-141.5 336.5t3 447.5q40 238 140.5 433.5t242.5 326.5t320.5 202.5t374.5 71.5q201 0 361 -74t262 -212.5t141 -337.5t-3 -448zM1742 1042q30 184 9 324.5t-86 235.5
t-166 143.5t-230 48.5q-137 0 -261.5 -52.5t-226 -151t-174 -249.5t-102.5 -337q-60 -356 74 -553t400 -197q137 0 261 52.5t225 150.5t174 248t103 337zM1288 2615l201 -414h-272l-303 414h374z" />
    <glyph glyph-name="uni00D3" unicode="&#xd3;" horiz-adv-x="2163" 
d="M2043 1004q-40 -238 -140.5 -433t-242 -326t-319 -202t-372.5 -71q-202 0 -363 74t-263.5 212t-141.5 336.5t3 447.5q40 238 140.5 433.5t242.5 326.5t320.5 202.5t374.5 71.5q201 0 361 -74t262 -212.5t141 -337.5t-3 -448zM1742 1042q30 184 9 324.5t-86 235.5
t-166 143.5t-230 48.5q-137 0 -261.5 -52.5t-226 -151t-174 -249.5t-102.5 -337q-60 -356 74 -553t400 -197q137 0 261 52.5t225 150.5t174 248t103 337zM1179 2201l324 453h334l-403 -453h-255z" />
    <glyph glyph-name="uni00D4" unicode="&#xd4;" horiz-adv-x="2163" 
d="M2043 1004q-40 -238 -140.5 -433t-242 -326t-319 -202t-372.5 -71q-202 0 -363 74t-263.5 212t-141.5 336.5t3 447.5q40 238 140.5 433.5t242.5 326.5t320.5 202.5t374.5 71.5q201 0 361 -74t262 -212.5t141 -337.5t-3 -448zM1742 1042q30 184 9 324.5t-86 235.5
t-166 143.5t-230 48.5q-137 0 -261.5 -52.5t-226 -151t-174 -249.5t-102.5 -337q-60 -356 74 -553t400 -197q137 0 261 52.5t225 150.5t174 248t103 337zM1088 2234h-245l1 15l453 380h178l325 -380l-1 -15h-244l-198 224z" />
    <glyph glyph-name="uni00D5" unicode="&#xd5;" horiz-adv-x="2163" 
d="M2043 1004q-40 -238 -140.5 -433t-242 -326t-319 -202t-372.5 -71q-202 0 -363 74t-263.5 212t-141.5 336.5t3 447.5q40 238 140.5 433.5t242.5 326.5t320.5 202.5t374.5 71.5q201 0 361 -74t262 -212.5t141 -337.5t-3 -448zM1742 1042q30 184 9 324.5t-86 235.5
t-166 143.5t-230 48.5q-137 0 -261.5 -52.5t-226 -151t-174 -249.5t-102.5 -337q-60 -356 74 -553t400 -197q137 0 261 52.5t225 150.5t174 248t103 337zM1033 2226l-204 3q24 152 131.5 257t239.5 105q50 0 98.5 -19.5t81 -42.5t79 -42.5t94.5 -19.5q54 0 99 41t53 103
l204 -3q-23 -153 -132 -257.5t-242 -104.5q-50 0 -91 13t-68.5 31t-53.5 36.5t-61 31.5t-76 13q-54 0 -97.5 -41t-54.5 -104z" />
    <glyph glyph-name="uni00D6" unicode="&#xd6;" horiz-adv-x="2163" 
d="M2043 1004q-40 -238 -140.5 -433t-242 -326t-319 -202t-372.5 -71q-202 0 -363 74t-263.5 212t-141.5 336.5t3 447.5q40 238 140.5 433.5t242.5 326.5t320.5 202.5t374.5 71.5q201 0 361 -74t262 -212.5t141 -337.5t-3 -448zM1742 1042q30 184 9 324.5t-86 235.5
t-166 143.5t-230 48.5q-137 0 -261.5 -52.5t-226 -151t-174 -249.5t-102.5 -337q-60 -356 74 -553t400 -197q137 0 261 52.5t225 150.5t174 248t103 337zM1058 2258q-75 0 -126.5 51t-50.5 123q2 72 55.5 123t127.5 51q73 0 123.5 -51t49.5 -123t-54 -123t-125 -51z
M1642 2258q-74 0 -125.5 51t-50.5 123q2 71 55.5 122.5t127.5 51.5q73 0 123.5 -51t49.5 -123t-54 -123t-126 -51z" />
    <glyph glyph-name="uni00D7" unicode="&#xd7;" horiz-adv-x="1764" 
d="M359 269l-152 183l515 444l-377 456l211 182l377 -455l527 455l153 -182l-529 -457l367 -443l-211 -183l-367 444z" />
    <glyph glyph-name="uni00D8" unicode="&#xd8;" horiz-adv-x="2166" 
d="M452 -89l-162 114l114 159q-140 140 -193 358.5t-7 496.5q40 238 140.5 433.5t242.5 326.5t320.5 202.5t374.5 71.5q230 0 404 -96l112 156l162 -114l-116 -161q139 -141 192 -360t7 -497q-40 -238 -140.5 -433t-242 -326t-319 -202t-372.5 -71q-232 0 -407 96zM586 438
l927 1297q-106 56 -244 56q-137 0 -261.5 -52.5t-226 -151t-174 -249.5t-102.5 -337q-61 -362 81 -563zM1742 1039q60 362 -80 564l-927 -1297q107 -55 244 -55t261 52.5t225 150.5t174 248t103 337z" />
    <glyph glyph-name="uni00D9" unicode="&#xd9;" horiz-adv-x="2077" 
d="M1755 2048h309l-224 -1355q-29 -169 -115.5 -307.5t-212 -229.5t-281 -140.5t-325.5 -49.5q-171 0 -311 49.5t-235.5 140.5t-135.5 229.5t-11 307.5l224 1355h309l-223 -1350q-18 -105 7.5 -190.5t85 -141.5t145.5 -86t190 -30q139 0 261 51t209.5 154.5t110.5 242.5z
M1248 2615l201 -414h-272l-303 414h374z" />
    <glyph glyph-name="uni00DA" unicode="&#xda;" horiz-adv-x="2077" 
d="M1755 2048h309l-224 -1355q-29 -169 -115.5 -307.5t-212 -229.5t-281 -140.5t-325.5 -49.5q-171 0 -311 49.5t-235.5 140.5t-135.5 229.5t-11 307.5l224 1355h309l-223 -1350q-18 -105 7.5 -190.5t85 -141.5t145.5 -86t190 -30q139 0 261 51t209.5 154.5t110.5 242.5z
M1139 2201l324 453h334l-403 -453h-255z" />
    <glyph glyph-name="uni00DB" unicode="&#xdb;" horiz-adv-x="2077" 
d="M1755 2048h309l-224 -1355q-29 -169 -115.5 -307.5t-212 -229.5t-281 -140.5t-325.5 -49.5q-171 0 -311 49.5t-235.5 140.5t-135.5 229.5t-11 307.5l224 1355h309l-223 -1350q-18 -105 7.5 -190.5t85 -141.5t145.5 -86t190 -30q139 0 261 51t209.5 154.5t110.5 242.5z
M1048 2234h-245l1 15l453 380h178l325 -380l-1 -15h-244l-198 224z" />
    <glyph glyph-name="uni00DC" unicode="&#xdc;" horiz-adv-x="2077" 
d="M1755 2048h309l-224 -1355q-29 -169 -115.5 -307.5t-212 -229.5t-281 -140.5t-325.5 -49.5q-171 0 -311 49.5t-235.5 140.5t-135.5 229.5t-11 307.5l224 1355h309l-223 -1350q-18 -105 7.5 -190.5t85 -141.5t145.5 -86t190 -30q139 0 261 51t209.5 154.5t110.5 242.5z
M1018 2258q-75 0 -126.5 51t-50.5 123q2 72 55.5 123t127.5 51q73 0 123.5 -51t49.5 -123t-54 -123t-125 -51zM1602 2258q-74 0 -125.5 51t-50.5 123q2 71 55.5 122.5t127.5 51.5q73 0 123.5 -51t49.5 -123t-54 -123t-126 -51z" />
    <glyph glyph-name="uni00DD" unicode="&#xdd;" horiz-adv-x="1934" 
d="M282 2048h352l381 -931h23l687 931h351l-949 -1244l-133 -804h-309l133 804zM1068 2201l324 453h334l-403 -453h-255z" />
    <glyph glyph-name="uni00DE" unicode="&#xde;" horiz-adv-x="1814" 
d="M425 2048h309l-68 -408h364q167 0 294.5 -46.5t202 -128t103 -190.5t7.5 -236t-85.5 -236t-165.5 -190t-243.5 -127.5t-309.5 -46.5h-366l-73 -439h-309zM510 697h365q199 0 319 89.5t148 248.5q27 160 -64.5 253.5t-290.5 93.5h-364z" />
    <glyph glyph-name="uni00DF" unicode="&#xdf;" horiz-adv-x="1767" 
d="M97 0l251 1518q43 258 241 408t481 150q136 0 246 -36.5t185 -104t107.5 -169.5t13.5 -227q-25 -170 -129 -286t-259 -164l-4 -21q197 -17 296.5 -153.5t63.5 -350.5q-29 -168 -127.5 -296.5t-250.5 -198t-335 -69.5h-239l43 262h219q154 0 261 87.5t129 228.5
q24 147 -63 239t-256 92h-173l42 260h121q132 0 231 96.5t122 228.5q22 137 -53.5 226.5t-226.5 89.5q-150 0 -259 -86.5t-131 -225.5l-248 -1498h-299z" />
    <glyph glyph-name="uni00E0" unicode="&#xe0;" horiz-adv-x="1603" 
d="M516 -34q-148 0 -255.5 53.5t-159.5 161t-28 253.5q17 101 64.5 178t108.5 124t148.5 80.5t165.5 49t179 27.5q230 27 270 36q100 20 128 67q10 17 14 40q21 135 -40.5 206.5t-205.5 71.5q-139 0 -240 -61t-155 -153l-268 64q69 135 183.5 225t243.5 128.5t275 38.5
q48 0 93.5 -4.5t97 -16t94 -31t85 -49t70.5 -69.5t49.5 -93.5t23 -121t-9.5 -151.5l-169 -1020h-292l36 210h-12q-30 -46 -74.5 -87t-105 -77.5t-142 -58t-172.5 -21.5zM618 206q180 0 304.5 102.5t148.5 245.5l33 198q-10 -9 -30 -17t-52 -16t-57 -13t-68.5 -12t-63 -9.5
t-63.5 -8.5t-48 -6q-71 -9 -127 -25t-106.5 -43t-82 -70.5t-40.5 -101.5q-18 -108 51.5 -166t200.5 -58zM950 2123l201 -414h-272l-303 414h374z" />
    <glyph glyph-name="uni00E1" unicode="&#xe1;" horiz-adv-x="1603" 
d="M516 -34q-148 0 -255.5 53.5t-159.5 161t-28 253.5q17 101 64.5 178t108.5 124t148.5 80.5t165.5 49t179 27.5q230 27 270 36q100 20 128 67q10 17 14 40q21 135 -40.5 206.5t-205.5 71.5q-139 0 -240 -61t-155 -153l-268 64q69 135 183.5 225t243.5 128.5t275 38.5
q48 0 93.5 -4.5t97 -16t94 -31t85 -49t70.5 -69.5t49.5 -93.5t23 -121t-9.5 -151.5l-169 -1020h-292l36 210h-12q-30 -46 -74.5 -87t-105 -77.5t-142 -58t-172.5 -21.5zM618 206q180 0 304.5 102.5t148.5 245.5l33 198q-10 -9 -30 -17t-52 -16t-57 -13t-68.5 -12t-63 -9.5
t-63.5 -8.5t-48 -6q-71 -9 -127 -25t-106.5 -43t-82 -70.5t-40.5 -101.5q-18 -108 51.5 -166t200.5 -58zM841 1709l324 453h334l-403 -453h-255z" />
    <glyph glyph-name="uni00E2" unicode="&#xe2;" horiz-adv-x="1603" 
d="M516 -34q-148 0 -255.5 53.5t-159.5 161t-28 253.5q17 101 64.5 178t108.5 124t148.5 80.5t165.5 49t179 27.5q230 27 270 36q100 20 128 67q10 17 14 40q21 135 -40.5 206.5t-205.5 71.5q-139 0 -240 -61t-155 -153l-268 64q69 135 183.5 225t243.5 128.5t275 38.5
q48 0 93.5 -4.5t97 -16t94 -31t85 -49t70.5 -69.5t49.5 -93.5t23 -121t-9.5 -151.5l-169 -1020h-292l36 210h-12q-30 -46 -74.5 -87t-105 -77.5t-142 -58t-172.5 -21.5zM618 206q180 0 304.5 102.5t148.5 245.5l33 198q-10 -9 -30 -17t-52 -16t-57 -13t-68.5 -12t-63 -9.5
t-63.5 -8.5t-48 -6q-71 -9 -127 -25t-106.5 -43t-82 -70.5t-40.5 -101.5q-18 -108 51.5 -166t200.5 -58zM750 1742h-245l1 15l453 380h178l325 -380l-1 -15h-244l-198 224z" />
    <glyph glyph-name="uni00E3" unicode="&#xe3;" horiz-adv-x="1603" 
d="M516 -34q-148 0 -255.5 53.5t-159.5 161t-28 253.5q17 101 64.5 178t108.5 124t148.5 80.5t165.5 49t179 27.5q230 27 270 36q100 20 128 67q10 17 14 40q21 135 -40.5 206.5t-205.5 71.5q-139 0 -240 -61t-155 -153l-268 64q69 135 183.5 225t243.5 128.5t275 38.5
q48 0 93.5 -4.5t97 -16t94 -31t85 -49t70.5 -69.5t49.5 -93.5t23 -121t-9.5 -151.5l-169 -1020h-292l36 210h-12q-30 -46 -74.5 -87t-105 -77.5t-142 -58t-172.5 -21.5zM618 206q180 0 304.5 102.5t148.5 245.5l33 198q-10 -9 -30 -17t-52 -16t-57 -13t-68.5 -12t-63 -9.5
t-63.5 -8.5t-48 -6q-71 -9 -127 -25t-106.5 -43t-82 -70.5t-40.5 -101.5q-18 -108 51.5 -166t200.5 -58zM679 1719l-204 3q24 152 131.5 257t239.5 105q50 0 98.5 -19.5t81 -42.5t79 -42.5t94.5 -19.5q54 0 99 41t53 103l204 -3q-23 -153 -132 -257.5t-242 -104.5
q-50 0 -91 13t-68.5 31.5t-53.5 36.5t-61 31t-76 13q-54 0 -97.5 -41t-54.5 -104z" />
    <glyph glyph-name="uni00E4" unicode="&#xe4;" horiz-adv-x="1603" 
d="M516 -34q-148 0 -255.5 53.5t-159.5 161t-28 253.5q17 101 64.5 178t108.5 124t148.5 80.5t165.5 49t179 27.5q230 27 270 36q100 20 128 67q10 17 14 40q21 135 -40.5 206.5t-205.5 71.5q-139 0 -240 -61t-155 -153l-268 64q69 135 183.5 225t243.5 128.5t275 38.5
q48 0 93.5 -4.5t97 -16t94 -31t85 -49t70.5 -69.5t49.5 -93.5t23 -121t-9.5 -151.5l-169 -1020h-292l36 210h-12q-30 -46 -74.5 -87t-105 -77.5t-142 -58t-172.5 -21.5zM618 206q180 0 304.5 102.5t148.5 245.5l33 198q-10 -9 -30 -17t-52 -16t-57 -13t-68.5 -12t-63 -9.5
t-63.5 -8.5t-48 -6q-71 -9 -127 -25t-106.5 -43t-82 -70.5t-40.5 -101.5q-18 -108 51.5 -166t200.5 -58zM720 1766q-75 0 -126.5 51t-50.5 123q2 72 55.5 123t127.5 51q73 0 123.5 -51t49.5 -123t-54 -123t-125 -51zM1304 1766q-74 0 -125.5 51t-50.5 123q2 71 55.5 122.5
t127.5 51.5q73 0 123.5 -51t49.5 -123t-54 -123t-126 -51z" />
    <glyph glyph-name="uni00E5" unicode="&#xe5;" horiz-adv-x="1603" 
d="M516 -34q-148 0 -255.5 53.5t-159.5 161t-28 253.5q17 101 64.5 178t108.5 124t148.5 80.5t165.5 49t179 27.5q230 27 270 36q100 20 128 67q10 17 14 40q21 135 -40.5 206.5t-205.5 71.5q-139 0 -240 -61t-155 -153l-268 64q69 135 183.5 225t243.5 128.5t275 38.5
q48 0 93.5 -4.5t97 -16t94 -31t85 -49t70.5 -69.5t49.5 -93.5t23 -121t-9.5 -151.5l-169 -1020h-292l36 210h-12q-30 -46 -74.5 -87t-105 -77.5t-142 -58t-172.5 -21.5zM676 2036q21 136 138.5 234t265.5 98t233.5 -97.5t64.5 -234.5q-20 -136 -134 -228.5t-263 -92.5
q-150 0 -237.5 92.5t-67.5 228.5zM618 206q180 0 304.5 102.5t148.5 245.5l33 198q-10 -9 -30 -17t-52 -16t-57 -13t-68.5 -12t-63 -9.5t-63.5 -8.5t-48 -6q-71 -9 -127 -25t-106.5 -43t-82 -70.5t-40.5 -101.5q-18 -108 51.5 -166t200.5 -58zM848 2036q-11 -71 32.5 -123.5
t121.5 -52.5t137.5 52.5t70.5 123.5q11 73 -33 127t-121 54q-78 0 -138 -54.5t-70 -126.5z" />
    <glyph glyph-name="uni00E6" unicode="&#xe6;" horiz-adv-x="2595" 
d="M1680 -31q-212 0 -347.5 87t-191.5 250h-11q-21 -49 -73.5 -105.5t-129 -110t-186 -89t-225.5 -35.5q-148 0 -255.5 53.5t-159.5 161t-28 253.5q17 100 64 177t108 124t148 80.5t165.5 50t180.5 27.5q223 24 248 28q123 21 151 69q7 12 10 27q50 297 -240 297
q-141 0 -242.5 -61t-155.5 -153l-268 64q70 135 184 225t243 128.5t275 38.5q179 0 288.5 -66t142.5 -175q215 241 538 241q108 0 200.5 -27t171.5 -85t126.5 -148.5t65.5 -218t-12 -293.5l-14 -88l-1099 -73q-7 -195 91.5 -300.5t280.5 -106.5q136 -1 235.5 55t149.5 151
l283 -6q-59 -202 -254.5 -324.5t-457.5 -122.5zM1382 846l808 56q30 178 -57 292.5t-259 114.5q-175 0 -309.5 -123.5t-182.5 -339.5zM618 206q180 0 304.5 102.5t148.5 245.5l33 198q-10 -9 -30 -17t-52 -16t-57 -13t-68.5 -12t-63 -9.5t-63.5 -8.5t-48 -6q-71 -9 -127 -25
t-106.5 -43t-82 -70.5t-40.5 -101.5q-18 -108 51.5 -166t200.5 -58z" />
    <glyph glyph-name="uni00E7" unicode="&#xe7;" horiz-adv-x="1601" 
d="M813 -26l-19 -48q94 -15 145 -74t31 -165q-21 -138 -154 -220.5t-351 -82.5l23 167q108 0 175 31.5t79 95.5q12 65 -31.5 93t-157.5 39l64 165q-186 23 -308 128.5t-166.5 275t-8.5 382.5q28 174 103 321.5t184.5 252t253 163t303.5 58.5q262 0 412 -141.5t136 -374.5
h-291q-6 115 -82.5 189.5t-211.5 74.5q-190 0 -328.5 -145.5t-177.5 -390.5q-43 -250 46.5 -398t280.5 -148q129 0 231 70t151 194h291q-60 -208 -225 -347t-397 -165z" />
    <glyph glyph-name="uni00E8" unicode="&#xe8;" horiz-adv-x="1661" 
d="M733 -31q-224 0 -374 97.5t-207.5 276t-17.5 415.5q38 234 155.5 415.5t296 282t389.5 100.5q108 0 200.5 -27t171.5 -85t126.5 -148.5t65.5 -218t-12 -293.5l-17 -106h-1093q-38 -242 55 -352t305 -110q131 0 231 55.5t160 163.5l274 -51q-85 -190 -273 -302.5
t-436 -112.5zM454 902h798q30 178 -56.5 292.5t-258.5 114.5q-85 0 -167.5 -35.5t-145.5 -93t-108.5 -130.5t-61.5 -148zM957 2123l201 -414h-272l-303 414h374z" />
    <glyph glyph-name="uni00E9" unicode="&#xe9;" horiz-adv-x="1661" 
d="M733 -31q-224 0 -374 97.5t-207.5 276t-17.5 415.5q38 234 155.5 415.5t296 282t389.5 100.5q108 0 200.5 -27t171.5 -85t126.5 -148.5t65.5 -218t-12 -293.5l-17 -106h-1093q-38 -242 55 -352t305 -110q131 0 231 55.5t160 163.5l274 -51q-85 -190 -273 -302.5
t-436 -112.5zM454 902h798q30 178 -56.5 292.5t-258.5 114.5q-85 0 -167.5 -35.5t-145.5 -93t-108.5 -130.5t-61.5 -148zM849 1709l324 453h334l-403 -453h-255z" />
    <glyph glyph-name="uni00EA" unicode="&#xea;" horiz-adv-x="1661" 
d="M733 -31q-224 0 -374 97.5t-207.5 276t-17.5 415.5q38 234 155.5 415.5t296 282t389.5 100.5q108 0 200.5 -27t171.5 -85t126.5 -148.5t65.5 -218t-12 -293.5l-17 -106h-1093q-38 -242 55 -352t305 -110q131 0 231 55.5t160 163.5l274 -51q-85 -190 -273 -302.5
t-436 -112.5zM454 902h798q30 178 -56.5 292.5t-258.5 114.5q-85 0 -167.5 -35.5t-145.5 -93t-108.5 -130.5t-61.5 -148zM757 1742h-245l1 15l453 380h178l325 -380l-1 -15h-244l-198 224z" />
    <glyph glyph-name="uni00EB" unicode="&#xeb;" horiz-adv-x="1661" 
d="M733 -31q-224 0 -374 97.5t-207.5 276t-17.5 415.5q38 234 155.5 415.5t296 282t389.5 100.5q108 0 200.5 -27t171.5 -85t126.5 -148.5t65.5 -218t-12 -293.5l-17 -106h-1093q-38 -242 55 -352t305 -110q131 0 231 55.5t160 163.5l274 -51q-85 -190 -273 -302.5
t-436 -112.5zM454 902h798q30 178 -56.5 292.5t-258.5 114.5q-85 0 -167.5 -35.5t-145.5 -93t-108.5 -130.5t-61.5 -148zM728 1766q-75 0 -126.5 51t-50.5 123q2 72 55.5 123t127.5 51q73 0 123.5 -51t49.5 -123t-54 -123t-125 -51zM1312 1766q-74 0 -125.5 51t-50.5 123
q2 71 55.5 122.5t127.5 51.5q73 0 123.5 -51t49.5 -123t-54 -123t-126 -51z" />
    <glyph glyph-name="uni00EC" unicode="&#xec;" horiz-adv-x="701" 
d="M73 0l256 1536h299l-256 -1536h-299zM480 2126l201 -414h-272l-303 414h374z" />
    <glyph glyph-name="uni00ED" unicode="&#xed;" horiz-adv-x="701" 
d="M73 0l256 1536h299l-256 -1536h-299zM372 1712l324 453h334l-403 -453h-255z" />
    <glyph glyph-name="uni00EE" unicode="&#xee;" horiz-adv-x="701" 
d="M73 0l256 1536h299l-256 -1536h-299zM281 1746h-245l1 15l453 380h178l325 -380l-1 -15h-244l-198 224z" />
    <glyph glyph-name="uni00EF" unicode="&#xef;" horiz-adv-x="701" 
d="M73 0l256 1536h299l-256 -1536h-299zM251 1769q-75 0 -126.5 51t-50.5 123q2 72 55.5 123t127.5 51q73 0 123.5 -51t49.5 -123t-54 -123t-125 -51zM835 1769q-74 0 -125.5 51t-50.5 123q2 71 55.5 122.5t127.5 51.5q73 0 123.5 -51t49.5 -123t-54 -123t-126 -51z" />
    <glyph glyph-name="uni00F0" unicode="&#xf0;" horiz-adv-x="1625" 
d="M1503 1925l-275 -125q165 -211 237.5 -475.5t21.5 -572.5q-59 -367 -278 -575.5t-529 -208.5q-204 0 -343 94.5t-194 261t-21 380.5q26 157 95 292.5t163.5 228.5t209 148t232.5 61q143 5 241.5 -55.5t143.5 -154.5h20q-71 270 -244 465l-382 -174l-53 171l297 135
q-102 85 -224 154l165 201q173 -96 317 -237l344 156zM728 220q189 0 314.5 129.5t161.5 344.5q10 80 9 153.5t-23 138t-59 111.5t-99 74.5t-142 27.5q-187 0 -313 -137t-162 -357q-19 -102 -7.5 -190.5t46.5 -154t105 -103t169 -37.5z" />
    <glyph glyph-name="uni00F1" unicode="&#xf1;" horiz-adv-x="1642" 
d="M525 912l-150 -912h-299l256 1536h287l-42 -250h19q75 127 202.5 198.5t296.5 71.5q239 0 356 -150t71 -429l-164 -977h-299l157 941q28 167 -43 261.5t-224 94.5q-160 0 -276 -102t-148 -283zM643 1721l-204 3q24 152 131.5 257t239.5 105q50 0 98.5 -19.5t81 -42.5
t79 -42.5t94.5 -19.5q54 0 99 41t53 103l204 -3q-23 -153 -132 -257.5t-242 -104.5q-50 0 -91 13t-68.5 31.5t-53.5 36.5t-61 31t-76 13q-54 0 -97.5 -41t-54.5 -104z" />
    <glyph glyph-name="uni00F2" unicode="&#xf2;" horiz-adv-x="1699" 
d="M730 -31q-217 0 -365 100.5t-207.5 283t-20.5 421.5q57 354 284.5 568t547.5 214q217 0 365.5 -100.5t207.5 -284t20 -423.5q-57 -352 -284.5 -565.5t-547.5 -213.5zM747 220q105 0 195.5 44t155 120.5t108 176t61.5 213.5q12 87 11.5 166t-23 146t-60.5 116t-100 76.5
t-143 27.5q-105 0 -195.5 -44.5t-155 -121.5t-107.5 -176.5t-62 -214.5q-12 -87 -11.5 -165.5t23 -145t60.5 -115t100 -76t143 -27.5zM978 2123l201 -414h-272l-303 414h374z" />
    <glyph glyph-name="uni00F3" unicode="&#xf3;" horiz-adv-x="1699" 
d="M730 -31q-217 0 -365 100.5t-207.5 283t-20.5 421.5q57 354 284.5 568t547.5 214q217 0 365.5 -100.5t207.5 -284t20 -423.5q-57 -352 -284.5 -565.5t-547.5 -213.5zM747 220q105 0 195.5 44t155 120.5t108 176t61.5 213.5q12 87 11.5 166t-23 146t-60.5 116t-100 76.5
t-143 27.5q-105 0 -195.5 -44.5t-155 -121.5t-107.5 -176.5t-62 -214.5q-12 -87 -11.5 -165.5t23 -145t60.5 -115t100 -76t143 -27.5zM869 1709l324 453h334l-403 -453h-255z" />
    <glyph glyph-name="uni00F4" unicode="&#xf4;" horiz-adv-x="1699" 
d="M730 -31q-217 0 -365 100.5t-207.5 283t-20.5 421.5q57 354 284.5 568t547.5 214q217 0 365.5 -100.5t207.5 -284t20 -423.5q-57 -352 -284.5 -565.5t-547.5 -213.5zM747 220q105 0 195.5 44t155 120.5t108 176t61.5 213.5q12 87 11.5 166t-23 146t-60.5 116t-100 76.5
t-143 27.5q-105 0 -195.5 -44.5t-155 -121.5t-107.5 -176.5t-62 -214.5q-12 -87 -11.5 -165.5t23 -145t60.5 -115t100 -76t143 -27.5zM778 1742h-245l1 15l453 380h178l325 -380l-1 -15h-244l-198 224z" />
    <glyph glyph-name="uni00F5" unicode="&#xf5;" horiz-adv-x="1673" 
d="M732 -31q-217 0 -365 100.5t-207.5 283t-20.5 421.5q57 354 284.5 568t547.5 214q217 0 365.5 -100.5t207.5 -284t20 -423.5q-57 -352 -284.5 -565.5t-547.5 -213.5zM749 220q105 0 195.5 44t155 120.5t108 176t61.5 213.5q12 87 11.5 166t-23 146t-60.5 116t-100 76.5
t-143 27.5q-105 0 -195.5 -44.5t-155 -121.5t-107.5 -176.5t-62 -214.5q-12 -87 -11.5 -165.5t23 -145t60.5 -115t100 -76t143 -27.5zM702 1721l-204 3q24 152 131.5 257t239.5 105q50 0 98.5 -19.5t81 -42.5t79 -42.5t94.5 -19.5q54 0 99 41t53 103l204 -3
q-23 -153 -132 -257.5t-242 -104.5q-50 0 -91 13t-68.5 31.5t-53.5 36.5t-61 31t-76 13q-54 0 -97.5 -41t-54.5 -104z" />
    <glyph glyph-name="uni00F6" unicode="&#xf6;" horiz-adv-x="1699" 
d="M730 -31q-217 0 -365 100.5t-207.5 283t-20.5 421.5q57 354 284.5 568t547.5 214q217 0 365.5 -100.5t207.5 -284t20 -423.5q-57 -352 -284.5 -565.5t-547.5 -213.5zM747 220q105 0 195.5 44t155 120.5t108 176t61.5 213.5q12 87 11.5 166t-23 146t-60.5 116t-100 76.5
t-143 27.5q-105 0 -195.5 -44.5t-155 -121.5t-107.5 -176.5t-62 -214.5q-12 -87 -11.5 -165.5t23 -145t60.5 -115t100 -76t143 -27.5zM748 1766q-75 0 -126.5 51t-50.5 123q2 72 55.5 123t127.5 51q73 0 123.5 -51t49.5 -123t-54 -123t-125 -51zM1332 1766q-74 0 -125.5 51
t-50.5 123q2 71 55.5 122.5t127.5 51.5q73 0 123.5 -51t49.5 -123t-54 -123t-126 -51z" />
    <glyph glyph-name="uni00F7" unicode="&#xf7;" horiz-adv-x="1766" 
d="M1573 1026l-43 -257h-1292l42 257h1293zM626 368q13 79 72.5 130.5t149.5 51.5q88 0 131 -51.5t29 -130.5q-14 -77 -74 -126t-148 -49q-89 0 -131.5 48.5t-28.5 126.5zM798 1419q14 80 73 129.5t149 49.5q88 0 131 -50t30 -129q-11 -77 -71 -126t-148 -49
q-90 0 -132.5 48.5t-31.5 126.5z" />
    <glyph glyph-name="uni00F8" unicode="&#xf8;" horiz-adv-x="1698" 
d="M249 -89l-149 114l140 165q-78 107 -104.5 254.5t1.5 329.5q57 354 284.5 568t547.5 214q207 0 351 -92l126 149l146 -114l-136 -160q166 -223 106 -591q-57 -352 -284.5 -565.5t-547.5 -213.5q-207 0 -353 93zM747 220q105 0 195.5 44t155 120.5t108 176t61.5 213.5
q31 188 -15 323l-696 -823q78 -54 191 -54zM446 433l695 820q-76 53 -189 53q-105 0 -195.5 -44.5t-155 -121.5t-107.5 -176.5t-62 -214.5q-30 -187 14 -316z" />
    <glyph glyph-name="uni00F9" unicode="&#xf9;" horiz-adv-x="1674" 
d="M1152 637l150 899h300l-256 -1536h-294l45 266h-16q-75 -129 -208 -207.5t-300 -78.5q-228 0 -340.5 150t-67.5 429l164 977h299l-157 -941q-25 -156 46 -249.5t211 -93.5q65 0 131.5 24t127 70t105.5 121.5t60 169.5zM964 2123l201 -414h-272l-303 414h374z" />
    <glyph glyph-name="uni00FA" unicode="&#xfa;" horiz-adv-x="1674" 
d="M1152 637l150 899h300l-256 -1536h-294l45 266h-16q-75 -129 -208 -207.5t-300 -78.5q-228 0 -340.5 150t-67.5 429l164 977h299l-157 -941q-25 -156 46 -249.5t211 -93.5q65 0 131.5 24t127 70t105.5 121.5t60 169.5zM855 1709l324 453h334l-403 -453h-255z" />
    <glyph glyph-name="uni00FB" unicode="&#xfb;" horiz-adv-x="1674" 
d="M1152 637l150 899h300l-256 -1536h-294l45 266h-16q-75 -129 -208 -207.5t-300 -78.5q-228 0 -340.5 150t-67.5 429l164 977h299l-157 -941q-25 -156 46 -249.5t211 -93.5q65 0 131.5 24t127 70t105.5 121.5t60 169.5zM764 1742h-245l1 15l453 380h178l325 -380l-1 -15
h-244l-198 224z" />
    <glyph glyph-name="uni00FC" unicode="&#xfc;" horiz-adv-x="1674" 
d="M1152 637l150 899h300l-256 -1536h-294l45 266h-16q-75 -129 -208 -207.5t-300 -78.5q-228 0 -340.5 150t-67.5 429l164 977h299l-157 -941q-25 -156 46 -249.5t211 -93.5q65 0 131.5 24t127 70t105.5 121.5t60 169.5zM734 1766q-75 0 -126.5 51t-50.5 123q2 72 55.5 123
t127.5 51q73 0 123.5 -51t49.5 -123t-54 -123t-125 -51zM1318 1766q-74 0 -125.5 51t-50.5 123q2 71 55.5 122.5t127.5 51.5q73 0 123.5 -51t49.5 -123t-54 -123t-126 -51z" />
    <glyph glyph-name="uni00FD" unicode="&#xfd;" horiz-adv-x="1595" 
d="M154 -597q-64 0 -117 10.5t-77 24.5l111 248q79 -22 142.5 -19t121 49t113.5 143l64 118l-304 1559h320l190 -1192h16l588 1192h321l-932 -1760q-200 -373 -557 -373zM808 1709l324 453h334l-403 -453h-255z" />
    <glyph glyph-name="uni00FE" unicode="&#xfe;" horiz-adv-x="1719" 
d="M413 2048h299l-120 -734h18q25 34 48 60t66 62.5t89.5 60.5t114.5 41.5t145 17.5q139 0 248 -53.5t178 -155t93.5 -248.5t-6.5 -334q-30 -183 -103 -333.5t-175.5 -251t-230 -155.5t-266.5 -55q-75 0 -136.5 17t-100 41t-70.5 60.5t-47 63.5t-30 62h-19l-132 -790h-299z
M1294 768q25 157 0.5 275.5t-107 188.5t-216.5 70q-196 0 -322 -145t-166 -389q-21 -118 -10.5 -217.5t46.5 -172t106.5 -113t168.5 -40.5q197 0 328 150t172 393z" />
    <glyph glyph-name="uni00FF" unicode="&#xff;" horiz-adv-x="1595" 
d="M154 -597q-64 0 -117 10.5t-77 24.5l111 248q79 -22 142.5 -19t121 49t113.5 143l64 118l-304 1559h320l190 -1192h16l588 1192h321l-932 -1760q-200 -373 -557 -373zM687 1766q-75 0 -126.5 51t-50.5 123q2 72 55.5 123t127.5 51q73 0 123.5 -51t49.5 -123t-54 -123
t-125 -51zM1271 1766q-74 0 -125.5 51t-50.5 123q2 71 55.5 122.5t127.5 51.5q73 0 123.5 -51t49.5 -123t-54 -123t-126 -51z" />
    <glyph glyph-name="uni0100" unicode="&#x100;" horiz-adv-x="1971" 
d="M270 0h-328l1077 2048h357l397 -2048h-328l-97 542h-800zM682 802h620l-156 874h-16zM1757 2503l-34 -214h-953l34 214h953z" />
    <glyph glyph-name="uni0101" unicode="&#x101;" horiz-adv-x="1603" 
d="M516 -34q-148 0 -255.5 53.5t-159.5 161t-28 253.5q17 101 64.5 178t108.5 124t148.5 80.5t165.5 49t179 27.5q230 27 270 36q100 20 128 67q10 17 14 40q21 135 -40.5 206.5t-205.5 71.5q-139 0 -240 -61t-155 -153l-268 64q69 135 183.5 225t243.5 128.5t275 38.5
q48 0 93.5 -4.5t97 -16t94 -31t85 -49t70.5 -69.5t49.5 -93.5t23 -121t-9.5 -151.5l-169 -1020h-292l36 210h-12q-30 -46 -74.5 -87t-105 -77.5t-142 -58t-172.5 -21.5zM618 206q180 0 304.5 102.5t148.5 245.5l33 198q-10 -9 -30 -17t-52 -16t-57 -13t-68.5 -12t-63 -9.5
t-63.5 -8.5t-48 -6q-71 -9 -127 -25t-106.5 -43t-82 -70.5t-40.5 -101.5q-18 -108 51.5 -166t200.5 -58zM1512 2011l-34 -214h-953l34 214h953z" />
    <glyph glyph-name="uni0102" unicode="&#x102;" horiz-adv-x="1971" 
d="M270 0h-328l1077 2048h357l397 -2048h-328l-97 542h-800zM682 802h620l-156 874h-16zM1481 2576h246q-29 -171 -166.5 -277.5t-339.5 -106.5q-200 0 -302.5 107t-73.5 277h245q-13 -83 25 -137t138 -54t157.5 54t70.5 137z" />
    <glyph glyph-name="uni0103" unicode="&#x103;" horiz-adv-x="1603" 
d="M516 -34q-148 0 -255.5 53.5t-159.5 161t-28 253.5q17 101 64.5 178t108.5 124t148.5 80.5t165.5 49t179 27.5q230 27 270 36q100 20 128 67q10 17 14 40q21 135 -40.5 206.5t-205.5 71.5q-139 0 -240 -61t-155 -153l-268 64q69 135 183.5 225t243.5 128.5t275 38.5
q48 0 93.5 -4.5t97 -16t94 -31t85 -49t70.5 -69.5t49.5 -93.5t23 -121t-9.5 -151.5l-169 -1020h-292l36 210h-12q-30 -46 -74.5 -87t-105 -77.5t-142 -58t-172.5 -21.5zM618 206q180 0 304.5 102.5t148.5 245.5l33 198q-10 -9 -30 -17t-52 -16t-57 -13t-68.5 -12t-63 -9.5
t-63.5 -8.5t-48 -6q-71 -9 -127 -25t-106.5 -43t-82 -70.5t-40.5 -101.5q-18 -108 51.5 -166t200.5 -58zM1236 2084h246q-29 -171 -166.5 -277.5t-339.5 -106.5q-200 0 -302.5 107t-73.5 277h245q-13 -83 25 -137t138 -54t157.5 54t70.5 137z" />
    <glyph glyph-name="uni0104" unicode="&#x104;" horiz-adv-x="1971" 
d="M270 0h-328l1077 2048h357l397 -2048q-56 -33 -96.5 -61t-80 -63t-63 -73t-29.5 -78q-19 -98 85 -98q55 0 129 32l-5 -190q-105 -60 -229 -60q-129 0 -199.5 69t-57.5 195q17 189 218 330l-97 539h-800zM682 802h620l-156 874h-16z" />
    <glyph glyph-name="uni0105" unicode="&#x105;" horiz-adv-x="1603" 
d="M516 -34q-148 0 -255.5 53.5t-159.5 161t-28 253.5q17 101 64.5 178t108.5 124t148.5 80.5t165.5 49t179 27.5q230 27 270 36q100 20 128 67q10 17 14 40q21 135 -40.5 206.5t-205.5 71.5q-139 0 -240 -61t-155 -153l-268 64q69 135 183.5 225t243.5 128.5t275 38.5
q48 0 93.5 -4.5t97 -16t94 -31t85 -49t70.5 -69.5t49.5 -93.5t23 -121t-9.5 -151.5l-169 -1020q-56 -33 -96.5 -61t-80 -63t-63 -73t-29.5 -78q-19 -98 85 -98q55 0 129 32l-5 -190q-105 -60 -229 -60q-129 0 -199.5 69t-57.5 195q9 97 73.5 190t185.5 167l31 180h-12
q-30 -46 -74.5 -87t-105 -77.5t-142 -58t-172.5 -21.5zM618 206q180 0 304.5 102.5t148.5 245.5l33 198q-10 -9 -30 -17t-52 -16t-57 -13t-68.5 -12t-63 -9.5t-63.5 -8.5t-48 -6q-71 -9 -127 -25t-106.5 -43t-82 -70.5t-40.5 -101.5q-18 -108 51.5 -166t200.5 -58z" />
    <glyph glyph-name="uni0106" unicode="&#x106;" horiz-adv-x="2071" 
d="M2025 1382h-307q-3 129 -63 223.5t-159 141.5t-226 47q-183 0 -340.5 -90.5t-271 -271t-153.5 -427.5q-30 -185 -8.5 -325t86.5 -235t166 -143t230 -48q208 0 377.5 107t241.5 299h310q-102 -308 -358.5 -498t-583.5 -190q-202 0 -362.5 74t-262 212.5t-140.5 337
t3 447.5q40 238 140.5 433.5t242.5 326t319.5 202t373.5 71.5q220 0 388 -81.5t262.5 -239.5t94.5 -373zM1184 2201l324 453h334l-403 -453h-255z" />
    <glyph glyph-name="uni0107" unicode="&#x107;" horiz-adv-x="1601" 
d="M718 -31q-219 0 -366 101.5t-202 280t-16 410.5q28 174 103 321.5t184.5 252t253 163t303.5 58.5q262 0 412 -141.5t136 -374.5h-291q-6 115 -82.5 189.5t-211.5 74.5q-190 0 -328.5 -145.5t-177.5 -390.5q-43 -250 46.5 -398t280.5 -148q129 0 231 70t151 194h291
q-66 -230 -258.5 -373.5t-458.5 -143.5zM861 1708l324 453h334l-403 -453h-255z" />
    <glyph glyph-name="uni0108" unicode="&#x108;" horiz-adv-x="2071" 
d="M2025 1382h-307q-3 129 -63 223.5t-159 141.5t-226 47q-183 0 -340.5 -90.5t-271 -271t-153.5 -427.5q-30 -185 -8.5 -325t86.5 -235t166 -143t230 -48q208 0 377.5 107t241.5 299h310q-102 -308 -358.5 -498t-583.5 -190q-202 0 -362.5 74t-262 212.5t-140.5 337
t3 447.5q40 238 140.5 433.5t242.5 326t319.5 202t373.5 71.5q220 0 388 -81.5t262.5 -239.5t94.5 -373zM1093 2234h-245l1 15l453 380h178l325 -380l-1 -15h-244l-198 224z" />
    <glyph glyph-name="uni0109" unicode="&#x109;" horiz-adv-x="1601" 
d="M718 -31q-219 0 -366 101.5t-202 280t-16 410.5q28 174 103 321.5t184.5 252t253 163t303.5 58.5q262 0 412 -141.5t136 -374.5h-291q-6 115 -82.5 189.5t-211.5 74.5q-190 0 -328.5 -145.5t-177.5 -390.5q-43 -250 46.5 -398t280.5 -148q129 0 231 70t151 194h291
q-66 -230 -258.5 -373.5t-458.5 -143.5zM769 1742h-245l1 15l453 380h178l325 -380l-1 -15h-244l-198 224z" />
    <glyph glyph-name="uni010A" unicode="&#x10a;" horiz-adv-x="2071" 
d="M2025 1382h-307q-3 129 -63 223.5t-159 141.5t-226 47q-183 0 -340.5 -90.5t-271 -271t-153.5 -427.5q-30 -185 -8.5 -325t86.5 -235t166 -143t230 -48q208 0 377.5 107t241.5 299h310q-102 -308 -358.5 -498t-583.5 -190q-202 0 -362.5 74t-262 212.5t-140.5 337
t3 447.5q40 238 140.5 433.5t242.5 326t319.5 202t373.5 71.5q220 0 388 -81.5t262.5 -239.5t94.5 -373zM1353 2254q-78 0 -132.5 52t-53.5 126t58 126t135 52q77 0 131.5 -52t53.5 -126t-58 -126t-134 -52z" />
    <glyph glyph-name="uni010B" unicode="&#x10b;" horiz-adv-x="1601" 
d="M718 -31q-219 0 -366 101.5t-202 280t-16 410.5q28 174 103 321.5t184.5 252t253 163t303.5 58.5q262 0 412 -141.5t136 -374.5h-291q-6 115 -82.5 189.5t-211.5 74.5q-190 0 -328.5 -145.5t-177.5 -390.5q-43 -250 46.5 -398t280.5 -148q129 0 231 70t151 194h291
q-66 -230 -258.5 -373.5t-458.5 -143.5zM1030 1761q-78 0 -132.5 52t-53.5 126t58 126t135 52q77 0 131.5 -52t53.5 -126t-58 -126t-134 -52z" />
    <glyph glyph-name="uni010C" unicode="&#x10c;" horiz-adv-x="2071" 
d="M2025 1382h-307q-3 129 -63 223.5t-159 141.5t-226 47q-183 0 -340.5 -90.5t-271 -271t-153.5 -427.5q-30 -185 -8.5 -325t86.5 -235t166 -143t230 -48q208 0 377.5 107t241.5 299h310q-102 -308 -358.5 -498t-583.5 -190q-202 0 -362.5 74t-262 212.5t-140.5 337
t3 447.5q40 238 140.5 433.5t242.5 326t319.5 202t373.5 71.5q220 0 388 -81.5t262.5 -239.5t94.5 -373zM1154 2606l195 -224l272 224h244l-4 -15l-451 -380h-178l-327 380l4 15h245z" />
    <glyph glyph-name="uni010D" unicode="&#x10d;" horiz-adv-x="1601" 
d="M718 -31q-219 0 -366 101.5t-202 280t-16 410.5q28 174 103 321.5t184.5 252t253 163t303.5 58.5q262 0 412 -141.5t136 -374.5h-291q-6 115 -82.5 189.5t-211.5 74.5q-190 0 -328.5 -145.5t-177.5 -390.5q-43 -250 46.5 -398t280.5 -148q129 0 231 70t151 194h291
q-66 -230 -258.5 -373.5t-458.5 -143.5zM831 2114l195 -224l272 224h244l-4 -15l-451 -380h-178l-327 380l4 15h245z" />
    <glyph glyph-name="uni010E" unicode="&#x10e;" horiz-adv-x="2032" 
d="M769 0h-672l340 2048h675q299 0 498 -125t277.5 -359.5t24.5 -554.5q-78 -476 -377.5 -742.5t-765.5 -266.5zM451 270h331q347 0 558.5 200.5t273.5 575.5q60 358 -77.5 545t-470.5 187h-365zM1118 2606l195 -224l272 224h244l-4 -15l-451 -380h-178l-327 380l4 15h245z
" />
    <glyph glyph-name="uni010F" unicode="&#x10f;" horiz-adv-x="1966" 
d="M1409 0h-292l39 239h-25q-28 -39 -52 -67t-70.5 -69t-94.5 -67.5t-120 -46t-152 -19.5q-284 0 -427.5 214.5t-83.5 580.5q31 183 104 333t175.5 250t229.5 154t266 54q81 0 147 -20t105.5 -46.5t71.5 -68t45.5 -69t27.5 -65.5h18l127 761h299zM1242 768q42 245 -39 389.5
t-274 144.5q-195 0 -324.5 -147.5t-170.5 -386.5q-25 -157 -0.5 -277.5t105.5 -193t211 -72.5q189 0 319.5 148t172.5 395zM2215 2048l-25 -153q-26 -150 -94.5 -300t-169.5 -260l-200 61q163 264 199 488l26 164h264z" />
    <glyph glyph-name="uni0110" unicode="&#x110;" horiz-adv-x="2032" 
d="M769 0h-672l159 960h-267l36 207h266l146 881h675q299 0 498 -125t277.5 -359.5t24.5 -554.5q-78 -476 -377.5 -742.5t-765.5 -266.5zM600 1167h344l-36 -207h-343l-114 -690h331q347 0 558.5 200.5t273.5 575.5q60 358 -77.5 545t-470.5 187h-365z" />
    <glyph glyph-name="uni0111" unicode="&#x111;" horiz-adv-x="1738" 
d="M1407 0h-292l39 239h-25q-28 -39 -52 -67t-70.5 -69t-94.5 -67.5t-120 -46t-152 -19.5q-284 0 -427.5 214.5t-83.5 580.5q31 183 104 333t175.5 250t229.5 154t266 54q81 0 147 -20t105.5 -46.5t71.5 -68t45.5 -69t27.5 -65.5h18l62 372h-310l36 207h309l30 182h299
l-30 -182h311l-36 -207h-309zM1240 768q42 245 -39 389.5t-274 144.5q-195 0 -324.5 -147.5t-170.5 -386.5q-25 -157 -0.5 -277.5t105.5 -193t211 -72.5q189 0 319.5 148t172.5 395z" />
    <glyph glyph-name="uni0112" unicode="&#x112;" horiz-adv-x="1698" 
d="M97 0l340 2048h1284l-44 -266h-975l-104 -624h908l-44 -265h-908l-104 -627h987l-44 -266h-1296zM1622 2503l-34 -214h-953l34 214h953z" />
    <glyph glyph-name="uni0113" unicode="&#x113;" horiz-adv-x="1661" 
d="M733 -31q-224 0 -374 97.5t-207.5 276t-17.5 415.5q38 234 155.5 415.5t296 282t389.5 100.5q108 0 200.5 -27t171.5 -85t126.5 -148.5t65.5 -218t-12 -293.5l-17 -106h-1093q-38 -242 55 -352t305 -110q131 0 231 55.5t160 163.5l274 -51q-85 -190 -273 -302.5
t-436 -112.5zM454 902h798q30 178 -56.5 292.5t-258.5 114.5q-85 0 -167.5 -35.5t-145.5 -93t-108.5 -130.5t-61.5 -148zM1520 2011l-34 -214h-953l34 214h953z" />
    <glyph glyph-name="uni0114" unicode="&#x114;" horiz-adv-x="1698" 
d="M97 0l340 2048h1284l-44 -266h-975l-104 -624h908l-44 -265h-908l-104 -627h987l-44 -266h-1296zM1346 2576h246q-29 -171 -166.5 -277.5t-339.5 -106.5q-200 0 -302.5 107t-73.5 277h245q-13 -83 25 -137t138 -54t157.5 54t70.5 137z" />
    <glyph glyph-name="uni0115" unicode="&#x115;" horiz-adv-x="1661" 
d="M733 -31q-224 0 -374 97.5t-207.5 276t-17.5 415.5q38 234 155.5 415.5t296 282t389.5 100.5q108 0 200.5 -27t171.5 -85t126.5 -148.5t65.5 -218t-12 -293.5l-17 -106h-1093q-38 -242 55 -352t305 -110q131 0 231 55.5t160 163.5l274 -51q-85 -190 -273 -302.5
t-436 -112.5zM454 902h798q30 178 -56.5 292.5t-258.5 114.5q-85 0 -167.5 -35.5t-145.5 -93t-108.5 -130.5t-61.5 -148zM1243 2084h246q-29 -171 -166.5 -277.5t-339.5 -106.5q-200 0 -302.5 107t-73.5 277h245q-13 -83 25 -137t138 -54t157.5 54t70.5 137z" />
    <glyph glyph-name="uni0116" unicode="&#x116;" horiz-adv-x="1698" 
d="M97 0l340 2048h1284l-44 -266h-975l-104 -624h908l-44 -265h-908l-104 -627h987l-44 -266h-1296zM1120 2254q-78 0 -132.5 52t-53.5 126t58 126t135 52q77 0 131.5 -52t53.5 -126t-58 -126t-134 -52z" />
    <glyph glyph-name="uni0117" unicode="&#x117;" horiz-adv-x="1661" 
d="M733 -31q-224 0 -374 97.5t-207.5 276t-17.5 415.5q38 234 155.5 415.5t296 282t389.5 100.5q108 0 200.5 -27t171.5 -85t126.5 -148.5t65.5 -218t-12 -293.5l-17 -106h-1093q-38 -242 55 -352t305 -110q131 0 231 55.5t160 163.5l274 -51q-85 -190 -273 -302.5
t-436 -112.5zM454 902h798q30 178 -56.5 292.5t-258.5 114.5q-85 0 -167.5 -35.5t-145.5 -93t-108.5 -130.5t-61.5 -148zM1018 1762q-78 0 -132.5 52t-53.5 126t58 126t135 52q77 0 131.5 -52t53.5 -126t-58 -126t-134 -52z" />
    <glyph glyph-name="uni0118" unicode="&#x118;" horiz-adv-x="1698" 
d="M97 0l340 2048h1284l-44 -266h-975l-104 -624h908l-44 -265h-908l-104 -627h987l-44 -266q-56 -33 -96.5 -61t-80 -63t-63 -73t-29.5 -78q-19 -98 85 -98q55 0 129 32l-5 -190q-105 -60 -229 -60q-129 0 -199.5 69t-57.5 195q8 88 61.5 172t152.5 155h-964z" />
    <glyph glyph-name="uni0119" unicode="&#x119;" horiz-adv-x="1661" 
d="M695 -577q-129 0 -199.5 69t-57.5 195q15 162 167 291q-275 40 -400.5 248.5t-70.5 531.5q38 234 155.5 415.5t296 282t389.5 100.5q108 0 200.5 -27t171.5 -85t126.5 -148.5t65.5 -218t-12 -293.5l-17 -106h-1093q-38 -242 55 -352t305 -110q131 0 231 55.5t160 163.5
l274 -51q-65 -145 -192.5 -247t-299.5 -143q-102 -63 -163 -124t-72 -131q-19 -98 85 -98q55 0 129 32l-5 -190q-105 -60 -229 -60zM454 902h798q30 178 -56.5 292.5t-258.5 114.5q-85 0 -167.5 -35.5t-145.5 -93t-108.5 -130.5t-61.5 -148z" />
    <glyph glyph-name="uni011A" unicode="&#x11a;" horiz-adv-x="1698" 
d="M97 0l340 2048h1284l-44 -266h-975l-104 -624h908l-44 -265h-908l-104 -627h987l-44 -266h-1296zM922 2606l195 -224l272 224h244l-4 -15l-451 -380h-178l-327 380l4 15h245z" />
    <glyph glyph-name="uni011B" unicode="&#x11b;" horiz-adv-x="1661" 
d="M733 -31q-224 0 -374 97.5t-207.5 276t-17.5 415.5q38 234 155.5 415.5t296 282t389.5 100.5q108 0 200.5 -27t171.5 -85t126.5 -148.5t65.5 -218t-12 -293.5l-17 -106h-1093q-38 -242 55 -352t305 -110q131 0 231 55.5t160 163.5l274 -51q-85 -190 -273 -302.5
t-436 -112.5zM454 902h798q30 178 -56.5 292.5t-258.5 114.5q-85 0 -167.5 -35.5t-145.5 -93t-108.5 -130.5t-61.5 -148zM819 2114l195 -224l272 224h244l-4 -15l-451 -380h-178l-327 380l4 15h245z" />
    <glyph glyph-name="uni011C" unicode="&#x11c;" horiz-adv-x="2109" 
d="M200 1023q39 241 140 440t244.5 332.5t324 207t378.5 73.5q331 0 535.5 -187.5t206.5 -487.5h-319q-28 185 -147.5 289t-320.5 104q-130 0 -249.5 -51t-217 -147t-168 -242.5t-100.5 -328.5q-31 -187 -8.5 -331t90 -241.5t172.5 -148t241 -50.5q240 0 419.5 149.5
t217.5 389.5h-502l45 255h805l-41 -233q-30 -191 -119.5 -349.5t-220.5 -266.5t-299 -167.5t-353 -59.5q-207 0 -367.5 73t-258.5 209.5t-134 331t6 437.5zM1080 2234h-245l1 15l453 380h178l325 -380l-1 -15h-244l-198 224z" />
    <glyph glyph-name="uni011D" unicode="&#x11d;" horiz-adv-x="1738" 
d="M597 -583q-235 0 -377 83t-202 217l247 160q18 -30 33 -51t48.5 -53.5t70 -53t95.5 -36t128 -15.5q118 0 218 39.5t172 123t90 198.5l41 251h-21q-27 -37 -51.5 -65t-70 -67t-94 -64t-120 -43t-152.5 -18q-137 0 -245.5 48.5t-180.5 143.5t-97 235t5 324q40 239 154 418
t275 271.5t347 92.5q82 0 148 -20t105 -46t72 -68.5t46 -68.5t29 -66h22l41 249h292l-253 -1526q-25 -145 -99 -259t-183.5 -186.5t-244.5 -110t-288 -37.5zM760 271q192 0 318 133.5t165 373.5q21 117 10 213.5t-48.5 165.5t-107.5 107t-166 38q-195 0 -326 -146.5
t-169 -377.5q-38 -232 45.5 -369.5t278.5 -137.5zM812 1742h-245l1 15l453 380h178l325 -380l-1 -15h-244l-198 224z" />
    <glyph glyph-name="uni011E" unicode="&#x11e;" horiz-adv-x="2109" 
d="M200 1023q39 241 140 440t244.5 332.5t324 207t378.5 73.5q331 0 535.5 -187.5t206.5 -487.5h-319q-28 185 -147.5 289t-320.5 104q-130 0 -249.5 -51t-217 -147t-168 -242.5t-100.5 -328.5q-31 -187 -8.5 -331t90 -241.5t172.5 -148t241 -50.5q240 0 419.5 149.5
t217.5 389.5h-502l45 255h805l-41 -233q-30 -191 -119.5 -349.5t-220.5 -266.5t-299 -167.5t-353 -59.5q-207 0 -367.5 73t-258.5 209.5t-134 331t6 437.5zM1566 2576h246q-29 -171 -166.5 -277.5t-339.5 -106.5q-200 0 -302.5 107t-73.5 277h245q-13 -83 25 -137t138 -54
t157.5 54t70.5 137z" />
    <glyph glyph-name="uni011F" unicode="&#x11f;" horiz-adv-x="1738" 
d="M597 -583q-235 0 -377 83t-202 217l247 160q18 -30 33 -51t48.5 -53.5t70 -53t95.5 -36t128 -15.5q118 0 218 39.5t172 123t90 198.5l41 251h-21q-27 -37 -51.5 -65t-70 -67t-94 -64t-120 -43t-152.5 -18q-137 0 -245.5 48.5t-180.5 143.5t-97 235t5 324q40 239 154 418
t275 271.5t347 92.5q82 0 148 -20t105 -46t72 -68.5t46 -68.5t29 -66h22l41 249h292l-253 -1526q-25 -145 -99 -259t-183.5 -186.5t-244.5 -110t-288 -37.5zM760 271q192 0 318 133.5t165 373.5q21 117 10 213.5t-48.5 165.5t-107.5 107t-166 38q-195 0 -326 -146.5
t-169 -377.5q-38 -232 45.5 -369.5t278.5 -137.5zM1298 2084h246q-29 -171 -166.5 -277.5t-339.5 -106.5q-200 0 -302.5 107t-73.5 277h245q-13 -83 25 -137t138 -54t157.5 54t70.5 137z" />
    <glyph glyph-name="uni0120" unicode="&#x120;" horiz-adv-x="2109" 
d="M200 1023q39 241 140 440t244.5 332.5t324 207t378.5 73.5q331 0 535.5 -187.5t206.5 -487.5h-319q-28 185 -147.5 289t-320.5 104q-130 0 -249.5 -51t-217 -147t-168 -242.5t-100.5 -328.5q-31 -187 -8.5 -331t90 -241.5t172.5 -148t241 -50.5q240 0 419.5 149.5
t217.5 389.5h-502l45 255h805l-41 -233q-30 -191 -119.5 -349.5t-220.5 -266.5t-299 -167.5t-353 -59.5q-207 0 -367.5 73t-258.5 209.5t-134 331t6 437.5zM1340 2254q-78 0 -132.5 52t-53.5 126t58 126t135 52q77 0 131.5 -52t53.5 -126t-58 -126t-134 -52z" />
    <glyph glyph-name="uni0121" unicode="&#x121;" horiz-adv-x="1738" 
d="M597 -583q-235 0 -377 83t-202 217l247 160q18 -30 33 -51t48.5 -53.5t70 -53t95.5 -36t128 -15.5q118 0 218 39.5t172 123t90 198.5l41 251h-21q-27 -37 -51.5 -65t-70 -67t-94 -64t-120 -43t-152.5 -18q-137 0 -245.5 48.5t-180.5 143.5t-97 235t5 324q40 239 154 418
t275 271.5t347 92.5q82 0 148 -20t105 -46t72 -68.5t46 -68.5t29 -66h22l41 249h292l-253 -1526q-25 -145 -99 -259t-183.5 -186.5t-244.5 -110t-288 -37.5zM760 271q192 0 318 133.5t165 373.5q21 117 10 213.5t-48.5 165.5t-107.5 107t-166 38q-195 0 -326 -146.5
t-169 -377.5q-38 -232 45.5 -369.5t278.5 -137.5zM1072 1762q-78 0 -132.5 52t-53.5 126t58 126t135 52q77 0 131.5 -52t53.5 -126t-58 -126t-134 -52z" />
    <glyph glyph-name="uni0122" unicode="&#x122;" horiz-adv-x="2109" 
d="M200 1023q39 241 140 440t244.5 332.5t324 207t378.5 73.5q331 0 535.5 -187.5t206.5 -487.5h-319q-28 185 -147.5 289t-320.5 104q-130 0 -249.5 -51t-217 -147t-168 -242.5t-100.5 -328.5q-31 -187 -8.5 -331t90 -241.5t172.5 -148t241 -50.5q240 0 419.5 149.5
t217.5 389.5h-502l45 255h805l-41 -233q-30 -191 -119.5 -349.5t-220.5 -266.5t-299 -167.5t-353 -59.5q-207 0 -367.5 73t-258.5 209.5t-134 331t6 437.5zM1062 -124l-25 -153q-26 -150 -94.5 -300t-169.5 -260l-200 61q163 264 199 488l26 164h264z" />
    <glyph glyph-name="uni0123" unicode="&#x123;" horiz-adv-x="1738" 
d="M597 -583q-235 0 -377 83t-202 217l247 160q18 -30 33 -51t48.5 -53.5t70 -53t95.5 -36t128 -15.5q118 0 218 39.5t172 123t90 198.5l41 251h-21q-27 -37 -51.5 -65t-70 -67t-94 -64t-120 -43t-152.5 -18q-137 0 -245.5 48.5t-180.5 143.5t-97 235t5 324q40 239 154 418
t275 271.5t347 92.5q82 0 148 -20t105 -46t72 -68.5t46 -68.5t29 -66h22l41 249h292l-253 -1526q-25 -145 -99 -259t-183.5 -186.5t-244.5 -110t-288 -37.5zM760 271q192 0 318 133.5t165 373.5q21 117 10 213.5t-48.5 165.5t-107.5 107t-166 38q-195 0 -326 -146.5
t-169 -377.5q-38 -232 45.5 -369.5t278.5 -137.5zM894 1738l33 181q21 128 102.5 250.5t171.5 184.5l156 -118q-111 -147 -142 -330l-30 -168h-291z" />
    <glyph glyph-name="uni0124" unicode="&#x124;" horiz-adv-x="2090" 
d="M97 0l340 2048h309l-148 -890h1021l148 890h310l-340 -2048h-310l148 893h-1021l-148 -893h-309zM1062 2238h-245l1 15l453 380h178l325 -380l-1 -15h-244l-198 224z" />
    <glyph glyph-name="uni0125" unicode="&#x125;" horiz-adv-x="1695" 
d="M523 912l-150 -912h-299l340 2048h295l-126 -762h19q157 270 500 270q242 0 359 -148.5t72 -430.5l-164 -977h-299l156 941q28 168 -43.5 262t-225.5 94q-163 0 -282.5 -102.5t-151.5 -282.5zM361 2234h-245l1 15l453 380h178l325 -380l-1 -15h-244l-198 224z" />
    <glyph glyph-name="uni0126" unicode="&#x126;" horiz-adv-x="2219" 
d="M2239 1642l-34 -220h-168l-236 -1422h-310l148 893h-1021l-148 -893h-309l236 1422h-163l34 220h166l67 406h309l-68 -406h1021l68 406h310l-67 -406h165zM1727 1422h-1021l-44 -264h1021z" />
    <glyph glyph-name="uni0127" unicode="&#x127;" horiz-adv-x="1695" 
d="M523 912l-150 -912h-299l279 1682h-313l36 207h312l26 159h295l-26 -159h312l-36 -207h-311l-65 -396h19q157 270 500 270q242 0 359 -148.5t72 -430.5l-164 -977h-299l156 941q28 168 -43.5 262t-225.5 94q-163 0 -282.5 -102.5t-151.5 -282.5z" />
    <glyph glyph-name="uni0128" unicode="&#x128;" horiz-adv-x="759" 
d="M746 2048l-340 -2048h-309l340 2048h309zM315 2211l-204 3q24 152 131.5 257t239.5 105q50 0 98.5 -19.5t81 -42.5t79 -42.5t94.5 -19.5q54 0 99 41t53 103l204 -3q-23 -153 -132 -257.5t-242 -104.5q-50 0 -91 13t-68.5 31.5t-53.5 36.5t-61 31t-76 13q-54 0 -97.5 -41
t-54.5 -104z" />
    <glyph glyph-name="uni0129" unicode="&#x129;" horiz-adv-x="823" 
d="M143 0l256 1536h299l-256 -1536h-299zM281 1721l-204 3q24 152 131.5 257t239.5 105q50 0 98.5 -19.5t81 -42.5t79 -42.5t94.5 -19.5q54 0 99 41t53 103l204 -3q-23 -153 -132 -257.5t-242 -104.5q-50 0 -91 13t-68.5 31.5t-53.5 36.5t-61 31t-76 13q-54 0 -97.5 -41
t-54.5 -104z" />
    <glyph glyph-name="uni012A" unicode="&#x12a;" horiz-adv-x="759" 
d="M746 2048l-340 -2048h-309l340 2048h309zM1148 2503l-34 -214h-953l34 214h953z" />
    <glyph glyph-name="uni012B" unicode="&#x12b;" horiz-adv-x="701" 
d="M73 0l256 1536h299l-256 -1536h-299zM1043 2014l-34 -214h-953l34 214h953z" />
    <glyph glyph-name="uni012C" unicode="&#x12c;" horiz-adv-x="759" 
d="M746 2048l-340 -2048h-309l340 2048h309zM872 2576h246q-29 -171 -166.5 -277.5t-339.5 -106.5q-200 0 -302.5 107t-73.5 277h245q-13 -83 25 -137t138 -54t157.5 54t70.5 137z" />
    <glyph glyph-name="uni012D" unicode="&#x12d;" horiz-adv-x="701" 
d="M73 0l256 1536h299l-256 -1536h-299zM766 2087h246q-29 -171 -166.5 -277.5t-339.5 -106.5q-200 0 -302.5 107t-73.5 277h245q-13 -83 25 -137t138 -54t157.5 54t70.5 137z" />
    <glyph glyph-name="uni012E" unicode="&#x12e;" horiz-adv-x="757" 
d="M748 2048l-340 -2048q-56 -33 -96.5 -61t-80 -63t-63 -73t-29.5 -78q-19 -98 85 -98q55 0 129 32l-5 -190q-105 -60 -229 -60q-129 0 -199.5 69t-57.5 195q9 94 68.5 183.5t171.5 161.5l337 2030h309z" />
    <glyph glyph-name="uni012F" unicode="&#x12f;" horiz-adv-x="712" 
d="M81 -591q-129 0 -199.5 69t-57.5 195q9 97 72.5 189t181.5 165l252 1509h299l-256 -1536h-3q-56 -33 -96.5 -61t-80 -63t-63 -73t-29.5 -78q-19 -98 85 -98q55 0 129 32l-5 -190q-105 -60 -229 -60zM542 1765q-78 0 -132.5 52t-53.5 126t58 126t135 52q77 0 131.5 -52
t53.5 -126t-58 -126t-134 -52z" />
    <glyph glyph-name="uni0130" unicode="&#x130;" horiz-adv-x="759" 
d="M746 2048l-340 -2048h-309l340 2048h309zM647 2254q-78 0 -132.5 52t-53.5 126t58 126t135 52q77 0 131.5 -52t53.5 -126t-58 -126t-134 -52z" />
    <glyph glyph-name="uni0131" unicode="&#x131;" horiz-adv-x="701" 
d="M73 0l256 1536h299l-256 -1536h-299z" />
    <glyph glyph-name="uni0132" unicode="&#x132;" horiz-adv-x="2340" 
d="M1753 602l239 1446h308l-242 -1458q-48 -294 -237 -456t-475 -162q-133 0 -240 36.5t-179 104t-102 170t-9 229.5h300q-18 -131 51.5 -204.5t203.5 -73.5q151 0 251 96t131 272zM746 2048l-340 -2048h-309l340 2048h309z" />
    <glyph glyph-name="uni0133" unicode="&#x133;" horiz-adv-x="1402" 
d="M1030 1536h299l-270 -1630q-38 -231 -187.5 -356.5t-384.5 -125.5h-80l43 259h58q213 0 253 225zM73 0l256 1536h299l-256 -1536h-299zM541 1765q-78 0 -132.5 52t-53.5 126t58 126t135 52q77 0 131.5 -52t53.5 -126t-58 -126t-134 -52zM1239 1765q-78 0 -132.5 52
t-53.5 126t58 126t135 52q77 0 131.5 -52t53.5 -126t-58 -126t-134 -52z" />
    <glyph glyph-name="uni0134" unicode="&#x134;" horiz-adv-x="1581" 
d="M994 602l239 1446h308l-242 -1458q-48 -294 -237 -456t-475 -162q-133 0 -240 36.5t-179 104t-102 170t-9 229.5h300q-18 -131 51.5 -204.5t203.5 -73.5q151 0 251 96t131 272zM1184 2234h-245l1 15l453 380h178l325 -380l-1 -15h-244l-198 224z" />
    <glyph glyph-name="uni0135" unicode="&#x135;" horiz-adv-x="701" 
d="M329 1536h299l-270 -1630q-38 -231 -187.5 -356.5t-384.5 -125.5h-80l43 259h58q213 0 253 225zM277 1746h-245l1 15l453 380h178l325 -380l-1 -15h-244l-198 224z" />
    <glyph glyph-name="uni0136" unicode="&#x136;" horiz-adv-x="1871" 
d="M97 0l340 2048h309l-161 -978h25l1020 978h389l-977 -922l640 -1126h-372l-508 915l-288 -279l-108 -636h-309zM953 -124l-25 -153q-26 -150 -94.5 -300t-169.5 -260l-200 61q163 264 199 488l26 164h264z" />
    <glyph glyph-name="uni0137" unicode="&#x137;" horiz-adv-x="1567" 
d="M73 0l340 2048h299l-193 -1162h25l722 650h358l-732 -661l518 -875h-367l-407 693l-173 -148l-91 -545h-299zM802 -125l-25 -153q-26 -150 -94.5 -300t-169.5 -260l-200 61q163 264 199 488l26 164h264z" />
    <glyph glyph-name="uni0138" unicode="&#x138;" horiz-adv-x="1814" 
d="M672 1488l-100 -599h116l583 599h399l-709 -720l497 -768h-411l-375 598h-148l-100 -598h-325l248 1488h325z" />
    <glyph glyph-name="uni0139" unicode="&#x139;" horiz-adv-x="1589" 
d="M97 0l340 2048h309l-296 -1782h928l-44 -266h-1237zM486 2201l324 453h334l-403 -453h-255z" />
    <glyph glyph-name="uni013A" unicode="&#x13a;" horiz-adv-x="701" 
d="M712 2048l-340 -2048h-299l340 2048h299zM450 2201l324 453h334l-403 -453h-255z" />
    <glyph glyph-name="uni013B" unicode="&#x13b;" horiz-adv-x="1589" 
d="M97 0l340 2048h309l-296 -1782h928l-44 -266h-1237zM836 -125l-25 -153q-26 -150 -94.5 -300t-169.5 -260l-200 61q163 264 199 488l26 164h264z" />
    <glyph glyph-name="uni013C" unicode="&#x13c;" horiz-adv-x="701" 
d="M712 2048l-340 -2048h-299l340 2048h299zM349 -125l-25 -153q-26 -150 -94.5 -300t-169.5 -260l-200 61q163 264 199 488l26 164h264z" />
    <glyph glyph-name="uni013D" unicode="&#x13d;" horiz-adv-x="1589" 
d="M97 0l340 2048h309l-296 -1782h928l-44 -266h-1237zM1344 2048l-25 -153q-26 -150 -94.5 -300t-169.5 -260l-200 61q163 264 199 488l26 164h264z" />
    <glyph glyph-name="uni013E" unicode="&#x13e;" horiz-adv-x="897" 
d="M714 2048l-340 -2048h-299l340 2048h299zM1146 2048l-25 -153q-26 -150 -94.5 -300t-169.5 -260l-200 61q163 264 199 488l26 164h264z" />
    <glyph glyph-name="uni013F" unicode="&#x13f;" horiz-adv-x="1600" 
d="M99 0l340 2048h309l-296 -1782h928l-44 -266h-1237zM1068 1006q-78 0 -132.5 52t-53.5 126t58 126t135 52q77 0 131.5 -52t53.5 -126t-58 -126t-134 -52z" />
    <glyph glyph-name="uni0140" unicode="&#x140;" horiz-adv-x="988" 
d="M714 2048l-340 -2048h-299l340 2048h299zM884 948q-78 0 -132.5 52t-53.5 126t58 126t135 52q77 0 131.5 -52t53.5 -126t-58 -126t-134 -52z" />
    <glyph glyph-name="uni0141" unicode="&#x141;" horiz-adv-x="1606" 
d="M923 1294l-9 -199l-313 -93l-122 -736h928l-44 -266h-1237l150 905l-221 -66l9 199l247 73l155 937h309l-139 -840z" />
    <glyph glyph-name="uni0142" unicode="&#x142;" horiz-adv-x="701" 
d="M798 1298l-32 -196l-224 -75l-170 -1027h-299l153 920l-224 -75l35 196l221 75l155 932h299l-137 -825z" />
    <glyph glyph-name="uni0143" unicode="&#x143;" horiz-adv-x="2103" 
d="M2090 2048l-340 -2048h-284l-791 1502h-18l-251 -1502h-309l340 2048h286l792 -1504h19l250 1504h306zM1153 2201l324 453h334l-403 -453h-255z" />
    <glyph glyph-name="uni0144" unicode="&#x144;" horiz-adv-x="1682" 
d="M523 912l-150 -912h-299l256 1536h287l-42 -250h19q75 127 202.5 198.5t296.5 71.5q239 0 356 -150t71 -429l-164 -977h-299l157 941q28 167 -43 261.5t-224 94.5q-160 0 -276 -102t-148 -283zM859 1709l324 453h334l-403 -453h-255z" />
    <glyph glyph-name="uni0145" unicode="&#x145;" horiz-adv-x="2103" 
d="M2090 2048l-340 -2048h-284l-791 1502h-18l-251 -1502h-309l340 2048h286l792 -1504h19l250 1504h306zM1048 -125l-25 -153q-26 -150 -94.5 -300t-169.5 -260l-200 61q163 264 199 488l26 164h264z" />
    <glyph glyph-name="uni0146" unicode="&#x146;" horiz-adv-x="1682" 
d="M523 912l-150 -912h-299l256 1536h287l-42 -250h19q75 127 202.5 198.5t296.5 71.5q239 0 356 -150t71 -429l-164 -977h-299l157 941q28 167 -43 261.5t-224 94.5q-160 0 -276 -102t-148 -283zM838 -125l-25 -153q-26 -150 -94.5 -300t-169.5 -260l-200 61
q163 264 199 488l26 164h264z" />
    <glyph glyph-name="uni0147" unicode="&#x147;" horiz-adv-x="2103" 
d="M2090 2048l-340 -2048h-284l-791 1502h-18l-251 -1502h-309l340 2048h286l792 -1504h19l250 1504h306zM1123 2606l195 -224l272 224h244l-4 -15l-451 -380h-178l-327 380l4 15h245z" />
    <glyph glyph-name="uni0148" unicode="&#x148;" horiz-adv-x="1682" 
d="M523 912l-150 -912h-299l256 1536h287l-42 -250h19q75 127 202.5 198.5t296.5 71.5q239 0 356 -150t71 -429l-164 -977h-299l157 941q28 167 -43 261.5t-224 94.5q-160 0 -276 -102t-148 -283zM830 2114l195 -224l272 224h244l-4 -15l-451 -380h-178l-327 380l4 15h245z
" />
    <glyph glyph-name="uni014A" unicode="&#x14a;" horiz-adv-x="2103" 
d="M1466 0l-791 1502h-18l-251 -1502h-309l340 2048h286l792 -1504h19l250 1504h306l-340 -2048l-26 -137q-39 -220 -187 -334.5t-360 -114.5q-96 0 -139 15l40 243q43 -10 99 -10q223 0 262 202z" />
    <glyph glyph-name="uni014B" unicode="&#x14b;" horiz-adv-x="1689" 
d="M1057 0l157 941q28 167 -43 261.5t-224 94.5q-160 0 -276 -102t-148 -283l-150 -912h-299l256 1536h287l-42 -250h19q75 127 202.5 198.5t296.5 71.5q239 0 356 -150t71 -429l-164 -977l-25 -141q-41 -214 -181.5 -327.5t-340.5 -113.5q-115 0 -159 13l50 249
q43 -10 92 -10q208 0 242 195z" />
    <glyph glyph-name="uni014C" unicode="&#x14c;" horiz-adv-x="2163" 
d="M2043 1004q-40 -238 -140.5 -433t-242 -326t-319 -202t-372.5 -71q-202 0 -363 74t-263.5 212t-141.5 336.5t3 447.5q40 238 140.5 433.5t242.5 326.5t320.5 202.5t374.5 71.5q201 0 361 -74t262 -212.5t141 -337.5t-3 -448zM1742 1042q30 184 9 324.5t-86 235.5
t-166 143.5t-230 48.5q-137 0 -261.5 -52.5t-226 -151t-174 -249.5t-102.5 -337q-60 -356 74 -553t400 -197q137 0 261 52.5t225 150.5t174 248t103 337zM1850 2503l-34 -214h-953l34 214h953z" />
    <glyph glyph-name="uni014D" unicode="&#x14d;" horiz-adv-x="1699" 
d="M730 -31q-217 0 -365 100.5t-207.5 283t-20.5 421.5q57 354 284.5 568t547.5 214q217 0 365.5 -100.5t207.5 -284t20 -423.5q-57 -352 -284.5 -565.5t-547.5 -213.5zM747 220q105 0 195.5 44t155 120.5t108 176t61.5 213.5q12 87 11.5 166t-23 146t-60.5 116t-100 76.5
t-143 27.5q-105 0 -195.5 -44.5t-155 -121.5t-107.5 -176.5t-62 -214.5q-12 -87 -11.5 -165.5t23 -145t60.5 -115t100 -76t143 -27.5zM1540 2011l-34 -214h-953l34 214h953z" />
    <glyph glyph-name="uni014E" unicode="&#x14e;" horiz-adv-x="2163" 
d="M2043 1004q-40 -238 -140.5 -433t-242 -326t-319 -202t-372.5 -71q-202 0 -363 74t-263.5 212t-141.5 336.5t3 447.5q40 238 140.5 433.5t242.5 326.5t320.5 202.5t374.5 71.5q201 0 361 -74t262 -212.5t141 -337.5t-3 -448zM1742 1042q30 184 9 324.5t-86 235.5
t-166 143.5t-230 48.5q-137 0 -261.5 -52.5t-226 -151t-174 -249.5t-102.5 -337q-60 -356 74 -553t400 -197q137 0 261 52.5t225 150.5t174 248t103 337zM1574 2576h246q-29 -171 -166.5 -277.5t-339.5 -106.5q-200 0 -302.5 107t-73.5 277h245q-13 -83 25 -137t138 -54
t157.5 54t70.5 137z" />
    <glyph glyph-name="uni014F" unicode="&#x14f;" horiz-adv-x="1699" 
d="M730 -31q-217 0 -365 100.5t-207.5 283t-20.5 421.5q57 354 284.5 568t547.5 214q217 0 365.5 -100.5t207.5 -284t20 -423.5q-57 -352 -284.5 -565.5t-547.5 -213.5zM747 220q105 0 195.5 44t155 120.5t108 176t61.5 213.5q12 87 11.5 166t-23 146t-60.5 116t-100 76.5
t-143 27.5q-105 0 -195.5 -44.5t-155 -121.5t-107.5 -176.5t-62 -214.5q-12 -87 -11.5 -165.5t23 -145t60.5 -115t100 -76t143 -27.5zM1264 2084h246q-29 -171 -166.5 -277.5t-339.5 -106.5q-200 0 -302.5 107t-73.5 277h245q-13 -83 25 -137t138 -54t157.5 54t70.5 137z
" />
    <glyph glyph-name="uni0150" unicode="&#x150;" horiz-adv-x="2163" 
d="M2043 1004q-40 -238 -140.5 -433t-242 -326t-319 -202t-372.5 -71q-202 0 -363 74t-263.5 212t-141.5 336.5t3 447.5q40 238 140.5 433.5t242.5 326.5t320.5 202.5t374.5 71.5q201 0 361 -74t262 -212.5t141 -337.5t-3 -448zM1742 1042q30 184 9 324.5t-86 235.5
t-166 143.5t-230 48.5q-137 0 -261.5 -52.5t-226 -151t-174 -249.5t-102.5 -337q-60 -356 74 -553t400 -197q137 0 261 52.5t225 150.5t174 248t103 337zM1379 2194l382 421h296l-439 -421h-239zM933 2194l310 421h293l-378 -421h-225z" />
    <glyph glyph-name="uni0151" unicode="&#x151;" horiz-adv-x="1699" 
d="M730 -31q-217 0 -365 100.5t-207.5 283t-20.5 421.5q57 354 284.5 568t547.5 214q217 0 365.5 -100.5t207.5 -284t20 -423.5q-57 -352 -284.5 -565.5t-547.5 -213.5zM747 220q105 0 195.5 44t155 120.5t108 176t61.5 213.5q12 87 11.5 166t-23 146t-60.5 116t-100 76.5
t-143 27.5q-105 0 -195.5 -44.5t-155 -121.5t-107.5 -176.5t-62 -214.5q-12 -87 -11.5 -165.5t23 -145t60.5 -115t100 -76t143 -27.5zM1070 1702l382 421h296l-439 -421h-239zM624 1702l310 421h293l-378 -421h-225z" />
    <glyph glyph-name="uni0152" unicode="&#x152;" horiz-adv-x="2778" 
d="M945 0q-201 0 -358.5 71.5t-255 204t-134.5 322t3 425.5q52 311 207 545t381.5 357t493.5 123h1519l-44 -266h-975l-104 -624h908l-44 -265h-908l-104 -627h987l-44 -266h-1528zM1221 266l252 1516h-235q-180 0 -331.5 -89.5t-257 -262t-144.5 -407.5q-57 -351 76.5 -554
t407.5 -203h232z" />
    <glyph glyph-name="uni0153" unicode="&#x153;" horiz-adv-x="2774" 
d="M730 -31q-217 0 -365 100.5t-207.5 283t-20.5 421.5q57 354 284.5 568t547.5 214q185 0 321 -74t209 -211q117 136 274.5 210.5t338.5 74.5q108 0 200.5 -27t171.5 -85t126.5 -148.5t65.5 -218t-12 -293.5l-17 -106h-1093q-38 -242 55 -352t305 -110q131 0 231 55.5
t160 163.5l274 -51q-85 -190 -273 -302.5t-436 -112.5q-190 0 -326.5 70t-209.5 201q-115 -130 -270 -200.5t-334 -70.5zM747 220q105 0 195.5 44t155 120.5t108 176t61.5 213.5q12 87 11.5 166t-23 146t-60.5 116t-100 76.5t-143 27.5q-105 0 -195.5 -44.5t-155 -121.5
t-107.5 -176.5t-62 -214.5q-12 -87 -11.5 -165.5t23 -145t60.5 -115t100 -76t143 -27.5zM1591 902h798q30 178 -56.5 292.5t-258.5 114.5q-85 0 -167.5 -35.5t-145.5 -93t-108.5 -130.5t-61.5 -148z" />
    <glyph glyph-name="uni0154" unicode="&#x154;" horiz-adv-x="1793" 
d="M97 0l340 2048h721q121 0 220 -22.5t168.5 -63.5t120.5 -98.5t74.5 -128.5t30.5 -153t-10 -171q-32 -204 -151.5 -348.5t-310.5 -220.5l300 -842h-351l-270 782h-443l-130 -782h-309zM580 1042h381q430 0 489 367q10 46 7.5 91.5t-11.5 87t-35.5 77t-65 62t-100 41.5
t-139.5 15h-403zM990 2201l324 453h334l-403 -453h-255z" />
    <glyph glyph-name="uni0155" unicode="&#x155;" horiz-adv-x="1122" 
d="M73 0l256 1536h289l-41 -244h16q61 123 178.5 195t256.5 72q122 0 189 -56l-136 -247q-49 27 -135 27q-156 0 -275.5 -97.5t-144.5 -247.5l-154 -938h-299zM590 1709l324 453h334l-403 -453h-255z" />
    <glyph glyph-name="uni0156" unicode="&#x156;" horiz-adv-x="1793" 
d="M97 0l340 2048h721q121 0 220 -22.5t168.5 -63.5t120.5 -98.5t74.5 -128.5t30.5 -153t-10 -171q-32 -204 -151.5 -348.5t-310.5 -220.5l300 -842h-351l-270 782h-443l-130 -782h-309zM580 1042h381q430 0 489 367q10 46 7.5 91.5t-11.5 87t-35.5 77t-65 62t-100 41.5
t-139.5 15h-403zM921 -125l-25 -153q-26 -150 -94.5 -300t-169.5 -260l-200 61q163 264 199 488l26 164h264z" />
    <glyph glyph-name="uni0157" unicode="&#x157;" horiz-adv-x="1122" 
d="M73 0l256 1536h289l-41 -244h16q61 123 178.5 195t256.5 72q122 0 189 -56l-136 -247q-49 27 -135 27q-156 0 -275.5 -97.5t-144.5 -247.5l-154 -938h-299zM345 -125l-25 -153q-26 -150 -94.5 -300t-169.5 -260l-200 61q163 264 199 488l26 164h264z" />
    <glyph glyph-name="uni0158" unicode="&#x158;" horiz-adv-x="1793" 
d="M97 0l340 2048h721q121 0 220 -22.5t168.5 -63.5t120.5 -98.5t74.5 -128.5t30.5 -153t-10 -171q-32 -204 -151.5 -348.5t-310.5 -220.5l300 -842h-351l-270 782h-443l-130 -782h-309zM580 1042h381q430 0 489 367q10 46 7.5 91.5t-11.5 87t-35.5 77t-65 62t-100 41.5
t-139.5 15h-403zM961 2606l195 -224l272 224h244l-4 -15l-451 -380h-178l-327 380l4 15h245z" />
    <glyph glyph-name="uni0159" unicode="&#x159;" horiz-adv-x="1122" 
d="M73 0l256 1536h289l-41 -244h16q61 123 178.5 195t256.5 72q122 0 189 -56l-136 -247q-49 27 -135 27q-156 0 -275.5 -97.5t-144.5 -247.5l-154 -938h-299zM561 2114l195 -224l272 224h244l-4 -15l-451 -380h-178l-327 380l4 15h245z" />
    <glyph glyph-name="uni015A" unicode="&#x15a;" horiz-adv-x="1812" 
d="M1462 1498q1 150 -96.5 230.5t-275.5 80.5q-186 0 -312.5 -85t-147.5 -218q-10 -56 6.5 -103.5t47 -79.5t79.5 -58.5t91.5 -41.5t95.5 -29l192 -52q563 -145 492 -576q-22 -130 -91.5 -240t-177.5 -190t-259 -125t-328 -45q-344 0 -522 160.5t-146 439.5h311
q-10 -108 41.5 -183.5t143.5 -110.5t214 -35q199 0 341.5 92t166.5 240q9 53 -3.5 96.5t-40 74.5t-75.5 58t-98.5 45.5t-119.5 37.5l-231 66q-507 146 -443 541q30 174 148 308.5t294.5 207t381.5 72.5q310 0 480.5 -161t138.5 -417h-298zM1005 2201l324 453h334l-403 -453
h-255z" />
    <glyph glyph-name="uni015B" unicode="&#x15b;" horiz-adv-x="1509" 
d="M1418 1161l-279 -48q-35 206 -269 206q-130 0 -226 -59t-110 -150q-13 -74 35 -119.5t169 -75.5l236 -56q205 -49 293 -152.5t61 -268.5q-35 -207 -230 -338t-470 -131q-262 0 -407.5 111t-150.5 314l296 44q8 -113 81 -170.5t205 -57.5q146 -1 248.5 62t117.5 156
q12 72 -32 118.5t-152 71.5l-248 57q-410 96 -352 432q34 201 219 325t444 124q244 0 373 -104t148 -291zM792 1708l324 453h334l-403 -453h-255z" />
    <glyph glyph-name="uni015C" unicode="&#x15c;" horiz-adv-x="1812" 
d="M1462 1498q1 150 -96.5 230.5t-275.5 80.5q-186 0 -312.5 -85t-147.5 -218q-10 -56 6.5 -103.5t47 -79.5t79.5 -58.5t91.5 -41.5t95.5 -29l192 -52q563 -145 492 -576q-22 -130 -91.5 -240t-177.5 -190t-259 -125t-328 -45q-344 0 -522 160.5t-146 439.5h311
q-10 -108 41.5 -183.5t143.5 -110.5t214 -35q199 0 341.5 92t166.5 240q9 53 -3.5 96.5t-40 74.5t-75.5 58t-98.5 45.5t-119.5 37.5l-231 66q-507 146 -443 541q30 174 148 308.5t294.5 207t381.5 72.5q310 0 480.5 -161t138.5 -417h-298zM914 2234h-245l1 15l453 380h178
l325 -380l-1 -15h-244l-198 224z" />
    <glyph glyph-name="uni015D" unicode="&#x15d;" horiz-adv-x="1509" 
d="M1418 1161l-279 -48q-35 206 -269 206q-130 0 -226 -59t-110 -150q-13 -74 35 -119.5t169 -75.5l236 -56q205 -49 293 -152.5t61 -268.5q-35 -207 -230 -338t-470 -131q-262 0 -407.5 111t-150.5 314l296 44q8 -113 81 -170.5t205 -57.5q146 -1 248.5 62t117.5 156
q12 72 -32 118.5t-152 71.5l-248 57q-410 96 -352 432q34 201 219 325t444 124q244 0 373 -104t148 -291zM701 1742h-245l1 15l453 380h178l325 -380l-1 -15h-244l-198 224z" />
    <glyph glyph-name="uni015E" unicode="&#x15e;" horiz-adv-x="1812" 
d="M1462 1498q1 150 -96.5 230.5t-275.5 80.5q-186 0 -312.5 -85t-147.5 -218q-10 -56 6.5 -103.5t47 -79.5t79.5 -58.5t91.5 -41.5t95.5 -29l192 -52q563 -145 492 -576q-42 -249 -246.5 -412.5t-521.5 -184.5l-17 -43q94 -15 145 -74t31 -165q-21 -138 -154 -220.5
t-351 -82.5l23 167q108 0 175 31.5t79 95.5q12 65 -31.5 93t-157.5 39l62 160q-293 26 -441 183t-119 413h311q-10 -108 41.5 -183.5t143.5 -110.5t214 -35q199 0 341.5 92t166.5 240q9 53 -3.5 96.5t-40 74.5t-75.5 58t-98.5 45.5t-119.5 37.5l-231 66q-507 146 -443 541
q30 174 148 308.5t294.5 207t381.5 72.5q310 0 480.5 -161t138.5 -417h-298z" />
    <glyph glyph-name="uni015F" unicode="&#x15f;" horiz-adv-x="1509" 
d="M1418 1161l-279 -48q-35 206 -269 206q-130 0 -226 -59t-110 -150q-13 -74 35 -119.5t169 -75.5l236 -56q205 -49 293 -152.5t61 -268.5q-31 -186 -195.5 -313t-402.5 -151l-19 -48q94 -15 145 -74t31 -165q-21 -138 -154 -220.5t-351 -82.5l23 167q108 0 175 31.5
t79 95.5q12 65 -31.5 93t-157.5 39l63 163q-219 20 -339 128.5t-124 292.5l296 44q8 -113 81 -170.5t205 -57.5q146 -1 248.5 62t117.5 156q12 72 -32 118.5t-152 71.5l-248 57q-410 96 -352 432q34 201 219 325t444 124q244 0 373 -104t148 -291z" />
    <glyph glyph-name="uni0160" unicode="&#x160;" horiz-adv-x="1812" 
d="M1462 1498q1 150 -96.5 230.5t-275.5 80.5q-186 0 -312.5 -85t-147.5 -218q-10 -56 6.5 -103.5t47 -79.5t79.5 -58.5t91.5 -41.5t95.5 -29l192 -52q563 -145 492 -576q-22 -130 -91.5 -240t-177.5 -190t-259 -125t-328 -45q-344 0 -522 160.5t-146 439.5h311
q-10 -108 41.5 -183.5t143.5 -110.5t214 -35q199 0 341.5 92t166.5 240q9 53 -3.5 96.5t-40 74.5t-75.5 58t-98.5 45.5t-119.5 37.5l-231 66q-507 146 -443 541q30 174 148 308.5t294.5 207t381.5 72.5q310 0 480.5 -161t138.5 -417h-298zM976 2606l195 -224l272 224h244
l-4 -15l-451 -380h-178l-327 380l4 15h245z" />
    <glyph glyph-name="uni0161" unicode="&#x161;" horiz-adv-x="1509" 
d="M1418 1161l-279 -48q-35 206 -269 206q-130 0 -226 -59t-110 -150q-13 -74 35 -119.5t169 -75.5l236 -56q205 -49 293 -152.5t61 -268.5q-35 -207 -230 -338t-470 -131q-262 0 -407.5 111t-150.5 314l296 44q8 -113 81 -170.5t205 -57.5q146 -1 248.5 62t117.5 156
q12 72 -32 118.5t-152 71.5l-248 57q-410 96 -352 432q34 201 219 325t444 124q244 0 373 -104t148 -291zM762 2114l195 -224l272 224h244l-4 -15l-451 -380h-178l-327 380l4 15h245z" />
    <glyph glyph-name="uni0162" unicode="&#x162;" horiz-adv-x="1833" 
d="M292 1782l44 266h1585l-44 -266h-639l-296 -1782h-39l-29 -74q94 -15 145 -74t31 -165q-21 -138 -154 -220.5t-351 -82.5l23 167q108 0 175 31.5t79 95.5q12 65 -31.5 93t-157.5 39l74 190h-73l296 1782h-638z" />
    <glyph glyph-name="uni0163" unicode="&#x163;" horiz-adv-x="1060" 
d="M1046 1536l-39 -240h-317l-140 -844q-11 -51 -5 -87.5t17.5 -59.5t35.5 -36t48 -17.5t56 -4.5q37 0 105 13l16 -247q-72 -24 -156 -30l-22 -57q94 -15 145 -74t31 -165q-21 -138 -154 -220.5t-351 -82.5l23 167q108 0 175 31.5t79 95.5q12 65 -31.5 93t-157.5 39l73 188
q-130 34 -196 134.5t-39 257.5l150 906h-224l39 240h224l61 368h299l-61 -368h316z" />
    <glyph glyph-name="uni0164" unicode="&#x164;" horiz-adv-x="1833" 
d="M292 1782l44 266h1585l-44 -266h-639l-296 -1782h-308l296 1782h-638zM988 2606l195 -224l272 224h244l-4 -15l-451 -380h-178l-327 380l4 15h245z" />
    <glyph glyph-name="uni0165" unicode="&#x165;" horiz-adv-x="1066" 
d="M1048 1536l-39 -240h-317l-140 -844q-11 -51 -5 -87.5t17.5 -59.5t35.5 -36t48 -17.5t56 -4.5q37 0 105 13l16 -247q-95 -31 -202 -32q-91 -2 -166.5 23.5t-129.5 75t-77 129.5t-6 181l150 906h-224l39 240h224l61 368h299l-61 -368h316zM1304 2330l-25 -153
q-26 -150 -94.5 -300t-169.5 -260l-200 61q163 264 199 488l26 164h264z" />
    <glyph glyph-name="uni0166" unicode="&#x166;" horiz-adv-x="1833" 
d="M292 1782l44 266h1585l-44 -266h-639l-108 -648h306l-36 -207h-304l-154 -927h-308l154 927h-307l36 207h305l108 648h-638z" />
    <glyph glyph-name="uni0167" unicode="&#x167;" horiz-adv-x="1060" 
d="M90 817l33 190h221l48 289h-224l39 240h224l61 368h299l-61 -368h316l-39 -240h-317l-48 -289h320l-32 -190h-319l-61 -365q-11 -51 -5 -87.5t17.5 -59.5t35.5 -36t48 -17.5t56 -4.5q37 0 105 13l16 -247q-95 -31 -202 -32q-91 -2 -166.5 23.5t-129.5 75t-77 129.5
t-6 181l71 427h-223z" />
    <glyph glyph-name="uni0168" unicode="&#x168;" horiz-adv-x="2077" 
d="M1755 2048h309l-224 -1355q-29 -169 -115.5 -307.5t-212 -229.5t-281 -140.5t-325.5 -49.5q-171 0 -311 49.5t-235.5 140.5t-135.5 229.5t-11 307.5l224 1355h309l-223 -1350q-18 -105 7.5 -190.5t85 -141.5t145.5 -86t190 -30q139 0 261 51t209.5 154.5t110.5 242.5z
M976 2211l-204 3q24 152 131.5 257t239.5 105q50 0 98.5 -19.5t81 -42.5t79 -42.5t94.5 -19.5q54 0 99 41t53 103l204 -3q-23 -153 -132 -257.5t-242 -104.5q-50 0 -91 13t-68.5 31.5t-53.5 36.5t-61 31t-76 13q-54 0 -97.5 -41t-54.5 -104z" />
    <glyph glyph-name="uni0169" unicode="&#x169;" horiz-adv-x="1642" 
d="M1154 637l150 899h300l-256 -1536h-294l45 266h-16q-75 -129 -208 -207.5t-300 -78.5q-228 0 -340.5 150t-67.5 429l164 977h299l-157 -941q-25 -156 46 -249.5t211 -93.5q65 0 131.5 24t127 70t105.5 121.5t60 169.5zM648 1721l-204 3q24 152 131.5 257t239.5 105
q50 0 98.5 -19.5t81 -42.5t79 -42.5t94.5 -19.5q54 0 99 41t53 103l204 -3q-23 -153 -132 -257.5t-242 -104.5q-50 0 -91 13t-68.5 31.5t-53.5 36.5t-61 31t-76 13q-54 0 -97.5 -41t-54.5 -104z" />
    <glyph glyph-name="uni016A" unicode="&#x16a;" horiz-adv-x="2077" 
d="M1755 2048h309l-224 -1355q-29 -169 -115.5 -307.5t-212 -229.5t-281 -140.5t-325.5 -49.5q-171 0 -311 49.5t-235.5 140.5t-135.5 229.5t-11 307.5l224 1355h309l-223 -1350q-18 -105 7.5 -190.5t85 -141.5t145.5 -86t190 -30q139 0 261 51t209.5 154.5t110.5 242.5z
M1810 2503l-34 -214h-953l34 214h953z" />
    <glyph glyph-name="uni016B" unicode="&#x16b;" horiz-adv-x="1674" 
d="M1152 637l150 899h300l-256 -1536h-294l45 266h-16q-75 -129 -208 -207.5t-300 -78.5q-228 0 -340.5 150t-67.5 429l164 977h299l-157 -941q-25 -156 46 -249.5t211 -93.5q65 0 131.5 24t127 70t105.5 121.5t60 169.5zM1526 2011l-34 -214h-953l34 214h953z" />
    <glyph glyph-name="uni016C" unicode="&#x16c;" horiz-adv-x="2077" 
d="M1755 2048h309l-224 -1355q-29 -169 -115.5 -307.5t-212 -229.5t-281 -140.5t-325.5 -49.5q-171 0 -311 49.5t-235.5 140.5t-135.5 229.5t-11 307.5l224 1355h309l-223 -1350q-18 -105 7.5 -190.5t85 -141.5t145.5 -86t190 -30q139 0 261 51t209.5 154.5t110.5 242.5z
M1534 2576h246q-29 -171 -166.5 -277.5t-339.5 -106.5q-200 0 -302.5 107t-73.5 277h245q-13 -83 25 -137t138 -54t157.5 54t70.5 137z" />
    <glyph glyph-name="uni016D" unicode="&#x16d;" horiz-adv-x="1674" 
d="M1152 637l150 899h300l-256 -1536h-294l45 266h-16q-75 -129 -208 -207.5t-300 -78.5q-228 0 -340.5 150t-67.5 429l164 977h299l-157 -941q-25 -156 46 -249.5t211 -93.5q65 0 131.5 24t127 70t105.5 121.5t60 169.5zM1250 2084h246q-29 -171 -166.5 -277.5
t-339.5 -106.5q-200 0 -302.5 107t-73.5 277h245q-13 -83 25 -137t138 -54t157.5 54t70.5 137z" />
    <glyph glyph-name="uni016E" unicode="&#x16e;" horiz-adv-x="2077" 
d="M1755 2048h309l-224 -1355q-29 -169 -115.5 -307.5t-212 -229.5t-281 -140.5t-325.5 -49.5q-171 0 -311 49.5t-235.5 140.5t-135.5 229.5t-11 307.5l224 1355h309l-223 -1350q-18 -105 7.5 -190.5t85 -141.5t145.5 -86t190 -30q139 0 261 51t209.5 154.5t110.5 242.5z
M974 2528q21 136 138.5 234t265.5 98t233.5 -97.5t64.5 -234.5q-20 -136 -134 -228.5t-263 -92.5q-150 0 -237.5 92.5t-67.5 228.5zM1146 2528q-11 -71 32.5 -123.5t121.5 -52.5t137.5 52.5t70.5 123.5q11 73 -33 127t-121 54q-78 0 -138 -54.5t-70 -126.5z" />
    <glyph glyph-name="uni016F" unicode="&#x16f;" horiz-adv-x="1674" 
d="M1152 637l150 899h300l-256 -1536h-294l45 266h-16q-75 -129 -208 -207.5t-300 -78.5q-228 0 -340.5 150t-67.5 429l164 977h299l-157 -941q-25 -156 46 -249.5t211 -93.5q65 0 131.5 24t127 70t105.5 121.5t60 169.5zM690 2036q21 136 138.5 234t265.5 98t233.5 -97.5
t64.5 -234.5q-20 -136 -134 -228.5t-263 -92.5q-150 0 -237.5 92.5t-67.5 228.5zM862 2036q-11 -71 32.5 -123.5t121.5 -52.5t137.5 52.5t70.5 123.5q11 73 -33 127t-121 54q-78 0 -138 -54.5t-70 -126.5z" />
    <glyph glyph-name="uni0170" unicode="&#x170;" horiz-adv-x="2077" 
d="M1755 2048h309l-224 -1355q-29 -169 -115.5 -307.5t-212 -229.5t-281 -140.5t-325.5 -49.5q-171 0 -311 49.5t-235.5 140.5t-135.5 229.5t-11 307.5l224 1355h309l-223 -1350q-18 -105 7.5 -190.5t85 -141.5t145.5 -86t190 -30q139 0 261 51t209.5 154.5t110.5 242.5z
M1339 2194l382 421h296l-439 -421h-239zM893 2194l310 421h293l-378 -421h-225z" />
    <glyph glyph-name="uni0171" unicode="&#x171;" horiz-adv-x="1674" 
d="M1152 637l150 899h300l-256 -1536h-294l45 266h-16q-75 -129 -208 -207.5t-300 -78.5q-228 0 -340.5 150t-67.5 429l164 977h299l-157 -941q-25 -156 46 -249.5t211 -93.5q65 0 131.5 24t127 70t105.5 121.5t60 169.5zM1055 1702l382 421h296l-439 -421h-239zM609 1702
l310 421h293l-378 -421h-225z" />
    <glyph glyph-name="uni0172" unicode="&#x172;" horiz-adv-x="2077" 
d="M1755 2048h309l-224 -1355q-49 -289 -254 -476t-494 -236q-101 -62 -161.5 -122t-71.5 -131q-19 -98 85 -98q55 0 129 32l-5 -190q-105 -60 -229 -60q-129 0 -199.5 69t-57.5 195q15 167 178 300q-290 40 -443.5 229t-103.5 488l224 1355h309l-223 -1350
q-18 -105 7.5 -190.5t85 -141.5t145.5 -86t190 -30q139 0 261 51t209.5 154.5t110.5 242.5z" />
    <glyph glyph-name="uni0173" unicode="&#x173;" horiz-adv-x="1674" 
d="M1152 637l150 899h300l-256 -1536q-56 -33 -96.5 -61t-80 -63t-63 -73t-29.5 -78q-19 -98 85 -98q55 0 129 32l-5 -190q-105 -60 -229 -60q-129 0 -199.5 69t-57.5 195q9 97 73 189.5t184 165.5l40 238h-16q-75 -129 -208 -207.5t-300 -78.5q-228 0 -340.5 150t-67.5 429
l164 977h299l-157 -941q-25 -156 46 -249.5t211 -93.5q65 0 131.5 24t127 70t105.5 121.5t60 169.5z" />
    <glyph glyph-name="uni0174" unicode="&#x174;" horiz-adv-x="2754" 
d="M498 0l-228 2048h325l136 -1586h19l678 1586h322l152 -1587h20l660 1587h326l-909 -2048h-311l-175 1534h-16l-687 -1534h-312zM1386 2234h-245l1 15l453 380h178l325 -380l-1 -15h-244l-198 224z" />
    <glyph glyph-name="uni0175" unicode="&#x175;" horiz-adv-x="2323" 
d="M406 0l-196 1536h309l113 -1128h15l490 1128h309l112 -1123h15l487 1123h309l-707 -1536h-305l-128 1109h-23l-496 -1109h-304zM1085 1742h-245l1 15l453 380h178l325 -380l-1 -15h-244l-198 224z" />
    <glyph glyph-name="uni0176" unicode="&#x176;" horiz-adv-x="1934" 
d="M282 2048h352l381 -931h23l687 931h351l-949 -1244l-133 -804h-309l133 804zM977 2234h-245l1 15l453 380h178l325 -380l-1 -15h-244l-198 224z" />
    <glyph glyph-name="uni0177" unicode="&#x177;" horiz-adv-x="1595" 
d="M154 -597q-64 0 -117 10.5t-77 24.5l111 248q79 -22 142.5 -19t121 49t113.5 143l64 118l-304 1559h320l190 -1192h16l588 1192h321l-932 -1760q-200 -373 -557 -373zM717 1742h-245l1 15l453 380h178l325 -380l-1 -15h-244l-198 224z" />
    <glyph glyph-name="uni0178" unicode="&#x178;" horiz-adv-x="1934" 
d="M282 2048h352l381 -931h23l687 931h351l-949 -1244l-133 -804h-309l133 804zM947 2258q-75 0 -126.5 51t-50.5 123q2 72 55.5 123t127.5 51q73 0 123.5 -51t49.5 -123t-54 -123t-125 -51zM1531 2258q-74 0 -125.5 51t-50.5 123q2 71 55.5 122.5t127.5 51.5
q73 0 123.5 -51t49.5 -123t-54 -123t-126 -51z" />
    <glyph glyph-name="uni0179" unicode="&#x179;" horiz-adv-x="1799" 
d="M44 0l36 206l1338 1576h-1087l44 266h1464l-33 -206l-1340 -1576h1086l-44 -266h-1464zM1017 2201l324 453h334l-403 -453h-255z" />
    <glyph glyph-name="uni017A" unicode="&#x17a;" horiz-adv-x="1554" 
d="M42 0l35 205l996 1057l4 14h-827l43 260h1210l-36 -218l-964 -1044l-4 -14h809l-42 -260h-1224zM791 1709l324 453h334l-403 -453h-255z" />
    <glyph glyph-name="uni017B" unicode="&#x17b;" horiz-adv-x="1799" 
d="M44 0l36 206l1338 1576h-1087l44 266h1464l-33 -206l-1340 -1576h1086l-44 -266h-1464zM1187 2254q-78 0 -132.5 52t-53.5 126t58 126t135 52q77 0 131.5 -52t53.5 -126t-58 -126t-134 -52z" />
    <glyph glyph-name="uni017C" unicode="&#x17c;" horiz-adv-x="1554" 
d="M42 0l35 205l996 1057l4 14h-827l43 260h1210l-36 -218l-964 -1044l-4 -14h809l-42 -260h-1224zM960 1762q-78 0 -132.5 52t-53.5 126t58 126t135 52q77 0 131.5 -52t53.5 -126t-58 -126t-134 -52z" />
    <glyph glyph-name="uni017D" unicode="&#x17d;" horiz-adv-x="1799" 
d="M44 0l36 206l1338 1576h-1087l44 266h1464l-33 -206l-1340 -1576h1086l-44 -266h-1464zM988 2606l195 -224l272 224h244l-4 -15l-451 -380h-178l-327 380l4 15h245z" />
    <glyph glyph-name="uni017E" unicode="&#x17e;" horiz-adv-x="1554" 
d="M42 0l35 205l996 1057l4 14h-827l43 260h1210l-36 -218l-964 -1044l-4 -14h809l-42 -260h-1224zM762 2114l195 -224l272 224h244l-4 -15l-451 -380h-178l-327 380l4 15h245z" />
    <glyph glyph-name="uni017F" unicode="&#x17f;" horiz-adv-x="773" 
d="M226 0h-324l270 1631q39 246 196 377.5t398 131.5q82 0 201 -28l-74 -242q-48 12 -122 12q-113 0 -184 -65.5t-90 -185.5z" />
    <glyph glyph-name="uni0180" unicode="&#x180;" horiz-adv-x="1738" 
d="M73 0l275 1659h-311l36 207h310l30 182h299l-30 -182h310l-36 -207h-308l-61 -372h18q27 38 49.5 65.5t68.5 69t94 68t120.5 46.5t153.5 20q284 0 428.5 -212.5t84.5 -578.5q-30 -183 -103 -333.5t-175 -251t-229.5 -155.5t-266.5 -55q-80 0 -145.5 19.5t-105 46
t-72.5 67.5t-47 69t-30 67h-25l-40 -239h-292zM494 768q-40 -247 41.5 -395t270.5 -148q194 0 324.5 151t171.5 392q24 156 -0.5 274.5t-105.5 189t-212 70.5q-192 0 -321 -144.5t-169 -389.5z" />
    <glyph glyph-name="uni0181" unicode="&#x181;" horiz-adv-x="2319" 
d="M575 0l296 1783h-109q-58 0 -100.5 -20.5t-67 -58.5t-38.5 -78t-22 -93l-14 -91h-283l24 158q30 198 176.5 323t364.5 125h863q159 0 277 -41t184 -114.5t90 -170.5t4 -212q-16 -93 -55.5 -168t-96 -126.5t-121.5 -85t-141 -52.5l-4 -20q77 -4 145.5 -40t119.5 -98
t73 -158.5t4 -210.5q-20 -120 -78.5 -218.5t-154 -174t-236.5 -117t-315 -41.5h-785zM928 265h446q212 0 327 82t139 219q23 151 -70 253t-275 102h-457zM1079 1162h413q159 0 279.5 89.5t141.5 234.5q24 134 -54.5 216.5t-255.5 82.5h-422z" />
    <glyph glyph-name="uni0182" unicode="&#x182;" horiz-adv-x="1842" 
d="M97 0l340 2048h1277l-44 -266h-968l-93 -560h457q339 0 501 -161.5t116 -439.5q-46 -280 -264.5 -450.5t-554.5 -170.5h-767zM450 260h457q190 0 318 107t153 258q24 145 -69.5 241t-285.5 96h-457z" />
    <glyph glyph-name="uni0183" unicode="&#x183;" horiz-adv-x="1738" 
d="M1631 2048l-41 -249h-919l-84 -512h18q27 38 49.5 65.5t68.5 69t94 68t120.5 46.5t153.5 20q284 0 428.5 -212.5t84.5 -578.5q-30 -183 -103 -333.5t-175 -251t-229.5 -155.5t-266.5 -55q-80 0 -145.5 19.5t-105 46t-72.5 67.5t-47 69t-30 67h-25l-40 -239h-292l340 2048
h1218zM494 768q-40 -247 41.5 -395t270.5 -148q194 0 324.5 151t171.5 392q24 156 -0.5 274.5t-105.5 189t-212 70.5q-192 0 -321 -144.5t-169 -389.5z" />
    <glyph glyph-name="uni0184" unicode="&#x184;" horiz-adv-x="2078" 
d="M900 1222h457q338 0 500.5 -162t116.5 -439q-47 -280 -265.5 -450.5t-554.5 -170.5h-767l296 1782h-485l44 266h795zM857 962l-117 -702h458q189 0 317 107t153 258q23 145 -70 241t-284 96h-457z" />
    <glyph glyph-name="uni0185" unicode="&#x185;" horiz-adv-x="1811" 
d="M566 2112h67l-11 -64h244l-121 -734h19q176 242 462 242q139 0 248 -53.5t178 -155t93.5 -248.5t-6.5 -334q-30 -183 -103 -333.5t-175.5 -251t-229.5 -155.5t-266 -55q-76 0 -138 17.5t-100.5 41.5t-70 60.5t-46.5 63.5t-29 61h-27l-36 -214h-292l239 1440h-11l-195 264
l25 142zM1447 768q25 157 0.5 275t-106.5 188.5t-216 70.5q-197 0 -322.5 -145t-165.5 -389q-22 -118 -11.5 -217.5t46.5 -172t106.5 -113t168.5 -40.5q197 0 328 150.5t172 392.5z" />
    <glyph glyph-name="uni0186" unicode="&#x186;" horiz-adv-x="2071" 
d="M854 -28q-165 0 -301.5 50.5t-229.5 141t-143.5 218t-49.5 278.5h310q7 -191 138 -298.5t334 -107.5q131 0 250.5 50t217 144.5t168.5 240.5t101 329q31 188 8 332.5t-91 243t-173 149.5t-239 51q-130 0 -247.5 -47t-210.5 -141.5t-139 -223.5h-310q71 215 217 373
t339 239.5t411 81.5q197 0 353 -71.5t255 -206.5t137 -329t-2 -439q-32 -194 -105 -362t-176.5 -295t-233 -217.5t-279 -137t-309.5 -46.5z" />
    <glyph glyph-name="uni0187" unicode="&#x187;" horiz-adv-x="2233" 
d="M2025 1382h-307q-3 129 -63 223.5t-159 141.5t-226 47q-183 0 -340.5 -90.5t-271 -271t-153.5 -427.5q-30 -185 -8.5 -325t86.5 -235t166 -143t230 -48q208 0 377.5 107t241.5 299h310q-102 -308 -358.5 -498t-583.5 -190q-202 0 -362.5 74t-262 212.5t-140.5 337
t3 447.5q40 238 140.5 433.5t242.5 326t319.5 202t373.5 71.5q182 0 330.5 -57t247.5 -165q76 112 197.5 172.5t261.5 60.5q110 0 154 -12l-40 -248q-54 7 -91 7q-50 0 -93 -11t-81.5 -36t-65.5 -70t-37 -107z" />
    <glyph glyph-name="uni0188" unicode="&#x188;" horiz-adv-x="1750" 
d="M1526 1040h-291q-6 115 -82.5 189.5t-211.5 74.5q-190 0 -328.5 -145.5t-177.5 -390.5q-43 -250 46.5 -398t280.5 -148q129 0 231 70t151 194h291q-66 -230 -258.5 -373.5t-458.5 -143.5q-219 0 -366 101.5t-202 280t-16 410.5q28 174 103 321.5t184.5 252t253 163
t303.5 58.5q224 0 370 -107q69 114 183.5 176t250.5 62q98 0 145 -16l-37 -226q-54 9 -85 9q-99 0 -160.5 -47.5t-80.5 -156.5z" />
    <glyph glyph-name="uni0189" unicode="&#x189;" horiz-adv-x="2032" 
d="M769 0h-672l159 960h-267l36 207h266l146 881h675q299 0 498 -125t277.5 -359.5t24.5 -554.5q-78 -476 -377.5 -742.5t-765.5 -266.5zM600 1167h344l-36 -207h-343l-114 -690h331q347 0 558.5 200.5t273.5 575.5q60 358 -77.5 545t-470.5 187h-365z" />
    <glyph glyph-name="uni018A" unicode="&#x18a;" horiz-adv-x="2370" 
d="M1148 0h-672l295 1778h-122q-58 0 -100 -19.5t-67 -56.5t-38.5 -76.5t-21.5 -92.5l-14 -91h-283l24 158q30 198 176.5 323t364.5 125h801q299 0 498 -125t277.5 -359.5t24.5 -554.5q-78 -476 -377.5 -742.5t-765.5 -266.5zM830 270h331q347 0 558.5 200.5t273.5 575.5
q60 358 -77.5 545t-470.5 187h-365z" />
    <glyph glyph-name="uni018B" unicode="&#x18b;" horiz-adv-x="1814" 
d="M1521 0h-764q-336 0 -499.5 171t-116.5 450q46 277 265 442.5t556 165.5h430l86 514h-940l44 273h1273zM1233 268l113 690h-430q-191 0 -302 -92.5t-136 -240.5q-12 -73 0.5 -136t49.5 -113.5t107.5 -79t167.5 -28.5h430z" />
    <glyph glyph-name="uni018C" unicode="&#x18c;" horiz-adv-x="1738" 
d="M527 2048h1218l-338 -2048h-292l39 239h-25q-28 -39 -52 -67t-70.5 -69t-94.5 -67.5t-120 -46t-152 -19.5q-284 0 -427.5 214.5t-83.5 580.5q31 183 104 333t175.5 250t229.5 154t266 54q81 0 147 -20t105.5 -46.5t71.5 -68t45.5 -69t27.5 -65.5h18l86 512h-919z
M1240 768q42 245 -39 389.5t-274 144.5q-195 0 -324.5 -147.5t-170.5 -386.5q-25 -157 -0.5 -277.5t105.5 -193t211 -72.5q189 0 319.5 148t172.5 395z" />
    <glyph glyph-name="uni018D" unicode="&#x18d;" horiz-adv-x="1628" 
d="M1102 -516h-1024l42 252h598q-23 30 -92.5 101.5t-133.5 130.5q-101 99 -170 185t-122.5 184t-71 202.5t1.5 216.5l4 28q26 157 94 290.5t170 232t241 154t299 55.5q128 0 232.5 -35.5t175 -99t116 -153t55 -197.5t-8.5 -231l-4 -28q-44 -261 -238.5 -445.5
t-472.5 -220.5q-26 -3 -52 -3q5 -5 63.5 -66.5t75 -79t65.5 -70t73.5 -81t57.5 -68.5t57 -72zM1178 756l4 28q10 76 11 145.5t-18 129.5t-52.5 104t-91.5 69.5t-135 25.5q-94 0 -171.5 -38t-131 -104.5t-88 -150t-50.5 -181.5l-4 -28q-25 -150 23.5 -269t138.5 -183
q41 -14 102 -14q97 0 178.5 37t138 102.5t93 148t53.5 178.5z" />
    <glyph glyph-name="uni018E" unicode="&#x18e;" horiz-adv-x="1687" 
d="M1581 2048l-340 -2048h-1284l44 266h975l104 624h-908l44 265h908l104 627h-987l44 266h1296z" />
    <glyph glyph-name="uni018F" unicode="&#x18f;" horiz-adv-x="2072" 
d="M906 -28q-276 0 -449 114t-233.5 320.5t-13.5 493.5l31 192h1362q16 91 12.5 175t-20.5 156.5t-57 132t-97.5 102t-142 65.5t-190.5 23q-269 0 -527 -96l-25 259q73 39 236.5 81t367.5 42q149 0 274.5 -32t217.5 -92t159.5 -145t101.5 -192t42.5 -232.5t-17.5 -265.5
l-25 -150q-35 -206 -131 -384.5t-230.5 -302t-302 -194t-343.5 -70.5zM1556 830h-1024l-8 -43q-12 -90 -10 -170t31 -146.5t79 -115t134 -75t196 -26.5q219 0 378 160.5t224 415.5z" />
    <glyph glyph-name="uni0190" unicode="&#x190;" horiz-adv-x="1813" 
d="M1170 960l-12 -70h-232q-203 0 -317.5 -78.5t-143.5 -250.5q-26 -160 73 -240.5t298 -80.5q178 0 299.5 90t143.5 226h335q-19 -118 -77 -216.5t-139 -165.5t-182.5 -113.5t-207.5 -67.5t-215 -21q-167 0 -298 34t-223.5 103.5t-131 184t-14.5 266.5q28 170 138 288.5
t289 177.5q-138 61 -203 172.5t-40 261.5q29 183 142 313t287 194.5t394 64.5q142 0 262.5 -39.5t204 -110t121.5 -176.5t16 -232h-335q22 129 -65 207.5t-247 78.5q-198 0 -310.5 -83t-135.5 -218q-24 -145 53 -225t271 -80h233l-12 -74h1l-16 -96z" />
    <glyph glyph-name="uni0191" unicode="&#x191;" horiz-adv-x="1673" 
d="M119 0l340 2048h1270l-44 -266h-961l-104 -624h870l-44 -265h-870l-148 -893h1l-24 -141q-19 -113 -68.5 -198t-123 -136t-164 -76t-198.5 -25q-79 0 -121 11l40 245q30 -6 85 -6q214 0 243 188z" />
    <glyph glyph-name="uni0192" unicode="&#x192;" horiz-adv-x="1166" 
d="M1105 1488l-41 -237h-286l-224 -1353q-40 -241 -182 -369.5t-366 -128.5q-94 0 -168 20l62 254q42 -16 130 -16q85 0 143 64t78 176l223 1353h-242l41 237h242l23 143q40 243 191 376t366 133q133 0 230 -34l-95 -251q-52 15 -118 15q-113 0 -182.5 -60.5t-88.5 -178.5
l-23 -143h287z" />
    <glyph glyph-name="uni0193" unicode="&#x193;" horiz-adv-x="2234" 
d="M2029 1401h-319q-28 185 -147.5 289t-320.5 104q-130 0 -249.5 -51t-217 -147t-168 -242.5t-100.5 -328.5q-31 -187 -8.5 -331t90 -241.5t172.5 -148t241 -50.5q240 0 419.5 149.5t217.5 389.5h-502l45 255h805l-41 -233q-30 -191 -119.5 -349.5t-220.5 -266.5
t-299 -167.5t-353 -59.5q-207 0 -367.5 73t-258.5 209.5t-134 331t6 437.5q39 241 140 440t244.5 332.5t324 207t378.5 73.5q175 0 318 -55t243 -157q74 119 194.5 181.5t273.5 62.5q105 0 154 -16l-40 -246q-50 8 -87 8q-111 0 -182 -46t-91 -159z" />
    <glyph glyph-name="uni0194" unicode="&#x194;" horiz-adv-x="1883" 
d="M267 2036h343l328 -1272l754 1272h343l-1001 -1638q13 -48 36.5 -127t31.5 -106q37 -124 53 -182t27.5 -125.5t4.5 -109.5q-29 -168 -156.5 -258t-316.5 -90q-190 0 -289 90t-71 258q8 45 42.5 115t72.5 132t121 193t138 222zM827 60q-60 -97 -84.5 -137t-48 -89
t-28.5 -81q-6 -44 18 -73.5t74 -29.5q49 0 83 31t40 72q7 47 -5.5 112.5t-48.5 194.5z" />
    <glyph glyph-name="uni0195" unicode="&#x195;" horiz-adv-x="2699" 
d="M74 0l340 2048h295l-126 -762h19q157 270 500 270q242 0 359 -148.5t72 -430.5l-36 -209l-28 -163q-11 -78 -11 -136t15.5 -99.5t35 -69t49 -43.5t57.5 -22.5t59 -6.5q75 0 145.5 38.5t140 124t129.5 213t113 315.5t92 422l33 195h299l-33 -195q-59 -351 -155.5 -615
t-223 -428t-276.5 -245t-324 -81q-122 0 -214.5 38.5t-154 117t-81 197.5t5.5 280l28 163l28 173q28 168 -43.5 262t-225.5 94q-163 0 -282.5 -102.5t-151.5 -282.5l-150 -912h-299z" />
    <glyph glyph-name="uni0196" unicode="&#x196;" horiz-adv-x="1037" 
d="M710 2112l-270 -1631q-19 -118 28.5 -184t159.5 -66q57 0 130 15l-11 -246q-119 -28 -209 -28q-240 0 -351.5 132.5t-71.5 376.5l271 1631h324z" />
    <glyph glyph-name="uni0197" unicode="&#x197;" horiz-adv-x="759" 
d="M746 2048l-146 -881h305l-36 -207h-304l-159 -960h-309l159 960h-306l36 207h305l146 881h309z" />
    <glyph glyph-name="uni0198" unicode="&#x198;" horiz-adv-x="1946" 
d="M97 0l340 2048h309l-160 -971h24l904 834q102 93 212 133t211.5 25.5t188.5 -78.5l-151 -225q-63 44 -132.5 29t-154.5 -92l-648 -586l669 -1117h-373l-525 900l-301 -281l-104 -619h-309z" />
    <glyph glyph-name="uni0199" unicode="&#x199;" horiz-adv-x="1542" 
d="M1039 0l-383 664l-205 -187l-79 -477h-299l258 1564h2l12 77q19 112 68.5 197.5t120 136t152.5 76t173 25.5q115 0 163 -13l-42 -241q-42 8 -82 8q-220 0 -254 -189l-35 -219h-2l-86 -527h20l679 641h366l-704 -656l502 -880h-345z" />
    <glyph glyph-name="uni019A" unicode="&#x19a;" horiz-adv-x="701" 
d="M712 2048l-146 -881h312l-36 -207h-311l-159 -960h-299l159 960h-309l36 207h308l146 881h299z" />
    <glyph glyph-name="uni019B" unicode="&#x19b;" horiz-adv-x="1811" 
d="M1187 1930l-42 -247l-61 -21l298 -1291q16 -66 41.5 -95.5t72.5 -29.5h48l-37 -257q-45 -14 -127 -14q-146 0 -218.5 60t-107.5 228l-160 731l-517 -994h-354l774 1425l-33 129l-378 -128l38 246l282 95q-34 76 -127 76q-48 0 -73 -4l38 243q62 20 174 20
q145 0 216.5 -55.5t99.5 -168.5z" />
    <glyph glyph-name="uni019C" unicode="&#x19c;" horiz-adv-x="2591" 
d="M1107 231q-190 -259 -518 -259q-120 0 -202.5 32.5t-137.5 106.5t-66 194t14 295l233 1404h323l-233 -1404q-59 -363 182 -363q270 0 390 246q6 68 14 117l233 1404h320l-233 -1404q-58 -363 185 -363q266 0 384 238l254 1529h321l-332 -2004h-300l15 160
q-180 -188 -455 -188q-322 0 -391 259z" />
    <glyph glyph-name="uni019D" unicode="&#x19d;" horiz-adv-x="2117" 
d="M110 0h1l340 2048h286l792 -1504h19l250 1504h306l-340 -2048h-284l-791 1502h-18l-251 -1502l-27 -141q-23 -118 -70.5 -204.5t-114.5 -136.5t-145 -73.5t-169 -23.5q-109 0 -179 14l39 245q34 -6 80 -6q219 0 252 188z" />
    <glyph glyph-name="uni019E" unicode="&#x19e;" horiz-adv-x="1682" 
d="M523 912l-150 -912h-299l256 1536h287l-42 -250h19q75 127 202.5 198.5t296.5 71.5q241 0 357 -149.5t70 -429.5l-260 -1553h-299l253 1517q28 167 -43 261.5t-224 94.5q-158 0 -275 -102.5t-149 -282.5z" />
    <glyph glyph-name="uni019F" unicode="&#x19f;" horiz-adv-x="2163" 
d="M2043 1004q-40 -238 -140.5 -433t-242 -326t-319 -202t-372.5 -71q-202 0 -363 74t-263.5 212t-141.5 336.5t3 447.5q40 238 140.5 433.5t242.5 326.5t320.5 202.5t374.5 71.5q201 0 361 -74t262 -212.5t141 -337.5t-3 -448zM1705 877q-73 -26 -145 -37t-124.5 -11.5
t-121 12t-106 22.5t-108.5 31q-69 21 -107.5 31.5t-106.5 23t-121.5 12.5t-125.5 -10t-146 -34q-32 -317 103 -490t383 -173q247 0 442.5 163.5t283.5 459.5zM1754 1136q15 158 -13 283.5t-93.5 207t-161.5 124.5t-217 43q-161 0 -303 -70.5t-252.5 -211t-169.5 -336.5
q71 24 141.5 34.5t122 10.5t119 -12t104.5 -22t107 -31t109 -32t108 -23.5t123 -12t127.5 11.5t148.5 36z" />
    <glyph glyph-name="uni01A0" unicode="&#x1a0;" horiz-adv-x="2217" 
d="M2166 2180h249q-36 -220 -141.5 -360.5t-278.5 -192.5q108 -262 48 -623q-40 -238 -140.5 -433t-242 -326t-319 -202t-372.5 -71q-202 0 -363 74t-263.5 212t-141.5 336.5t3 447.5q40 238 140.5 433.5t242.5 326.5t320.5 202.5t374.5 71.5q193 0 348.5 -68.5
t259.5 -198.5q222 41 276 371zM1742 1042q30 184 9 324.5t-86 235.5t-166 143.5t-230 48.5q-137 0 -261.5 -52.5t-226 -151t-174 -249.5t-102.5 -337q-60 -356 74 -553t400 -197q137 0 261 52.5t225 150.5t174 248t103 337z" />
    <glyph glyph-name="uni01A1" unicode="&#x1a1;" horiz-adv-x="1719" 
d="M1631 1643h231q-62 -369 -321 -470q60 -183 21 -425q-57 -352 -284.5 -565.5t-547.5 -213.5q-217 0 -365 100.5t-207.5 283t-20.5 421.5q57 354 284.5 568t547.5 214q165 0 291.5 -59t204.5 -170q71 33 107 109.5t59 206.5zM747 220q105 0 195.5 44t155 120.5t108 176
t61.5 213.5q12 87 11.5 166t-23 146t-60.5 116t-100 76.5t-143 27.5q-105 0 -195.5 -44.5t-155 -121.5t-107.5 -176.5t-62 -214.5q-12 -87 -11.5 -165.5t23 -145t60.5 -115t100 -76t143 -27.5z" />
    <glyph glyph-name="uni01A2" unicode="&#x1a2;" horiz-adv-x="2399" 
d="M2461 2004l-424 -2576h-323l367 2228l-215 -80l-106 -648h-1l-112 -662q-33 -39 -74 -74.5t-111 -77t-150.5 -71.5t-196.5 -50.5t-246 -20.5q-188 0 -334.5 63t-241 185t-128 302t4.5 413l19 117h2l3 17q49 298 194.5 517.5t357 332.5t463.5 113q409 0 603 -188l402 160
h247zM510 956l-3 -21q-28 -156 -14 -284.5t63 -219.5t143.5 -141t228.5 -50q89 0 160.5 12t121 34t77 40t56.5 43l116 688l95 576q-21 26 -44.5 45t-66 40t-111 32t-158.5 11q-252 0 -421 -181t-223 -511l-19 -113h-1z" />
    <glyph glyph-name="uni01A3" unicode="&#x1a3;" horiz-adv-x="1882" 
d="M1901 1488l-340 -2060h-322l274 1666l-175 -84l-38 -231h1l-93 -561q-102 -112 -245.5 -179t-311.5 -67q-136 0 -242.5 39t-173.5 107.5t-108 162.5t-46 204.5t13 233.5l8 50q26 155 90.5 288t164 236.5t241.5 163t309 59.5q138 0 245 -48t176 -129l333 149h240zM691 231
q111 0 207 61l71 435h-1l76 461q-64 70 -183 70q-82 0 -150 -28.5t-114.5 -75t-82 -111.5t-56 -131.5t-33.5 -142.5l-7 -50q-39 -229 29 -358.5t244 -129.5z" />
    <glyph glyph-name="uni01A4" unicode="&#x1a4;" horiz-adv-x="2255" 
d="M546 0l296 1783h-108q-58 0 -100.5 -20.5t-67.5 -58.5t-38.5 -78t-21.5 -93l-15 -91h-283l24 158q30 198 176.5 323t365.5 125h842q174 0 302 -50t199.5 -139.5t96.5 -209.5t1 -264q-24 -143 -88.5 -263t-166 -210t-247 -141t-318.5 -51h-420l-120 -720h-309zM1019 982
h390q217 0 341 110t153 293q30 185 -57 291.5t-306 106.5h-388z" />
    <glyph glyph-name="uni01A5" unicode="&#x1a5;" horiz-adv-x="1738" 
d="M621 1536l-42 -249h26q27 38 49.5 65.5t68.5 69t94 68t120.5 46.5t153.5 20q139 0 248.5 -53.5t178.5 -155t93 -248.5t-7 -334q-60 -366 -274.5 -580.5t-499.5 -214.5q-80 0 -145.5 19.5t-105 46t-72.5 67.5t-47 69t-30 67h-19l-135 -815h-299l352 2112q30 187 156 282.5
t336 95.5q113 0 159 -16l-38 -228q-55 12 -94 12q-105 1 -159.5 -34t-67.5 -112zM806 225q130 0 235 72.5t169.5 193t91.5 277.5q25 156 0.5 274.5t-105.5 189t-213 70.5q-192 0 -320.5 -144t-169.5 -390q-39 -247 42 -395t270 -148z" />
    <glyph glyph-name="uni01A6" unicode="&#x1a6;" horiz-adv-x="2070" 
d="M351 2004h1l24 140h338l-24 -140h365q348 0 510 -155.5t114 -449.5q-31 -194 -150 -331t-309 -211l497 -1331l-1 -17h-358l-464 1271h-406l-130 -780h-339zM532 1048h366q187 0 304 94t140 244q27 164 -52 255t-278 91h-366z" />
    <glyph glyph-name="uni01A7" unicode="&#x1a7;" horiz-adv-x="1807" 
d="M584 1498h-298q54 257 277 417.5t533 160.5q205 0 357.5 -72.5t226 -207t46.5 -308.5q-68 -395 -622 -541l-253 -66q-76 -19 -132.5 -37.5t-113.5 -45.5t-95 -58t-65 -74.5t-35 -96.5q-25 -148 87 -240t311 -92q122 0 225.5 35t180.5 110.5t102 183.5h311
q-60 -279 -291 -439.5t-575 -160.5q-177 0 -313 45t-217.5 125t-115 190t-12.5 240q72 431 683 576l209 52q58 14 105.5 29t105.5 41.5t99 58.5t73 79.5t41 103.5q23 133 -75 218t-285 85q-178 0 -302.5 -80.5t-172.5 -230.5z" />
    <glyph glyph-name="uni01A8" unicode="&#x1a8;" horiz-adv-x="1514" 
d="M223 1161q81 187 244.5 291t407.5 104q171 0 295.5 -55.5t183 -158t36.5 -235.5q-55 -336 -496 -432l-266 -57q-117 -25 -176.5 -71.5t-70.5 -118.5q-16 -93 65.5 -156t228.5 -62q269 0 361 228l281 -44q-71 -203 -253 -314t-445 -111q-181 0 -313 59.5t-193 166.5
t-39 243q28 165 150 268.5t343 152.5l255 56q131 30 194 75.5t75 119.5q16 91 -60.5 150t-206.5 59q-235 0 -337 -206z" />
    <glyph glyph-name="uni01A9" unicode="&#x1a9;" horiz-adv-x="1815" 
d="M1526 274l-46 -274h-1427l36 209l771 795l-508 800l36 212h1373l-44 -274h-935l437 -724l-3 -25l-676 -719h986z" />
    <glyph glyph-name="uni01AA" unicode="&#x1aa;" horiz-adv-x="1626" 
d="M314 1653q21 136 107 251t213 182t264 67q136 0 241 -67t154 -182t28 -251l-286 -1716q-22 -129 15 -186t131 -57q51 0 103 12l-42 -254q-73 -23 -180 -23q-213 0 -302.5 130t-48.5 378l207 1250q-93 -34 -186 -34q-103 0 -189.5 40t-142.5 107t-80 159.5t-6 193.5z
M782 1440q91 0 157.5 56t83.5 161q17 102 -32 158.5t-138 56.5q-93 0 -161 -56.5t-85 -158.5q-17 -106 32 -161.5t143 -55.5z" />
    <glyph glyph-name="uni01AB" unicode="&#x1ab;" horiz-adv-x="1069" 
d="M1046 1536l-39 -240h-317l-140 -844q-11 -51 -5 -87.5t17.5 -59.5t35.5 -36t48 -17.5t56 -4.5t60 5l112 22l-70 -415q-35 -203 -171 -318.5t-323 -115.5q-103 0 -146 14l36 227q48 -8 86 -8q228 0 261 201l21 123q-81 6 -146.5 35t-112 78.5t-65 125t-2.5 169.5l150 906
h-224l39 240h224l61 368h299l-61 -368h316z" />
    <glyph glyph-name="uni01AC" unicode="&#x1ac;" horiz-adv-x="1940" 
d="M2028 2048l-44 -266h-638l-296 -1782h-308l296 1782h-287q-103 0 -158.5 -66.5t-71.5 -168.5l-15 -90h-269l25 145q33 204 175.5 325t357.5 121h1233z" />
    <glyph glyph-name="uni01AD" unicode="&#x1ad;" horiz-adv-x="1109" 
d="M814 1499h-2l-1 -11h270l-41 -237h-269l-136 -819q-32 -191 127 -191q36 0 120 13l-40 -251q-97 -31 -225 -31q-173 0 -258.5 108.5t-48.5 336.5l138 834h-252l41 237h251l14 87h1l23 145q19 111 70 196t124 135.5t159.5 76t182.5 25.5q90 0 159 -21l-34 -215
q-41 12 -85 12q-216 0 -252 -209z" />
    <glyph glyph-name="uni01AE" unicode="&#x1ae;" horiz-adv-x="1833" 
d="M942 0l-24 -141q-9 -53 4 -89t44 -54.5t68.5 -26t87.5 -7.5h79l-43 -258h-156q-93 0 -169.5 25t-134.5 75t-82 135.5t-6 197.5l24 143l296 1782h-638l44 266h1585l-44 -266h-639z" />
    <glyph glyph-name="uni01AF" unicode="&#x1af;" horiz-adv-x="2441" 
d="M2300 2155h246q-45 -275 -179 -426.5t-386 -181.5l-141 -854q-29 -169 -115.5 -307.5t-212 -229.5t-281 -140.5t-325.5 -49.5q-171 0 -311 49.5t-235.5 140.5t-135.5 229.5t-11 307.5l224 1355h309l-223 -1350q-18 -105 7.5 -190.5t85 -141.5t145.5 -86t190 -30
q139 0 261 51t209.5 154.5t110.5 242.5l223 1350h309l-48 -290q131 30 193 125.5t91 271.5z" />
    <glyph glyph-name="uni01B0" unicode="&#x1b0;" horiz-adv-x="1833" 
d="M1798 1610h221q-37 -230 -146 -346t-337 -134l-188 -1130h-294l45 266h-16q-75 -129 -208 -207.5t-300 -78.5q-228 0 -340.5 150t-67.5 429l164 977h299l-157 -941q-25 -156 46 -249.5t211 -93.5q65 0 131.5 24t127 70t105.5 121.5t60 169.5l150 899h300l-39 -231
q38 4 67.5 14t51 22.5t38.5 34t28 42t20 54t15 63t13 75.5z" />
    <glyph glyph-name="uni01B1" unicode="&#x1b1;" horiz-adv-x="2160" 
d="M185 958q45 272 187 476.5t359 331.5l4 16h-413l44 266h756l-56 -336q-206 -81 -368.5 -283.5t-205.5 -459.5q-32 -200 20.5 -363t179 -257t304.5 -94q133 0 258 55t222 150.5t164.5 227.5t91.5 281q43 258 -51.5 460t-275.5 283l57 336h756l-44 -266h-413l-3 -15
q176 -124 250 -330t28 -479q-35 -214 -134.5 -397.5t-242 -312.5t-327 -202.5t-384.5 -73.5t-360 73.5t-260.5 202.5t-139 312.5t-3.5 397.5z" />
    <glyph glyph-name="uni01B2" unicode="&#x1b2;" horiz-adv-x="1811" 
d="M774 -28q-162 0 -291 44t-216 129t-122 217t-7 300l222 1342h334l-221 -1342q-35 -210 55.5 -316t289.5 -106q198 0 323.5 106t160.5 316l141 861q23 126 -19 178.5t-154 52.5q-69 0 -104 -8l44 261q91 24 176 24q221 0 329 -133.5t67 -374.5l-140 -861
q-28 -166 -109.5 -299t-199 -217.5t-260 -129t-299.5 -44.5z" />
    <glyph glyph-name="uni01B3" unicode="&#x1b3;" horiz-adv-x="2066" 
d="M1774 1619l-622 -793l-138 -826h-308l137 826l-556 1222h347l401 -931h24l475 621l64 86q69 90 148.5 148.5t160 81.5t161 17t155.5 -41l-113 -242q-73 34 -145.5 11t-138.5 -113z" />
    <glyph glyph-name="uni01B4" unicode="&#x1b4;" horiz-adv-x="1715" 
d="M1468 1295l-774 -1521q-87 -167 -238.5 -270.5t-335.5 -103.5q-107 0 -179 22l41 257q30 -7 102 -7q135 0 220.5 50.5t148.5 172.5l58 119l-296 1522h319l193 -1085l474 936l37 76q208 401 496 422q155 18 283 -63l-91 -220q-87 42 -147 38q-82 -6 -140.5 -70.5
t-138.5 -217.5z" />
    <glyph glyph-name="uni01B5" unicode="&#x1b5;" horiz-adv-x="1799" 
d="M44 0l36 206l640 754h-225l36 207h365l522 615h-1087l44 266h1464l-33 -206l-574 -675h218l-36 -207h-358l-590 -694h1086l-44 -266h-1464z" />
    <glyph glyph-name="uni01B6" unicode="&#x1b6;" horiz-adv-x="1554" 
d="M42 0l35 205l435 462h-215l36 207h374l366 388l4 14h-827l43 260h1210l-36 -218l-410 -444h195l-36 -207h-350l-363 -393l-4 -14h809l-42 -260h-1224z" />
    <glyph glyph-name="uni01B7" unicode="&#x1b7;" horiz-adv-x="1880" 
d="M676 -576q-161 0 -294.5 52.5t-221 143.5t-126.5 219.5t-16 275.5h312q-15 -175 91 -293.5t305 -118.5q152 0 287.5 71t225.5 194.5t115 273.5q38 236 -106.5 383t-439.5 147h-255l41 242l785 752v16h-1061l44 266h1479l-34 -217l-855 -812l-4 -16q242 -8 414 -112.5
t246.5 -278t39.5 -386.5q-37 -222 -179 -406.5t-352 -290t-441 -105.5z" />
    <glyph glyph-name="uni01B8" unicode="&#x1b8;" horiz-adv-x="1885" 
d="M762 -576q-173 0 -318 62t-239.5 169t-135.5 255.5t-13 315.5q36 213 167.5 386.5t338.5 278t451 112.5l1 16l-586 812l38 217h1479l-44 -266h-1061l-5 -16l536 -752l-39 -242h-255q-295 0 -488.5 -147t-233.5 -383q-24 -150 25 -273.5t161 -194.5t264 -71
q199 0 344 118.5t188 293.5h312q-34 -196 -162 -354.5t-319.5 -247.5t-405.5 -89z" />
    <glyph glyph-name="uni01B9" unicode="&#x1b9;" horiz-adv-x="1810" 
d="M1499 22q-62 -250 -287 -406t-527 -156q-156 0 -283.5 45.5t-209 125t-117 192t-14.5 243.5q41 246 228 409t474 193l2 16l-452 635l38 217h1264l-44 -262h-869l-1 -16l399 -570l-36 -234h-211q-183 0 -316 -105t-162 -273q-25 -154 73 -252t277 -98q164 0 290.5 82
t169.5 214h314z" />
    <glyph glyph-name="uni01BA" unicode="&#x1ba;" horiz-adv-x="1554" 
d="M327 1488h1211l-32 -190l-531 -411q163 -43 242 -147t56 -245q-13 -79 -51.5 -143.5t-92.5 -110.5t-131.5 -83t-159 -62t-184.5 -46q-192 -38 -269.5 -90t-88.5 -130q-14 -85 52 -135t199 -50q58 0 112 12.5t106 40t90 78t54 119.5h313q-16 -93 -72.5 -181t-145.5 -158.5
t-218 -113t-276 -42.5q-273 0 -416.5 124.5t-110.5 324.5q30 181 185 287.5t446 162.5q185 37 256.5 80t84.5 128q15 77 -43 119.5t-189 42.5h-271l32 195l529 366h-728z" />
    <glyph glyph-name="uni01BB" unicode="&#x1bb;" horiz-adv-x="1735" 
d="M77 0l39 224l810 718q5 5 14.5 13.5t14.5 12.5h-136l36 207h315q153 163 177 311q25 151 -61.5 241.5t-246.5 90.5q-165 0 -283.5 -100t-146.5 -264h-296q23 138 93 254.5t172.5 197t233 125.5t272.5 45q189 0 324 -79.5t192.5 -213.5t31.5 -298q-27 -162 -133 -310h275
l-36 -207h-418q-109 -111 -285 -262l-477 -426l-3 -15h914l-44 -265h-1348z" />
    <glyph glyph-name="uni01BC" unicode="&#x1bc;" horiz-adv-x="1717" 
d="M770 -28q-187 0 -328.5 72.5t-211 201.5t-49.5 288h297q-11 -132 76 -217t236 -85q180 0 320 123.5t170 313.5q29 184 -65.5 302.5t-273.5 118.5q-96 0 -197.5 -33.5t-169.5 -85.5l-290 45l207 754h-228l47 278h1397l-46 -278h-869l-158 -560l9 3q70 61 172.5 97
t214.5 36q133 0 245 -53t186.5 -144.5t106 -221.5t8.5 -277q-24 -146 -96 -271.5t-177.5 -215t-243.5 -140.5t-289 -51z" />
    <glyph glyph-name="uni01BD" unicode="&#x1bd;" horiz-adv-x="1628" 
d="M578 643l-280 19l161 559h-231l45 267h1237l-45 -267h-705l-88 -299q52 30 138.5 53.5t167.5 25.5q252 4 371 -130t81 -380q-18 -112 -68.5 -203.5t-134.5 -162.5t-211 -110t-286 -39q-110 0 -210.5 28t-180 81.5t-118.5 142.5t-20 200l318 22q-16 -98 54 -155t200 -57
q146 0 232 71t106 192q19 119 -44 190t-201 71q-180 0 -288 -119z" />
    <glyph glyph-name="uni01BE" unicode="&#x1be;" horiz-adv-x="1554" 
d="M1017 402q6 39 -3 71t-34.5 59.5t-51 47t-67.5 47.5q-1 1 -2 1q-29 20 -44 30t-42.5 31.5t-42.5 36.5t-37 40.5t-33 48t-23.5 54.5t-16.5 64.5t-3.5 74t7.5 86.5l26 157h-252l40 237h252l60 361h325l-61 -361h268l-40 -237h-267l-26 -153q-5 -28 -4.5 -53t3.5 -45.5
t12.5 -40.5t18 -34.5t24.5 -31t28 -27t33 -25t33.5 -22.5t36.5 -23l40.5 -25.5t37.5 -25.5t37 -29.5t32 -32.5t28 -38t20 -43t14 -51t3 -59t-6 -69q-33 -199 -220.5 -325t-457.5 -126q-149 0 -264.5 43t-181 114t-92.5 159t-11 182h317q-7 -55 5 -99.5t38 -72.5t64 -46.5
t79.5 -26.5t87.5 -8q132 0 215.5 51t97.5 134z" />
    <glyph glyph-name="uni01BF" unicode="&#x1bf;" horiz-adv-x="1817" 
d="M660 1337q182 179 439 179q187 0 305.5 -95.5t157.5 -265t2 -397.5l-7 -29q-26 -161 -92 -291.5t-161.5 -228.5t-235 -179.5t-294.5 -141t-359 -115.5l-57 -345h-325l340 2060h299zM457 28q688 175 775 701l7 29q11 81 12 154t-17.5 135.5t-51 108t-88.5 71t-130 25.5
q-208 0 -335 -176z" />
    <glyph glyph-name="uni01C0" unicode="&#x1c0;" horiz-adv-x="780" 
d="M714 2036l-337 -2036h-230l338 2036h229z" />
    <glyph glyph-name="uni01C1" unicode="&#x1c1;" horiz-adv-x="1042" 
d="M664 2036l-337 -2036h-230l338 2036h229zM1036 2036l-337 -2036h-230l338 2036h229z" />
    <glyph glyph-name="uni01C2" unicode="&#x1c2;" horiz-adv-x="918" 
d="M786 2036l-90 -545h268l-36 -207h-266l-76 -457h394l-36 -207h-392l-103 -620h-230l103 620h-297l36 207h295l76 457h-423l36 207h422l90 545h229z" />
    <glyph glyph-name="uni01C3" unicode="&#x1c3;" horiz-adv-x="829" 
d="M790 2048l-268 -1459h-276l215 1459h329zM300 -30q-88 0 -143 59t-48 145q7 85 73 144.5t153 59.5q88 0 143.5 -59t47.5 -145q-7 -86 -72.5 -145t-153.5 -59z" />
    <glyph glyph-name="uni01C5" unicode="&#x1c5;" horiz-adv-x="3586" 
d="M769 0h-672l340 2048h675q299 0 498 -125t277.5 -359.5t24.5 -554.5q-78 -476 -377.5 -742.5t-765.5 -266.5zM451 270h331q347 0 558.5 200.5t273.5 575.5q60 358 -77.5 545t-470.5 187h-365zM2074 0l35 205l996 1057l4 14h-827l43 260h1210l-36 -218l-964 -1044l-4 -14
h809l-42 -260h-1224zM2794 2114l195 -224l272 224h244l-4 -15l-451 -380h-178l-327 380l4 15h245z" />
    <glyph glyph-name="uni01C6" unicode="&#x1c6;" horiz-adv-x="3013" 
d="M1411 0h-292l39 239h-25q-28 -39 -52 -67t-70.5 -69t-94.5 -67.5t-120 -46t-152 -19.5q-284 0 -427.5 214.5t-83.5 580.5q31 183 104 333t175.5 250t229.5 154t266 54q81 0 147 -20t105.5 -46.5t71.5 -68t45.5 -69t27.5 -65.5h18l127 761h299zM1496 0l35 205l996 1057
l4 14h-827l43 260h1210l-36 -218l-964 -1044l-4 -14h809l-42 -260h-1224zM1244 768q42 245 -39 389.5t-274 144.5q-195 0 -324.5 -147.5t-170.5 -386.5q-25 -157 -0.5 -277.5t105.5 -193t211 -72.5q189 0 319.5 148t172.5 395zM2233 2048l195 -224l272 224h244l-4 -15
l-451 -380h-178l-327 380l4 15h245z" />
    <glyph glyph-name="uni01C7" unicode="&#x1c7;" horiz-adv-x="3170" 
d="M97 0l340 2048h309l-296 -1782h928l-44 -266h-1237zM2583 602l239 1446h308l-242 -1458q-48 -294 -237 -456t-475 -162q-133 0 -240 36.5t-179 104t-102 170t-9 229.5h300q-18 -131 51.5 -204.5t203.5 -73.5q151 0 251 96t131 272z" />
    <glyph glyph-name="uni01C8" unicode="&#x1c8;" horiz-adv-x="2618" 
d="M363 0l340 2048h309l-296 -1782h928l-44 -266h-1237zM2174 1536h299l-270 -1630q-38 -231 -187.5 -356.5t-384.5 -125.5h-80l43 259h58q213 0 253 225zM2383 1765q-78 0 -132.5 52t-53.5 126t58 126t135 52q77 0 131.5 -52t53.5 -126t-58 -126t-134 -52z" />
    <glyph glyph-name="uni01C9" unicode="&#x1c9;" horiz-adv-x="1397" 
d="M1011 1536h299l-270 -1630q-38 -231 -187.5 -356.5t-384.5 -125.5h-80l43 259h58q213 0 253 225zM712 2048l-340 -2048h-299l340 2048h299zM1220 1765q-78 0 -132.5 52t-53.5 126t58 126t135 52q77 0 131.5 -52t53.5 -126t-58 -126t-134 -52z" />
    <glyph glyph-name="uni01CA" unicode="&#x1ca;" horiz-adv-x="3684" 
d="M2090 2048l-340 -2048h-284l-791 1502h-18l-251 -1502h-309l340 2048h286l792 -1504h19l250 1504h306zM3097 602l239 1446h308l-242 -1458q-48 -294 -237 -456t-475 -162q-133 0 -240 36.5t-179 104t-102 170t-9 229.5h300q-18 -131 51.5 -204.5t203.5 -73.5
q151 0 251 96t131 272z" />
    <glyph glyph-name="uni01CB" unicode="&#x1cb;" horiz-adv-x="2768" 
d="M2090 2048l-340 -2048h-284l-791 1502h-18l-251 -1502h-309l340 2048h286l792 -1504h19l250 1504h306zM2381 1536h299l-270 -1630q-38 -231 -187.5 -356.5t-384.5 -125.5h-80l43 259h58q213 0 253 225zM2590 1765q-78 0 -132.5 52t-53.5 126t58 126t135 52
q77 0 131.5 -52t53.5 -126t-58 -126t-134 -52z" />
    <glyph glyph-name="uni01CC" unicode="&#x1cc;" horiz-adv-x="2383" 
d="M523 912l-150 -912h-299l256 1536h287l-42 -250h19q75 127 202.5 198.5t296.5 71.5q239 0 356 -150t71 -429l-164 -977h-299l157 941q28 167 -43 261.5t-224 94.5q-160 0 -276 -102t-148 -283zM2011 1536h299l-270 -1630q-38 -231 -187.5 -356.5t-384.5 -125.5h-80
l43 259h58q213 0 253 225zM2220 1765q-78 0 -132.5 52t-53.5 126t58 126t135 52q77 0 131.5 -52t53.5 -126t-58 -126t-134 -52z" />
    <glyph glyph-name="uni01CD" unicode="&#x1cd;" horiz-adv-x="1971" 
d="M270 0h-328l1077 2048h357l397 -2048h-328l-97 542h-800zM682 802h620l-156 874h-16zM1057 2606l195 -224l272 224h244l-4 -15l-451 -380h-178l-327 380l4 15h245z" />
    <glyph glyph-name="uni01CE" unicode="&#x1ce;" horiz-adv-x="1603" 
d="M516 -34q-148 0 -255.5 53.5t-159.5 161t-28 253.5q17 101 64.5 178t108.5 124t148.5 80.5t165.5 49t179 27.5q230 27 270 36q100 20 128 67q10 17 14 40q21 135 -40.5 206.5t-205.5 71.5q-139 0 -240 -61t-155 -153l-268 64q69 135 183.5 225t243.5 128.5t275 38.5
q48 0 93.5 -4.5t97 -16t94 -31t85 -49t70.5 -69.5t49.5 -93.5t23 -121t-9.5 -151.5l-169 -1020h-292l36 210h-12q-30 -46 -74.5 -87t-105 -77.5t-142 -58t-172.5 -21.5zM618 206q180 0 304.5 102.5t148.5 245.5l33 198q-10 -9 -30 -17t-52 -16t-57 -13t-68.5 -12t-63 -9.5
t-63.5 -8.5t-48 -6q-71 -9 -127 -25t-106.5 -43t-82 -70.5t-40.5 -101.5q-18 -108 51.5 -166t200.5 -58zM812 2114l195 -224l272 224h244l-4 -15l-451 -380h-178l-327 380l4 15h245z" />
    <glyph glyph-name="uni01CF" unicode="&#x1cf;" horiz-adv-x="759" 
d="M746 2048l-340 -2048h-309l340 2048h309zM448 2606l195 -224l272 224h244l-4 -15l-451 -380h-178l-327 380l4 15h245z" />
    <glyph glyph-name="uni01D0" unicode="&#x1d0;" horiz-adv-x="701" 
d="M73 0l256 1536h299l-256 -1536h-299zM342 2118l195 -224l272 224h244l-4 -15l-451 -380h-178l-327 380l4 15h245z" />
    <glyph glyph-name="uni01D1" unicode="&#x1d1;" horiz-adv-x="2163" 
d="M2043 1004q-40 -238 -140.5 -433t-242 -326t-319 -202t-372.5 -71q-202 0 -363 74t-263.5 212t-141.5 336.5t3 447.5q40 238 140.5 433.5t242.5 326.5t320.5 202.5t374.5 71.5q201 0 361 -74t262 -212.5t141 -337.5t-3 -448zM1742 1042q30 184 9 324.5t-86 235.5
t-166 143.5t-230 48.5q-137 0 -261.5 -52.5t-226 -151t-174 -249.5t-102.5 -337q-60 -356 74 -553t400 -197q137 0 261 52.5t225 150.5t174 248t103 337zM1150 2606l195 -224l272 224h244l-4 -15l-451 -380h-178l-327 380l4 15h245z" />
    <glyph glyph-name="uni01D2" unicode="&#x1d2;" horiz-adv-x="1699" 
d="M730 -31q-217 0 -365 100.5t-207.5 283t-20.5 421.5q57 354 284.5 568t547.5 214q217 0 365.5 -100.5t207.5 -284t20 -423.5q-57 -352 -284.5 -565.5t-547.5 -213.5zM747 220q105 0 195.5 44t155 120.5t108 176t61.5 213.5q12 87 11.5 166t-23 146t-60.5 116t-100 76.5
t-143 27.5q-105 0 -195.5 -44.5t-155 -121.5t-107.5 -176.5t-62 -214.5q-12 -87 -11.5 -165.5t23 -145t60.5 -115t100 -76t143 -27.5zM840 2114l195 -224l272 224h244l-4 -15l-451 -380h-178l-327 380l4 15h245z" />
    <glyph glyph-name="uni01D3" unicode="&#x1d3;" horiz-adv-x="2077" 
d="M1755 2048h309l-224 -1355q-29 -169 -115.5 -307.5t-212 -229.5t-281 -140.5t-325.5 -49.5q-171 0 -311 49.5t-235.5 140.5t-135.5 229.5t-11 307.5l224 1355h309l-223 -1350q-18 -105 7.5 -190.5t85 -141.5t145.5 -86t190 -30q139 0 261 51t209.5 154.5t110.5 242.5z
M1110 2606l195 -224l272 224h244l-4 -15l-451 -380h-178l-327 380l4 15h245z" />
    <glyph glyph-name="uni01D4" unicode="&#x1d4;" horiz-adv-x="1674" 
d="M1152 637l150 899h300l-256 -1536h-294l45 266h-16q-75 -129 -208 -207.5t-300 -78.5q-228 0 -340.5 150t-67.5 429l164 977h299l-157 -941q-25 -156 46 -249.5t211 -93.5q65 0 131.5 24t127 70t105.5 121.5t60 169.5zM826 2114l195 -224l272 224h244l-4 -15l-451 -380
h-178l-327 380l4 15h245z" />
    <glyph glyph-name="uni01D5" unicode="&#x1d5;" horiz-adv-x="2077" 
d="M1755 2048h309l-224 -1355q-29 -169 -115.5 -307.5t-212 -229.5t-281 -140.5t-325.5 -49.5q-171 0 -311 49.5t-235.5 140.5t-135.5 229.5t-11 307.5l224 1355h309l-223 -1350q-18 -105 7.5 -190.5t85 -141.5t145.5 -86t190 -30q139 0 261 51t209.5 154.5t110.5 242.5z
M1862 2876l-34 -217h-950l35 217h949zM822 2388q10 68 63 113t129 45q79 0 118 -44.5t29 -113.5q-12 -67 -65 -110t-131 -43q-79 0 -117 44t-26 109zM1455 2388q9 66 63 110.5t133 44.5q76 0 114.5 -44.5t28.5 -110.5q-13 -66 -65.5 -111t-130.5 -45t-116.5 44.5
t-26.5 111.5z" />
    <glyph glyph-name="uni01D6" unicode="&#x1d6;" horiz-adv-x="1674" 
d="M1152 637l150 899h300l-256 -1536h-294l45 266h-16q-75 -129 -208 -207.5t-300 -78.5q-228 0 -340.5 150t-67.5 429l164 977h299l-157 -941q-25 -156 46 -249.5t211 -93.5q65 0 131.5 24t127 70t105.5 121.5t60 169.5zM1595 2421l-37 -216h-953l38 216h952zM1167 1887
q10 70 64 117t132 47t117.5 -47t30.5 -117q-11 -67 -66 -112.5t-133 -45.5t-116.5 45.5t-28.5 112.5zM540 1890q10 69 65 115t134 46q78 0 116 -46.5t28 -114.5t-64 -112.5t-132 -44.5t-117.5 44t-29.5 113z" />
    <glyph glyph-name="uni01D7" unicode="&#x1d7;" horiz-adv-x="2077" 
d="M1755 2048h309l-224 -1355q-29 -169 -115.5 -307.5t-212 -229.5t-281 -140.5t-325.5 -49.5q-171 0 -311 49.5t-235.5 140.5t-135.5 229.5t-11 307.5l224 1355h309l-223 -1350q-18 -105 7.5 -190.5t85 -141.5t145.5 -86t190 -30q139 0 261 51t209.5 154.5t110.5 242.5z
M962 2240q-68 0 -110 48t-32 114q12 68 70.5 115t127.5 47q75 0 115.5 -46.5t28.5 -115.5q-9 -66 -67.5 -114t-132.5 -48zM1599 2240q-68 0 -110.5 48.5t-32.5 113.5q12 69 70.5 115.5t128.5 46.5q74 0 114.5 -46.5t28.5 -115.5q-9 -65 -67.5 -113.5t-131.5 -48.5z
M1208 2497l224 296h268l-302 -296h-190z" />
    <glyph glyph-name="uni01D8" unicode="&#x1d8;" horiz-adv-x="1674" 
d="M1152 637l150 899h300l-256 -1536h-294l45 266h-16q-75 -129 -208 -207.5t-300 -78.5q-228 0 -340.5 150t-67.5 429l164 977h299l-157 -941q-25 -156 46 -249.5t211 -93.5q65 0 131.5 24t127 70t105.5 121.5t60 169.5zM930 2169l324 453h334l-403 -453h-255zM739 1737
q-75 0 -126.5 51t-50.5 123q2 72 55.5 123t127.5 51q73 0 123.5 -51t49.5 -123t-54 -123t-125 -51zM1323 1737q-74 0 -125.5 51t-50.5 123q2 71 55.5 122.5t127.5 51.5q73 0 123.5 -51t49.5 -123t-54 -123t-126 -51z" />
    <glyph glyph-name="uni01D9" unicode="&#x1d9;" horiz-adv-x="2077" 
d="M1755 2048h309l-224 -1355q-29 -169 -115.5 -307.5t-212 -229.5t-281 -140.5t-325.5 -49.5q-171 0 -311 49.5t-235.5 140.5t-135.5 229.5t-11 307.5l224 1355h309l-223 -1350q-18 -105 7.5 -190.5t85 -141.5t145.5 -86t190 -30q139 0 261 51t209.5 154.5t110.5 242.5z
M1191 2871l168 -166l222 166h277l-4 -23l-420 -306h-209l-313 304l4 25h275zM823 2396q9 68 62 113t130 45q79 0 117.5 -44.5t28.5 -113.5q-12 -67 -64.5 -110t-131.5 -43q-78 0 -116.5 44t-25.5 109zM1456 2396q9 66 63 110.5t133 44.5q75 0 113.5 -44.5t29.5 -110.5
q-13 -66 -66 -111t-130 -45q-80 0 -118 44.5t-25 111.5z" />
    <glyph glyph-name="uni01DA" unicode="&#x1da;" horiz-adv-x="1674" 
d="M1152 637l150 899h300l-256 -1536h-294l45 266h-16q-75 -129 -208 -207.5t-300 -78.5q-228 0 -340.5 150t-67.5 429l164 977h299l-157 -941q-25 -156 46 -249.5t211 -93.5q65 0 131.5 24t127 70t105.5 121.5t60 169.5zM924 2537l169 -218l237 218h276v-16l-442 -382h-202
l-312 383v15h274zM1164 1887q10 69 65 116.5t134 47.5q78 0 117.5 -47t30.5 -117q-11 -67 -66 -112.5t-133 -45.5q-79 0 -118.5 45.5t-29.5 112.5zM540 1890q10 67 64 114t132 47t117.5 -46t30.5 -115q-11 -68 -66 -112.5t-134 -44.5q-76 0 -115 44.5t-29 112.5z" />
    <glyph glyph-name="uni01DB" unicode="&#x1db;" horiz-adv-x="2077" 
d="M1755 2048h309l-224 -1355q-29 -169 -115.5 -307.5t-212 -229.5t-281 -140.5t-325.5 -49.5q-171 0 -311 49.5t-235.5 140.5t-135.5 229.5t-11 307.5l224 1355h309l-223 -1350q-18 -105 7.5 -190.5t85 -141.5t145.5 -86t190 -30q139 0 261 51t209.5 154.5t110.5 242.5z
M822 2396q11 68 63.5 113t128.5 45q80 0 119 -44.5t29 -113.5q-12 -67 -65 -110t-132 -43q-78 0 -116.5 44t-26.5 109zM1455 2396q10 66 64 110.5t132 44.5q77 0 115 -44.5t28 -110.5q-12 -66 -64.5 -111t-131.5 -45q-78 0 -116.5 44.5t-26.5 111.5zM1310 2793l128 -296
h-192l-204 296h268z" />
    <glyph glyph-name="uni01DC" unicode="&#x1dc;" horiz-adv-x="1674" 
d="M1152 637l150 899h300l-256 -1536h-294l45 266h-16q-75 -129 -208 -207.5t-300 -78.5q-228 0 -340.5 150t-67.5 429l164 977h299l-157 -941q-25 -156 46 -249.5t211 -93.5q65 0 131.5 24t127 70t105.5 121.5t60 169.5zM1028 2534l203 -414h-272l-304 414h373zM1164 1887
q10 69 65.5 116.5t133.5 47.5t117.5 -47t30.5 -117q-11 -67 -66 -112.5t-133 -45.5q-79 0 -118.5 45.5t-29.5 112.5zM540 1890q10 67 63.5 114t131.5 47q79 0 118.5 -46t29.5 -115q-10 -68 -64.5 -112.5t-134.5 -44.5q-76 0 -115 44.5t-29 112.5z" />
    <glyph glyph-name="uni01DD" unicode="&#x1dd;" horiz-adv-x="1661" 
d="M928 1567q224 0 374 -97.5t207.5 -276t17.5 -415.5q-38 -234 -155.5 -415.5t-296 -282t-389.5 -100.5q-108 0 -200.5 27t-171.5 85t-126.5 148.5t-65.5 218t12 293.5l17 106h1093q38 242 -55 352t-305 110q-131 0 -231 -55.5t-160 -163.5l-274 51q85 190 273 302.5
t436 112.5zM1207 634h-798q-30 -178 56.5 -292.5t258.5 -114.5q85 0 167.5 35.5t145.5 93t108.5 130.5t61.5 148z" />
    <glyph glyph-name="uni01DE" unicode="&#x1de;" horiz-adv-x="1971" 
d="M270 0h-328l1077 2048h357l397 -2048h-328l-97 542h-800zM682 802h620l-156 874h-16zM1809 2876l-34 -217h-950l35 217h949zM769 2388q10 68 63 113t129 45q79 0 118 -44.5t29 -113.5q-12 -67 -65 -110t-131 -43q-79 0 -117 44t-26 109zM1402 2388q9 66 63 110.5
t133 44.5q76 0 114.5 -44.5t28.5 -110.5q-13 -66 -65.5 -111t-130.5 -45t-116.5 44.5t-26.5 111.5z" />
    <glyph glyph-name="uni01DF" unicode="&#x1df;" horiz-adv-x="1603" 
d="M516 -34q-148 0 -255.5 53.5t-159.5 161t-28 253.5q17 101 64.5 178t108.5 124t148.5 80.5t165.5 49t179 27.5q230 27 270 36q100 20 128 67q10 17 14 40q21 135 -40.5 206.5t-205.5 71.5q-139 0 -240 -61t-155 -153l-268 64q69 135 183.5 225t243.5 128.5t275 38.5
q48 0 93.5 -4.5t97 -16t94 -31t85 -49t70.5 -69.5t49.5 -93.5t23 -121t-9.5 -151.5l-169 -1020h-292l36 210h-12q-30 -46 -74.5 -87t-105 -77.5t-142 -58t-172.5 -21.5zM618 206q180 0 304.5 102.5t148.5 245.5l33 198q-10 -9 -30 -17t-52 -16t-57 -13t-68.5 -12t-63 -9.5
t-63.5 -8.5t-48 -6q-71 -9 -127 -25t-106.5 -43t-82 -70.5t-40.5 -101.5q-18 -108 51.5 -166t200.5 -58zM1581 2421l-37 -216h-953l38 216h952zM1153 1887q10 70 64 117t132 47t117.5 -47t30.5 -117q-11 -67 -66 -112.5t-133 -45.5t-116.5 45.5t-28.5 112.5zM526 1890
q10 69 65 115t134 46q78 0 116 -46.5t28 -114.5t-64 -112.5t-132 -44.5t-117.5 44t-29.5 113z" />
    <glyph glyph-name="uni01E0" unicode="&#x1e0;" horiz-adv-x="1971" 
d="M270 0h-328l1077 2048h357l397 -2048h-328l-97 542h-800zM682 802h620l-156 874h-16zM1813 2875l-34 -217h-953l34 217h953zM1085 2391q10 66 63.5 110.5t132.5 44.5q78 0 117 -44.5t29 -110.5q-12 -67 -66 -111.5t-132 -44.5q-80 0 -118 44.5t-26 111.5z" />
    <glyph glyph-name="uni01E1" unicode="&#x1e1;" horiz-adv-x="1603" 
d="M516 -34q-148 0 -255.5 53.5t-159.5 161t-28 253.5q17 101 64.5 178t108.5 124t148.5 80.5t165.5 49t179 27.5q230 27 270 36q100 20 128 67q10 17 14 40q21 135 -40.5 206.5t-205.5 71.5q-139 0 -240 -61t-155 -153l-268 64q69 135 183.5 225t243.5 128.5t275 38.5
q48 0 93.5 -4.5t97 -16t94 -31t85 -49t70.5 -69.5t49.5 -93.5t23 -121t-9.5 -151.5l-169 -1020h-292l36 210h-12q-30 -46 -74.5 -87t-105 -77.5t-142 -58t-172.5 -21.5zM618 206q180 0 304.5 102.5t148.5 245.5l33 198q-10 -9 -30 -17t-52 -16t-57 -13t-68.5 -12t-63 -9.5
t-63.5 -8.5t-48 -6q-71 -9 -127 -25t-106.5 -43t-82 -70.5t-40.5 -101.5q-18 -108 51.5 -166t200.5 -58zM1582 2442l-34 -216h-953l34 216h953zM835 1903q10 73 65.5 120.5t136.5 47.5q83 0 122 -48t29 -120q-13 -73 -67.5 -118.5t-136.5 -45.5q-81 0 -121.5 46t-27.5 118z
" />
    <glyph glyph-name="uni01E2" unicode="&#x1e2;" horiz-adv-x="2826" 
d="M-58 0l1294 2048h1613l-44 -266h-975l-104 -624h908l-44 -265h-908l-104 -627h987l-44 -266h-1296l90 542h-697l-336 -542h-340zM779 802h580l159 957h-147zM2600 2503l-34 -214h-953l34 214h953z" />
    <glyph glyph-name="uni01E3" unicode="&#x1e3;" horiz-adv-x="2595" 
d="M1680 -31q-212 0 -347.5 87t-191.5 250h-11q-21 -49 -73.5 -105.5t-129 -110t-186 -89t-225.5 -35.5q-148 0 -255.5 53.5t-159.5 161t-28 253.5q17 100 64 177t108 124t148 80.5t165.5 50t180.5 27.5q223 24 248 28q123 21 151 69q7 12 10 27q50 297 -240 297
q-141 0 -242.5 -61t-155.5 -153l-268 64q70 135 184 225t243 128.5t275 38.5q179 0 288.5 -66t142.5 -175q215 241 538 241q108 0 200.5 -27t171.5 -85t126.5 -148.5t65.5 -218t-12 -293.5l-14 -88l-1099 -73q-7 -195 91.5 -300.5t280.5 -106.5q136 -1 235.5 55t149.5 151
l283 -6q-59 -202 -254.5 -324.5t-457.5 -122.5zM1382 846l808 56q30 178 -57 292.5t-259 114.5q-175 0 -309.5 -123.5t-182.5 -339.5zM618 206q180 0 304.5 102.5t148.5 245.5l33 198q-10 -9 -30 -17t-52 -16t-57 -13t-68.5 -12t-63 -9.5t-63.5 -8.5t-48 -6q-71 -9 -127 -25
t-106.5 -43t-82 -70.5t-40.5 -101.5q-18 -108 51.5 -166t200.5 -58zM1963 2010l-34 -214h-953l34 214h953z" />
    <glyph glyph-name="uni01E4" unicode="&#x1e4;" horiz-adv-x="2118" 
d="M1294 502l22 123h275q37 80 50 168h-502l45 255h805l-41 -233q-30 -191 -119.5 -349.5t-220.5 -266.5t-299 -167.5t-353 -59.5q-207 0 -367.5 73t-258.5 209.5t-134 331t6 437.5q39 241 140 440t244.5 332.5t324 207t378.5 73.5q331 0 535.5 -187.5t206.5 -487.5h-319
q-28 185 -147.5 289t-320.5 104q-130 0 -249.5 -51t-217 -147t-168 -242.5t-100.5 -328.5q-31 -187 -8.5 -331t90 -241.5t172.5 -148t241 -50.5q155 0 289.5 65.5t224.5 182.5h-224z" />
    <glyph glyph-name="uni01E5" unicode="&#x1e5;" horiz-adv-x="1738" 
d="M597 -583q-235 0 -377 83t-202 217l247 160q18 -30 33 -51t48.5 -53.5t70 -53t95.5 -36t128 -15.5q118 0 218 39.5t172 123t90 198.5l41 251h-21q-27 -37 -51.5 -65t-70 -67t-94 -64t-120 -43t-152.5 -18q-137 0 -245.5 48.5t-180.5 143.5t-97 235t5 324q40 239 154 418
t275 271.5t347 92.5q82 0 148 -20t105 -46t72 -68.5t46 -68.5t29 -66h22l41 249h292l-108 -653h312l-36 -207h-311l-110 -666q-25 -145 -99 -259t-183.5 -186.5t-244.5 -110t-288 -37.5zM760 271q170 0 289 106t172 299h-307l36 207h305q11 194 -72 306.5t-252 112.5
q-195 0 -326 -146.5t-169 -377.5q-38 -232 45.5 -369.5t278.5 -137.5z" />
    <glyph glyph-name="uni01E6" unicode="&#x1e6;" horiz-adv-x="2109" 
d="M200 1023q39 241 140 440t244.5 332.5t324 207t378.5 73.5q331 0 535.5 -187.5t206.5 -487.5h-319q-28 185 -147.5 289t-320.5 104q-130 0 -249.5 -51t-217 -147t-168 -242.5t-100.5 -328.5q-31 -187 -8.5 -331t90 -241.5t172.5 -148t241 -50.5q240 0 419.5 149.5
t217.5 389.5h-502l45 255h805l-41 -233q-30 -191 -119.5 -349.5t-220.5 -266.5t-299 -167.5t-353 -59.5q-207 0 -367.5 73t-258.5 209.5t-134 331t6 437.5zM1142 2606l195 -224l272 224h244l-4 -15l-451 -380h-178l-327 380l4 15h245z" />
    <glyph glyph-name="uni01E7" unicode="&#x1e7;" horiz-adv-x="1738" 
d="M597 -583q-235 0 -377 83t-202 217l247 160q18 -30 33 -51t48.5 -53.5t70 -53t95.5 -36t128 -15.5q118 0 218 39.5t172 123t90 198.5l41 251h-21q-27 -37 -51.5 -65t-70 -67t-94 -64t-120 -43t-152.5 -18q-137 0 -245.5 48.5t-180.5 143.5t-97 235t5 324q40 239 154 418
t275 271.5t347 92.5q82 0 148 -20t105 -46t72 -68.5t46 -68.5t29 -66h22l41 249h292l-253 -1526q-25 -145 -99 -259t-183.5 -186.5t-244.5 -110t-288 -37.5zM760 271q192 0 318 133.5t165 373.5q21 117 10 213.5t-48.5 165.5t-107.5 107t-166 38q-195 0 -326 -146.5
t-169 -377.5q-38 -232 45.5 -369.5t278.5 -137.5zM874 2114l195 -224l272 224h244l-4 -15l-451 -380h-178l-327 380l4 15h245z" />
    <glyph glyph-name="uni01E8" unicode="&#x1e8;" horiz-adv-x="1871" 
d="M97 0l340 2048h309l-161 -978h25l1020 978h389l-977 -922l640 -1126h-372l-508 915l-288 -279l-108 -636h-309zM1007 2606l195 -224l272 224h244l-4 -15l-451 -380h-178l-327 380l4 15h245z" />
    <glyph glyph-name="uni01E9" unicode="&#x1e9;" horiz-adv-x="1567" 
d="M73 0l340 2048h299l-193 -1162h25l722 650h358l-732 -661l518 -875h-367l-407 693l-173 -148l-91 -545h-299zM423 2606l195 -224l272 224h244l-4 -15l-451 -380h-178l-327 380l4 15h245z" />
    <glyph glyph-name="uni01EA" unicode="&#x1ea;" horiz-adv-x="2163" 
d="M2043 1004q-70 -415 -309 -682.5t-573 -331.5q-108 -65 -172.5 -127.5t-76.5 -135.5q-19 -98 85 -98q55 0 129 32l-5 -190q-105 -60 -229 -60q-129 0 -199.5 69t-57.5 195q17 174 188 308q-170 25 -302 109t-215 220t-111 320t9 410q40 238 140.5 433.5t242.5 326.5
t320.5 202.5t374.5 71.5q201 0 361 -74t262 -212.5t141 -337.5t-3 -448zM1742 1042q30 184 9 324.5t-86 235.5t-166 143.5t-230 48.5q-137 0 -261.5 -52.5t-226 -151t-174 -249.5t-102.5 -337q-60 -356 74 -553t400 -197q137 0 261 52.5t225 150.5t174 248t103 337z" />
    <glyph glyph-name="uni01EB" unicode="&#x1eb;" horiz-adv-x="1699" 
d="M659 -591q-129 0 -199.5 69t-57.5 195q17 174 188 308q-261 47 -383 259.5t-70 533.5q57 354 284.5 568t547.5 214q217 0 365.5 -100.5t207.5 -284t20 -423.5q-47 -290 -212.5 -489.5t-408.5 -262.5q-114 -68 -182 -131.5t-80 -139.5q-19 -98 85 -98q55 0 129 32l-5 -190
q-105 -60 -229 -60zM747 220q105 0 195.5 44t155 120.5t108 176t61.5 213.5q12 87 11.5 166t-23 146t-60.5 116t-100 76.5t-143 27.5q-105 0 -195.5 -44.5t-155 -121.5t-107.5 -176.5t-62 -214.5q-12 -87 -11.5 -165.5t23 -145t60.5 -115t100 -76t143 -27.5z" />
    <glyph glyph-name="uni01EC" unicode="&#x1ec;" horiz-adv-x="2163" 
d="M2043 1004q-70 -415 -309 -682.5t-573 -331.5q-108 -65 -172.5 -127.5t-76.5 -135.5q-19 -98 85 -98q55 0 129 32l-5 -190q-105 -60 -229 -60q-129 0 -199.5 69t-57.5 195q17 174 188 308q-170 25 -302 109t-215 220t-111 320t9 410q40 238 140.5 433.5t242.5 326.5
t320.5 202.5t374.5 71.5q201 0 361 -74t262 -212.5t141 -337.5t-3 -448zM1742 1042q30 184 9 324.5t-86 235.5t-166 143.5t-230 48.5q-137 0 -261.5 -52.5t-226 -151t-174 -249.5t-102.5 -337q-60 -356 74 -553t400 -197q137 0 261 52.5t225 150.5t174 248t103 337z
M1850 2503l-34 -214h-953l34 214h953z" />
    <glyph glyph-name="uni01ED" unicode="&#x1ed;" horiz-adv-x="1699" 
d="M659 -591q-129 0 -199.5 69t-57.5 195q17 174 188 308q-261 47 -383 259.5t-70 533.5q57 354 284.5 568t547.5 214q217 0 365.5 -100.5t207.5 -284t20 -423.5q-47 -290 -212.5 -489.5t-408.5 -262.5q-114 -68 -182 -131.5t-80 -139.5q-19 -98 85 -98q55 0 129 32l-5 -190
q-105 -60 -229 -60zM747 220q105 0 195.5 44t155 120.5t108 176t61.5 213.5q12 87 11.5 166t-23 146t-60.5 116t-100 76.5t-143 27.5q-105 0 -195.5 -44.5t-155 -121.5t-107.5 -176.5t-62 -214.5q-12 -87 -11.5 -165.5t23 -145t60.5 -115t100 -76t143 -27.5zM1540 2011
l-34 -214h-953l34 214h953z" />
    <glyph glyph-name="uni01EE" unicode="&#x1ee;" horiz-adv-x="1880" 
d="M676 -576q-161 0 -294.5 52.5t-221 143.5t-126.5 219.5t-16 275.5h312q-15 -175 91 -293.5t305 -118.5q152 0 287.5 71t225.5 194.5t115 273.5q38 236 -106.5 383t-439.5 147h-255l41 242l785 752v16h-1061l44 266h1479l-34 -217l-855 -812l-4 -16q242 -8 414 -112.5
t246.5 -278t39.5 -386.5q-37 -222 -179 -406.5t-352 -290t-441 -105.5zM1002 2606l195 -224l272 224h244l-4 -15l-451 -380h-178l-327 380l4 15h245z" />
    <glyph glyph-name="uni01EF" unicode="&#x1ef;" horiz-adv-x="1819" 
d="M65 22h314q0 -132 99 -214t263 -82q179 0 309.5 98t156.5 252q26 168 -72 273t-281 105h-211l42 234l588 570l4 16h-869l43 262h1264l-34 -217l-663 -635l-3 -16q277 -30 410 -193t93 -409q-30 -174 -145 -312.5t-293 -216t-387 -77.5q-302 0 -475.5 156t-152.5 406z
M913 2114l195 -224l272 224h244l-4 -15l-451 -380h-178l-327 380l4 15h245z" />
    <glyph glyph-name="uni01F0" unicode="&#x1f0;" horiz-adv-x="701" 
d="M329 1536h299l-270 -1630q-38 -231 -187.5 -356.5t-384.5 -125.5h-80l43 259h58q213 0 253 225zM339 2118l195 -224l272 224h244l-4 -15l-451 -380h-178l-327 380l4 15h245z" />
    <glyph glyph-name="uni01F1" unicode="&#x1f1;" horiz-adv-x="3831" 
d="M769 0h-672l340 2048h675q299 0 498 -125t277.5 -359.5t24.5 -554.5q-78 -476 -377.5 -742.5t-765.5 -266.5zM451 270h331q347 0 558.5 200.5t273.5 575.5q60 358 -77.5 545t-470.5 187h-365zM2076 0l36 206l1338 1576h-1087l44 266h1464l-33 -206l-1340 -1576h1086
l-44 -266h-1464z" />
    <glyph glyph-name="uni01F2" unicode="&#x1f2;" horiz-adv-x="3586" 
d="M769 0h-672l340 2048h675q299 0 498 -125t277.5 -359.5t24.5 -554.5q-78 -476 -377.5 -742.5t-765.5 -266.5zM451 270h331q347 0 558.5 200.5t273.5 575.5q60 358 -77.5 545t-470.5 187h-365zM2074 0l35 205l996 1057l4 14h-827l43 260h1210l-36 -218l-964 -1044l-4 -14
h809l-42 -260h-1224z" />
    <glyph glyph-name="uni01F4" unicode="&#x1f4;" horiz-adv-x="2109" 
d="M200 1023q39 241 140 440t244.5 332.5t324 207t378.5 73.5q331 0 535.5 -187.5t206.5 -487.5h-319q-28 185 -147.5 289t-320.5 104q-130 0 -249.5 -51t-217 -147t-168 -242.5t-100.5 -328.5q-31 -187 -8.5 -331t90 -241.5t172.5 -148t241 -50.5q240 0 419.5 149.5
t217.5 389.5h-502l45 255h805l-41 -233q-30 -191 -119.5 -349.5t-220.5 -266.5t-299 -167.5t-353 -59.5q-207 0 -367.5 73t-258.5 209.5t-134 331t6 437.5zM1171 2201l324 453h334l-403 -453h-255z" />
    <glyph glyph-name="uni01F5" unicode="&#x1f5;" horiz-adv-x="1738" 
d="M597 -583q-235 0 -377 83t-202 217l247 160q18 -30 33 -51t48.5 -53.5t70 -53t95.5 -36t128 -15.5q118 0 218 39.5t172 123t90 198.5l41 251h-21q-27 -37 -51.5 -65t-70 -67t-94 -64t-120 -43t-152.5 -18q-137 0 -245.5 48.5t-180.5 143.5t-97 235t5 324q40 239 154 418
t275 271.5t347 92.5q82 0 148 -20t105 -46t72 -68.5t46 -68.5t29 -66h22l41 249h292l-253 -1526q-25 -145 -99 -259t-183.5 -186.5t-244.5 -110t-288 -37.5zM760 271q192 0 318 133.5t165 373.5q21 117 10 213.5t-48.5 165.5t-107.5 107t-166 38q-195 0 -326 -146.5
t-169 -377.5q-38 -232 45.5 -369.5t278.5 -137.5zM903 1709l324 453h334l-403 -453h-255z" />
    <glyph glyph-name="uni01F6" unicode="&#x1f6;" horiz-adv-x="3145" 
d="M97 0l340 2048h309l-148 -890h1021l148 890h310l-222 -1333l-8 -53q-35 -208 48 -312t271 -104q380 0 451 416l143 860h310l-144 -860q-56 -333 -271.5 -511.5t-532.5 -178.5q-321 0 -479.5 180t-104.5 510l8 53l29 178h-1021l-148 -893h-309z" />
    <glyph glyph-name="uni01F7" unicode="&#x1f7;" horiz-adv-x="1886" 
d="M722 2004l-8 -52q166 80 370 80q191 0 335 -54t235.5 -161t122.5 -266.5t-3 -370.5l-12 -72q-50 -307 -244 -578t-495 -464.5t-666 -281.5l-59 -356h-336l424 2576h336zM402 60q221 64 405 179t309 256.5t203 297.5t105 315l13 76q47 287 -45 432t-350 145
q-238 0 -387 -162z" />
    <glyph glyph-name="uni01F8" unicode="&#x1f8;" horiz-adv-x="2103" 
d="M2090 2048l-340 -2048h-284l-791 1502h-18l-251 -1502h-309l340 2048h286l792 -1504h19l250 1504h306zM1261 2615l201 -414h-272l-303 414h374z" />
    <glyph glyph-name="uni01F9" unicode="&#x1f9;" horiz-adv-x="1682" 
d="M523 912l-150 -912h-299l256 1536h287l-42 -250h19q75 127 202.5 198.5t296.5 71.5q239 0 356 -150t71 -429l-164 -977h-299l157 941q28 167 -43 261.5t-224 94.5q-160 0 -276 -102t-148 -283zM968 2123l201 -414h-272l-303 414h374z" />
    <glyph glyph-name="uni01FA" unicode="&#x1fa;" horiz-adv-x="1971" 
d="M270 0h-328l1077 2048h357l397 -2048h-328l-97 542h-800zM682 802h620l-156 874h-16zM1213 2133q-99 0 -159.5 69t-45.5 166q18 97 101 166t181 69q101 0 160.5 -69t41.5 -166q-16 -98 -97 -166.5t-182 -68.5zM1188 2677l267 262h306l-373 -262h-200zM1234 2272
q42 0 74.5 28.5t38.5 67.5q6 37 -17 64.5t-64 27.5q-39 0 -73 -28t-40 -64q-6 -39 17.5 -67.5t63.5 -28.5z" />
    <glyph glyph-name="uni01FB" unicode="&#x1fb;" horiz-adv-x="1603" 
d="M516 -34q-148 0 -255.5 53.5t-159.5 161t-28 253.5q17 101 64.5 178t108.5 124t148.5 80.5t165.5 49t179 27.5q230 27 270 36q100 20 128 67q10 17 14 40q21 135 -40.5 206.5t-205.5 71.5q-139 0 -240 -61t-155 -153l-268 64q69 135 183.5 225t243.5 128.5t275 38.5
q48 0 93.5 -4.5t97 -16t94 -31t85 -49t70.5 -69.5t49.5 -93.5t23 -121t-9.5 -151.5l-169 -1020h-292l36 210h-12q-30 -46 -74.5 -87t-105 -77.5t-142 -58t-172.5 -21.5zM618 206q180 0 304.5 102.5t148.5 245.5l33 198q-10 -9 -30 -17t-52 -16t-57 -13t-68.5 -12t-63 -9.5
t-63.5 -8.5t-48 -6q-71 -9 -127 -25t-106.5 -43t-82 -70.5t-40.5 -101.5q-18 -108 51.5 -166t200.5 -58zM968 1641q-99 0 -159.5 69t-45.5 166q18 97 101 166t181 69q101 0 160.5 -69t41.5 -166q-16 -98 -97 -166.5t-182 -68.5zM943 2185l267 262h306l-373 -262h-200z
M989 1780q42 0 74.5 28.5t38.5 67.5q6 37 -17 64.5t-64 27.5q-39 0 -73 -28t-40 -64q-6 -39 17.5 -67.5t63.5 -28.5z" />
    <glyph glyph-name="uni01FC" unicode="&#x1fc;" horiz-adv-x="2826" 
d="M-58 0l1294 2048h1613l-44 -266h-975l-104 -624h908l-44 -265h-908l-104 -627h987l-44 -266h-1296l90 542h-697l-336 -542h-340zM779 802h580l159 957h-147zM1929 2201l324 453h334l-403 -453h-255z" />
    <glyph glyph-name="uni01FD" unicode="&#x1fd;" horiz-adv-x="2595" 
d="M1680 -31q-212 0 -347.5 87t-191.5 250h-11q-21 -49 -73.5 -105.5t-129 -110t-186 -89t-225.5 -35.5q-148 0 -255.5 53.5t-159.5 161t-28 253.5q17 100 64 177t108 124t148 80.5t165.5 50t180.5 27.5q223 24 248 28q123 21 151 69q7 12 10 27q50 297 -240 297
q-141 0 -242.5 -61t-155.5 -153l-268 64q70 135 184 225t243 128.5t275 38.5q179 0 288.5 -66t142.5 -175q215 241 538 241q108 0 200.5 -27t171.5 -85t126.5 -148.5t65.5 -218t-12 -293.5l-14 -88l-1099 -73q-7 -195 91.5 -300.5t280.5 -106.5q136 -1 235.5 55t149.5 151
l283 -6q-59 -202 -254.5 -324.5t-457.5 -122.5zM1382 846l808 56q30 178 -57 292.5t-259 114.5q-175 0 -309.5 -123.5t-182.5 -339.5zM618 206q180 0 304.5 102.5t148.5 245.5l33 198q-10 -9 -30 -17t-52 -16t-57 -13t-68.5 -12t-63 -9.5t-63.5 -8.5t-48 -6q-71 -9 -127 -25
t-106.5 -43t-82 -70.5t-40.5 -101.5q-18 -108 51.5 -166t200.5 -58zM1292 1708l324 453h334l-403 -453h-255z" />
    <glyph glyph-name="uni01FE" unicode="&#x1fe;" horiz-adv-x="2166" 
d="M452 -89l-162 114l114 159q-140 140 -193 358.5t-7 496.5q40 238 140.5 433.5t242.5 326.5t320.5 202.5t374.5 71.5q230 0 404 -96l112 156l162 -114l-116 -161q139 -141 192 -360t7 -497q-40 -238 -140.5 -433t-242 -326t-319 -202t-372.5 -71q-232 0 -407 96zM586 438
l927 1297q-106 56 -244 56q-137 0 -261.5 -52.5t-226 -151t-174 -249.5t-102.5 -337q-61 -362 81 -563zM1742 1039q60 362 -80 564l-927 -1297q107 -55 244 -55t261 52.5t225 150.5t174 248t103 337zM1179 2198l324 453h334l-403 -453h-255z" />
    <glyph glyph-name="uni01FF" unicode="&#x1ff;" horiz-adv-x="1698" 
d="M249 -89l-149 114l140 165q-78 107 -104.5 254.5t1.5 329.5q57 354 284.5 568t547.5 214q207 0 351 -92l126 149l146 -114l-136 -160q166 -223 106 -591q-57 -352 -284.5 -565.5t-547.5 -213.5q-207 0 -353 93zM747 220q105 0 195.5 44t155 120.5t108 176t61.5 213.5
q31 188 -15 323l-696 -823q78 -54 191 -54zM446 433l695 820q-76 53 -189 53q-105 0 -195.5 -44.5t-155 -121.5t-107.5 -176.5t-62 -214.5q-30 -187 14 -316zM869 1709l324 453h334l-403 -453h-255z" />
    <glyph glyph-name="uni0200" unicode="&#x200;" horiz-adv-x="1971" 
d="M270 0h-328l1077 2048h357l397 -2048h-328l-97 542h-800zM682 802h620l-156 874h-16zM1163 2225h-281l-357 364h359zM1568 2225h-260l-279 364h338z" />
    <glyph glyph-name="uni0201" unicode="&#x201;" horiz-adv-x="1603" 
d="M516 -34q-148 0 -255.5 53.5t-159.5 161t-28 253.5q17 101 64.5 178t108.5 124t148.5 80.5t165.5 49t179 27.5q230 27 270 36q100 20 128 67q10 17 14 40q21 135 -40.5 206.5t-205.5 71.5q-139 0 -240 -61t-155 -153l-268 64q69 135 183.5 225t243.5 128.5t275 38.5
q48 0 93.5 -4.5t97 -16t94 -31t85 -49t70.5 -69.5t49.5 -93.5t23 -121t-9.5 -151.5l-169 -1020h-292l36 210h-12q-30 -46 -74.5 -87t-105 -77.5t-142 -58t-172.5 -21.5zM618 206q180 0 304.5 102.5t148.5 245.5l33 198q-10 -9 -30 -17t-52 -16t-57 -13t-68.5 -12t-63 -9.5
t-63.5 -8.5t-48 -6q-71 -9 -127 -25t-106.5 -43t-82 -70.5t-40.5 -101.5q-18 -108 51.5 -166t200.5 -58zM919 1733h-281l-357 364h359zM1324 1733h-260l-279 364h338z" />
    <glyph glyph-name="uni0202" unicode="&#x202;" horiz-adv-x="1971" 
d="M270 0h-328l1077 2048h357l397 -2048h-328l-97 542h-800zM682 802h620l-156 874h-16zM797 2264q28 171 165.5 278.5t339.5 107.5q201 0 303.5 -108t73.5 -278h-245q12 84 -27 138t-136 54q-102 0 -159 -54.5t-69 -137.5h-246z" />
    <glyph glyph-name="uni0203" unicode="&#x203;" horiz-adv-x="1603" 
d="M516 -34q-148 0 -255.5 53.5t-159.5 161t-28 253.5q17 101 64.5 178t108.5 124t148.5 80.5t165.5 49t179 27.5q230 27 270 36q100 20 128 67q10 17 14 40q21 135 -40.5 206.5t-205.5 71.5q-139 0 -240 -61t-155 -153l-268 64q69 135 183.5 225t243.5 128.5t275 38.5
q48 0 93.5 -4.5t97 -16t94 -31t85 -49t70.5 -69.5t49.5 -93.5t23 -121t-9.5 -151.5l-169 -1020h-292l36 210h-12q-30 -46 -74.5 -87t-105 -77.5t-142 -58t-172.5 -21.5zM618 206q180 0 304.5 102.5t148.5 245.5l33 198q-10 -9 -30 -17t-52 -16t-57 -13t-68.5 -12t-63 -9.5
t-63.5 -8.5t-48 -6q-71 -9 -127 -25t-106.5 -43t-82 -70.5t-40.5 -101.5q-18 -108 51.5 -166t200.5 -58zM552 1772q28 171 165.5 278.5t339.5 107.5q201 0 303.5 -108t73.5 -278h-245q12 84 -27 138t-136 54q-102 0 -159 -54.5t-69 -137.5h-246z" />
    <glyph glyph-name="uni0204" unicode="&#x204;" horiz-adv-x="1698" 
d="M97 0l340 2048h1284l-44 -266h-975l-104 -624h908l-44 -265h-908l-104 -627h987l-44 -266h-1296zM1028 2225h-281l-357 364h359zM1433 2225h-260l-279 364h338z" />
    <glyph glyph-name="uni0205" unicode="&#x205;" horiz-adv-x="1661" 
d="M733 -31q-224 0 -374 97.5t-207.5 276t-17.5 415.5q38 234 155.5 415.5t296 282t389.5 100.5q108 0 200.5 -27t171.5 -85t126.5 -148.5t65.5 -218t-12 -293.5l-17 -106h-1093q-38 -242 55 -352t305 -110q131 0 231 55.5t160 163.5l274 -51q-85 -190 -273 -302.5
t-436 -112.5zM454 902h798q30 178 -56.5 292.5t-258.5 114.5q-85 0 -167.5 -35.5t-145.5 -93t-108.5 -130.5t-61.5 -148zM926 1733h-281l-357 364h359zM1331 1733h-260l-279 364h338z" />
    <glyph glyph-name="uni0206" unicode="&#x206;" horiz-adv-x="1698" 
d="M97 0l340 2048h1284l-44 -266h-975l-104 -624h908l-44 -265h-908l-104 -627h987l-44 -266h-1296zM662 2264q28 171 165.5 278.5t339.5 107.5q201 0 303.5 -108t73.5 -278h-245q12 84 -27 138t-136 54q-102 0 -159 -54.5t-69 -137.5h-246z" />
    <glyph glyph-name="uni0207" unicode="&#x207;" horiz-adv-x="1661" 
d="M733 -31q-224 0 -374 97.5t-207.5 276t-17.5 415.5q38 234 155.5 415.5t296 282t389.5 100.5q108 0 200.5 -27t171.5 -85t126.5 -148.5t65.5 -218t-12 -293.5l-17 -106h-1093q-38 -242 55 -352t305 -110q131 0 231 55.5t160 163.5l274 -51q-85 -190 -273 -302.5
t-436 -112.5zM454 902h798q30 178 -56.5 292.5t-258.5 114.5q-85 0 -167.5 -35.5t-145.5 -93t-108.5 -130.5t-61.5 -148zM559 1772q28 171 165.5 278.5t339.5 107.5q201 0 303.5 -108t73.5 -278h-245q12 84 -27 138t-136 54q-102 0 -159 -54.5t-69 -137.5h-246z" />
    <glyph glyph-name="uni0208" unicode="&#x208;" horiz-adv-x="759" 
d="M746 2048l-340 -2048h-309l340 2048h309zM555 2225h-281l-357 364h359zM960 2225h-260l-279 364h338z" />
    <glyph glyph-name="uni0209" unicode="&#x209;" horiz-adv-x="701" 
d="M73 0l256 1536h299l-256 -1536h-299zM449 1736h-281l-357 364h359zM854 1736h-260l-279 364h338z" />
    <glyph glyph-name="uni020A" unicode="&#x20a;" horiz-adv-x="759" 
d="M746 2048l-340 -2048h-309l340 2048h309zM188 2264q28 171 165.5 278.5t339.5 107.5q201 0 303.5 -108t73.5 -278h-245q12 84 -27 138t-136 54q-102 0 -159 -54.5t-69 -137.5h-246z" />
    <glyph glyph-name="uni020B" unicode="&#x20b;" horiz-adv-x="701" 
d="M73 0l256 1536h299l-256 -1536h-299zM82 1775q28 171 165.5 278.5t339.5 107.5q201 0 303.5 -108t73.5 -278h-245q12 84 -27 138t-136 54q-102 0 -159 -54.5t-69 -137.5h-246z" />
    <glyph glyph-name="uni020C" unicode="&#x20c;" horiz-adv-x="2163" 
d="M2043 1004q-40 -238 -140.5 -433t-242 -326t-319 -202t-372.5 -71q-202 0 -363 74t-263.5 212t-141.5 336.5t3 447.5q40 238 140.5 433.5t242.5 326.5t320.5 202.5t374.5 71.5q201 0 361 -74t262 -212.5t141 -337.5t-3 -448zM1742 1042q30 184 9 324.5t-86 235.5
t-166 143.5t-230 48.5q-137 0 -261.5 -52.5t-226 -151t-174 -249.5t-102.5 -337q-60 -356 74 -553t400 -197q137 0 261 52.5t225 150.5t174 248t103 337zM1256 2225h-281l-357 364h359zM1661 2225h-260l-279 364h338z" />
    <glyph glyph-name="uni020D" unicode="&#x20d;" horiz-adv-x="1699" 
d="M730 -31q-217 0 -365 100.5t-207.5 283t-20.5 421.5q57 354 284.5 568t547.5 214q217 0 365.5 -100.5t207.5 -284t20 -423.5q-57 -352 -284.5 -565.5t-547.5 -213.5zM747 220q105 0 195.5 44t155 120.5t108 176t61.5 213.5q12 87 11.5 166t-23 146t-60.5 116t-100 76.5
t-143 27.5q-105 0 -195.5 -44.5t-155 -121.5t-107.5 -176.5t-62 -214.5q-12 -87 -11.5 -165.5t23 -145t60.5 -115t100 -76t143 -27.5zM947 1733h-281l-357 364h359zM1352 1733h-260l-279 364h338z" />
    <glyph glyph-name="uni020E" unicode="&#x20e;" horiz-adv-x="2163" 
d="M2043 1004q-40 -238 -140.5 -433t-242 -326t-319 -202t-372.5 -71q-202 0 -363 74t-263.5 212t-141.5 336.5t3 447.5q40 238 140.5 433.5t242.5 326.5t320.5 202.5t374.5 71.5q201 0 361 -74t262 -212.5t141 -337.5t-3 -448zM1742 1042q30 184 9 324.5t-86 235.5
t-166 143.5t-230 48.5q-137 0 -261.5 -52.5t-226 -151t-174 -249.5t-102.5 -337q-60 -356 74 -553t400 -197q137 0 261 52.5t225 150.5t174 248t103 337zM890 2264q28 171 165.5 278.5t339.5 107.5q201 0 303.5 -108t73.5 -278h-245q12 84 -27 138t-136 54
q-102 0 -159 -54.5t-69 -137.5h-246z" />
    <glyph glyph-name="uni020F" unicode="&#x20f;" horiz-adv-x="1699" 
d="M730 -31q-217 0 -365 100.5t-207.5 283t-20.5 421.5q57 354 284.5 568t547.5 214q217 0 365.5 -100.5t207.5 -284t20 -423.5q-57 -352 -284.5 -565.5t-547.5 -213.5zM747 220q105 0 195.5 44t155 120.5t108 176t61.5 213.5q12 87 11.5 166t-23 146t-60.5 116t-100 76.5
t-143 27.5q-105 0 -195.5 -44.5t-155 -121.5t-107.5 -176.5t-62 -214.5q-12 -87 -11.5 -165.5t23 -145t60.5 -115t100 -76t143 -27.5zM580 1772q28 171 165.5 278.5t339.5 107.5q201 0 303.5 -108t73.5 -278h-245q12 84 -27 138t-136 54q-102 0 -159 -54.5t-69 -137.5h-246z
" />
    <glyph glyph-name="uni0210" unicode="&#x210;" horiz-adv-x="1793" 
d="M97 0l340 2048h721q121 0 220 -22.5t168.5 -63.5t120.5 -98.5t74.5 -128.5t30.5 -153t-10 -171q-32 -204 -151.5 -348.5t-310.5 -220.5l300 -842h-351l-270 782h-443l-130 -782h-309zM580 1042h381q430 0 489 367q10 46 7.5 91.5t-11.5 87t-35.5 77t-65 62t-100 41.5
t-139.5 15h-403zM1067 2225h-281l-357 364h359zM1472 2225h-260l-279 364h338z" />
    <glyph glyph-name="uni0211" unicode="&#x211;" horiz-adv-x="1122" 
d="M73 0l256 1536h289l-41 -244h16q61 123 178.5 195t256.5 72q122 0 189 -56l-136 -247q-49 27 -135 27q-156 0 -275.5 -97.5t-144.5 -247.5l-154 -938h-299zM667 1733h-281l-357 364h359zM1072 1733h-260l-279 364h338z" />
    <glyph glyph-name="uni0212" unicode="&#x212;" horiz-adv-x="1793" 
d="M97 0l340 2048h721q121 0 220 -22.5t168.5 -63.5t120.5 -98.5t74.5 -128.5t30.5 -153t-10 -171q-32 -204 -151.5 -348.5t-310.5 -220.5l300 -842h-351l-270 782h-443l-130 -782h-309zM580 1042h381q430 0 489 367q10 46 7.5 91.5t-11.5 87t-35.5 77t-65 62t-100 41.5
t-139.5 15h-403zM701 2264q28 171 165.5 278.5t339.5 107.5q201 0 303.5 -108t73.5 -278h-245q12 84 -27 138t-136 54q-102 0 -159 -54.5t-69 -137.5h-246z" />
    <glyph glyph-name="uni0213" unicode="&#x213;" horiz-adv-x="1122" 
d="M73 0l256 1536h289l-41 -244h16q61 123 178.5 195t256.5 72q122 0 189 -56l-136 -247q-49 27 -135 27q-156 0 -275.5 -97.5t-144.5 -247.5l-154 -938h-299zM365 1772q28 171 165.5 278.5t339.5 107.5q201 0 303.5 -108t73.5 -278h-245q12 84 -27 138t-136 54
q-102 0 -159 -54.5t-69 -137.5h-246z" />
    <glyph glyph-name="uni0214" unicode="&#x214;" horiz-adv-x="2077" 
d="M1755 2048h309l-224 -1355q-29 -169 -115.5 -307.5t-212 -229.5t-281 -140.5t-325.5 -49.5q-171 0 -311 49.5t-235.5 140.5t-135.5 229.5t-11 307.5l224 1355h309l-223 -1350q-18 -105 7.5 -190.5t85 -141.5t145.5 -86t190 -30q139 0 261 51t209.5 154.5t110.5 242.5z
M1216 2225h-281l-357 364h359zM1621 2225h-260l-279 364h338z" />
    <glyph glyph-name="uni0215" unicode="&#x215;" horiz-adv-x="1674" 
d="M1152 637l150 899h300l-256 -1536h-294l45 266h-16q-75 -129 -208 -207.5t-300 -78.5q-228 0 -340.5 150t-67.5 429l164 977h299l-157 -941q-25 -156 46 -249.5t211 -93.5q65 0 131.5 24t127 70t105.5 121.5t60 169.5zM932 1733h-281l-357 364h359zM1337 1733h-260
l-279 364h338z" />
    <glyph glyph-name="uni0216" unicode="&#x216;" horiz-adv-x="2077" 
d="M1755 2048h309l-224 -1355q-29 -169 -115.5 -307.5t-212 -229.5t-281 -140.5t-325.5 -49.5q-171 0 -311 49.5t-235.5 140.5t-135.5 229.5t-11 307.5l224 1355h309l-223 -1350q-18 -105 7.5 -190.5t85 -141.5t145.5 -86t190 -30q139 0 261 51t209.5 154.5t110.5 242.5z
M850 2264q28 171 165.5 278.5t339.5 107.5q201 0 303.5 -108t73.5 -278h-245q12 84 -27 138t-136 54q-102 0 -159 -54.5t-69 -137.5h-246z" />
    <glyph glyph-name="uni0217" unicode="&#x217;" horiz-adv-x="1674" 
d="M1152 637l150 899h300l-256 -1536h-294l45 266h-16q-75 -129 -208 -207.5t-300 -78.5q-228 0 -340.5 150t-67.5 429l164 977h299l-157 -941q-25 -156 46 -249.5t211 -93.5q65 0 131.5 24t127 70t105.5 121.5t60 169.5zM566 1772q28 171 165.5 278.5t339.5 107.5
q201 0 303.5 -108t73.5 -278h-245q12 84 -27 138t-136 54q-102 0 -159 -54.5t-69 -137.5h-246z" />
    <glyph glyph-name="uni0218" unicode="&#x218;" horiz-adv-x="1812" 
d="M1462 1498q1 150 -96.5 230.5t-275.5 80.5q-186 0 -312.5 -85t-147.5 -218q-10 -56 6.5 -103.5t47 -79.5t79.5 -58.5t91.5 -41.5t95.5 -29l192 -52q563 -145 492 -576q-22 -130 -91.5 -240t-177.5 -190t-259 -125t-328 -45q-344 0 -522 160.5t-146 439.5h311
q-10 -108 41.5 -183.5t143.5 -110.5t214 -35q199 0 341.5 92t166.5 240q9 53 -3.5 96.5t-40 74.5t-75.5 58t-98.5 45.5t-119.5 37.5l-231 66q-507 146 -443 541q30 174 148 308.5t294.5 207t381.5 72.5q310 0 480.5 -161t138.5 -417h-298zM902 -154l-25 -153
q-26 -150 -94.5 -300t-169.5 -260l-200 61q163 264 199 488l26 164h264z" />
    <glyph glyph-name="uni0219" unicode="&#x219;" horiz-adv-x="1509" 
d="M1418 1161l-279 -48q-35 206 -269 206q-130 0 -226 -59t-110 -150q-13 -74 35 -119.5t169 -75.5l236 -56q205 -49 293 -152.5t61 -268.5q-35 -207 -230 -338t-470 -131q-262 0 -407.5 111t-150.5 314l296 44q8 -113 81 -170.5t205 -57.5q146 -1 248.5 62t117.5 156
q12 72 -32 118.5t-152 71.5l-248 57q-410 96 -352 432q34 201 219 325t444 124q244 0 373 -104t148 -291zM770 -125l-25 -153q-26 -150 -94.5 -300t-169.5 -260l-200 61q163 264 199 488l26 164h264z" />
    <glyph glyph-name="uni021A" unicode="&#x21a;" horiz-adv-x="1833" 
d="M292 1782l44 266h1585l-44 -266h-639l-296 -1782h-308l296 1782h-638zM912 -125l-25 -153q-26 -150 -94.5 -300t-169.5 -260l-200 61q163 264 199 488l26 164h264z" />
    <glyph glyph-name="uni021B" unicode="&#x21b;" horiz-adv-x="1060" 
d="M1046 1536l-39 -240h-317l-140 -844q-11 -51 -5 -87.5t17.5 -59.5t35.5 -36t48 -17.5t56 -4.5q37 0 105 13l16 -247q-95 -31 -202 -32q-91 -2 -166.5 23.5t-129.5 75t-77 129.5t-6 181l150 906h-224l39 240h224l61 368h299l-61 -368h316zM578 -125l-25 -153
q-26 -150 -94.5 -300t-169.5 -260l-200 61q163 264 199 488l26 164h264z" />
    <glyph glyph-name="uni021C" unicode="&#x21c;" horiz-adv-x="1813" 
d="M258 435l38 247q216 61 371.5 117t288 123.5t217 142.5t139 169t74.5 210q22 140 -62 228t-283 88q-98 0 -186.5 -35t-150 -102.5t-76.5 -152.5h-334q28 169 146 298.5t286.5 196t357.5 66.5q339 0 510.5 -148t127.5 -423q-48 -282 -307 -510q229 -147 172 -493
q-31 -188 -122.5 -342.5t-224 -266.5t-318 -200.5t-388.5 -146.5t-451 -101l47 267q252 48 440.5 114t334 161t232 224.5t113.5 295.5q21 127 5.5 203.5t-69.5 119.5q-360 -216 -928 -350z" />
    <glyph glyph-name="uni021D" unicode="&#x21d;" horiz-adv-x="1554" 
d="M229 263l41 237q102 26 188.5 54t177 65.5t161.5 82t130.5 97.5t97.5 119.5t50 141.5q13 89 -37.5 147t-180.5 58q-118 0 -205 -56t-100 -142h-322q22 135 119 238.5t238.5 157t302.5 53.5q273 0 410 -113t102 -323q-38 -223 -243 -405q179 -137 135 -416
q-31 -184 -126 -329t-250.5 -249t-361.5 -173t-471 -108l41 247q154 39 268 76.5t219.5 90.5t175 115.5t117.5 148t65 191.5q25 155 -32 250q-291 -167 -710 -256z" />
    <glyph glyph-name="uni021E" unicode="&#x21e;" horiz-adv-x="2090" 
d="M97 0l340 2048h309l-148 -890h1021l148 890h310l-340 -2048h-310l148 893h-1021l-148 -893h-309zM1124 2610l195 -224l272 224h244l-4 -15l-451 -380h-178l-327 380l4 15h245z" />
    <glyph glyph-name="uni021F" unicode="&#x21f;" horiz-adv-x="1695" 
d="M523 912l-150 -912h-299l340 2048h295l-126 -762h19q157 270 500 270q242 0 359 -148.5t72 -430.5l-164 -977h-299l156 941q28 168 -43.5 262t-225.5 94q-163 0 -282.5 -102.5t-151.5 -282.5zM422 2606l195 -224l272 224h244l-4 -15l-451 -380h-178l-327 380l4 15h245z
" />
    <glyph glyph-name="uni0220" unicode="&#x220;" horiz-adv-x="1814" 
d="M1426 -572h-326l319 1947q33 197 -56 295t-285 98q-234 0 -438 -111l-274 -1657h-321l332 2004h321l-14 -83q220 111 452 111q116 0 217 -27t183 -80t136 -132t74 -183.5t-1 -234.5z" />
    <glyph glyph-name="uni0221" unicode="&#x221;" horiz-adv-x="2022" 
d="M1456 285l-24 -153q96 26 186 26q192 0 293.5 -102.5t73.5 -269.5q-28 -165 -161 -263.5t-337 -98.5q-164 0 -258.5 63t-127.5 171l-241 -196l-134 189l377 308l45 280h-17q-28 -39 -52 -67t-70.5 -69t-94.5 -67.5t-120 -46t-152 -19.5q-284 0 -427.5 214.5t-83.5 580.5
q31 183 104 333t175.5 250t229.5 154t266 54q81 0 147 -20t105.5 -46.5t71.5 -68t45.5 -69t27.5 -65.5h18l127 761h299zM1242 768q42 245 -39 389.5t-274 144.5q-195 0 -324.5 -147.5t-170.5 -386.5q-25 -157 -0.5 -277.5t105.5 -193t211 -72.5q189 0 319.5 148t172.5 395z
M1393 -115l-8 -50q-16 -90 25.5 -140t115.5 -50q66 0 115.5 41t59.5 103q9 59 -22 98.5t-96 46.5q-86 11 -190 -49z" />
    <glyph glyph-name="uni0222" unicode="&#x222;" horiz-adv-x="1814" 
d="M962 1260h51q95 0 170 12.5t140 42t105.5 84t53.5 131.5q18 108 -28 162t-162 84l42 256q123 -4 219.5 -36.5t163.5 -92.5t94.5 -155t7.5 -218q-48 -292 -338 -422q114 -79 163 -203.5t21 -290.5q-21 -126 -76.5 -231t-137 -180.5t-185.5 -127.5t-224 -77.5t-251 -25.5
h-31q-165 0 -297.5 40.5t-224 118.5t-129.5 201t-11 278q55 332 347 498q-243 130 -195 422q16 99 57.5 180t101.5 139t138 98.5t165 61t184 23.5l-42 -256q-123 -30 -186 -84t-81 -162q-13 -77 9.5 -131t76 -83.5t124 -42.5t165.5 -13zM958 985h-32q-202 0 -332.5 -96
t-159.5 -279q-29 -182 69.5 -273.5t302.5 -91.5h31q204 0 333 92.5t158 276.5q30 180 -69 275.5t-301 95.5z" />
    <glyph glyph-name="uni0223" unicode="&#x223;" horiz-adv-x="1813" 
d="M1010 1242q96 0 172.5 15.5t143 52t109.5 102t58 158.5q23 131 -23 206.5t-159 120.5l43 243q118 -3 212.5 -42t158.5 -109t88.5 -177t2.5 -240q-53 -324 -346 -467q116 -77 166 -201.5t22 -293.5q-35 -207 -160 -353t-305.5 -215.5t-402.5 -69.5h-31q-165 0 -296.5 40.5
t-222 118t-127.5 199.5t-11 277q56 336 352 498q-246 141 -193 467q30 176 125.5 304.5t231 193.5t297.5 70l-42 -243q-123 -45 -193.5 -120.5t-93.5 -206.5q-12 -75 1 -132.5t44.5 -94t83 -59.5t111.5 -32.5t135 -9.5h49zM959 983h-31q-204 0 -338 -97t-163 -279t71.5 -279
t303.5 -97h31q203 0 337 97.5t163 281.5q29 180 -71.5 276.5t-302.5 96.5z" />
    <glyph glyph-name="uni0224" unicode="&#x224;" horiz-adv-x="1799" 
d="M1070 0h-1026l36 206l1340 1576h-1089l44 266h1464l-33 -206l-1343 -1576h651q214 0 317.5 -121t70.5 -324l-24 -141h-268l13 86q10 45 6 87t-18.5 75t-50.5 52.5t-90 19.5z" />
    <glyph glyph-name="uni0225" unicode="&#x225;" horiz-adv-x="1546" 
d="M994 -338l14 85q42 253 -158 253h-807l35 217l1000 1060h-825l42 259h1203l-35 -208l-996 -1069h425q216 0 318 -123t70 -322l-26 -152h-260z" />
    <glyph glyph-name="uni0226" unicode="&#x226;" horiz-adv-x="1971" 
d="M270 0h-328l1077 2048h357l397 -2048h-328l-97 542h-800zM682 802h620l-156 874h-16zM1256 2254q-78 0 -132.5 52t-53.5 126t58 126t135 52q77 0 131.5 -52t53.5 -126t-58 -126t-134 -52z" />
    <glyph glyph-name="uni0227" unicode="&#x227;" horiz-adv-x="1603" 
d="M516 -34q-148 0 -255.5 53.5t-159.5 161t-28 253.5q17 101 64.5 178t108.5 124t148.5 80.5t165.5 49t179 27.5q230 27 270 36q100 20 128 67q10 17 14 40q21 135 -40.5 206.5t-205.5 71.5q-139 0 -240 -61t-155 -153l-268 64q69 135 183.5 225t243.5 128.5t275 38.5
q48 0 93.5 -4.5t97 -16t94 -31t85 -49t70.5 -69.5t49.5 -93.5t23 -121t-9.5 -151.5l-169 -1020h-292l36 210h-12q-30 -46 -74.5 -87t-105 -77.5t-142 -58t-172.5 -21.5zM618 206q180 0 304.5 102.5t148.5 245.5l33 198q-10 -9 -30 -17t-52 -16t-57 -13t-68.5 -12t-63 -9.5
t-63.5 -8.5t-48 -6q-71 -9 -127 -25t-106.5 -43t-82 -70.5t-40.5 -101.5q-18 -108 51.5 -166t200.5 -58zM1011 1762q-78 0 -132.5 52t-53.5 126t58 126t135 52q77 0 131.5 -52t53.5 -126t-58 -126t-134 -52z" />
    <glyph glyph-name="uni0228" unicode="&#x228;" horiz-adv-x="1698" 
d="M97 0l340 2048h1284l-44 -266h-975l-104 -624h908l-44 -265h-908l-104 -627h987l-44 -266h-572l-29 -74q94 -15 145 -74t31 -165q-21 -138 -154 -220.5t-351 -82.5l23 167q108 0 175 31.5t79 95.5q12 65 -31.5 93t-157.5 39l74 190h-528z" />
    <glyph glyph-name="uni0229" unicode="&#x229;" horiz-adv-x="1661" 
d="M791 -29l-17 -45q94 -15 145 -74t31 -165q-21 -138 -154 -220.5t-351 -82.5l23 167q108 0 175 31.5t79 95.5q12 65 -31.5 93t-157.5 39l66 169q-273 43 -396.5 250.5t-68.5 528.5q38 234 155.5 415.5t296 282t389.5 100.5q108 0 200.5 -27t171.5 -85t126.5 -148.5
t65.5 -218t-12 -293.5l-17 -106h-1093q-38 -242 55 -352t305 -110q131 0 231 55.5t160 163.5l274 -51q-80 -178 -251.5 -289t-399.5 -124zM454 902h798q30 178 -56.5 292.5t-258.5 114.5q-85 0 -167.5 -35.5t-145.5 -93t-108.5 -130.5t-61.5 -148z" />
    <glyph glyph-name="uni022A" unicode="&#x22a;" horiz-adv-x="2163" 
d="M2043 1004q-40 -238 -140.5 -433t-242 -326t-319 -202t-372.5 -71q-202 0 -363 74t-263.5 212t-141.5 336.5t3 447.5q40 238 140.5 433.5t242.5 326.5t320.5 202.5t374.5 71.5q201 0 361 -74t262 -212.5t141 -337.5t-3 -448zM1742 1042q30 184 9 324.5t-86 235.5
t-166 143.5t-230 48.5q-137 0 -261.5 -52.5t-226 -151t-174 -249.5t-102.5 -337q-60 -356 74 -553t400 -197q137 0 261 52.5t225 150.5t174 248t103 337zM1902 2876l-34 -217h-950l35 217h949zM862 2388q10 68 63 113t129 45q79 0 118 -44.5t29 -113.5q-12 -67 -65 -110
t-131 -43q-79 0 -117 44t-26 109zM1495 2388q9 66 63 110.5t133 44.5q76 0 114.5 -44.5t28.5 -110.5q-13 -66 -65.5 -111t-130.5 -45t-116.5 44.5t-26.5 111.5z" />
    <glyph glyph-name="uni022B" unicode="&#x22b;" horiz-adv-x="1699" 
d="M730 -31q-217 0 -365 100.5t-207.5 283t-20.5 421.5q57 354 284.5 568t547.5 214q217 0 365.5 -100.5t207.5 -284t20 -423.5q-57 -352 -284.5 -565.5t-547.5 -213.5zM747 220q105 0 195.5 44t155 120.5t108 176t61.5 213.5q12 87 11.5 166t-23 146t-60.5 116t-100 76.5
t-143 27.5q-105 0 -195.5 -44.5t-155 -121.5t-107.5 -176.5t-62 -214.5q-12 -87 -11.5 -165.5t23 -145t60.5 -115t100 -76t143 -27.5zM1609 2421l-37 -216h-953l38 216h952zM1181 1887q10 70 64 117t132 47t117.5 -47t30.5 -117q-11 -67 -66 -112.5t-133 -45.5t-116.5 45.5
t-28.5 112.5zM554 1890q10 69 65 115t134 46q78 0 116 -46.5t28 -114.5t-64 -112.5t-132 -44.5t-117.5 44t-29.5 113z" />
    <glyph glyph-name="uni022C" unicode="&#x22c;" horiz-adv-x="2163" 
d="M2043 1004q-40 -238 -140.5 -433t-242 -326t-319 -202t-372.5 -71q-202 0 -363 74t-263.5 212t-141.5 336.5t3 447.5q40 238 140.5 433.5t242.5 326.5t320.5 202.5t374.5 71.5q201 0 361 -74t262 -212.5t141 -337.5t-3 -448zM1742 1042q30 184 9 324.5t-86 235.5
t-166 143.5t-230 48.5q-137 0 -261.5 -52.5t-226 -151t-174 -249.5t-102.5 -337q-60 -356 74 -553t400 -197q137 0 261 52.5t225 150.5t174 248t103 337zM1906 2880l-34 -217h-953l35 217h952zM1628 2525l134 -37q-19 -104 -98 -177.5t-179 -73.5q-50 0 -92.5 15.5
t-67.5 34.5t-61.5 34.5t-76.5 15.5q-42 0 -77.5 -37t-44.5 -86l-129 38q15 101 93 177.5t175 76.5q41 0 82 -15t69.5 -33.5t68 -33.5t78.5 -15q43 0 80.5 33.5t45.5 82.5z" />
    <glyph glyph-name="uni022D" unicode="&#x22d;" horiz-adv-x="1699" 
d="M730 -31q-217 0 -365 100.5t-207.5 283t-20.5 421.5q57 354 284.5 568t547.5 214q217 0 365.5 -100.5t207.5 -284t20 -423.5q-57 -352 -284.5 -565.5t-547.5 -213.5zM747 220q105 0 195.5 44t155 120.5t108 176t61.5 213.5q12 87 11.5 166t-23 146t-60.5 116t-100 76.5
t-143 27.5q-105 0 -195.5 -44.5t-155 -121.5t-107.5 -176.5t-62 -214.5q-12 -87 -11.5 -165.5t23 -145t60.5 -115t100 -76t143 -27.5zM1376 2107l203 -15q-26 -153 -131 -251.5t-238 -98.5q-50 0 -91.5 13t-69.5 31t-55 36.5t-62.5 31.5t-76.5 13q-52 0 -96.5 -42
t-53.5 -102l-200 9q26 151 130 253t234 102q51 0 99.5 -19.5t80.5 -42.5t78.5 -42.5t94.5 -19.5q55 0 99.5 41t54.5 103zM1616 2475l-37 -217h-953l37 217h953z" />
    <glyph glyph-name="uni022E" unicode="&#x22e;" horiz-adv-x="2163" 
d="M2043 1004q-40 -238 -140.5 -433t-242 -326t-319 -202t-372.5 -71q-202 0 -363 74t-263.5 212t-141.5 336.5t3 447.5q40 238 140.5 433.5t242.5 326.5t320.5 202.5t374.5 71.5q201 0 361 -74t262 -212.5t141 -337.5t-3 -448zM1742 1042q30 184 9 324.5t-86 235.5
t-166 143.5t-230 48.5q-137 0 -261.5 -52.5t-226 -151t-174 -249.5t-102.5 -337q-60 -356 74 -553t400 -197q137 0 261 52.5t225 150.5t174 248t103 337zM1348 2254q-78 0 -132.5 52t-53.5 126t58 126t135 52q77 0 131.5 -52t53.5 -126t-58 -126t-134 -52z" />
    <glyph glyph-name="uni022F" unicode="&#x22f;" horiz-adv-x="1699" 
d="M730 -31q-217 0 -365 100.5t-207.5 283t-20.5 421.5q57 354 284.5 568t547.5 214q217 0 365.5 -100.5t207.5 -284t20 -423.5q-57 -352 -284.5 -565.5t-547.5 -213.5zM747 220q105 0 195.5 44t155 120.5t108 176t61.5 213.5q12 87 11.5 166t-23 146t-60.5 116t-100 76.5
t-143 27.5q-105 0 -195.5 -44.5t-155 -121.5t-107.5 -176.5t-62 -214.5q-12 -87 -11.5 -165.5t23 -145t60.5 -115t100 -76t143 -27.5zM1039 1762q-78 0 -132.5 52t-53.5 126t58 126t135 52q77 0 131.5 -52t53.5 -126t-58 -126t-134 -52z" />
    <glyph glyph-name="uni0230" unicode="&#x230;" horiz-adv-x="2163" 
d="M2043 1004q-40 -238 -140.5 -433t-242 -326t-319 -202t-372.5 -71q-202 0 -363 74t-263.5 212t-141.5 336.5t3 447.5q40 238 140.5 433.5t242.5 326.5t320.5 202.5t374.5 71.5q201 0 361 -74t262 -212.5t141 -337.5t-3 -448zM1742 1042q30 184 9 324.5t-86 235.5
t-166 143.5t-230 48.5q-137 0 -261.5 -52.5t-226 -151t-174 -249.5t-102.5 -337q-60 -356 74 -553t400 -197q137 0 261 52.5t225 150.5t174 248t103 337zM1906 2875l-34 -217h-953l34 217h953zM1178 2391q10 66 63.5 110.5t132.5 44.5q78 0 117 -44.5t29 -110.5
q-12 -67 -66 -111.5t-132 -44.5q-80 0 -118 44.5t-26 111.5z" />
    <glyph glyph-name="uni0231" unicode="&#x231;" horiz-adv-x="1699" 
d="M730 -31q-217 0 -365 100.5t-207.5 283t-20.5 421.5q57 354 284.5 568t547.5 214q217 0 365.5 -100.5t207.5 -284t20 -423.5q-57 -352 -284.5 -565.5t-547.5 -213.5zM747 220q105 0 195.5 44t155 120.5t108 176t61.5 213.5q12 87 11.5 166t-23 146t-60.5 116t-100 76.5
t-143 27.5q-105 0 -195.5 -44.5t-155 -121.5t-107.5 -176.5t-62 -214.5q-12 -87 -11.5 -165.5t23 -145t60.5 -115t100 -76t143 -27.5zM1610 2442l-34 -216h-953l34 216h953zM863 1903q10 73 65.5 120.5t136.5 47.5q83 0 122 -48t29 -120q-13 -73 -67.5 -118.5t-136.5 -45.5
q-81 0 -121.5 46t-27.5 118z" />
    <glyph glyph-name="uni0232" unicode="&#x232;" horiz-adv-x="1934" 
d="M282 2048h352l381 -931h23l687 931h351l-949 -1244l-133 -804h-309l133 804zM1739 2503l-34 -214h-953l34 214h953z" />
    <glyph glyph-name="uni0233" unicode="&#x233;" horiz-adv-x="1595" 
d="M154 -597q-64 0 -117 10.5t-77 24.5l111 248q79 -22 142.5 -19t121 49t113.5 143l64 118l-304 1559h320l190 -1192h16l588 1192h321l-932 -1760q-200 -373 -557 -373zM1479 2011l-34 -214h-953l34 214h953z" />
    <glyph glyph-name="uni0234" unicode="&#x234;" horiz-adv-x="1038" 
d="M704 2048l-281 -1694q-17 -99 -35 -212q115 35 203 35q172 0 265.5 -105t65.5 -267q-26 -164 -160 -272.5t-324 -108.5q-150 0 -248 69.5t-132 187.5l-240 -203l-143 184l327 276q36 27 60 43l3 19l340 2048h299zM347 -105q-5 -34 -11 -73q-12 -70 30 -117.5t115 -47.5
q62 0 108.5 41.5t54.5 103.5q10 61 -25 98.5t-104 37.5q-82 0 -168 -43z" />
    <glyph glyph-name="uni0235" unicode="&#x235;" horiz-adv-x="2189" 
d="M523 912l-150 -912h-299l256 1536h287l-42 -250h19q75 127 202.5 198.5t296.5 71.5q239 0 356 -150t71 -429l-102 -610q88 21 189 21q175 0 272.5 -105.5t69.5 -273.5q-29 -171 -165 -276t-336 -105q-159 0 -254.5 71t-121.5 191l-216 -196l-142 167l330 295q24 22 46 40
l124 745q28 167 -43 261.5t-224 94.5q-160 0 -276 -102t-148 -283zM1376 120l-18 -108q-4 -61 37 -103t107 -42q65 0 112.5 42t58.5 107q11 66 -26.5 104t-108.5 38q-78 0 -162 -38z" />
    <glyph glyph-name="uni0236" unicode="&#x236;" horiz-adv-x="1423" 
d="M606 1904h299l-61 -368h301l-38 -232h-301l-103 -616q112 33 201 33q171 0 268 -105t72 -267q-29 -164 -164.5 -272.5t-324.5 -108.5q-152 0 -251 69.5t-133 187.5l-240 -203l-144 184l332 276q19 15 59 43l129 779h-234l37 232h235zM662 438l-12 -72q-14 -69 28.5 -117
t115.5 -48q64 0 113.5 41t59.5 104q8 63 -30.5 99.5t-107.5 36.5q-79 0 -167 -44z" />
    <glyph glyph-name="uni0237" unicode="&#x237;" horiz-adv-x="701" 
d="M329 1536h299l-270 -1630q-38 -231 -187.5 -356.5t-384.5 -125.5h-80l43 259h58q213 0 253 225z" />
    <glyph glyph-name="uni0238" unicode="&#x238;" horiz-adv-x="2589" 
d="M2444 757l-7 -28q-37 -220 -131 -389.5t-244 -268.5t-335 -99q-253 0 -375 173l-24 -145h-295l11 153q-183 -181 -438 -181q-175 0 -294 98.5t-163.5 270t-8.5 387.5l8 28q36 224 136 396.5t251 268t331 95.5q241 0 363 -163l126 759h325l-128 -768q177 172 427 172
q188 0 306.5 -97t156.5 -266.5t2 -395.5zM2114 729l7 28q13 83 14 153.5t-13.5 135t-46 109t-87.5 71t-134 26.5q-219 0 -350 -195l-103 -616q62 -205 285 -205q93 0 167.5 38t125.5 106.5t84 155t51 193.5zM473 756l-8 -28q-19 -100 -12 -189t34.5 -156t89.5 -106.5
t153 -39.5q212 0 345 190l107 643q-67 182 -277 182q-91 0 -167 -38.5t-128.5 -107.5t-86.5 -157t-50 -193z" />
    <glyph glyph-name="uni0239" unicode="&#x239;" horiz-adv-x="2589" 
d="M911 -572l115 700q-173 -156 -413 -156q-184 0 -304.5 99.5t-162.5 270t-5 387.5l7 28q36 226 133.5 396.5t249.5 266.5t339 96q251 0 374 -171l40 143h266l-12 -151q182 179 439 179q188 0 306 -96t156.5 -265t1.5 -397l-7 -29q-36 -218 -130.5 -387.5t-245 -269.5
t-333.5 -100q-247 0 -373 162l-116 -706h-325zM473 757l-7 -28q-11 -79 -13 -151.5t16 -136t50 -110t88 -73.5t130 -27q203 0 335 176l113 687q-73 164 -274 164q-91 0 -167.5 -39.5t-130 -109.5t-89 -159t-51.5 -193zM2110 729l8 29q18 102 9.5 192t-37.5 157t-92.5 106
t-155.5 39q-207 0 -335 -176l-110 -671q71 -174 277 -174q92 0 168 39.5t129 109.5t87.5 157.5t51.5 191.5z" />
    <glyph glyph-name="uni023A" unicode="&#x23a;" horiz-adv-x="1971" 
d="M1878 2308l-400 -784l295 -1524h-328l-97 542h-372l-410 -802h-240l410 802h-188l-278 -542h-328l1077 2048h357l36 -184l227 444h239zM869 802l321 628l-44 246h-16l-448 -874h187zM1252 1082l-143 -280h193z" />
    <glyph glyph-name="uni023B" unicode="&#x23b;" horiz-adv-x="2070" 
d="M310 -260l187 367q-188 131 -267 372.5t-26 563.5q40 238 140.5 433.5t242.5 326t319.5 202t373.5 71.5q116 0 213 -22l130 254h239l-167 -328q157 -86 244 -238.5t86 -359.5h-307q-4 217 -161 328l-734 -1436q74 -20 156 -20q208 0 377.5 107t241.5 299h310
q-102 -308 -358.5 -498t-583.5 -190q-149 0 -277 41l-139 -273h-240zM637 380l720 1408q-42 6 -87 6q-183 0 -340.5 -90.5t-271 -271t-153.5 -427.5q-36 -214 0 -372.5t132 -252.5z" />
    <glyph glyph-name="uni023C" unicode="&#x23c;" horiz-adv-x="1601" 
d="M1633 2048l-316 -578q108 -67 163 -177.5t46 -252.5h-291q-5 98 -62 167l-529 -967q54 -18 118 -18q129 0 231 70t151 194h291q-66 -230 -258.5 -373.5t-458.5 -143.5q-114 0 -207 27l-313 -572h-210l357 651q-140 100 -194.5 278.5t-16.5 407.5q28 174 103 321.5
t184.5 252t253 163t303.5 58.5q91 0 169 -18l279 510h207zM1015 1297q-32 7 -74 7q-190 0 -328.5 -145.5t-177.5 -390.5q-46 -268 60 -419z" />
    <glyph glyph-name="uni023D" unicode="&#x23d;" horiz-adv-x="1589" 
d="M97 0l159 960h-306l36 207h305l146 881h309l-146 -881h305l-36 -207h-304l-115 -694h928l-44 -266h-1237z" />
    <glyph glyph-name="uni023E" unicode="&#x23e;" horiz-adv-x="1833" 
d="M211 -260l563 1100l156 942h-638l44 266h1055l133 260h239l-133 -260h291l-44 -266h-383l-379 -742l-173 -1040h-308l25 148l-209 -408h-239zM1230 1733l25 49h-17z" />
    <glyph glyph-name="uni023F" unicode="&#x23f;" horiz-adv-x="1510" 
d="M1418 1161l-279 -48q-35 206 -269 206q-130 0 -226 -59t-110 -150q-13 -74 35 -119.5t169 -75.5l236 -56q205 -49 293 -152.5t61 -268.5q-35 -207 -230 -338t-470 -131q-79 0 -154 11q43 -108 70 -167.5t53.5 -97.5t49 -49.5t55.5 -11.5q58 0 124.5 30.5t119.5 70.5
l73 -181q-73 -60 -165.5 -105t-180.5 -45q-73 0 -131 24t-103 73t-77.5 106t-65.5 139l-175 427q-48 85 -51 201l296 44q8 -113 81 -170.5t205 -57.5q146 -1 248.5 62t117.5 156q12 72 -32 118.5t-152 71.5l-248 57q-410 96 -352 432q34 201 219 325t444 124q244 0 373 -104
t148 -291z" />
    <glyph glyph-name="uni0240" unicode="&#x240;" horiz-adv-x="1606" 
d="M467 259h50q102 0 183.5 -31.5t133 -82t92.5 -111t71.5 -121.5t59.5 -111.5t66 -82t83 -31.5q104 0 214 86l74 -200q-176 -150 -355 -150q-78 0 -138 32t-99 82.5t-72.5 112t-69 123t-77.5 112t-108.5 82.5t-152.5 32h-379l35 217l1000 1060h-825l42 259h1203l-35 -208z
" />
    <glyph glyph-name="uni0241" unicode="&#x241;" horiz-adv-x="1553" 
d="M635 651h90q351 0 432 468l29 164q9 59 10.5 112.5t-4.5 108t-26 98.5t-52.5 78.5t-85.5 53.5t-122 19q-139 0 -233.5 -81.5t-122.5 -215.5h-318q31 167 132 298t254 204.5t332 73.5q135 0 242.5 -39t176.5 -107.5t112.5 -163t50.5 -205.5t-10 -234l-28 -164
q-28 -176 -108.5 -324t-215 -255.5t-305.5 -145.5l-66 -394h-338l109 651h65z" />
    <glyph glyph-name="uni0242" unicode="&#x242;" horiz-adv-x="1554" 
d="M218 958q41 247 229 402.5t440 155.5q295 0 425 -151.5t83 -420.5q-32 -198 -156 -327t-336 -162l-77 -455h-325l107 635h138q77 0 136.5 23.5t97.5 67t61 97.5t33 122q13 63 6 120t-30 100t-75.5 68t-129.5 25q-113 0 -196 -84t-106 -216h-325z" />
    <glyph glyph-name="uni0243" unicode="&#x243;" horiz-adv-x="2005" 
d="M263 0l81 489h-312l36 207h311l224 1352h750q159 0 277 -41t184 -114.5t90 -170.5t4 -212q-16 -93 -55.5 -168t-96 -126.5t-121.5 -85t-141 -52.5l-4 -20q77 -4 145.5 -40t119.5 -98t73 -158.5t4 -210.5q-20 -120 -78.5 -218.5t-154 -174t-236.5 -117t-315 -41.5h-785z
M616 265h446q212 0 327 82t139 219q23 151 -70 253t-275 102h-457l-38 -225h299l-36 -207h-297zM767 1162h413q159 0 279.5 89.5t141.5 234.5q24 134 -54.5 216.5t-255.5 82.5h-422z" />
    <glyph glyph-name="uni0244" unicode="&#x244;" horiz-adv-x="2106" 
d="M2182 1180l-29 -192h-247l-49 -295q-29 -169 -115.5 -307.5t-212 -229.5t-281 -140.5t-325.5 -49.5q-171 0 -311 49.5t-235.5 140.5t-135.5 229.5t-11 307.5l49 295h-251l30 192h253l143 868h309l-143 -868h1009l143 868h309l-143 -868h244zM1597 988h-1009l-48 -290
q-18 -105 7.5 -190.5t85 -141.5t145.5 -86t190 -30q139 0 261 51t209.5 154.5t110.5 242.5z" />
    <glyph glyph-name="uni0245" unicode="&#x245;" horiz-adv-x="2070" 
d="M1430 0l-262 1579l-782 -1579h-369l1063 2004h318l402 -2004h-370z" />
    <glyph glyph-name="uni0246" unicode="&#x246;" horiz-adv-x="1698" 
d="M1668 2308l-118 -260h171l-44 -266h-248l-284 -624h361l-44 -265h-438l-285 -627h698l-44 -266h-775l-118 -260h-228l118 260h-293l340 2048h885l118 260h228zM1201 1782h-499l-104 -624h319zM796 893h-242l-104 -627h61z" />
    <glyph glyph-name="uni0247" unicode="&#x247;" horiz-adv-x="1661" 
d="M1633 2048l-318 -582q136 -87 195.5 -257t16.5 -425l-17 -106h-626l-245 -448q57 -14 138 -14q131 0 231 55.5t160 163.5l274 -51q-85 -190 -273 -302.5t-436 -112.5q-120 0 -221 29l-314 -574h-210l357 652q-140 98 -195.5 274t-15.5 408q38 234 155.5 415.5t296 282
t389.5 100.5q92 0 171 -19l280 511h207zM798 902l219 400q-44 7 -80 7q-85 0 -167.5 -35.5t-145.5 -93t-108.5 -130.5t-61.5 -148h344zM675 678h-258q-39 -246 61 -360zM1178 1216l-172 -314h246q16 97 -3.5 178t-70.5 136z" />
    <glyph glyph-name="uni0248" unicode="&#x248;" horiz-adv-x="1581" 
d="M994 602l85 513h-307l36 207h305l120 726h308l-121 -726h307l-36 -207h-305l-87 -525q-48 -294 -237 -456t-475 -162q-133 0 -240 36.5t-179 104t-102 170t-9 229.5h300q-18 -131 51.5 -204.5t203.5 -73.5q151 0 251 96t131 272z" />
    <glyph glyph-name="uni0249" unicode="&#x249;" horiz-adv-x="701" 
d="M329 1536h299l-87 -528h307l-36 -207h-306l-148 -895q-38 -231 -187.5 -356.5t-384.5 -125.5h-80l43 259h58q213 0 253 225l148 893h-315l36 207h313zM538 1765q-78 0 -132.5 52t-53.5 126t58 126t135 52q77 0 131.5 -52t53.5 -126t-58 -126t-134 -52z" />
    </font>
</defs>
</svg>
