<?xml version="1.0" standalone="no"?>
<!DOCTYPE svg PUBLIC "-//W3C//DTD SVG 1.1//EN" "http://www.w3.org/Graphics/SVG/1.1/DTD/svg11.dtd" >
<svg xmlns="http://www.w3.org/2000/svg" xmlns:xlink="http://www.w3.org/1999/xlink" version="1.1">
<metadata>
Created by FontForge 20170731 at Thu Oct 11 09:41:56 2018
 By Aleksey,,,
Copyright 2018 The Inter UI project authors
</metadata>
<defs>
<font id="InterUI-SemiBoldItalic" horiz-adv-x="0" >
  <font-face 
    font-family="Inter UI Semi Bold"
    font-weight="600"
    font-style="italic"
    font-stretch="normal"
    units-per-em="2816"
    panose-1="2 11 7 2 3 0 0 0 0 4"
    ascent="2252"
    descent="-564"
    x-height="1536"
    cap-height="2048"
    bbox="-2214 -1139 4500 2951"
    underline-thickness="204"
    underline-position="-830"
    slope="-9.39999"
    unicode-range="U+0020-1F16B"
  />
<missing-glyph horiz-adv-x="2904" 
d="M230 64l34 512h2350l-33 -512h-2351zM277 768l33 512h2351l-34 -512h-2350zM323 1472l34 512h2350l-33 -512h-2351zM370 2176l33 512h2351l-34 -512h-2350zM184 -640l34 512h2350l-34 -512h-2350z" />
    <glyph glyph-name=".notdef" horiz-adv-x="2904" 
d="M230 64l34 512h2350l-33 -512h-2351zM277 768l33 512h2351l-34 -512h-2350zM323 1472l34 512h2350l-33 -512h-2351zM370 2176l33 512h2351l-34 -512h-2350zM184 -640l34 512h2350l-34 -512h-2350z" />
    <glyph glyph-name=".null" 
 />
    <glyph glyph-name="nonmarkingreturn" horiz-adv-x="938" 
 />
    <glyph glyph-name="uni0020" unicode=" " horiz-adv-x="699" 
 />
    <glyph glyph-name="uni0021" unicode="!" horiz-adv-x="874" 
d="M839 2048l-272 -1446h-320l207 1446h385zM324 -29q-94 0 -154 62.5t-52 153.5q7 90 78.5 153t165.5 63q95 0 155 -62.5t52 -153.5q-7 -91 -78.5 -153.5t-166.5 -62.5z" />
    <glyph glyph-name="uni0022" unicode="&#x22;" horiz-adv-x="1182" 
d="M667 2048l-124 -754h-276l124 754h276zM1182 2048l-124 -754h-276l124 754h276z" />
    <glyph glyph-name="uni0023" unicode="#" horiz-adv-x="1867" 
d="M246 0l181 566h-311l50 229h335l137 429h-316l53 232h337l182 568h240l-182 -568h329l182 568h243l-182 -568h310l-52 -232h-333l-138 -429h314l-51 -229h-336l-182 -566h-240l181 566h-329l-181 -566h-241zM741 795h329l137 429h-329z" />
    <glyph glyph-name="uni0024" unicode="$" horiz-adv-x="1828" 
d="M674 -256l43 227q-326 17 -489.5 182.5t-126.5 451.5h365q-14 -141 71 -221.5t239 -94.5l112 596l-136 37q-521 142 -454 550q29 173 144 308.5t289 211.5t380 83l43 229h128l-43 -232q285 -23 434.5 -185.5t114.5 -411.5h-357q3 119 -62 191t-190 90l-106 -567l92 -24
q94 -23 171.5 -55t148.5 -82t116 -112.5t64 -150t2 -190.5q-45 -265 -263.5 -428.5t-559.5 -176.5l-42 -226h-128zM904 289q159 14 266 92.5t126 196.5q18 106 -55 168t-231 106zM951 1221l101 540q-155 -10 -255 -82.5t-118 -183.5q-35 -191 272 -274z" />
    <glyph glyph-name="uni0025" unicode="%" horiz-adv-x="2376" 
d="M1213 384l20 108q14 90 56.5 169.5t106.5 140t153 96t190 35.5q137 0 227 -61t121.5 -159.5t11.5 -220.5l-20 -108q-14 -90 -56 -169.5t-105.5 -140t-152.5 -96t-191 -35.5q-103 0 -180.5 35.5t-121 96t-59 140t-0.5 169.5zM368 1556l16 108q15 90 57.5 170t106.5 140.5
t152.5 95.5t189.5 35q137 0 227 -61t121.5 -159.5t11.5 -220.5l-16 -108q-31 -188 -167 -313.5t-338 -125.5q-136 0 -226.5 60.5t-123 159t-11.5 219.5zM305 0l1539 2048h252l-1538 -2048h-253zM1494 492l-20 -108q-6 -54 -0.5 -101t41 -78.5t96.5 -31.5q89 0 140.5 61
t64.5 150l20 108q7 55 2.5 102.5t-39.5 79t-97 31.5q-88 0 -140.5 -61.5t-67.5 -151.5zM647 1664l-16 -108q-8 -55 -2 -102t41.5 -78t95.5 -31q88 0 138 60t67 151l16 108q7 55 2.5 102.5t-39.5 79t-97 31.5q-88 0 -139.5 -61.5t-66.5 -151.5z" />
    <glyph glyph-name="uni0026" unicode="&#x26;" horiz-adv-x="1858" 
d="M80 544q11 71 40.5 134.5t69 115.5t99.5 105t121 96t144 95q-81 124 -116.5 237t-14.5 240q36 221 208 363.5t412 142.5q157 0 267 -64.5t154 -169.5t22 -231q-43 -268 -349 -467l-145 -95l301 -438q112 162 144 357h311q-62 -380 -278 -616l240 -349h-391l-106 150
q-118 -89 -265 -134.5t-290 -45.5q-154 0 -274 44t-192.5 121t-102 182t-9.5 227zM1054 376l-344 486l-37 -24q-107 -69 -167 -144.5t-69 -133.5q-19 -124 58.5 -208t224.5 -84q167 0 334 108zM843 1267l130 79q91 55 141 113t62 133q12 71 -36.5 127.5t-141.5 56.5
q-94 0 -166.5 -63.5t-89.5 -150.5q-10 -66 16.5 -136t84.5 -159z" />
    <glyph glyph-name="uni0027" unicode="'" horiz-adv-x="600" 
d="M648 2048l-124 -754h-276l124 754h276z" />
    <glyph glyph-name="uni0028" unicode="(" horiz-adv-x="1108" 
d="M287 835q123 739 607 1271h340q-187 -200 -348.5 -559t-221.5 -712q-58 -358 -15 -713.5t165 -556.5h-341q-306 537 -186 1270z" />
    <glyph glyph-name="uni0029" unicode=")" horiz-adv-x="1108" 
d="M843 835q-123 -739 -607 -1271h-340q187 200 348.5 559t221.5 712q58 358 15 713.5t-165 556.5h341q306 -537 186 -1270z" />
    <glyph glyph-name="uni002A" unicode="*" horiz-adv-x="1530" 
d="M663 896l92 405l-376 -223l-85 212l389 182l-334 182l157 212l304 -223l45 405h243l-89 -405l373 223l88 -212l-389 -182l334 -182l-157 -212l-304 223l-48 -405h-243z" />
    <glyph glyph-name="uni002B" unicode="+" horiz-adv-x="1725" 
d="M1562 1043l-49 -294h-504l-82 -493h-297l82 493h-505l49 294h504l82 493h297l-82 -493h505z" />
    <glyph glyph-name="uni002C" unicode="," horiz-adv-x="831" 
d="M531 280l-33 -110q-24 -88 -62.5 -186t-90 -203.5t-74.5 -150.5t-68 -130h-244q1 4 43 110.5t66 171t59.5 178t56.5 208.5l27 112h320z" />
    <glyph glyph-name="uni002D" unicode="-" horiz-adv-x="1339" 
d="M1191 1010l-24 -280h-986l24 280h986z" />
    <glyph glyph-name="uni002E" unicode="." horiz-adv-x="819" 
d="M296 -22q-92 0 -151 64t-51 156q7 90 77.5 153t161.5 63q90 0 150.5 -64t51.5 -152q-8 -92 -78.5 -156t-160.5 -64z" />
    <glyph glyph-name="uni002F" unicode="/" horiz-adv-x="1066" 
d="M1250 2144l-1064 -2452h-317l1064 2452h317z" />
    <glyph glyph-name="uni0030" unicode="0" horiz-adv-x="1846" 
d="M807 -39q-369 0 -529.5 284t-75.5 795q83 495 324 765.5t598 270.5q367 0 527 -284t75 -792q-83 -497 -323.5 -768t-595.5 -271zM825 272q200 0 346.5 202.5t204.5 565.5q58 351 -11 540t-259 189q-201 0 -347.5 -203.5t-205.5 -567.5q-59 -350 11 -538t261 -188z" />
    <glyph glyph-name="uni0031" unicode="1" horiz-adv-x="1296" 
d="M1169 2048l-340 -2048h-363l261 1574h-17q-44 -56 -167 -104t-280 -48l48 300q99 0 193 37.5t158 92t105.5 106.5t54.5 90h347z" />
    <glyph glyph-name="uni0032" unicode="2" horiz-adv-x="1766" 
d="M70 0l46 268l825 697q102 90 158 142.5t112.5 116.5t84.5 120.5t38 118.5q23 142 -57.5 227t-230.5 85q-153 0 -263 -92t-137 -248h-356q31 191 145.5 337.5t285.5 225t371 78.5q152 0 272 -48t193 -131.5t103.5 -195.5t11.5 -239q-30 -184 -160.5 -351t-445.5 -428
l-413 -359l-3 -14h876l-52 -310h-1404z" />
    <glyph glyph-name="uni0033" unicode="3" horiz-adv-x="1839" 
d="M803 -28q-218 0 -379 73.5t-237.5 207t-50.5 304.5h370q-15 -123 73 -198.5t239 -75.5q174 0 299 89t148 237q20 131 -74 212.5t-281 81.5h-189l47 286h172q162 0 279.5 88.5t141.5 230.5q20 121 -49.5 194t-206.5 73q-155 0 -275.5 -77t-142.5 -202h-355
q30 168 144.5 301t284 206t362.5 73q203 0 348.5 -79.5t208 -213t35.5 -295.5q-26 -162 -141.5 -275t-295.5 -150l-13 -13q200 -30 302 -168t69 -334q-27 -169 -142 -300.5t-295.5 -203.5t-395.5 -72z" />
    <glyph glyph-name="uni0034" unicode="4" horiz-adv-x="1875" 
d="M81 380l48 295l1097 1373h462l-226 -1363h263l-51 -305h-263l-63 -380h-354l63 380h-976zM1113 685l156 943h-16l-740 -927l-2 -16h602z" />
    <glyph glyph-name="uni0035" unicode="5" horiz-adv-x="1781" 
d="M771 -28q-301 0 -476 166t-141 419h357q-11 -125 70.5 -205t221.5 -80q168 0 296.5 113t156.5 289q27 171 -60.5 280t-253.5 109q-95 0 -191 -36t-160 -93l-335 58l280 1056h1198l-52 -319h-882l-147 -534l9 3q69 69 178.5 111t230.5 42q178 0 313 -88t197 -246.5
t31 -353.5q-49 -302 -284 -496.5t-557 -194.5z" />
    <glyph glyph-name="uni0036" unicode="6" horiz-adv-x="1825" 
d="M819 -28q-89 0 -168.5 16.5t-155 52.5t-134.5 92t-106 135.5t-69.5 184.5t-25.5 238t26 296q86 518 344 806.5t624 288.5q286 0 454.5 -164t160.5 -420h-358q-3 125 -75 194t-202 69q-216 0 -369 -187t-211 -524l16 21q95 131 238.5 202.5t305.5 71.5q182 0 317 -88.5
t194.5 -246.5t26.5 -353q-50 -300 -281.5 -493t-551.5 -192zM832 272q169 0 304 121t162 297q25 158 -58.5 265t-238.5 107q-168 0 -306 -122.5t-165 -293.5q-24 -157 60.5 -265.5t241.5 -108.5z" />
    <glyph glyph-name="uni0037" unicode="7" horiz-adv-x="1653" 
d="M129 0l1157 1724l4 14h-1012l51 310h1395l-53 -317l-1157 -1731h-385z" />
    <glyph glyph-name="uni0038" unicode="8" horiz-adv-x="1818" 
d="M786 -28q-221 0 -385.5 76.5t-241 210.5t-49.5 299q33 188 178 329.5t330 171.5l12 14q-153 36 -232 164t-49 300q28 153 135 276t272 193t358 70q148 0 270.5 -42.5t202.5 -116t115.5 -177.5t15.5 -222q-27 -164 -144 -287.5t-277 -157.5l-12 -14q178 -32 278.5 -179
t67.5 -341q-27 -162 -144 -291.5t-301 -202.5t-400 -73zM816 258q175 0 297 90.5t145 236.5q24 143 -66 234t-253 91q-167 0 -293 -97t-151 -247q-22 -141 64.5 -224.5t256.5 -83.5zM970 1191q146 0 253.5 86.5t130.5 224.5q24 130 -50 207t-218 77q-149 0 -255.5 -84
t-129.5 -220q-21 -132 54 -211.5t215 -79.5z" />
    <glyph glyph-name="uni0039" unicode="9" horiz-adv-x="1825" 
d="M1094 2082q68 -1 131.5 -10.5t125 -31t114.5 -54t100 -79t82.5 -105.5t60.5 -135.5t36 -165.5t7 -199.5t-25 -235.5q-86 -518 -343 -806t-624 -288q-190 0 -332.5 75.5t-215 208t-67.5 300.5h358q3 -125 74.5 -194t201.5 -69q216 0 369 187t211 523l-16 -21
q-94 -131 -237.5 -202t-306.5 -71q-136 0 -248 52t-184 142.5t-101 218.5t-4 275q51 299 281.5 492.5t551.5 192.5zM1081 1782q-169 0 -304 -121.5t-162 -297.5q-26 -158 58 -265t239 -107q168 0 306 123t164 293q26 157 -59 266t-242 109z" />
    <glyph glyph-name="uni003A" unicode=":" horiz-adv-x="816" 
d="M302 -22q-92 0 -151 64t-51 156q7 90 77.5 153t161.5 63q90 0 150.5 -64t51.5 -152q-8 -92 -78.5 -156t-160.5 -64zM484 1075q-92 0 -151 64t-51 156q7 90 77.5 153t161.5 63q90 0 150.5 -64t51.5 -152q-8 -92 -78.5 -156t-160.5 -64z" />
    <glyph glyph-name="uni003B" unicode=";" horiz-adv-x="828" 
d="M531 280l-33 -110q-24 -88 -62.5 -186t-90 -203.5t-74.5 -150.5t-68 -130h-244q1 4 43 110.5t66 171t59.5 178t56.5 208.5l27 112h320zM490 1096q-92 0 -151 64t-51 156q7 90 77.5 153t161.5 63q90 0 150.5 -64t51.5 -152q-8 -92 -78.5 -156t-160.5 -64z" />
    <glyph glyph-name="uni003C" unicode="&#x3c;" horiz-adv-x="1338" 
d="M1094 378l-249 -204l-712 722l933 722l200 -204l-676 -514l-2 -8z" />
    <glyph glyph-name="uni003D" unicode="=" horiz-adv-x="1726" 
d="M274 742h1175l-51 -296h-1175zM372 1346h1174l-48 -296h-1175z" />
    <glyph glyph-name="uni003E" unicode="&#x3e;" horiz-adv-x="1341" 
d="M262 174l-199 204l675 514l2 8l-505 514l248 204l712 -722z" />
    <glyph glyph-name="uni003F" unicode="?" horiz-adv-x="1532" 
d="M505 602q17 132 48.5 229t82 167t108 117t142.5 95q114 65 182 139.5t84 171.5q18 116 -48.5 187.5t-182.5 71.5q-115 0 -210.5 -72.5t-122.5 -205.5h-356q27 139 99 249.5t173 180.5t223 107t253 37q288 0 437.5 -149t107.5 -401q-51 -305 -367 -480
q-157 -88 -223.5 -177.5t-96.5 -266.5h-333zM605 -29q-94 0 -154 63t-53 153q8 91 79.5 153.5t165.5 62.5q95 0 155 -62.5t52 -153.5q-7 -90 -78.5 -153t-166.5 -63z" />
    <glyph glyph-name="uni0040" unicode="@" horiz-adv-x="2814" 
d="M1678 2017q144 0 272.5 -23t232.5 -66.5t191.5 -106t150.5 -141t109 -171.5t67 -198t24 -220.5t-19 -238.5q-137 -836 -694 -857q-152 -8 -237.5 50.5t-84.5 170.5h-12q-50 -93 -185.5 -155t-298.5 -54q-121 6 -216 56t-156 141.5t-82 222t6 295.5q21 125 69 232.5
t113 186.5t144.5 138t163.5 92.5t171 44.5q160 21 282.5 -24t136.5 -115h14l18 112h280l-159 -952q-10 -76 19 -121.5t92 -45.5q119 0 194.5 143t126.5 456q35 208 -7.5 374.5t-150 274t-267.5 164.5t-361 57q-240 0 -442.5 -75t-347.5 -211t-240.5 -323.5t-132.5 -415.5
q-80 -487 139 -746.5t715 -259.5q151 0 307 32.5t262 69.5l44 -254q-112 -52 -303.5 -91t-375.5 -39q-628 0 -914.5 335.5t-186.5 948.5q49 297 178.5 539.5t324 412.5t456.5 262.5t570 92.5zM1465 1129q-164 0 -276 -110t-142 -285q-9 -69 -10 -133t17.5 -120t50.5 -97.5
t88.5 -65.5t132.5 -24q184 0 281.5 108t134.5 333q34 207 -29.5 300.5t-247.5 93.5z" />
    <glyph glyph-name="uni0041" unicode="A" horiz-adv-x="2038" 
d="M337 0h-396l1061 2048h458l382 -2048h-396l-85 505h-770zM740 803h570l-139 825h-16z" />
    <glyph glyph-name="uni0042" unicode="B" horiz-adv-x="1851" 
d="M74 0l340 2048h784q163 0 284 -40t190 -111.5t95 -167.5t6 -212q-31 -177 -147.5 -287.5t-281.5 -148.5l-4 -20q82 -4 154 -40t124 -98.5t73.5 -157.5t3.5 -207q-20 -121 -81 -222t-158.5 -176.5t-239.5 -117.5t-313 -42h-829zM497 310h399q193 0 299.5 74.5t127.5 202.5
q22 140 -63.5 231.5t-253.5 91.5h-410zM642 1177h367q147 0 256 80t129 212q22 123 -51.5 198t-232.5 75h-376z" />
    <glyph glyph-name="uni0043" unicode="C" horiz-adv-x="2094" 
d="M2050 1357h-369q-1 181 -112.5 283.5t-293.5 102.5q-265 0 -460.5 -197t-252.5 -544q-56 -335 64.5 -516t367.5 -181q197 0 353 99.5t220 275.5h373q-46 -147 -135.5 -275.5t-212 -225t-282 -152t-333.5 -55.5q-206 0 -370 73.5t-268.5 212t-144.5 337.5t2 451
q53 319 212.5 554.5t385.5 355.5t490 120q232 0 406 -84t269.5 -248t90.5 -387z" />
    <glyph glyph-name="uni0044" unicode="D" horiz-adv-x="2040" 
d="M778 0h-704l340 2048h698q458 0 677.5 -279t138.5 -763q-78 -474 -380.5 -740t-769.5 -266zM498 321h299q320 0 515.5 183t254.5 543q58 343 -69.5 511.5t-440.5 168.5h-325z" />
    <glyph glyph-name="uni0045" unicode="E" horiz-adv-x="1711" 
d="M74 0l340 2048h1332l-52 -311h-961l-92 -556h892l-52 -311h-892l-92 -559h969l-52 -311h-1340z" />
    <glyph glyph-name="uni0046" unicode="F" horiz-adv-x="1649" 
d="M74 0l340 2048h1312l-52 -311h-941l-92 -556h851l-52 -311h-851l-144 -870h-371z" />
    <glyph glyph-name="uni0047" unicode="G" horiz-adv-x="2126" 
d="M192 1022q32 195 105 362.5t177 294t234 216t280 135.5t310 46q168 0 309.5 -50.5t240 -139.5t153 -216t53.5 -276h-381q-25 165 -135 257t-293 92q-252 0 -437.5 -190t-241.5 -527q-57 -343 68 -532t387 -189q218 0 382.5 132t198.5 345h-464l49 290h831l-41 -246
q-32 -195 -123.5 -356t-225.5 -269.5t-305 -168.5t-360 -60q-210 0 -374 73t-264 209t-137.5 330.5t4.5 437.5z" />
    <glyph glyph-name="uni0048" unicode="H" horiz-adv-x="2095" 
d="M74 0l340 2048h371l-144 -867h949l144 867h372l-340 -2048h-372l144 870h-949l-144 -870h-371z" />
    <glyph glyph-name="uni0049" unicode="I" horiz-adv-x="774" 
d="M785 2048l-340 -2048h-371l340 2048h371z" />
    <glyph glyph-name="uni004A" unicode="J" horiz-adv-x="1602" 
d="M985 613l237 1435h368l-240 -1445q-49 -295 -252.5 -463t-503.5 -168q-137 0 -247.5 37t-186 107t-106.5 180t-8 248h364q-18 -127 44 -197t186 -70q136 0 226.5 87.5t118.5 248.5z" />
    <glyph glyph-name="uni004B" unicode="K" horiz-adv-x="1906" 
d="M74 0l340 2048h371l-155 -941h25l954 941h453l-943 -919l610 -1129h-446l-462 878l-274 -270l-102 -608h-371z" />
    <glyph glyph-name="uni004C" unicode="L" horiz-adv-x="1594" 
d="M74 0l340 2048h371l-288 -1737h902l-52 -311h-1273z" />
    <glyph glyph-name="uni004D" unicode="M" horiz-adv-x="2552" 
d="M414 2048h454l363 -1484h24l853 1484h454l-340 -2048h-356l234 1407h-18l-800 -1401h-265l-332 1404h-19l-236 -1410h-356z" />
    <glyph glyph-name="uni004E" unicode="N" horiz-adv-x="2086" 
d="M2097 2048l-340 -2048h-330l-733 1395h-16l-233 -1395h-371l340 2048h332l732 -1396h19l231 1396h369z" />
    <glyph glyph-name="uni004F" unicode="O" horiz-adv-x="2182" 
d="M2070 1000q-40 -239 -142 -434.5t-246 -324.5t-323.5 -199t-376.5 -70q-206 0 -370.5 73t-270.5 211.5t-146.5 337.5t1.5 451q40 239 142 435t246.5 325.5t325 200t379.5 70.5q204 0 367.5 -73.5t269.5 -212t146 -338t-2 -452.5zM1705 1045q55 334 -64 516t-367 182
q-266 0 -461 -196.5t-251 -546.5q-29 -171 -11 -301t77.5 -217.5t152 -132t213.5 -44.5q130 0 246 49t209.5 142t160 233.5t95.5 315.5z" />
    <glyph glyph-name="uni0050" unicode="P" horiz-adv-x="1810" 
d="M74 0l340 2048h768q230 0 380 -88t206 -239.5t23 -350.5q-24 -148 -92 -271.5t-173.5 -214.5t-253 -141.5t-321.5 -50.5h-391l-115 -692h-371zM611 997h341q200 0 317 101t144 272q28 170 -55.5 269t-283.5 99h-340z" />
    <glyph glyph-name="uni0051" unicode="Q" horiz-adv-x="2206" 
d="M2070 1000q-43 -260 -157 -463.5t-282 -338.5l268 -374h-360l-163 224q-187 -76 -394 -76q-206 0 -370.5 73t-270.5 211.5t-146.5 337.5t1.5 451q40 239 142 435t246.5 325.5t325 200t379.5 70.5q204 0 367.5 -73.5t269.5 -212t146 -338t-2 -452.5zM942 688h336l152 -210
q213 199 275 567q55 334 -64 516t-367 182q-266 0 -461 -196.5t-251 -546.5q-29 -171 -11 -301t77.5 -217.5t152 -132t213.5 -44.5q102 0 194 30z" />
    <glyph glyph-name="uni0052" unicode="R" horiz-adv-x="1822" 
d="M74 0l340 2048h759q181 0 314 -48t207 -135t100.5 -204t2.5 -259q-32 -201 -151.5 -346t-305.5 -223l296 -833h-414l-264 767h-385l-128 -767h-371zM621 1061h353q201 0 309 89.5t134 247.5q7 53 6 102.5t-22.5 92.5t-56.5 75.5t-97 51t-144 18.5h-369z" />
    <glyph glyph-name="uni0053" unicode="S" horiz-adv-x="1828" 
d="M1431 1475q4 138 -84 212.5t-254 74.5q-171 0 -282.5 -74t-131.5 -193q-9 -49 4.5 -90.5t41 -70.5t72 -53.5t87.5 -39.5t97 -28l184 -48q94 -23 171.5 -55t148.5 -82t116 -112.5t64 -150t2 -190.5q-46 -275 -279.5 -440.5t-596.5 -165.5q-361 0 -545 166.5t-145 469.5
h365q-16 -155 88.5 -237t285.5 -82q182 0 308.5 80.5t147.5 211.5q10 58 -7.5 103t-64 78t-105.5 56.5t-145 46.5l-222 60q-521 142 -454 550q30 178 151 316.5t304 213t397 74.5q325 0 500 -166.5t138 -434.5h-357z" />
    <glyph glyph-name="uni0054" unicode="T" horiz-adv-x="1858" 
d="M272 1737l52 311h1634l-52 -311h-633l-288 -1737h-368l288 1737h-633z" />
    <glyph glyph-name="uni0055" unicode="U" horiz-adv-x="2066" 
d="M1706 2048h370l-224 -1354q-23 -137 -83.5 -253.5t-149.5 -202.5t-202 -147t-243.5 -91.5t-272.5 -30.5q-179 0 -323 48.5t-240.5 139.5t-136.5 229t-11 308l224 1354h371l-223 -1345q-20 -123 25.5 -215t141 -138.5t225.5 -46.5q199 0 349 108t181 292z" />
    <glyph glyph-name="uni0056" unicode="V" horiz-adv-x="2038" 
d="M688 2048l266 -1612h21l799 1612h408l-1062 -2048h-458l-381 2048h407z" />
    <glyph glyph-name="uni0057" unicode="W" horiz-adv-x="2835" 
d="M505 0l-238 2048h399l120 -1505h19l643 1505h363l146 -1506h18l618 1506h399l-918 -2048h-366l-170 1437h-16l-651 -1437h-366z" />
    <glyph glyph-name="uni0058" unicode="X" horiz-adv-x="1944" 
d="M714 2048l328 -750h16l576 750h433l-799 -1024l469 -1024h-423l-332 745h-16l-580 -745h-435l819 1024l-471 1024h415z" />
    <glyph glyph-name="uni0059" unicode="Y" horiz-adv-x="1989" 
d="M277 2048h418l351 -906h23l649 906h418l-958 -1284l-127 -764h-369l127 764z" />
    <glyph glyph-name="uni005A" unicode="Z" horiz-adv-x="1838" 
d="M36 0l40 231l1299 1506h-1057l52 311h1516l-37 -231l-1302 -1506h1057l-52 -311h-1516z" />
    <glyph glyph-name="uni005B" unicode="[" horiz-adv-x="1108" 
d="M109 -435l421 2541h723l-47 -278h-374l-328 -1986h374l-46 -277h-723z" />
    <glyph glyph-name="uni005C" unicode="\" horiz-adv-x="1134" 
d="M263 2048h327l320 -2356h-326z" />
    <glyph glyph-name="uni005D" unicode="]" horiz-adv-x="1108" 
d="M1021 2105l-421 -2541h-723l47 278h374l328 1986h-374l46 277h723z" />
    <glyph glyph-name="uni005E" unicode="^" horiz-adv-x="1322" 
d="M950 1004l-145 629l-351 -629h-304l583 1000h268l253 -1000h-304z" />
    <glyph glyph-name="uni005F" unicode="_" horiz-adv-x="1318" 
d="M1193 0l-47 -289h-1324l48 289h1323z" />
    <glyph glyph-name="uni0060" unicode="`" horiz-adv-x="949" 
d="M759 2112l203 -421h-308l-310 421h415z" />
    <glyph glyph-name="uni0061" unicode="a" horiz-adv-x="1618" 
d="M496 -31q-227 0 -350.5 121.5t-87.5 340.5q14 84 47 152t83 116t107.5 83t130.5 58t141.5 36t150.5 22q229 24 290 40q86 24 107 77q5 11 7 25q18 116 -37.5 177.5t-182.5 61.5q-125 0 -215 -54.5t-134 -140.5l-328 48q91 206 283 315t444 109q91 0 172 -15.5t157 -54
t126.5 -97t72.5 -151.5t2 -210l-171 -1028h-348l36 211h-12q-71 -106 -196 -174t-295 -68zM633 235q159 0 273 92t136 224l30 181q-48 -35 -343 -75q-137 -19 -221 -70.5t-99 -149.5q-16 -97 46 -149.5t178 -52.5z" />
    <glyph glyph-name="uni0062" unicode="b" horiz-adv-x="1759" 
d="M58 0l340 2048h362l-126 -766h16q178 274 484 274q134 0 240 -51.5t176 -151.5t93.5 -247.5t-7.5 -339.5q-40 -247 -153.5 -428.5t-271.5 -273t-340 -91.5q-303 0 -394 269h-23l-40 -242h-356zM541 768q-37 -227 36.5 -362.5t243.5 -135.5q174 0 291.5 137.5t154.5 360.5
q36 222 -36 356.5t-247 134.5q-173 0 -289.5 -132t-153.5 -359z" />
    <glyph glyph-name="uni0063" unicode="c" horiz-adv-x="1630" 
d="M727 -30q-226 0 -377 101t-208.5 280t-18.5 411q38 233 157 413t303 280.5t406 100.5q280 0 435.5 -151t132.5 -401h-347q-2 116 -70.5 188t-193.5 72q-171 0 -295.5 -133t-160.5 -363q-39 -234 39.5 -368.5t249.5 -134.5q121 0 214.5 68.5t138.5 191.5h346
q-63 -250 -264.5 -402.5t-486.5 -152.5z" />
    <glyph glyph-name="uni0064" unicode="d" horiz-adv-x="1759" 
d="M1442 0h-356l40 242h-23q-180 -269 -483 -269q-136 0 -243 52.5t-175.5 154t-92 249t8.5 337.5q31 187 104.5 338.5t175.5 249.5t225.5 150t257.5 52q307 0 393 -274h16l128 766h362zM1213 768q39 227 -34 359t-246 132q-175 0 -291.5 -134.5t-154.5 -356.5
q-36 -223 36 -360.5t245 -137.5q171 0 289 135.5t156 362.5z" />
    <glyph glyph-name="uni0065" unicode="e" horiz-adv-x="1678" 
d="M738 -30q-230 0 -383 96.5t-212.5 275t-19.5 417.5q39 235 158 416t301.5 281t399.5 100q145 0 261.5 -45.5t200 -140.5t112 -241.5t-1.5 -348.5l-17 -111h-1070l-1 -5q-67 -412 324 -412q119 0 212 50.5t146 147.5l331 -38q-84 -203 -280 -322.5t-461 -119.5zM509 913
h719q26 158 -53 259.5t-233 101.5q-152 0 -277 -109t-156 -252z" />
    <glyph glyph-name="uni0066" unicode="f" horiz-adv-x="1072" 
d="M1102 1536l-47 -280h-320l-208 -1256h-362l210 1256h-228l47 280h228l24 145q35 223 190 343t365 120q154 0 267 -42l-118 -280q-73 22 -131 22q-98 0 -149 -46.5t-68 -140.5l-20 -121h320z" />
    <glyph glyph-name="uni0067" unicode="g" horiz-adv-x="1759" 
d="M590 -590q-124 0 -224.5 23t-170.5 64.5t-117.5 92t-78.5 112.5l283 188q119 -190 358 -190q113 0 210 40t165 119.5t85 186.5l38 230h-22q-171 -254 -484 -254q-134 0 -240.5 47t-178 140.5t-96 234.5t5.5 329q31 185 105.5 334.5t176.5 247t226 149.5t258 52
q78 0 141.5 -18.5t104 -45.5t72.5 -66.5t48 -72t30 -71.5h19l42 254h356l-250 -1503q-49 -292 -284.5 -457.5t-577.5 -165.5zM780 306q173 0 287.5 123.5t150.5 345.5q37 223 -35.5 353.5t-244.5 130.5q-175 0 -292.5 -134t-153.5 -350q-35 -216 39 -342.5t249 -126.5z" />
    <glyph glyph-name="uni0068" unicode="h" horiz-adv-x="1726" 
d="M570 900l-148 -900h-363l340 2048h355l-128 -773h19q75 135 202.5 208t301.5 73q242 0 360 -151.5t73 -426.5l-164 -978h-363l154 922q25 155 -40.5 241.5t-206.5 86.5q-148 0 -255.5 -93t-136.5 -257z" />
    <glyph glyph-name="uni0069" unicode="i" horiz-adv-x="734" 
d="M58 0l256 1536h362l-256 -1536h-362zM549 1741q-86 0 -146.5 57.5t-56.5 139.5t68.5 139.5t149.5 57.5t144 -57.5t57 -139.5t-66 -139.5t-150 -57.5z" />
    <glyph glyph-name="uni006A" unicode="j" horiz-adv-x="734" 
d="M314 1536h362l-267 -1613q-40 -244 -205.5 -371.5t-418.5 -127.5h-114l51 298h72q119 0 177.5 53t76.5 153zM547 1741q-86 0 -146.5 57.5t-56.5 139.5t68.5 139.5t149.5 57.5t144 -57.5t57 -139.5t-66 -139.5t-150 -57.5z" />
    <glyph glyph-name="uni006B" unicode="k" horiz-adv-x="1602" 
d="M58 0l340 2048h362l-187 -1129h23l657 617h423l-706 -664l485 -872h-433l-361 657l-155 -140l-86 -517h-362z" />
    <glyph glyph-name="uni006C" unicode="l" horiz-adv-x="734" 
d="M760 2048l-340 -2048h-362l340 2048h362z" />
    <glyph glyph-name="uni006D" unicode="m" horiz-adv-x="2528" 
d="M59 0l256 1536h347l-44 -261h19q70 132 193.5 206.5t276.5 74.5t249.5 -74.5t118.5 -206.5h16q72 130 207.5 205.5t301.5 75.5q216 0 324.5 -137.5t66.5 -387.5l-172 -1031h-362l164 975q21 137 -40.5 206.5t-178.5 69.5q-129 0 -216 -80.5t-108 -212.5l-161 -958h-355
l166 990q18 119 -41 190t-175 71q-119 0 -215.5 -89t-118.5 -228l-156 -934h-363z" />
    <glyph glyph-name="uni006E" unicode="n" horiz-adv-x="1717" 
d="M570 900l-148 -900h-363l256 1536h347l-44 -261h19q73 132 204.5 206.5t300.5 74.5q239 0 357 -152.5t73 -425.5l-164 -978h-362l153 922q26 154 -39 241t-206 87q-145 0 -250 -93t-134 -257z" />
    <glyph glyph-name="uni006F" unicode="o" horiz-adv-x="1718" 
d="M737 -30q-224 0 -376.5 100t-213 281.5t-21.5 419.5q57 355 290 570t566 215q168 0 298 -58t207 -163.5t107 -253.5t-1 -329q-58 -354 -291 -568t-565 -214zM766 260q182 0 305 144t159 369q19 103 9.5 193.5t-40.5 158t-94.5 106t-152.5 38.5q-122 0 -221 -70
t-159 -184.5t-84 -260.5q-19 -104 -9 -194t41 -157t94.5 -105t151.5 -38z" />
    <glyph glyph-name="uni0070" unicode="p" horiz-adv-x="1759" 
d="M871 -27q-300 0 -394 269h-18l-135 -818h-362l352 2112h356l-43 -254h23q178 274 484 274q134 0 240 -51.5t176 -151.5t93.5 -247.5t-7.5 -339.5q-40 -247 -153.5 -428.5t-271.5 -273t-340 -91.5zM821 270q174 0 291 137t155 361q36 222 -36 356.5t-247 134.5
q-173 0 -290 -132t-153 -359q-37 -227 36.5 -362.5t243.5 -135.5z" />
    <glyph glyph-name="uni0071" unicode="q" horiz-adv-x="1759" 
d="M622 -27q-136 0 -243 52.5t-175.5 154t-92 249t8.5 337.5q31 187 104.5 338.5t175.5 249.5t225.5 150t257.5 52q307 0 393 -274h23l42 254h356l-348 -2112h-362l136 818h-18q-183 -269 -483 -269zM770 270q171 0 289 135.5t156 362.5q39 226 -34 358.5t-246 132.5
q-175 0 -291.5 -134.5t-154.5 -356.5q-19 -108 -9 -199.5t42.5 -157.5t96 -103.5t151.5 -37.5z" />
    <glyph glyph-name="uni0072" unicode="r" horiz-adv-x="1165" 
d="M58 0l256 1536h351l-43 -256h16q63 132 176.5 205t249.5 73q122 0 194 -56l-160 -298q-57 30 -139 30q-143 0 -254.5 -93t-135.5 -238l-149 -903h-362z" />
    <glyph glyph-name="uni0073" unicode="s" horiz-adv-x="1546" 
d="M1459 1130l-333 -36q-9 85 -68 138.5t-173 53.5q-119 0 -207.5 -53.5t-100.5 -135.5q-11 -62 30.5 -101t151.5 -66l254 -56q211 -48 303 -153t64 -274q-36 -212 -238 -344.5t-486 -132.5q-285 0 -440.5 118.5t-154.5 330.5l356 34q6 -103 72.5 -156t186.5 -54
q132 -1 225.5 56t105.5 141q11 62 -30 101t-144 62l-252 55q-426 94 -366 444q35 208 223.5 331t463.5 123q269 0 410.5 -113t146.5 -313z" />
    <glyph glyph-name="uni0074" unicode="t" horiz-adv-x="1080" 
d="M1081 1536l-47 -280h-304l-131 -792q-17 -101 20.5 -139.5t115.5 -38.5q33 0 107 14l16 -282q-102 -33 -220 -36q-140 -4 -240 41t-147 143.5t-22 238.5l140 851h-217l46 280h217l61 368h362l-61 -368h304z" />
    <glyph glyph-name="uni0075" unicode="u" horiz-adv-x="1713" 
d="M1144 646l149 890h362l-256 -1536h-351l46 273h-16q-74 -133 -209 -213t-303 -80q-231 0 -346 153t-70 425l164 978h362l-154 -922q-22 -146 43 -232t195 -86q83 0 162 37.5t141.5 119t80.5 193.5z" />
    <glyph glyph-name="uni0076" unicode="v" horiz-adv-x="1622" 
d="M1686 1536l-803 -1536h-400l-291 1536h386l164 -1141h16l543 1141h385z" />
    <glyph glyph-name="uni0077" unicode="w" horiz-adv-x="2358" 
d="M375 0l-178 1536h369l90 -1080h14l456 1080h365l96 -1074h15l446 1074h370l-691 -1536h-377l-116 1038h-21l-460 -1038h-378z" />
    <glyph glyph-name="uni0078" unicode="x" horiz-adv-x="1584" 
d="M610 1536l216 -567l409 567h383l-591 -768l343 -768h-381l-233 553l-414 -553h-384l596 768l-328 768h384z" />
    <glyph glyph-name="uni0079" unicode="y" horiz-adv-x="1622" 
d="M173 -598q-139 0 -221 41l130 290q75 -23 136 -22.5t115.5 39t102.5 120.5l52 96l-296 1570h384l161 -1160h16l548 1160h385l-908 -1736q-211 -398 -605 -398z" />
    <glyph glyph-name="uni007A" unicode="z" horiz-adv-x="1585" 
d="M39 0l39 230l948 993l4 13h-783l51 300h1232l-40 -247l-908 -976l-4 -13h766l-49 -300h-1256z" />
    <glyph glyph-name="uni007B" unicode="{" horiz-adv-x="1108" 
d="M832 -435q-78 0 -141.5 5t-122.5 17.5t-103.5 33t-81.5 51t-60 72.5t-36 96t-12.5 123.5t13.5 153.5l41 254q25 161 -30.5 228.5t-224.5 67.5l28 175h1l27 161q169 0 249.5 68t106.5 228l40 255q21 133 65.5 230.5t105.5 159t149 98t184 50.5t223 14l-47 -278
q-170 0 -242.5 -69.5t-97.5 -233.5l-56 -328q-10 -63 -32 -112.5t-65 -96t-116 -80.5t-174 -54l-6 -38q94 -20 156 -55t88 -78.5t34.5 -97.5t-3.5 -111l-55 -328q-28 -164 21.5 -234t219.5 -70z" />
    <glyph glyph-name="uni007C" unicode="|" horiz-adv-x="1000" 
d="M934 2444l-495 -2994h-315l495 2994h315z" />
    <glyph glyph-name="uni007D" unicode="}" horiz-adv-x="1108" 
d="M298 2105q78 0 141.5 -5t122.5 -17.5t103.5 -33t81.5 -51t60 -72.5t36 -96t12.5 -123.5t-13.5 -153.5l-41 -254q-25 -161 30.5 -228.5t224.5 -67.5l-28 -175h-1l-27 -161q-169 0 -249.5 -68t-106.5 -228l-40 -255q-21 -133 -65.5 -230.5t-105.5 -159t-149 -98t-184 -50.5
t-223 -14l47 278q170 0 242.5 69.5t97.5 233.5l56 328q10 63 32 112.5t65 96t116 80.5t174 54l6 38q-94 20 -156 55t-88 78.5t-34.5 97.5t3.5 111l55 328q28 164 -21.5 234t-219.5 70z" />
    <glyph glyph-name="uni007E" unicode="~" horiz-adv-x="1805" 
d="M1446 1212h277q-39 -249 -184.5 -395.5t-341.5 -146.5q-203 0 -351 176q-48 63 -91 90t-100 27q-86 0 -144.5 -59t-80.5 -170h-279q43 251 190.5 393.5t339.5 142.5q197 0 342 -176q63 -68 102 -94.5t97 -26.5q84 0 143 59t81 180z" />
    <glyph glyph-name="uni00A0" unicode="&#xa0;" horiz-adv-x="699" 
 />
    <glyph glyph-name="uni00A1" unicode="&#xa1;" horiz-adv-x="870" 
d="M23 -518l272 1446h320l-207 -1446h-385zM538 1559q94 0 154 -62.5t52 -153.5q-7 -90 -78.5 -153t-165.5 -63q-95 0 -155 62.5t-52 153.5q7 91 78.5 153.5t166.5 62.5z" />
    <glyph glyph-name="uni00A2" unicode="&#xa2;" horiz-adv-x="1610" 
d="M606 -256l38 230q-198 18 -329 123t-179.5 276t-12.5 389q35 218 142 390.5t272.5 276.5t366.5 123l38 228h128l-37 -225q261 -13 403.5 -162t120.5 -389h-347q-2 106 -60.5 176t-164.5 82l-165 -995q107 11 189 78.5t123 179.5h346q-61 -239 -249.5 -390t-457.5 -164
l-37 -227h-128zM694 275l161 979q-139 -33 -236.5 -160.5t-128.5 -325.5q-33 -202 21.5 -331t182.5 -162z" />
    <glyph glyph-name="uni00A3" unicode="&#xa3;" horiz-adv-x="1853" 
d="M1510 0h-1444l52 311h113q47 6 83 52.5t53 101.5t26 117l30 227h-230l53 303h216l45 343q19 148 86.5 267.5t168 196t223 117t256.5 40.5q119 0 218.5 -30.5t167 -84.5t110 -129t47.5 -164t-20 -189l-342 29q14 68 3.5 118t-44.5 82t-80 47.5t-102 15.5
q-119 0 -211.5 -81t-118.5 -235l-44 -343h463l-53 -303h-450l-27 -211q-22 -181 -129 -287h933z" />
    <glyph glyph-name="uni00A4" unicode="&#xa4;" horiz-adv-x="2114" 
d="M234 836q46 286 240 510l-164 200l212 188l167 -200q242 162 518 162q279 0 471 -167l238 205l154 -188l-241 -206q118 -224 73 -504q-44 -268 -225 -489l160 -189l-216 -188l-151 184q-259 -182 -547 -182q-290 0 -483 180l-213 -182l-149 188l219 187q-108 220 -63 491
zM478 836q-30 -168 24.5 -310t177 -224.5t284.5 -82.5q159 0 307.5 82.5t251 224.5t131.5 310q21 127 -6.5 242t-93 197t-166 130t-220.5 48q-162 0 -310.5 -81.5t-250 -223.5t-129.5 -312z" />
    <glyph glyph-name="uni00A5" unicode="&#xa5;" horiz-adv-x="1589" 
d="M1438 1044l-36 -225h-419l-29 -171h420l-37 -225h-420l-71 -423h-368l71 423h-439l37 225h439l29 171h-440l36 225h347l-306 1004h388l225 -858l508 858h388l-643 -1004h320z" />
    <glyph glyph-name="uni00A6" unicode="&#xa6;" horiz-adv-x="897" 
d="M250 565h328l-158 -949h-327zM824 2048l-158 -945h-327l158 945h327z" />
    <glyph glyph-name="uni00A7" unicode="&#xa7;" horiz-adv-x="1630" 
d="M1489 1548h-326q16 99 -33 159.5t-162 60.5q-97 0 -164.5 -46.5t-80.5 -119.5q-13 -70 37.5 -129t123.5 -96l355 -195q298 -163 231 -454q-26 -111 -119.5 -194t-192.5 -112l-4 -4q137 -137 104 -356q-25 -149 -120.5 -259t-230.5 -163.5t-293 -53.5q-266 0 -407 146.5
t-101 391.5h328q-19 -111 45.5 -172t189.5 -57q96 2 171 44.5t89 122.5q5 34 -3.5 65.5t-22 52.5t-41 44t-45 34.5t-47.5 28.5l-352 191q-302 156 -236 458q26 113 118 196t197 112v5q-134 155 -101 353q23 135 110 243t222 169.5t292 61.5q249 0 377.5 -148t91.5 -380z
M1160 714q15 61 -21 114.5t-113 92.5l-324 177q-26 16 -59 9t-63.5 -26.5t-55.5 -54.5t-34 -76q-28 -122 139 -209l317 -171q50 -28 123.5 17.5t90.5 126.5z" />
    <glyph glyph-name="uni00A8" unicode="&#xa8;" horiz-adv-x="1514" 
d="M647 1747q-81 0 -136 55.5t-53 133.5t61.5 133.5t140.5 55.5q79 0 133.5 -55.5t52.5 -133.5t-60.5 -133.5t-138.5 -55.5zM1245 1747q-81 0 -136.5 55.5t-53.5 133.5q3 78 62.5 133.5t140.5 55.5q79 0 133.5 -55.5t51.5 -133.5q-1 -78 -60 -133.5t-138 -55.5z" />
    <glyph glyph-name="uni00A9" unicode="&#xa9;" horiz-adv-x="2374" 
d="M232 1004q35 213 146 404.5t267 327.5t352.5 216t397.5 80q136 0 259 -36t221.5 -102t176 -158.5t121.5 -207t59.5 -247t-10.5 -277.5q-35 -215 -145.5 -407t-267 -328.5t-354 -216.5t-400.5 -80q-134 0 -256.5 36t-220.5 102t-175 159t-121.5 208t-60 248t10.5 279z
M403 1004q-29 -179 10 -339.5t130.5 -274t232 -180t307.5 -66.5q169 0 332.5 66.5t293.5 180t221.5 274t120.5 339.5q30 178 -9 337.5t-131 272.5t-233.5 179.5t-310.5 66.5q-223 0 -430 -112t-350.5 -309.5t-183.5 -434.5zM1428 820h221q-35 -211 -179 -321.5t-364 -110.5
q-223 0 -332 146.5t-70 385.5l28 164q39 238 197 385t381 147q220 0 327 -110.5t72 -321.5h-219q24 129 -30.5 188.5t-181.5 59.5q-130 0 -214.5 -94.5t-113.5 -253.5l-28 -164q-24 -158 31 -253t185 -95q127 0 198 58t92 190z" />
    <glyph glyph-name="uni00AA" unicode="&#xaa;" horiz-adv-x="1336" 
d="M898 1064q-125 -112 -300 -112q-166 0 -243.5 84.5t-53.5 227.5q24 155 158 236.5t374 81.5h141l12 70q25 176 -135 176q-91 0 -148 -35t-69 -101l-239 18q24 141 158.5 231.5t329.5 90.5q189 0 283 -97.5t65 -282.5l-72 -432q-25 -144 -6 -250h-249q-6 43 -6 94z
M947 1422h-142q-115 0 -181 -43.5t-76 -108.5q-9 -57 26 -88.5t117 -31.5q54 0 117 24t107 60z" />
    <glyph glyph-name="uni00AB" unicode="&#xab;" horiz-adv-x="1475" 
d="M1240 186h-248l-304 565l2 8h-2l4 20l491 563h248l-453 -575zM727 186h-248l-304 565l2 8h-2l4 20l491 563h248l-453 -575z" />
    <glyph glyph-name="uni00AC" unicode="&#xac;" horiz-adv-x="1595" 
d="M1442 1108l-18 -108h2l-80 -484h-281l59 356h-893l40 236h1171z" />
    <glyph glyph-name="uni00AD" unicode="&#xad;" horiz-adv-x="1339" 
d="M1191 1010l-24 -280h-986l24 280h986z" />
    <glyph glyph-name="uni00AE" unicode="&#xae;" horiz-adv-x="2374" 
d="M232 1004q35 213 146 404.5t267 327.5t352.5 216t397.5 80q136 0 259 -36t221.5 -102t176 -158.5t121.5 -207t59.5 -247t-10.5 -277.5q-35 -215 -145.5 -407t-267 -328.5t-354 -216.5t-400.5 -80q-134 0 -256.5 36t-220.5 102t-175 159t-121.5 208t-60 248t10.5 279z
M403 1004q-29 -179 10 -339.5t130.5 -274t232 -180t307.5 -66.5q169 0 332.5 66.5t293.5 180t221.5 274t120.5 339.5q30 178 -9 337.5t-131 272.5t-233.5 179.5t-310.5 66.5q-223 0 -430 -112t-350.5 -309.5t-183.5 -434.5zM1227 900h-218l-77 -464h-213l196 1168h395
q213 0 318 -92t75 -266q-25 -160 -201 -244q144 -76 111 -294l-16 -76q-15 -118 -4 -176l-4 -20h-217q-10 36 8 161q0 3 4 35l16 76q15 98 -24.5 145t-148.5 47zM1040 1084h194q98 0 173 42t89 118q15 99 -33.5 137.5t-184.5 38.5h-182z" />
    <glyph glyph-name="uni00AF" unicode="&#xaf;" horiz-adv-x="1483" 
d="M1427 1998l-35 -224h-966l36 224h965z" />
    <glyph glyph-name="uni00B0" unicode="&#xb0;" horiz-adv-x="1184" 
d="M660 1161q-120 0 -214.5 58t-139.5 159t-25 219q29 180 184.5 311t338.5 131q120 0 212 -60t134.5 -161.5t23.5 -220.5q-31 -181 -181 -308.5t-333 -127.5zM695 1386q89 0 163.5 62t88.5 150q15 89 -38.5 152.5t-141.5 63.5q-89 0 -165.5 -63.5t-91.5 -152.5
q-13 -87 41.5 -149.5t143.5 -62.5z" />
    <glyph glyph-name="uni00B1" unicode="&#xb1;" horiz-adv-x="1723" 
d="M1586 1198l-50 -294h-502l-70 -427h-301l71 427h-505l49 294h505l75 455h301l-75 -455h502zM1433 294l-49 -294h-1301l49 294h1301z" />
    <glyph glyph-name="uni00B2" unicode="&#xb2;" horiz-adv-x="1190" 
d="M170 1024l30 198l550 396q126 94 179.5 147t63.5 114q13 80 -36 127t-149 47q-96 0 -166 -49t-86 -135h-262q30 184 181 291.5t359 107.5q207 0 320 -110t89 -274q-18 -122 -107 -226t-296 -237l-241 -167v-8h564l-34 -222h-959z" />
    <glyph glyph-name="uni00B3" unicode="&#xb3;" horiz-adv-x="1200" 
d="M648 1008q-221 0 -346.5 104t-97.5 264h272q-11 -63 39.5 -102.5t146.5 -39.5q101 0 172 46t85 121q13 67 -43.5 107t-170.5 40h-117l33 200h101q102 0 176 47t88 124q9 59 -34 97.5t-129 38.5q-98 0 -166.5 -41.5t-81.5 -110.5h-261q25 162 170.5 263.5t345.5 101.5
q134 0 235 -44.5t151 -127.5t32 -190q-15 -95 -97 -162t-205 -83l-4 -10q133 -21 202.5 -103.5t51.5 -193.5q-27 -156 -181 -251t-367 -95z" />
    <glyph glyph-name="uni00B4" unicode="&#xb4;" horiz-adv-x="1285" 
d="M474 1725l336 449h392l-427 -449h-301z" />
    <glyph glyph-name="uni00B5" unicode="&#xb5;" horiz-adv-x="1835" 
d="M-35 -563l349 2099h362l-149 -890q-25 -156 61.5 -253t251.5 -97t283 97t143 253l149 890h363l-256 -1536h-352l39 222h-12q-70 -105 -178.5 -164t-229.5 -59q-119 0 -208 59t-122 164h-12l-131 -785h-351z" />
    <glyph glyph-name="uni00B6" unicode="&#xb6;" horiz-adv-x="1710" 
d="M1069 0l292 1756h-249l-163 -996h-118q-217 0 -361 84t-199 228t-25 332q24 139 89.5 256t165.5 203.5t239.5 135.5t302.5 49h675l-340 -2048h-309z" />
    <glyph glyph-name="uni00B7" unicode="&#xb7;" horiz-adv-x="819" 
d="M327 776q-92 0 -151 64t-51 156q7 90 77.5 153t161.5 63q90 0 150.5 -64t51.5 -152q-8 -92 -78.5 -156t-160.5 -64z" />
    <glyph glyph-name="uni00B8" unicode="&#xb8;" horiz-adv-x="954" 
d="M257 8h196l-32 -85q98 -15 150.5 -76t33.5 -165q-23 -144 -166 -229t-377 -85l26 178q247 0 273 127q12 62 -31.5 92t-151.5 42z" />
    <glyph glyph-name="uni00B9" unicode="&#xb9;" horiz-adv-x="898" 
d="M905 2252l-204 -1228h-251l152 897h-9q-33 -36 -113 -64t-182 -28l32 220q123 0 219 67t111 136h245z" />
    <glyph glyph-name="uni00BA" unicode="&#xba;" horiz-adv-x="1331" 
d="M292 1436l16 106q36 217 191 353.5t375 136.5q222 0 331.5 -136.5t73.5 -353.5l-16 -106q-37 -216 -190 -351t-373 -135q-224 0 -334 135t-74 351zM553 1542l-16 -106q-22 -128 28 -206t169 -78q115 0 188.5 78t95.5 206l16 106q22 126 -26.5 206t-165.5 80
q-115 0 -191 -80t-98 -206z" />
    <glyph glyph-name="uni00BB" unicode="&#xbb;" horiz-adv-x="1477" 
d="M572 186l449 576l-258 579h246l306 -565l-2 -8h2l-4 -17l-493 -565h-246zM71 186l449 576l-258 579h246l306 -565l-2 -8h2l-4 -17l-493 -565h-246z" />
    <glyph glyph-name="uni00BC" unicode="&#xbc;" horiz-adv-x="2482" 
d="M1322 206l35 216l540 666h358l-110 -666h148l-35 -216h-149l-34 -206h-262l34 206h-525zM319 0l1539 2048h252l-1538 -2048h-253zM421 960l125 759h-16q-48 -35 -130.5 -69.5t-152.5 -40.5l37 229q122 25 225 92.5t145 117.5h207l-180 -1088h-260zM1887 417l66 401h-15
l-313 -388l-3 -13h265z" />
    <glyph glyph-name="uni00BD" unicode="&#xbd;" horiz-adv-x="2612" 
d="M2389 217l-36 -217h-864l31 183l461 358q189 148 198 221q10 60 -23 92t-106 32q-78 0 -131 -45t-63 -110h-269q25 157 161 264t330 107q199 0 296.5 -91.5t70.5 -248.5q-8 -48 -29 -90.5t-45.5 -74.5t-76 -76t-91.5 -74t-122 -89l-184 -141h492zM319 0l1539 2048h252
l-1538 -2048h-253zM421 960l125 759h-16q-48 -35 -130.5 -69.5t-152.5 -40.5l37 229q122 25 225 92.5t145 117.5h207l-180 -1088h-260z" />
    <glyph glyph-name="uni00BE" unicode="&#xbe;" horiz-adv-x="2718" 
d="M1558 206l35 216l540 666h358l-110 -666h148l-35 -216h-149l-34 -206h-262l34 206h-525zM576 944q-203 0 -306 90.5t-78 246.5h273q-10 -54 32 -86.5t123 -32.5q80 0 131 34t61 93q11 61 -33.5 97t-133.5 36h-122l31 184h122q78 0 128.5 33.5t58.5 90.5q10 55 -28 87.5
t-111 32.5q-69 0 -114 -26t-53 -71h-271q25 143 151.5 227t317.5 84q196 0 302 -82.5t83 -221.5q-16 -97 -90 -159.5t-190 -76.5l-4 -16q122 -15 180.5 -81.5t40.5 -169.5q-22 -144 -158 -228.5t-343 -84.5zM555 0l1539 2048h252l-1538 -2048h-253zM2123 417l66 401h-15
l-313 -388l-3 -13h265z" />
    <glyph glyph-name="uni00BF" unicode="&#xbf;" horiz-adv-x="1534" 
d="M1022 919q-17 -132 -48.5 -229t-82 -167t-108 -117t-142.5 -95q-114 -65 -182 -139.5t-84 -171.5q-18 -116 48.5 -187.5t182.5 -71.5q115 0 210.5 72.5t122.5 205.5h356q-27 -139 -99 -249.5t-173 -180.5t-223 -107t-253 -37q-288 0 -437.5 149t-107.5 401
q51 305 367 480q157 88 223.5 177.5t96.5 266.5h333zM922 1550q94 0 154 -63t53 -153q-8 -91 -79.5 -153.5t-165.5 -62.5q-95 0 -155 62.5t-52 153.5q7 90 78.5 153t166.5 63z" />
    <glyph glyph-name="uni00C0" unicode="&#xc0;" horiz-adv-x="2038" 
d="M337 0h-396l1061 2048h458l382 -2048h-396l-85 505h-770zM740 803h570l-139 825h-16zM1237 2590l203 -421h-308l-310 421h415z" />
    <glyph glyph-name="uni00C1" unicode="&#xc1;" horiz-adv-x="2038" 
d="M337 0h-396l1061 2048h458l382 -2048h-396l-85 505h-770zM740 803h570l-139 825h-16zM1088 2179l336 449h392l-427 -449h-301z" />
    <glyph glyph-name="uni00C2" unicode="&#xc2;" horiz-adv-x="2038" 
d="M337 0h-396l1061 2048h458l382 -2048h-396l-85 505h-770zM740 803h570l-139 825h-16zM1036 2205h-298l1 14l478 384h219l347 -384l-1 -14h-296l-191 208z" />
    <glyph glyph-name="uni00C3" unicode="&#xc3;" horiz-adv-x="2038" 
d="M337 0h-396l1061 2048h458l382 -2048h-396l-85 505h-770zM1016 2200l-224 6q25 151 134.5 260t244.5 109q50 0 100 -18.5t84.5 -41.5t82 -41.5t94.5 -18.5q52 0 94.5 37.5t51.5 98.5l224 -7q-24 -152 -135 -260t-246 -108q-60 0 -111 19t-80.5 41.5t-74 41.5t-93.5 19
q-53 0 -94 -37.5t-52 -99.5zM740 803h570l-139 825h-16z" />
    <glyph glyph-name="uni00C4" unicode="&#xc4;" horiz-adv-x="2038" 
d="M337 0h-396l1061 2048h458l382 -2048h-396l-85 505h-770zM740 803h570l-139 825h-16zM982 2219q-81 0 -136 55.5t-53 133.5t61.5 133.5t140.5 55.5q79 0 133.5 -55.5t52.5 -133.5t-60.5 -133.5t-138.5 -55.5zM1580 2219q-81 0 -136.5 55.5t-53.5 133.5q3 78 62.5 133.5
t140.5 55.5q79 0 133.5 -55.5t51.5 -133.5q-1 -78 -60 -133.5t-138 -55.5z" />
    <glyph glyph-name="uni00C5" unicode="&#xc5;" horiz-adv-x="2038" 
d="M337 0h-396l1061 2048h458l382 -2048h-396l-85 505h-770zM955 2480q17 128 128 220t256 92q143 0 227.5 -92t67.5 -220q-17 -127 -125 -214t-253 -87q-146 0 -232 87t-69 214zM740 803h570l-139 825h-16zM1125 2480q-9 -67 33 -115.5t116 -48.5t129 49t63 115
q8 68 -33 117.5t-114 49.5q-74 0 -130 -49.5t-64 -117.5z" />
    <glyph glyph-name="uni00C6" unicode="&#xc6;" horiz-adv-x="2863" 
d="M-59 0l1255 2048h1702l-52 -311h-961l-92 -556h892l-52 -311h-892l-92 -559h969l-52 -311h-1340l84 505h-658l-303 -505h-408zM830 803h530l147 887h-145z" />
    <glyph glyph-name="uni00C7" unicode="&#xc7;" horiz-adv-x="2094" 
d="M2050 1357h-369q-1 181 -112.5 283.5t-293.5 102.5q-265 0 -460.5 -197t-252.5 -544q-56 -335 64.5 -516t367.5 -181q197 0 353 99.5t220 275.5h373q-90 -287 -329 -484.5t-559 -220.5l-22 -58q98 -15 150.5 -76t33.5 -165q-23 -144 -166 -229t-377 -85l26 178
q247 0 273 127q12 62 -31.5 92t-151.5 42l70 178q-180 21 -320 103t-229 218.5t-120 324.5t8 421q53 319 212.5 554.5t385.5 355.5t490 120q232 0 406 -84t269.5 -248t90.5 -387z" />
    <glyph glyph-name="uni00C8" unicode="&#xc8;" horiz-adv-x="1711" 
d="M74 0l340 2048h1332l-52 -311h-961l-92 -556h892l-52 -311h-892l-92 -559h969l-52 -311h-1340zM1074 2590l203 -421h-308l-310 421h415z" />
    <glyph glyph-name="uni00C9" unicode="&#xc9;" horiz-adv-x="1711" 
d="M74 0l340 2048h1332l-52 -311h-961l-92 -556h892l-52 -311h-892l-92 -559h969l-52 -311h-1340zM926 2179l336 449h392l-427 -449h-301z" />
    <glyph glyph-name="uni00CA" unicode="&#xca;" horiz-adv-x="1711" 
d="M74 0l340 2048h1332l-52 -311h-961l-92 -556h892l-52 -311h-892l-92 -559h969l-52 -311h-1340zM874 2205h-298l1 14l478 384h219l347 -384l-1 -14h-296l-191 208z" />
    <glyph glyph-name="uni00CB" unicode="&#xcb;" horiz-adv-x="1711" 
d="M74 0l340 2048h1332l-52 -311h-961l-92 -556h892l-52 -311h-892l-92 -559h969l-52 -311h-1340zM819 2219q-81 0 -136 55.5t-53 133.5t61.5 133.5t140.5 55.5q79 0 133.5 -55.5t52.5 -133.5t-60.5 -133.5t-138.5 -55.5zM1417 2219q-81 0 -136.5 55.5t-53.5 133.5
q3 78 62.5 133.5t140.5 55.5q79 0 133.5 -55.5t51.5 -133.5q-1 -78 -60 -133.5t-138 -55.5z" />
    <glyph glyph-name="uni00CC" unicode="&#xcc;" horiz-adv-x="774" 
d="M785 2048l-340 -2048h-371l340 2048h371zM603 2590l203 -421h-308l-310 421h415z" />
    <glyph glyph-name="uni00CD" unicode="&#xcd;" horiz-adv-x="774" 
d="M785 2048l-340 -2048h-371l340 2048h371zM455 2179l336 449h392l-427 -449h-301z" />
    <glyph glyph-name="uni00CE" unicode="&#xce;" horiz-adv-x="774" 
d="M785 2048l-340 -2048h-371l340 2048h371zM402 2205h-298l1 14l478 384h219l347 -384l-1 -14h-296l-191 208z" />
    <glyph glyph-name="uni00CF" unicode="&#xcf;" horiz-adv-x="774" 
d="M785 2048l-340 -2048h-371l340 2048h371zM348 2219q-81 0 -136 55.5t-53 133.5t61.5 133.5t140.5 55.5q79 0 133.5 -55.5t52.5 -133.5t-60.5 -133.5t-138.5 -55.5zM946 2219q-81 0 -136.5 55.5t-53.5 133.5q3 78 62.5 133.5t140.5 55.5q79 0 133.5 -55.5t51.5 -133.5
q-1 -78 -60 -133.5t-138 -55.5z" />
    <glyph glyph-name="uni00D0" unicode="&#xd0;" horiz-adv-x="2040" 
d="M778 0h-704l159 958h-268l40 229h266l143 861h698q458 0 677.5 -279t138.5 -763q-78 -474 -380.5 -740t-769.5 -266zM642 1187h322l-40 -229h-320l-106 -637h299q320 0 515.5 183t254.5 543q58 343 -69.5 511.5t-440.5 168.5h-325z" />
    <glyph glyph-name="uni00D1" unicode="&#xd1;" horiz-adv-x="2086" 
d="M2097 2048l-340 -2048h-330l-733 1395h-16l-233 -1395h-371l340 2048h332l732 -1396h19l231 1396h369zM983 2191l-224 6q25 151 134.5 260t244.5 109q50 0 100 -19t84.5 -41t82 -41t94.5 -19q52 0 94.5 37.5t51.5 98.5l224 -7q-24 -152 -135 -260t-246 -108
q-60 0 -111 19t-80.5 41.5t-74 41.5t-93.5 19q-53 0 -94 -37.5t-52 -99.5z" />
    <glyph glyph-name="uni00D2" unicode="&#xd2;" horiz-adv-x="2182" 
d="M2070 1000q-40 -239 -142 -434.5t-246 -324.5t-323.5 -199t-376.5 -70q-206 0 -370.5 73t-270.5 211.5t-146.5 337.5t1.5 451q40 239 142 435t246.5 325.5t325 200t379.5 70.5q204 0 367.5 -73.5t269.5 -212t146 -338t-2 -452.5zM1705 1045q55 334 -64 516t-367 182
q-266 0 -461 -196.5t-251 -546.5q-29 -171 -11 -301t77.5 -217.5t152 -132t213.5 -44.5q130 0 246 49t209.5 142t160 233.5t95.5 315.5zM1306 2590l203 -421h-308l-310 421h415z" />
    <glyph glyph-name="uni00D3" unicode="&#xd3;" horiz-adv-x="2182" 
d="M2070 1000q-40 -239 -142 -434.5t-246 -324.5t-323.5 -199t-376.5 -70q-206 0 -370.5 73t-270.5 211.5t-146.5 337.5t1.5 451q40 239 142 435t246.5 325.5t325 200t379.5 70.5q204 0 367.5 -73.5t269.5 -212t146 -338t-2 -452.5zM1705 1045q55 334 -64 516t-367 182
q-266 0 -461 -196.5t-251 -546.5q-29 -171 -11 -301t77.5 -217.5t152 -132t213.5 -44.5q130 0 246 49t209.5 142t160 233.5t95.5 315.5zM1158 2179l336 449h392l-427 -449h-301z" />
    <glyph glyph-name="uni00D4" unicode="&#xd4;" horiz-adv-x="2182" 
d="M2070 1000q-40 -239 -142 -434.5t-246 -324.5t-323.5 -199t-376.5 -70q-206 0 -370.5 73t-270.5 211.5t-146.5 337.5t1.5 451q40 239 142 435t246.5 325.5t325 200t379.5 70.5q204 0 367.5 -73.5t269.5 -212t146 -338t-2 -452.5zM1705 1045q55 334 -64 516t-367 182
q-266 0 -461 -196.5t-251 -546.5q-29 -171 -11 -301t77.5 -217.5t152 -132t213.5 -44.5q130 0 246 49t209.5 142t160 233.5t95.5 315.5zM1106 2205h-298l1 14l478 384h219l347 -384l-1 -14h-296l-191 208z" />
    <glyph glyph-name="uni00D5" unicode="&#xd5;" horiz-adv-x="2182" 
d="M2070 1000q-40 -239 -142 -434.5t-246 -324.5t-323.5 -199t-376.5 -70q-206 0 -370.5 73t-270.5 211.5t-146.5 337.5t1.5 451q40 239 142 435t246.5 325.5t325 200t379.5 70.5q204 0 367.5 -73.5t269.5 -212t146 -338t-2 -452.5zM1705 1045q55 334 -64 516t-367 182
q-266 0 -461 -196.5t-251 -546.5q-29 -171 -11 -301t77.5 -217.5t152 -132t213.5 -44.5q130 0 246 49t209.5 142t160 233.5t95.5 315.5zM1085 2200l-224 6q25 151 134.5 260t244.5 109q50 0 100 -18.5t84.5 -41.5t82 -41.5t94.5 -18.5q52 0 94.5 37.5t51.5 98.5l224 -7
q-24 -152 -135 -260t-246 -108q-60 0 -111 19t-80.5 41.5t-74 41.5t-93.5 19q-53 0 -94 -37.5t-52 -99.5z" />
    <glyph glyph-name="uni00D6" unicode="&#xd6;" horiz-adv-x="2182" 
d="M2070 1000q-40 -239 -142 -434.5t-246 -324.5t-323.5 -199t-376.5 -70q-206 0 -370.5 73t-270.5 211.5t-146.5 337.5t1.5 451q40 239 142 435t246.5 325.5t325 200t379.5 70.5q204 0 367.5 -73.5t269.5 -212t146 -338t-2 -452.5zM1705 1045q55 334 -64 516t-367 182
q-266 0 -461 -196.5t-251 -546.5q-29 -171 -11 -301t77.5 -217.5t152 -132t213.5 -44.5q130 0 246 49t209.5 142t160 233.5t95.5 315.5zM1051 2219q-81 0 -136 55.5t-53 133.5t61.5 133.5t140.5 55.5q79 0 133.5 -55.5t52.5 -133.5t-60.5 -133.5t-138.5 -55.5zM1649 2219
q-81 0 -136.5 55.5t-53.5 133.5q3 78 62.5 133.5t140.5 55.5q79 0 133.5 -55.5t51.5 -133.5q-1 -78 -60 -133.5t-138 -55.5z" />
    <glyph glyph-name="uni00D7" unicode="&#xd7;" horiz-adv-x="1720" 
d="M346 258l-176 210l500 428l-364 436l246 209l364 -435l508 435l178 -209l-510 -436l358 -428l-246 -210l-358 428z" />
    <glyph glyph-name="uni00D8" unicode="&#xd8;" horiz-adv-x="2185" 
d="M424 -94l-171 124l131 174q-132 141 -182.5 355t-5.5 484q40 239 142 435t246.5 325.5t325 200t379.5 70.5q244 0 429 -104l127 168l171 -124l-132 -175q131 -142 181 -356t5 -485q-40 -239 -142 -434.5t-246 -324.5t-323.5 -199t-376.5 -70q-246 0 -431 104zM612 506
l893 1181q-98 54 -231 54q-266 0 -461 -196.5t-251 -546.5q-54 -308 50 -492zM1705 1043q51 308 -50 493l-891 -1180q98 -53 230 -53q130 0 246 49t209.5 142t160 233.5t95.5 315.5z" />
    <glyph glyph-name="uni00D9" unicode="&#xd9;" horiz-adv-x="2066" 
d="M1706 2048h370l-224 -1354q-23 -137 -83.5 -253.5t-149.5 -202.5t-202 -147t-243.5 -91.5t-272.5 -30.5q-179 0 -323 48.5t-240.5 139.5t-136.5 229t-11 308l224 1354h371l-223 -1345q-20 -123 25.5 -215t141 -138.5t225.5 -46.5q199 0 349 108t181 292zM1250 2590
l203 -421h-308l-310 421h415z" />
    <glyph glyph-name="uni00DA" unicode="&#xda;" horiz-adv-x="2066" 
d="M1706 2048h370l-224 -1354q-23 -137 -83.5 -253.5t-149.5 -202.5t-202 -147t-243.5 -91.5t-272.5 -30.5q-179 0 -323 48.5t-240.5 139.5t-136.5 229t-11 308l224 1354h371l-223 -1345q-20 -123 25.5 -215t141 -138.5t225.5 -46.5q199 0 349 108t181 292zM1102 2179
l336 449h392l-427 -449h-301z" />
    <glyph glyph-name="uni00DB" unicode="&#xdb;" horiz-adv-x="2066" 
d="M1706 2048h370l-224 -1354q-23 -137 -83.5 -253.5t-149.5 -202.5t-202 -147t-243.5 -91.5t-272.5 -30.5q-179 0 -323 48.5t-240.5 139.5t-136.5 229t-11 308l224 1354h371l-223 -1345q-20 -123 25.5 -215t141 -138.5t225.5 -46.5q199 0 349 108t181 292zM1050 2205h-298
l1 14l478 384h219l347 -384l-1 -14h-296l-191 208z" />
    <glyph glyph-name="uni00DC" unicode="&#xdc;" horiz-adv-x="2066" 
d="M1706 2048h370l-224 -1354q-23 -137 -83.5 -253.5t-149.5 -202.5t-202 -147t-243.5 -91.5t-272.5 -30.5q-179 0 -323 48.5t-240.5 139.5t-136.5 229t-11 308l224 1354h371l-223 -1345q-20 -123 25.5 -215t141 -138.5t225.5 -46.5q199 0 349 108t181 292zM995 2219
q-81 0 -136 55.5t-53 133.5t61.5 133.5t140.5 55.5q79 0 133.5 -55.5t52.5 -133.5t-60.5 -133.5t-138.5 -55.5zM1593 2219q-81 0 -136.5 55.5t-53.5 133.5q3 78 62.5 133.5t140.5 55.5q79 0 133.5 -55.5t51.5 -133.5q-1 -78 -60 -133.5t-138 -55.5z" />
    <glyph glyph-name="uni00DD" unicode="&#xdd;" horiz-adv-x="1989" 
d="M277 2048h418l351 -906h23l649 906h418l-958 -1284l-127 -764h-369l127 764zM1064 2179l336 449h392l-427 -449h-301z" />
    <glyph glyph-name="uni00DE" unicode="&#xde;" horiz-adv-x="1851" 
d="M406 2048h371l-65 -392h331q174 0 307 -47t211 -129.5t108.5 -194.5t8.5 -243q-21 -131 -88.5 -242.5t-172.5 -194t-253 -129t-322 -46.5h-334l-71 -430h-371zM558 726h332q187 0 297.5 84.5t135.5 227.5q24 144 -59 232.5t-270 88.5h-331z" />
    <glyph glyph-name="uni00DF" unicode="&#xdf;" horiz-adv-x="1818" 
d="M74 0l250 1513q43 261 250.5 412t510.5 151q143 0 261 -36t199.5 -103.5t117.5 -172t16 -234.5q-25 -165 -125.5 -278.5t-250.5 -157.5l-4 -22q197 -16 294.5 -154t61.5 -354q-45 -261 -245 -412.5t-488 -151.5h-255l51 305h210q145 0 245 79t120 207q21 135 -61 217
t-242 82h-165l47 296h114q119 0 208 85.5t109 205.5q21 126 -48.5 207t-209.5 81q-142 0 -242.5 -81t-122.5 -213l-244 -1471h-362z" />
    <glyph glyph-name="uni00E0" unicode="&#xe0;" horiz-adv-x="1618" 
d="M496 -31q-227 0 -350.5 121.5t-87.5 340.5q14 84 47 152t83 116t107.5 83t130.5 58t141.5 36t150.5 22q229 24 290 40q86 24 107 77q5 11 7 25q18 116 -37.5 177.5t-182.5 61.5q-125 0 -215 -54.5t-134 -140.5l-328 48q91 206 283 315t444 109q91 0 172 -15.5t157 -54
t126.5 -97t72.5 -151.5t2 -210l-171 -1028h-348l36 211h-12q-71 -106 -196 -174t-295 -68zM633 235q159 0 273 92t136 224l30 181q-48 -35 -343 -75q-137 -19 -221 -70.5t-99 -149.5q-16 -97 46 -149.5t178 -52.5zM967 2118l203 -421h-308l-310 421h415z" />
    <glyph glyph-name="uni00E1" unicode="&#xe1;" horiz-adv-x="1618" 
d="M496 -31q-227 0 -350.5 121.5t-87.5 340.5q14 84 47 152t83 116t107.5 83t130.5 58t141.5 36t150.5 22q229 24 290 40q86 24 107 77q5 11 7 25q18 116 -37.5 177.5t-182.5 61.5q-125 0 -215 -54.5t-134 -140.5l-328 48q91 206 283 315t444 109q91 0 172 -15.5t157 -54
t126.5 -97t72.5 -151.5t2 -210l-171 -1028h-348l36 211h-12q-71 -106 -196 -174t-295 -68zM633 235q159 0 273 92t136 224l30 181q-48 -35 -343 -75q-137 -19 -221 -70.5t-99 -149.5q-16 -97 46 -149.5t178 -52.5zM819 1707l336 449h392l-427 -449h-301z" />
    <glyph glyph-name="uni00E2" unicode="&#xe2;" horiz-adv-x="1618" 
d="M496 -31q-227 0 -350.5 121.5t-87.5 340.5q14 84 47 152t83 116t107.5 83t130.5 58t141.5 36t150.5 22q229 24 290 40q86 24 107 77q5 11 7 25q18 116 -37.5 177.5t-182.5 61.5q-125 0 -215 -54.5t-134 -140.5l-328 48q91 206 283 315t444 109q91 0 172 -15.5t157 -54
t126.5 -97t72.5 -151.5t2 -210l-171 -1028h-348l36 211h-12q-71 -106 -196 -174t-295 -68zM633 235q159 0 273 92t136 224l30 181q-48 -35 -343 -75q-137 -19 -221 -70.5t-99 -149.5q-16 -97 46 -149.5t178 -52.5zM766 1733h-298l1 14l478 384h219l347 -384l-1 -14h-296
l-191 208z" />
    <glyph glyph-name="uni00E3" unicode="&#xe3;" horiz-adv-x="1618" 
d="M496 -31q-227 0 -350.5 121.5t-87.5 340.5q14 84 47 152t83 116t107.5 83t130.5 58t141.5 36t150.5 22q229 24 290 40q86 24 107 77q5 11 7 25q18 116 -37.5 177.5t-182.5 61.5q-125 0 -215 -54.5t-134 -140.5l-328 48q91 206 283 315t444 109q91 0 172 -15.5t157 -54
t126.5 -97t72.5 -151.5t2 -210l-171 -1028h-348l36 211h-12q-71 -106 -196 -174t-295 -68zM689 1719l-224 6q25 151 134.5 260t244.5 109q50 0 100 -19t84.5 -41t82 -41t94.5 -19q52 0 94.5 37.5t51.5 98.5l224 -7q-24 -152 -135 -260t-246 -108q-60 0 -111 19t-80.5 41.5
t-74 41.5t-93.5 19q-53 0 -94 -37.5t-52 -99.5zM633 235q159 0 273 92t136 224l30 181q-48 -35 -343 -75q-137 -19 -221 -70.5t-99 -149.5q-16 -97 46 -149.5t178 -52.5z" />
    <glyph glyph-name="uni00E4" unicode="&#xe4;" horiz-adv-x="1618" 
d="M496 -31q-227 0 -350.5 121.5t-87.5 340.5q14 84 47 152t83 116t107.5 83t130.5 58t141.5 36t150.5 22q229 24 290 40q86 24 107 77q5 11 7 25q18 116 -37.5 177.5t-182.5 61.5q-125 0 -215 -54.5t-134 -140.5l-328 48q91 206 283 315t444 109q91 0 172 -15.5t157 -54
t126.5 -97t72.5 -151.5t2 -210l-171 -1028h-348l36 211h-12q-71 -106 -196 -174t-295 -68zM633 235q159 0 273 92t136 224l30 181q-48 -35 -343 -75q-137 -19 -221 -70.5t-99 -149.5q-16 -97 46 -149.5t178 -52.5zM712 1747q-81 0 -136 55.5t-53 133.5t61.5 133.5
t140.5 55.5q79 0 133.5 -55.5t52.5 -133.5t-60.5 -133.5t-138.5 -55.5zM1310 1747q-81 0 -136.5 55.5t-53.5 133.5q3 78 62.5 133.5t140.5 55.5q79 0 133.5 -55.5t51.5 -133.5q-1 -78 -60 -133.5t-138 -55.5z" />
    <glyph glyph-name="uni00E5" unicode="&#xe5;" horiz-adv-x="1618" 
d="M496 -31q-227 0 -350.5 121.5t-87.5 340.5q14 84 47 152t83 116t107.5 83t130.5 58t141.5 36t150.5 22q229 24 290 40q86 24 107 77q5 11 7 25q18 116 -37.5 177.5t-182.5 61.5q-125 0 -215 -54.5t-134 -140.5l-328 48q91 206 283 315t444 109q91 0 172 -15.5t157 -54
t126.5 -97t72.5 -151.5t2 -210l-171 -1028h-348l36 211h-12q-71 -106 -196 -174t-295 -68zM686 2008q17 128 128 220t256 92q143 0 227.5 -92t67.5 -220q-17 -127 -125 -214t-253 -87q-146 0 -232 87t-69 214zM633 235q159 0 273 92t136 224l30 181q-48 -35 -343 -75
q-137 -19 -221 -70.5t-99 -149.5q-16 -97 46 -149.5t178 -52.5zM856 2008q-9 -67 33 -115.5t116 -48.5t129 49t63 115q8 68 -33 117.5t-114 49.5q-74 0 -130 -49.5t-64 -117.5z" />
    <glyph glyph-name="uni00E6" unicode="&#xe6;" horiz-adv-x="2586" 
d="M1656 -30q-414 0 -537 313h-14q-38 -72 -122 -142t-215.5 -121t-271.5 -51q-227 0 -350.5 121.5t-87.5 340.5q17 100 62.5 177t106 126.5t145 84t165.5 52t181 27.5q223 22 283 36q101 25 117 83q1 4 2 9q41 253 -216 253q-126 0 -216.5 -54.5t-134.5 -140.5l-328 48
q92 206 283.5 315t443.5 109q169 0 273.5 -60.5t140.5 -162.5q214 223 528 223q145 0 261 -45.5t199.5 -140.5t112.5 -241.5t-1 -348.5l-16 -96l-1075 -61q-10 -176 78 -273t255 -98q123 -1 215.5 50t138.5 139l338 -5q-65 -212 -266.5 -339t-477.5 -127zM633 235
q159 0 273 92t136 224l30 181q-48 -35 -343 -75q-137 -19 -221 -70.5t-99 -149.5q-16 -97 46 -149.5t178 -52.5zM1411 866l728 47q26 158 -53 259.5t-233 101.5q-158 0 -279.5 -109.5t-162.5 -298.5z" />
    <glyph glyph-name="uni00E7" unicode="&#xe7;" horiz-adv-x="1630" 
d="M825 -25l-20 -52q98 -15 150.5 -76t33.5 -165q-23 -144 -166 -229t-377 -85l26 178q247 0 273 127q12 62 -31.5 92t-151.5 42l66 168q-291 33 -425.5 247t-79.5 540q38 233 157 413t303 280.5t406 100.5q280 0 435.5 -151t132.5 -401h-347q-2 116 -70.5 188t-193.5 72
q-171 0 -295.5 -133t-160.5 -363q-39 -234 39.5 -368.5t249.5 -134.5q121 0 214.5 68.5t138.5 191.5h346q-58 -227 -231.5 -375.5t-421.5 -174.5z" />
    <glyph glyph-name="uni00E8" unicode="&#xe8;" horiz-adv-x="1678" 
d="M738 -30q-230 0 -383 96.5t-212.5 275t-19.5 417.5q39 235 158 416t301.5 281t399.5 100q145 0 261.5 -45.5t200 -140.5t112 -241.5t-1.5 -348.5l-17 -111h-1070l-1 -5q-67 -412 324 -412q119 0 212 50.5t146 147.5l331 -38q-84 -203 -280 -322.5t-461 -119.5zM509 913
h719q26 158 -53 259.5t-233 101.5q-152 0 -277 -109t-156 -252zM977 2118l203 -421h-308l-310 421h415z" />
    <glyph glyph-name="uni00E9" unicode="&#xe9;" horiz-adv-x="1678" 
d="M738 -30q-230 0 -383 96.5t-212.5 275t-19.5 417.5q39 235 158 416t301.5 281t399.5 100q145 0 261.5 -45.5t200 -140.5t112 -241.5t-1.5 -348.5l-17 -111h-1070l-1 -5q-67 -412 324 -412q119 0 212 50.5t146 147.5l331 -38q-84 -203 -280 -322.5t-461 -119.5zM509 913
h719q26 158 -53 259.5t-233 101.5q-152 0 -277 -109t-156 -252zM829 1707l336 449h392l-427 -449h-301z" />
    <glyph glyph-name="uni00EA" unicode="&#xea;" horiz-adv-x="1678" 
d="M738 -30q-230 0 -383 96.5t-212.5 275t-19.5 417.5q39 235 158 416t301.5 281t399.5 100q145 0 261.5 -45.5t200 -140.5t112 -241.5t-1.5 -348.5l-17 -111h-1070l-1 -5q-67 -412 324 -412q119 0 212 50.5t146 147.5l331 -38q-84 -203 -280 -322.5t-461 -119.5zM777 1733
h-298l1 14l478 384h219l347 -384l-1 -14h-296l-191 208zM509 913h719q26 158 -53 259.5t-233 101.5q-152 0 -277 -109t-156 -252z" />
    <glyph glyph-name="uni00EB" unicode="&#xeb;" horiz-adv-x="1678" 
d="M738 -30q-230 0 -383 96.5t-212.5 275t-19.5 417.5q39 235 158 416t301.5 281t399.5 100q145 0 261.5 -45.5t200 -140.5t112 -241.5t-1.5 -348.5l-17 -111h-1070l-1 -5q-67 -412 324 -412q119 0 212 50.5t146 147.5l331 -38q-84 -203 -280 -322.5t-461 -119.5zM509 913
h719q26 158 -53 259.5t-233 101.5q-152 0 -277 -109t-156 -252zM722 1747q-81 0 -136 55.5t-53 133.5t61.5 133.5t140.5 55.5q79 0 133.5 -55.5t52.5 -133.5t-60.5 -133.5t-138.5 -55.5zM1320 1747q-81 0 -136.5 55.5t-53.5 133.5q3 78 62.5 133.5t140.5 55.5
q79 0 133.5 -55.5t51.5 -133.5q-1 -78 -60 -133.5t-138 -55.5z" />
    <glyph glyph-name="uni00EC" unicode="&#xec;" horiz-adv-x="734" 
d="M58 0l256 1536h362l-256 -1536h-362zM508 2121l203 -421h-308l-310 421h415z" />
    <glyph glyph-name="uni00ED" unicode="&#xed;" horiz-adv-x="734" 
d="M58 0l256 1536h362l-256 -1536h-362zM360 1710l336 449h392l-427 -449h-301z" />
    <glyph glyph-name="uni00EE" unicode="&#xee;" horiz-adv-x="734" 
d="M58 0l256 1536h362l-256 -1536h-362zM307 1735h-298l1 14l478 384h219l347 -384l-1 -14h-296l-191 208z" />
    <glyph glyph-name="uni00EF" unicode="&#xef;" horiz-adv-x="734" 
d="M58 0l256 1536h362l-256 -1536h-362zM253 1749q-81 0 -136 55.5t-53 133.5t61.5 133.5t140.5 55.5q79 0 133.5 -55.5t52.5 -133.5t-60.5 -133.5t-138.5 -55.5zM851 1749q-81 0 -136.5 55.5t-53.5 133.5q3 78 62.5 133.5t140.5 55.5q79 0 133.5 -55.5t51.5 -133.5
q-1 -78 -60 -133.5t-138 -55.5z" />
    <glyph glyph-name="uni00F0" unicode="&#xf0;" horiz-adv-x="1618" 
d="M1482 1902l-246 -114q162 -210 233.5 -471.5t20.5 -564.5q-59 -367 -280 -575.5t-534 -208.5q-205 0 -346 94.5t-197 261.5t-22 380q26 154 93 286.5t158 223.5t198 147t217 68q128 9 225 -35.5t144 -125.5h20q-76 227 -219 387l-381 -177l-66 193l287 133
q-90 70 -205 138l197 234q171 -94 314 -230l321 148zM736 260q167 0 278 116.5t146 322.5q21 136 -1 237t-92 159.5t-184 58.5q-165 0 -276 -119t-145 -329q-34 -207 35.5 -326.5t238.5 -119.5z" />
    <glyph glyph-name="uni00F1" unicode="&#xf1;" horiz-adv-x="1647" 
d="M575 900l-148 -900h-363l256 1536h347l-44 -261h19q73 132 204.5 206.5t300.5 74.5q239 0 357 -152.5t73 -425.5l-164 -978h-362l153 922q26 154 -39 241t-206 87q-145 0 -250 -93t-134 -257zM673 1722l-224 6q25 151 134.5 260t244.5 109q50 0 100 -18.5t84.5 -41.5
t82 -41.5t94.5 -18.5q52 0 94.5 37.5t51.5 98.5l224 -7q-24 -152 -135 -260t-246 -108q-60 0 -111 19t-80.5 41.5t-74 41.5t-93.5 19q-53 0 -94 -37.5t-52 -99.5z" />
    <glyph glyph-name="uni00F2" unicode="&#xf2;" horiz-adv-x="1718" 
d="M737 -30q-224 0 -376.5 100t-213 281.5t-21.5 419.5q57 355 290 570t566 215q168 0 298 -58t207 -163.5t107 -253.5t-1 -329q-58 -354 -291 -568t-565 -214zM766 260q182 0 305 144t159 369q19 103 9.5 193.5t-40.5 158t-94.5 106t-152.5 38.5q-122 0 -221 -70
t-159 -184.5t-84 -260.5q-19 -104 -9 -194t41 -157t94.5 -105t151.5 -38zM999 2118l203 -421h-308l-310 421h415z" />
    <glyph glyph-name="uni00F3" unicode="&#xf3;" horiz-adv-x="1718" 
d="M737 -30q-224 0 -376.5 100t-213 281.5t-21.5 419.5q57 355 290 570t566 215q168 0 298 -58t207 -163.5t107 -253.5t-1 -329q-58 -354 -291 -568t-565 -214zM766 260q182 0 305 144t159 369q19 103 9.5 193.5t-40.5 158t-94.5 106t-152.5 38.5q-122 0 -221 -70
t-159 -184.5t-84 -260.5q-19 -104 -9 -194t41 -157t94.5 -105t151.5 -38zM851 1707l336 449h392l-427 -449h-301z" />
    <glyph glyph-name="uni00F4" unicode="&#xf4;" horiz-adv-x="1718" 
d="M737 -30q-224 0 -376.5 100t-213 281.5t-21.5 419.5q57 355 290 570t566 215q168 0 298 -58t207 -163.5t107 -253.5t-1 -329q-58 -354 -291 -568t-565 -214zM766 260q182 0 305 144t159 369q19 103 9.5 193.5t-40.5 158t-94.5 106t-152.5 38.5q-122 0 -221 -70
t-159 -184.5t-84 -260.5q-19 -104 -9 -194t41 -157t94.5 -105t151.5 -38zM798 1733h-298l1 14l478 384h219l347 -384l-1 -14h-296l-191 208z" />
    <glyph glyph-name="uni00F5" unicode="&#xf5;" horiz-adv-x="1666" 
d="M740 -30q-224 0 -376.5 100t-213 281.5t-21.5 419.5q57 355 290 570t566 215q168 0 298 -58t207 -163.5t107 -253.5t-1 -329q-58 -354 -291 -568t-565 -214zM769 260q182 0 305 144t159 369q19 103 9.5 193.5t-40.5 158t-94.5 106t-152.5 38.5q-122 0 -221 -70
t-159 -184.5t-84 -260.5q-19 -104 -9 -194t41 -157t94.5 -105t151.5 -38zM715 1722l-224 6q25 151 134.5 260t244.5 109q50 0 100 -18.5t84.5 -41.5t82 -41.5t94.5 -18.5q52 0 94.5 37.5t51.5 98.5l224 -7q-24 -152 -135 -260t-246 -108q-60 0 -111 19t-80.5 41.5t-74 41.5
t-93.5 19q-53 0 -94 -37.5t-52 -99.5z" />
    <glyph glyph-name="uni00F6" unicode="&#xf6;" horiz-adv-x="1718" 
d="M737 -30q-224 0 -376.5 100t-213 281.5t-21.5 419.5q57 355 290 570t566 215q168 0 298 -58t207 -163.5t107 -253.5t-1 -329q-58 -354 -291 -568t-565 -214zM766 260q182 0 305 144t159 369q19 103 9.5 193.5t-40.5 158t-94.5 106t-152.5 38.5q-122 0 -221 -70
t-159 -184.5t-84 -260.5q-19 -104 -9 -194t41 -157t94.5 -105t151.5 -38zM744 1747q-81 0 -136 55.5t-53 133.5t61.5 133.5t140.5 55.5q79 0 133.5 -55.5t52.5 -133.5t-60.5 -133.5t-138.5 -55.5zM1342 1747q-81 0 -136.5 55.5t-53.5 133.5q3 78 62.5 133.5t140.5 55.5
q79 0 133.5 -55.5t51.5 -133.5q-1 -78 -60 -133.5t-138 -55.5z" />
    <glyph glyph-name="uni00F7" unicode="&#xf7;" horiz-adv-x="1725" 
d="M1562 1043l-49 -293h-1306l49 293h1306zM757 1430q15 88 81.5 143.5t165.5 55.5q98 0 147 -55.5t35 -143.5q-13 -85 -81 -139.5t-166 -54.5t-146.5 54t-35.5 140zM579 356q15 87 83 143t166 56q97 0 146 -56t34 -143q-14 -85 -81.5 -139.5t-165.5 -54.5
q-99 0 -147.5 53.5t-34.5 140.5z" />
    <glyph glyph-name="uni00F8" unicode="&#xf8;" horiz-adv-x="1715" 
d="M258 -94l-162 124l137 160q-166 217 -107 581q57 355 290 570t566 215q203 0 347 -83l124 145l159 -124l-130 -153q171 -221 111 -589q-58 -354 -291 -568t-565 -214q-205 0 -352 85zM766 260q182 0 305 144t159 369q25 155 -2 270l-628 -736q67 -47 166 -47zM489 490
l626 733q-64 46 -163 46q-122 0 -221 -70t-159 -184.5t-84 -260.5q-24 -150 1 -264z" />
    <glyph glyph-name="uni00F9" unicode="&#xf9;" horiz-adv-x="1713" 
d="M1144 646l149 890h362l-256 -1536h-351l46 273h-16q-74 -133 -209 -213t-303 -80q-231 0 -346 153t-70 425l164 978h362l-154 -922q-22 -146 43 -232t195 -86q83 0 162 37.5t141.5 119t80.5 193.5zM994 2118l203 -421h-308l-310 421h415z" />
    <glyph glyph-name="uni00FA" unicode="&#xfa;" horiz-adv-x="1713" 
d="M1144 646l149 890h362l-256 -1536h-351l46 273h-16q-74 -133 -209 -213t-303 -80q-231 0 -346 153t-70 425l164 978h362l-154 -922q-22 -146 43 -232t195 -86q83 0 162 37.5t141.5 119t80.5 193.5zM846 1707l336 449h392l-427 -449h-301z" />
    <glyph glyph-name="uni00FB" unicode="&#xfb;" horiz-adv-x="1713" 
d="M1144 646l149 890h362l-256 -1536h-351l46 273h-16q-74 -133 -209 -213t-303 -80q-231 0 -346 153t-70 425l164 978h362l-154 -922q-22 -146 43 -232t195 -86q83 0 162 37.5t141.5 119t80.5 193.5zM794 1733h-298l1 14l478 384h219l347 -384l-1 -14h-296l-191 208z" />
    <glyph glyph-name="uni00FC" unicode="&#xfc;" horiz-adv-x="1713" 
d="M1144 646l149 890h362l-256 -1536h-351l46 273h-16q-74 -133 -209 -213t-303 -80q-231 0 -346 153t-70 425l164 978h362l-154 -922q-22 -146 43 -232t195 -86q83 0 162 37.5t141.5 119t80.5 193.5zM739 1747q-81 0 -136 55.5t-53 133.5t61.5 133.5t140.5 55.5
q79 0 133.5 -55.5t52.5 -133.5t-60.5 -133.5t-138.5 -55.5zM1337 1747q-81 0 -136.5 55.5t-53.5 133.5q3 78 62.5 133.5t140.5 55.5q79 0 133.5 -55.5t51.5 -133.5q-1 -78 -60 -133.5t-138 -55.5z" />
    <glyph glyph-name="uni00FD" unicode="&#xfd;" horiz-adv-x="1622" 
d="M173 -598q-139 0 -221 41l130 290q75 -23 136 -22.5t115.5 39t102.5 120.5l52 96l-296 1570h384l161 -1160h16l548 1160h385l-908 -1736q-211 -398 -605 -398zM792 1707l336 449h392l-427 -449h-301z" />
    <glyph glyph-name="uni00FE" unicode="&#xfe;" horiz-adv-x="1722" 
d="M398 2048h362l-116 -711h17q28 41 64.5 76t89.5 69t126 54t157 20q133 0 238.5 -51.5t175.5 -151.5t94 -247.5t-7 -339.5q-40 -247 -154.5 -429t-272 -273t-338.5 -91q-81 0 -146.5 19t-107.5 52.5t-68 69t-42 77.5h-18l-128 -767h-362zM1251 768q37 226 -36.5 358.5
t-256.5 132.5q-92 0 -167.5 -36.5t-129 -103t-89.5 -155t-54 -196.5q-20 -106 -11.5 -197t38.5 -158t94 -105t156 -38q182 0 300 135t156 363z" />
    <glyph glyph-name="uni00FF" unicode="&#xff;" horiz-adv-x="1622" 
d="M173 -598q-139 0 -221 41l130 290q75 -23 136 -22.5t115.5 39t102.5 120.5l52 96l-296 1570h384l161 -1160h16l548 1160h385l-908 -1736q-211 -398 -605 -398zM685 1747q-81 0 -136 55.5t-53 133.5t61.5 133.5t140.5 55.5q79 0 133.5 -55.5t52.5 -133.5t-60.5 -133.5
t-138.5 -55.5zM1283 1747q-81 0 -136.5 55.5t-53.5 133.5q3 78 62.5 133.5t140.5 55.5q79 0 133.5 -55.5t51.5 -133.5q-1 -78 -60 -133.5t-138 -55.5z" />
    <glyph glyph-name="uni0100" unicode="&#x100;" horiz-adv-x="2038" 
d="M337 0h-396l1061 2048h458l382 -2048h-396l-85 505h-770zM740 803h570l-139 825h-16zM1789 2477l-35 -224h-966l36 224h965z" />
    <glyph glyph-name="uni0101" unicode="&#x101;" horiz-adv-x="1618" 
d="M496 -31q-227 0 -350.5 121.5t-87.5 340.5q14 84 47 152t83 116t107.5 83t130.5 58t141.5 36t150.5 22q229 24 290 40q86 24 107 77q5 11 7 25q18 116 -37.5 177.5t-182.5 61.5q-125 0 -215 -54.5t-134 -140.5l-328 48q91 206 283 315t444 109q91 0 172 -15.5t157 -54
t126.5 -97t72.5 -151.5t2 -210l-171 -1028h-348l36 211h-12q-71 -106 -196 -174t-295 -68zM633 235q159 0 273 92t136 224l30 181q-48 -35 -343 -75q-137 -19 -221 -70.5t-99 -149.5q-16 -97 46 -149.5t178 -52.5zM1520 2005l-35 -224h-966l36 224h965z" />
    <glyph glyph-name="uni0102" unicode="&#x102;" horiz-adv-x="2038" 
d="M337 0h-396l1061 2048h458l382 -2048h-396l-85 505h-770zM1514 2568h271q-30 -178 -175.5 -289t-359.5 -111q-212 0 -321 111.5t-79 288.5h270q-14 -79 25.5 -132t140.5 -53q100 0 157.5 52.5t70.5 132.5zM740 803h570l-139 825h-16z" />
    <glyph glyph-name="uni0103" unicode="&#x103;" horiz-adv-x="1618" 
d="M496 -31q-227 0 -350.5 121.5t-87.5 340.5q14 84 47 152t83 116t107.5 83t130.5 58t141.5 36t150.5 22q229 24 290 40q86 24 107 77q5 11 7 25q18 116 -37.5 177.5t-182.5 61.5q-125 0 -215 -54.5t-134 -140.5l-328 48q91 206 283 315t444 109q91 0 172 -15.5t157 -54
t126.5 -97t72.5 -151.5t2 -210l-171 -1028h-348l36 211h-12q-71 -106 -196 -174t-295 -68zM1244 2096h271q-30 -178 -175.5 -289t-359.5 -111q-212 0 -321 111.5t-79 288.5h270q-14 -79 25.5 -132t140.5 -53q100 0 157.5 52.5t70.5 132.5zM633 235q159 0 273 92t136 224
l30 181q-48 -35 -343 -75q-137 -19 -221 -70.5t-99 -149.5q-16 -97 46 -149.5t178 -52.5z" />
    <glyph glyph-name="uni0104" unicode="&#x104;" horiz-adv-x="2038" 
d="M337 0h-396l1061 2048h458l382 -2048h-1q-115 -60 -180.5 -117t-76.5 -129q-20 -100 81 -100q45 0 119 28l3 -204q-111 -60 -235 -60q-132 0 -206 69t-68 195q2 85 44.5 169t122.5 152l-84 502h-770zM740 803h570l-139 825h-16z" />
    <glyph glyph-name="uni0105" unicode="&#x105;" horiz-adv-x="1618" 
d="M496 -31q-227 0 -350.5 121.5t-87.5 340.5q14 84 47 152t83 116t107.5 83t130.5 58t141.5 36t150.5 22q229 24 290 40q86 24 107 77q5 11 7 25q18 116 -37.5 177.5t-182.5 61.5q-125 0 -215 -54.5t-134 -140.5l-328 48q91 206 283 315t444 109q91 0 172 -15.5t157 -54
t126.5 -97t72.5 -151.5t2 -210l-171 -1028q-115 -60 -180.5 -117t-76.5 -129q-20 -100 81 -100q45 0 119 28l3 -204q-111 -60 -235 -60q-132 0 -206 69t-68 195q2 99 59.5 195.5t163.5 167.5l28 166h-12q-71 -106 -196 -174t-295 -68zM633 235q159 0 273 92t136 224l30 181
q-48 -35 -343 -75q-137 -19 -221 -70.5t-99 -149.5q-16 -97 46 -149.5t178 -52.5z" />
    <glyph glyph-name="uni0106" unicode="&#x106;" horiz-adv-x="2094" 
d="M2050 1357h-369q-1 181 -112.5 283.5t-293.5 102.5q-265 0 -460.5 -197t-252.5 -544q-56 -335 64.5 -516t367.5 -181q197 0 353 99.5t220 275.5h373q-46 -147 -135.5 -275.5t-212 -225t-282 -152t-333.5 -55.5q-206 0 -370 73.5t-268.5 212t-144.5 337.5t2 451
q53 319 212.5 554.5t385.5 355.5t490 120q232 0 406 -84t269.5 -248t90.5 -387zM1160 2179l336 449h392l-427 -449h-301z" />
    <glyph glyph-name="uni0107" unicode="&#x107;" horiz-adv-x="1630" 
d="M727 -30q-226 0 -377 101t-208.5 280t-18.5 411q38 233 157 413t303 280.5t406 100.5q280 0 435.5 -151t132.5 -401h-347q-2 116 -70.5 188t-193.5 72q-171 0 -295.5 -133t-160.5 -363q-39 -234 39.5 -368.5t249.5 -134.5q121 0 214.5 68.5t138.5 191.5h346
q-63 -250 -264.5 -402.5t-486.5 -152.5zM845 1706l336 449h392l-427 -449h-301z" />
    <glyph glyph-name="uni0108" unicode="&#x108;" horiz-adv-x="2094" 
d="M2050 1357h-369q-1 181 -112.5 283.5t-293.5 102.5q-265 0 -460.5 -197t-252.5 -544q-56 -335 64.5 -516t367.5 -181q197 0 353 99.5t220 275.5h373q-46 -147 -135.5 -275.5t-212 -225t-282 -152t-333.5 -55.5q-206 0 -370 73.5t-268.5 212t-144.5 337.5t2 451
q53 319 212.5 554.5t385.5 355.5t490 120q232 0 406 -84t269.5 -248t90.5 -387zM1107 2205h-298l1 14l478 384h219l347 -384l-1 -14h-296l-191 208z" />
    <glyph glyph-name="uni0109" unicode="&#x109;" horiz-adv-x="1630" 
d="M727 -30q-226 0 -377 101t-208.5 280t-18.5 411q38 233 157 413t303 280.5t406 100.5q280 0 435.5 -151t132.5 -401h-347q-2 116 -70.5 188t-193.5 72q-171 0 -295.5 -133t-160.5 -363q-39 -234 39.5 -368.5t249.5 -134.5q121 0 214.5 68.5t138.5 191.5h346
q-63 -250 -264.5 -402.5t-486.5 -152.5zM793 1731h-298l1 14l478 384h219l347 -384l-1 -14h-296l-191 208z" />
    <glyph glyph-name="uni010A" unicode="&#x10a;" horiz-adv-x="2094" 
d="M2050 1357h-369q-1 181 -112.5 283.5t-293.5 102.5q-265 0 -460.5 -197t-252.5 -544q-56 -335 64.5 -516t367.5 -181q197 0 353 99.5t220 275.5h373q-46 -147 -135.5 -275.5t-212 -225t-282 -152t-333.5 -55.5q-206 0 -370 73.5t-268.5 212t-144.5 337.5t2 451
q53 319 212.5 554.5t385.5 355.5t490 120q232 0 406 -84t269.5 -248t90.5 -387zM1349 2211q-86 0 -146.5 57.5t-56.5 139.5t68.5 139.5t149.5 57.5t144 -57.5t57 -139.5t-66 -139.5t-150 -57.5z" />
    <glyph glyph-name="uni010B" unicode="&#x10b;" horiz-adv-x="1630" 
d="M727 -30q-226 0 -377 101t-208.5 280t-18.5 411q38 233 157 413t303 280.5t406 100.5q280 0 435.5 -151t132.5 -401h-347q-2 116 -70.5 188t-193.5 72q-171 0 -295.5 -133t-160.5 -363q-39 -234 39.5 -368.5t249.5 -134.5q121 0 214.5 68.5t138.5 191.5h346
q-63 -250 -264.5 -402.5t-486.5 -152.5zM1035 1737q-86 0 -146.5 57.5t-56.5 139.5t68.5 139.5t149.5 57.5t144 -57.5t57 -139.5t-66 -139.5t-150 -57.5z" />
    <glyph glyph-name="uni010C" unicode="&#x10c;" horiz-adv-x="2094" 
d="M2050 1357h-369q-1 181 -112.5 283.5t-293.5 102.5q-265 0 -460.5 -197t-252.5 -544q-56 -335 64.5 -516t367.5 -181q197 0 353 99.5t220 275.5h373q-46 -147 -135.5 -275.5t-212 -225t-282 -152t-333.5 -55.5q-206 0 -370 73.5t-268.5 212t-144.5 337.5t2 451
q53 319 212.5 554.5t385.5 355.5t490 120q232 0 406 -84t269.5 -248t90.5 -387zM1165 2585l190 -208l260 208h296l-4 -14l-474 -384h-219l-351 384l4 14h298z" />
    <glyph glyph-name="uni010D" unicode="&#x10d;" horiz-adv-x="1630" 
d="M727 -30q-226 0 -377 101t-208.5 280t-18.5 411q38 233 157 413t303 280.5t406 100.5q280 0 435.5 -151t132.5 -401h-347q-2 116 -70.5 188t-193.5 72q-171 0 -295.5 -133t-160.5 -363q-39 -234 39.5 -368.5t249.5 -134.5q121 0 214.5 68.5t138.5 191.5h346
q-63 -250 -264.5 -402.5t-486.5 -152.5zM850 2111l190 -208l260 208h296l-4 -14l-474 -384h-219l-351 384l4 14h298z" />
    <glyph glyph-name="uni010E" unicode="&#x10e;" horiz-adv-x="2040" 
d="M778 0h-704l340 2048h698q458 0 677.5 -279t138.5 -763q-78 -474 -380.5 -740t-769.5 -266zM498 321h299q320 0 515.5 183t254.5 543q58 343 -69.5 511.5t-440.5 168.5h-325zM1063 2585l190 -208l260 208h296l-4 -14l-474 -384h-219l-351 384l4 14h298z" />
    <glyph glyph-name="uni010F" unicode="&#x10f;" horiz-adv-x="2009" 
d="M1445 0h-356l40 242h-23q-180 -269 -483 -269q-136 0 -243 52.5t-175.5 154t-92 249t8.5 337.5q31 187 104.5 338.5t175.5 249.5t225.5 150t257.5 52q307 0 393 -274h16l128 766h362zM1216 768q39 227 -34 359t-246 132q-175 0 -291.5 -134.5t-154.5 -356.5
q-36 -223 36 -360.5t245 -137.5q171 0 289 135.5t156 362.5zM2260 2048l-31 -183q-27 -160 -96 -306.5t-178 -253.5l-206 81q76 119 123 226t68 236l32 200h288z" />
    <glyph glyph-name="uni0110" unicode="&#x110;" horiz-adv-x="2040" 
d="M778 0h-704l159 958h-268l40 229h266l143 861h698q458 0 677.5 -279t138.5 -763q-78 -474 -380.5 -740t-769.5 -266zM642 1187h322l-40 -229h-320l-106 -637h299q320 0 515.5 183t254.5 543q58 343 -69.5 511.5t-440.5 168.5h-325z" />
    <glyph glyph-name="uni0111" unicode="&#x111;" horiz-adv-x="1759" 
d="M1442 0h-356l40 242h-23q-180 -269 -483 -269q-136 0 -243 52.5t-175.5 154t-92 249t8.5 337.5q31 187 104.5 338.5t175.5 249.5t225.5 150t257.5 52q307 0 393 -274h16l62 369h-298l40 229h296l28 168h362l-28 -168h301l-40 -229h-298zM1213 768q39 227 -34 359
t-246 132q-175 0 -291.5 -134.5t-154.5 -356.5q-36 -223 36 -360.5t245 -137.5q171 0 289 135.5t156 362.5z" />
    <glyph glyph-name="uni0112" unicode="&#x112;" horiz-adv-x="1711" 
d="M74 0l340 2048h1332l-52 -311h-961l-92 -556h892l-52 -311h-892l-92 -559h969l-52 -311h-1340zM1627 2477l-35 -224h-966l36 224h965z" />
    <glyph glyph-name="uni0113" unicode="&#x113;" horiz-adv-x="1678" 
d="M738 -30q-230 0 -383 96.5t-212.5 275t-19.5 417.5q39 235 158 416t301.5 281t399.5 100q145 0 261.5 -45.5t200 -140.5t112 -241.5t-1.5 -348.5l-17 -111h-1070l-1 -5q-67 -412 324 -412q119 0 212 50.5t146 147.5l331 -38q-84 -203 -280 -322.5t-461 -119.5zM1530 2005
l-35 -224h-966l36 224h965zM509 913h719q26 158 -53 259.5t-233 101.5q-152 0 -277 -109t-156 -252z" />
    <glyph glyph-name="uni0114" unicode="&#x114;" horiz-adv-x="1711" 
d="M74 0l340 2048h1332l-52 -311h-961l-92 -556h892l-52 -311h-892l-92 -559h969l-52 -311h-1340zM1351 2568h271q-30 -178 -175.5 -289t-359.5 -111q-212 0 -321 111.5t-79 288.5h270q-14 -79 25.5 -132t140.5 -53q100 0 157.5 52.5t70.5 132.5z" />
    <glyph glyph-name="uni0115" unicode="&#x115;" horiz-adv-x="1678" 
d="M738 -30q-230 0 -383 96.5t-212.5 275t-19.5 417.5q39 235 158 416t301.5 281t399.5 100q145 0 261.5 -45.5t200 -140.5t112 -241.5t-1.5 -348.5l-17 -111h-1070l-1 -5q-67 -412 324 -412q119 0 212 50.5t146 147.5l331 -38q-84 -203 -280 -322.5t-461 -119.5zM1254 2096
h271q-30 -178 -175.5 -289t-359.5 -111q-212 0 -321 111.5t-79 288.5h270q-14 -79 25.5 -132t140.5 -53q100 0 157.5 52.5t70.5 132.5zM509 913h719q26 158 -53 259.5t-233 101.5q-152 0 -277 -109t-156 -252z" />
    <glyph glyph-name="uni0116" unicode="&#x116;" horiz-adv-x="1711" 
d="M74 0l340 2048h1332l-52 -311h-961l-92 -556h892l-52 -311h-892l-92 -559h969l-52 -311h-1340zM1116 2211q-86 0 -146.5 57.5t-56.5 139.5t68.5 139.5t149.5 57.5t144 -57.5t57 -139.5t-66 -139.5t-150 -57.5z" />
    <glyph glyph-name="uni0117" unicode="&#x117;" horiz-adv-x="1678" 
d="M738 -30q-230 0 -383 96.5t-212.5 275t-19.5 417.5q39 235 158 416t301.5 281t399.5 100q145 0 261.5 -45.5t200 -140.5t112 -241.5t-1.5 -348.5l-17 -111h-1070l-1 -5q-67 -412 324 -412q119 0 212 50.5t146 147.5l331 -38q-84 -203 -280 -322.5t-461 -119.5zM509 913
h719q26 158 -53 259.5t-233 101.5q-152 0 -277 -109t-156 -252zM1019 1739q-86 0 -146.5 57.5t-56.5 139.5t68.5 139.5t149.5 57.5t144 -57.5t57 -139.5t-66 -139.5t-150 -57.5z" />
    <glyph glyph-name="uni0118" unicode="&#x118;" horiz-adv-x="1711" 
d="M74 0l340 2048h1332l-52 -311h-961l-92 -556h892l-52 -311h-892l-92 -559h969l-52 -311h-1q-115 -60 -180.5 -117t-76.5 -129q-20 -100 81 -100q45 0 119 28l3 -204q-111 -60 -235 -60q-132 0 -206 69t-68 195q2 84 44 167.5t120 150.5h-940z" />
    <glyph glyph-name="uni0119" unicode="&#x119;" horiz-adv-x="1678" 
d="M751 -555q-132 0 -206 69t-68 195q3 148 117 272q-275 44 -400 250.5t-71 527.5q39 235 158 416t301.5 281t399.5 100q145 0 261.5 -45.5t200 -140.5t112 -241.5t-1.5 -348.5l-17 -111h-1070l-1 -5q-67 -412 324 -412q119 0 212 50.5t146 147.5l331 -38
q-62 -149 -187 -255.5t-296 -153.5q-94 -52 -148.5 -105t-64.5 -117q-20 -100 81 -100q45 0 119 28l3 -204q-111 -60 -235 -60zM509 913h719q26 158 -53 259.5t-233 101.5q-152 0 -277 -109t-156 -252z" />
    <glyph glyph-name="uni011A" unicode="&#x11a;" horiz-adv-x="1711" 
d="M74 0l340 2048h1332l-52 -311h-961l-92 -556h892l-52 -311h-892l-92 -559h969l-52 -311h-1340zM931 2585l190 -208l260 208h296l-4 -14l-474 -384h-219l-351 384l4 14h298z" />
    <glyph glyph-name="uni011B" unicode="&#x11b;" horiz-adv-x="1678" 
d="M738 -30q-230 0 -383 96.5t-212.5 275t-19.5 417.5q39 235 158 416t301.5 281t399.5 100q145 0 261.5 -45.5t200 -140.5t112 -241.5t-1.5 -348.5l-17 -111h-1070l-1 -5q-67 -412 324 -412q119 0 212 50.5t146 147.5l331 -38q-84 -203 -280 -322.5t-461 -119.5zM834 2113
l190 -208l260 208h296l-4 -14l-474 -384h-219l-351 384l4 14h298zM509 913h719q26 158 -53 259.5t-233 101.5q-152 0 -277 -109t-156 -252z" />
    <glyph glyph-name="uni011C" unicode="&#x11c;" horiz-adv-x="2126" 
d="M192 1022q32 195 105 362.5t177 294t234 216t280 135.5t310 46q168 0 309.5 -50.5t240 -139.5t153 -216t53.5 -276h-381q-25 165 -135 257t-293 92q-252 0 -437.5 -190t-241.5 -527q-57 -343 68 -532t387 -189q218 0 382.5 132t198.5 345h-464l49 290h831l-41 -246
q-32 -195 -123.5 -356t-225.5 -269.5t-305 -168.5t-360 -60q-210 0 -374 73t-264 209t-137.5 330.5t4.5 437.5zM1098 2205h-298l1 14l478 384h219l347 -384l-1 -14h-296l-191 208z" />
    <glyph glyph-name="uni011D" unicode="&#x11d;" horiz-adv-x="1759" 
d="M590 -590q-124 0 -224.5 23t-170.5 64.5t-117.5 92t-78.5 112.5l283 188q119 -190 358 -190q113 0 210 40t165 119.5t85 186.5l38 230h-22q-171 -254 -484 -254q-134 0 -240.5 47t-178 140.5t-96 234.5t5.5 329q31 185 105.5 334.5t176.5 247t226 149.5t258 52
q78 0 141.5 -18.5t104 -45.5t72.5 -66.5t48 -72t30 -71.5h19l42 254h356l-250 -1503q-49 -292 -284.5 -457.5t-577.5 -165.5zM780 306q173 0 287.5 123.5t150.5 345.5q37 223 -35.5 353.5t-244.5 130.5q-175 0 -292.5 -134t-153.5 -350q-35 -216 39 -342.5t249 -126.5z
M822 1733h-298l1 14l478 384h219l347 -384l-1 -14h-296l-191 208z" />
    <glyph glyph-name="uni011E" unicode="&#x11e;" horiz-adv-x="2126" 
d="M192 1022q32 195 105 362.5t177 294t234 216t280 135.5t310 46q168 0 309.5 -50.5t240 -139.5t153 -216t53.5 -276h-381q-25 165 -135 257t-293 92q-252 0 -437.5 -190t-241.5 -527q-57 -343 68 -532t387 -189q218 0 382.5 132t198.5 345h-464l49 290h831l-41 -246
q-32 -195 -123.5 -356t-225.5 -269.5t-305 -168.5t-360 -60q-210 0 -374 73t-264 209t-137.5 330.5t4.5 437.5zM1575 2568h271q-30 -178 -175.5 -289t-359.5 -111q-212 0 -321 111.5t-79 288.5h270q-14 -79 25.5 -132t140.5 -53q100 0 157.5 52.5t70.5 132.5z" />
    <glyph glyph-name="uni011F" unicode="&#x11f;" horiz-adv-x="1759" 
d="M590 -590q-124 0 -224.5 23t-170.5 64.5t-117.5 92t-78.5 112.5l283 188q119 -190 358 -190q113 0 210 40t165 119.5t85 186.5l38 230h-22q-171 -254 -484 -254q-134 0 -240.5 47t-178 140.5t-96 234.5t5.5 329q31 185 105.5 334.5t176.5 247t226 149.5t258 52
q78 0 141.5 -18.5t104 -45.5t72.5 -66.5t48 -72t30 -71.5h19l42 254h356l-250 -1503q-49 -292 -284.5 -457.5t-577.5 -165.5zM780 306q173 0 287.5 123.5t150.5 345.5q37 223 -35.5 353.5t-244.5 130.5q-175 0 -292.5 -134t-153.5 -350q-35 -216 39 -342.5t249 -126.5z
M1299 2096h271q-30 -178 -175.5 -289t-359.5 -111q-212 0 -321 111.5t-79 288.5h270q-14 -79 25.5 -132t140.5 -53q100 0 157.5 52.5t70.5 132.5z" />
    <glyph glyph-name="uni0120" unicode="&#x120;" horiz-adv-x="2126" 
d="M192 1022q32 195 105 362.5t177 294t234 216t280 135.5t310 46q168 0 309.5 -50.5t240 -139.5t153 -216t53.5 -276h-381q-25 165 -135 257t-293 92q-252 0 -437.5 -190t-241.5 -527q-57 -343 68 -532t387 -189q218 0 382.5 132t198.5 345h-464l49 290h831l-41 -246
q-32 -195 -123.5 -356t-225.5 -269.5t-305 -168.5t-360 -60q-210 0 -374 73t-264 209t-137.5 330.5t4.5 437.5zM1340 2211q-86 0 -146.5 57.5t-56.5 139.5t68.5 139.5t149.5 57.5t144 -57.5t57 -139.5t-66 -139.5t-150 -57.5z" />
    <glyph glyph-name="uni0121" unicode="&#x121;" horiz-adv-x="1759" 
d="M590 -590q-124 0 -224.5 23t-170.5 64.5t-117.5 92t-78.5 112.5l283 188q119 -190 358 -190q113 0 210 40t165 119.5t85 186.5l38 230h-22q-171 -254 -484 -254q-134 0 -240.5 47t-178 140.5t-96 234.5t5.5 329q31 185 105.5 334.5t176.5 247t226 149.5t258 52
q78 0 141.5 -18.5t104 -45.5t72.5 -66.5t48 -72t30 -71.5h19l42 254h356l-250 -1503q-49 -292 -284.5 -457.5t-577.5 -165.5zM780 306q173 0 287.5 123.5t150.5 345.5q37 223 -35.5 353.5t-244.5 130.5q-175 0 -292.5 -134t-153.5 -350q-35 -216 39 -342.5t249 -126.5z
M1064 1739q-86 0 -146.5 57.5t-56.5 139.5t68.5 139.5t149.5 57.5t144 -57.5t57 -139.5t-66 -139.5t-150 -57.5z" />
    <glyph glyph-name="uni0122" unicode="&#x122;" horiz-adv-x="2126" 
d="M192 1022q32 195 105 362.5t177 294t234 216t280 135.5t310 46q168 0 309.5 -50.5t240 -139.5t153 -216t53.5 -276h-381q-25 165 -135 257t-293 92q-252 0 -437.5 -190t-241.5 -527q-57 -343 68 -532t387 -189q218 0 382.5 132t198.5 345h-464l49 290h831l-41 -246
q-32 -195 -123.5 -356t-225.5 -269.5t-305 -168.5t-360 -60q-210 0 -374 73t-264 209t-137.5 330.5t4.5 437.5zM1084 -118l-31 -183q-27 -160 -96 -306.5t-178 -253.5l-206 81q76 119 123 226t68 236l32 200h288z" />
    <glyph glyph-name="uni0123" unicode="&#x123;" horiz-adv-x="1759" 
d="M590 -590q-124 0 -224.5 23t-170.5 64.5t-117.5 92t-78.5 112.5l283 188q119 -190 358 -190q113 0 210 40t165 119.5t85 186.5l38 230h-22q-171 -254 -484 -254q-134 0 -240.5 47t-178 140.5t-96 234.5t5.5 329q31 185 105.5 334.5t176.5 247t226 149.5t258 52
q78 0 141.5 -18.5t104 -45.5t72.5 -66.5t48 -72t30 -71.5h19l42 254h356l-250 -1503q-49 -292 -284.5 -457.5t-577.5 -165.5zM780 306q173 0 287.5 123.5t150.5 345.5q37 223 -35.5 353.5t-244.5 130.5q-175 0 -292.5 -134t-153.5 -350q-35 -216 39 -342.5t249 -126.5z
M884 1737l34 185q22 139 101.5 260.5t173.5 182.5l176 -113q-116 -154 -147 -345l-33 -170h-305z" />
    <glyph glyph-name="uni0124" unicode="&#x124;" horiz-adv-x="2095" 
d="M74 0l340 2048h371l-144 -867h949l144 867h372l-340 -2048h-372l144 870h-949l-144 -870h-371zM1070 2207h-298l1 14l478 384h219l347 -384l-1 -14h-296l-191 208z" />
    <glyph glyph-name="uni0125" unicode="&#x125;" horiz-adv-x="1726" 
d="M570 900l-148 -900h-363l340 2048h355l-128 -773h19q75 135 202.5 208t301.5 73q242 0 360 -151.5t73 -426.5l-164 -978h-363l154 922q25 155 -40.5 241.5t-206.5 86.5q-148 0 -255.5 -93t-136.5 -257zM383 2205h-298l1 14l478 384h219l347 -384l-1 -14h-296l-191 208z
" />
    <glyph glyph-name="uni0126" unicode="&#x126;" horiz-adv-x="2250" 
d="M2286 1667l-36 -230h-169l-239 -1437h-372l144 870h-949l-144 -870h-371l239 1437h-166l37 230h167l63 381h371l-63 -381h949l63 381h372l-63 -381h167zM1709 1437h-949l-43 -256h949z" />
    <glyph glyph-name="uni0127" unicode="&#x127;" horiz-adv-x="1726" 
d="M570 900l-148 -900h-363l276 1665h-303l40 229h301l26 154h355l-26 -154h303l-40 -229h-300l-65 -390h19q75 135 202.5 208t301.5 73q242 0 360 -151.5t73 -426.5l-164 -978h-363l154 922q25 155 -40.5 241.5t-206.5 86.5q-148 0 -255.5 -93t-136.5 -257z" />
    <glyph glyph-name="uni0128" unicode="&#x128;" horiz-adv-x="774" 
d="M785 2048l-340 -2048h-371l340 2048h371zM325 2191l-224 6q25 151 134.5 260t244.5 109q50 0 100 -19t84.5 -41t82 -41t94.5 -19q52 0 94.5 37.5t51.5 98.5l224 -7q-24 -152 -135 -260t-246 -108q-60 0 -111 19t-80.5 41.5t-74 41.5t-93.5 19q-53 0 -94 -37.5t-52 -99.5z
" />
    <glyph glyph-name="uni0129" unicode="&#x129;" horiz-adv-x="862" 
d="M137 0l256 1536h362l-256 -1536h-362zM321 1722l-224 6q25 151 134.5 260t244.5 109q50 0 100 -18.5t84.5 -41.5t82 -41.5t94.5 -18.5q52 0 94.5 37.5t51.5 98.5l224 -7q-24 -152 -135 -260t-246 -108q-60 0 -111 19t-80.5 41.5t-74 41.5t-93.5 19q-53 0 -94 -37.5
t-52 -99.5z" />
    <glyph glyph-name="uni012A" unicode="&#x12a;" horiz-adv-x="774" 
d="M785 2048l-340 -2048h-371l340 2048h371zM1156 2477l-35 -224h-966l36 224h965z" />
    <glyph glyph-name="uni012B" unicode="&#x12b;" horiz-adv-x="734" 
d="M58 0l256 1536h362l-256 -1536h-362zM1061 2008l-35 -224h-966l36 224h965z" />
    <glyph glyph-name="uni012C" unicode="&#x12c;" horiz-adv-x="774" 
d="M785 2048l-340 -2048h-371l340 2048h371zM880 2568h271q-30 -178 -175.5 -289t-359.5 -111q-212 0 -321 111.5t-79 288.5h270q-14 -79 25.5 -132t140.5 -53q100 0 157.5 52.5t70.5 132.5z" />
    <glyph glyph-name="uni012D" unicode="&#x12d;" horiz-adv-x="734" 
d="M58 0l256 1536h362l-256 -1536h-362zM785 2099h271q-30 -178 -175.5 -289t-359.5 -111q-212 0 -321 111.5t-79 288.5h270q-14 -79 25.5 -132t140.5 -53q100 0 157.5 52.5t70.5 132.5z" />
    <glyph glyph-name="uni012E" unicode="&#x12e;" horiz-adv-x="770" 
d="M788 2048l-340 -2048q-115 -60 -180.5 -117t-76.5 -129q-20 -100 81 -100q45 0 119 28l3 -204q-111 -60 -235 -60q-132 0 -206 69t-68 195q2 93 52.5 184t143.5 160l336 2022h371z" />
    <glyph glyph-name="uni012F" unicode="&#x12f;" horiz-adv-x="752" 
d="M124 -582q-132 0 -206 69t-68 195q2 97 57.5 192t158.5 166l249 1496h362l-256 -1536h-8q-115 -60 -180.5 -117t-76.5 -129q-20 -100 81 -100q45 0 119 28l3 -204q-111 -60 -235 -60zM551 1741q-86 0 -146.5 57.5t-56.5 139.5t68.5 139.5t149.5 57.5t144 -57.5t57 -139.5
t-66 -139.5t-150 -57.5z" />
    <glyph glyph-name="uni0130" unicode="&#x130;" horiz-adv-x="774" 
d="M785 2048l-340 -2048h-371l340 2048h371zM645 2211q-86 0 -146.5 57.5t-56.5 139.5t68.5 139.5t149.5 57.5t144 -57.5t57 -139.5t-66 -139.5t-150 -57.5z" />
    <glyph glyph-name="uni0131" unicode="&#x131;" horiz-adv-x="734" 
d="M58 0l256 1536h362l-256 -1536h-362z" />
    <glyph glyph-name="uni0132" unicode="&#x132;" horiz-adv-x="2376" 
d="M1759 613l237 1435h368l-240 -1445q-49 -295 -252.5 -463t-503.5 -168q-137 0 -247.5 37t-186 107t-106.5 180t-8 248h364q-18 -127 44 -197t186 -70q136 0 226.5 87.5t118.5 248.5zM785 2048l-340 -2048h-371l340 2048h371z" />
    <glyph glyph-name="uni0133" unicode="&#x133;" horiz-adv-x="1467" 
d="M1048 1536h362l-267 -1613q-40 -244 -205.5 -371.5t-418.5 -127.5h-114l51 298h72q119 0 177.5 53t76.5 153zM58 0l256 1536h362l-256 -1536h-362zM549 1741q-86 0 -146.5 57.5t-56.5 139.5t68.5 139.5t149.5 57.5t144 -57.5t57 -139.5t-66 -139.5t-150 -57.5zM1281 1741
q-86 0 -146.5 57.5t-56.5 139.5t68.5 139.5t149.5 57.5t144 -57.5t57 -139.5t-66 -139.5t-150 -57.5z" />
    <glyph glyph-name="uni0134" unicode="&#x134;" horiz-adv-x="1602" 
d="M985 613l237 1435h368l-240 -1445q-49 -295 -252.5 -463t-503.5 -168q-137 0 -247.5 37t-186 107t-106.5 180t-8 248h364q-18 -127 44 -197t186 -70q136 0 226.5 87.5t118.5 248.5zM1210 2205h-298l1 14l478 384h219l347 -384l-1 -14h-296l-191 208z" />
    <glyph glyph-name="uni0135" unicode="&#x135;" horiz-adv-x="734" 
d="M314 1536h362l-267 -1613q-40 -244 -205.5 -371.5t-418.5 -127.5h-114l51 298h72q119 0 177.5 53t76.5 153zM305 1735h-298l1 14l478 384h219l347 -384l-1 -14h-296l-191 208z" />
    <glyph glyph-name="uni0136" unicode="&#x136;" horiz-adv-x="1906" 
d="M74 0l340 2048h371l-155 -941h25l954 941h453l-943 -919l610 -1129h-446l-462 878l-274 -270l-102 -608h-371zM975 -120l-31 -183q-27 -160 -96 -306.5t-178 -253.5l-206 81q76 119 123 226t68 236l32 200h288z" />
    <glyph glyph-name="uni0137" unicode="&#x137;" horiz-adv-x="1602" 
d="M58 0l340 2048h362l-187 -1129h23l657 617h423l-706 -664l485 -872h-433l-361 657l-155 -140l-86 -517h-362zM828 -121l-31 -183q-27 -160 -96 -306.5t-178 -253.5l-206 81q76 119 123 226t68 236l32 200h288z" />
    <glyph glyph-name="uni0138" unicode="&#x138;" horiz-adv-x="1851" 
d="M708 1488l-96 -574h120l530 574h465l-679 -721l461 -767h-475l-318 567h-161l-95 -567h-374l248 1488h374z" />
    <glyph glyph-name="uni0139" unicode="&#x139;" horiz-adv-x="1594" 
d="M74 0l340 2048h371l-288 -1737h902l-52 -311h-1273zM464 2179l336 449h392l-427 -449h-301z" />
    <glyph glyph-name="uni013A" unicode="&#x13a;" horiz-adv-x="734" 
d="M760 2048l-340 -2048h-362l340 2048h362zM436 2179l336 449h392l-427 -449h-301z" />
    <glyph glyph-name="uni013B" unicode="&#x13b;" horiz-adv-x="1594" 
d="M74 0l340 2048h371l-288 -1737h902l-52 -311h-1273zM828 -121l-31 -183q-27 -160 -96 -306.5t-178 -253.5l-206 81q76 119 123 226t68 236l32 200h288z" />
    <glyph glyph-name="uni013C" unicode="&#x13c;" horiz-adv-x="734" 
d="M760 2048l-340 -2048h-362l340 2048h362zM377 -121l-31 -183q-27 -160 -96 -306.5t-178 -253.5l-206 81q76 119 123 226t68 236l32 200h288z" />
    <glyph glyph-name="uni013D" unicode="&#x13d;" horiz-adv-x="1594" 
d="M74 0l340 2048h371l-288 -1737h902l-52 -311h-1273zM1395 2048l-31 -183q-27 -160 -96 -306.5t-178 -253.5l-206 81q76 119 123 226t68 236l32 200h288z" />
    <glyph glyph-name="uni013E" unicode="&#x13e;" horiz-adv-x="962" 
d="M765 2048l-340 -2048h-362l340 2048h362zM1215 2048l-31 -183q-27 -160 -96 -306.5t-178 -253.5l-206 81q76 119 123 226t68 236l32 200h288z" />
    <glyph glyph-name="uni013F" unicode="&#x13f;" horiz-adv-x="1616" 
d="M79 0l340 2048h371l-288 -1737h902l-52 -311h-1273zM1090 1007q-86 0 -146.5 57.5t-56.5 139.5t68.5 139.5t149.5 57.5t144 -57.5t57 -139.5t-66 -139.5t-150 -57.5z" />
    <glyph glyph-name="uni0140" unicode="&#x140;" horiz-adv-x="1076" 
d="M765 2048l-340 -2048h-362l340 2048h362zM948 920q-86 0 -146.5 57.5t-56.5 139.5t68.5 139.5t149.5 57.5t144 -57.5t57 -139.5t-66 -139.5t-150 -57.5z" />
    <glyph glyph-name="uni0141" unicode="&#x141;" horiz-adv-x="1627" 
d="M974 1309l-17 -219l-286 -81l-116 -698h902l-52 -311h-1273l149 899l-231 -65l18 217l250 71l154 926h371l-135 -815z" />
    <glyph glyph-name="uni0142" unicode="&#x142;" horiz-adv-x="734" 
d="M839 1315l-36 -216l-212 -68l-171 -1031h-362l151 910l-212 -68l37 216l211 67l153 923h362l-133 -801z" />
    <glyph glyph-name="uni0143" unicode="&#x143;" horiz-adv-x="2086" 
d="M2097 2048l-340 -2048h-330l-733 1395h-16l-233 -1395h-371l340 2048h332l732 -1396h19l231 1396h369zM1113 2179l336 449h392l-427 -449h-301z" />
    <glyph glyph-name="uni0144" unicode="&#x144;" horiz-adv-x="1717" 
d="M570 900l-148 -900h-363l256 1536h347l-44 -261h19q73 132 204.5 206.5t300.5 74.5q239 0 357 -152.5t73 -425.5l-164 -978h-362l153 922q26 154 -39 241t-206 87q-145 0 -250 -93t-134 -257zM850 1707l336 449h392l-427 -449h-301z" />
    <glyph glyph-name="uni0145" unicode="&#x145;" horiz-adv-x="2086" 
d="M2097 2048l-340 -2048h-330l-733 1395h-16l-233 -1395h-371l340 2048h332l732 -1396h19l231 1396h369zM1052 -121l-31 -183q-27 -160 -96 -306.5t-178 -253.5l-206 81q76 119 123 226t68 236l32 200h288z" />
    <glyph glyph-name="uni0146" unicode="&#x146;" horiz-adv-x="1717" 
d="M570 900l-148 -900h-363l256 1536h347l-44 -261h19q73 132 204.5 206.5t300.5 74.5q239 0 357 -152.5t73 -425.5l-164 -978h-362l153 922q26 154 -39 241t-206 87q-145 0 -250 -93t-134 -257zM868 -121l-31 -183q-27 -160 -96 -306.5t-178 -253.5l-206 81q76 119 123 226
t68 236l32 200h288z" />
    <glyph glyph-name="uni0147" unicode="&#x147;" horiz-adv-x="2086" 
d="M2097 2048l-340 -2048h-330l-733 1395h-16l-233 -1395h-371l340 2048h332l732 -1396h19l231 1396h369zM1118 2585l190 -208l260 208h296l-4 -14l-474 -384h-219l-351 384l4 14h298z" />
    <glyph glyph-name="uni0148" unicode="&#x148;" horiz-adv-x="1717" 
d="M570 900l-148 -900h-363l256 1536h347l-44 -261h19q73 132 204.5 206.5t300.5 74.5q239 0 357 -152.5t73 -425.5l-164 -978h-362l153 922q26 154 -39 241t-206 87q-145 0 -250 -93t-134 -257zM855 2113l190 -208l260 208h296l-4 -14l-474 -384h-219l-351 384l4 14h298z
" />
    <glyph glyph-name="uni014A" unicode="&#x14a;" horiz-adv-x="2086" 
d="M1427 0l-733 1395h-16l-233 -1395h-371l340 2048h332l732 -1396h19l231 1396h369l-340 -2048l-21 -110q-21 -127 -75.5 -221.5t-136.5 -152t-183 -85.5t-223 -28q-91 0 -145 19l46 282q61 -13 123 -13q226 0 264 197z" />
    <glyph glyph-name="uni014B" unicode="&#x14b;" horiz-adv-x="1730" 
d="M1046 0l153 922q26 154 -39 241t-206 87q-145 0 -250 -93t-134 -257l-148 -900h-363l256 1536h347l-44 -261h19q73 132 204.5 206.5t300.5 74.5q239 0 357 -152.5t73 -425.5l-164 -978l-22 -118q-50 -236 -200 -353.5t-376 -117.5q-123 0 -185 15l67 298q58 -13 108 -13
q95 0 152.5 43t74.5 140z" />
    <glyph glyph-name="uni014C" unicode="&#x14c;" horiz-adv-x="2182" 
d="M2070 1000q-40 -239 -142 -434.5t-246 -324.5t-323.5 -199t-376.5 -70q-206 0 -370.5 73t-270.5 211.5t-146.5 337.5t1.5 451q40 239 142 435t246.5 325.5t325 200t379.5 70.5q204 0 367.5 -73.5t269.5 -212t146 -338t-2 -452.5zM1705 1045q55 334 -64 516t-367 182
q-266 0 -461 -196.5t-251 -546.5q-29 -171 -11 -301t77.5 -217.5t152 -132t213.5 -44.5q130 0 246 49t209.5 142t160 233.5t95.5 315.5zM1859 2477l-35 -224h-966l36 224h965z" />
    <glyph glyph-name="uni014D" unicode="&#x14d;" horiz-adv-x="1718" 
d="M737 -30q-224 0 -376.5 100t-213 281.5t-21.5 419.5q57 355 290 570t566 215q168 0 298 -58t207 -163.5t107 -253.5t-1 -329q-58 -354 -291 -568t-565 -214zM766 260q182 0 305 144t159 369q19 103 9.5 193.5t-40.5 158t-94.5 106t-152.5 38.5q-122 0 -221 -70
t-159 -184.5t-84 -260.5q-19 -104 -9 -194t41 -157t94.5 -105t151.5 -38zM1552 2005l-35 -224h-966l36 224h965z" />
    <glyph glyph-name="uni014E" unicode="&#x14e;" horiz-adv-x="2182" 
d="M2070 1000q-40 -239 -142 -434.5t-246 -324.5t-323.5 -199t-376.5 -70q-206 0 -370.5 73t-270.5 211.5t-146.5 337.5t1.5 451q40 239 142 435t246.5 325.5t325 200t379.5 70.5q204 0 367.5 -73.5t269.5 -212t146 -338t-2 -452.5zM1705 1045q55 334 -64 516t-367 182
q-266 0 -461 -196.5t-251 -546.5q-29 -171 -11 -301t77.5 -217.5t152 -132t213.5 -44.5q130 0 246 49t209.5 142t160 233.5t95.5 315.5zM1583 2568h271q-30 -178 -175.5 -289t-359.5 -111q-212 0 -321 111.5t-79 288.5h270q-14 -79 25.5 -132t140.5 -53q100 0 157.5 52.5
t70.5 132.5z" />
    <glyph glyph-name="uni014F" unicode="&#x14f;" horiz-adv-x="1718" 
d="M737 -30q-224 0 -376.5 100t-213 281.5t-21.5 419.5q57 355 290 570t566 215q168 0 298 -58t207 -163.5t107 -253.5t-1 -329q-58 -354 -291 -568t-565 -214zM766 260q182 0 305 144t159 369q19 103 9.5 193.5t-40.5 158t-94.5 106t-152.5 38.5q-122 0 -221 -70
t-159 -184.5t-84 -260.5q-19 -104 -9 -194t41 -157t94.5 -105t151.5 -38zM1276 2096h271q-30 -178 -175.5 -289t-359.5 -111q-212 0 -321 111.5t-79 288.5h270q-14 -79 25.5 -132t140.5 -53q100 0 157.5 52.5t70.5 132.5z" />
    <glyph glyph-name="uni0150" unicode="&#x150;" horiz-adv-x="2182" 
d="M2070 1000q-40 -239 -142 -434.5t-246 -324.5t-323.5 -199t-376.5 -70q-206 0 -370.5 73t-270.5 211.5t-146.5 337.5t1.5 451q40 239 142 435t246.5 325.5t325 200t379.5 70.5q204 0 367.5 -73.5t269.5 -212t146 -338t-2 -452.5zM1705 1045q55 334 -64 516t-367 182
q-266 0 -461 -196.5t-251 -546.5q-29 -171 -11 -301t77.5 -217.5t152 -132t213.5 -44.5q130 0 246 49t209.5 142t160 233.5t95.5 315.5zM1390 2172l385 418h328l-443 -418h-270zM911 2172l323 418h326l-388 -418h-261z" />
    <glyph glyph-name="uni0151" unicode="&#x151;" horiz-adv-x="1718" 
d="M737 -30q-224 0 -376.5 100t-213 281.5t-21.5 419.5q57 355 290 570t566 215q168 0 298 -58t207 -163.5t107 -253.5t-1 -329q-58 -354 -291 -568t-565 -214zM766 260q182 0 305 144t159 369q19 103 9.5 193.5t-40.5 158t-94.5 106t-152.5 38.5q-122 0 -221 -70
t-159 -184.5t-84 -260.5q-19 -104 -9 -194t41 -157t94.5 -105t151.5 -38zM1083 1700l385 418h328l-443 -418h-270zM604 1700l323 418h326l-388 -418h-261z" />
    <glyph glyph-name="uni0152" unicode="&#x152;" horiz-adv-x="2831" 
d="M946 0q-201 0 -359 69t-259 200t-138.5 321t2.5 432q52 318 210.5 552.5t385.5 354t495 119.5h1583l-52 -311h-961l-92 -556h892l-52 -311h-892l-92 -559h969l-52 -311h-1588zM1246 311l236 1426h-251q-251 0 -431.5 -185.5t-237.5 -529.5q-56 -343 64 -527t372 -184h248
z" />
    <glyph glyph-name="uni0153" unicode="&#x153;" horiz-adv-x="2761" 
d="M737 -30q-224 0 -376.5 100t-213 281.5t-21.5 419.5q57 355 290 570t566 215q179 0 312.5 -64.5t211.5 -184.5q117 120 269 184.5t325 64.5q145 0 261.5 -45.5t200 -140.5t112 -241.5t-1.5 -348.5l-17 -111h-1070l-1 -5q-67 -412 324 -412q119 0 212 50.5t146 147.5
l331 -38q-84 -203 -280 -322.5t-461 -119.5q-182 0 -316 61.5t-213 176.5q-240 -238 -590 -238zM766 260q182 0 305 144t159 369q19 103 9.5 193.5t-40.5 158t-94.5 106t-152.5 38.5q-122 0 -221 -70t-159 -184.5t-84 -260.5q-19 -104 -9 -194t41 -157t94.5 -105t151.5 -38z
M1627 913h719q26 158 -53 259.5t-233 101.5q-152 0 -277 -109t-156 -252z" />
    <glyph glyph-name="uni0154" unicode="&#x154;" horiz-adv-x="1822" 
d="M74 0l340 2048h759q181 0 314 -48t207 -135t100.5 -204t2.5 -259q-32 -201 -151.5 -346t-305.5 -223l296 -833h-414l-264 767h-385l-128 -767h-371zM621 1061h353q201 0 309 89.5t134 247.5q7 53 6 102.5t-22.5 92.5t-56.5 75.5t-97 51t-144 18.5h-369zM964 2179l336 449
h392l-427 -449h-301z" />
    <glyph glyph-name="uni0155" unicode="&#x155;" horiz-adv-x="1165" 
d="M58 0l256 1536h351l-43 -256h16q63 132 176.5 205t249.5 73q122 0 194 -56l-160 -298q-57 30 -139 30q-143 0 -254.5 -93t-135.5 -238l-149 -903h-362zM584 1707l336 449h392l-427 -449h-301z" />
    <glyph glyph-name="uni0156" unicode="&#x156;" horiz-adv-x="1822" 
d="M74 0l340 2048h759q181 0 314 -48t207 -135t100.5 -204t2.5 -259q-32 -201 -151.5 -346t-305.5 -223l296 -833h-414l-264 767h-385l-128 -767h-371zM621 1061h353q201 0 309 89.5t134 247.5q7 53 6 102.5t-22.5 92.5t-56.5 75.5t-97 51t-144 18.5h-369zM941 -121
l-31 -183q-27 -160 -96 -306.5t-178 -253.5l-206 81q76 119 123 226t68 236l32 200h288z" />
    <glyph glyph-name="uni0157" unicode="&#x157;" horiz-adv-x="1165" 
d="M58 0l256 1536h351l-43 -256h16q63 132 176.5 205t249.5 73q122 0 194 -56l-160 -298q-57 30 -139 30q-143 0 -254.5 -93t-135.5 -238l-149 -903h-362zM375 -121l-31 -183q-27 -160 -96 -306.5t-178 -253.5l-206 81q76 119 123 226t68 236l32 200h288z" />
    <glyph glyph-name="uni0158" unicode="&#x158;" horiz-adv-x="1822" 
d="M74 0l340 2048h759q181 0 314 -48t207 -135t100.5 -204t2.5 -259q-32 -201 -151.5 -346t-305.5 -223l296 -833h-414l-264 767h-385l-128 -767h-371zM621 1061h353q201 0 309 89.5t134 247.5q7 53 6 102.5t-22.5 92.5t-56.5 75.5t-97 51t-144 18.5h-369zM970 2585
l190 -208l260 208h296l-4 -14l-474 -384h-219l-351 384l4 14h298z" />
    <glyph glyph-name="uni0159" unicode="&#x159;" horiz-adv-x="1165" 
d="M58 0l256 1536h351l-43 -256h16q63 132 176.5 205t249.5 73q122 0 194 -56l-160 -298q-57 30 -139 30q-143 0 -254.5 -93t-135.5 -238l-149 -903h-362zM590 2113l190 -208l260 208h296l-4 -14l-474 -384h-219l-351 384l4 14h298z" />
    <glyph glyph-name="uni015A" unicode="&#x15a;" horiz-adv-x="1828" 
d="M1431 1475q4 138 -84 212.5t-254 74.5q-171 0 -282.5 -74t-131.5 -193q-9 -49 4.5 -90.5t41 -70.5t72 -53.5t87.5 -39.5t97 -28l184 -48q94 -23 171.5 -55t148.5 -82t116 -112.5t64 -150t2 -190.5q-46 -275 -279.5 -440.5t-596.5 -165.5q-361 0 -545 166.5t-145 469.5
h365q-16 -155 88.5 -237t285.5 -82q182 0 308.5 80.5t147.5 211.5q10 58 -7.5 103t-64 78t-105.5 56.5t-145 46.5l-222 60q-521 142 -454 550q30 178 151 316.5t304 213t397 74.5q325 0 500 -166.5t138 -434.5h-357zM983 2179l336 449h392l-427 -449h-301z" />
    <glyph glyph-name="uni015B" unicode="&#x15b;" horiz-adv-x="1546" 
d="M1459 1130l-333 -36q-9 85 -68 138.5t-173 53.5q-119 0 -207.5 -53.5t-100.5 -135.5q-11 -62 30.5 -101t151.5 -66l254 -56q211 -48 303 -153t64 -274q-36 -212 -238 -344.5t-486 -132.5q-285 0 -440.5 118.5t-154.5 330.5l356 34q6 -103 72.5 -156t186.5 -54
q132 -1 225.5 56t105.5 141q11 62 -30 101t-144 62l-252 55q-426 94 -366 444q35 208 223.5 331t463.5 123q269 0 410.5 -113t146.5 -313zM780 1706l336 449h392l-427 -449h-301z" />
    <glyph glyph-name="uni015C" unicode="&#x15c;" horiz-adv-x="1828" 
d="M1431 1475q4 138 -84 212.5t-254 74.5q-171 0 -282.5 -74t-131.5 -193q-9 -49 4.5 -90.5t41 -70.5t72 -53.5t87.5 -39.5t97 -28l184 -48q94 -23 171.5 -55t148.5 -82t116 -112.5t64 -150t2 -190.5q-46 -275 -279.5 -440.5t-596.5 -165.5q-361 0 -545 166.5t-145 469.5
h365q-16 -155 88.5 -237t285.5 -82q182 0 308.5 80.5t147.5 211.5q10 58 -7.5 103t-64 78t-105.5 56.5t-145 46.5l-222 60q-521 142 -454 550q30 178 151 316.5t304 213t397 74.5q325 0 500 -166.5t138 -434.5h-357zM930 2205h-298l1 14l478 384h219l347 -384l-1 -14h-296
l-191 208z" />
    <glyph glyph-name="uni015D" unicode="&#x15d;" horiz-adv-x="1546" 
d="M1459 1130l-333 -36q-9 85 -68 138.5t-173 53.5q-119 0 -207.5 -53.5t-100.5 -135.5q-11 -62 30.5 -101t151.5 -66l254 -56q211 -48 303 -153t64 -274q-36 -212 -238 -344.5t-486 -132.5q-285 0 -440.5 118.5t-154.5 330.5l356 34q6 -103 72.5 -156t186.5 -54
q132 -1 225.5 56t105.5 141q11 62 -30 101t-144 62l-252 55q-426 94 -366 444q35 208 223.5 331t463.5 123q269 0 410.5 -113t146.5 -313zM727 1731h-298l1 14l478 384h219l347 -384l-1 -14h-296l-191 208z" />
    <glyph glyph-name="uni015E" unicode="&#x15e;" horiz-adv-x="1828" 
d="M1431 1475q4 138 -84 212.5t-254 74.5q-171 0 -282.5 -74t-131.5 -193q-9 -49 4.5 -90.5t41 -70.5t72 -53.5t87.5 -39.5t97 -28l184 -48q94 -23 171.5 -55t148.5 -82t116 -112.5t64 -150t2 -190.5q-43 -258 -252.5 -420.5t-537.5 -182.5l-18 -49q98 -15 150.5 -76
t33.5 -165q-23 -144 -166 -229t-377 -85l26 178q247 0 273 127q12 62 -31.5 92t-151.5 42l65 166q-309 26 -462.5 190t-117.5 442h365q-16 -155 88.5 -237t285.5 -82q182 0 308.5 80.5t147.5 211.5q10 58 -7.5 103t-64 78t-105.5 56.5t-145 46.5l-222 60q-521 142 -454 550
q30 178 151 316.5t304 213t397 74.5q325 0 500 -166.5t138 -434.5h-357z" />
    <glyph glyph-name="uni015F" unicode="&#x15f;" horiz-adv-x="1546" 
d="M1459 1130l-333 -36q-9 85 -68 138.5t-173 53.5q-119 0 -207.5 -53.5t-100.5 -135.5q-11 -62 30.5 -101t151.5 -66l254 -56q211 -48 303 -153t64 -274q-33 -194 -206 -322.5t-424 -150.5l-19 -51q98 -15 150.5 -76t33.5 -165q-23 -144 -166 -229t-377 -85l26 178
q247 0 273 127q12 62 -31.5 92t-151.5 42l66 167q-238 21 -366 137t-127 308l356 34q6 -103 72.5 -156t186.5 -54q132 -1 225.5 56t105.5 141q11 62 -30 101t-144 62l-252 55q-426 94 -366 444q35 208 223.5 331t463.5 123q269 0 410.5 -113t146.5 -313z" />
    <glyph glyph-name="uni0160" unicode="&#x160;" horiz-adv-x="1828" 
d="M1431 1475q4 138 -84 212.5t-254 74.5q-171 0 -282.5 -74t-131.5 -193q-9 -49 4.5 -90.5t41 -70.5t72 -53.5t87.5 -39.5t97 -28l184 -48q94 -23 171.5 -55t148.5 -82t116 -112.5t64 -150t2 -190.5q-46 -275 -279.5 -440.5t-596.5 -165.5q-361 0 -545 166.5t-145 469.5
h365q-16 -155 88.5 -237t285.5 -82q182 0 308.5 80.5t147.5 211.5q10 58 -7.5 103t-64 78t-105.5 56.5t-145 46.5l-222 60q-521 142 -454 550q30 178 151 316.5t304 213t397 74.5q325 0 500 -166.5t138 -434.5h-357zM988 2585l190 -208l260 208h296l-4 -14l-474 -384h-219
l-351 384l4 14h298z" />
    <glyph glyph-name="uni0161" unicode="&#x161;" horiz-adv-x="1546" 
d="M1459 1130l-333 -36q-9 85 -68 138.5t-173 53.5q-119 0 -207.5 -53.5t-100.5 -135.5q-11 -62 30.5 -101t151.5 -66l254 -56q211 -48 303 -153t64 -274q-36 -212 -238 -344.5t-486 -132.5q-285 0 -440.5 118.5t-154.5 330.5l356 34q6 -103 72.5 -156t186.5 -54
q132 -1 225.5 56t105.5 141q11 62 -30 101t-144 62l-252 55q-426 94 -366 444q35 208 223.5 331t463.5 123q269 0 410.5 -113t146.5 -313zM785 2111l190 -208l260 208h296l-4 -14l-474 -384h-219l-351 384l4 14h298z" />
    <glyph glyph-name="uni0162" unicode="&#x162;" horiz-adv-x="1858" 
d="M272 1737l52 311h1634l-52 -311h-633l-288 -1737h-75l-29 -77q98 -15 150.5 -76t33.5 -165q-23 -144 -166 -229t-377 -85l26 178q247 0 273 127q12 62 -31.5 92t-151.5 42l76 193h-97l288 1737h-633z" />
    <glyph glyph-name="uni0163" unicode="&#x163;" horiz-adv-x="1080" 
d="M1081 1536l-47 -280h-304l-131 -792q-17 -101 20.5 -139.5t115.5 -38.5q33 0 107 14l16 -282q-82 -25 -168 -33l-23 -62q98 -15 150.5 -76t33.5 -165q-23 -144 -166 -229t-377 -85l26 178q247 0 273 127q12 62 -31.5 92t-151.5 42l73 186q-151 30 -225 135.5t-43 276.5
l140 851h-217l46 280h217l61 368h362l-61 -368h304z" />
    <glyph glyph-name="uni0164" unicode="&#x164;" horiz-adv-x="1858" 
d="M272 1737l52 311h1634l-52 -311h-633l-288 -1737h-368l288 1737h-633zM1004 2585l190 -208l260 208h296l-4 -14l-474 -384h-219l-351 384l4 14h298z" />
    <glyph glyph-name="uni0165" unicode="&#x165;" horiz-adv-x="1131" 
d="M1084 1536l-47 -280h-304l-131 -792q-17 -101 20.5 -139.5t115.5 -38.5q34 0 107 14l16 -282q-102 -33 -220 -36q-140 -4 -240 41t-147 143.5t-22 238.5l140 851h-217l46 280h217l61 368h362l-61 -368h304zM1387 2355l-31 -183q-27 -160 -96 -306.5t-178 -253.5l-206 81
q76 119 123 226t68 236l32 200h288z" />
    <glyph glyph-name="uni0166" unicode="&#x166;" horiz-adv-x="1858" 
d="M272 1737l52 311h1634l-52 -311h-633l-102 -617h295l-40 -229h-293l-148 -891h-368l148 891h-298l40 229h296l102 617h-633z" />
    <glyph glyph-name="uni0167" unicode="&#x167;" horiz-adv-x="1080" 
d="M77 794l33 196h215l44 266h-217l46 280h217l61 368h362l-61 -368h304l-47 -280h-304l-44 -266h307l-34 -196h-305l-55 -330q-17 -101 20.5 -139.5t115.5 -38.5q33 0 107 14l16 -282q-102 -33 -220 -36q-140 -4 -240 41t-147 143.5t-22 238.5l64 389h-216z" />
    <glyph glyph-name="uni0168" unicode="&#x168;" horiz-adv-x="2066" 
d="M1706 2048h370l-224 -1354q-23 -137 -83.5 -253.5t-149.5 -202.5t-202 -147t-243.5 -91.5t-272.5 -30.5q-179 0 -323 48.5t-240.5 139.5t-136.5 229t-11 308l224 1354h371l-223 -1345q-20 -123 25.5 -215t141 -138.5t225.5 -46.5q199 0 349 108t181 292zM972 2191l-224 6
q25 151 134.5 260t244.5 109q50 0 100 -19t84.5 -41t82 -41t94.5 -19q52 0 94.5 37.5t51.5 98.5l224 -7q-24 -152 -135 -260t-246 -108q-60 0 -111 19t-80.5 41.5t-74 41.5t-93.5 19q-53 0 -94 -37.5t-52 -99.5z" />
    <glyph glyph-name="uni0169" unicode="&#x169;" horiz-adv-x="1647" 
d="M1149 646l149 890h362l-256 -1536h-351l46 273h-16q-74 -133 -209 -213t-303 -80q-231 0 -346 153t-70 425l164 978h362l-154 -922q-22 -146 43 -232t195 -86q83 0 162 37.5t141.5 119t80.5 193.5zM684 1722l-224 6q25 151 134.5 260t244.5 109q50 0 100 -18.5
t84.5 -41.5t82 -41.5t94.5 -18.5q52 0 94.5 37.5t51.5 98.5l224 -7q-24 -152 -135 -260t-246 -108q-60 0 -111 19t-80.5 41.5t-74 41.5t-93.5 19q-53 0 -94 -37.5t-52 -99.5z" />
    <glyph glyph-name="uni016A" unicode="&#x16a;" horiz-adv-x="2066" 
d="M1706 2048h370l-224 -1354q-23 -137 -83.5 -253.5t-149.5 -202.5t-202 -147t-243.5 -91.5t-272.5 -30.5q-179 0 -323 48.5t-240.5 139.5t-136.5 229t-11 308l224 1354h371l-223 -1345q-20 -123 25.5 -215t141 -138.5t225.5 -46.5q199 0 349 108t181 292zM1803 2477
l-35 -224h-966l36 224h965z" />
    <glyph glyph-name="uni016B" unicode="&#x16b;" horiz-adv-x="1713" 
d="M1144 646l149 890h362l-256 -1536h-351l46 273h-16q-74 -133 -209 -213t-303 -80q-231 0 -346 153t-70 425l164 978h362l-154 -922q-22 -146 43 -232t195 -86q83 0 162 37.5t141.5 119t80.5 193.5zM1547 2005l-35 -224h-966l36 224h965z" />
    <glyph glyph-name="uni016C" unicode="&#x16c;" horiz-adv-x="2066" 
d="M1706 2048h370l-224 -1354q-23 -137 -83.5 -253.5t-149.5 -202.5t-202 -147t-243.5 -91.5t-272.5 -30.5q-179 0 -323 48.5t-240.5 139.5t-136.5 229t-11 308l224 1354h371l-223 -1345q-20 -123 25.5 -215t141 -138.5t225.5 -46.5q199 0 349 108t181 292zM1527 2568h271
q-30 -178 -175.5 -289t-359.5 -111q-212 0 -321 111.5t-79 288.5h270q-14 -79 25.5 -132t140.5 -53q100 0 157.5 52.5t70.5 132.5z" />
    <glyph glyph-name="uni016D" unicode="&#x16d;" horiz-adv-x="1713" 
d="M1144 646l149 890h362l-256 -1536h-351l46 273h-16q-74 -133 -209 -213t-303 -80q-231 0 -346 153t-70 425l164 978h362l-154 -922q-22 -146 43 -232t195 -86q83 0 162 37.5t141.5 119t80.5 193.5zM1271 2096h271q-30 -178 -175.5 -289t-359.5 -111q-212 0 -321 111.5
t-79 288.5h270q-14 -79 25.5 -132t140.5 -53q100 0 157.5 52.5t70.5 132.5z" />
    <glyph glyph-name="uni016E" unicode="&#x16e;" horiz-adv-x="2066" 
d="M1706 2048h370l-224 -1354q-23 -137 -83.5 -253.5t-149.5 -202.5t-202 -147t-243.5 -91.5t-272.5 -30.5q-179 0 -323 48.5t-240.5 139.5t-136.5 229t-11 308l224 1354h371l-223 -1345q-20 -123 25.5 -215t141 -138.5t225.5 -46.5q199 0 349 108t181 292zM969 2480
q17 128 128 220t256 92q143 0 227.5 -92t67.5 -220q-17 -127 -125 -214t-253 -87q-146 0 -232 87t-69 214zM1139 2480q-9 -67 33 -115.5t116 -48.5t129 49t63 115q8 68 -33 117.5t-114 49.5q-74 0 -130 -49.5t-64 -117.5z" />
    <glyph glyph-name="uni016F" unicode="&#x16f;" horiz-adv-x="1713" 
d="M1144 646l149 890h362l-256 -1536h-351l46 273h-16q-74 -133 -209 -213t-303 -80q-231 0 -346 153t-70 425l164 978h362l-154 -922q-22 -146 43 -232t195 -86q83 0 162 37.5t141.5 119t80.5 193.5zM713 2008q17 128 128 220t256 92q143 0 227.5 -92t67.5 -220
q-17 -127 -125 -214t-253 -87q-146 0 -232 87t-69 214zM883 2008q-9 -67 33 -115.5t116 -48.5t129 49t63 115q8 68 -33 117.5t-114 49.5q-74 0 -130 -49.5t-64 -117.5z" />
    <glyph glyph-name="uni0170" unicode="&#x170;" horiz-adv-x="2066" 
d="M1706 2048h370l-224 -1354q-23 -137 -83.5 -253.5t-149.5 -202.5t-202 -147t-243.5 -91.5t-272.5 -30.5q-179 0 -323 48.5t-240.5 139.5t-136.5 229t-11 308l224 1354h371l-223 -1345q-20 -123 25.5 -215t141 -138.5t225.5 -46.5q199 0 349 108t181 292zM1334 2172
l385 418h328l-443 -418h-270zM855 2172l323 418h326l-388 -418h-261z" />
    <glyph glyph-name="uni0171" unicode="&#x171;" horiz-adv-x="1713" 
d="M1144 646l149 890h362l-256 -1536h-351l46 273h-16q-74 -133 -209 -213t-303 -80q-231 0 -346 153t-70 425l164 978h362l-154 -922q-22 -146 43 -232t195 -86q83 0 162 37.5t141.5 119t80.5 193.5zM1078 1700l385 418h328l-443 -418h-270zM599 1700l323 418h326
l-388 -418h-261z" />
    <glyph glyph-name="uni0172" unicode="&#x172;" horiz-adv-x="2066" 
d="M1706 2048h370l-224 -1354q-32 -191 -136 -340.5t-256.5 -240.5t-341.5 -125q-102 -55 -161.5 -110t-69.5 -122q-20 -100 81 -100q45 0 119 28l3 -204q-111 -60 -235 -60q-132 0 -206 69t-68 195q5 165 142 298q-141 22 -250.5 80t-181.5 146.5t-99 213t-2 272.5
l224 1354h371l-223 -1345q-20 -123 25.5 -215t141 -138.5t225.5 -46.5q199 0 349 108t181 292z" />
    <glyph glyph-name="uni0173" unicode="&#x173;" horiz-adv-x="1713" 
d="M1144 646l149 890h362l-256 -1536q-115 -60 -180.5 -117t-76.5 -129q-20 -100 81 -100q45 0 119 28l3 -204q-111 -60 -235 -60q-132 0 -206 69t-68 195q2 98 58.5 193.5t160.5 166.5l39 231h-16q-74 -133 -209 -213t-303 -80q-231 0 -346 153t-70 425l164 978h362
l-154 -922q-22 -146 43 -232t195 -86q83 0 162 37.5t141.5 119t80.5 193.5z" />
    <glyph glyph-name="uni0174" unicode="&#x174;" horiz-adv-x="2835" 
d="M505 0l-238 2048h399l120 -1505h19l643 1505h363l146 -1506h18l618 1506h399l-918 -2048h-366l-170 1437h-16l-651 -1437h-366zM1434 2205h-298l1 14l478 384h219l347 -384l-1 -14h-296l-191 208z" />
    <glyph glyph-name="uni0175" unicode="&#x175;" horiz-adv-x="2358" 
d="M375 0l-178 1536h369l90 -1080h14l456 1080h365l96 -1074h15l446 1074h370l-691 -1536h-377l-116 1038h-21l-460 -1038h-378zM1111 1733h-298l1 14l478 384h219l347 -384l-1 -14h-296l-191 208z" />
    <glyph glyph-name="uni0176" unicode="&#x176;" horiz-adv-x="1989" 
d="M277 2048h418l351 -906h23l649 906h418l-958 -1284l-127 -764h-369l127 764zM1011 2205h-298l1 14l478 384h219l347 -384l-1 -14h-296l-191 208z" />
    <glyph glyph-name="uni0177" unicode="&#x177;" horiz-adv-x="1622" 
d="M173 -598q-139 0 -221 41l130 290q75 -23 136 -22.5t115.5 39t102.5 120.5l52 96l-296 1570h384l161 -1160h16l548 1160h385l-908 -1736q-211 -398 -605 -398zM739 1733h-298l1 14l478 384h219l347 -384l-1 -14h-296l-191 208z" />
    <glyph glyph-name="uni0178" unicode="&#x178;" horiz-adv-x="1989" 
d="M277 2048h418l351 -906h23l649 906h418l-958 -1284l-127 -764h-369l127 764zM957 2219q-81 0 -136 55.5t-53 133.5t61.5 133.5t140.5 55.5q79 0 133.5 -55.5t52.5 -133.5t-60.5 -133.5t-138.5 -55.5zM1555 2219q-81 0 -136.5 55.5t-53.5 133.5q3 78 62.5 133.5
t140.5 55.5q79 0 133.5 -55.5t51.5 -133.5q-1 -78 -60 -133.5t-138 -55.5z" />
    <glyph glyph-name="uni0179" unicode="&#x179;" horiz-adv-x="1838" 
d="M36 0l40 231l1299 1506h-1057l52 311h1516l-37 -231l-1302 -1506h1057l-52 -311h-1516zM1003 2179l336 449h392l-427 -449h-301z" />
    <glyph glyph-name="uni017A" unicode="&#x17a;" horiz-adv-x="1585" 
d="M39 0l39 230l948 993l4 13h-783l51 300h1232l-40 -247l-908 -976l-4 -13h766l-49 -300h-1256zM778 1707l336 449h392l-427 -449h-301z" />
    <glyph glyph-name="uni017B" unicode="&#x17b;" horiz-adv-x="1838" 
d="M36 0l40 231l1299 1506h-1057l52 311h1516l-37 -231l-1302 -1506h1057l-52 -311h-1516zM1193 2211q-86 0 -146.5 57.5t-56.5 139.5t68.5 139.5t149.5 57.5t144 -57.5t57 -139.5t-66 -139.5t-150 -57.5z" />
    <glyph glyph-name="uni017C" unicode="&#x17c;" horiz-adv-x="1585" 
d="M39 0l39 230l948 993l4 13h-783l51 300h1232l-40 -247l-908 -976l-4 -13h766l-49 -300h-1256zM968 1739q-86 0 -146.5 57.5t-56.5 139.5t68.5 139.5t149.5 57.5t144 -57.5t57 -139.5t-66 -139.5t-150 -57.5z" />
    <glyph glyph-name="uni017D" unicode="&#x17d;" horiz-adv-x="1838" 
d="M36 0l40 231l1299 1506h-1057l52 311h1516l-37 -231l-1302 -1506h1057l-52 -311h-1516zM1008 2585l190 -208l260 208h296l-4 -14l-474 -384h-219l-351 384l4 14h298z" />
    <glyph glyph-name="uni017E" unicode="&#x17e;" horiz-adv-x="1585" 
d="M39 0l39 230l948 993l4 13h-783l51 300h1232l-40 -247l-908 -976l-4 -13h766l-49 -300h-1256zM783 2113l190 -208l260 208h296l-4 -14l-474 -384h-219l-351 384l4 14h298z" />
    <glyph glyph-name="uni017F" unicode="&#x17f;" horiz-adv-x="794" 
d="M265 0h-374l269 1622q41 250 205.5 384t421.5 134q85 0 211 -28l-80 -281q-52 12 -128 12q-107 0 -173.5 -57t-82.5 -164z" />
    <glyph glyph-name="uni0180" unicode="&#x180;" horiz-adv-x="1759" 
d="M58 0l274 1651h-301l40 229h299l28 168h362l-28 -168h298l-40 -229h-295l-61 -369h16q178 274 484 274q134 0 240 -51.5t176 -151.5t93.5 -247.5t-7.5 -339.5q-40 -247 -153.5 -428.5t-271.5 -273t-340 -91.5q-303 0 -394 269h-23l-40 -242h-356zM541 768
q-37 -227 36.5 -362.5t243.5 -135.5q174 0 291.5 137.5t154.5 360.5q36 222 -36 356.5t-247 134.5q-173 0 -289.5 -132t-153.5 -359z" />
    <glyph glyph-name="uni0181" unicode="&#x181;" horiz-adv-x="2378" 
d="M601 0l289 1738h-89q-197 0 -236 -252l-17 -105h-334l28 179q34 220 198 354t409 134h876q163 0 284 -40t190 -111.5t95 -167.5t6 -212q-31 -177 -147.5 -287.5t-281.5 -148.5l-4 -20q82 -4 154 -40t124 -98.5t73.5 -157.5t3.5 -207q-20 -121 -81 -222t-158.5 -176.5
t-239.5 -117.5t-313 -42h-829zM1024 310h399q193 0 299.5 74.5t127.5 202.5q22 140 -63.5 231.5t-253.5 91.5h-410zM1169 1177h367q147 0 256 80t129 212q22 123 -51.5 198t-232.5 75h-376z" />
    <glyph glyph-name="uni0182" unicode="&#x182;" horiz-adv-x="1843" 
d="M74 0l340 2048h1317l-52 -311h-946l-79 -480h395q351 0 524 -167.5t125 -451.5q-47 -287 -278 -462.5t-580 -175.5h-766zM495 304h395q179 0 298.5 98t142.5 240q23 135 -64.5 224t-268.5 89h-395z" />
    <glyph glyph-name="uni0183" unicode="&#x183;" horiz-adv-x="1759" 
d="M1650 2048l-45 -278h-891l-80 -488h16q178 274 484 274q134 0 240 -51.5t176 -151.5t93.5 -247.5t-7.5 -339.5q-40 -247 -153.5 -428.5t-271.5 -273t-340 -91.5q-303 0 -394 269h-23l-40 -242h-356l340 2048h1252zM541 768q-37 -227 36.5 -362.5t243.5 -135.5
q174 0 291.5 137.5t154.5 360.5q36 222 -36 356.5t-247 134.5q-173 0 -289.5 -132t-153.5 -359z" />
    <glyph glyph-name="uni0184" unicode="&#x184;" horiz-adv-x="2143" 
d="M974 1257h396q350 0 523.5 -167.5t125.5 -451.5q-48 -287 -279 -462.5t-579 -175.5h-767l288 1737h-489l52 311h861zM924 955l-108 -651h395q179 0 298.5 98t142.5 240q22 135 -65.5 224t-267.5 89h-395z" />
    <glyph glyph-name="uni0185" unicode="&#x185;" horiz-adv-x="1846" 
d="M581 2112h69l-11 -64h296l-116 -711h17q62 91 172 155t263 64q133 0 239 -51.5t176 -151.5t94.5 -247.5t-6.5 -339.5q-31 -186 -104.5 -337.5t-175.5 -250.5t-226 -152t-258 -53q-84 0 -150 19.5t-107.5 53t-66.5 68.5t-40 77h-26l-31 -191h-356l239 1440h-3l-211 248
l30 173zM1426 768q21 147 0.5 256t-95.5 172t-197 63q-182 0 -293 -133.5t-147 -357.5q-20 -106 -12.5 -197t38 -158t94.5 -105t156 -38q181 0 299 135.5t157 362.5z" />
    <glyph glyph-name="uni0186" unicode="&#x186;" horiz-adv-x="2094" 
d="M865 -28q-176 0 -319 55.5t-235 152t-140 225t-44 275.5h373q5 -176 126 -275.5t314 -99.5q122 0 231 46t198 133t153 222t92 305q57 344 -72 538t-389 194q-186 0 -334.5 -102.5t-208.5 -283.5h-372q69 224 218 387.5t349.5 247.5t431.5 84q198 0 355.5 -70t259 -203
t140 -326.5t-1.5 -439.5q-41 -245 -146 -447t-254 -336.5t-335 -208t-390 -73.5z" />
    <glyph glyph-name="uni0187" unicode="&#x187;" horiz-adv-x="2294" 
d="M2050 1357h-369q-1 181 -112.5 283.5t-293.5 102.5q-265 0 -460.5 -197t-252.5 -544q-56 -335 64.5 -516t367.5 -181q197 0 353 99.5t220 275.5h373q-46 -147 -135.5 -275.5t-212 -225t-282 -152t-333.5 -55.5q-206 0 -370 73.5t-268.5 212t-144.5 337.5t2 451
q53 319 212.5 554.5t385.5 355.5t490 120q365 0 574 -201q89 108 221 165.5t279 57.5q120 0 176 -12l-48 -296q-63 7 -106 7q-50 0 -96 -12.5t-88.5 -38.5t-73 -74.5t-40.5 -114.5z" />
    <glyph glyph-name="uni0188" unicode="&#x188;" horiz-adv-x="1781" 
d="M1557 1004h-347q-2 116 -70.5 188t-193.5 72q-171 0 -295.5 -133t-160.5 -363q-39 -234 39.5 -368.5t249.5 -134.5q121 0 214.5 68.5t138.5 191.5h346q-63 -250 -264.5 -402.5t-486.5 -152.5q-226 0 -377 101t-208.5 280t-18.5 411q38 233 157 413t303 280.5t406 100.5
q214 0 361 -92q76 107 193.5 164.5t255.5 57.5q99 0 159 -20l-41 -252q-68 9 -95 9q-95 0 -151.5 -46t-74.5 -152z" />
    <glyph glyph-name="uni0189" unicode="&#x189;" horiz-adv-x="2040" 
d="M778 0h-704l159 958h-268l40 229h266l143 861h698q458 0 677.5 -279t138.5 -763q-78 -474 -380.5 -740t-769.5 -266zM642 1187h322l-40 -229h-320l-106 -637h299q320 0 515.5 183t254.5 543q58 343 -69.5 511.5t-440.5 168.5h-325z" />
    <glyph glyph-name="uni018A" unicode="&#x18a;" horiz-adv-x="2399" 
d="M1220 0h-704l287 1727h-101q-59 0 -102.5 -19.5t-69 -55.5t-39.5 -75.5t-22 -90.5l-17 -105h-334l28 179q33 220 197.5 354t409.5 134h801q458 0 677.5 -279t138.5 -763q-78 -474 -380.5 -740t-769.5 -266zM940 321h299q320 0 515.5 183t254.5 543q58 343 -69.5 511.5
t-440.5 168.5h-325z" />
    <glyph glyph-name="uni018B" unicode="&#x18b;" horiz-adv-x="1851" 
d="M1558 0h-764q-232 0 -390.5 81t-224 225t-33.5 332q46 284 277.5 454t581.5 170h379l75 452h-930l50 314h1315zM1226 308l105 645h-379q-181 0 -288.5 -87t-130.5 -224q-11 -69 1.5 -128.5t49 -106t103.5 -73t159 -26.5h380z" />
    <glyph glyph-name="uni018C" unicode="&#x18c;" horiz-adv-x="1759" 
d="M528 2048h1252l-338 -2048h-356l40 242h-23q-180 -269 -483 -269q-136 0 -243 52.5t-175.5 154t-92 249t8.5 337.5q31 187 104.5 338.5t175.5 249.5t225.5 150t257.5 52q307 0 393 -274h16l82 488h-891zM1213 768q39 227 -34 359t-246 132q-175 0 -291.5 -134.5
t-154.5 -356.5q-36 -223 36 -360.5t245 -137.5q171 0 289 135.5t156 362.5z" />
    <glyph glyph-name="uni018D" unicode="&#x18d;" horiz-adv-x="1736" 
d="M1181 -516h-1074l49 292h587q-33 36 -223 208q-55 52 -99.5 100.5t-86.5 102t-72 104.5t-55.5 108t-36 112.5t-14.5 119t9 125.5l4 28q26 157 95 290.5t173 232t247.5 154t308.5 55.5t290.5 -53t199 -147t100 -222t1.5 -278l-4 -28q-45 -268 -237.5 -455t-456.5 -224
q-19 -3 -52 -3q262 -264 380 -423zM1203 756l4 28q9 68 11 131t-14.5 118.5t-46.5 96.5t-84.5 65t-128.5 24q-88 0 -160 -34.5t-120.5 -96t-79.5 -137.5t-46 -167l-4 -28q-25 -148 21.5 -262t134.5 -174q36 -13 88 -13q90 0 165 35.5t126 98.5t84.5 142t49.5 173z" />
    <glyph glyph-name="uni018E" unicode="&#x18e;" horiz-adv-x="1706" 
d="M1607 2048l-340 -2048h-1332l52 311h961l92 556h-892l52 311h892l92 559h-969l52 311h1340z" />
    <glyph glyph-name="uni018F" unicode="&#x18f;" horiz-adv-x="2112" 
d="M927 -28q-281 0 -459 115t-241.5 323.5t-15.5 497.5l35 212h1351q11 97 6.5 183t-38.5 158.5t-91 125t-150 81.5t-216 29q-277 0 -546 -88l-18 309q69 35 249.5 74.5t382.5 39.5q154 0 282.5 -31.5t223.5 -90.5t164.5 -142.5t104.5 -188.5t44 -228t-16 -261l-29 -184
q-34 -203 -131 -378t-233 -296.5t-307.5 -190.5t-351.5 -69zM1542 813h-962l-8 -43q-10 -79 -7 -149t31.5 -128.5t76 -100.5t126.5 -65.5t184 -23.5q205 0 352 141.5t207 368.5z" />
    <glyph glyph-name="uni0190" unicode="&#x190;" horiz-adv-x="1850" 
d="M554 1026q-140 62 -205.5 173.5t-41.5 260.5q30 183 145.5 313t293.5 194.5t404 64.5q146 0 270 -39.5t210.5 -111t126 -178.5t17.5 -234h-385q21 117 -60 184t-230 67q-182 0 -284 -72.5t-123 -193.5q-23 -137 48.5 -210t247.5 -73h242l-15 -91l-34 -207h-242
q-186 0 -292 -72t-133 -235q-23 -144 70 -215t276 -71q166 0 277 77.5t129 198.5h387q-19 -118 -78.5 -216.5t-142.5 -165.5t-187.5 -113.5t-213.5 -67.5t-221 -21q-173 0 -307.5 35t-229 105t-134.5 184t-16 264q29 171 140 289.5t291 176.5z" />
    <glyph glyph-name="uni0191" unicode="&#x191;" horiz-adv-x="1694" 
d="M118 0h1l340 2048h1312l-52 -311h-941l-92 -556h851l-52 -311h-851l-144 -870l-20 -118q-78 -458 -592 -458q-106 0 -149 10l46 286q26 -5 87 -5q212 0 239 170z" />
    <glyph glyph-name="uni0192" unicode="&#x192;" horiz-adv-x="1243" 
d="M1178 1488l-46 -270h-293l-214 -1299q-42 -251 -193 -385t-387 -134q-102 0 -186 20l69 293q44 -16 129 -16q170 0 209 222l215 1299h-237l46 270h236l21 134q41 248 202.5 383t400.5 135q123 0 232 -31l-95 -287q-58 15 -127 15q-105 0 -170.5 -54.5t-83.5 -160.5
l-21 -134h293z" />
    <glyph glyph-name="uni0193" unicode="&#x193;" horiz-adv-x="2293" 
d="M2054 1394h-381q-25 165 -135 257t-293 92q-252 0 -437.5 -190t-241.5 -527q-57 -343 68 -532t387 -189q218 0 382.5 132t198.5 345h-464l49 290h831l-41 -246q-32 -195 -123.5 -356t-225.5 -269.5t-305 -168.5t-360 -60q-210 0 -374 73t-264 209t-137.5 330.5t4.5 437.5
q32 195 105 362.5t177 294t234 216t280 135.5t310 46q317 0 523 -168q86 131 227.5 201.5t311.5 70.5q103 0 175 -20l-48 -293q-77 10 -101 10q-55 0 -98.5 -9t-83.5 -30.5t-66.5 -63t-36.5 -100.5z" />
    <glyph glyph-name="uni0194" unicode="&#x194;" horiz-adv-x="1990" 
d="M294 2024h417l301 -1146l680 1146h418l-984 -1572q27 -97 59 -202q61 -205 86 -313t15 -169q-20 -122 -95.5 -206.5t-183 -123t-240.5 -38.5q-99 0 -178.5 22.5t-135.5 66.5t-80 115.5t-8 163.5q6 34 28 82.5t64 119.5t81 133.5t107.5 170t116.5 184.5zM880 59
q-72 -115 -103.5 -175t-39.5 -106q-6 -45 13 -74t65 -29q47 0 75.5 30.5t35.5 72.5q7 47 -3.5 109.5t-42.5 171.5z" />
    <glyph glyph-name="uni0195" unicode="&#x195;" horiz-adv-x="2734" 
d="M59 0l340 2048h355l-128 -773h19q75 134 202 207.5t302 73.5q241 0 359 -151.5t74 -426.5l-36 -210l-28 -166q-13 -97 -5.5 -160t40 -100t69 -51.5t81.5 -14.5q188 0 339 267t241 811l31 182h363l-31 -182q-231 -1382 -1011 -1382q-273 0 -401.5 162.5t-78.5 467.5
l28 166l26 154q25 155 -40.5 241.5t-206.5 86.5q-148 0 -255 -93t-137 -257l-148 -900h-363z" />
    <glyph glyph-name="uni0196" unicode="&#x196;" horiz-adv-x="1066" 
d="M753 2112l-269 -1622q-17 -105 28.5 -162.5t151.5 -57.5q60 0 135 15l-17 -285q-124 -28 -219 -28q-255 0 -374 134.5t-79 383.5l269 1622h374z" />
    <glyph glyph-name="uni0197" unicode="&#x197;" horiz-adv-x="774" 
d="M785 2048l-143 -861h293l-40 -229h-291l-159 -958h-371l159 958h-297l40 229h295l143 861h371z" />
    <glyph glyph-name="uni0198" unicode="&#x198;" horiz-adv-x="1999" 
d="M74 0l340 2048h371l-154 -926h26l848 772q169 152 347 175t329 -83l-171 -265q-71 41 -136.5 25t-149.5 -92l-608 -544l666 -1110h-446l-498 848l-297 -274l-96 -574h-371z" />
    <glyph glyph-name="uni0199" unicode="&#x199;" horiz-adv-x="1583" 
d="M1030 0l-346 620l-190 -174l-74 -446h-362l252 1528h1l15 90q17 102 57 182.5t93.5 131.5t122.5 84t139 46.5t148 13.5q119 0 189 -14l-47 -283q-54 8 -93 8q-216 0 -247 -169l-38 -237h-1l-71 -435h20l618 590h431l-696 -656l485 -880h-406z" />
    <glyph glyph-name="uni019A" unicode="&#x19a;" horiz-adv-x="734" 
d="M760 2048l-143 -861h300l-40 -229h-298l-159 -958h-362l159 958h-299l40 229h297l143 861h362z" />
    <glyph glyph-name="uni019B" unicode="&#x19b;" horiz-adv-x="1846" 
d="M1234 1909l-44 -259l-51 -16l290 -1216q18 -68 44 -103.5t75 -35.5h48l-46 -293q-48 -12 -142 -12q-157 0 -238 69.5t-115 230.5l-142 671l-487 -945h-404l779 1443l-20 76l-394 -126l41 259l289 92q-36 74 -139 74q-48 0 -79 -4l41 279q35 10 99.5 17t107.5 7
q149 0 227 -59t106 -176l5 -21z" />
    <glyph glyph-name="uni019C" unicode="&#x19c;" horiz-adv-x="2638" 
d="M1109 223q-192 -251 -515 -251q-99 0 -173 20.5t-129.5 66t-82.5 118t-33 175.5t18 240l233 1412h371l-234 -1412q-52 -318 175 -318q239 0 352 199q3 52 14 119l233 1412h368l-233 -1412q-52 -318 177 -318q231 0 343 187l257 1543h371l-332 -2004h-340l11 161
q-183 -189 -455 -189q-324 0 -396 251z" />
    <glyph glyph-name="uni019D" unicode="&#x19d;" horiz-adv-x="2094" 
d="M81 0l340 2048h332l732 -1396h19l231 1396h369l-340 -2048h-330l-733 1395h-16l-233 -1395l-22 -118q-85 -460 -551 -460q-123 0 -193 12l47 286q29 -5 82 -5q217 0 246 170z" />
    <glyph glyph-name="uni019E" unicode="&#x19e;" horiz-adv-x="1717" 
d="M570 900l-148 -900h-363l256 1536h347l-44 -261h19q74 132 205 206.5t300 74.5q241 0 357.5 -152.5t72.5 -425.5l-260 -1554h-362l249 1498q26 153 -39 240.5t-206 87.5q-144 0 -249.5 -93.5t-134.5 -256.5z" />
    <glyph glyph-name="uni019F" unicode="&#x19f;" horiz-adv-x="2182" 
d="M2070 1000q-40 -239 -142 -434.5t-246 -324.5t-323.5 -199t-376.5 -70q-206 0 -370.5 73t-270.5 211.5t-146.5 337.5t1.5 451q40 239 142 435t246.5 325.5t325 200t379.5 70.5q204 0 367.5 -73.5t269.5 -212t146 -338t-2 -452.5zM994 305q228 0 406.5 147t262.5 416
q-88 -29 -165.5 -39t-152 -0.5t-120 20t-123.5 34.5t-121.5 34.5t-117.5 21t-150.5 2t-163.5 -33.5q-14 -146 11.5 -261t85 -189t148 -113t200.5 -39zM1718 1146q24 287 -96 442t-348 155t-406.5 -146t-262.5 -412q85 27 160 36.5t148.5 -0.5t116.5 -20t121 -34t123 -35
t120.5 -21t154.5 -1t169 36z" />
    <glyph glyph-name="uni01A0" unicode="&#x1a0;" horiz-adv-x="2254" 
d="M2189 2164h261q-76 -463 -418 -568q95 -257 38 -596q-40 -239 -142 -434.5t-246 -324.5t-323.5 -199t-376.5 -70q-206 0 -370.5 73t-270.5 211.5t-146.5 337.5t1.5 451q40 239 142 435t246.5 325.5t325 200t379.5 70.5q206 0 370.5 -74.5t270.5 -215.5q107 23 169 118
t90 260zM1705 1045q55 334 -64 516t-367 182q-266 0 -461 -196.5t-251 -546.5q-29 -171 -11 -301t77.5 -217.5t152 -132t213.5 -44.5q130 0 246 49t209.5 142t160 233.5t95.5 315.5z" />
    <glyph glyph-name="uni01A1" unicode="&#x1a1;" horiz-adv-x="1750" 
d="M1650 1634h243q-61 -365 -318 -475q55 -178 18 -407q-58 -354 -291 -568t-565 -214q-224 0 -376.5 100t-213 281.5t-21.5 419.5q57 355 290 570t566 215q174 0 305.5 -61.5t211.5 -175.5q62 38 95.5 115t55.5 200zM766 260q182 0 305 144t159 369q19 103 9.5 193.5
t-40.5 158t-94.5 106t-152.5 38.5q-122 0 -221 -70t-159 -184.5t-84 -260.5q-19 -104 -9 -194t41 -157t94.5 -105t151.5 -38z" />
    <glyph glyph-name="uni01A2" unicode="&#x1a2;" horiz-adv-x="2510" 
d="M2566 2004l-424 -2576h-371l355 2152l-221 -88l-101 -612h-2l-104 -619q-35 -38 -80 -73.5t-118 -76t-157.5 -70.5t-202 -49.5t-246.5 -19.5q-194 0 -344.5 64t-246.5 187t-130 303t4 412l17 106h1l4 22q37 225 131 407.5t229.5 305t308 188t366.5 65.5q433 0 638 -199
l413 171h281zM569 956l-3 -18q-26 -148 -14 -269.5t57.5 -207.5t135.5 -133.5t219 -47.5q245 0 386 114l120 720l83 496q-45 51 -124.5 81.5t-229.5 30.5q-249 0 -404 -170t-206 -486l-19 -110h-1z" />
    <glyph glyph-name="uni01A3" unicode="&#x1a3;" horiz-adv-x="1987" 
d="M2002 1488l-340 -2060h-372l268 1627l-164 -69l-29 -176h1l-94 -561q-232 -277 -602 -277q-115 0 -210 26.5t-162 75.5t-115.5 117.5t-70.5 151.5t-26.5 179t15.5 200l6 44q26 157 92 291.5t167 238t245 162t315 58.5q142 0 252.5 -52t183.5 -136l376 160h264zM714 270
q114 0 201 62l70 422h-1l64 390q-56 75 -178 75q-317 0 -392 -453l-7 -44q-19 -99 -14 -182t31 -143t83 -93.5t143 -33.5z" />
    <glyph glyph-name="uni01A4" unicode="&#x1a4;" horiz-adv-x="2334" 
d="M580 0l289 1738h-90q-197 0 -236 -252l-17 -105h-334l28 179q34 220 198 354t409 134h861q230 0 380 -88t206 -239.5t23 -350.5q-24 -148 -92 -271.5t-173.5 -214.5t-253 -141.5t-321.5 -50.5h-391l-115 -692h-371zM1117 997h341q200 0 317 101t144 272q28 170 -55.5 269
t-283.5 99h-340z" />
    <glyph glyph-name="uni01A5" unicode="&#x1a5;" horiz-adv-x="1759" 
d="M670 1536l-43 -254h23q178 274 484 274q134 0 240 -51.5t176 -151.5t93.5 -247.5t-7.5 -339.5q-40 -247 -153.5 -428.5t-271.5 -273t-340 -91.5q-300 0 -394 269h-18l-135 -818h-362l352 2112q32 200 164 296.5t368 96.5q113 0 186 -20l-43 -256q-63 14 -113 16
q-96 1 -146 -31t-60 -102zM821 270q174 0 291 137t155 361q36 222 -36 356.5t-247 134.5q-173 0 -290 -132t-153 -359q-37 -227 36.5 -362.5t243.5 -135.5z" />
    <glyph glyph-name="uni01A6" unicode="&#x1a6;" horiz-adv-x="2109" 
d="M346 2004h2l24 140h387l-24 -140h351q354 0 523 -156.5t121 -449.5q-63 -395 -459 -553l491 -1314l-2 -17h-413l-450 1238h-369l-125 -752h-389zM580 1060h351q173 0 280.5 85.5t129.5 227.5q26 151 -49.5 235t-255.5 84h-351z" />
    <glyph glyph-name="uni01A7" unicode="&#x1a7;" horiz-adv-x="1826" 
d="M624 1475h-357q52 268 282 434.5t555 166.5q214 0 372.5 -74.5t233.5 -213t46 -316.5q-68 -408 -636 -550l-242 -60q-94 -23 -160.5 -46.5t-123.5 -56.5t-90 -78t-42 -103q-22 -131 78 -211.5t282 -80.5q181 0 312.5 82t166.5 237h365q-40 -201 -162.5 -345t-311 -217.5
t-426.5 -73.5q-363 0 -541.5 165.5t-134.5 440.5q17 103 65 190.5t114 150t153.5 112.5t176 82t189.5 55l200 48q58 13 106.5 28t100.5 39.5t89 53.5t64.5 70.5t34.5 90.5q19 119 -68 193t-258 74q-166 0 -278 -74t-155 -213z" />
    <glyph glyph-name="uni01A8" unicode="&#x1a8;" horiz-adv-x="1555" 
d="M213 1130q72 201 250.5 313.5t447.5 112.5q181 0 310.5 -55t189 -158t37.5 -241q-57 -350 -513 -444l-270 -55q-111 -23 -164.5 -62t-63.5 -101q-16 -84 58.5 -141t206.5 -56q248 2 329 210l345 -34q-69 -212 -263.5 -330.5t-480.5 -118.5q-284 0 -442 132.5t-124 344.5
q56 332 508 427l273 56q119 27 173.5 66t63.5 101q16 82 -55 135.5t-190 53.5q-114 0 -191 -53.5t-114 -138.5z" />
    <glyph glyph-name="uni01A9" unicode="&#x1a9;" horiz-adv-x="1854" 
d="M1564 315l-52 -315h-1445l36 210l761 802l-496 804l36 212h1403l-52 -317h-880l399 -686l-2 -23l-629 -687h921z" />
    <glyph glyph-name="uni01AA" unicode="&#x1aa;" horiz-adv-x="1731" 
d="M319 1630q17 108 75.5 206t142.5 169.5t191 114t217 42.5q145 0 257.5 -71.5t165.5 -194t30 -266.5l-280 -1676q-38 -235 152 -235q52 0 114 12l-47 -291q-81 -22 -196 -22q-233 0 -335.5 138t-59.5 398l194 1171q-84 -27 -172 -27q-146 0 -258.5 71.5t-164 194
t-26.5 266.5zM825 1420q88 0 154 55t83 159q16 100 -32.5 155t-135.5 55q-94 0 -161 -55t-83 -155q-17 -104 31.5 -159t143.5 -55z" />
    <glyph glyph-name="uni01AB" unicode="&#x1ab;" horiz-adv-x="1090" 
d="M1081 1536l-47 -280h-304l-131 -792q-17 -101 20.5 -139.5t115.5 -38.5q24 0 73 7l109 22l-73 -433q-36 -215 -177 -335.5t-342 -120.5q-102 0 -161 16l40 255q56 -8 97 -8q47 0 87 9t78.5 29.5t64.5 60t35 94.5l17 100q-191 9 -290 118.5t-64 304.5l140 851h-217l46 280
h217l61 368h362l-61 -368h304z" />
    <glyph glyph-name="uni01AC" unicode="&#x1ac;" horiz-adv-x="1960" 
d="M2060 2048l-52 -311h-633l-288 -1737h-368l288 1737h-225q-107 0 -163 -69t-73 -174l-19 -104h-313l29 171q37 225 193 356t398 131h1226z" />
    <glyph glyph-name="uni01AD" unicode="&#x1ad;" horiz-adv-x="1210" 
d="M1134 1488l-46 -270h-266l-128 -766q-16 -97 18.5 -135.5t112.5 -38.5q40 0 120 11l-46 -283q-105 -34 -241 -34q-193 0 -284.5 109.5t-54.5 340.5l132 796h-235l46 270h234l15 90h1l21 126q21 125 75.5 216.5t134.5 143t170.5 75t197.5 23.5t187 -22l-40 -246
q-48 12 -93 12q-100 0 -171.5 -46.5t-90.5 -155.5l-34 -216h265z" />
    <glyph glyph-name="uni01AE" unicode="&#x1ae;" horiz-adv-x="1858" 
d="M985 0l-20 -118q-8 -47 4.5 -80.5t43.5 -50t67 -23.5t83 -7h83l-49 -297h-178q-65 0 -122.5 9.5t-112 30.5t-93 56t-67 86t-34 119.5t6.5 156.5l20 118l288 1737h-633l52 311h1634l-52 -311h-633z" />
    <glyph glyph-name="uni01AF" unicode="&#x1af;" horiz-adv-x="2446" 
d="M2300 2138h261q-47 -282 -181 -437.5t-392 -186.5l-136 -820q-23 -137 -83.5 -253.5t-149.5 -202.5t-202 -147t-243.5 -91.5t-272.5 -30.5q-179 0 -323 48.5t-240.5 139.5t-136.5 229t-11 308l224 1354h371l-223 -1345q-20 -123 25.5 -215t141 -138.5t225.5 -46.5
q199 0 349 108t181 292l222 1345h370l-52 -312q68 15 116 48.5t78.5 88t48.5 115.5t33 150z" />
    <glyph glyph-name="uni01B0" unicode="&#x1b0;" horiz-adv-x="1914" 
d="M1865 1615h233q-38 -238 -154 -359.5t-354 -141.5l-186 -1114h-351l46 273h-16q-74 -133 -209 -213t-303 -80q-231 0 -346 153t-70 425l164 978h362l-154 -922q-22 -146 43 -232t195 -86q83 0 162 37.5t141.5 119t80.5 193.5l149 890h362l-40 -238q67 9 110.5 31.5
t69.5 66t39 91t26 128.5z" />
    <glyph glyph-name="uni01B1" unicode="&#x1b1;" horiz-adv-x="2176" 
d="M170 947q43 261 179 456.5t345 317.5l4 16h-397l52 311h784l-66 -392q-124 -48 -233.5 -146.5t-188.5 -239.5t-105 -300q-30 -187 18.5 -338.5t166 -238.5t283.5 -87t312.5 87t244 238.5t127.5 338.5q40 239 -45.5 425.5t-252.5 260.5l65 392h784l-52 -311h-397l-3 -15
q170 -120 241 -316t28 -459q-46 -282 -203.5 -504.5t-394 -346.5t-510.5 -124t-469.5 124t-279.5 346.5t-37 504.5z" />
    <glyph glyph-name="uni01B2" unicode="&#x1b2;" horiz-adv-x="1846" 
d="M793 -28q-169 0 -302 45.5t-222.5 132.5t-124.5 221.5t-7 303.5l219 1329h385l-219 -1329q-33 -196 49.5 -295.5t271.5 -99.5q188 0 302.5 99.5t147.5 295.5l133 819q22 121 -15.5 170t-147.5 49q-63 0 -114 -10l50 303q93 24 194 24q238 0 353 -140.5t71 -395.5
l-134 -819q-37 -224 -167 -385t-315.5 -239.5t-407.5 -78.5z" />
    <glyph glyph-name="uni01B3" unicode="&#x1b3;" horiz-adv-x="2145" 
d="M1829 1566l-601 -757l-135 -809h-370l135 809l-572 1239h409l392 -906h24l432 563l74 99q75 100 163 163.5t177.5 86.5t177.5 16t171 -43l-129 -283q-85 34 -156 8.5t-142 -121.5z" />
    <glyph glyph-name="uni01B4" unicode="&#x1b4;" horiz-adv-x="1714" 
d="M1504 1286l-757 -1509q-37 -74 -93.5 -139.5t-130.5 -120t-169 -86t-198 -31.5q-113 0 -182 25l47 293q30 -6 87 -6q134 0 215.5 51t138.5 163l48 101l-304 1509h381l175 -982l416 832l47 96q78 154 195 261t273 131q158 34 313 -31l-89 -274l-2 1q-24 8 -32.5 11
t-31.5 9t-33 4.5t-36 -2.5q-76 -11 -128.5 -67.5t-117.5 -180.5z" />
    <glyph glyph-name="uni01B5" unicode="&#x1b5;" horiz-adv-x="1838" 
d="M36 0l40 231l627 727h-205l40 229h363l474 550h-1057l52 311h1516l-37 -231l-545 -630h193l-40 -229h-351l-559 -647h1057l-52 -311h-1516z" />
    <glyph glyph-name="uni01B6" unicode="&#x1b6;" horiz-adv-x="1585" 
d="M39 0l39 230l410 429h-199l40 229h377l320 335l4 13h-783l51 300h1232l-40 -247l-373 -401h171l-40 -229h-344l-322 -346l-4 -13h766l-49 -300h-1256z" />
    <glyph glyph-name="uni01B7" unicode="&#x1b7;" horiz-adv-x="1896" 
d="M688 -576q-222 0 -388.5 90t-245 253t-45.5 367h378q-12 -162 85.5 -271t278.5 -109q213 0 375 146.5t199 364.5q36 226 -94.5 364.5t-402.5 138.5h-274l45 273l715 680v16h-1019l52 311h1515l-40 -254l-826 -772l-4 -16q235 -7 405.5 -108t246.5 -275t40 -390
q-28 -171 -120.5 -321.5t-226 -257.5t-302.5 -168.5t-347 -61.5z" />
    <glyph glyph-name="uni01B8" unicode="&#x1b8;" horiz-adv-x="1906" 
d="M771 -576q-178 0 -326.5 61.5t-246.5 168.5t-140.5 257.5t-14.5 321.5q36 216 169 390t337 275t442 108l1 16l-570 772l44 254h1515l-51 -311h-1019l-5 -16l490 -680l-46 -273h-274q-272 0 -448.5 -138.5t-214.5 -364.5q-35 -218 78.5 -364.5t326.5 -146.5q181 0 314 109
t175 271h378q-34 -204 -166.5 -367t-329 -253t-418.5 -90z" />
    <glyph glyph-name="uni01B9" unicode="&#x1b9;" horiz-adv-x="1833" 
d="M1547 45q-59 -259 -294 -422t-552 -163q-218 0 -378 78t-233.5 217t-44.5 314q19 114 74.5 213.5t144 178t214.5 130.5t278 69l2 16l-462 606l46 254h1322l-50 -305h-862l-2 -16l391 -523l-41 -267h-229q-172 0 -293.5 -94t-147.5 -243q-23 -140 66 -228.5t252 -88.5
q153 0 270 76t154 198h375z" />
    <glyph glyph-name="uni01BA" unicode="&#x1ba;" horiz-adv-x="1587" 
d="M334 1488h1227l-36 -213l-500 -381q161 -48 238.5 -157.5t54.5 -250.5q-13 -80 -53.5 -146t-96.5 -112.5t-134.5 -84.5t-158 -62t-176.5 -44q-130 -26 -206.5 -57.5t-107.5 -65t-37 -79.5q-13 -78 49 -121.5t181 -43.5q55 0 105.5 11.5t98.5 36t83 71t49 109.5h355
q-16 -93 -74 -181t-149 -159t-223.5 -114.5t-283.5 -43.5q-283 0 -432.5 127t-116.5 327q31 185 186.5 293t446.5 163q181 35 251.5 74.5t83.5 117.5q14 73 -40 114.5t-168 41.5h-302l36 218l454 315h-652z" />
    <glyph glyph-name="uni01BB" unicode="&#x1bb;" horiz-adv-x="1766" 
d="M70 0l46 268l825 697q2 2 5.5 5t4.5 4h-145l40 229h348q120 134 140 260q23 142 -57.5 227t-230.5 85q-153 0 -263 -92t-137 -248h-356q31 191 145.5 337.5t285.5 225t371 78.5q152 0 272 -48t193 -131.5t103.5 -195.5t11.5 -239q-23 -140 -96 -259h229l-40 -229h-375
q-123 -125 -324 -291l-413 -359l-3 -14h876l-52 -310h-1404z" />
    <glyph glyph-name="uni01BC" unicode="&#x1bc;" horiz-adv-x="1754" 
d="M803 -28q-301 0 -476 166t-141 419h357q-11 -125 70.5 -205t221.5 -80q168 0 296.5 113t156.5 289q27 171 -60.5 280t-253.5 109q-95 0 -191 -36t-160 -93l-335 58l195 737h-225l53 319h1455l-52 -319h-882l-147 -534l9 3q69 69 178.5 111t230.5 42q178 0 313 -88
t197 -246.5t31 -353.5q-49 -302 -284 -496.5t-557 -194.5z" />
    <glyph glyph-name="uni01BD" unicode="&#x1bd;" horiz-adv-x="1736" 
d="M651 638l-328 19l157 533h-232l50 298h1285l-49 -298h-710l-84 -273q54 28 140 49.5t173 23.5q255 3 376.5 -130t83.5 -374q-19 -112 -71 -202.5t-138.5 -160.5t-218 -108.5t-296.5 -38.5q-96 0 -184.5 17t-165 53.5t-129.5 89.5t-76.5 130.5t-7.5 169.5l368 21
q-11 -86 55 -133t189 -47q134 0 212 61.5t96 167.5q17 103 -43.5 164t-187.5 61q-171 0 -264 -93z" />
    <glyph glyph-name="uni01BE" unicode="&#x1be;" horiz-adv-x="1587" 
d="M1010 409q6 35 -2.5 64t-35 56t-48.5 43.5t-66 44.5q-30 20 -45.5 30.5t-44 32t-44.5 37.5t-39 42.5t-35 50.5t-25 58t-17.5 69.5t-4 80t8.5 93.5l18 107h-235l46 270h234l62 366h373l-61 -366h264l-46 -270h-263l-18 -107q-5 -29 -4.5 -55.5t3.5 -47.5t12.5 -41.5
t17.5 -35t25.5 -32t28 -27t33 -25t34 -23t36.5 -22.5q29 -18 45 -28t42 -28.5t40.5 -34t33.5 -38.5t27.5 -47t16 -54.5t7 -67t-7.5 -78.5q-33 -200 -226 -327t-475 -127q-122 0 -223.5 28.5t-169 77.5t-111.5 113.5t-58.5 136t-2.5 145.5h357q-8 -63 11 -109.5t58 -72
t86 -37.5t102 -12q121 0 197.5 45t88.5 122z" />
    <glyph glyph-name="uni01BF" unicode="&#x1bf;" horiz-adv-x="1858" 
d="M709 1340q178 176 425 176q189 0 308.5 -95.5t159 -264t2.5 -395.5l-6 -31q-27 -161 -91.5 -292t-159.5 -231t-232 -182.5t-293.5 -143t-358.5 -114.5l-56 -339h-373l340 2060h346zM511 59q295 74 482 239.5t231 431.5l6 31q17 92 10.5 174.5t-31.5 145t-82.5 99
t-142.5 36.5q-199 0 -309 -159z" />
    <glyph glyph-name="uni01C0" unicode="&#x1c0;" horiz-adv-x="812" 
d="M733 2024l-335 -2024h-240l336 2024h239z" />
    <glyph glyph-name="uni01C1" unicode="&#x1c1;" horiz-adv-x="1075" 
d="M690 2024l-335 -2024h-240l336 2024h239zM1060 2024l-335 -2024h-240l336 2024h239z" />
    <glyph glyph-name="uni01C2" unicode="&#x1c2;" horiz-adv-x="1083" 
d="M877 2024l-84 -505h267l-40 -229h-264l-70 -421h406l-40 -229h-404l-106 -640h-240l106 640h-315l40 229h313l70 421h-455l40 229h453l84 505h239z" />
    <glyph glyph-name="uni01C3" unicode="&#x1c3;" horiz-adv-x="874" 
d="M839 2048l-272 -1446h-320l207 1446h385zM324 -29q-94 0 -154 62.5t-52 153.5q7 90 78.5 153t165.5 63q95 0 155 -62.5t52 -153.5q-7 -91 -78.5 -153.5t-166.5 -62.5z" />
    <glyph glyph-name="uni01C5" unicode="&#x1c5;" horiz-adv-x="3625" 
d="M778 0h-704l340 2048h698q458 0 677.5 -279t138.5 -763q-78 -474 -380.5 -740t-769.5 -266zM498 321h299q320 0 515.5 183t254.5 543q58 343 -69.5 511.5t-440.5 168.5h-325zM2079 0l39 230l948 993l4 13h-783l51 300h1232l-40 -247l-908 -976l-4 -13h766l-49 -300h-1256
zM2823 2113l190 -208l260 208h296l-4 -14l-474 -384h-219l-351 384l4 14h298z" />
    <glyph glyph-name="uni01C6" unicode="&#x1c6;" horiz-adv-x="3046" 
d="M1448 0h-356l40 242h-23q-180 -269 -483 -269q-136 0 -243 52.5t-175.5 154t-92 249t8.5 337.5q31 187 104.5 338.5t175.5 249.5t225.5 150t257.5 52q307 0 393 -274h16l128 766h362zM1490 0l39 230l948 993l4 13h-783l51 300h1232l-40 -247l-908 -976l-4 -13h766
l-49 -300h-1256zM1219 768q39 227 -34 359t-246 132q-175 0 -291.5 -134.5t-154.5 -356.5q-36 -223 36 -360.5t245 -137.5q171 0 289 135.5t156 362.5zM2266 2048l190 -208l260 208h296l-4 -14l-474 -384h-219l-351 384l4 14h298z" />
    <glyph glyph-name="uni01C7" unicode="&#x1c7;" horiz-adv-x="3195" 
d="M74 0l340 2048h371l-288 -1737h902l-52 -311h-1273zM2579 613l237 1435h368l-240 -1445q-49 -295 -252.5 -463t-503.5 -168q-137 0 -247.5 37t-186 107t-106.5 180t-8 248h364q-18 -127 44 -197t186 -70q136 0 226.5 87.5t118.5 248.5z" />
    <glyph glyph-name="uni01C8" unicode="&#x1c8;" horiz-adv-x="2727" 
d="M351 0l340 2048h371l-288 -1737h902l-52 -311h-1273zM2164 1536h362l-267 -1613q-40 -244 -205.5 -371.5t-418.5 -127.5h-114l51 298h72q119 0 177.5 53t76.5 153zM2397 1741q-86 0 -146.5 57.5t-56.5 139.5t68.5 139.5t149.5 57.5t144 -57.5t57 -139.5t-66 -139.5
t-150 -57.5z" />
    <glyph glyph-name="uni01C9" unicode="&#x1c9;" horiz-adv-x="1458" 
d="M1009 1536h362l-267 -1613q-40 -244 -205.5 -371.5t-418.5 -127.5h-114l51 298h72q119 0 177.5 53t76.5 153zM760 2048l-340 -2048h-362l340 2048h362zM1242 1741q-86 0 -146.5 57.5t-56.5 139.5t68.5 139.5t149.5 57.5t144 -57.5t57 -139.5t-66 -139.5t-150 -57.5z" />
    <glyph glyph-name="uni01CA" unicode="&#x1ca;" horiz-adv-x="3688" 
d="M2097 2048l-340 -2048h-330l-733 1395h-16l-233 -1395h-371l340 2048h332l732 -1396h19l231 1396h369zM3071 613l237 1435h368l-240 -1445q-49 -295 -252.5 -463t-503.5 -168q-137 0 -247.5 37t-186 107t-106.5 180t-8 248h364q-18 -127 44 -197t186 -70
q136 0 226.5 87.5t118.5 248.5z" />
    <glyph glyph-name="uni01CB" unicode="&#x1cb;" horiz-adv-x="2788" 
d="M2097 2048l-340 -2048h-330l-733 1395h-16l-233 -1395h-371l340 2048h332l732 -1396h19l231 1396h369zM2338 1536h362l-267 -1613q-40 -244 -205.5 -371.5t-418.5 -127.5h-114l51 298h72q119 0 177.5 53t76.5 153zM2571 1741q-86 0 -146.5 57.5t-56.5 139.5t68.5 139.5
t149.5 57.5t144 -57.5t57 -139.5t-66 -139.5t-150 -57.5z" />
    <glyph glyph-name="uni01CC" unicode="&#x1cc;" horiz-adv-x="2450" 
d="M570 900l-148 -900h-363l256 1536h347l-44 -261h19q73 132 204.5 206.5t300.5 74.5q239 0 357 -152.5t73 -425.5l-164 -978h-362l153 922q26 154 -39 241t-206 87q-145 0 -250 -93t-134 -257zM2031 1536h362l-267 -1613q-40 -244 -205.5 -371.5t-418.5 -127.5h-114
l51 298h72q119 0 177.5 53t76.5 153zM2264 1741q-86 0 -146.5 57.5t-56.5 139.5t68.5 139.5t149.5 57.5t144 -57.5t57 -139.5t-66 -139.5t-150 -57.5z" />
    <glyph glyph-name="uni01CD" unicode="&#x1cd;" horiz-adv-x="2038" 
d="M337 0h-396l1061 2048h458l382 -2048h-396l-85 505h-770zM740 803h570l-139 825h-16zM1094 2585l190 -208l260 208h296l-4 -14l-474 -384h-219l-351 384l4 14h298z" />
    <glyph glyph-name="uni01CE" unicode="&#x1ce;" horiz-adv-x="1618" 
d="M496 -31q-227 0 -350.5 121.5t-87.5 340.5q14 84 47 152t83 116t107.5 83t130.5 58t141.5 36t150.5 22q229 24 290 40q86 24 107 77q5 11 7 25q18 116 -37.5 177.5t-182.5 61.5q-125 0 -215 -54.5t-134 -140.5l-328 48q91 206 283 315t444 109q91 0 172 -15.5t157 -54
t126.5 -97t72.5 -151.5t2 -210l-171 -1028h-348l36 211h-12q-71 -106 -196 -174t-295 -68zM633 235q159 0 273 92t136 224l30 181q-48 -35 -343 -75q-137 -19 -221 -70.5t-99 -149.5q-16 -97 46 -149.5t178 -52.5zM824 2113l190 -208l260 208h296l-4 -14l-474 -384h-219
l-351 384l4 14h298z" />
    <glyph glyph-name="uni01CF" unicode="&#x1cf;" horiz-adv-x="774" 
d="M785 2048l-340 -2048h-371l340 2048h371zM460 2585l190 -208l260 208h296l-4 -14l-474 -384h-219l-351 384l4 14h298z" />
    <glyph glyph-name="uni01D0" unicode="&#x1d0;" horiz-adv-x="734" 
d="M58 0l256 1536h362l-256 -1536h-362zM365 2115l190 -208l260 208h296l-4 -14l-474 -384h-219l-351 384l4 14h298z" />
    <glyph glyph-name="uni01D1" unicode="&#x1d1;" horiz-adv-x="2182" 
d="M2070 1000q-40 -239 -142 -434.5t-246 -324.5t-323.5 -199t-376.5 -70q-206 0 -370.5 73t-270.5 211.5t-146.5 337.5t1.5 451q40 239 142 435t246.5 325.5t325 200t379.5 70.5q204 0 367.5 -73.5t269.5 -212t146 -338t-2 -452.5zM1705 1045q55 334 -64 516t-367 182
q-266 0 -461 -196.5t-251 -546.5q-29 -171 -11 -301t77.5 -217.5t152 -132t213.5 -44.5q130 0 246 49t209.5 142t160 233.5t95.5 315.5zM1163 2585l190 -208l260 208h296l-4 -14l-474 -384h-219l-351 384l4 14h298z" />
    <glyph glyph-name="uni01D2" unicode="&#x1d2;" horiz-adv-x="1718" 
d="M737 -30q-224 0 -376.5 100t-213 281.5t-21.5 419.5q57 355 290 570t566 215q168 0 298 -58t207 -163.5t107 -253.5t-1 -329q-58 -354 -291 -568t-565 -214zM766 260q182 0 305 144t159 369q19 103 9.5 193.5t-40.5 158t-94.5 106t-152.5 38.5q-122 0 -221 -70
t-159 -184.5t-84 -260.5q-19 -104 -9 -194t41 -157t94.5 -105t151.5 -38zM856 2113l190 -208l260 208h296l-4 -14l-474 -384h-219l-351 384l4 14h298z" />
    <glyph glyph-name="uni01D3" unicode="&#x1d3;" horiz-adv-x="2066" 
d="M1706 2048h370l-224 -1354q-23 -137 -83.5 -253.5t-149.5 -202.5t-202 -147t-243.5 -91.5t-272.5 -30.5q-179 0 -323 48.5t-240.5 139.5t-136.5 229t-11 308l224 1354h371l-223 -1345q-20 -123 25.5 -215t141 -138.5t225.5 -46.5q199 0 349 108t181 292zM1107 2585
l190 -208l260 208h296l-4 -14l-474 -384h-219l-351 384l4 14h298z" />
    <glyph glyph-name="uni01D4" unicode="&#x1d4;" horiz-adv-x="1713" 
d="M1144 646l149 890h362l-256 -1536h-351l46 273h-16q-74 -133 -209 -213t-303 -80q-231 0 -346 153t-70 425l164 978h362l-154 -922q-22 -146 43 -232t195 -86q83 0 162 37.5t141.5 119t80.5 193.5zM851 2113l190 -208l260 208h296l-4 -14l-474 -384h-219l-351 384l4 14
h298z" />
    <glyph glyph-name="uni01D5" unicode="&#x1d5;" horiz-adv-x="2066" 
d="M1706 2048h370l-224 -1354q-23 -137 -83.5 -253.5t-149.5 -202.5t-202 -147t-243.5 -91.5t-272.5 -30.5q-179 0 -323 48.5t-240.5 139.5t-136.5 229t-11 308l224 1354h371l-223 -1345q-20 -123 25.5 -215t141 -138.5t225.5 -46.5q199 0 349 108t181 292zM1860 2864
l-36 -226h-964l37 226h963zM804 2360q10 68 67 114t137 46q83 0 126 -45.5t33 -114.5q-13 -69 -70.5 -113.5t-139.5 -44.5t-123.5 45t-29.5 113zM1426 2360q10 67 68 112.5t140 45.5q80 0 122 -45.5t32 -112.5q-12 -68 -69 -114t-139 -46t-124.5 45.5t-29.5 114.5z" />
    <glyph glyph-name="uni01D6" unicode="&#x1d6;" horiz-adv-x="1713" 
d="M1144 646l149 890h362l-256 -1536h-351l46 273h-16q-74 -133 -209 -213t-303 -80q-231 0 -346 153t-70 425l164 978h362l-154 -922q-22 -146 43 -232t195 -86q83 0 162 37.5t141.5 119t80.5 193.5zM1619 2427l-39 -226h-966l39 226h966zM1187 1882q10 72 70 122t142 50
q81 0 125 -50t33 -122q-12 -70 -71.5 -118.5t-141.5 -48.5t-125.5 48.5t-31.5 118.5zM524 1884q11 71 71.5 120.5t141.5 49.5q82 0 125 -49.5t33 -120.5q-11 -71 -71 -119t-141 -48q-82 0 -126 48t-33 119z" />
    <glyph glyph-name="uni01D7" unicode="&#x1d7;" horiz-adv-x="2066" 
d="M1706 2048h370l-224 -1354q-23 -137 -83.5 -253.5t-149.5 -202.5t-202 -147t-243.5 -91.5t-272.5 -30.5q-179 0 -323 48.5t-240.5 139.5t-136.5 229t-11 308l224 1354h371l-223 -1345q-20 -123 25.5 -215t141 -138.5t225.5 -46.5q199 0 349 108t181 292zM1581 2216
q-74 0 -119.5 48.5t-35.5 115.5q13 70 74.5 117t136.5 47q79 0 122.5 -47t31.5 -117q-10 -67 -70.5 -115.5t-139.5 -48.5zM955 2216q-73 0 -118 48t-35 116q13 69 74 116.5t135 47.5q80 0 124 -47t32 -117q-10 -68 -71.5 -116t-140.5 -48zM1196 2499l224 280h284l-301 -280
h-207z" />
    <glyph glyph-name="uni01D8" unicode="&#x1d8;" horiz-adv-x="1713" 
d="M1144 646l149 890h362l-256 -1536h-351l46 273h-16q-74 -133 -209 -213t-303 -80q-231 0 -346 153t-70 425l164 978h362l-154 -922q-22 -146 43 -232t195 -86q83 0 162 37.5t141.5 119t80.5 193.5zM925 2163l336 449h392l-427 -449h-301zM749 1725q-81 0 -136 55.5
t-53 133.5t61.5 133.5t140.5 55.5q79 0 133.5 -55.5t52.5 -133.5t-60.5 -133.5t-138.5 -55.5zM1347 1725q-81 0 -136.5 55.5t-53.5 133.5q3 78 62.5 133.5t140.5 55.5q79 0 133.5 -55.5t51.5 -133.5q-1 -78 -60 -133.5t-138 -55.5z" />
    <glyph glyph-name="uni01D9" unicode="&#x1d9;" horiz-adv-x="2066" 
d="M1706 2048h370l-224 -1354q-23 -137 -83.5 -253.5t-149.5 -202.5t-202 -147t-243.5 -91.5t-272.5 -30.5q-179 0 -323 48.5t-240.5 139.5t-136.5 229t-11 308l224 1354h371l-223 -1345q-20 -123 25.5 -215t141 -138.5t225.5 -46.5q199 0 349 108t181 292zM1191 2866
l164 -159l216 159h318l-4 -22l-436 -312h-250l-329 312l4 22h317zM1428 2376q10 67 67.5 112.5t140.5 45.5q79 0 121.5 -45t33.5 -113q-13 -68 -70.5 -114t-137.5 -46q-84 0 -126 46t-29 114zM807 2376q10 68 66.5 114t137.5 46q82 0 124 -45.5t32 -114.5
q-12 -70 -68.5 -114t-139.5 -44q-81 0 -123 45.5t-29 112.5z" />
    <glyph glyph-name="uni01DA" unicode="&#x1da;" horiz-adv-x="1713" 
d="M1144 646l149 890h362l-256 -1536h-351l46 273h-16q-74 -133 -209 -213t-303 -80q-231 0 -346 153t-70 425l164 978h362l-154 -922q-22 -146 43 -232t195 -86q83 0 162 37.5t141.5 119t80.5 193.5zM942 2543l173 -205l238 205h316v-16l-469 -385h-235l-340 386v15h317z
M1186 1882q10 72 70.5 122t142.5 50q81 0 125.5 -50t34.5 -122q-12 -70 -72.5 -118.5t-142.5 -48.5t-126 48.5t-32 118.5zM526 1884q10 71 69.5 120.5t140.5 49.5q82 0 126 -49t34 -121q-11 -72 -71.5 -119.5t-142.5 -47.5q-81 0 -124.5 48t-31.5 119z" />
    <glyph glyph-name="uni01DB" unicode="&#x1db;" horiz-adv-x="2066" 
d="M1706 2048h370l-224 -1354q-23 -137 -83.5 -253.5t-149.5 -202.5t-202 -147t-243.5 -91.5t-272.5 -30.5q-179 0 -323 48.5t-240.5 139.5t-136.5 229t-11 308l224 1354h371l-223 -1345q-20 -123 25.5 -215t141 -138.5t225.5 -46.5q199 0 349 108t181 292zM805 2376
q11 68 68 114t136 46q83 0 126 -45.5t32 -114.5t-68.5 -113.5t-140.5 -44.5q-81 0 -123 45.5t-30 112.5zM1426 2376q11 67 69.5 112.5t138.5 45.5q82 0 124 -45.5t31 -112.5q-12 -68 -68.5 -114t-139.5 -46q-81 0 -123.5 45.5t-31.5 114.5zM1307 2779l132 -280h-208
l-206 280h282z" />
    <glyph glyph-name="uni01DC" unicode="&#x1dc;" horiz-adv-x="1713" 
d="M1144 646l149 890h362l-256 -1536h-351l46 273h-16q-74 -133 -209 -213t-303 -80q-231 0 -346 153t-70 425l164 978h362l-154 -922q-22 -146 43 -232t195 -86q83 0 162 37.5t141.5 119t80.5 193.5zM1060 2540l207 -420h-308l-314 420h415zM1184 1882q11 72 72 122t143 50
q81 0 125 -50t33 -122q-12 -70 -71.5 -118.5t-141.5 -48.5t-127 48.5t-33 118.5zM524 1884q11 71 70.5 120.5t140.5 49.5q82 0 126 -49t34 -121q-11 -71 -71.5 -119t-143.5 -48q-80 0 -123.5 48t-32.5 119z" />
    <glyph glyph-name="uni01DD" unicode="&#x1dd;" horiz-adv-x="1678" 
d="M940 1566q230 0 383 -96.5t212.5 -275t19.5 -417.5q-39 -235 -158 -416t-301.5 -281t-399.5 -100q-145 0 -261.5 45.5t-200 140.5t-112 241.5t1.5 348.5l17 111h1070l1 5q67 412 -324 412q-119 0 -212 -50.5t-146 -147.5l-331 38q84 203 280 322.5t461 119.5zM1169 623
h-719q-26 -158 53 -259.5t233 -101.5q152 0 277 109t156 252z" />
    <glyph glyph-name="uni01DE" unicode="&#x1de;" horiz-adv-x="2038" 
d="M337 0h-396l1061 2048h458l382 -2048h-396l-85 505h-770zM740 803h570l-139 825h-16zM1847 2864l-36 -226h-964l37 226h963zM791 2360q10 68 67 114t137 46q83 0 126 -45.5t33 -114.5q-13 -69 -70.5 -113.5t-139.5 -44.5t-123.5 45t-29.5 113zM1413 2360q10 67 68 112.5
t140 45.5q80 0 122 -45.5t32 -112.5q-12 -68 -69 -114t-139 -46t-124.5 45.5t-29.5 114.5z" />
    <glyph glyph-name="uni01DF" unicode="&#x1df;" horiz-adv-x="1618" 
d="M496 -31q-227 0 -350.5 121.5t-87.5 340.5q14 84 47 152t83 116t107.5 83t130.5 58t141.5 36t150.5 22q229 24 290 40q86 24 107 77q5 11 7 25q18 116 -37.5 177.5t-182.5 61.5q-125 0 -215 -54.5t-134 -140.5l-328 48q91 206 283 315t444 109q91 0 172 -15.5t157 -54
t126.5 -97t72.5 -151.5t2 -210l-171 -1028h-348l36 211h-12q-71 -106 -196 -174t-295 -68zM633 235q159 0 273 92t136 224l30 181q-48 -35 -343 -75q-137 -19 -221 -70.5t-99 -149.5q-16 -97 46 -149.5t178 -52.5zM1591 2427l-39 -226h-966l39 226h966zM1159 1882
q10 72 70 122t142 50q81 0 125 -50t33 -122q-12 -70 -71.5 -118.5t-141.5 -48.5t-125.5 48.5t-31.5 118.5zM496 1884q11 71 71.5 120.5t141.5 49.5q82 0 125 -49.5t33 -120.5q-11 -71 -71 -119t-141 -48q-82 0 -126 48t-33 119z" />
    <glyph glyph-name="uni01E0" unicode="&#x1e0;" horiz-adv-x="2038" 
d="M337 0h-396l1061 2048h458l382 -2048h-396l-85 505h-770zM740 803h570l-139 825h-16zM1849 2863l-35 -226h-966l36 226h965zM1103 2367q10 67 67.5 112.5t140.5 45.5q81 0 123 -45.5t32 -112.5q-12 -69 -69.5 -114.5t-139.5 -45.5q-84 0 -125.5 45.5t-28.5 114.5z" />
    <glyph glyph-name="uni01E1" unicode="&#x1e1;" horiz-adv-x="1618" 
d="M496 -31q-227 0 -350.5 121.5t-87.5 340.5q14 84 47 152t83 116t107.5 83t130.5 58t141.5 36t150.5 22q229 24 290 40q86 24 107 77q5 11 7 25q18 116 -37.5 177.5t-182.5 61.5q-125 0 -215 -54.5t-134 -140.5l-328 48q91 206 283 315t444 109q91 0 172 -15.5t157 -54
t126.5 -97t72.5 -151.5t2 -210l-171 -1028h-348l36 211h-12q-71 -106 -196 -174t-295 -68zM633 235q159 0 273 92t136 224l30 181q-48 -35 -343 -75q-137 -19 -221 -70.5t-99 -149.5q-16 -97 46 -149.5t178 -52.5zM1596 2472l-36 -224h-966l37 224h965zM822 1913
q11 79 73 130.5t150 51.5q89 0 133.5 -51.5t33.5 -130.5q-14 -78 -75 -128t-149 -50q-89 0 -134.5 50t-31.5 128z" />
    <glyph glyph-name="uni01E2" unicode="&#x1e2;" horiz-adv-x="2863" 
d="M-59 0l1255 2048h1702l-52 -311h-961l-92 -556h892l-52 -311h-892l-92 -559h969l-52 -311h-1340l84 505h-658l-303 -505h-408zM830 803h530l147 887h-145zM2606 2477l-35 -224h-966l36 224h965z" />
    <glyph glyph-name="uni01E3" unicode="&#x1e3;" horiz-adv-x="2586" 
d="M1656 -30q-414 0 -537 313h-14q-38 -72 -122 -142t-215.5 -121t-271.5 -51q-227 0 -350.5 121.5t-87.5 340.5q17 100 62.5 177t106 126.5t145 84t165.5 52t181 27.5q223 22 283 36q101 25 117 83q1 4 2 9q41 253 -216 253q-126 0 -216.5 -54.5t-134.5 -140.5l-328 48
q92 206 283.5 315t443.5 109q169 0 273.5 -60.5t140.5 -162.5q214 223 528 223q145 0 261 -45.5t199.5 -140.5t112.5 -241.5t-1 -348.5l-16 -96l-1075 -61q-10 -176 78 -273t255 -98q123 -1 215.5 50t138.5 139l338 -5q-65 -212 -266.5 -339t-477.5 -127zM633 235
q159 0 273 92t136 224l30 181q-48 -35 -343 -75q-137 -19 -221 -70.5t-99 -149.5q-16 -97 46 -149.5t178 -52.5zM1411 866l728 47q26 158 -53 259.5t-233 101.5q-158 0 -279.5 -109.5t-162.5 -298.5zM1957 2004l-35 -224h-966l36 224h965z" />
    <glyph glyph-name="uni01E4" unicode="&#x1e4;" horiz-adv-x="2143" 
d="M1505 549l11 61h34q42 78 57 172h-464l49 290h831l-41 -246q-32 -195 -123.5 -356t-225.5 -269.5t-305 -168.5t-360 -60q-210 0 -374 73t-264 209t-137.5 330.5t4.5 437.5q32 195 105 362.5t177 294t234 216t280 135.5t310 46q168 0 309.5 -50.5t240 -139.5t153 -216
t53.5 -276h-381q-25 165 -135 257t-293 92q-252 0 -437.5 -190t-241.5 -527q-57 -343 68 -532t387 -189q149 0 278 64.5t209 179.5h-8z" />
    <glyph glyph-name="uni01E5" unicode="&#x1e5;" horiz-adv-x="1759" 
d="M590 -590q-124 0 -224.5 23t-170.5 64.5t-117.5 92t-78.5 112.5l283 188q119 -190 358 -190q113 0 210 40t165 119.5t85 186.5l38 230h-22q-171 -254 -484 -254q-134 0 -240.5 47t-178 140.5t-96 234.5t5.5 329q31 185 105.5 334.5t176.5 247t226 149.5t258 52
q78 0 141.5 -18.5t104 -45.5t72.5 -66.5t48 -72t30 -71.5h19l42 254h356l-106 -639h299l-40 -229h-297l-106 -635q-49 -292 -284.5 -457.5t-577.5 -165.5zM780 306q151 0 257.5 94.5t156.5 267.5h-298l40 229h294q4 170 -70.5 266t-221.5 96q-175 0 -292.5 -134t-153.5 -350
q-35 -216 39 -342.5t249 -126.5z" />
    <glyph glyph-name="uni01E6" unicode="&#x1e6;" horiz-adv-x="2126" 
d="M192 1022q32 195 105 362.5t177 294t234 216t280 135.5t310 46q168 0 309.5 -50.5t240 -139.5t153 -216t53.5 -276h-381q-25 165 -135 257t-293 92q-252 0 -437.5 -190t-241.5 -527q-57 -343 68 -532t387 -189q218 0 382.5 132t198.5 345h-464l49 290h831l-41 -246
q-32 -195 -123.5 -356t-225.5 -269.5t-305 -168.5t-360 -60q-210 0 -374 73t-264 209t-137.5 330.5t4.5 437.5zM1155 2585l190 -208l260 208h296l-4 -14l-474 -384h-219l-351 384l4 14h298z" />
    <glyph glyph-name="uni01E7" unicode="&#x1e7;" horiz-adv-x="1759" 
d="M590 -590q-124 0 -224.5 23t-170.5 64.5t-117.5 92t-78.5 112.5l283 188q119 -190 358 -190q113 0 210 40t165 119.5t85 186.5l38 230h-22q-171 -254 -484 -254q-134 0 -240.5 47t-178 140.5t-96 234.5t5.5 329q31 185 105.5 334.5t176.5 247t226 149.5t258 52
q78 0 141.5 -18.5t104 -45.5t72.5 -66.5t48 -72t30 -71.5h19l42 254h356l-250 -1503q-49 -292 -284.5 -457.5t-577.5 -165.5zM780 306q173 0 287.5 123.5t150.5 345.5q37 223 -35.5 353.5t-244.5 130.5q-175 0 -292.5 -134t-153.5 -350q-35 -216 39 -342.5t249 -126.5z
M879 2113l190 -208l260 208h296l-4 -14l-474 -384h-219l-351 384l4 14h298z" />
    <glyph glyph-name="uni01E8" unicode="&#x1e8;" horiz-adv-x="1906" 
d="M74 0l340 2048h371l-155 -941h25l954 941h453l-943 -919l610 -1129h-446l-462 878l-274 -270l-102 -608h-371zM1026 2585l190 -208l260 208h296l-4 -14l-474 -384h-219l-351 384l4 14h298z" />
    <glyph glyph-name="uni01E9" unicode="&#x1e9;" horiz-adv-x="1602" 
d="M58 0l340 2048h362l-187 -1129h23l657 617h423l-706 -664l485 -872h-433l-361 657l-155 -140l-86 -517h-362zM442 2585l190 -208l260 208h296l-4 -14l-474 -384h-219l-351 384l4 14h298z" />
    <glyph glyph-name="uni01EA" unicode="&#x1ea;" horiz-adv-x="2182" 
d="M2070 1000q-70 -415 -310.5 -680t-577.5 -329q-104 -56 -164 -111t-70 -123q-20 -100 81 -100q45 0 119 28l3 -204q-111 -60 -235 -60q-132 0 -206 69t-68 195q5 171 149 305q-164 32 -291 117.5t-207 220t-106.5 315.5t9.5 402q40 239 142 435t246.5 325.5t325 200
t379.5 70.5q204 0 367.5 -73.5t269.5 -212t146 -338t-2 -452.5zM1705 1045q55 334 -64 516t-367 182q-266 0 -461 -196.5t-251 -546.5q-29 -171 -11 -301t77.5 -217.5t152 -132t213.5 -44.5q130 0 246 49t209.5 142t160 233.5t95.5 315.5z" />
    <glyph glyph-name="uni01EB" unicode="&#x1eb;" horiz-adv-x="1718" 
d="M673 -582q-132 0 -206 69t-68 195q2 81 41 161.5t112 146.5q-249 59 -362.5 267t-63.5 514q57 355 290 570t566 215q168 0 298 -58t207 -163.5t107 -253.5t-1 -329q-48 -291 -217.5 -491t-419.5 -264q-111 -59 -175.5 -116t-75.5 -127q-20 -100 81 -100q45 0 119 28
l3 -204q-111 -60 -235 -60zM766 260q182 0 305 144t159 369q19 103 9.5 193.5t-40.5 158t-94.5 106t-152.5 38.5q-122 0 -221 -70t-159 -184.5t-84 -260.5q-19 -104 -9 -194t41 -157t94.5 -105t151.5 -38z" />
    <glyph glyph-name="uni01EC" unicode="&#x1ec;" horiz-adv-x="2182" 
d="M2070 1000q-70 -415 -310.5 -680t-577.5 -329q-104 -56 -164 -111t-70 -123q-20 -100 81 -100q45 0 119 28l3 -204q-111 -60 -235 -60q-132 0 -206 69t-68 195q5 171 149 305q-164 32 -291 117.5t-207 220t-106.5 315.5t9.5 402q40 239 142 435t246.5 325.5t325 200
t379.5 70.5q204 0 367.5 -73.5t269.5 -212t146 -338t-2 -452.5zM1705 1045q55 334 -64 516t-367 182q-266 0 -461 -196.5t-251 -546.5q-29 -171 -11 -301t77.5 -217.5t152 -132t213.5 -44.5q130 0 246 49t209.5 142t160 233.5t95.5 315.5zM1859 2477l-35 -224h-966l36 224
h965z" />
    <glyph glyph-name="uni01ED" unicode="&#x1ed;" horiz-adv-x="1718" 
d="M673 -582q-132 0 -206 69t-68 195q2 81 41 161.5t112 146.5q-249 59 -362.5 267t-63.5 514q57 355 290 570t566 215q168 0 298 -58t207 -163.5t107 -253.5t-1 -329q-48 -291 -217.5 -491t-419.5 -264q-111 -59 -175.5 -116t-75.5 -127q-20 -100 81 -100q45 0 119 28
l3 -204q-111 -60 -235 -60zM766 260q182 0 305 144t159 369q19 103 9.5 193.5t-40.5 158t-94.5 106t-152.5 38.5q-122 0 -221 -70t-159 -184.5t-84 -260.5q-19 -104 -9 -194t41 -157t94.5 -105t151.5 -38zM1552 2005l-35 -224h-966l36 224h965z" />
    <glyph glyph-name="uni01EE" unicode="&#x1ee;" horiz-adv-x="1896" 
d="M688 -576q-222 0 -388.5 90t-245 253t-45.5 367h378q-12 -162 85.5 -271t278.5 -109q213 0 375 146.5t199 364.5q36 226 -94.5 364.5t-402.5 138.5h-274l45 273l715 680v16h-1019l52 311h1515l-40 -254l-826 -772l-4 -16q235 -7 405.5 -108t246.5 -275t40 -390
q-28 -171 -120.5 -321.5t-226 -257.5t-302.5 -168.5t-347 -61.5zM1005 2585l190 -208l260 208h296l-4 -14l-474 -384h-219l-351 384l4 14h298z" />
    <glyph glyph-name="uni01EF" unicode="&#x1ef;" horiz-adv-x="1842" 
d="M50 45h375q-3 -122 88.5 -198t244.5 -76q163 0 281.5 88.5t141.5 228.5q24 149 -66.5 243t-262.5 94h-229l47 267l564 523l4 16h-862l51 305h1322l-39 -254l-662 -606l-3 -16q194 -22 320 -106t173 -208t22 -277q-29 -175 -148.5 -314t-305.5 -217t-404 -78
q-209 0 -364 74t-230.5 207.5t-57.5 303.5zM926 2113l190 -208l260 208h296l-4 -14l-474 -384h-219l-351 384l4 14h298z" />
    <glyph glyph-name="uni01F0" unicode="&#x1f0;" horiz-adv-x="734" 
d="M314 1536h362l-267 -1613q-40 -244 -205.5 -371.5t-418.5 -127.5h-114l51 298h72q119 0 177.5 53t76.5 153zM362 2115l190 -208l260 208h296l-4 -14l-474 -384h-219l-351 384l4 14h298z" />
    <glyph glyph-name="uni01F1" unicode="&#x1f1;" horiz-adv-x="3878" 
d="M778 0h-704l340 2048h698q458 0 677.5 -279t138.5 -763q-78 -474 -380.5 -740t-769.5 -266zM2076 0l40 231l1299 1506h-1057l52 311h1516l-37 -231l-1302 -1506h1057l-52 -311h-1516zM498 321h299q320 0 515.5 183t254.5 543q58 343 -69.5 511.5t-440.5 168.5h-325z" />
    <glyph glyph-name="uni01F2" unicode="&#x1f2;" horiz-adv-x="3625" 
d="M778 0h-704l340 2048h698q458 0 677.5 -279t138.5 -763q-78 -474 -380.5 -740t-769.5 -266zM498 321h299q320 0 515.5 183t254.5 543q58 343 -69.5 511.5t-440.5 168.5h-325zM2079 0l39 230l948 993l4 13h-783l51 300h1232l-40 -247l-908 -976l-4 -13h766l-49 -300h-1256
z" />
    <glyph glyph-name="uni01F4" unicode="&#x1f4;" horiz-adv-x="2126" 
d="M192 1022q32 195 105 362.5t177 294t234 216t280 135.5t310 46q168 0 309.5 -50.5t240 -139.5t153 -216t53.5 -276h-381q-25 165 -135 257t-293 92q-252 0 -437.5 -190t-241.5 -527q-57 -343 68 -532t387 -189q218 0 382.5 132t198.5 345h-464l49 290h831l-41 -246
q-32 -195 -123.5 -356t-225.5 -269.5t-305 -168.5t-360 -60q-210 0 -374 73t-264 209t-137.5 330.5t4.5 437.5zM1150 2179l336 449h392l-427 -449h-301z" />
    <glyph glyph-name="uni01F5" unicode="&#x1f5;" horiz-adv-x="1759" 
d="M590 -590q-124 0 -224.5 23t-170.5 64.5t-117.5 92t-78.5 112.5l283 188q119 -190 358 -190q113 0 210 40t165 119.5t85 186.5l38 230h-22q-171 -254 -484 -254q-134 0 -240.5 47t-178 140.5t-96 234.5t5.5 329q31 185 105.5 334.5t176.5 247t226 149.5t258 52
q78 0 141.5 -18.5t104 -45.5t72.5 -66.5t48 -72t30 -71.5h19l42 254h356l-250 -1503q-49 -292 -284.5 -457.5t-577.5 -165.5zM780 306q173 0 287.5 123.5t150.5 345.5q37 223 -35.5 353.5t-244.5 130.5q-175 0 -292.5 -134t-153.5 -350q-35 -216 39 -342.5t249 -126.5z
M874 1707l336 449h392l-427 -449h-301z" />
    <glyph glyph-name="uni01F6" unicode="&#x1f6;" horiz-adv-x="3154" 
d="M74 0l340 2048h371l-144 -867h949l144 867h372l-220 -1322l-8 -51q-32 -190 44.5 -287t246.5 -97q169 0 274.5 96.5t138.5 287.5l138 834h371l-138 -834q-56 -336 -280.5 -519.5t-555.5 -183.5q-334 0 -499 185t-111 518l8 51l23 144h-949l-144 -870h-371z" />
    <glyph glyph-name="uni01F7" unicode="&#x1f7;" horiz-adv-x="1995" 
d="M797 2004l-8 -49q164 77 363 77q393 0 583 -225.5t120 -642.5l-12 -72q-72 -444 -451.5 -794t-958.5 -507l-60 -363h-386l424 2576h386zM485 109q211 68 384 175.5t291.5 237t192.5 274t99 296.5l14 76q14 97 16 181.5t-20 153t-64.5 117.5t-117 75.5t-177.5 26.5
q-219 0 -378 -154z" />
    <glyph glyph-name="uni01F8" unicode="&#x1f8;" horiz-adv-x="2086" 
d="M2097 2048l-340 -2048h-330l-733 1395h-16l-233 -1395h-371l340 2048h332l732 -1396h19l231 1396h369zM1261 2590l203 -421h-308l-310 421h415z" />
    <glyph glyph-name="uni01F9" unicode="&#x1f9;" horiz-adv-x="1717" 
d="M570 900l-148 -900h-363l256 1536h347l-44 -261h19q73 132 204.5 206.5t300.5 74.5q239 0 357 -152.5t73 -425.5l-164 -978h-362l153 922q26 154 -39 241t-206 87q-145 0 -250 -93t-134 -257zM998 2118l203 -421h-308l-310 421h415z" />
    <glyph glyph-name="uni01FA" unicode="&#x1fa;" horiz-adv-x="2038" 
d="M337 0h-396l1061 2048h458l382 -2048h-396l-85 505h-770zM740 803h570l-139 825h-16zM1241 2105q-101 0 -163 70.5t-46 168.5q18 98 102.5 168t184.5 70q103 0 164 -70t43 -168q-16 -99 -98.5 -169t-186.5 -70zM1204 2667l293 275h340l-403 -275h-230zM1263 2248
q42 0 75 28.5t39 67.5q6 37 -17.5 64.5t-64.5 27.5q-40 0 -74 -28t-40 -64q-6 -39 18 -67.5t64 -28.5z" />
    <glyph glyph-name="uni01FB" unicode="&#x1fb;" horiz-adv-x="1618" 
d="M496 -31q-227 0 -350.5 121.5t-87.5 340.5q14 84 47 152t83 116t107.5 83t130.5 58t141.5 36t150.5 22q229 24 290 40q86 24 107 77q5 11 7 25q18 116 -37.5 177.5t-182.5 61.5q-125 0 -215 -54.5t-134 -140.5l-328 48q91 206 283 315t444 109q91 0 172 -15.5t157 -54
t126.5 -97t72.5 -151.5t2 -210l-171 -1028h-348l36 211h-12q-71 -106 -196 -174t-295 -68zM633 235q159 0 273 92t136 224l30 181q-48 -35 -343 -75q-137 -19 -221 -70.5t-99 -149.5q-16 -97 46 -149.5t178 -52.5zM972 1633q-101 0 -163 70.5t-46 168.5q18 98 102.5 168
t184.5 70q103 0 164 -70t43 -168q-16 -99 -98.5 -169t-186.5 -70zM935 2195l293 275h340l-403 -275h-230zM994 1776q42 0 75 28.5t39 67.5q6 37 -17.5 64.5t-64.5 27.5q-40 0 -74 -28t-40 -64q-6 -39 18 -67.5t64 -28.5z" />
    <glyph glyph-name="uni01FC" unicode="&#x1fc;" horiz-adv-x="2863" 
d="M-59 0l1255 2048h1702l-52 -311h-961l-92 -556h892l-52 -311h-892l-92 -559h969l-52 -311h-1340l84 505h-658l-303 -505h-408zM830 803h530l147 887h-145zM1905 2179l336 449h392l-427 -449h-301z" />
    <glyph glyph-name="uni01FD" unicode="&#x1fd;" horiz-adv-x="2586" 
d="M1656 -30q-414 0 -537 313h-14q-38 -72 -122 -142t-215.5 -121t-271.5 -51q-227 0 -350.5 121.5t-87.5 340.5q17 100 62.5 177t106 126.5t145 84t165.5 52t181 27.5q223 22 283 36q101 25 117 83q1 4 2 9q41 253 -216 253q-126 0 -216.5 -54.5t-134.5 -140.5l-328 48
q92 206 283.5 315t443.5 109q169 0 273.5 -60.5t140.5 -162.5q214 223 528 223q145 0 261 -45.5t199.5 -140.5t112.5 -241.5t-1 -348.5l-16 -96l-1075 -61q-10 -176 78 -273t255 -98q123 -1 215.5 50t138.5 139l338 -5q-65 -212 -266.5 -339t-477.5 -127zM633 235
q159 0 273 92t136 224l30 181q-48 -35 -343 -75q-137 -19 -221 -70.5t-99 -149.5q-16 -97 46 -149.5t178 -52.5zM1411 866l728 47q26 158 -53 259.5t-233 101.5q-158 0 -279.5 -109.5t-162.5 -298.5zM1256 1706l336 449h392l-427 -449h-301z" />
    <glyph glyph-name="uni01FE" unicode="&#x1fe;" horiz-adv-x="2185" 
d="M424 -94l-171 124l131 174q-132 141 -182.5 355t-5.5 484q40 239 142 435t246.5 325.5t325 200t379.5 70.5q244 0 429 -104l127 168l171 -124l-132 -175q131 -142 181 -356t5 -485q-40 -239 -142 -434.5t-246 -324.5t-323.5 -199t-376.5 -70q-246 0 -431 104zM612 506
l893 1181q-98 54 -231 54q-266 0 -461 -196.5t-251 -546.5q-54 -308 50 -492zM1705 1043q51 308 -50 493l-891 -1180q98 -53 230 -53q130 0 246 49t209.5 142t160 233.5t95.5 315.5zM1158 2177l336 449h392l-427 -449h-301z" />
    <glyph glyph-name="uni01FF" unicode="&#x1ff;" horiz-adv-x="1715" 
d="M258 -94l-162 124l137 160q-166 217 -107 581q57 355 290 570t566 215q203 0 347 -83l124 145l159 -124l-130 -153q171 -221 111 -589q-58 -354 -291 -568t-565 -214q-205 0 -352 85zM766 260q182 0 305 144t159 369q25 155 -2 270l-628 -736q67 -47 166 -47zM489 490
l626 733q-64 46 -163 46q-122 0 -221 -70t-159 -184.5t-84 -260.5q-24 -150 1 -264zM851 1707l336 449h392l-427 -449h-301z" />
    <glyph glyph-name="uni0200" unicode="&#x200;" horiz-adv-x="2038" 
d="M337 0h-396l1061 2048h458l382 -2048h-396l-85 505h-770zM740 803h570l-139 825h-16zM1195 2202h-314l-354 364h385zM1642 2202h-300l-283 364h372z" />
    <glyph glyph-name="uni0201" unicode="&#x201;" horiz-adv-x="1618" 
d="M496 -31q-227 0 -350.5 121.5t-87.5 340.5q14 84 47 152t83 116t107.5 83t130.5 58t141.5 36t150.5 22q229 24 290 40q86 24 107 77q5 11 7 25q18 116 -37.5 177.5t-182.5 61.5q-125 0 -215 -54.5t-134 -140.5l-328 48q91 206 283 315t444 109q91 0 172 -15.5t157 -54
t126.5 -97t72.5 -151.5t2 -210l-171 -1028h-348l36 211h-12q-71 -106 -196 -174t-295 -68zM633 235q159 0 273 92t136 224l30 181q-48 -35 -343 -75q-137 -19 -221 -70.5t-99 -149.5q-16 -97 46 -149.5t178 -52.5zM925 1730h-314l-354 364h385zM1372 1730h-300l-283 364h372
z" />
    <glyph glyph-name="uni0202" unicode="&#x202;" horiz-adv-x="2038" 
d="M337 0h-396l1061 2048h458l382 -2048h-396l-85 505h-770zM798 2238q29 178 174.5 289.5t359.5 111.5q213 0 322.5 -111.5t80.5 -289.5h-271q11 82 -28.5 134t-138.5 52q-102 0 -159 -53.5t-69 -132.5h-271zM740 803h570l-139 825h-16z" />
    <glyph glyph-name="uni0203" unicode="&#x203;" horiz-adv-x="1618" 
d="M496 -31q-227 0 -350.5 121.5t-87.5 340.5q14 84 47 152t83 116t107.5 83t130.5 58t141.5 36t150.5 22q229 24 290 40q86 24 107 77q5 11 7 25q18 116 -37.5 177.5t-182.5 61.5q-125 0 -215 -54.5t-134 -140.5l-328 48q91 206 283 315t444 109q91 0 172 -15.5t157 -54
t126.5 -97t72.5 -151.5t2 -210l-171 -1028h-348l36 211h-12q-71 -106 -196 -174t-295 -68zM528 1766q29 178 174.5 289.5t359.5 111.5q213 0 322.5 -111.5t80.5 -289.5h-271q11 82 -28.5 134t-138.5 52q-102 0 -159 -53.5t-69 -132.5h-271zM633 235q159 0 273 92t136 224
l30 181q-48 -35 -343 -75q-137 -19 -221 -70.5t-99 -149.5q-16 -97 46 -149.5t178 -52.5z" />
    <glyph glyph-name="uni0204" unicode="&#x204;" horiz-adv-x="1711" 
d="M74 0l340 2048h1332l-52 -311h-961l-92 -556h892l-52 -311h-892l-92 -559h969l-52 -311h-1340zM1032 2202h-314l-354 364h385zM1479 2202h-300l-283 364h372z" />
    <glyph glyph-name="uni0205" unicode="&#x205;" horiz-adv-x="1678" 
d="M738 -30q-230 0 -383 96.5t-212.5 275t-19.5 417.5q39 235 158 416t301.5 281t399.5 100q145 0 261.5 -45.5t200 -140.5t112 -241.5t-1.5 -348.5l-17 -111h-1070l-1 -5q-67 -412 324 -412q119 0 212 50.5t146 147.5l331 -38q-84 -203 -280 -322.5t-461 -119.5zM509 913
h719q26 158 -53 259.5t-233 101.5q-152 0 -277 -109t-156 -252zM936 1730h-314l-354 364h385zM1383 1730h-300l-283 364h372z" />
    <glyph glyph-name="uni0206" unicode="&#x206;" horiz-adv-x="1711" 
d="M74 0l340 2048h1332l-52 -311h-961l-92 -556h892l-52 -311h-892l-92 -559h969l-52 -311h-1340zM635 2238q29 178 174.5 289.5t359.5 111.5q213 0 322.5 -111.5t80.5 -289.5h-271q11 82 -28.5 134t-138.5 52q-102 0 -159 -53.5t-69 -132.5h-271z" />
    <glyph glyph-name="uni0207" unicode="&#x207;" horiz-adv-x="1678" 
d="M738 -30q-230 0 -383 96.5t-212.5 275t-19.5 417.5q39 235 158 416t301.5 281t399.5 100q145 0 261.5 -45.5t200 -140.5t112 -241.5t-1.5 -348.5l-17 -111h-1070l-1 -5q-67 -412 324 -412q119 0 212 50.5t146 147.5l331 -38q-84 -203 -280 -322.5t-461 -119.5zM538 1766
q29 178 174.5 289.5t359.5 111.5q213 0 322.5 -111.5t80.5 -289.5h-271q11 82 -28.5 134t-138.5 52q-102 0 -159 -53.5t-69 -132.5h-271zM509 913h719q26 158 -53 259.5t-233 101.5q-152 0 -277 -109t-156 -252z" />
    <glyph glyph-name="uni0208" unicode="&#x208;" horiz-adv-x="774" 
d="M785 2048l-340 -2048h-371l340 2048h371zM561 2202h-314l-354 364h385zM1008 2202h-300l-283 364h372z" />
    <glyph glyph-name="uni0209" unicode="&#x209;" horiz-adv-x="734" 
d="M58 0l256 1536h362l-256 -1536h-362zM466 1732h-314l-354 364h385zM913 1732h-300l-283 364h372z" />
    <glyph glyph-name="uni020A" unicode="&#x20a;" horiz-adv-x="774" 
d="M785 2048l-340 -2048h-371l340 2048h371zM164 2238q29 178 174.5 289.5t359.5 111.5q213 0 322.5 -111.5t80.5 -289.5h-271q11 82 -28.5 134t-138.5 52q-102 0 -159 -53.5t-69 -132.5h-271z" />
    <glyph glyph-name="uni020B" unicode="&#x20b;" horiz-adv-x="734" 
d="M58 0l256 1536h362l-256 -1536h-362zM69 1769q29 178 174.5 289.5t359.5 111.5q213 0 322.5 -111.5t80.5 -289.5h-271q11 82 -28.5 134t-138.5 52q-102 0 -159 -53.5t-69 -132.5h-271z" />
    <glyph glyph-name="uni020C" unicode="&#x20c;" horiz-adv-x="2182" 
d="M2070 1000q-40 -239 -142 -434.5t-246 -324.5t-323.5 -199t-376.5 -70q-206 0 -370.5 73t-270.5 211.5t-146.5 337.5t1.5 451q40 239 142 435t246.5 325.5t325 200t379.5 70.5q204 0 367.5 -73.5t269.5 -212t146 -338t-2 -452.5zM1705 1045q55 334 -64 516t-367 182
q-266 0 -461 -196.5t-251 -546.5q-29 -171 -11 -301t77.5 -217.5t152 -132t213.5 -44.5q130 0 246 49t209.5 142t160 233.5t95.5 315.5zM1264 2202h-314l-354 364h385zM1711 2202h-300l-283 364h372z" />
    <glyph glyph-name="uni020D" unicode="&#x20d;" horiz-adv-x="1718" 
d="M737 -30q-224 0 -376.5 100t-213 281.5t-21.5 419.5q57 355 290 570t566 215q168 0 298 -58t207 -163.5t107 -253.5t-1 -329q-58 -354 -291 -568t-565 -214zM766 260q182 0 305 144t159 369q19 103 9.5 193.5t-40.5 158t-94.5 106t-152.5 38.5q-122 0 -221 -70
t-159 -184.5t-84 -260.5q-19 -104 -9 -194t41 -157t94.5 -105t151.5 -38zM957 1730h-314l-354 364h385zM1404 1730h-300l-283 364h372z" />
    <glyph glyph-name="uni020E" unicode="&#x20e;" horiz-adv-x="2182" 
d="M2070 1000q-40 -239 -142 -434.5t-246 -324.5t-323.5 -199t-376.5 -70q-206 0 -370.5 73t-270.5 211.5t-146.5 337.5t1.5 451q40 239 142 435t246.5 325.5t325 200t379.5 70.5q204 0 367.5 -73.5t269.5 -212t146 -338t-2 -452.5zM1705 1045q55 334 -64 516t-367 182
q-266 0 -461 -196.5t-251 -546.5q-29 -171 -11 -301t77.5 -217.5t152 -132t213.5 -44.5q130 0 246 49t209.5 142t160 233.5t95.5 315.5zM867 2238q29 178 174.5 289.5t359.5 111.5q213 0 322.5 -111.5t80.5 -289.5h-271q11 82 -28.5 134t-138.5 52q-102 0 -159 -53.5
t-69 -132.5h-271z" />
    <glyph glyph-name="uni020F" unicode="&#x20f;" horiz-adv-x="1718" 
d="M737 -30q-224 0 -376.5 100t-213 281.5t-21.5 419.5q57 355 290 570t566 215q168 0 298 -58t207 -163.5t107 -253.5t-1 -329q-58 -354 -291 -568t-565 -214zM766 260q182 0 305 144t159 369q19 103 9.5 193.5t-40.5 158t-94.5 106t-152.5 38.5q-122 0 -221 -70
t-159 -184.5t-84 -260.5q-19 -104 -9 -194t41 -157t94.5 -105t151.5 -38zM560 1766q29 178 174.5 289.5t359.5 111.5q213 0 322.5 -111.5t80.5 -289.5h-271q11 82 -28.5 134t-138.5 52q-102 0 -159 -53.5t-69 -132.5h-271z" />
    <glyph glyph-name="uni0210" unicode="&#x210;" horiz-adv-x="1822" 
d="M74 0l340 2048h759q181 0 314 -48t207 -135t100.5 -204t2.5 -259q-32 -201 -151.5 -346t-305.5 -223l296 -833h-414l-264 767h-385l-128 -767h-371zM621 1061h353q201 0 309 89.5t134 247.5q7 53 6 102.5t-22.5 92.5t-56.5 75.5t-97 51t-144 18.5h-369zM1071 2202h-314
l-354 364h385zM1518 2202h-300l-283 364h372z" />
    <glyph glyph-name="uni0211" unicode="&#x211;" horiz-adv-x="1165" 
d="M58 0l256 1536h351l-43 -256h16q63 132 176.5 205t249.5 73q122 0 194 -56l-160 -298q-57 30 -139 30q-143 0 -254.5 -93t-135.5 -238l-149 -903h-362zM691 1730h-314l-354 364h385zM1138 1730h-300l-283 364h372z" />
    <glyph glyph-name="uni0212" unicode="&#x212;" horiz-adv-x="1822" 
d="M74 0l340 2048h759q181 0 314 -48t207 -135t100.5 -204t2.5 -259q-32 -201 -151.5 -346t-305.5 -223l296 -833h-414l-264 767h-385l-128 -767h-371zM621 1061h353q201 0 309 89.5t134 247.5q7 53 6 102.5t-22.5 92.5t-56.5 75.5t-97 51t-144 18.5h-369zM674 2238
q29 178 174.5 289.5t359.5 111.5q213 0 322.5 -111.5t80.5 -289.5h-271q11 82 -28.5 134t-138.5 52q-102 0 -159 -53.5t-69 -132.5h-271z" />
    <glyph glyph-name="uni0213" unicode="&#x213;" horiz-adv-x="1165" 
d="M58 0l256 1536h351l-43 -256h16q63 132 176.5 205t249.5 73q122 0 194 -56l-160 -298q-57 30 -139 30q-143 0 -254.5 -93t-135.5 -238l-149 -903h-362zM342 1766q29 178 174.5 289.5t359.5 111.5q213 0 322.5 -111.5t80.5 -289.5h-271q11 82 -28.5 134t-138.5 52
q-102 0 -159 -53.5t-69 -132.5h-271z" />
    <glyph glyph-name="uni0214" unicode="&#x214;" horiz-adv-x="2066" 
d="M1706 2048h370l-224 -1354q-23 -137 -83.5 -253.5t-149.5 -202.5t-202 -147t-243.5 -91.5t-272.5 -30.5q-179 0 -323 48.5t-240.5 139.5t-136.5 229t-11 308l224 1354h371l-223 -1345q-20 -123 25.5 -215t141 -138.5t225.5 -46.5q199 0 349 108t181 292zM1208 2202h-314
l-354 364h385zM1655 2202h-300l-283 364h372z" />
    <glyph glyph-name="uni0215" unicode="&#x215;" horiz-adv-x="1713" 
d="M1144 646l149 890h362l-256 -1536h-351l46 273h-16q-74 -133 -209 -213t-303 -80q-231 0 -346 153t-70 425l164 978h362l-154 -922q-22 -146 43 -232t195 -86q83 0 162 37.5t141.5 119t80.5 193.5zM952 1730h-314l-354 364h385zM1399 1730h-300l-283 364h372z" />
    <glyph glyph-name="uni0216" unicode="&#x216;" horiz-adv-x="2066" 
d="M1706 2048h370l-224 -1354q-23 -137 -83.5 -253.5t-149.5 -202.5t-202 -147t-243.5 -91.5t-272.5 -30.5q-179 0 -323 48.5t-240.5 139.5t-136.5 229t-11 308l224 1354h371l-223 -1345q-20 -123 25.5 -215t141 -138.5t225.5 -46.5q199 0 349 108t181 292zM811 2238
q29 178 174.5 289.5t359.5 111.5q213 0 322.5 -111.5t80.5 -289.5h-271q11 82 -28.5 134t-138.5 52q-102 0 -159 -53.5t-69 -132.5h-271z" />
    <glyph glyph-name="uni0217" unicode="&#x217;" horiz-adv-x="1713" 
d="M1144 646l149 890h362l-256 -1536h-351l46 273h-16q-74 -133 -209 -213t-303 -80q-231 0 -346 153t-70 425l164 978h362l-154 -922q-22 -146 43 -232t195 -86q83 0 162 37.5t141.5 119t80.5 193.5zM555 1766q29 178 174.5 289.5t359.5 111.5q213 0 322.5 -111.5
t80.5 -289.5h-271q11 82 -28.5 134t-138.5 52q-102 0 -159 -53.5t-69 -132.5h-271z" />
    <glyph glyph-name="uni0218" unicode="&#x218;" horiz-adv-x="1828" 
d="M1431 1475q4 138 -84 212.5t-254 74.5q-171 0 -282.5 -74t-131.5 -193q-9 -49 4.5 -90.5t41 -70.5t72 -53.5t87.5 -39.5t97 -28l184 -48q94 -23 171.5 -55t148.5 -82t116 -112.5t64 -150t2 -190.5q-46 -275 -279.5 -440.5t-596.5 -165.5q-361 0 -545 166.5t-145 469.5
h365q-16 -155 88.5 -237t285.5 -82q182 0 308.5 80.5t147.5 211.5q10 58 -7.5 103t-64 78t-105.5 56.5t-145 46.5l-222 60q-521 142 -454 550q30 178 151 316.5t304 213t397 74.5q325 0 500 -166.5t138 -434.5h-357zM924 -143l-31 -183q-27 -160 -96 -306.5t-178 -253.5
l-206 81q76 119 123 226t68 236l32 200h288z" />
    <glyph glyph-name="uni0219" unicode="&#x219;" horiz-adv-x="1546" 
d="M1459 1130l-333 -36q-9 85 -68 138.5t-173 53.5q-119 0 -207.5 -53.5t-100.5 -135.5q-11 -62 30.5 -101t151.5 -66l254 -56q211 -48 303 -153t64 -274q-36 -212 -238 -344.5t-486 -132.5q-285 0 -440.5 118.5t-154.5 330.5l356 34q6 -103 72.5 -156t186.5 -54
q132 -1 225.5 56t105.5 141q11 62 -30 101t-144 62l-252 55q-426 94 -366 444q35 208 223.5 331t463.5 123q269 0 410.5 -113t146.5 -313zM796 -121l-31 -183q-27 -160 -96 -306.5t-178 -253.5l-206 81q76 119 123 226t68 236l32 200h288z" />
    <glyph glyph-name="uni021A" unicode="&#x21a;" horiz-adv-x="1858" 
d="M272 1737l52 311h1634l-52 -311h-633l-288 -1737h-368l288 1737h-633zM936 -121l-31 -183q-27 -160 -96 -306.5t-178 -253.5l-206 81q76 119 123 226t68 236l32 200h288z" />
    <glyph glyph-name="uni021B" unicode="&#x21b;" horiz-adv-x="1080" 
d="M1081 1536l-47 -280h-304l-131 -792q-17 -101 20.5 -139.5t115.5 -38.5q33 0 107 14l16 -282q-102 -33 -220 -36q-140 -4 -240 41t-147 143.5t-22 238.5l140 851h-217l46 280h217l61 368h362l-61 -368h304zM604 -121l-31 -183q-27 -160 -96 -306.5t-178 -253.5l-206 81
q76 119 123 226t68 236l32 200h288z" />
    <glyph glyph-name="uni021C" unicode="&#x21c;" horiz-adv-x="1850" 
d="M263 426l45 287q223 63 380 118t284 117.5t206 132t127 153.5t66 190q22 135 -54.5 215.5t-262.5 80.5q-140 0 -249 -69.5t-129 -185.5h-385q22 130 98 238t187.5 178.5t247.5 109.5t280 39q347 0 524 -148t133 -422q-51 -299 -315 -526q112 -68 159.5 -187t20.5 -281
q-31 -184 -123 -339.5t-229.5 -271.5t-324.5 -206.5t-398.5 -150t-460.5 -98.5l53 306q498 94 772.5 279.5t323.5 487.5q37 211 -63 278q-348 -191 -913 -325z" />
    <glyph glyph-name="uni021D" unicode="&#x21d;" horiz-adv-x="1589" 
d="M238 238l45 270q131 37 235 73.5t202.5 85.5t166.5 102.5t115 122.5t60 148q13 86 -30 140t-162 54q-109 0 -185.5 -47t-88.5 -125h-371q22 137 121 241.5t244 158.5t311 54q285 0 430 -113t110 -323q-39 -237 -253 -424q188 -125 145 -398q-114 -669 -1235 -858l47 278
q156 45 268.5 86t213.5 93t166.5 111.5t109 137t59.5 172.5q20 126 -24 209q-279 -149 -700 -249z" />
    <glyph glyph-name="uni021E" unicode="&#x21e;" horiz-adv-x="2095" 
d="M74 0l340 2048h371l-144 -867h949l144 867h372l-340 -2048h-372l144 870h-949l-144 -870h-371zM1128 2587l190 -208l260 208h296l-4 -14l-474 -384h-219l-351 384l4 14h298z" />
    <glyph glyph-name="uni021F" unicode="&#x21f;" horiz-adv-x="1726" 
d="M570 900l-148 -900h-363l340 2048h355l-128 -773h19q75 135 202.5 208t301.5 73q242 0 360 -151.5t73 -426.5l-164 -978h-363l154 922q25 155 -40.5 241.5t-206.5 86.5q-148 0 -255.5 -93t-136.5 -257zM441 2585l190 -208l260 208h296l-4 -14l-474 -384h-219l-351 384
l4 14h298z" />
    <glyph glyph-name="uni0220" unicode="&#x220;" horiz-adv-x="1853" 
d="M1455 -572h-375l322 1966q29 167 -48.5 252.5t-258.5 85.5q-208 0 -401 -110l-269 -1622h-371l332 2004h371l-13 -78q212 106 432 106q145 0 265.5 -42t205 -121t120.5 -201.5t11 -273.5z" />
    <glyph glyph-name="uni0221" unicode="&#x221;" horiz-adv-x="2021" 
d="M1502 348h1l-32 -200q78 15 156 15q217 0 328.5 -104.5t82.5 -275.5q-28 -165 -168 -262t-364 -97q-336 0 -420 222l-258 -197l-139 221l390 298l45 274h-18q-180 -269 -483 -269q-136 0 -243 52.5t-175.5 154t-92 249t8.5 337.5q31 187 104.5 338.5t175.5 249.5
t225.5 150t257.5 52q307 0 393 -274h16l128 766h362zM1216 768q39 227 -34 359t-246 132q-175 0 -291.5 -134.5t-154.5 -356.5q-36 -223 36 -360.5t245 -137.5q171 0 289 135.5t156 362.5zM1430 -114l-8 -52q-14 -83 23.5 -127.5t105.5 -44.5q62 0 108 36t55 92t-23 92.5
t-101 40.5q-68 6 -160 -37z" />
    <glyph glyph-name="uni0222" unicode="&#x222;" horiz-adv-x="1851" 
d="M989 1288h45q88 0 157 11.5t126 38t93 74t47 115.5q15 93 -25 138.5t-140 70.5l49 296q129 -2 230 -33.5t170 -92.5t97 -157.5t8 -221.5q-47 -279 -320 -412q221 -166 168 -488q-36 -209 -163 -359t-312 -223t-409 -73h-30q-168 0 -302 42.5t-225.5 123t-129.5 205
t-12 280.5q54 327 330 492q-227 133 -180 412q40 246 221 373t446 132l-49 -296q-105 -25 -159 -70.5t-70 -138.5q-21 -129 67 -184t272 -55zM975 974h-30q-182 0 -300 -91.5t-144 -259.5q-27 -165 60.5 -253t269.5 -88h31q183 0 299 89t143 256q27 164 -60.5 255.5
t-268.5 91.5z" />
    <glyph glyph-name="uni0223" unicode="&#x223;" horiz-adv-x="1850" 
d="M1029 1263q122 0 210 27t150.5 96.5t80.5 180.5q20 118 -21.5 186t-138.5 105l49 282q125 -2 223.5 -40t164 -107.5t91 -177.5t2.5 -243q-52 -318 -327 -464q225 -159 170 -487q-26 -157 -104.5 -281.5t-194.5 -204.5t-262 -121.5t-313 -41.5h-31q-167 0 -300 41.5
t-223 121t-127 203.5t-11 280q55 330 332 490q-227 145 -175 464q45 267 228.5 415t443.5 153l-48 -282q-105 -37 -168 -105t-83 -186q-14 -85 4.5 -145t66 -94.5t113.5 -49.5t155 -15h43zM974 966h-30q-184 0 -305.5 -91.5t-148.5 -256.5t63 -256.5t274 -91.5h31
q185 0 305 92t147 259q27 164 -62.5 254.5t-273.5 90.5z" />
    <glyph glyph-name="uni0224" unicode="&#x224;" horiz-adv-x="1838" 
d="M1067 0h-1031l40 231l1304 1506h-1062l52 311h1516l-37 -231l-1307 -1506h577q242 0 355.5 -130t76.5 -355l-28 -162h-312l15 95q42 241 -159 241z" />
    <glyph glyph-name="uni0225" unicode="&#x225;" horiz-adv-x="1571" 
d="M977 -355l15 93q45 262 -161 262h-793l39 234l946 1004h-769l48 298h1223l-39 -228l-944 -1010h338q243 0 356 -131.5t76 -355.5l-29 -166h-306z" />
    <glyph glyph-name="uni0226" unicode="&#x226;" horiz-adv-x="2038" 
d="M337 0h-396l1061 2048h458l382 -2048h-396l-85 505h-770zM740 803h570l-139 825h-16zM1278 2211q-86 0 -146.5 57.5t-56.5 139.5t68.5 139.5t149.5 57.5t144 -57.5t57 -139.5t-66 -139.5t-150 -57.5z" />
    <glyph glyph-name="uni0227" unicode="&#x227;" horiz-adv-x="1618" 
d="M496 -31q-227 0 -350.5 121.5t-87.5 340.5q14 84 47 152t83 116t107.5 83t130.5 58t141.5 36t150.5 22q229 24 290 40q86 24 107 77q5 11 7 25q18 116 -37.5 177.5t-182.5 61.5q-125 0 -215 -54.5t-134 -140.5l-328 48q91 206 283 315t444 109q91 0 172 -15.5t157 -54
t126.5 -97t72.5 -151.5t2 -210l-171 -1028h-348l36 211h-12q-71 -106 -196 -174t-295 -68zM633 235q159 0 273 92t136 224l30 181q-48 -35 -343 -75q-137 -19 -221 -70.5t-99 -149.5q-16 -97 46 -149.5t178 -52.5zM1009 1739q-86 0 -146.5 57.5t-56.5 139.5t68.5 139.5
t149.5 57.5t144 -57.5t57 -139.5t-66 -139.5t-150 -57.5z" />
    <glyph glyph-name="uni0228" unicode="&#x228;" horiz-adv-x="1711" 
d="M74 0l340 2048h1332l-52 -311h-961l-92 -556h892l-52 -311h-892l-92 -559h969l-52 -311h-585l-29 -77q98 -15 150.5 -76t33.5 -165q-23 -144 -166 -229t-377 -85l26 178q247 0 273 127q12 62 -31.5 92t-151.5 42l76 193h-559z" />
    <glyph glyph-name="uni0229" unicode="&#x229;" horiz-adv-x="1678" 
d="M803 -28l-18 -49q98 -15 150.5 -76t33.5 -165q-23 -144 -166 -229t-377 -85l26 178q247 0 273 127q12 62 -31.5 92t-151.5 42l67 172q-283 39 -412 246.5t-74 533.5q39 235 158 416t301.5 281t399.5 100q145 0 261.5 -45.5t200 -140.5t112 -241.5t-1.5 -348.5l-17 -111
h-1070l-1 -5q-67 -412 324 -412q119 0 212 50.5t146 147.5l331 -38q-78 -190 -256 -307.5t-420 -132.5zM509 913h719q26 158 -53 259.5t-233 101.5q-152 0 -277 -109t-156 -252z" />
    <glyph glyph-name="uni022A" unicode="&#x22a;" horiz-adv-x="2182" 
d="M2070 1000q-40 -239 -142 -434.5t-246 -324.5t-323.5 -199t-376.5 -70q-206 0 -370.5 73t-270.5 211.5t-146.5 337.5t1.5 451q40 239 142 435t246.5 325.5t325 200t379.5 70.5q204 0 367.5 -73.5t269.5 -212t146 -338t-2 -452.5zM1705 1045q55 334 -64 516t-367 182
q-266 0 -461 -196.5t-251 -546.5q-29 -171 -11 -301t77.5 -217.5t152 -132t213.5 -44.5q130 0 246 49t209.5 142t160 233.5t95.5 315.5zM1916 2864l-36 -226h-964l37 226h963zM860 2360q10 68 67 114t137 46q83 0 126 -45.5t33 -114.5q-13 -69 -70.5 -113.5t-139.5 -44.5
t-123.5 45t-29.5 113zM1482 2360q10 67 68 112.5t140 45.5q80 0 122 -45.5t32 -112.5q-12 -68 -69 -114t-139 -46t-124.5 45.5t-29.5 114.5z" />
    <glyph glyph-name="uni022B" unicode="&#x22b;" horiz-adv-x="1718" 
d="M737 -30q-224 0 -376.5 100t-213 281.5t-21.5 419.5q57 355 290 570t566 215q168 0 298 -58t207 -163.5t107 -253.5t-1 -329q-58 -354 -291 -568t-565 -214zM766 260q182 0 305 144t159 369q19 103 9.5 193.5t-40.5 158t-94.5 106t-152.5 38.5q-122 0 -221 -70
t-159 -184.5t-84 -260.5q-19 -104 -9 -194t41 -157t94.5 -105t151.5 -38zM1623 2427l-39 -226h-966l39 226h966zM1191 1882q10 72 70 122t142 50q81 0 125 -50t33 -122q-12 -70 -71.5 -118.5t-141.5 -48.5t-125.5 48.5t-31.5 118.5zM528 1884q11 71 71.5 120.5t141.5 49.5
q82 0 125 -49.5t33 -120.5q-11 -71 -71 -119t-141 -48q-82 0 -126 48t-33 119z" />
    <glyph glyph-name="uni022C" unicode="&#x22c;" horiz-adv-x="2182" 
d="M2070 1000q-40 -239 -142 -434.5t-246 -324.5t-323.5 -199t-376.5 -70q-206 0 -370.5 73t-270.5 211.5t-146.5 337.5t1.5 451q40 239 142 435t246.5 325.5t325 200t379.5 70.5q204 0 367.5 -73.5t269.5 -212t146 -338t-2 -452.5zM1705 1045q55 334 -64 516t-367 182
q-266 0 -461 -196.5t-251 -546.5q-29 -171 -11 -301t77.5 -217.5t152 -132t213.5 -44.5q130 0 246 49t209.5 142t160 233.5t95.5 315.5zM1921 2872l-37 -226h-966l37 226h966zM1628 2511l151 -43q-18 -102 -98 -176.5t-179 -74.5q-50 0 -94 15t-70.5 33t-65 33t-78.5 15
t-74 -36t-42 -85l-146 44q15 101 92.5 176.5t175.5 75.5q41 0 83.5 -14.5t73 -32t71 -32t79.5 -14.5q41 0 77 33.5t44 82.5z" />
    <glyph glyph-name="uni022D" unicode="&#x22d;" horiz-adv-x="1718" 
d="M737 -30q-224 0 -376.5 100t-213 281.5t-21.5 419.5q57 355 290 570t566 215q168 0 298 -58t207 -163.5t107 -253.5t-1 -329q-58 -354 -291 -568t-565 -214zM766 260q182 0 305 144t159 369q19 103 9.5 193.5t-40.5 158t-94.5 106t-152.5 38.5q-122 0 -221 -70
t-159 -184.5t-84 -260.5q-19 -104 -9 -194t41 -157t94.5 -105t151.5 -38zM1380 2111l223 -15q-26 -153 -134 -256.5t-244 -103.5q-60 0 -111 19t-81 41.5t-75 41.5t-95 19q-51 0 -92.5 -38t-51.5 -98l-220 11q26 150 132.5 256.5t239.5 106.5q50 0 100 -18.5t84.5 -41.5
t82.5 -41.5t95 -18.5q53 0 95.5 37.5t51.5 98.5zM1632 2493l-37 -225h-966l38 225h965z" />
    <glyph glyph-name="uni022E" unicode="&#x22e;" horiz-adv-x="2182" 
d="M2070 1000q-40 -239 -142 -434.5t-246 -324.5t-323.5 -199t-376.5 -70q-206 0 -370.5 73t-270.5 211.5t-146.5 337.5t1.5 451q40 239 142 435t246.5 325.5t325 200t379.5 70.5q204 0 367.5 -73.5t269.5 -212t146 -338t-2 -452.5zM1705 1045q55 334 -64 516t-367 182
q-266 0 -461 -196.5t-251 -546.5q-29 -171 -11 -301t77.5 -217.5t152 -132t213.5 -44.5q130 0 246 49t209.5 142t160 233.5t95.5 315.5zM1348 2211q-86 0 -146.5 57.5t-56.5 139.5t68.5 139.5t149.5 57.5t144 -57.5t57 -139.5t-66 -139.5t-150 -57.5z" />
    <glyph glyph-name="uni022F" unicode="&#x22f;" horiz-adv-x="1718" 
d="M737 -30q-224 0 -376.5 100t-213 281.5t-21.5 419.5q57 355 290 570t566 215q168 0 298 -58t207 -163.5t107 -253.5t-1 -329q-58 -354 -291 -568t-565 -214zM766 260q182 0 305 144t159 369q19 103 9.5 193.5t-40.5 158t-94.5 106t-152.5 38.5q-122 0 -221 -70
t-159 -184.5t-84 -260.5q-19 -104 -9 -194t41 -157t94.5 -105t151.5 -38zM1041 1739q-86 0 -146.5 57.5t-56.5 139.5t68.5 139.5t149.5 57.5t144 -57.5t57 -139.5t-66 -139.5t-150 -57.5z" />
    <glyph glyph-name="uni0230" unicode="&#x230;" horiz-adv-x="2182" 
d="M2070 1000q-40 -239 -142 -434.5t-246 -324.5t-323.5 -199t-376.5 -70q-206 0 -370.5 73t-270.5 211.5t-146.5 337.5t1.5 451q40 239 142 435t246.5 325.5t325 200t379.5 70.5q204 0 367.5 -73.5t269.5 -212t146 -338t-2 -452.5zM1705 1045q55 334 -64 516t-367 182
q-266 0 -461 -196.5t-251 -546.5q-29 -171 -11 -301t77.5 -217.5t152 -132t213.5 -44.5q130 0 246 49t209.5 142t160 233.5t95.5 315.5zM1919 2863l-35 -226h-966l36 226h965zM1173 2367q10 67 67.5 112.5t140.5 45.5q81 0 123 -45.5t32 -112.5q-12 -69 -69.5 -114.5
t-139.5 -45.5q-84 0 -125.5 45.5t-28.5 114.5z" />
    <glyph glyph-name="uni0231" unicode="&#x231;" horiz-adv-x="1718" 
d="M737 -30q-224 0 -376.5 100t-213 281.5t-21.5 419.5q57 355 290 570t566 215q168 0 298 -58t207 -163.5t107 -253.5t-1 -329q-58 -354 -291 -568t-565 -214zM766 260q182 0 305 144t159 369q19 103 9.5 193.5t-40.5 158t-94.5 106t-152.5 38.5q-122 0 -221 -70
t-159 -184.5t-84 -260.5q-19 -104 -9 -194t41 -157t94.5 -105t151.5 -38zM1628 2472l-36 -224h-966l37 224h965zM854 1913q11 79 73 130.5t150 51.5q89 0 133.5 -51.5t33.5 -130.5q-14 -78 -75 -128t-149 -50q-89 0 -134.5 50t-31.5 128z" />
    <glyph glyph-name="uni0232" unicode="&#x232;" horiz-adv-x="1989" 
d="M277 2048h418l351 -906h23l649 906h418l-958 -1284l-127 -764h-369l127 764zM1765 2477l-35 -224h-966l36 224h965z" />
    <glyph glyph-name="uni0233" unicode="&#x233;" horiz-adv-x="1622" 
d="M173 -598q-139 0 -221 41l130 290q75 -23 136 -22.5t115.5 39t102.5 120.5l52 96l-296 1570h384l161 -1160h16l548 1160h385l-908 -1736q-211 -398 -605 -398zM1493 2005l-35 -224h-966l36 224h965z" />
    <glyph glyph-name="uni0234" unicode="&#x234;" horiz-adv-x="1113" 
d="M744 2048l-278 -1677q-15 -91 -33 -198q108 29 189 29q177 0 272.5 -109t68.5 -271q-26 -165 -166.5 -281.5t-335.5 -116.5q-148 0 -257.5 69.5t-153.5 192.5l-259 -205l-157 212l291 232q53 37 117 74v1l340 2048h362zM389 -94q-2 -11 -4 -24.5t-3.5 -22t-1.5 -12.5
q-13 -70 23 -115.5t107 -45.5q53 0 93.5 37.5t48.5 91.5q8 50 -23 85t-91 35q-74 0 -149 -29z" />
    <glyph glyph-name="uni0235" unicode="&#x235;" horiz-adv-x="2226" 
d="M570 900l-148 -900h-363l256 1536h347l-44 -261h19q73 132 204.5 206.5t300.5 74.5q239 0 357 -152.5t73 -425.5l-100 -596q69 10 166 10q183 0 286 -110t74 -284q-30 -178 -176 -288t-362 -110q-165 0 -269.5 71.5t-133.5 198.5l-205 -191l-161 179l297 270q55 52 93 81
l118 713q26 154 -39 241t-206 87q-145 0 -250 -93t-134 -257zM1428 121l-19 -116q-3 -57 33 -94t95 -37q58 0 100 38.5t53 99.5q10 61 -24.5 96.5t-98.5 36.5q-61 0 -139 -24z" />
    <glyph glyph-name="uni0236" unicode="&#x236;" horiz-adv-x="1482" 
d="M619 1904h363l-61 -368h289l-44 -264h-289l-92 -553q105 27 187 27q176 0 274.5 -109.5t73.5 -270.5q-29 -165 -170.5 -281.5t-335.5 -116.5q-149 0 -259.5 69t-154.5 192l-258 -204l-160 212l296 232q53 36 116 75l120 728h-220l43 264h221zM740 447l-9 -56
q-14 -69 23.5 -115t104.5 -46q58 0 101 36t50 93q7 56 -26.5 88t-93.5 32q-67 0 -150 -32z" />
    <glyph glyph-name="uni0237" unicode="&#x237;" horiz-adv-x="734" 
d="M314 1536h362l-267 -1613q-40 -244 -205.5 -371.5t-418.5 -127.5h-114l51 298h72q119 0 177.5 53t76.5 153z" />
    <glyph glyph-name="uni0238" unicode="&#x238;" horiz-adv-x="2634" 
d="M2480 758l-6 -28q-38 -223 -131 -392t-244 -267.5t-341 -98.5q-239 0 -359 166l-23 -138h-338l8 157q-180 -185 -429 -185q-180 0 -299.5 98.5t-162.5 269.5t-7 388l8 28q55 342 249.5 551t471.5 209q230 0 351 -163l126 759h374l-127 -762q172 166 409 166
q116 0 207 -36t149.5 -102.5t92.5 -160.5t37.5 -209.5t-16.5 -249.5zM2103 730l7 28q70 458 -243 458q-202 0 -317 -170l-99 -597q53 -177 262 -177q314 0 390 458zM530 756l-8 -28q-18 -92 -12.5 -174.5t29.5 -144.5t81 -98.5t141 -36.5q197 0 315 171l101 603
q-58 168 -255 168q-84 0 -152 -35t-115.5 -98.5t-78.5 -145.5t-46 -181z" />
    <glyph glyph-name="uni0239" unicode="&#x239;" horiz-adv-x="2634" 
d="M910 -572l115 700q-172 -156 -403 -156q-186 0 -306.5 99.5t-161.5 270t-4 388.5l6 28q36 226 133 396t249.5 266t340.5 96q248 0 367 -176l46 148h303l-10 -148q178 176 425 176q189 0 308 -95t158 -263.5t2 -396.5l-7 -31q-36 -218 -130.5 -388t-246 -270t-336.5 -100
q-235 0 -358 161l-116 -705h-374zM2101 730l6 31q18 95 11 178t-33 144.5t-84 97t-142 35.5q-195 0 -307 -158l-104 -630q62 -158 257 -158q84 0 153.5 36.5t117 101t78.5 145.5t47 177zM530 758l-7 -28q-12 -72 -13 -137t13 -125t42.5 -103t80 -69t120.5 -26q193 0 308 160
l106 640q-62 149 -254 149q-111 0 -195.5 -63t-132.5 -164t-68 -234z" />
    <glyph glyph-name="uni023A" unicode="&#x23a;" horiz-adv-x="2038" 
d="M1929 2308l-377 -753l290 -1555h-396l-85 505h-335l-383 -765h-250l383 765h-185l-254 -505h-396l1061 2048h458l24 -128l194 388h251zM925 803l288 576l-42 249h-16l-415 -825h185zM1276 1005l-101 -202h135z" />
    <glyph glyph-name="uni023B" unicode="&#x23b;" horiz-adv-x="2093" 
d="M329 -260l180 359q-199 129 -283 373t-30 574q53 319 212.5 554.5t385.5 355.5t490 120q110 0 204 -19l126 251h251l-162 -323q170 -87 261 -247.5t86 -380.5h-369q-1 202 -139 306l-673 -1344q61 -14 125 -14q197 0 353 99.5t220 275.5h373q-46 -147 -135.5 -275.5
t-212 -225t-282 -152t-333.5 -55.5q-141 0 -264 35l-134 -267h-250zM673 427l657 1313q-27 3 -55 3q-265 0 -460.5 -197t-252.5 -544q-66 -392 111 -575z" />
    <glyph glyph-name="uni023C" unicode="&#x23c;" horiz-adv-x="1630" 
d="M1630 2048l-302 -571q123 -70 183 -192t46 -281h-347q-2 93 -47 160l-470 -889q45 -10 86 -10q121 0 214.5 68.5t138.5 191.5h346q-63 -250 -264.5 -402.5t-486.5 -152.5q-97 0 -185 20l-299 -566h-227l340 643q-151 97 -212 278t-21 417q38 233 157 413t303 280.5
t406 100.5q78 0 147 -12l267 504h227zM987 1262q-26 2 -41 2q-171 0 -295.5 -133t-160.5 -363q-39 -236 41 -370z" />
    <glyph glyph-name="uni023D" unicode="&#x23d;" horiz-adv-x="1594" 
d="M74 0l159 958h-297l40 229h295l143 861h371l-143 -861h293l-40 -229h-291l-107 -647h902l-52 -311h-1273z" />
    <glyph glyph-name="uni023E" unicode="&#x23e;" horiz-adv-x="1858" 
d="M234 -260l508 1015l163 982h-633l52 311h1066l130 260h250l-130 -260h318l-52 -311h-422l-316 -631l-183 -1106h-368l1 6l-133 -266h-251z" />
    <glyph glyph-name="uni023F" unicode="&#x23f;" horiz-adv-x="1549" 
d="M1459 1130l-333 -36q-9 85 -68 138.5t-173 53.5q-119 0 -207.5 -53.5t-100.5 -135.5q-11 -62 30.5 -101t151.5 -66l254 -56q211 -48 303 -153t64 -274q-36 -212 -238 -344.5t-486 -132.5q-79 0 -148 9q50 -126 84.5 -188t65 -84t75.5 -22q119 0 264 105l81 -201
q-208 -165 -388 -165q-65 0 -120.5 19.5t-95.5 50.5t-76.5 80.5t-61.5 98.5t-52 114l-174 423q-49 89 -49 209l356 34q6 -103 72.5 -156t186.5 -54q132 -1 225.5 56t105.5 141q11 62 -30 101t-144 62l-252 55q-426 94 -366 444q35 208 223.5 331t463.5 123q269 0 410.5 -113
t146.5 -313z" />
    <glyph glyph-name="uni0240" unicode="&#x240;" horiz-adv-x="1695" 
d="M542 298h40q80 0 146.5 -19.5t113.5 -52t85.5 -75t66.5 -89.5t53 -94t48 -89.5t47.5 -75t56.5 -52t70 -19.5q102 0 227 95l83 -238q-195 -165 -393 -165q-83 0 -148 32t-106 82.5t-76.5 112t-70.5 123t-76.5 112t-106 82.5t-147.5 32h-417l39 234l946 1004h-769l48 298
h1223l-39 -228z" />
    <glyph glyph-name="uni0241" unicode="&#x241;" horiz-adv-x="1586" 
d="M630 678h120q92 0 161.5 33.5t113.5 96.5t70.5 135.5t42.5 166.5l29 168q66 436 -248 436q-129 0 -214.5 -76t-109.5 -198h-367q31 173 136 308.5t262.5 209.5t340.5 74q114 0 209.5 -27t164.5 -76t120 -117.5t75.5 -152.5t32 -180.5t-11.5 -200.5l-30 -168
q-29 -174 -108 -320t-210 -252t-298 -149l-65 -389h-388l113 678h59z" />
    <glyph glyph-name="uni0242" unicode="&#x242;" horiz-adv-x="1589" 
d="M213 953q39 245 232.5 404t460.5 159q125 0 223.5 -27.5t162.5 -77.5t103.5 -121t46.5 -158t-8 -188q-32 -201 -159.5 -328t-334.5 -161l-77 -455h-373l110 654h147q76 0 134 23t94.5 64t57.5 90.5t30 110.5q46 277 -205 277q-102 0 -177 -73t-95 -193h-373z" />
    <glyph glyph-name="uni0243" unicode="&#x243;" horiz-adv-x="2022" 
d="M247 0l82 495h-305l40 229h303l220 1324h784q163 0 284 -40t190 -111.5t95 -167.5t6 -212q-31 -177 -147.5 -287.5t-281.5 -148.5l-4 -20q82 -4 154 -40t124 -98.5t73.5 -157.5t3.5 -207q-20 -121 -81 -222t-158.5 -176.5t-239.5 -117.5t-313 -42h-829zM815 1177h367
q147 0 256 80t129 212q22 123 -51.5 198t-232.5 75h-376zM670 310h399q193 0 299.5 74.5t127.5 202.5q22 140 -63.5 231.5t-253.5 91.5h-410l-31 -186h285l-40 -229h-282z" />
    <glyph glyph-name="uni0244" unicode="&#x244;" horiz-adv-x="2123" 
d="M2201 1172l-35 -220h-237l-43 -258q-23 -137 -83.5 -253.5t-149.5 -202.5t-202 -147t-243.5 -91.5t-272.5 -30.5q-179 0 -323 48.5t-240.5 139.5t-136.5 229t-11 308l43 258h-247l35 220h248l145 876h371l-145 -876h921l145 876h370l-145 -876h236zM1559 952h-922
l-41 -249q-20 -123 25.5 -215t141 -138.5t225.5 -46.5q199 0 349 108t181 292z" />
    <glyph glyph-name="uni0245" unicode="&#x245;" horiz-adv-x="2109" 
d="M1417 0l-237 1534l-743 -1534h-427l1054 2004h387l393 -2004h-427z" />
    <glyph glyph-name="uni0246" unicode="&#x246;" horiz-adv-x="1711" 
d="M1668 2308l-118 -260h196l-52 -311h-286l-253 -556h378l-52 -311h-467l-254 -559h706l-52 -311h-796l-118 -260h-228l118 260h-316l340 2048h908l118 260h228zM1180 1737h-447l-92 -556h286zM786 870h-197l-92 -559h35z" />
    <glyph glyph-name="uni0247" unicode="&#x247;" horiz-adv-x="1678" 
d="M1630 2048l-305 -577q146 -88 209 -261.5t20 -429.5l-17 -111h-636l-216 -408q48 -9 105 -9q119 0 212 50.5t146 147.5l331 -38q-84 -203 -280 -322.5t-461 -119.5q-106 0 -195 21l-300 -567h-227l340 643q-152 95 -212.5 274t-20.5 418q39 235 158 416t301.5 281
t399.5 100q78 0 153 -14l268 506h227zM803 913l189 358q-24 3 -50 3q-152 0 -277 -109t-156 -252h294zM674 669h-207l-1 -5q-32 -202 45 -304zM1170 1178l-140 -265h198q27 164 -58 265z" />
    <glyph glyph-name="uni0248" unicode="&#x248;" horiz-adv-x="1602" 
d="M985 613l82 494h-299l40 229h296l118 712h368l-118 -712h295l-40 -229h-293l-84 -504q-49 -295 -252.5 -463t-503.5 -168q-137 0 -247.5 37t-186 107t-106.5 180t-8 248h364q-18 -127 44 -197t186 -70q136 0 226.5 87.5t118.5 248.5z" />
    <glyph glyph-name="uni0249" unicode="&#x249;" horiz-adv-x="734" 
d="M314 1536h362l-83 -504h295l-40 -229h-293l-146 -880q-40 -244 -205.5 -371.5t-418.5 -127.5h-114l51 298h72q119 0 177.5 53t76.5 153l145 875h-304l40 229h302zM547 1741q-86 0 -146.5 57.5t-56.5 139.5t68.5 139.5t149.5 57.5t144 -57.5t57 -139.5t-66 -139.5
t-150 -57.5z" />
    <glyph glyph-name="uni024A" unicode="&#x24a;" horiz-adv-x="2289" 
d="M2188 2048l-360 -2166q-28 -169 190 -169q35 0 97 8l-46 -283q-75 -14 -196 -14q-105 0 -185.5 24.5t-139 76.5t-80.5 143t-2 214l70 428h-16q-103 -157 -270.5 -248.5t-369.5 -91.5q-124 0 -232.5 36t-192 103t-146 162t-95 212.5t-40.5 255.5t19 290q48 296 198 535
t370 375.5t467 136.5q203 0 340.5 -90.5t190.5 -242.5h21l50 305h358zM991 305q115 0 211.5 34.5t169 97t129.5 153t95 198.5t62 238q16 128 14 238t-31 199.5t-80.5 152.5t-134.5 97.5t-192 34.5q-253 0 -432.5 -197t-233.5 -525q-56 -336 59.5 -528.5t363.5 -192.5z" />
    <glyph glyph-name="uni024B" unicode="&#x24b;" horiz-adv-x="1886" 
d="M1470 -576q-83 0 -150.5 15t-124 48.5t-89.5 87t-47 130t4 177.5l20 105l41 255h-14q-183 -269 -486 -269q-136 0 -242.5 52.5t-174.5 154t-91.5 249t7.5 337.5q31 187 105.5 338.5t176.5 249.5t226 150t258 52q78 0 141.5 -18.5t103 -45.5t71.5 -66.5t47.5 -72
t29.5 -71.5h21l43 254h356l-256 -1549l-20 -105q-8 -48 4 -82t41 -52.5t65 -26.5t82 -8q35 0 95 8l-47 -283q-72 -14 -196 -14zM775 270q171 0 288.5 135.5t154.5 362.5q37 228 -35 359.5t-245 131.5q-175 0 -292.5 -135t-153.5 -356q-20 -108 -9.5 -199.5t44 -157.5
t97.5 -103.5t151 -37.5z" />
    <glyph glyph-name="uni024C" unicode="&#x24c;" horiz-adv-x="1854" 
d="M111 0l128 770h-210l47 291h211l164 987h759q181 0 314 -48t207 -135t100.5 -204t2.5 -259q-32 -201 -151.5 -346t-305.5 -223l296 -833h-414l-264 767h-385l-128 -767h-371zM658 1061h353q201 0 309 89.5t134 247.5q7 53 6 102.5t-22.5 92.5t-56.5 75.5t-97 51
t-144 18.5h-369z" />
    <glyph glyph-name="uni024D" unicode="&#x24d;" horiz-adv-x="1165" 
d="M58 0l105 627h-299l40 229h297l113 680h351l-43 -256h16q63 132 176.5 205t249.5 73q122 0 194 -56l-160 -298q-57 30 -139 30q-143 0 -254.5 -93t-135.5 -238l-8 -47h302l-40 -229h-300l-103 -627h-362z" />
    <glyph glyph-name="uni024E" unicode="&#x24e;" horiz-adv-x="1989" 
d="M2112 1623l-34 -202h-410l-490 -657l-127 -764h-369l127 764l-272 657h-410l35 202h291l-176 425h418l165 -425h554l304 425h418l-317 -425h293zM938 1421l108 -279h23l200 279h-331z" />
    <glyph glyph-name="uni024F" unicode="&#x24f;" horiz-adv-x="1635" 
d="M1612 1056l-34 -205h-239l-550 -1051q-211 -398 -605 -398q-139 0 -221 41l130 290q75 -23 136 -22.5t115.5 39t102.5 120.5l52 96l-167 885h-240l34 205h167l-90 480h384l67 -480h431l227 480h385l-251 -480h166zM988 851h-306l66 -475h16z" />
    <glyph glyph-name="uni0250" unicode="&#x250;" horiz-adv-x="1618" 
d="M1122 1567q227 0 350.5 -121.5t87.5 -340.5q-14 -84 -47 -152t-83 -116t-107.5 -83t-130.5 -58t-141.5 -36t-150.5 -22q-229 -24 -290 -40q-86 -24 -107 -77q-5 -11 -7 -25q-18 -116 37.5 -177.5t182.5 -61.5q125 0 215 54.5t134 140.5l328 -48q-91 -206 -283 -315
t-444 -109q-91 0 -172 15.5t-157 54t-126.5 97t-72.5 151.5t-2 210l171 1028h348l-36 -211h12q71 106 196 174t295 68zM985 1301q-159 0 -273 -92t-136 -224l-30 -181q48 35 343 75q137 19 221 70.5t99 149.5q16 97 -46 149.5t-178 52.5z" />
    <glyph glyph-name="uni0251" unicode="&#x251;" horiz-adv-x="1819" 
d="M662 -32q-146 1 -261.5 62t-184 169.5t-95 259t5.5 330.5q36 223 149.5 398.5t276.5 272t346 96.5q194 0 314 -105t161 -285h3l140 370h294l-300 -772l-4 -11l61 -753h-296q-9 166 -17 351h-1q-102 -180 -250.5 -282t-341.5 -101zM1237 798q-27 461 -306 461
q-167 0 -293 -143t-164 -368q-33 -209 33.5 -343.5t210.5 -134.5q72 0 142 34t124.5 87t104 122.5t82.5 134t57 127.5z" />
    <glyph glyph-name="uni0252" unicode="&#x252;" horiz-adv-x="1851" 
d="M1678 784l-4 -28q-29 -172 -92 -315.5t-154.5 -248.5t-214.5 -163.5t-265 -58.5q-243 0 -349 208l-59 -180h-322l171 1022q17 102 -1.5 144t-70.5 42q-6 0 -16.5 -2t-15.5 -2l13 276q76 38 184 38q240 0 286 -227q177 225 440 225q186 0 305.5 -94t160 -257.5t4.5 -378.5
zM1300 756l4 28q12 72 13 133.5t-12 118t-41.5 96t-79.5 63t-121 23.5q-183 0 -295 -160q-2 -12 -6 -38l-97 -585q61 -166 239 -166q83 0 151.5 38t116 106t79.5 153.5t49 189.5z" />
    <glyph glyph-name="uni0253" unicode="&#x253;" horiz-adv-x="1722" 
d="M657 1424l-15 -87h19q28 41 64.5 76t89.5 69t126 54t157 20q133 0 238.5 -51.5t175.5 -151.5t94 -247.5t-7 -339.5q-40 -247 -154.5 -429t-272 -273t-338.5 -91q-81 0 -146.5 19t-107.5 52.5t-68 69t-42 77.5h-24l-32 -191h-356l237 1424h-1l32 194q17 103 58.5 184
t95.5 131.5t124 83.5t140.5 46t149.5 13q119 0 189 -14l-47 -283q-54 8 -91 8q-226 0 -257 -169l-13 -82h1l-17 -100zM1251 768q37 226 -36.5 358.5t-256.5 132.5q-92 0 -167.5 -36.5t-129 -103t-89.5 -155t-54 -196.5q-20 -106 -11.5 -197t38.5 -158t94 -105t156 -38
q182 0 300 135t156 363z" />
    <glyph glyph-name="uni0254" unicode="&#x254;" horiz-adv-x="1586" 
d="M90 506h349q-12 -105 55.5 -170.5t184.5 -65.5q77 0 139.5 26t104 68t73 103t49 121.5t30.5 133.5l7 44q11 69 13.5 128t-8.5 121t-38 105t-80.5 71t-130.5 28q-127 0 -213.5 -78t-112.5 -197h-350q49 257 247 414.5t473 157.5q115 0 209.5 -27t161.5 -76t116 -117.5
t71 -151.5t27.5 -179t-14.5 -199l-7 -44q-27 -158 -93 -292.5t-167.5 -237.5t-246 -161.5t-315.5 -58.5q-168 0 -298 69.5t-193.5 192.5t-42.5 272z" />
    <glyph glyph-name="uni0255" unicode="&#x255;" horiz-adv-x="1617" 
d="M1552 1052l-346 -45q-10 117 -79 184.5t-197 67.5q-180 0 -300 -132t-157 -359q-15 -88 -12 -175q309 212 573 212q73 0 133 -13.5t101.5 -37.5t71.5 -57.5t43.5 -73.5t17.5 -86t-7 -94q-15 -97 -70 -183t-140.5 -150.5t-207 -102t-260.5 -37.5q-243 0 -400 124
q-104 -101 -215 -220l-204 194q136 157 252 267q-66 188 -26 433q29 172 104.5 318t185.5 249.5t255.5 162t309.5 58.5q261 0 417 -137t157 -367zM766 270q114 0 192.5 37t88.5 107q8 46 -21 72t-73 26q-138 0 -376 -185q75 -57 189 -57z" />
    <glyph glyph-name="uni0256" unicode="&#x256;" horiz-adv-x="1746" 
d="M1472 -576q-83 0 -151 15t-124.5 48.5t-89.5 87t-46.5 130t4.5 177.5l61 360h-20q-180 -269 -483 -269q-136 0 -243 52.5t-175.5 154t-92 249t8.5 337.5q31 187 104.5 338.5t175.5 249.5t225.5 150t257.5 52q307 0 393 -274h16l128 766h362l-286 -1732h1l-68 -426
q-10 -58 1 -95.5t41.5 -55t63.5 -23t83 -5.5q37 0 95 8l-46 -281q-72 -14 -196 -14zM1216 768q39 227 -34 359t-246 132q-175 0 -291.5 -134.5t-154.5 -356.5q-36 -223 36 -360.5t245 -137.5q171 0 289 135.5t156 362.5z" />
    <glyph glyph-name="uni0257" unicode="&#x257;" horiz-adv-x="1809" 
d="M626 -27q-136 0 -243.5 52.5t-176 154t-92 249t8.5 337.5q31 187 105 338.5t176 249.5t225 150t257 52q308 0 394 -274h15l55 332q20 125 78.5 218.5t141 145t172.5 76t188 24.5q116 0 189 -19l-49 -284q-35 10 -89 10q-38 0 -66.5 -2.5t-65.5 -12.5t-62 -27.5
t-46.5 -50.5t-28.5 -78l-265 -1614h-356l41 242h-24q-180 -269 -482 -269zM774 270q170 0 288 135t157 363q38 227 -35 359t-246 132q-175 0 -291.5 -134.5t-153.5 -356.5q-37 -223 35 -360.5t246 -137.5z" />
    <glyph glyph-name="uni0258" unicode="&#x258;" horiz-adv-x="1584" 
d="M598 -28q-142 0 -256 42t-179.5 100.5t-108.5 133.5l227 195q112 -173 345 -173q163 0 281 97.5t163 258.5h-978l24 159q28 164 92 297t161 230.5t231.5 150.5t296.5 53q151 0 271.5 -55.5t195 -156.5t104.5 -242.5t-1 -313.5l-8 -54q-26 -151 -99 -283t-182.5 -229.5
t-259.5 -153.5t-320 -56zM1107 885q2 152 -61.5 243t-195.5 91q-77 0 -138.5 -24.5t-102 -68.5t-66 -96.5t-40.5 -116.5l-3 -28h607z" />
    <glyph glyph-name="uni0259" unicode="&#x259;" horiz-adv-x="1678" 
d="M940 1566q230 0 383 -96.5t212.5 -275t19.5 -417.5q-39 -235 -158 -416t-301.5 -281t-399.5 -100q-145 0 -261.5 45.5t-200 140.5t-112 241.5t1.5 348.5l17 111h1070l1 5q67 412 -324 412q-119 0 -212 -50.5t-146 -147.5l-331 38q84 203 280 322.5t461 119.5zM1169 623
h-719q-26 -158 53 -259.5t233 -101.5q152 0 277 109t156 252z" />
    <glyph glyph-name="uni025A" unicode="&#x25a;" horiz-adv-x="2254" 
d="M877 1516q255 0 415 -122t201 -326l340 70v-28q-1 -63 -0.5 -117.5t4 -99t12.5 -79t25 -58.5t42 -36t63 -12q38 0 84 4l8 -229q-109 -53 -216 -53q-74 0 -128 21.5t-85.5 54.5t-51 88t-26.5 107t-10 126l-57 -13q-1 -3 -2 -9.5t-1 -9.5l-8 -55q-38 -225 -155 -400
t-291.5 -271.5t-376.5 -96.5q-130 0 -232 35t-168.5 99t-106 154.5t-44.5 202.5t15 243l12 83l980 205q-27 105 -107.5 165t-205.5 60q-240 0 -405 -174l-158 197q99 116 261.5 195t372.5 79zM1115 736l-640 -129l-4 -32q-13 -60 -4 -115.5t34 -97.5t80 -67t133 -25
q159 0 262 130.5t139 335.5z" />
    <glyph glyph-name="uni025B" unicode="&#x25b;" horiz-adv-x="1736" 
d="M463 774q-148 44 -206.5 135t-40.5 201q35 209 235 327.5t495 118.5q272 0 427.5 -121t137.5 -333h-357q1 85 -70.5 130.5t-199.5 45.5q-134 0 -220 -53.5t-101 -136.5q-12 -79 55 -125.5t203 -46.5h206l-21 -124l-20 -134h-207q-133 0 -231 -56.5t-115 -152.5
q-13 -86 64 -141.5t224 -55.5q148 0 233.5 47.5t122.5 145.5h349q-35 -148 -144 -256.5t-263.5 -162.5t-334.5 -54q-193 0 -339 54.5t-219.5 156.5t-51.5 235q20 123 116 218.5t273 137.5z" />
    </font>
</defs>
</svg>
